<svg width="211" height="91" viewBox="0 0 211 91" fill="none" xmlns="http://www.w3.org/2000/svg">
<g clip-path="url(#clip0_701:2)">
<path d="M12.0928 40.8636C11.5382 39.4552 11.3121 37.9386 11.4319 36.4294C11.4319 33.6488 10.0977 32.6444 7.62533 32.6444H2.54586V40.8636H0V21.424H8.87377C12.7293 21.424 15.0671 23.7881 15.0671 26.7035C15.0817 27.855 14.7043 28.9772 13.9969 29.8856C13.2895 30.7939 12.2942 31.4342 11.1748 31.7012C13.1454 32.4484 14.1736 33.8693 14.2592 36.4539C14.3449 38.671 14.4551 39.6142 15.2262 40.4839V40.8636H12.0928ZM8.65346 30.2313C10.9912 30.2313 12.3254 29.0063 12.3254 27.0342C12.3254 25.062 10.9423 23.8371 8.65346 23.8371H2.53362V30.2313H8.65346Z" fill="#DF6B2E"/>
<path d="M29.718 36.8826C29.3681 38.1568 28.5935 39.273 27.5227 40.0461C26.4519 40.8192 25.1492 41.2027 23.8307 41.1331C19.9752 41.1331 17.1968 38.4383 17.1968 34.1878C17.1968 30.415 19.7304 27.4139 23.4757 27.4139C25.0381 27.342 26.5653 27.8925 27.7229 28.9451C28.2671 29.4699 28.692 30.1059 28.9687 30.8097C29.2454 31.5136 29.3674 32.2688 29.3263 33.0241C29.3322 33.5632 29.2789 34.1013 29.1672 34.6288H19.6447C19.5958 35.2009 19.6688 35.7768 19.859 36.3185C20.0492 36.8603 20.3522 37.3554 20.748 37.7711C21.1437 38.1869 21.6232 38.5137 22.1546 38.7301C22.686 38.9465 23.2573 39.0474 23.8307 39.0263C24.7141 39.0757 25.5857 38.8043 26.285 38.2619C26.9844 37.7195 27.4646 36.9426 27.6372 36.0742L29.718 36.8826ZM26.9396 32.9139V32.5219C26.9396 30.6355 25.4218 29.5208 23.4268 29.5208C22.4768 29.4832 21.5493 29.8158 20.8393 30.4486C20.1294 31.0814 19.6924 31.9651 19.6202 32.9139H26.9396Z" fill="#DF6B2E"/>
<path d="M33.5243 36.3927C33.7612 37.2222 34.2822 37.9419 34.9961 38.4257C35.7099 38.9094 36.5711 39.1264 37.4288 39.0385C39.179 39.0385 40.2561 38.2546 40.2561 37.1154C40.2561 35.9762 39.4605 35.1677 36.7923 34.8125C33.7691 34.3715 32.2636 33.1221 32.2636 31.0397C32.2566 30.5324 32.3747 30.0311 32.6074 29.5803C32.8401 29.1295 33.1802 28.743 33.5977 28.4551C34.5892 27.7401 35.7914 27.3778 37.0126 27.4262C38.0123 27.3359 39.0143 27.5709 39.8699 28.0961C40.7255 28.6213 41.3889 29.4088 41.7616 30.3415L39.9012 31.3704C39.7209 30.757 39.3356 30.224 38.8099 29.8606C38.2842 29.4972 37.6497 29.3254 37.0126 29.3738C35.5683 29.3738 34.4668 30.0353 34.4668 31.0642C34.4668 32.0932 35.4092 32.7056 37.9918 33.0608C41.068 33.4773 42.6021 34.7839 42.5939 36.9806C42.5939 39.4305 40.2928 41.1454 37.3186 41.1454C36.0887 41.2463 34.8595 40.9418 33.8186 40.2783C32.7777 39.6148 31.9823 38.6288 31.5537 37.4706L33.5243 36.3927Z" fill="#DF6B2E"/>
<path d="M47.8694 27.7079V30.1578C48.3494 29.3305 49.0363 28.6425 49.8625 28.1614C50.6888 27.6803 51.6259 27.4227 52.5817 27.4139C56.1312 27.4139 58.5791 30.1945 58.5791 34.2735C58.5791 38.3525 55.9966 41.1331 52.4593 41.1331C51.5804 41.1655 50.7083 40.9679 49.9291 40.5597C49.1499 40.1515 48.4906 39.547 48.0163 38.8058V46.3513H45.5684V27.7079H47.8694ZM56.1924 34.3103C56.1924 31.2847 54.1973 29.5943 52.0309 29.5943C50.8856 29.7379 49.832 30.295 49.0681 31.1612C48.3043 32.0273 47.8828 33.1428 47.8828 34.298C47.8828 35.4532 48.3043 36.5687 49.0681 37.4348C49.832 38.301 50.8856 38.8582 52.0309 39.0017C54.1973 39.0017 56.1924 37.3726 56.1924 34.3103Z" fill="#DF6B2E"/>
<path d="M65.7637 33.0364C66.7139 33.0294 67.6594 33.1698 68.5666 33.4528L69.7905 33.7836V32.4239C69.7905 30.513 68.4564 29.4473 66.4858 29.4473C65.6671 29.3837 64.8541 29.6286 64.2064 30.134C63.5588 30.6393 63.1232 31.3687 62.9853 32.1789L60.8188 31.5664C61.3452 29.0308 63.4014 27.4262 66.4858 27.4262C70.0598 27.4262 72.0916 29.3738 72.0916 32.6199V40.8637H69.7661V38.7813C69.3018 39.5543 68.6332 40.1841 67.8342 40.6012C67.0351 41.0183 66.1365 41.2067 65.2374 41.1454C64.1221 41.1598 63.0378 40.7779 62.1775 40.0674C61.7706 39.6945 61.4503 39.237 61.2388 38.727C61.0274 38.2171 60.93 37.667 60.9535 37.1154C60.88 34.4328 62.9118 33.0364 65.7637 33.0364ZM69.7661 35.6577L68.5421 35.3025C67.7506 35.0454 66.926 34.9051 66.0942 34.886C64.4051 34.886 63.3525 35.6087 63.3525 36.9684C63.3525 38.328 64.2949 39.0263 66.0452 39.0263C68.2361 39.0263 69.7171 37.8013 69.7171 35.9394L69.7661 35.6577Z" fill="#DF6B2E"/>
<path d="M75.7881 21.424H78.1748V40.8636H75.7881V21.424Z" fill="#DF6B2E"/>
<path d="M87.1954 27.4262C88.1197 27.4013 89.0321 27.639 89.8271 28.1115C90.622 28.5841 91.267 29.2723 91.6874 30.0965V21.424H94.1353V40.8636H91.7975V38.5118C91.3438 39.3186 90.6819 39.9886 89.8809 40.4519C89.08 40.9152 88.1694 41.1547 87.2444 41.1454C83.5724 41.1454 81.1245 38.3893 81.1245 34.3715C81.1245 30.3537 83.6092 27.4262 87.1954 27.4262ZM87.636 29.5943C87.0482 29.6219 86.472 29.7677 85.9418 30.0231C85.4115 30.2784 84.9381 30.638 84.5497 31.0804C84.1613 31.5228 83.866 32.039 83.6812 32.5981C83.4965 33.1572 83.4262 33.7479 83.4745 34.3348C83.4206 34.919 83.4875 35.5082 83.671 36.0655C83.8545 36.6228 84.1506 37.1363 84.541 37.5741C84.9314 38.0119 85.4076 38.3646 85.9401 38.6102C86.4726 38.8558 87.0499 38.9891 87.636 39.0017C88.2183 38.977 88.7896 38.8356 89.3163 38.586C89.843 38.3364 90.3143 37.9835 90.7023 37.5484C91.0903 37.1133 91.3871 36.6046 91.5753 36.0526C91.7634 35.5007 91.839 34.9165 91.7975 34.3348C91.8374 33.7496 91.7611 33.1623 91.5732 32.6068C91.3853 32.0512 91.0894 31.5384 90.7026 31.0977C90.3158 30.6571 89.8457 30.2974 89.3194 30.0394C88.7931 29.7814 88.221 29.6301 87.636 29.5943Z" fill="#DF6B2E"/>
<path d="M103.646 27.4262C105.009 27.3872 106.353 27.7561 107.506 28.4857C108.658 29.2154 109.567 30.2726 110.116 31.5221C110.665 32.7716 110.829 34.1565 110.587 35.4998C110.345 36.8431 109.708 38.0836 108.758 39.0627C107.808 40.0417 106.587 40.7147 105.253 40.9957C103.918 41.2766 102.53 41.1527 101.266 40.6398C100.002 40.1269 98.9198 39.2483 98.1576 38.1163C97.3954 36.9844 96.988 35.6507 96.9875 34.2858C96.9418 33.3895 97.0813 32.4935 97.3972 31.6536C97.7131 30.8137 98.1986 30.048 98.8234 29.4043C99.4482 28.7605 100.199 28.2527 101.029 27.9123C101.858 27.572 102.749 27.4065 103.646 27.4262ZM106.669 30.9295C106.298 30.4932 105.834 30.1464 105.31 29.9152C104.787 29.684 104.218 29.5743 103.646 29.5943C102.485 29.7132 101.41 30.2587 100.628 31.1254C99.8461 31.992 99.4133 33.1181 99.4133 34.2858C99.4133 35.4534 99.8461 36.5795 100.628 37.4462C101.41 38.3128 102.485 38.8584 103.646 38.9773C106.094 38.9773 107.869 37.0664 107.869 34.2858C107.923 33.053 107.492 31.8481 106.669 30.9295Z" fill="#DF6B2E"/>
<path d="M211 0H119.056V47.2455H127.011V8.23152H203.057V81.3231H184.269V89.5546H211V0Z" fill="#F6B234"/>
<path d="M0.79541 52.9782H11.1135V66.9301H24.3568V52.9782H34.6871V90.2528H24.3568V76.0803H11.1135V90.2405H0.79541V52.9782Z" fill="#625D9C"/>
<path d="M40.0605 71.7196V71.6094C40.0605 60.9157 48.6283 52.231 60.1704 52.231C71.7124 52.231 80.1823 60.8055 80.1823 71.5114V71.6094C80.1823 82.3153 71.5533 91 60.0602 91C48.5671 91 40.0605 82.4255 40.0605 71.7196ZM69.5827 71.7196V71.6094C69.5827 66.1829 65.7517 61.5527 60.0602 61.5527C54.3687 61.5527 50.5867 66.1339 50.5867 71.5114V71.6094C50.5375 72.9047 50.7483 74.1968 51.2065 75.4093C51.6647 76.6218 52.3611 77.7301 53.2545 78.6687C54.1479 79.6073 55.2201 80.3572 56.408 80.8741C57.5958 81.3911 58.8751 81.6645 60.1704 81.6783C65.8496 81.6783 69.5827 77.0971 69.5827 71.7196Z" fill="#625D9C"/>
<path d="M85.4941 52.9782H96.4487L105.335 67.4078L114.221 52.9782H125.138V90.2528H114.808V68.841L105.286 83.4299H105.078L95.6041 68.9023V90.2528H85.4941V52.9782Z" fill="#625D9C"/>
<path d="M131.944 52.9782H142.274V90.2528H131.944V52.9782Z" fill="#625D9C"/>
<path d="M149.08 52.9782H179.042V61.7119H159.3V67.4078H177.231V75.5536H159.3V81.47H179.299V90.2528H149.08V52.9782Z" fill="#625D9C"/>
</g>
<defs>
<clipPath id="clip0_701:2">
<rect width="211" height="91" fill="white"/>
</clipPath>
</defs>
</svg>
