<svg width="211" height="91" viewBox="0 0 211 91" fill="none" xmlns="http://www.w3.org/2000/svg">
<g clip-path="url(#clip0_702:66)">
<path d="M12.0928 40.8635C11.5382 39.455 11.3121 37.9384 11.4319 36.4292C11.4319 33.6486 10.0977 32.6442 7.62533 32.6442H2.54586V40.8635H0V21.4238H8.87377C12.7293 21.4238 15.0671 23.7879 15.0671 26.7033C15.0817 27.8548 14.7043 28.9771 13.9969 29.8854C13.2895 30.7937 12.2942 31.434 11.1748 31.701C13.1454 32.4482 14.1736 33.8691 14.2592 36.4537C14.3449 38.6708 14.4551 39.614 15.2262 40.4837V40.8635H12.0928ZM8.65346 30.2311C10.9912 30.2311 12.3254 29.0061 12.3254 27.034C12.3254 25.0619 10.9423 23.8369 8.65346 23.8369H2.53362V30.2311H8.65346Z" fill="white"/>
<path d="M29.718 36.8827C29.3681 38.1568 28.5935 39.273 27.5227 40.0461C26.4519 40.8192 25.1492 41.2028 23.8307 41.1332C19.9752 41.1332 17.1968 38.4384 17.1968 34.1878C17.1968 30.4151 19.7304 27.414 23.4757 27.414C25.0381 27.342 26.5653 27.8926 27.7229 28.9451C28.2671 29.47 28.692 30.1059 28.9687 30.8098C29.2454 31.5137 29.3674 32.2689 29.3263 33.0242C29.3322 33.5633 29.2789 34.1014 29.1672 34.6288H19.6447C19.5958 35.2009 19.6688 35.7769 19.859 36.3186C20.0492 36.8603 20.3522 37.3554 20.748 37.7712C21.1437 38.1869 21.6232 38.5138 22.1546 38.7302C22.686 38.9465 23.2573 39.0475 23.8307 39.0263C24.7141 39.0758 25.5857 38.8044 26.285 38.262C26.9844 37.7196 27.4646 36.9427 27.6372 36.0742L29.718 36.8827ZM26.9396 32.9139V32.5219C26.9396 30.6355 25.4218 29.5209 23.4268 29.5209C22.4768 29.4832 21.5493 29.8158 20.8393 30.4486C20.1294 31.0815 19.6924 31.9652 19.6202 32.9139H26.9396Z" fill="white"/>
<path d="M33.5243 36.3926C33.7612 37.2222 34.2822 37.9419 34.9961 38.4256C35.7099 38.9094 36.5711 39.1263 37.4288 39.0384C39.179 39.0384 40.2561 38.2545 40.2561 37.1153C40.2561 35.9761 39.4605 35.1677 36.7923 34.8124C33.7691 34.3715 32.2636 33.122 32.2636 31.0397C32.2566 30.5323 32.3747 30.031 32.6074 29.5802C32.8401 29.1294 33.1802 28.7429 33.5977 28.4551C34.5892 27.74 35.7914 27.3778 37.0126 27.4261C38.0123 27.3359 39.0143 27.5708 39.8699 28.096C40.7255 28.6213 41.3889 29.4087 41.7616 30.3414L39.9012 31.3704C39.7209 30.7569 39.3356 30.224 38.8099 29.8606C38.2842 29.4972 37.6497 29.3253 37.0126 29.3738C35.5683 29.3738 34.4668 30.0352 34.4668 31.0642C34.4668 32.0931 35.4092 32.7056 37.9918 33.0608C41.068 33.4773 42.6021 34.7839 42.5939 36.9806C42.5939 39.4304 40.2928 41.1453 37.3186 41.1453C36.0887 41.2463 34.8595 40.9418 33.8186 40.2783C32.7777 39.6148 31.9823 38.6287 31.5537 37.4705L33.5243 36.3926Z" fill="white"/>
<path d="M47.8694 27.7081V30.1579C48.3494 29.3307 49.0363 28.6427 49.8625 28.1616C50.6888 27.6805 51.6259 27.4229 52.5817 27.4141C56.1312 27.4141 58.5791 30.1947 58.5791 34.2737C58.5791 38.3527 55.9966 41.1333 52.4593 41.1333C51.5804 41.1657 50.7083 40.968 49.9291 40.5599C49.1499 40.1517 48.4906 39.5471 48.0163 38.8059V46.3515H45.5684V27.7081H47.8694ZM56.1924 34.3104C56.1924 31.2848 54.1973 29.5944 52.0309 29.5944C50.8856 29.738 49.832 30.2952 49.0681 31.1613C48.3043 32.0275 47.8828 33.1429 47.8828 34.2982C47.8828 35.4534 48.3043 36.5689 49.0681 37.435C49.832 38.3011 50.8856 38.8583 52.0309 39.0019C54.1973 39.0019 56.1924 37.3727 56.1924 34.3104Z" fill="white"/>
<path d="M65.7637 33.0364C66.7139 33.0295 67.6594 33.1699 68.5666 33.4529L69.7905 33.7837V32.424C69.7905 30.5131 68.4564 29.4474 66.4858 29.4474C65.6671 29.3838 64.8541 29.6287 64.2064 30.1341C63.5588 30.6394 63.1232 31.3688 62.9853 32.179L60.8188 31.5665C61.3452 29.0309 63.4014 27.4263 66.4858 27.4263C70.0598 27.4263 72.0916 29.3739 72.0916 32.62V40.8637H69.7661V38.7814C69.3018 39.5544 68.6332 40.1842 67.8342 40.6013C67.0351 41.0184 66.1365 41.2067 65.2374 41.1455C64.1221 41.1599 63.0378 40.778 62.1775 40.0675C61.7706 39.6946 61.4503 39.2371 61.2388 38.7271C61.0274 38.2172 60.93 37.6671 60.9535 37.1155C60.88 34.4329 62.9118 33.0364 65.7637 33.0364ZM69.7661 35.6578L68.5421 35.3026C67.7506 35.0455 66.926 34.9052 66.0942 34.8861C64.4051 34.8861 63.3525 35.6088 63.3525 36.9685C63.3525 38.3281 64.2949 39.0264 66.0452 39.0264C68.2361 39.0264 69.7171 37.8014 69.7171 35.9395L69.7661 35.6578Z" fill="white"/>
<path d="M75.7881 21.4238H78.1748V40.8635H75.7881V21.4238Z" fill="white"/>
<path d="M87.1954 27.426C88.1197 27.4012 89.0321 27.6388 89.8271 28.1114C90.622 28.5839 91.267 29.2721 91.6874 30.0963V21.4238H94.1353V40.8635H91.7975V38.5116C91.3438 39.3184 90.6819 39.9885 89.8809 40.4517C89.08 40.915 88.1694 41.1545 87.2444 41.1452C83.5724 41.1452 81.1245 38.3891 81.1245 34.3713C81.1245 30.3536 83.6092 27.426 87.1954 27.426ZM87.636 29.5941C87.0482 29.6217 86.472 29.7675 85.9418 30.0229C85.4115 30.2782 84.9381 30.6378 84.5497 31.0802C84.1613 31.5226 83.866 32.0388 83.6812 32.5979C83.4965 33.157 83.4262 33.7477 83.4745 34.3346C83.4206 34.9189 83.4875 35.508 83.671 36.0653C83.8545 36.6226 84.1506 37.1361 84.541 37.5739C84.9314 38.0117 85.4076 38.3644 85.9401 38.61C86.4726 38.8556 87.0499 38.9889 87.636 39.0016C88.2183 38.9768 88.7896 38.8355 89.3163 38.5858C89.843 38.3362 90.3143 37.9834 90.7023 37.5482C91.0903 37.1131 91.3871 36.6045 91.5753 36.0525C91.7634 35.5005 91.839 34.9163 91.7975 34.3346C91.8374 33.7494 91.7611 33.1621 91.5732 32.6066C91.3853 32.051 91.0894 31.5382 90.7026 31.0976C90.3158 30.6569 89.8457 30.2972 89.3194 30.0392C88.7931 29.7812 88.221 29.6299 87.636 29.5941Z" fill="white"/>
<path d="M103.646 27.4261C105.009 27.3871 106.353 27.7561 107.506 28.4857C108.658 29.2154 109.567 30.2726 110.116 31.522C110.665 32.7715 110.829 34.1565 110.587 35.4998C110.345 36.8431 109.708 38.0836 108.758 39.0626C107.808 40.0417 106.587 40.7147 105.253 40.9957C103.918 41.2766 102.53 41.1527 101.266 40.6398C100.002 40.1268 98.9198 39.2482 98.1576 38.1163C97.3954 36.9844 96.988 35.6507 96.9875 34.2857C96.9418 33.3895 97.0813 32.4934 97.3972 31.6535C97.7131 30.8136 98.1986 30.0479 98.8234 29.4042C99.4482 28.7605 100.199 28.2526 101.029 27.9123C101.858 27.572 102.749 27.4065 103.646 27.4261ZM106.669 30.9294C106.298 30.4931 105.834 30.1464 105.31 29.9152C104.787 29.684 104.218 29.5743 103.646 29.5943C102.485 29.7131 101.41 30.2587 100.628 31.1253C99.8461 31.992 99.4133 33.1181 99.4133 34.2857C99.4133 35.4534 99.8461 36.5795 100.628 37.4462C101.41 38.3128 102.485 38.8584 103.646 38.9772C106.094 38.9772 107.869 37.0663 107.869 34.2857C107.923 33.053 107.492 31.8481 106.669 30.9294Z" fill="white"/>
<path d="M211 0H119.056V47.2455H127.011V8.23152H203.057V81.3231H184.269V89.5546H211V0Z" fill="#F6B234"/>
<path d="M0.79541 52.978H11.1135V66.93H24.3568V52.978H34.6871V90.2526H24.3568V76.0802H11.1135V90.2404H0.79541V52.978Z" fill="white"/>
<path d="M40.0605 71.7196V71.6093C40.0605 60.9157 48.6283 52.231 60.1704 52.231C71.7124 52.231 80.1823 60.8055 80.1823 71.5113V71.6093C80.1823 82.3152 71.5533 91 60.0602 91C48.5671 91 40.0605 82.4255 40.0605 71.7196ZM69.5827 71.7196V71.6093C69.5827 66.1829 65.7517 61.5527 60.0602 61.5527C54.3687 61.5527 50.5867 66.1339 50.5867 71.5113V71.6093C50.5375 72.9047 50.7483 74.1968 51.2065 75.4093C51.6647 76.6218 52.3611 77.73 53.2545 78.6687C54.1479 79.6073 55.2201 80.3572 56.408 80.8741C57.5958 81.391 58.8751 81.6645 60.1704 81.6783C65.8496 81.6783 69.5827 77.097 69.5827 71.7196Z" fill="white"/>
<path d="M85.4941 52.978H96.4487L105.335 67.4077L114.221 52.978H125.138V90.2526H114.808V68.8409L105.286 83.4298H105.078L95.6041 68.9021V90.2526H85.4941V52.978Z" fill="white"/>
<path d="M131.944 52.978H142.274V90.2526H131.944V52.978Z" fill="white"/>
<path d="M149.08 52.978H179.042V61.7118H159.3V67.4077H177.231V75.5535H159.3V81.4699H179.299V90.2526H149.08V52.978Z" fill="white"/>
</g>
<defs>
<clipPath id="clip0_702:66">
<rect width="211" height="91" fill="white"/>
</clipPath>
</defs>
</svg>
