<svg xmlns="http://www.w3.org/2000/svg" width="297.956" height="128.395" viewBox="0 0 297.956 128.395">
  <g id="Grupo_56" data-name="Grupo 56" transform="translate(-93.261 -2929.166)">
    <g id="Grupo_50" data-name="Grupo 50" transform="translate(-1.467 15.051)">
      <g id="Grupo_48" data-name="Grupo 48">
        <g id="Grupo_46" data-name="Grupo 46">
          <g id="Grupo_45" data-name="Grupo 45">
            <path id="Trazado_549" data-name="Trazado 549" d="M111.814,2971.778c-.627-1.254-.9-2.822-.941-6.27-.039-3.919-1.881-5.33-5.369-5.33H98.333v11.6H94.728v-27.432h12.54c5.447,0,8.739,3.331,8.739,7.446,0,3.409-1.92,5.839-5.486,7.054,2.782,1.058,4.232,3.057,4.35,6.7.117,3.135.274,4.467,1.371,5.682v.549Zm-4.86-15.009c3.292,0,5.252-1.685,5.252-4.507,0-2.861-1.96-4.507-5.252-4.507H98.333v9.014Z" fill="#fff"/>
            <path id="Trazado_550" data-name="Trazado 550" d="M136.7,2966.174a8.167,8.167,0,0,1-8.308,6c-5.448,0-9.366-3.8-9.366-9.8,0-5.33,3.566-9.563,8.856-9.563a8.342,8.342,0,0,1,6,2.156,7.44,7.44,0,0,1,2.273,5.761,10.369,10.369,0,0,1-.235,2.273H122.472c.04,4.036,2.626,6.192,5.918,6.192a5.153,5.153,0,0,0,5.369-4.154Zm-3.919-5.6.039-.549c0-2.665-2.155-4.232-4.977-4.232a5.184,5.184,0,0,0-5.369,4.781Z" fill="#fff"/>
            <path id="Trazado_551" data-name="Trazado 551" d="M142.065,2965.469a5.273,5.273,0,0,0,5.526,3.723c2.469,0,4-1.1,4-2.7,0-1.763-1.136-2.743-4.9-3.252-4.272-.627-6.388-2.391-6.388-5.33a4.359,4.359,0,0,1,1.881-3.644,7.741,7.741,0,0,1,4.82-1.451c3.488,0,5.565,1.49,6.7,4.116l-2.626,1.449a3.955,3.955,0,0,0-4.076-2.821c-2.038,0-3.605.94-3.605,2.39,0,1.607,1.332,2.312,4.977,2.822,4.35.588,6.505,2.43,6.505,5.526,0,3.448-3.252,5.878-7.446,5.878s-7.054-2.077-8.151-5.251Z" fill="#fff"/>
            <path id="Trazado_552" data-name="Trazado 552" d="M162.325,2953.2v3.487a7.8,7.8,0,0,1,6.662-3.88c5.016,0,8.465,3.919,8.465,9.68s-3.645,9.68-8.7,9.68a7.163,7.163,0,0,1-6.27-3.292v10.659h-3.371V2953.2Zm11.757,9.327c0-4.272-2.822-6.663-5.879-6.663-2.9,0-5.878,2.547-5.878,6.663s2.978,6.622,5.878,6.622C171.26,2969.152,174.082,2966.84,174.082,2962.53Z" fill="#fff"/>
            <path id="Trazado_553" data-name="Trazado 553" d="M187.6,2960.727a13.255,13.255,0,0,1,3.958.588l1.685.47v-1.92c0-2.705-1.881-4.194-4.663-4.194a4.636,4.636,0,0,0-4.938,3.841l-3.057-.862c.745-3.566,3.645-5.84,7.995-5.84,5.055,0,7.916,2.744,7.916,7.329v11.639h-3.253v-2.939c-.94,2-3.409,3.331-6.388,3.331a6.578,6.578,0,0,1-4.389-1.529,5.3,5.3,0,0,1-1.763-4.154C180.7,2962.686,183.565,2960.727,187.6,2960.727Zm5.643,3.723-1.724-.51a12.213,12.213,0,0,0-3.449-.588c-2.39,0-3.879,1.019-3.879,2.94,0,1.724,1.332,2.9,3.8,2.9,3.1,0,5.251-1.646,5.251-4.35Z" fill="#fff"/>
            <path id="Trazado_554" data-name="Trazado 554" d="M201.747,2944.346h3.371v27.432h-3.371Z" fill="#fff"/>
            <path id="Trazado_555" data-name="Trazado 555" d="M217.853,2952.81a6.947,6.947,0,0,1,6.349,3.763v-12.227h3.409v27.432h-3.252v-3.331a7.271,7.271,0,0,1-6.427,3.723c-5.134,0-8.7-3.88-8.7-9.562C209.232,2956.847,212.8,2952.81,217.853,2952.81Zm.627,3.057c-3.017,0-5.878,2.547-5.878,6.7,0,4.193,2.822,6.583,5.878,6.583,2.9,0,5.879-2.429,5.879-6.583C224.359,2958.454,221.38,2955.867,218.48,2955.867Z" fill="#fff"/>
            <path id="Trazado_556" data-name="Trazado 556" d="M241.092,2952.81c5.643,0,9.444,4.194,9.444,9.68s-3.879,9.68-9.444,9.68c-5.6,0-9.406-4.193-9.406-9.68S235.488,2952.81,241.092,2952.81Zm4.271,4.938a5.391,5.391,0,0,0-4.271-1.881c-3.449,0-5.957,2.744-5.957,6.623s2.508,6.623,5.957,6.623c3.487,0,5.956-2.7,5.956-6.623A6.691,6.691,0,0,0,245.363,2957.748Z" fill="#fff"/>
          </g>
        </g>
        <g id="Grupo_47" data-name="Grupo 47">
          <path id="Trazado_557" data-name="Trazado 557" d="M392.684,2914.115H262.848v66.658h11.23V2925.73H381.454v103.131H354.925v11.615h37.759Z" fill="#fff"/>
        </g>
      </g>
      <g id="Grupo_49" data-name="Grupo 49">
        <path id="Trazado_558" data-name="Trazado 558" d="M95.849,2988.863h14.576v19.686h18.709v-19.686H143.71v52.595H129.134v-19.985H110.425v19.985H95.849Z" fill="#fff"/>
        <path id="Trazado_559" data-name="Trazado 559" d="M151.3,3015.311v-.15c0-15.1,12.171-27.349,28.4-27.349s28.251,12.1,28.251,27.2v.15c0,15.1-12.172,27.349-28.4,27.349S151.3,3030.414,151.3,3015.311Zm41.7,0v-.15c0-7.664-5.409-14.2-13.449-14.2s-13.374,6.461-13.374,14.05v.15c0,7.589,5.485,14.2,13.524,14.2C187.664,3029.362,193,3022.9,193,3015.311Z" fill="#fff"/>
        <path id="Trazado_560" data-name="Trazado 560" d="M215.464,2988.863h15.4l12.547,20.362,12.548-20.362h15.4v52.595h-14.5v-30.2l-13.45,20.587h-.3l-13.374-20.512v30.129H215.464Z" fill="#fff"/>
        <path id="Trazado_561" data-name="Trazado 561" d="M281.057,2988.863h14.577v52.595H281.057Z" fill="#fff"/>
        <path id="Trazado_562" data-name="Trazado 562" d="M305.251,2988.863h42.3v12.323H319.677v8.039h25.245v11.5H319.677v8.34h28.25v12.4H305.251Z" fill="#fff"/>
      </g>
    </g>
  </g>
</svg>
