<svg width="8" height="8" viewBox="0 0 14 9" fill="none" xmlns="http://www.w3.org/2000/svg">
<path d="M7.22795 8.74514C7.05278 8.74791 6.87922 8.71382 6.71806 8.6451C6.5531 8.57947 6.40338 8.48073 6.27802 8.35499L0.946637 3.02312C0.822329 2.89815 0.723954 2.74988 0.657016 2.58681C0.590078 2.42374 0.555754 2.24905 0.556406 2.07277C0.556645 1.72 0.697098 1.38179 0.946637 1.13247C1.19799 0.878639 1.53938 0.734734 1.89658 0.7323C2.25052 0.736281 2.58895 0.880151 2.83724 1.13247L7.22795 5.53402L11.6192 1.14245C11.8713 0.924721 12.1966 0.810367 12.5295 0.822328C12.8684 0.83292 13.1902 0.972479 13.4297 1.21248C13.6603 1.45414 13.7986 1.76936 13.8199 2.10278C13.8268 2.43798 13.7129 2.76455 13.4995 3.02312L8.15836 8.35499C8.03676 8.47826 7.89165 8.57622 7.73198 8.64318C7.57232 8.71014 7.40109 8.7448 7.22795 8.74514V8.74514Z" fill="#fff"/>
</svg>
