<svg width="78" height="86" viewBox="0 0 78 86" fill="none" xmlns="http://www.w3.org/2000/svg">
<g clip-path="url(#clip0_701:281)">
<path d="M61.11 42.0601H67.11C67.7598 42.0601 68.3829 41.8019 68.8424 41.3424C69.3019 40.8829 69.56 40.2598 69.56 39.61V33.61C69.56 32.9602 69.3019 32.337 68.8424 31.8776C68.3829 31.4181 67.7598 31.16 67.11 31.16H61.11C60.4602 31.16 59.8371 31.4181 59.3776 31.8776C58.9181 32.337 58.66 32.9602 58.66 33.61V39.61C58.66 40.2598 58.9181 40.8829 59.3776 41.3424C59.8371 41.8019 60.4602 42.0601 61.11 42.0601ZM61.17 33.7001H67V39.55H61.15L61.17 33.7001ZM61.11 57.9401H67.11C67.758 57.9401 68.3797 57.6833 68.8389 57.226C69.2981 56.7687 69.5574 56.148 69.56 55.5V49.5C69.56 48.8502 69.3019 48.227 68.8424 47.7676C68.3829 47.3081 67.7598 47.05 67.11 47.05H61.11C60.4602 47.05 59.8371 47.3081 59.3776 47.7676C58.9181 48.227 58.66 48.8502 58.66 49.5V55.5C58.6626 56.148 58.9219 56.7687 59.3811 57.226C59.8403 57.6833 60.4619 57.9401 61.11 57.9401ZM61.17 49.58H67V55.4401H61.15L61.17 49.58ZM44.06 42.0601H50.06C50.7098 42.0601 51.333 41.8019 51.7924 41.3424C52.2519 40.8829 52.51 40.2598 52.51 39.61V33.61C52.51 32.9602 52.2519 32.337 51.7924 31.8776C51.333 31.4181 50.7098 31.16 50.06 31.16H44.06C43.412 31.1627 42.7913 31.4219 42.334 31.8811C41.8767 32.3403 41.62 32.9619 41.62 33.61V39.61C41.62 40.258 41.8767 40.8797 42.334 41.3389C42.7913 41.798 43.412 42.0574 44.06 42.0601ZM44.12 33.7001H50V39.55H44.14L44.12 33.7001ZM16 62.22H10C9.35022 62.22 8.72704 62.4782 8.26758 62.9376C7.80811 63.3971 7.54999 64.0203 7.54999 64.67V70.67C7.54999 71.3198 7.80811 71.943 8.26758 72.4025C8.72704 72.8619 9.35022 73.12 10 73.12H16C16.6498 73.12 17.273 72.8619 17.7324 72.4025C18.1919 71.943 18.45 71.3198 18.45 70.67V64.67C18.45 64.0203 18.1919 63.3971 17.7324 62.9376C17.273 62.4782 16.6498 62.22 16 62.22ZM15.94 70.58H10V64.73H15.85L15.94 70.58ZM16 31.1901H10C9.35022 31.1901 8.72704 31.4481 8.26758 31.9076C7.80811 32.3671 7.54999 32.9902 7.54999 33.64V39.64C7.54999 40.2898 7.80811 40.913 8.26758 41.3724C8.72704 41.8319 9.35022 42.09 10 42.09H16C16.6498 42.09 17.273 41.8319 17.7324 41.3724C18.1919 40.913 18.45 40.2898 18.45 39.64V33.64C18.45 32.9902 18.1919 32.3671 17.7324 31.9076C17.273 31.4481 16.6498 31.1901 16 31.1901ZM15.94 39.55H10V33.7001H15.85L15.94 39.55ZM44.11 57.55H50.11C50.7598 57.55 51.3829 57.2919 51.8424 56.8324C52.3019 56.3729 52.56 55.7498 52.56 55.1V49.1C52.56 48.4502 52.3019 47.827 51.8424 47.3676C51.3829 46.9081 50.7598 46.65 50.11 46.65H44.11C43.4619 46.6527 42.8414 46.9119 42.3841 47.3711C41.9268 47.8303 41.67 48.4519 41.67 49.1V55.1C41.6646 55.7429 41.9121 56.3624 42.3592 56.8245C42.8063 57.2865 43.4172 57.5543 44.06 57.5701L44.11 57.55ZM44.17 49.1901H50V55.04H44.14L44.17 49.1901ZM70.83 5.71997H65.46V3.80005C65.46 2.78865 65.0589 1.81852 64.3447 1.10242C63.6305 0.386315 62.6614 -0.0173719 61.65 -0.0200195H61C59.9886 -0.0173719 59.0196 0.386315 58.3053 1.10242C57.5911 1.81852 57.19 2.78865 57.19 3.80005V5.71997H19.85V3.80005C19.8474 2.78773 19.4441 1.81762 18.7282 1.10181C18.0124 0.385989 17.0423 -0.0173798 16.03 -0.0200195H15.46C14.4477 -0.0173798 13.4776 0.385989 12.7618 1.10181C12.046 1.81762 11.6427 2.78773 11.64 3.80005V5.71997H6.28C4.61444 5.71997 3.01708 6.3816 1.83936 7.55933C0.661627 8.73705 0 10.3344 0 12V79.39C0.00264455 81.0521 0.664075 82.6454 1.83936 83.8207C3.01464 84.996 4.60789 85.6574 6.26999 85.66H70.78C72.4438 85.66 74.0397 84.9998 75.2171 83.8242C76.3945 82.6487 77.0574 81.0538 77.06 79.39V12.05C77.06 10.3845 76.3984 8.7871 75.2206 7.60938C74.0429 6.43165 72.4456 5.77002 70.78 5.77002L70.83 5.71997ZM59.77 3.80005C59.77 3.45434 59.9066 3.12258 60.1501 2.8772C60.3937 2.63181 60.7243 2.49263 61.07 2.48999H61.65C61.9957 2.49263 62.3263 2.63181 62.5699 2.8772C62.8134 3.12258 62.95 3.45434 62.95 3.80005V5.71997H59.77V3.80005ZM14.2 3.80005C14.2 3.45262 14.338 3.11933 14.5837 2.87366C14.8294 2.62798 15.1626 2.48999 15.51 2.48999H16C16.3474 2.48999 16.6806 2.62798 16.9263 2.87366C17.172 3.11933 17.31 3.45262 17.31 3.80005V5.71997H14.12V3.80005H14.2ZM74.6 79.34C74.5974 80.3381 74.199 81.2945 73.4922 81.9994C72.7855 82.7042 71.8281 83.1 70.83 83.1H6.26999C5.27359 83.0973 4.31876 82.7004 3.6142 81.9958C2.90963 81.2913 2.51265 80.3364 2.51001 79.34C3.59642 80.1584 4.91982 80.6007 6.28 80.6H57.14C57.965 80.602 58.7821 80.4405 59.5443 80.1246C60.3064 79.8088 60.9983 79.345 61.58 78.76L74.58 65.76L74.6 79.34ZM60.35 76.49C60.446 76.0734 60.4963 75.6475 60.5 75.22V66.85C60.5 66.0905 60.801 65.362 61.3371 64.8241C61.8731 64.2862 62.6005 63.9826 63.36 63.98H71.73C72.1578 63.9812 72.5842 63.9308 73 63.83L60.35 76.49ZM74.6 23.64H21.1C20.7865 23.668 20.4948 23.8124 20.2824 24.0447C20.0699 24.2769 19.9521 24.5803 19.9521 24.895C19.9521 25.2098 20.0699 25.5131 20.2824 25.7454C20.4948 25.9776 20.7865 26.122 21.1 26.15H74.55V58.61C74.5474 59.3703 74.2441 60.0988 73.7065 60.6365C73.1688 61.1741 72.4404 61.4773 71.68 61.48H63.31C61.8866 61.4826 60.5222 62.0493 59.5157 63.0558C58.5093 64.0623 57.9426 65.4266 57.94 66.85V75.22C57.9374 75.9777 57.6352 76.7036 57.0994 77.2394C56.5636 77.7752 55.8377 78.0773 55.08 78.08H6.28C5.28013 78.08 4.32121 77.6828 3.6142 76.9758C2.90718 76.2688 2.51001 75.3099 2.51001 74.3101V26.15H16.09C16.4035 26.122 16.6952 25.9776 16.9076 25.7454C17.1201 25.5131 17.2379 25.2098 17.2379 24.895C17.2379 24.5803 17.1201 24.2769 16.9076 24.0447C16.6952 23.8124 16.4035 23.668 16.09 23.64H2.51001V12C2.51001 11.0001 2.90718 10.0412 3.6142 9.33423C4.32121 8.62722 5.28013 8.22998 6.28 8.22998H11.64V11.91C11.6427 12.9223 12.046 13.8925 12.7618 14.6083C13.4776 15.3241 14.4477 15.7273 15.46 15.73C15.7735 15.702 16.0652 15.5577 16.2776 15.3254C16.4901 15.0932 16.6078 14.7897 16.6078 14.475C16.6078 14.1602 16.4901 13.8569 16.2776 13.6246C16.0652 13.3924 15.7735 13.248 15.46 13.22C15.1126 13.22 14.7794 13.082 14.5337 12.8363C14.288 12.5906 14.15 12.2575 14.15 11.91V8.22998H57.21V11.91C57.21 12.9214 57.6111 13.8916 58.3253 14.6077C59.0395 15.3238 60.0086 15.7273 61.02 15.73C61.1942 15.7455 61.3698 15.7247 61.5355 15.6687C61.7012 15.6127 61.8534 15.5228 61.9825 15.4048C62.1116 15.2867 62.2147 15.1431 62.2852 14.983C62.3557 14.823 62.3922 14.6499 62.3922 14.475C62.3922 14.3001 62.3557 14.1271 62.2852 13.967C62.2147 13.807 62.1116 13.6633 61.9825 13.5453C61.8534 13.4272 61.7012 13.3374 61.5355 13.2814C61.3698 13.2254 61.1942 13.2044 61.02 13.22C60.6743 13.2173 60.3437 13.0782 60.1002 12.8328C59.8566 12.5874 59.72 12.2557 59.72 11.91V8.22998H70.78C71.7799 8.22998 72.7388 8.62722 73.4458 9.33423C74.1528 10.0412 74.55 11.0001 74.55 12L74.6 23.64ZM16 46.64H10C9.35022 46.64 8.72704 46.8981 8.26758 47.3575C7.80811 47.817 7.54999 48.4402 7.54999 49.09V55.09C7.54999 55.7397 7.80811 56.3629 8.26758 56.8224C8.72704 57.2819 9.35022 57.54 10 57.54H16C16.6498 57.54 17.273 57.2819 17.7324 56.8224C18.1919 56.3629 18.45 55.7397 18.45 55.09V49.09C18.4344 48.4506 18.1693 47.8428 17.7115 47.3962C17.2538 46.9497 16.6395 46.6999 16 46.7001V46.64ZM15.94 55H10V49.15H15.85L15.94 55ZM27.07 42H33.07C33.3917 42 33.7103 41.9366 34.0076 41.8135C34.3048 41.6904 34.5749 41.51 34.8024 41.2825C35.0299 41.055 35.2104 40.7848 35.3335 40.4875C35.4566 40.1903 35.52 39.8718 35.52 39.55V33.55C35.52 33.2283 35.4566 32.9097 35.3335 32.6124C35.2104 32.3152 35.0299 32.0451 34.8024 31.8176C34.5749 31.5901 34.3048 31.4096 34.0076 31.2865C33.7103 31.1634 33.3917 31.1 33.07 31.1H27.07C26.7483 31.1 26.4297 31.1634 26.1324 31.2865C25.8352 31.4096 25.5651 31.5901 25.3376 31.8176C25.1101 32.0451 24.9296 32.3152 24.8065 32.6124C24.6834 32.9097 24.62 33.2283 24.62 33.55V39.55C24.6039 40.1982 24.8453 40.8263 25.2914 41.2968C25.7375 41.7672 26.3519 42.0417 27 42.0601L27.07 42ZM27.13 33.64H32.98V39.49H27.13V33.64ZM44.13 70.52C44.122 70.1885 43.9827 69.8737 43.7427 69.6449C43.5026 69.4161 43.1815 69.2921 42.85 69.3C42.5185 69.308 42.2037 69.4473 41.9749 69.6874C41.7461 69.9274 41.622 70.2484 41.63 70.58C41.63 71.228 41.8868 71.8498 42.3441 72.309C42.8014 72.7681 43.422 73.0274 44.07 73.03H50.07C50.7198 73.03 51.3429 72.7718 51.8024 72.3124C52.2619 71.8529 52.52 71.2297 52.52 70.58V64.58C52.52 63.9302 52.2619 63.3071 51.8024 62.8477C51.3429 62.3882 50.7198 62.13 50.07 62.13H44.07C43.422 62.1326 42.8014 62.3919 42.3441 62.8511C41.8868 63.3103 41.63 63.9319 41.63 64.58V66.39C41.63 66.7215 41.7617 67.0395 41.9961 67.2739C42.2305 67.5083 42.5485 67.64 42.88 67.64C43.2115 67.64 43.5295 67.5083 43.7639 67.2739C43.9983 67.0395 44.13 66.7215 44.13 66.39V64.73H50V70.58L44.13 70.52ZM27.03 57.52H33.03C33.6798 57.52 34.303 57.2618 34.7624 56.8024C35.2219 56.3429 35.48 55.7198 35.48 55.0701V49.0701C35.48 48.4203 35.2219 47.7971 34.7624 47.3376C34.303 46.8782 33.6798 46.62 33.03 46.62H27.03C26.3802 46.62 25.757 46.8782 25.2976 47.3376C24.8381 47.7971 24.58 48.4203 24.58 49.0701V55.0701C24.5734 55.3935 24.6309 55.7149 24.7491 56.016C24.8674 56.3171 25.0441 56.5918 25.2691 56.8242C25.4941 57.0566 25.7629 57.2422 26.06 57.3702C26.3571 57.4982 26.6765 57.5662 27 57.5701L27.03 57.52ZM27.09 49.16H32.94V55.01H27.09V49.16ZM27 73.09H33C33.3217 73.09 33.6403 73.0267 33.9376 72.9036C34.2348 72.7804 34.5049 72.5999 34.7324 72.3724C34.9599 72.1449 35.1404 71.8749 35.2635 71.5776C35.3866 71.2804 35.45 70.9618 35.45 70.64V64.64C35.45 63.9902 35.1919 63.3671 34.7324 62.9076C34.273 62.4481 33.6498 62.1901 33 62.1901H27C26.3502 62.1901 25.727 62.4481 25.2676 62.9076C24.8081 63.3671 24.55 63.9902 24.55 64.64V70.64C24.55 70.9618 24.6134 71.2804 24.7365 71.5776C24.8596 71.8749 25.0401 72.1449 25.2676 72.3724C25.4951 72.5999 25.7652 72.7804 26.0624 72.9036C26.3597 73.0267 26.6783 73.09 27 73.09ZM27.06 64.73H32.91V70.58H27.06V64.73Z" fill="#333333"/>
</g>
<defs>
<clipPath id="clip0_701:281">
<rect width="77.05" height="85.62" fill="white"/>
</clipPath>
</defs>
</svg>
