<svg width="206" height="281" viewBox="0 0 206 281" fill="none" xmlns="http://www.w3.org/2000/svg">
<path fill-rule="evenodd" clip-rule="evenodd" d="M284.163 -65.821C290.555 -44.3771 310.101 -29.5488 332.474 -29.162C377.088 -28.397 399.547 25.0053 368.89 57.4287C353.517 73.6861 350.444 98.0299 361.299 117.597C382.941 156.619 347.924 202.769 304.514 192.429C282.749 187.245 260.133 196.757 248.615 215.937C225.642 254.194 168.167 246.942 155.416 204.181C149.023 182.737 129.473 167.907 107.104 167.522C62.4887 166.754 40.0305 113.352 70.6886 80.9314C86.0578 64.6723 89.1341 40.3301 78.2794 20.7627C56.6378 -18.2592 91.6544 -64.4088 135.063 -54.0717C156.829 -48.8852 179.445 -58.3965 190.962 -77.58C213.936 -115.834 271.411 -108.582 284.163 -65.821Z" stroke="#F6E3E3" stroke-width="2"/>
</svg>
