<svg width="32" height="32" viewBox="0 0 32 32" fill="none" xmlns="http://www.w3.org/2000/svg">
<path d="M16 0.500244C7.4375 0.500244 0.5 7.43774 0.5 16.0002C0.5 24.5627 7.4375 31.5002 16 31.5002C24.5625 31.5002 31.5 24.5627 31.5 16.0002C31.5 7.43774 24.5625 0.500244 16 0.500244ZM21.75 20.0627L20.5 21.6252C20.3125 21.8752 20.0625 22.0627 19.6875 22.0627C19.5 22.0627 19.25 21.9377 19.125 21.8127L14.9375 18.6877C14.3125 18.2502 14 17.5627 14 16.7502V7.00024C14 6.50024 14.4375 6.00024 15 6.00024H17C17.5 6.00024 18 6.50024 18 7.00024V16.0002L21.625 18.6877C21.8125 18.8752 22 19.1252 22 19.4377C22 19.6877 21.875 19.9377 21.75 20.0627Z" fill="#8B4986"/>
</svg>
