<svg width="371" height="391" viewBox="0 0 371 391" fill="none" xmlns="http://www.w3.org/2000/svg">
<path fill-rule="evenodd" clip-rule="evenodd" d="M258.526 42.4635C265.782 66.8024 287.966 83.6327 313.36 84.0717C363.997 84.9399 389.487 145.552 354.691 182.352C337.243 200.805 333.756 228.435 346.076 250.644C370.639 294.934 330.895 347.314 281.625 335.578C256.922 329.695 231.252 340.49 218.179 362.26C192.105 405.682 126.871 397.45 112.397 348.917C105.142 324.578 82.9524 307.746 57.5637 307.309C6.925 306.437 -18.5652 245.826 16.2319 209.028C33.6759 190.574 37.1676 162.946 24.8475 140.736C0.284108 96.4464 40.0281 44.0663 89.2971 55.799C114.001 61.6857 139.671 50.8903 152.743 29.1169C178.818 -14.3016 244.053 -6.06993 258.526 42.4635Z" fill="#E5DBE5"/>
</svg>
