<svg width="86" height="86" viewBox="0 0 86 86" fill="none" xmlns="http://www.w3.org/2000/svg">
<g clip-path="url(#clip0_701:322)">
<path fill-rule="evenodd" clip-rule="evenodd" d="M75.1098 21.94C75.4679 22.0574 75.8579 22.0288 76.195 21.8603C76.532 21.6917 76.7889 21.397 76.9098 21.0401L78.8098 15.33C78.888 15.094 78.9034 14.8417 78.8543 14.5979C78.8052 14.3542 78.6934 14.1273 78.5299 13.94C78.3647 13.7495 78.1511 13.6071 77.9118 13.5279C77.6724 13.4487 77.416 13.4356 77.1698 13.49C76.9245 13.5386 76.6963 13.6511 76.5084 13.8162C76.3206 13.9813 76.1796 14.1931 76.0998 14.4301L74.1999 20.1401C74.1405 20.318 74.117 20.5059 74.1308 20.693C74.1445 20.8801 74.1952 21.0626 74.2799 21.23C74.4543 21.5652 74.7517 21.8196 75.1098 21.94Z" fill="#333333"/>
<path d="M81.54 24.2001L85.26 12.8902C85.521 12.0815 85.5287 11.2124 85.282 10.3992C85.0354 9.58606 84.5462 8.86761 83.88 8.34014L84.8 5.55023C84.972 5.0315 85.0402 4.48397 85.0006 3.9389C84.961 3.39383 84.8145 2.8619 84.5694 2.37347C84.3242 1.88503 83.9853 1.44966 83.5719 1.09222C83.1585 0.734775 82.6787 0.462248 82.16 0.290216C81.6413 0.118184 81.0938 0.0499628 80.5487 0.0895324C80.0036 0.129102 79.4716 0.27566 78.9832 0.520807C78.4948 0.765953 78.0594 1.10484 77.702 1.51824C77.3445 1.93165 77.0721 2.41151 76.9 2.93023L75.98 5.73016C75.1282 5.75288 74.3044 6.0392 73.622 6.54962C72.9397 7.06003 72.4324 7.7694 72.17 8.58013L67.46 22.8902H8.54999C6.28147 22.8928 4.10675 23.7958 2.5036 25.4008C0.900452 27.0058 -1.54798e-06 29.1816 0 31.4501V77.1202C0 79.3878 0.900775 81.5625 2.50421 83.1659C4.10765 84.7694 6.28239 85.6702 8.54999 85.6702H77C79.2676 85.6702 81.4423 84.7694 83.0458 83.1659C84.6492 81.5625 85.55 79.3878 85.55 77.1202V31.5002C85.5519 30.0519 85.1859 28.6268 84.4862 27.3587C83.7866 26.0906 82.7762 25.0209 81.55 24.2502L81.54 24.2001ZM58.77 56.2001C58.8152 56.9372 59.0557 57.649 59.467 58.2624C59.8782 58.8757 60.4453 59.3684 61.11 59.6901L60.22 62.4002C60.1452 62.582 60.1087 62.7772 60.1128 62.9737C60.1169 63.1702 60.1614 63.3639 60.2437 63.5424C60.3259 63.721 60.4441 63.8806 60.5908 64.0114C60.7375 64.1422 60.9096 64.2415 61.0963 64.3028C61.2831 64.3641 61.4804 64.3862 61.6761 64.3679C61.8719 64.3495 62.0617 64.291 62.2338 64.196C62.4058 64.101 62.5565 63.9715 62.6763 63.8156C62.7961 63.6598 62.8824 63.4809 62.93 63.2902L63.82 60.5801C64.5519 60.7355 65.3125 60.6862 66.0182 60.4374C66.7239 60.1887 67.3473 59.7502 67.82 59.1702L71.02 55.3602C71.361 54.9542 71.6192 54.4854 71.78 53.9802L75.6 42.3902V77.1202H10V31.5002H64.67L58.67 49.6802C58.4994 50.185 58.4314 50.7187 58.47 51.2502L58.77 56.2001ZM79.61 3.86016C79.6824 3.64223 79.8108 3.44715 79.9824 3.29449C80.1539 3.14182 80.3625 3.03688 80.5874 2.99029C80.8123 2.9437 81.0455 2.95706 81.2635 3.02899C81.4816 3.10092 81.677 3.22897 81.83 3.4002C81.9824 3.57164 82.0868 3.78037 82.1324 4.00518C82.1781 4.22999 82.1635 4.46291 82.09 4.68023L81.26 7.22015L79.75 6.72015L78.75 6.4002L79.61 3.86016ZM74.88 9.50018C74.9323 9.33661 75.0167 9.18513 75.1284 9.05462C75.24 8.92411 75.3766 8.8172 75.53 8.74017C75.8404 8.58502 76.1989 8.55639 76.53 8.66021L78.7 9.38018L81.7 10.3802C82.0264 10.4918 82.2956 10.7278 82.4491 11.0367C82.6026 11.3456 82.6281 11.7026 82.52 12.0302L75.65 32.9102L69.01 53.0701C68.956 53.2265 68.8748 53.3721 68.77 53.5002L65.56 57.3201C65.3941 57.52 65.1716 57.6653 64.9218 57.7366C64.672 57.808 64.4065 57.8022 64.16 57.7201L63.32 57.4401L62.49 57.1702C62.2409 57.0878 62.0226 56.9319 61.8638 56.7231C61.7049 56.5143 61.6129 56.2622 61.6 56.0002L61.28 51.0002C61.2675 50.8337 61.2914 50.6665 61.35 50.5102L67.91 30.5102L74.88 9.50018ZM82.69 77.1002C82.69 78.6119 82.0895 80.0617 81.0205 81.1307C79.9516 82.1996 78.5017 82.8002 76.99 82.8002H8.54999C7.03825 82.8002 5.58843 82.1996 4.51947 81.1307C3.45051 80.0617 2.84998 78.6119 2.84998 77.1002V31.4802C2.84997 29.9675 3.45019 28.5166 4.51886 27.4461C5.58753 26.3756 7.03733 25.7728 8.54999 25.7702H66.55L65.61 28.6202H10C9.62489 28.6202 9.25348 28.6942 8.90704 28.8381C8.56061 28.9819 8.24598 29.1927 7.9812 29.4584C7.71642 29.7241 7.50671 30.0395 7.36407 30.3864C7.22144 30.7333 7.14871 31.105 7.15002 31.4802V77.1202C7.15002 77.876 7.45026 78.601 7.98474 79.1354C8.51922 79.6699 9.24413 79.9701 10 79.9701H75.58C76.3359 79.9701 77.0608 79.6699 77.5953 79.1354C78.1298 78.601 78.43 77.876 78.43 77.1202V33.7402L80.62 27.0801C81.2723 27.6176 81.7978 28.2925 82.1591 29.0566C82.5204 29.8206 82.7085 30.655 82.71 31.5002L82.69 77.1002Z" fill="#333333"/>
<path d="M54.1798 61.3902H51.3198C50.0782 61.4759 48.8356 61.2391 47.7125 60.703C46.5894 60.1668 45.6239 59.3494 44.9098 58.3302C44.6538 57.9383 44.3058 57.615 43.8962 57.3884C43.4866 57.1618 43.0278 57.0389 42.5598 57.0303C42.1051 57.0383 41.6581 57.1495 41.2527 57.3557C40.8473 57.5619 40.4941 57.8574 40.2198 58.2202L35.5598 64.7002C32.9035 62.0408 29.4019 60.3927 25.6598 60.0403V51.4103H28.5098C29.6396 51.4122 30.7445 51.079 31.6848 50.4527C32.6251 49.8265 33.3586 48.9355 33.7923 47.8923C34.226 46.8491 34.3405 45.7007 34.1213 44.5924C33.9021 43.4841 33.3591 42.4658 32.5609 41.6662C31.7627 40.8667 30.7453 40.3218 29.6374 40.1007C28.5295 39.8796 27.381 39.992 26.337 40.4239C25.2931 40.8558 24.4007 41.5876 23.7728 42.5268C23.1449 43.4661 22.8098 44.5704 22.8098 45.7002V48.4902C21.6392 48.464 20.498 48.1182 19.5098 47.4902C19.2344 47.2866 18.895 47.1885 18.5534 47.214C18.2118 47.2394 17.8907 47.3867 17.6485 47.6289C17.4063 47.8711 17.259 48.1922 17.2336 48.5338C17.2081 48.8754 17.3062 49.2148 17.5098 49.4902C17.7798 49.7702 19.2198 51.0103 22.7898 51.2803V59.8902H19.9998C18.8696 59.8883 17.7642 60.2217 16.8237 60.8484C15.8832 61.475 15.1498 62.3667 14.7163 63.4105C14.2829 64.4543 14.169 65.6032 14.389 66.7118C14.609 67.8203 15.1531 68.8386 15.9522 69.6378C16.7514 70.437 17.7697 70.981 18.8783 71.201C19.9868 71.421 21.1358 71.3071 22.1795 70.8736C23.2233 70.4402 24.115 69.7069 24.7417 68.7663C25.3683 67.8258 25.7018 66.7204 25.6998 65.5902V62.8302C28.6527 63.1698 31.4063 64.4903 33.5198 66.5802C33.8112 66.8969 34.1701 67.1441 34.57 67.3033C34.9698 67.4626 35.4004 67.5299 35.8298 67.5002C36.2451 67.4748 36.6493 67.3564 37.0128 67.1539C37.3763 66.9514 37.6896 66.6699 37.9298 66.3302L42.5798 59.8402C43.5494 61.254 44.8662 62.3948 46.4037 63.1531C47.9413 63.9113 49.6479 64.2617 51.3598 64.1703H54.2198C54.5771 64.1403 54.9101 63.9772 55.1529 63.7132C55.3956 63.4493 55.5303 63.1038 55.5303 62.7452C55.5303 62.3866 55.3956 62.0411 55.1529 61.7772C54.9101 61.5133 54.5771 61.3501 54.2198 61.3202L54.1798 61.3902ZM25.6598 45.7002C25.6598 45.1365 25.827 44.5855 26.1401 44.1168C26.4533 43.6481 26.8984 43.2828 27.4192 43.0671C27.9399 42.8514 28.5129 42.795 29.0658 42.905C29.6186 43.015 30.1265 43.2863 30.5251 43.6849C30.9236 44.0835 31.1951 44.5914 31.305 45.1443C31.415 45.6971 31.3586 46.2701 31.1429 46.7909C30.9272 47.3116 30.5619 47.7568 30.0932 48.0699C29.6245 48.3831 29.0735 48.5503 28.5098 48.5503H25.6598V45.7002ZM22.8098 65.7002C22.8098 66.2639 22.6427 66.8149 22.3295 67.2835C22.0163 67.7522 21.5712 68.1175 21.0505 68.3332C20.5297 68.5489 19.9566 68.6054 19.4038 68.4955C18.8509 68.3855 18.3431 68.114 17.9446 67.7154C17.546 67.3169 17.2745 66.809 17.1645 66.2562C17.0546 65.7034 17.1111 65.1304 17.3268 64.6096C17.5425 64.0888 17.9078 63.6437 18.3764 63.3305C18.8451 63.0174 19.3961 62.8502 19.9598 62.8502H22.8098V65.7002Z" fill="#333333"/>
</g>
<defs>
<clipPath id="clip0_701:322">
<rect width="85.54" height="85.63" fill="white"/>
</clipPath>
</defs>
</svg>
