<svg width="525" height="371" viewBox="0 0 525 371" fill="none" xmlns="http://www.w3.org/2000/svg">
<path d="M88.0481 357.913C65.7768 359.121 71.3637 370 71.3637 370H96.1096C96.1096 370 90.4941 359.112 112.775 357.913C112.775 357.913 124.862 357.684 129.345 346.377C123.482 347.46 117.867 349.605 112.775 352.706C113.051 351.545 113.337 350.374 113.622 349.213C111.1 347.118 107.896 346.02 104.618 346.13V346.377C100.136 357.675 88.0481 357.913 88.0481 357.913Z" fill="#CDA787" stroke="#2D2A26" stroke-width="0.6" stroke-miterlimit="10"/>
<path d="M112.775 357.912C90.5036 359.121 96.0905 370 96.0905 370H150.265C152.483 365.241 150.322 348.576 150.265 348.223C143.568 345.782 136.346 345.149 129.326 346.387C124.862 357.675 112.775 357.912 112.775 357.912Z" fill="#CDA787" stroke="#2D2A26" stroke-width="0.6" stroke-miterlimit="10"/>
<path d="M95.4624 349.223C98.1717 347.368 101.339 346.294 104.618 346.12C107.896 346.011 111.1 347.108 113.622 349.204C121.569 316.263 129.736 284.769 138.311 250.915C139.577 245.414 142.956 240.779 148.019 238.656C161.239 233.155 174.764 229.567 188.621 225.674C188.621 225.674 182.235 226.188 173.936 227.273C163.742 228.596 150.655 230.766 142.965 233.869C141.89 234.285 140.847 234.778 139.843 235.344C128.298 241.949 95.4624 349.223 95.4624 349.223Z" fill="#E96235"/>
<path d="M256.834 255.54C257.421 253.864 257.879 252.146 258.205 250.401C258.395 249.364 258.538 248.317 258.643 247.27C260.308 230.138 250.124 214.091 250.124 214.091H205.068C204.116 216.366 199.548 222.191 194.912 223.885C192.809 224.494 190.706 225.084 188.621 225.674C174.764 229.567 161.239 233.155 148.019 238.656C142.956 240.779 139.577 245.414 138.311 250.915C129.745 284.769 121.569 316.263 113.622 349.204C113.337 350.365 113.051 351.536 112.775 352.697C117.867 349.595 123.482 347.45 129.345 346.368C136.365 345.13 143.587 345.763 150.284 348.204C153.367 349.278 156.281 350.787 158.936 352.687C158.936 352.687 167.073 311.638 172.175 289.5C172.822 286.692 173.422 284.17 173.945 282.104H213.091C221.343 282.143 229.491 280.256 236.885 276.594C237.837 276.137 238.694 275.642 239.579 275.128C242.461 273.466 245.154 271.497 247.612 269.255C249.106 267.894 250.482 266.407 251.723 264.811C253.924 262.018 255.651 258.883 256.834 255.531V255.54Z" fill="#E96235"/>
<path d="M130.288 214.586C130.706 220.925 129.859 227.682 130.706 234.021C134.932 234.021 138.73 234.021 142.946 233.821C150.636 230.718 163.723 228.548 173.917 227.225C173.917 227.225 189.573 221.077 192.562 218.564C193.256 217.984 194.142 216.309 195.093 214.082C185.1 214.319 174.963 214.167 164.808 214.082C164.618 214.082 164.418 214.082 164.228 214.082H156.956C156.568 214.085 156.179 214.06 155.795 214.005C147.277 213.986 138.749 214.091 130.288 214.586Z" fill="#CDA787"/>
<path d="M149.047 190.992V206.22C149.049 208.118 149.732 209.953 150.972 211.391C152.212 212.828 153.927 213.773 155.804 214.053C158.812 214.053 161.81 214.053 164.818 214.11C166.81 213.963 168.673 213.068 170.032 211.605C171.392 210.141 172.147 208.218 172.146 206.22V190.992H149.047Z" fill="#F5B8B9"/>
<path d="M158.07 176.354C156.597 176.87 155.321 177.83 154.418 179.103C153.516 180.376 153.031 181.898 153.031 183.458C153.031 185.019 153.516 186.541 154.418 187.814C155.321 189.087 156.597 190.047 158.07 190.563C157.036 188.338 156.5 185.913 156.5 183.458C156.5 181.004 157.036 178.579 158.07 176.354Z" fill="#238D7E"/>
<path d="M158.07 176.354C157.037 178.578 156.502 181.001 156.502 183.454C156.502 185.906 157.037 188.329 158.07 190.554C158.874 190.838 159.72 190.983 160.573 190.982V175.925C159.72 175.925 158.874 176.07 158.07 176.354Z" fill="#238D7E"/>
<path d="M158.745 135.285C158.745 138.683 176.41 171.062 180.265 177.629C184.119 184.196 193.171 195.294 200.414 190.954L206.676 186.252C205.242 180.497 201.942 175.38 197.292 171.699L193.628 174.869C193.628 174.869 192.809 173.803 191.458 172.014C184.9 163.295 165.76 137.55 165.541 134.352C165.313 130.545 166.674 121.218 164.408 121.218C162.143 121.218 158.774 133.143 158.745 135.285Z" fill="#CDA787" stroke="#2D2A26" stroke-width="0.6" stroke-miterlimit="10"/>
<path d="M163.047 176.353C162.257 176.081 161.427 175.943 160.592 175.944V191.011C161.424 191.012 162.251 190.874 163.038 190.601C164.082 188.372 164.623 185.94 164.625 183.479C164.627 181.017 164.088 178.584 163.047 176.353Z" fill="#238D7E"/>
<path d="M163.038 190.554C164.534 190.052 165.835 189.094 166.756 187.813C167.678 186.532 168.174 184.994 168.174 183.416C168.174 181.838 167.678 180.3 166.756 179.019C165.835 177.738 164.534 176.779 163.038 176.277C164.084 178.512 164.627 180.949 164.627 183.416C164.627 185.883 164.084 188.32 163.038 190.554Z" fill="#238D7E"/>
<path d="M175.506 352.697C173.794 352.695 172.12 353.201 170.696 354.151C169.272 355.101 168.161 356.452 167.505 358.033C166.849 359.614 166.677 361.355 167.011 363.034C167.344 364.713 168.168 366.255 169.379 367.466C170.589 368.676 172.132 369.501 173.811 369.834C175.49 370.168 177.23 369.996 178.812 369.34C180.393 368.684 181.744 367.573 182.694 366.149C183.644 364.725 184.15 363.051 184.148 361.339C184.148 359.047 183.237 356.849 181.617 355.228C179.996 353.607 177.798 352.697 175.506 352.697Z" fill="#3D4543"/>
<path d="M172.156 289.509H277.802C279.513 289.509 281.155 288.829 282.365 287.619C283.575 286.409 284.255 284.768 284.255 283.056C284.255 281.345 283.575 279.703 282.365 278.493C281.155 277.283 279.513 276.603 277.802 276.603H236.876C229.481 280.266 221.334 282.153 213.082 282.114H173.917C173.403 284.179 172.803 286.701 172.156 289.509Z" fill="#8B4986"/>
<path d="M195.103 214.091C194.151 216.318 193.266 217.993 192.571 218.574C189.583 221.087 173.926 227.235 173.926 227.235C182.225 226.15 188.612 225.636 188.612 225.636C190.696 225.046 192.8 224.456 194.903 223.847C199.538 222.153 204.145 216.328 205.058 214.053L206.324 193.438C204.992 194.247 204.087 194.685 203.802 194.58C203.145 194.284 202.561 193.849 202.089 193.304C201.994 193.704 198.196 206.829 195.103 214.091Z" fill="#CDA787" stroke="#2D2A26" stroke-width="0.6" stroke-miterlimit="10"/>
<path d="M191.886 170.348C191.699 170.567 191.563 170.825 191.487 171.103C191.412 171.381 191.398 171.673 191.448 171.956C191.443 171.982 191.443 172.007 191.448 172.033C192.8 173.831 193.618 174.888 193.618 174.888L197.282 171.718C196.453 171.056 195.585 170.443 194.684 169.882C194.26 169.616 193.756 169.506 193.26 169.57C192.763 169.634 192.305 169.869 191.962 170.234L191.886 170.348Z" fill="#F6B248" stroke="#2E2E2E" stroke-width="0.58" stroke-miterlimit="10"/>
<path d="M207.561 192.724C207.133 193 206.733 193.257 206.362 193.476L205.096 214.091H254.798C253.971 198.255 251.918 182.507 248.659 166.988C247.797 162.536 246.424 158.199 244.566 154.063C238.637 141.367 230.88 142.08 230.88 142.08C230.88 142.08 224.217 143.28 214.624 149.419C205.994 155.09 198.343 162.126 191.971 170.253C192.314 169.888 192.773 169.653 193.269 169.589C193.766 169.525 194.269 169.635 194.694 169.901C195.595 170.462 196.462 171.075 197.292 171.737C201.942 175.418 205.242 180.535 206.676 186.29C207.248 188.387 207.545 190.55 207.561 192.724Z" fill="#F6B248"/>
<path d="M206.676 186.29L200.414 190.992C200.889 191.833 201.454 192.622 202.098 193.343C202.57 193.887 203.155 194.322 203.812 194.618C204.097 194.723 205.001 194.285 206.334 193.476C206.705 193.257 207.105 193 207.533 192.724C207.526 190.551 207.238 188.389 206.676 186.29Z" fill="#F6B248" stroke="#2E2E2E" stroke-width="0.58" stroke-miterlimit="10"/>
<path d="M205.382 121.237C205.162 122.365 205.057 123.513 205.068 124.663H217.384V121.237H205.382Z" fill="#CDA787" stroke="#2D2A26" stroke-width="0.6" stroke-miterlimit="10"/>
<path d="M217.384 124.663H205.068C205.081 125.939 205.192 127.212 205.401 128.47C207.209 139.568 216.042 135.485 216.042 135.485L214.614 149.38C224.198 143.242 230.87 142.042 230.87 142.042C226.911 141.243 225.407 138.131 224.893 135.218C224.788 134.589 224.728 133.953 224.712 133.315H221.448L217.641 127.737C217.641 127.737 220.058 126.519 219.754 124.882C219.449 123.245 217.346 124.882 217.346 124.882L217.384 124.663Z" fill="#CDA787" stroke="#2D2A26" stroke-width="0.6" stroke-miterlimit="10"/>
<path d="M205.382 121.237H217.384V124.939C217.384 124.939 219.497 123.274 219.792 124.939C220.087 126.605 217.679 127.794 217.679 127.794L221.486 133.372H224.693C224.618 131.467 224.942 129.567 225.645 127.794C225.845 127.299 226.007 126.843 226.149 126.357C226.77 124.257 226.739 122.018 226.059 119.936C225.379 117.854 224.083 116.027 222.342 114.698C220.92 113.49 219.198 112.686 217.358 112.371C215.519 112.057 213.628 112.242 211.884 112.909C210.141 113.575 208.609 114.698 207.448 116.16C206.287 117.622 205.541 119.368 205.287 121.218L205.382 121.237Z" fill="#3D4543"/>
<path d="M218.507 289.509L212.111 352.706H224.36H237.161L233.088 289.509H218.507Z" fill="#3D4543"/>
<path d="M224.36 352.697C222.649 352.697 220.976 353.204 219.553 354.155C218.13 355.107 217.021 356.458 216.366 358.04C215.712 359.621 215.541 361.361 215.876 363.04C216.21 364.718 217.035 366.26 218.246 367.469C219.457 368.679 220.999 369.502 222.678 369.835C224.357 370.168 226.097 369.995 227.678 369.339C229.258 368.682 230.609 367.572 231.558 366.148C232.508 364.724 233.014 363.05 233.012 361.339C233.012 360.203 232.788 359.079 232.353 358.029C231.918 356.98 231.281 356.027 230.477 355.225C229.674 354.422 228.72 353.786 227.67 353.352C226.621 352.918 225.496 352.696 224.36 352.697Z" fill="#3D4543"/>
<path d="M225.712 127.813C224.767 130.174 224.487 132.748 224.903 135.256C225.417 138.169 226.92 141.281 230.88 142.08C230.88 142.08 238.637 141.367 244.566 154.063C261.184 160.982 266 146.535 263.602 138.073C262.998 136.233 261.874 134.606 260.366 133.391C255.293 128.841 246.869 125.957 250.267 116.316C250.458 115.802 250.667 115.269 250.924 114.717C251.287 113.917 251.605 113.097 251.876 112.262C255.768 99.8029 244.014 92.9312 234.934 95.263C225.274 97.7471 222.476 114.717 222.476 114.717C224.216 116.046 225.513 117.873 226.192 119.955C226.872 122.037 226.904 124.276 226.283 126.376C226.073 126.843 225.912 127.318 225.712 127.813Z" fill="#3D4543"/>
<path d="M302.967 190.992C302.897 187.23 302.631 183.475 302.167 179.742C301.24 172.416 299.8 165.165 297.856 158.042C296.339 152.197 293.623 146.733 289.88 141.995C284.026 134.733 271.435 128.718 260.375 133.429C261.883 134.645 263.007 136.271 263.611 138.112C266.029 146.573 261.213 161.021 244.576 154.101C246.434 158.237 247.807 162.574 248.668 167.026C251.928 182.545 253.98 198.293 254.807 214.129H250.134C250.134 214.129 260.318 230.195 258.652 247.308C261.821 247.031 264.95 246.419 267.989 245.48C275.556 243.294 282.475 239.295 288.148 233.831C294.069 227.933 298.319 220.57 300.463 212.492C302.354 205.488 303.198 198.243 302.967 190.992Z" fill="#8B4986"/>
<path d="M247.612 269.265L247.802 269.465H275.46C276.076 269.465 276.667 269.22 277.103 268.785C277.538 268.349 277.783 267.758 277.783 267.143C277.783 266.527 277.538 265.936 277.103 265.5C276.667 265.065 276.076 264.82 275.46 264.82H251.723C250.482 266.416 249.106 267.903 247.612 269.265Z" fill="#3D4543"/>
<path d="M250.248 116.316C246.85 125.957 255.274 128.841 260.347 133.391C271.435 128.718 284.026 134.733 289.851 141.957C293.609 146.703 296.335 152.182 297.856 158.042C299.8 165.165 301.24 172.416 302.167 179.742H351.754V116.364H250.867L250.248 116.316Z" fill="#F5B8B9"/>
<path d="M250.248 116.316H250.905H351.792V179.742H302.205C302.669 183.475 302.935 187.23 303.005 190.992H352.182C353.233 190.992 354.24 190.575 354.982 189.832C355.725 189.09 356.142 188.082 356.142 187.032V116.221C356.142 115.171 355.725 114.164 354.982 113.421C354.24 112.679 353.233 112.262 352.182 112.262H251.838C251.567 113.097 251.249 113.917 250.886 114.717C250.648 115.269 250.391 115.802 250.248 116.316Z" fill="#9A9999" stroke="#2E2E2E" stroke-width="0.58" stroke-miterlimit="10"/>
<path d="M254.731 260.261H254.798H275.461C275.766 260.26 276.067 260.199 276.349 260.081C276.63 259.963 276.885 259.791 277.1 259.574C277.315 259.358 277.485 259.101 277.6 258.819C277.716 258.537 277.775 258.234 277.773 257.929V257.825C277.775 257.52 277.716 257.218 277.6 256.937C277.484 256.655 277.314 256.399 277.099 256.183C276.884 255.967 276.629 255.796 276.348 255.679C276.067 255.563 275.765 255.502 275.461 255.502H256.834C256.263 257.143 255.559 258.734 254.731 260.261Z" fill="#3D4543"/>
<path d="M258.205 250.363H275.461C276.074 250.363 276.662 250.119 277.096 249.686C277.53 249.252 277.773 248.664 277.773 248.05V247.727C277.775 247.422 277.716 247.12 277.6 246.839C277.484 246.557 277.314 246.301 277.099 246.085C276.884 245.869 276.629 245.698 276.348 245.581C276.067 245.464 275.765 245.404 275.461 245.404H267.98C264.941 246.343 261.811 246.955 258.643 247.232C258.538 248.317 258.395 249.411 258.205 250.363Z" fill="#3D4543"/>
<path d="M272.795 352.697C271.084 352.695 269.41 353.201 267.985 354.151C266.561 355.101 265.451 356.452 264.795 358.033C264.139 359.614 263.967 361.355 264.3 363.034C264.634 364.713 265.458 366.255 266.668 367.466C267.879 368.676 269.421 369.501 271.1 369.834C272.78 370.168 274.52 369.996 276.101 369.34C277.682 368.684 279.034 367.573 279.983 366.149C280.933 364.725 281.439 363.051 281.438 361.339C281.435 359.048 280.524 356.851 278.904 355.231C277.283 353.611 275.087 352.699 272.795 352.697Z" fill="#3D4543"/>
<path d="M300.454 212.454C298.309 220.532 294.059 227.895 288.138 233.793C290.042 233.793 384.676 232.898 384.676 233.793V212.454H300.454Z" fill="#CDA787"/>
<path d="M300.454 212.454H317.176L312.199 190.992H302.967C303.191 198.231 302.344 205.463 300.454 212.454Z" fill="#9A9999" stroke="#2E2E2E" stroke-width="0.58" stroke-miterlimit="10"/>
<path d="M214.614 149.399L216.042 135.504C216.042 135.504 207.209 139.587 205.401 128.489C205.192 127.231 205.081 125.958 205.068 124.682C205.057 123.532 205.162 122.384 205.382 121.256C205.636 119.406 206.382 117.66 207.543 116.198C208.704 114.736 210.236 113.613 211.98 112.947C213.723 112.28 215.614 112.095 217.454 112.409C219.293 112.724 221.015 113.528 222.438 114.736C224.178 116.065 225.474 117.892 226.154 119.974C226.834 122.056 226.866 124.295 226.245 126.395C226.102 126.862 225.94 127.347 225.74 127.832C224.796 130.193 224.516 132.767 224.931 135.275C225.445 138.188 226.949 141.3 230.908 142.099C230.908 142.099 238.665 141.386 244.595 154.082C246.453 158.218 247.826 162.555 248.687 167.007C251.947 182.526 253.999 198.274 254.826 214.11H205.096L206.362 193.495" stroke="#2E2E2E" stroke-width="0.58" stroke-miterlimit="10"/>
<path d="M202.098 193.343C202.57 193.887 203.155 194.322 203.812 194.618C204.097 194.723 205.001 194.285 206.334 193.476C206.705 193.257 207.105 193 207.533 192.724C215.461 187.575 233.031 173.784 233.031 173.784" stroke="#2E2E2E" stroke-width="0.58" stroke-miterlimit="10"/>
<path d="M191.458 172.032C184.9 163.314 165.76 137.569 165.541 134.371C165.313 130.564 166.674 121.237 164.408 121.237C162.143 121.237 158.774 133.143 158.698 135.285C158.698 138.683 176.363 171.062 180.217 177.629C184.072 184.196 193.123 195.294 200.366 190.954C200.842 191.795 201.407 192.583 202.051 193.304" stroke="#2E2E2E" stroke-width="0.58" stroke-miterlimit="10"/>
<path d="M197.301 171.728L193.637 174.897C193.637 174.897 192.819 173.831 191.467 172.042" stroke="#2E2E2E" stroke-width="0.58" stroke-miterlimit="10"/>
<path d="M191.886 170.348C191.699 170.567 191.563 170.825 191.487 171.103C191.412 171.381 191.398 171.673 191.448 171.956C191.443 171.981 191.443 172.007 191.448 172.032V172.032" stroke="#2E2E2E" stroke-width="0.58" stroke-miterlimit="10"/>
<path d="M207.561 192.724C207.555 190.551 207.267 188.389 206.705 186.29C205.271 180.535 201.971 175.418 197.32 171.737C196.491 171.075 195.623 170.462 194.722 169.901C194.298 169.635 193.795 169.525 193.298 169.589C192.802 169.653 192.343 169.888 192 170.253" stroke="#2E2E2E" stroke-width="0.58" stroke-miterlimit="10"/>
<path d="M200.414 190.992L206.676 186.29" stroke="#2E2E2E" stroke-width="0.58" stroke-miterlimit="10"/>
<path d="M230.88 142.08C230.88 142.08 224.217 143.28 214.624 149.418C205.994 155.09 198.344 162.126 191.972 170.253L191.886 170.348" stroke="#2E2E2E" stroke-width="0.58" stroke-miterlimit="10"/>
<path d="M250.124 214.091C250.124 214.091 260.308 230.157 258.643 247.27C258.538 248.317 258.395 249.364 258.205 250.401C257.879 252.146 257.421 253.864 256.834 255.54C255.651 258.893 253.924 262.028 251.723 264.82C250.482 266.416 249.106 267.903 247.612 269.265C245.154 271.506 242.461 273.475 239.579 275.137C238.694 275.651 237.799 276.146 236.885 276.603C229.491 280.266 221.343 282.153 213.091 282.114H173.926" stroke="#2E2E2E" stroke-width="0.58" stroke-miterlimit="10"/>
<path d="M158.917 352.697C158.917 352.697 167.054 311.647 172.156 289.509C172.803 286.701 173.403 284.179 173.926 282.114C174.583 279.535 175.116 277.622 175.506 276.603" stroke="#2E2E2E" stroke-width="0.58" stroke-miterlimit="10"/>
<path d="M195.122 214.091C185.128 214.329 174.992 214.177 164.837 214.091C161.829 214.091 158.831 214.034 155.823 214.034C147.257 214.034 138.768 214.11 130.307 214.605C130.725 220.944 129.878 227.701 130.725 234.04C134.951 234.04 138.749 234.04 142.965 233.84" stroke="#2E2E2E" stroke-width="0.58" stroke-miterlimit="10"/>
<path d="M112.775 352.697C113.051 351.536 113.336 350.365 113.622 349.204C121.569 316.263 129.735 284.769 138.311 250.915C139.577 245.414 142.955 240.779 148.019 238.656C161.239 233.155 174.763 229.567 188.621 225.674C190.706 225.084 192.809 224.494 194.912 223.885C199.547 222.191 204.154 216.366 205.068 214.091" stroke="#2E2E2E" stroke-width="0.58" stroke-miterlimit="10"/>
<path d="M150.265 348.205C143.568 345.763 136.346 345.13 129.326 346.368C123.463 347.45 117.848 349.595 112.756 352.697" stroke="#2E2E2E" stroke-width="0.58" stroke-miterlimit="10"/>
<path d="M158.917 352.697C156.262 350.797 153.348 349.287 150.265 348.214" stroke="#2E2E2E" stroke-width="0.58" stroke-miterlimit="10"/>
<path d="M96.0905 369.991C96.0905 369.991 90.4942 359.112 112.775 357.913C112.775 357.913 124.862 357.684 129.345 346.377" stroke="#2E2E2E" stroke-width="0.58" stroke-miterlimit="10"/>
<path d="M150.265 348.205C150.322 348.557 152.483 365.194 150.265 369.981H125.519" stroke="#2E2E2E" stroke-width="0.58" stroke-miterlimit="10"/>
<path d="M125.538 369.991H71.3637C71.3637 369.991 65.7482 359.112 88.0481 357.913C88.0481 357.913 100.136 357.684 104.628 346.377" stroke="#2E2E2E" stroke-width="0.58" stroke-miterlimit="10"/>
<path d="M188.612 225.617C188.612 225.617 182.225 226.131 173.926 227.216C163.733 228.539 150.646 230.709 142.956 233.812C141.881 234.228 140.838 234.721 139.834 235.287C128.298 241.949 95.4624 349.204 95.4624 349.204C98.1717 347.349 101.339 346.275 104.618 346.101C107.896 345.992 111.1 347.089 113.622 349.185V349.185" stroke="#2E2E2E" stroke-width="0.58" stroke-miterlimit="10"/>
<path d="M205.382 121.237H217.384V124.939C217.384 124.939 219.497 123.273 219.792 124.939C220.087 126.605 217.679 127.794 217.679 127.794L221.486 133.372H224.693" stroke="#2E2E2E" stroke-width="0.58" stroke-miterlimit="10"/>
<path d="M222.438 114.717C222.438 114.717 225.236 97.7471 234.896 95.263C243.976 92.9312 255.73 99.8029 251.838 112.262C251.567 113.097 251.249 113.917 250.886 114.717C250.629 115.269 250.419 115.802 250.229 116.316C246.831 125.957 255.254 128.841 260.327 133.391C261.836 134.606 262.959 136.233 263.563 138.073C265.981 146.535 261.165 160.982 244.528 154.063" stroke="#2E2E2E" stroke-width="0.58" stroke-miterlimit="10"/>
<path d="M236.876 276.603H277.802C279.513 276.603 281.155 277.283 282.365 278.493C283.575 279.703 284.255 281.345 284.255 283.056C284.255 284.768 283.575 286.409 282.365 287.619C281.155 288.829 279.513 289.509 277.802 289.509H172.156" stroke="#2E2E2E" stroke-width="0.58" stroke-miterlimit="10"/>
<path d="M258.471 247.289H258.643C261.811 247.012 264.941 246.4 267.98 245.461C275.547 243.275 282.466 239.276 288.138 233.812C294.059 227.914 298.309 220.55 300.454 212.473C302.344 205.482 303.191 198.25 302.967 191.011C302.897 187.249 302.631 183.494 302.167 179.761C301.24 172.435 299.8 165.184 297.856 158.061C296.339 152.216 293.623 146.752 289.88 142.014C284.026 134.752 271.435 128.737 260.375 133.448" stroke="#2E2E2E" stroke-width="0.58" stroke-miterlimit="10"/>
<path d="M267.98 245.442H275.461C275.765 245.442 276.067 245.503 276.348 245.619C276.629 245.736 276.884 245.907 277.099 246.123C277.314 246.339 277.484 246.595 277.6 246.877C277.716 247.158 277.775 247.46 277.773 247.765V248.088C277.773 248.702 277.53 249.29 277.096 249.724C276.662 250.157 276.074 250.401 275.461 250.401H257.881" stroke="#2E2E2E" stroke-width="0.58" stroke-miterlimit="10"/>
<path d="M256.568 255.541H275.461C275.765 255.541 276.067 255.601 276.348 255.717C276.629 255.834 276.884 256.006 277.099 256.221C277.314 256.437 277.484 256.693 277.6 256.975C277.716 257.257 277.775 257.558 277.773 257.863V257.977C277.775 258.282 277.716 258.584 277.6 258.866C277.485 259.149 277.315 259.405 277.1 259.622C276.885 259.838 276.63 260.011 276.349 260.128C276.067 260.246 275.766 260.308 275.461 260.309H254.798" stroke="#2E2E2E" stroke-width="0.58" stroke-miterlimit="10"/>
<path d="M251.59 264.82H275.46C276.076 264.82 276.667 265.065 277.103 265.5C277.538 265.936 277.783 266.527 277.783 267.143C277.783 267.758 277.538 268.349 277.103 268.785C276.667 269.22 276.076 269.465 275.46 269.465H247.802" stroke="#2E2E2E" stroke-width="0.58" stroke-miterlimit="10"/>
<path d="M233.088 289.519L237.161 352.706" stroke="#2E2E2E" stroke-width="0.58" stroke-miterlimit="10"/>
<path d="M218.507 289.519L212.111 352.706" stroke="#2E2E2E" stroke-width="0.58" stroke-miterlimit="10"/>
<path d="M272.796 352.707H237.161H224.36H212.111H175.506" stroke="#2E2E2E" stroke-width="0.58" stroke-miterlimit="10"/>
<path d="M264.144 361.339C264.142 363.05 264.648 364.724 265.597 366.148C266.547 367.572 267.897 368.682 269.478 369.339C271.059 369.995 272.799 370.168 274.477 369.835C276.156 369.502 277.699 368.679 278.91 367.469C280.121 366.26 280.946 364.718 281.28 363.04C281.615 361.361 281.444 359.621 280.789 358.04C280.135 356.458 279.026 355.107 277.603 354.155C276.18 353.204 274.507 352.697 272.796 352.697C270.503 352.697 268.303 353.607 266.681 355.227C265.059 356.848 264.146 359.046 264.144 361.339Z" stroke="#2E2E2E" stroke-width="0.58" stroke-miterlimit="10"/>
<path d="M184.148 361.339C184.146 359.63 183.638 357.96 182.687 356.54C181.736 355.12 180.386 354.014 178.806 353.362C177.227 352.709 175.49 352.539 173.814 352.874C172.138 353.208 170.599 354.032 169.392 355.241C168.184 356.45 167.362 357.99 167.029 359.666C166.697 361.342 166.868 363.079 167.523 364.658C168.177 366.237 169.285 367.586 170.706 368.535C172.127 369.484 173.797 369.991 175.506 369.991C177.799 369.988 179.997 369.075 181.617 367.453C183.238 365.831 184.148 363.632 184.148 361.339Z" stroke="#2E2E2E" stroke-width="0.58" stroke-miterlimit="10"/>
<path d="M215.718 361.339C215.716 363.051 216.222 364.725 217.172 366.149C218.122 367.573 219.473 368.684 221.055 369.34C222.636 369.996 224.376 370.168 226.055 369.834C227.734 369.501 229.277 368.676 230.487 367.466C231.698 366.255 232.522 364.713 232.856 363.034C233.189 361.355 233.017 359.614 232.361 358.033C231.705 356.452 230.595 355.101 229.17 354.151C227.746 353.201 226.072 352.695 224.36 352.697C222.068 352.697 219.87 353.607 218.249 355.228C216.629 356.849 215.718 359.047 215.718 361.339Z" stroke="#2E2E2E" stroke-width="0.58" stroke-miterlimit="10"/>
<path d="M384.676 233.821C384.676 232.927 290.032 233.821 288.138 233.821" stroke="#2E2E2E" stroke-width="0.58" stroke-miterlimit="10"/>
<path d="M300.454 212.454H317.176H384.676V233.802" stroke="#2E2E2E" stroke-width="0.58" stroke-miterlimit="10"/>
<path d="M365.64 233.831L394.631 367.421" stroke="#2E2E2E" stroke-width="0.58" stroke-miterlimit="10"/>
<path d="M302.967 190.992H352.182C353.233 190.992 354.24 190.575 354.982 189.832C355.725 189.09 356.142 188.082 356.142 187.032V116.221C356.142 115.171 355.725 114.164 354.982 113.421C354.24 112.679 353.233 112.262 352.182 112.262H251.838" stroke="#2E2E2E" stroke-width="0.58" stroke-miterlimit="10"/>
<path d="M312.199 190.992L317.176 212.454" stroke="#2E2E2E" stroke-width="0.58" stroke-miterlimit="10"/>
<path d="M250.895 116.364H351.754V179.742H302.167" stroke="#2E2E2E" stroke-width="0.58" stroke-miterlimit="10"/>
<path d="M155.804 214.015C156.189 214.069 156.577 214.095 156.966 214.091H164.237C164.427 214.091 164.627 214.091 164.818 214.091C166.81 213.944 168.673 213.049 170.032 211.586C171.392 210.122 172.147 208.198 172.146 206.201V190.973H149.047V206.201C149.053 208.096 149.739 209.926 150.978 211.36C152.218 212.793 153.93 213.735 155.804 214.015V214.015Z" stroke="#2E2E2E" stroke-width="0.58" stroke-miterlimit="10"/>
<path d="M158.07 176.353C156.398 176.95 154.99 178.116 154.094 179.648C153.198 181.181 152.871 182.98 153.172 184.729C153.472 186.478 154.38 188.065 155.735 189.211C157.091 190.357 158.807 190.987 160.582 190.992C161.415 190.993 162.241 190.855 163.028 190.582C163.963 190.257 164.824 189.752 165.562 189.094C166.301 188.436 166.903 187.639 167.334 186.749C167.765 185.858 168.016 184.892 168.074 183.904C168.131 182.917 167.993 181.928 167.668 180.993C167.343 180.059 166.837 179.198 166.18 178.459C165.522 177.72 164.725 177.118 163.835 176.687C162.944 176.257 161.978 176.005 160.99 175.948C160.002 175.891 159.013 176.029 158.079 176.353" stroke="#2E2E2E" stroke-width="0.58" stroke-miterlimit="10"/>
<path d="M160.601 190.992V175.925" stroke="#2E2E2E" stroke-width="0.58" stroke-miterlimit="10"/>
<path d="M158.07 176.354C157.037 178.578 156.502 181.001 156.502 183.454C156.502 185.906 157.037 188.329 158.07 190.554" stroke="#2E2E2E" stroke-width="0.58" stroke-miterlimit="10"/>
<path d="M163.038 176.354C164.073 178.577 164.609 181.001 164.609 183.454C164.609 185.907 164.073 188.33 163.038 190.554" stroke="#2E2E2E" stroke-width="0.58" stroke-miterlimit="10"/>
<path d="M202.098 193.343C201.994 193.704 198.196 206.829 195.103 214.091C194.151 216.318 193.266 217.993 192.571 218.574C189.583 221.087 173.926 227.235 173.926 227.235" stroke="#2E2E2E" stroke-width="0.58" stroke-miterlimit="10"/>
<path d="M73.1244 350.565C73.1069 352.401 72.8248 354.225 72.2868 355.98C71.554 357.817 70.8211 359.788 70.7736 359.902" stroke="#2E2E2E" stroke-width="0.58" stroke-miterlimit="10"/>
<path d="M73.1244 350.565L85.1547 369.867H92.5023C93.1851 369.867 93.8536 369.672 94.4286 369.304C95.0037 368.936 95.4611 368.41 95.7466 367.79C96.0321 367.17 96.1338 366.481 96.0396 365.805C95.9453 365.129 95.6591 364.494 95.2149 363.975L93.7872 362.329L89.9801 351.107L78.8445 318.043C76.6078 302.339 76.941 282.466 67.4233 264.011C65.3675 260.014 63.6162 255.379 61.6556 250.563C61.4478 250.039 61.124 249.569 60.7086 249.188C60.2932 248.807 59.797 248.526 59.2571 248.364C57.448 247.772 55.5704 247.414 53.6702 247.298C53.7845 247.622 57.7057 258.167 57.4773 260.623C57.2489 263.079 53.3657 262.888 53.3657 262.888C53.328 264.422 53.0052 265.936 52.4139 267.352C52.4139 267.352 47.7312 279.677 50.2724 290.194C50.7959 292.336 51.2242 294.325 51.5764 296.124C51.5764 296.124 49.8442 302.967 44.362 313.256C44.362 313.617 43.7148 319.29 48.1024 327.446C52.6233 335.879 55.0979 346.901 47.0745 351.06C39.0511 355.219 28.7816 354.762 23.5278 353.544C23.0329 355.885 22.6331 358.141 22.3 360.206C21.4244 365.803 21.1579 369.838 21.1579 369.838H76.8553C77.3883 363.652 73.8763 361.015 70.7735 359.873C70.8211 359.759 71.5539 357.789 72.2868 355.952C72.8221 354.206 73.1042 352.391 73.1244 350.565ZM52.1855 319.48C52.1855 318.464 52.4869 317.47 53.0516 316.625C53.6164 315.78 54.4191 315.121 55.3582 314.732C56.2973 314.343 57.3307 314.241 58.3277 314.439C59.3247 314.638 60.2405 315.127 60.9592 315.846C61.678 316.565 62.1675 317.481 62.3658 318.478C62.5641 319.475 62.4624 320.508 62.0734 321.447C61.6844 322.386 61.0256 323.189 60.1804 323.754C59.3352 324.318 58.3416 324.62 57.3251 324.62C55.9694 324.607 54.6733 324.061 53.7182 323.098C52.7631 322.136 52.226 320.836 52.2235 319.48H52.1855ZM55.726 275.699C55.726 275.28 56.2495 274.947 56.8872 274.947C57.5249 274.947 58.0579 275.28 58.0579 275.699C58.0579 276.118 57.5344 276.451 56.8872 276.451C56.24 276.451 55.7641 276.156 55.7641 275.737L55.726 275.699Z" fill="#F6B248"/>
<path d="M1.02801 346.415C1.02801 346.415 -0.875515 369.867 21.0817 369.867C21.0817 369.867 21.3483 365.831 22.2239 360.235C21.9669 360.302 8.05205 363.538 1.02801 346.415Z" fill="#F6B248"/>
<path d="M31.7702 332.434C27.6395 337.726 25.0412 346.101 23.4422 353.592C28.6959 354.81 38.9655 355.267 46.9889 351.107C55.0123 346.948 52.5377 335.879 48.0168 327.494C43.6292 319.337 44.2098 313.665 44.2764 313.303C40.6604 320.025 36.4764 326.425 31.7702 332.434Z" fill="#3D4543"/>
<path d="M50.2821 248.935C49.6158 251.914 53.4895 256.949 53.2991 262.917C53.2991 262.917 57.1062 263.183 57.4108 260.652C57.7154 258.12 53.756 247.612 53.6037 247.327C51.9476 247.251 50.52 247.631 50.2821 248.935Z" fill="#3D4543"/>
<path d="M57.3631 314.331C56.3443 314.329 55.3479 314.63 54.4999 315.194C53.6519 315.759 52.9904 316.562 52.5992 317.503C52.2081 318.444 52.1047 319.479 52.3023 320.479C52.4999 321.478 52.9896 322.397 53.7093 323.118C54.429 323.839 55.3465 324.33 56.3455 324.53C57.3446 324.729 58.3804 324.628 59.3218 324.238C60.2633 323.849 61.068 323.189 61.6342 322.342C62.2004 321.495 62.5027 320.499 62.5027 319.48C62.5027 318.116 61.9615 316.808 60.9979 315.843C60.0343 314.877 58.7271 314.334 57.3631 314.331Z" fill="#3D4543"/>
<path d="M56.9253 274.985C56.2876 274.985 55.7642 275.318 55.7642 275.737C55.7642 276.156 56.2876 276.489 56.9253 276.489C57.563 276.489 58.096 276.156 58.096 275.737C58.096 275.318 57.5725 274.985 56.9253 274.985Z" fill="#3D4543"/>
<path d="M78.873 318.043L90.0087 351.107C90.0087 351.107 95.3291 341.123 94.1299 335.432C92.9306 329.74 79.2061 318.328 78.873 318.043Z" fill="#F6B248"/>
<path d="M78.873 318.043L90.0087 351.107L93.8158 362.329L95.2434 363.975C95.6877 364.494 95.9739 365.129 96.0681 365.805C96.1624 366.481 96.0607 367.17 95.7752 367.79C95.4896 368.41 95.0322 368.936 94.4572 369.304C93.8822 369.672 93.2136 369.867 92.5309 369.867H85.1833L73.153 350.565L66.4906 339.829C66.4146 339.537 66.3762 339.236 66.3763 338.934L65.6911 322.564" stroke="#2E2E2E" stroke-width="0.58" stroke-miterlimit="10"/>
<path d="M58.134 291.727C58.134 291.727 62.2457 288.424 65.12 295.039C67.9944 301.654 74.1713 302.815 63.2165 305.289C54.4793 307.25 53.0421 303.214 51.5383 296.162C51.1481 294.363 50.7578 292.355 50.2344 290.232C47.6932 279.706 52.3758 267.39 52.3758 267.39C52.9672 265.974 53.2899 264.46 53.3276 262.926C53.518 256.959 49.6443 251.924 50.3105 248.945C50.5865 247.641 51.9761 247.26 53.6702 247.298C55.5704 247.414 57.4479 247.772 59.2571 248.364C59.797 248.526 60.2932 248.807 60.7086 249.188C61.124 249.569 61.4478 250.039 61.6556 250.563C63.5591 255.379 65.3675 260.014 67.4233 264.011C76.9409 282.466 76.6554 302.339 78.8445 318.043" stroke="#2E2E2E" stroke-width="0.58" stroke-miterlimit="10"/>
<path d="M44.2858 313.284C49.768 303.005 51.5002 296.152 51.5002 296.152" stroke="#2E2E2E" stroke-width="0.58" stroke-miterlimit="10"/>
<path d="M58.3434 341.79C58.3434 341.79 66.3669 348.271 66.3669 359.064C67.8704 359.113 69.3571 359.395 70.7735 359.902C73.8763 361.044 77.4359 363.709 76.8553 369.867H21.0722C21.0722 369.867 21.3388 365.831 22.2144 360.235C22.5475 358.189 22.9472 355.933 23.4421 353.573C25.0411 346.082 27.6394 337.707 31.7701 332.415C36.4764 326.406 40.6603 320.006 44.2763 313.284" stroke="#2E2E2E" stroke-width="0.58" stroke-miterlimit="10"/>
<path d="M22.2239 360.235C21.9764 360.302 8.06157 363.538 1.02801 346.415C1.02801 346.415 -0.875516 369.867 21.0817 369.867" stroke="#2E2E2E" stroke-width="0.58" stroke-miterlimit="10"/>
<path d="M78.8636 318.034C79.1967 318.319 92.9402 329.807 94.0918 335.422C95.2434 341.038 89.9707 351.098 89.9707 351.098" stroke="#2E2E2E" stroke-width="0.58" stroke-miterlimit="10"/>
<path d="M53.6322 247.289C53.7464 247.612 57.6677 258.158 57.4392 260.614C57.2108 263.069 53.3276 262.879 53.3276 262.879" stroke="#2E2E2E" stroke-width="0.58" stroke-miterlimit="10"/>
<path d="M44.2859 313.284C44.2859 313.646 43.6387 319.319 48.0263 327.475C52.5472 335.908 55.0218 346.929 46.9984 351.089C38.975 355.248 28.7055 354.791 23.4517 353.573" stroke="#2E2E2E" stroke-width="0.58" stroke-miterlimit="10"/>
<path d="M52.2236 319.48C52.2255 320.496 52.5285 321.489 53.0944 322.333C53.6603 323.177 54.4636 323.834 55.4029 324.222C56.3422 324.609 57.3753 324.71 58.3717 324.51C59.368 324.311 60.2829 323.821 61.0007 323.102C61.7186 322.382 62.2071 321.467 62.4046 320.47C62.6022 319.473 62.4998 318.44 62.1106 317.502C61.7213 316.563 61.0625 315.761 60.2175 315.197C59.3726 314.632 58.3793 314.331 57.3632 314.331C56.6874 314.331 56.0183 314.464 55.3942 314.723C54.77 314.982 54.203 315.362 53.7256 315.84C53.2482 316.318 52.8698 316.886 52.6121 317.51C52.3544 318.135 52.2224 318.804 52.2236 319.48V319.48Z" stroke="#2E2E2E" stroke-width="0.58" stroke-miterlimit="10"/>
<path d="M55.7642 275.737C55.7642 276.156 56.2876 276.489 56.9253 276.489C57.563 276.489 58.096 276.156 58.096 275.737C58.096 275.318 57.5725 274.985 56.9253 274.985C56.2781 274.985 55.7642 275.318 55.7642 275.737Z" stroke="#2E2E2E" stroke-width="0.58" stroke-miterlimit="10"/>
<path d="M318.918 323.773V358.693C318.918 360.793 319.752 362.807 321.237 364.292C322.722 365.777 324.737 366.612 326.837 366.612H353.848C355.947 366.609 357.96 365.774 359.445 364.29C360.929 362.805 361.764 360.792 361.767 358.693V323.773H318.937H318.918Z" fill="#F6B248"/>
<path d="M335.688 266.543C330.263 270.588 326.38 281.505 326.38 294.335C326.38 307.164 330.263 318.081 335.688 322.136C329.207 291.203 335.688 266.562 335.688 266.562V266.543Z" fill="#238D7E"/>
<path d="M335.698 266.543C335.698 266.543 329.216 291.184 335.698 322.117C337.027 323.17 338.666 323.758 340.361 323.792V264.82C338.664 264.853 337.024 265.445 335.698 266.505V266.543Z" fill="#238D7E"/>
<path d="M340.352 264.82V323.773C342.01 323.745 343.615 323.177 344.92 322.155V322.088C351.402 291.156 344.92 266.514 344.92 266.514V266.438C343.612 265.421 342.009 264.853 340.352 264.82Z" fill="#238D7E"/>
<path d="M344.92 266.438V266.514C344.92 266.514 351.402 291.156 344.92 322.088V322.155C350.393 318.157 354.324 307.202 354.324 294.296C354.324 281.39 350.393 270.436 344.92 266.438Z" fill="#238D7E"/>
<path d="M326.846 366.612H353.848C355.947 366.609 357.96 365.774 359.445 364.29C360.929 362.805 361.764 360.792 361.767 358.693V323.773H318.937V358.693C318.937 360.792 319.77 362.804 321.253 364.289C322.736 365.774 324.748 366.609 326.846 366.612V366.612Z" stroke="#2E2E2E" stroke-width="0.58" stroke-miterlimit="10"/>
<path d="M335.688 266.543C330.263 270.588 326.38 281.505 326.38 294.335C326.38 307.164 330.263 318.081 335.688 322.136C337.018 323.189 338.656 323.777 340.352 323.811C342.01 323.783 343.615 323.215 344.92 322.193C350.393 318.195 354.324 307.241 354.324 294.335C354.324 281.429 350.393 270.474 344.92 266.476C343.611 265.419 341.976 264.847 340.292 264.859C338.609 264.871 336.982 265.466 335.688 266.543V266.543Z" stroke="#2E2E2E" stroke-width="0.58" stroke-miterlimit="10"/>
<path d="M340.342 323.773V264.83" stroke="#2E2E2E" stroke-width="0.58" stroke-miterlimit="10"/>
<path d="M335.698 266.543C335.698 266.543 329.216 291.184 335.698 322.117" stroke="#2E2E2E" stroke-width="0.58" stroke-miterlimit="10"/>
<path d="M344.873 266.543C344.873 266.543 351.354 291.184 344.873 322.117" stroke="#2E2E2E" stroke-width="0.58" stroke-miterlimit="10"/>
<path d="M202.232 120.475V124.663V128.86" stroke="#2E2E2E" stroke-width="0.58" stroke-miterlimit="10"/>
<path d="M202.232 124.663H205.068H217.384" stroke="#2E2E2E" stroke-width="0.58" stroke-miterlimit="10"/>
<path d="M374.425 303.186V342.856C374.425 350.052 377.284 356.954 382.373 362.043C387.462 367.132 394.363 369.991 401.56 369.991H426.468C433.663 369.988 440.562 367.128 445.649 362.04C450.736 356.951 453.593 350.051 453.593 342.856V303.186H374.387H374.425ZM382.687 313.494C382.586 313.262 382.534 313.013 382.534 312.761C382.437 312.264 382.541 311.748 382.824 311.328C383.107 310.907 383.546 310.617 384.043 310.519C384.54 310.422 385.056 310.527 385.476 310.809C385.896 311.092 386.187 311.531 386.284 312.028L393.156 328.703C393.353 329.18 393.352 329.716 393.154 330.192C392.956 330.669 392.577 331.047 392.099 331.244C391.622 331.441 391.087 331.44 390.61 331.242C390.134 331.044 389.755 330.665 389.558 330.188L382.687 313.494ZM394.441 357.275C394.196 357.192 393.971 357.061 393.779 356.889C393.587 356.716 393.432 356.507 393.323 356.273C393.215 356.038 393.155 355.785 393.147 355.527C393.14 355.269 393.185 355.012 393.28 354.772L399.438 337.83C399.525 337.59 399.659 337.369 399.832 337.18C400.005 336.991 400.213 336.838 400.445 336.73C400.677 336.622 400.928 336.56 401.184 336.549C401.44 336.538 401.695 336.577 401.936 336.664C402.177 336.752 402.398 336.886 402.586 337.059C402.775 337.232 402.928 337.44 403.036 337.672C403.145 337.904 403.206 338.155 403.217 338.411C403.229 338.667 403.189 338.922 403.102 339.163L396.934 356.104C396.764 356.586 396.411 356.982 395.952 357.208C395.494 357.434 394.965 357.471 394.479 357.313L394.441 357.275ZM402.769 324.077C402.628 323.581 402.688 323.05 402.938 322.598C403.188 322.147 403.606 321.813 404.101 321.669L421.442 316.72C421.687 316.65 421.944 316.629 422.197 316.658C422.45 316.687 422.695 316.766 422.918 316.89C423.367 317.14 423.7 317.558 423.841 318.053C423.982 318.547 423.921 319.078 423.671 319.528C423.422 319.978 423.003 320.31 422.508 320.451L405.167 325.419C404.993 325.465 404.814 325.488 404.634 325.486C404.222 325.486 403.822 325.352 403.492 325.105C403.163 324.858 402.922 324.511 402.807 324.115L402.769 324.077ZM412.496 355.438C412.24 355.408 411.994 355.326 411.77 355.198C411.547 355.07 411.353 354.898 411.198 354.693C411.043 354.487 410.931 354.253 410.87 354.003C410.808 353.753 410.798 353.493 410.84 353.239L413.371 335.394C413.443 334.889 413.713 334.433 414.121 334.127C414.529 333.821 415.041 333.69 415.546 333.762C416.051 333.833 416.507 334.103 416.813 334.511C417.119 334.919 417.25 335.431 417.179 335.936L414.647 353.791C414.591 354.256 414.366 354.683 414.015 354.992C413.663 355.301 413.211 355.47 412.743 355.467L412.496 355.438ZM428.676 334.804C428.58 334.571 428.528 334.323 428.524 334.071C428.475 333.825 428.475 333.571 428.524 333.325C428.573 333.079 428.671 332.845 428.81 332.636C428.95 332.428 429.129 332.249 429.338 332.109C429.547 331.97 429.781 331.873 430.027 331.825C430.274 331.776 430.527 331.776 430.773 331.825C431.019 331.875 431.253 331.972 431.462 332.111C431.67 332.251 431.85 332.43 431.989 332.639C432.128 332.848 432.225 333.082 432.274 333.328L439.117 350.013C439.214 350.249 439.263 350.502 439.262 350.757C439.261 351.013 439.21 351.265 439.111 351.501C439.013 351.737 438.869 351.95 438.688 352.13C438.507 352.31 438.292 352.453 438.056 352.549C437.819 352.646 437.566 352.696 437.311 352.695C437.056 352.694 436.803 352.643 436.568 352.544C436.332 352.446 436.118 352.302 435.938 352.12C435.758 351.939 435.616 351.724 435.519 351.488L428.676 334.804ZM437.727 331.406C437.484 331.323 437.26 331.192 437.068 331.02C436.877 330.849 436.722 330.64 436.614 330.407C436.505 330.174 436.445 329.922 436.437 329.665C436.429 329.408 436.473 329.152 436.566 328.912L442.724 311.961C442.862 311.586 443.113 311.263 443.442 311.034C443.77 310.806 444.161 310.685 444.561 310.686C444.785 310.688 445.006 310.726 445.218 310.8C445.461 310.883 445.685 311.014 445.876 311.186C446.068 311.357 446.222 311.566 446.331 311.799C446.439 312.032 446.499 312.285 446.508 312.541C446.516 312.798 446.472 313.054 446.379 313.294L440.221 330.245C440.133 330.486 439.998 330.708 439.824 330.898C439.649 331.087 439.44 331.24 439.206 331.348C438.973 331.456 438.72 331.517 438.463 331.527C438.206 331.537 437.949 331.496 437.708 331.406H437.727Z" fill="#F5B8B9"/>
<path d="M382.572 312.761C382.572 313.013 382.624 313.262 382.725 313.494L389.558 330.188C389.755 330.665 390.134 331.044 390.61 331.242C391.087 331.44 391.622 331.441 392.1 331.244C392.577 331.047 392.956 330.669 393.154 330.192C393.352 329.716 393.353 329.18 393.156 328.703L386.322 312.028C386.225 311.531 385.934 311.092 385.514 310.809C385.094 310.527 384.578 310.422 384.081 310.519C383.584 310.617 383.145 310.907 382.862 311.328C382.579 311.748 382.475 312.263 382.572 312.761Z" fill="#8B4986"/>
<path d="M393.318 354.81C393.23 355.05 393.191 355.305 393.202 355.56C393.213 355.815 393.274 356.066 393.382 356.297C393.49 356.529 393.642 356.737 393.83 356.909C394.019 357.082 394.239 357.216 394.479 357.303C394.719 357.391 394.974 357.43 395.229 357.419C395.484 357.408 395.735 357.347 395.966 357.239C396.198 357.131 396.406 356.979 396.579 356.791C396.751 356.603 396.885 356.382 396.973 356.142L403.14 339.201C403.317 338.715 403.293 338.179 403.075 337.71C402.856 337.242 402.46 336.879 401.974 336.702C401.488 336.526 400.952 336.549 400.483 336.768C400.015 336.987 399.652 337.382 399.476 337.868L393.318 354.81Z" fill="#8B4986"/>
<path d="M404.139 321.746C403.635 321.816 403.178 322.084 402.871 322.491C402.564 322.898 402.432 323.411 402.502 323.916C402.573 324.42 402.841 324.876 403.248 325.183C403.655 325.49 404.168 325.623 404.672 325.553C404.852 325.554 405.032 325.532 405.205 325.486L422.547 320.518C422.792 320.448 423.02 320.33 423.22 320.172C423.419 320.013 423.586 319.817 423.71 319.594C423.833 319.372 423.912 319.127 423.941 318.874C423.97 318.621 423.949 318.364 423.879 318.119C423.809 317.874 423.692 317.645 423.533 317.446C423.375 317.246 423.179 317.08 422.956 316.956C422.733 316.833 422.488 316.754 422.235 316.725C421.982 316.696 421.726 316.717 421.481 316.787L404.139 321.746Z" fill="#8B4986"/>
<path d="M410.84 353.239C410.798 353.493 410.808 353.753 410.87 354.003C410.932 354.252 411.043 354.487 411.198 354.693C411.353 354.898 411.547 355.07 411.771 355.198C411.994 355.326 412.24 355.408 412.496 355.438H412.781C413.249 355.441 413.702 355.272 414.053 354.963C414.404 354.654 414.629 354.227 414.685 353.763L417.217 335.908C417.252 335.658 417.238 335.403 417.176 335.159C417.113 334.914 417.003 334.684 416.851 334.482C416.699 334.28 416.51 334.11 416.292 333.982C416.075 333.853 415.834 333.768 415.584 333.733C415.334 333.697 415.08 333.711 414.835 333.774C414.591 333.837 414.361 333.947 414.159 334.099C413.957 334.25 413.787 334.44 413.658 334.657C413.53 334.875 413.445 335.115 413.41 335.365L410.84 353.239Z" fill="#8B4986"/>
<path d="M428.505 334.118C428.509 334.37 428.561 334.619 428.657 334.851L435.5 351.536C435.597 351.772 435.739 351.987 435.919 352.168C436.099 352.349 436.313 352.493 436.548 352.592C436.784 352.69 437.037 352.741 437.292 352.742C437.547 352.743 437.8 352.694 438.036 352.597C438.273 352.5 438.488 352.358 438.669 352.178C438.85 351.998 438.994 351.784 439.092 351.548C439.191 351.313 439.242 351.06 439.243 350.805C439.244 350.55 439.195 350.297 439.098 350.06L432.255 333.376C432.156 332.879 431.864 332.441 431.443 332.159C431.022 331.877 430.506 331.774 430.008 331.872C429.511 331.971 429.073 332.263 428.791 332.684C428.509 333.105 428.406 333.621 428.505 334.118Z" fill="#8B4986"/>
<path d="M436.547 328.912C436.37 329.397 436.393 329.932 436.611 330.4C436.829 330.867 437.224 331.229 437.708 331.406C438.193 331.583 438.728 331.56 439.196 331.342C439.663 331.124 440.025 330.729 440.202 330.245L446.36 313.294C446.453 313.054 446.497 312.798 446.489 312.541C446.481 312.285 446.42 312.032 446.312 311.799C446.203 311.566 446.049 311.357 445.857 311.186C445.666 311.014 445.442 310.883 445.199 310.8C444.988 310.726 444.766 310.687 444.542 310.686C444.142 310.685 443.751 310.806 443.423 311.034C443.094 311.262 442.844 311.586 442.705 311.961L436.547 328.912Z" fill="#8B4986"/>
<path d="M395.25 303.186H374.425V342.856C374.425 350.052 377.284 356.954 382.373 362.043C387.462 367.132 394.363 369.991 401.56 369.991H426.468C433.663 369.988 440.562 367.128 445.649 362.04C450.736 356.951 453.593 350.051 453.593 342.856V303.186H395.25Z" stroke="#2E2E2E" stroke-width="0.58" stroke-miterlimit="10"/>
<path d="M437.708 331.406C438.193 331.581 438.727 331.557 439.194 331.34C439.662 331.122 440.024 330.728 440.202 330.245L446.36 313.294C446.453 313.054 446.497 312.798 446.489 312.541C446.481 312.285 446.42 312.032 446.312 311.799C446.203 311.566 446.049 311.357 445.857 311.186C445.666 311.014 445.442 310.883 445.199 310.8C444.988 310.726 444.766 310.687 444.542 310.686C444.142 310.685 443.751 310.806 443.423 311.034C443.094 311.262 442.844 311.586 442.705 311.961L436.547 328.912C436.454 329.152 436.41 329.408 436.418 329.665C436.426 329.921 436.487 330.174 436.595 330.407C436.704 330.64 436.858 330.849 437.049 331.02C437.241 331.192 437.465 331.323 437.708 331.406V331.406Z" stroke="#2E2E2E" stroke-width="0.58" stroke-miterlimit="10"/>
<path d="M394.479 357.313C394.965 357.485 395.499 357.458 395.966 357.239C396.433 357.02 396.794 356.626 396.973 356.142L403.14 339.201C403.317 338.715 403.293 338.179 403.075 337.71C402.856 337.242 402.46 336.879 401.974 336.702C401.488 336.526 400.952 336.549 400.483 336.768C400.015 336.987 399.652 337.382 399.476 337.868L393.318 354.81C393.223 355.05 393.178 355.307 393.185 355.565C393.193 355.823 393.253 356.076 393.361 356.311C393.47 356.545 393.625 356.754 393.817 356.927C394.009 357.099 394.234 357.23 394.479 357.313V357.313Z" stroke="#2E2E2E" stroke-width="0.58" stroke-miterlimit="10"/>
<path d="M428.505 334.118C428.509 334.37 428.561 334.619 428.657 334.851L435.5 351.536C435.597 351.772 435.739 351.987 435.919 352.168C436.099 352.349 436.313 352.493 436.548 352.592C436.784 352.69 437.037 352.741 437.292 352.742C437.547 352.743 437.8 352.694 438.036 352.597C438.273 352.5 438.488 352.358 438.669 352.178C438.85 351.998 438.994 351.784 439.092 351.548C439.191 351.313 439.242 351.06 439.243 350.805C439.244 350.55 439.195 350.297 439.098 350.06L432.255 333.376C432.156 332.879 431.864 332.441 431.443 332.159C431.022 331.877 430.506 331.774 430.008 331.872C429.511 331.971 429.073 332.263 428.791 332.684C428.509 333.105 428.406 333.621 428.505 334.118V334.118Z" stroke="#2E2E2E" stroke-width="0.58" stroke-miterlimit="10"/>
<path d="M382.572 312.761C382.572 313.013 382.624 313.262 382.725 313.494L389.558 330.188C389.755 330.665 390.134 331.044 390.61 331.242C391.087 331.44 391.622 331.441 392.1 331.244C392.577 331.047 392.956 330.669 393.154 330.192C393.352 329.716 393.353 329.18 393.156 328.703L386.322 312.028C386.225 311.531 385.934 311.092 385.514 310.809C385.094 310.527 384.578 310.422 384.081 310.519C383.584 310.617 383.145 310.907 382.862 311.328C382.579 311.748 382.475 312.263 382.572 312.761V312.761Z" stroke="#2E2E2E" stroke-width="0.58" stroke-miterlimit="10"/>
<path d="M410.84 353.239C410.798 353.493 410.808 353.753 410.87 354.003C410.932 354.252 411.043 354.487 411.198 354.693C411.353 354.898 411.547 355.07 411.771 355.198C411.994 355.326 412.24 355.408 412.496 355.438H412.781C413.249 355.441 413.702 355.272 414.053 354.963C414.404 354.654 414.629 354.227 414.685 353.763L417.217 335.908C417.252 335.658 417.238 335.403 417.176 335.159C417.113 334.914 417.003 334.684 416.851 334.482C416.699 334.28 416.51 334.11 416.292 333.982C416.075 333.853 415.834 333.768 415.584 333.733C415.334 333.697 415.08 333.711 414.835 333.774C414.591 333.837 414.361 333.947 414.159 334.099C413.957 334.25 413.787 334.44 413.658 334.657C413.53 334.875 413.445 335.115 413.41 335.365L410.84 353.239Z" stroke="#2E2E2E" stroke-width="0.58" stroke-miterlimit="10"/>
<path d="M404.139 321.745C403.635 321.816 403.178 322.084 402.871 322.491C402.564 322.898 402.432 323.411 402.502 323.916C402.573 324.42 402.841 324.876 403.248 325.183C403.655 325.49 404.168 325.623 404.672 325.553C404.852 325.554 405.032 325.532 405.205 325.486L422.547 320.518C422.792 320.448 423.02 320.33 423.22 320.172C423.419 320.013 423.586 319.817 423.71 319.594C423.833 319.372 423.912 319.127 423.941 318.874C423.97 318.621 423.949 318.364 423.879 318.119C423.809 317.874 423.692 317.645 423.533 317.446C423.375 317.246 423.179 317.08 422.956 316.956C422.733 316.833 422.488 316.754 422.235 316.725C421.982 316.696 421.726 316.717 421.481 316.787L404.139 321.745Z" stroke="#2E2E2E" stroke-width="0.58" stroke-miterlimit="10"/>
<path d="M444.846 153.663C456.772 131.487 473.894 111.586 495.728 94.5206C496.021 94.2889 496.382 94.1616 496.756 94.159C497.012 94.1586 497.265 94.2177 497.495 94.3317C497.724 94.4456 497.924 94.6113 498.079 94.8157C498.345 95.1653 498.464 95.6058 498.409 96.042C498.354 96.4783 498.129 96.8753 497.784 97.1475C476.312 113.937 459.494 133.476 447.778 155.205C445.038 160.288 442.582 165.518 440.421 170.871H440.478C465.687 167.481 488.558 154.333 504.173 134.254C519.788 114.175 526.899 88.77 523.976 63.5026C499.042 66.3684 476.187 78.7798 460.205 98.1327C444.224 117.486 436.359 142.276 438.26 167.302C440.221 162.715 442.416 158.168 444.846 153.663Z" fill="#238D7E"/>
<path d="M429.799 303.186V224.808C429.819 206.324 433.426 188.019 440.421 170.909C442.582 165.556 445.038 160.326 447.778 155.243C459.494 133.476 476.331 113.937 497.784 97.1856C498.129 96.9134 498.354 96.5163 498.409 96.0801C498.464 95.6438 498.346 95.2033 498.079 94.8537C497.924 94.6493 497.724 94.4837 497.495 94.3697C497.265 94.2558 497.012 94.1967 496.756 94.197C496.382 94.1997 496.021 94.3269 495.728 94.5587C473.894 111.624 456.772 131.525 444.846 153.701C442.416 158.206 440.23 162.756 438.289 167.35C430.517 185.51 426.496 205.054 426.468 224.808V303.186H429.799Z" fill="#CDA787"/>
<path d="M400.77 112.166C388.918 82.9675 371.417 56.3967 349.27 33.9788C348.955 33.6666 348.529 33.4916 348.085 33.4916C347.641 33.4916 347.216 33.6666 346.9 33.9788C346.745 34.1327 346.622 34.3158 346.538 34.5176C346.454 34.7193 346.411 34.9357 346.411 35.1542C346.411 35.3727 346.454 35.5891 346.538 35.7908C346.622 35.9926 346.745 36.1757 346.9 36.3296C368.404 58.0796 385.472 83.8045 397.153 112.071C397.429 112.737 397.705 113.413 397.972 114.079C409.379 142.257 415.229 172.375 415.199 202.775V303.186H418.54V204.202C418.63 172.789 412.651 141.654 400.932 112.509C400.894 112.357 400.837 112.281 400.77 112.166Z" fill="#CDA787"/>
<path d="M349.299 33.9787C371.435 56.3992 388.927 82.9698 400.77 112.166C400.77 112.281 400.865 112.385 400.903 112.509C405.215 87.449 399.487 61.6988 384.958 40.8302C370.429 19.9616 348.267 5.65283 323.268 1C318.521 25.8651 323.675 51.6006 337.63 72.7207C351.585 93.8408 373.237 108.675 397.972 114.06C397.705 113.394 397.429 112.718 397.153 112.052C385.479 83.7836 368.417 58.0555 346.919 36.301C346.764 36.1471 346.641 35.964 346.557 35.7622C346.473 35.5605 346.43 35.3441 346.43 35.1256C346.43 34.9071 346.473 34.6907 346.557 34.489C346.641 34.2872 346.764 34.1041 346.919 33.9502C347.239 33.6389 347.669 33.4671 348.115 33.4725C348.561 33.4778 348.987 33.6599 349.299 33.9787Z" fill="#238D7E"/>
<path d="M390.006 179.133C380.96 160.406 368.201 143.714 352.506 130.069C352.381 129.962 352.28 129.829 352.211 129.68C352.142 129.53 352.107 129.368 352.106 129.203C352.107 128.983 352.172 128.768 352.291 128.583C352.411 128.399 352.581 128.252 352.781 128.161C352.981 128.07 353.203 128.038 353.421 128.069C353.639 128.1 353.843 128.193 354.01 128.337C370.04 142.214 383.069 159.217 392.299 178.305C392.709 179.18 393.127 180.056 393.518 180.941C395.093 164.326 390.014 147.764 379.394 134.888C368.774 122.013 353.48 113.876 336.868 112.262C335.268 128.448 339.985 144.626 350.035 157.415C360.085 170.204 374.69 178.613 390.796 180.884C390.539 180.265 390.301 179.694 390.006 179.133Z" fill="#238D7E"/>
<path d="M352.506 130.069C368.201 143.714 380.96 160.406 390.006 179.133C390.272 179.694 390.539 180.265 390.796 180.836C399.156 198.731 403.499 218.239 403.521 237.99V303.186H406.024V237.99C406.014 218.278 401.755 198.801 393.537 180.884C393.146 179.999 392.728 179.123 392.318 178.248C383.088 159.16 370.059 142.157 354.029 128.28C353.862 128.136 353.658 128.043 353.44 128.012C353.222 127.981 353 128.013 352.8 128.104C352.6 128.195 352.43 128.342 352.31 128.526C352.191 128.711 352.126 128.926 352.125 129.146C352.115 129.319 352.143 129.491 352.209 129.651C352.275 129.811 352.377 129.954 352.506 130.069Z" fill="#CDA787"/>
<path d="M400.932 112.509C405.243 87.4448 399.511 61.691 384.976 40.8216C370.441 19.9523 348.272 5.64628 323.268 1C318.521 25.8651 323.675 51.6006 337.63 72.7207C351.585 93.8408 373.237 108.675 397.972 114.06" stroke="#2E2E2E" stroke-width="0.58" stroke-miterlimit="10"/>
<path d="M440.478 170.938C465.7 167.548 488.582 154.39 504.199 134.297C519.815 114.203 526.918 88.7807 523.976 63.5026C499.042 66.3684 476.186 78.7798 460.205 98.1327C444.224 117.486 436.359 142.276 438.26 167.302" stroke="#2E2E2E" stroke-width="0.58" stroke-miterlimit="10"/>
<path d="M397.972 114.079C409.379 142.257 415.229 172.375 415.199 202.775V303.186H418.54V204.202C418.63 172.789 412.651 141.654 400.932 112.509C400.932 112.385 400.837 112.281 400.799 112.166C388.947 82.9675 371.445 56.3967 349.299 33.9788C348.983 33.6666 348.557 33.4916 348.114 33.4916C347.67 33.4916 347.244 33.6666 346.929 33.9788C346.774 34.1327 346.651 34.3158 346.566 34.5176C346.482 34.7193 346.439 34.9357 346.439 35.1542C346.439 35.3727 346.482 35.5891 346.566 35.7908C346.651 35.9926 346.774 36.1757 346.929 36.3296C368.422 58.0822 385.48 83.8068 397.153 112.071C397.429 112.737 397.705 113.413 397.972 114.079Z" stroke="#2E2E2E" stroke-width="0.58" stroke-miterlimit="10"/>
<path d="M393.537 180.941C395.112 164.326 390.033 147.764 379.413 134.888C368.793 122.013 353.499 113.876 336.888 112.262C335.286 128.445 340.001 144.621 350.047 157.409C360.094 170.197 374.693 178.608 390.796 180.884" stroke="#2E2E2E" stroke-width="0.58" stroke-miterlimit="10"/>
<path d="M390.795 180.836H390.805" stroke="#2E2E2E" stroke-width="0.58" stroke-miterlimit="10"/>
<path d="M390.805 180.884C399.155 198.765 403.495 218.255 403.521 237.99V303.186H406.024V237.99C406.014 218.278 401.755 198.801 393.537 180.884C393.146 179.999 392.728 179.123 392.318 178.248C383.088 159.16 370.059 142.157 354.029 128.28C353.862 128.136 353.658 128.043 353.44 128.012C353.222 127.981 353 128.013 352.8 128.104C352.6 128.195 352.43 128.342 352.31 128.526C352.191 128.711 352.126 128.926 352.125 129.146C352.126 129.311 352.161 129.473 352.23 129.623C352.299 129.772 352.4 129.905 352.525 130.012C368.22 143.657 380.979 160.349 390.025 179.076C390.291 179.637 390.558 180.208 390.815 180.779" stroke="#2E2E2E" stroke-width="0.58" stroke-miterlimit="10"/>
<path d="M438.289 167.312C430.512 185.484 426.491 205.042 426.468 224.808V303.186H429.799V224.808C429.819 206.324 433.426 188.019 440.421 170.909C442.582 165.556 445.038 160.326 447.778 155.243C459.494 133.476 476.331 113.937 497.784 97.1856C498.129 96.9134 498.354 96.5163 498.409 96.0801C498.464 95.6438 498.346 95.2033 498.079 94.8537C497.924 94.6493 497.724 94.4837 497.495 94.3697C497.265 94.2558 497.012 94.1967 496.756 94.197C496.382 94.1997 496.021 94.3269 495.728 94.5587C473.894 111.624 456.772 131.525 444.846 153.701C442.416 158.181 440.23 162.718 438.289 167.312Z" stroke="#2E2E2E" stroke-width="0.58" stroke-miterlimit="10"/>
</svg>
