<svg xmlns="http://www.w3.org/2000/svg" width="217.474" height="372.343" viewBox="0 0 217.474 372.343">
  <g id="Grupo_42" data-name="Grupo 42" transform="translate(-1679.665 -1514.446)">
    <g id="Grupo_36" data-name="Grupo 36" transform="translate(-3.81 24.127)">
      <path id="Trazado_233" data-name="Trazado 233" d="M1687.79,1589.608l-.475.067.049.346a2.582,2.582,0,0,0,.766,1.331,2.691,2.691,0,0,0,1.38.681c3.034.511,7.423-.139,9.849-.583l-.371-3-.03-.231-.025-.171-.48.067Z" fill="#625d9c"/>
      <path id="Trazado_234" data-name="Trazado 234" d="M1698.988,1588.453l.371,3c-2.426.444-6.815,1.094-9.849.583a2.691,2.691,0,0,1-1.38-.681,2.582,2.582,0,0,1-.766-1.331s-4.2,2.353-3.477,6.189,1.039,6.238,1.039,6.238.724,3.167,4.9,5.173c2.535,1.222,6.347,2.012,12.044,1.405a59.288,59.288,0,0,0,10.779-2.292h.006l-2.152-16.178s-3.964-2.669-11.387-2.122Z" fill="#dcc7b7"/>
      <path id="Trazado_235" data-name="Trazado 235" d="M1698.386,1587.614a.794.794,0,0,0-.894-.675l-9.1,1.276a.788.788,0,0,0-.674.888l.073.505,10.663-1.49Z" fill="#5d6162" stroke="#25292b" stroke-miterlimit="10" stroke-width="0.608"/>
      <path id="Trazado_236" data-name="Trazado 236" d="M1701.87,1609.026c-5.7.607-9.509-.183-12.044-1.405l.505,3.624,11.618-1.63-.079-.583Z" fill="#625d9c"/>
      <path id="Trazado_237" data-name="Trazado 237" d="M1718.363,1849.9c-22.956,1.252-17.2,12.457-17.2,12.457H1757c2.28-4.931.146-24.975.146-24.975-9.745.061-12.919,0-21.758,0C1730.765,1849.025,1718.363,1849.9,1718.363,1849.9Z" fill="#dcc7b7"/>
      <path id="Trazado_238" data-name="Trazado 238" d="M1758.737,1497.1l12.724,2.8a14.761,14.761,0,0,1,.748-2.481l-13.3-1.4A.549.549,0,0,0,1758.737,1497.1Z" fill="#625d9c"/>
      <path id="Trazado_239" data-name="Trazado 239" d="M1796.552,1601.761c-6.4,2.188-18.634,4.346-31.772,6.219v.006l5.046,44.818v.006l-60.7,184.573h37.419l58.3-175.679a15.762,15.762,0,0,0,.577-7.575Z" fill="#18988b"/>
      <path id="Trazado_240" data-name="Trazado 240" d="M1768.549,1557.453a59.717,59.717,0,0,0-3.769,17.521c1.873-.267,3.751-.541,5.612-.833h.006l2.778-2.358a3.97,3.97,0,0,0,1.392-2.615l1.3-11.715Z" fill="#18988b"/>
      <path id="Trazado_241" data-name="Trazado 241" d="M1802.947,1533.1s-23.455,9.022-25.85,39.924q-3.311.583-6.7,1.112h-.006c-1.861.292-3.739.566-5.612.833-27.655,3.934-55.651,5.253-55.651,5.253l1.374,10.329,2.152,16.178.954,7.186s27.115-2.5,51.171-5.934v-.006c13.138-1.873,25.37-4.031,31.772-6.219,18.122-6.183,22.816-11.941,25.588-36.459a36.24,36.24,0,0,0,.213-5.545C1821.55,1539.6,1802.947,1533.1,1802.947,1533.1Z" fill="#cda787" stroke="#2d2a26" stroke-miterlimit="10" stroke-width="0.608"/>
      <path id="Trazado_242" data-name="Trazado 242" d="M1800.442,1530.606s-13.593,7.2-22.123,20.877h-7.149l-.085-.042c-.9,1.89-1.757,3.9-2.536,6.012h7.32l-1.3,11.715a3.97,3.97,0,0,1-1.392,2.615l-2.778,2.358q3.383-.528,6.7-1.112c2.395-30.9,25.85-39.924,25.85-39.924A21.117,21.117,0,0,1,1800.442,1530.606Z" fill="#18988b"/>
      <path id="Trazado_243" data-name="Trazado 243" d="M1781.626,1534.382a99.229,99.229,0,0,0-10.541,17.059l.085.042h7.149c8.53-13.679,22.123-20.877,22.123-20.877a25.87,25.87,0,0,1-2.638-3.733s-7.867,6.512-15.558,6.512A8.078,8.078,0,0,1,1781.626,1534.382Z" fill="#cda787" stroke="#2d2a26" stroke-miterlimit="10" stroke-width="0.608"/>
      <path id="Trazado_244" data-name="Trazado 244" d="M1771.461,1499.9l12.451,2.742,6.116,1.349c.4-3.039,2.785-3.076,2.785-3.076-2.384-6.912-8.165-11.32-13.655-10.061-3.179.723-5.623,3.2-6.949,6.565A14.761,14.761,0,0,0,1771.461,1499.9Z" fill="#625d9c"/>
      <path id="Trazado_245" data-name="Trazado 245" d="M1787.5,1507.96a2.724,2.724,0,0,0,.14,1.344l.036.109a3.164,3.164,0,0,0,4.043,1.873l1.928-.7a18.556,18.556,0,0,0,.091-5.782l-3.709-.815-6.116-1.349s-.048,1.653,1.125,2.164C1786.125,1505.279,1787.864,1505.224,1787.5,1507.96Z" fill="#df6a2e"/>
      <path id="Trazado_246" data-name="Trazado 246" d="M1790.028,1503.99l3.709.815c-.079-.59-.189-1.192-.322-1.794a19.255,19.255,0,0,0-.6-2.1S1790.429,1500.951,1790.028,1503.99Z" fill="#df6a2e"/>
      <path id="Trazado_247" data-name="Trazado 247" d="M1791.718,1511.286a3.164,3.164,0,0,1-4.043-1.873l-.036-.109a2.724,2.724,0,0,1-.14-1.344c.365-2.736-1.374-2.681-2.462-3.155-1.173-.511-1.125-2.164-1.125-2.164l-12.451-2.742a19.037,19.037,0,0,0,.128,8.1c1.508,6.6,6.031,11.435,10.913,12.256,0,0,2.407,8.073-.256,13.132,7.691,0,15.558-6.512,15.558-6.512a37.39,37.39,0,0,1-4.11-10.742,13.966,13.966,0,0,1-.3-2.748v-.085a15.584,15.584,0,0,1,.256-2.711Z" fill="#dcc7b7"/>
      <path id="Trazado_248" data-name="Trazado 248" d="M1837.916,1606.3c-6.815-22.312-15.533-46.545-15.533-46.545h-.03a36.24,36.24,0,0,1-.213,5.545c-2.772,24.518-7.466,30.276-25.588,36.459l8.869,52.368a15.762,15.762,0,0,1-.577,7.575l-58.3,175.679h36.142l23.589-61.518,16.542-43.158,15.728-41.025a119.2,119.2,0,0,0,6.517-24.4,111.848,111.848,0,0,0,1.313-19.558c-.061-2.954-.237-5.988-.572-9.028a82.245,82.245,0,0,0-1.386-8.572C1842.974,1623.537,1840.6,1615.069,1837.916,1606.3Z" fill="#18988b"/>
      <path id="Trazado_249" data-name="Trazado 249" d="M1806.279,1775.865c-2.329,32.519,16.1,58.32,16.1,58.32l28.6-1.641c0-.006.006-.018.006-.025,1-.048,1.94-.1,2.815-.139.085,0,.17-.006.255-.013l8.3-.48s-21.558-28.178-39.541-99.18Z" fill="#18988b"/>
      <path id="Trazado_250" data-name="Trazado 250" d="M1845.066,1667.279a119.2,119.2,0,0,1-6.517,24.4l-15.728,41.025c17.983,71,39.541,99.18,39.541,99.18l38.033-2.182s-28.981-42.441-55.11-162.365Z" fill="#18988b"/>
      <path id="Trazado_251" data-name="Trazado 251" d="M1846.026,1638.426l5.144-6.28,4.766-5.824-18.014-20.02h-.006c2.681,8.767,5.058,17.235,6.505,23.819a82.245,82.245,0,0,1,1.386,8.572Z" fill="#cda787" stroke="#2d2a26" stroke-miterlimit="10" stroke-width="0.608"/>
      <path id="Trazado_252" data-name="Trazado 252" d="M1851.17,1632.146l-5.144,6.28.158.128s2.8,12.256,16.914,17.606a2.924,2.924,0,0,0,2.942-.547,2.906,2.906,0,0,0,.383-4.019l-15.241-19.436Z" fill="#dcc7b7"/>
      <path id="Trazado_253" data-name="Trazado 253" d="M1853.808,1832.38l-2.821.164c-4.043,11.837-14.384,12.913-14.384,12.913-22.865,2.4-18.542,13.721-18.542,13.721l30.318-1.52,21.923-4.9a6.108,6.108,0,0,0,4.778-6.1,89.379,89.379,0,0,0-2.353-15.223c-8.517.481-12.013.62-18.664.936C1853.978,1832.374,1853.893,1832.38,1853.808,1832.38Z" fill="#dcc7b7"/>
      <path id="Trazado_254" data-name="Trazado 254" d="M1764.78,1607.98c13.138-1.873,25.37-4.031,31.772-6.219,18.122-6.183,22.816-11.941,25.588-36.459a36.24,36.24,0,0,0,.213-5.545c-.8-20.153-19.406-26.652-19.406-26.652a21.117,21.117,0,0,1-2.505-2.5,25.87,25.87,0,0,1-2.638-3.733,37.39,37.39,0,0,1-4.11-10.742,13.966,13.966,0,0,1-.3-2.748v-.085a15.584,15.584,0,0,1,.256-2.711,18.556,18.556,0,0,0,.091-5.782c-.079-.59-.189-1.192-.322-1.794a19.255,19.255,0,0,0-.6-2.1c-2.384-6.912-8.165-11.32-13.655-10.061-3.179.723-5.623,3.2-6.949,6.565a14.761,14.761,0,0,0-.748,2.481,19.037,19.037,0,0,0,.128,8.1c1.508,6.6,6.031,11.435,10.913,12.256a8.652,8.652,0,0,0,3.35-.091,8.746,8.746,0,0,0,3.945-2.092" fill="none" stroke="#25292b" stroke-miterlimit="10" stroke-width="0.608"/>
      <path id="Trazado_255" data-name="Trazado 255" d="M1770.392,1574.141c-1.861.292-3.739.566-5.612.833-27.655,3.934-55.651,5.253-55.651,5.253l1.374,10.329,2.152,16.178.954,7.186s27.115-2.5,51.171-5.934" fill="none" stroke="#25292b" stroke-miterlimit="10" stroke-width="0.608"/>
      <path id="Trazado_256" data-name="Trazado 256" d="M1785.232,1562.882a9.827,9.827,0,0,1-8.135,10.147q-3.311.583-6.7,1.112" fill="none" stroke="#25292b" stroke-miterlimit="10" stroke-width="0.608"/>
      <path id="Trazado_257" data-name="Trazado 257" d="M1782.5,1520.253s2.407,8.073-.256,13.132a8.078,8.078,0,0,1-.62,1,99.229,99.229,0,0,0-10.541,17.059c-.9,1.89-1.757,3.9-2.536,6.012a59.717,59.717,0,0,0-3.769,17.521" fill="none" stroke="#25292b" stroke-miterlimit="10" stroke-width="0.608"/>
      <line id="Línea_15" data-name="Línea 15" x2="0.924" y2="8.232" transform="translate(1769.826 1652.81)" fill="none" stroke="#25292b" stroke-miterlimit="10" stroke-width="0.608"/>
      <path id="Trazado_258" data-name="Trazado 258" d="M1764.78,1607.98v.006l5.046,44.818" fill="none" stroke="#25292b" stroke-miterlimit="10" stroke-width="0.608"/>
      <path id="Trazado_259" data-name="Trazado 259" d="M1769.826,1652.8v.006l-60.7,184.573h73.561l23.589-61.518,16.542-43.158,15.728-41.025a119.2,119.2,0,0,0,6.517-24.4,111.848,111.848,0,0,0,1.313-19.558c-.061-2.954-.237-5.988-.572-9.028a82.245,82.245,0,0,0-1.386-8.572c-1.447-6.584-3.824-15.052-6.505-23.819-6.815-22.312-15.533-46.545-15.533-46.545" fill="none" stroke="#25292b" stroke-miterlimit="10" stroke-width="0.608"/>
      <path id="Trazado_260" data-name="Trazado 260" d="M1853.808,1832.38l-2.821.164-28.6,1.641s-18.433-25.8-16.1-58.32" fill="none" stroke="#25292b" stroke-miterlimit="10" stroke-width="0.608"/>
      <path id="Trazado_261" data-name="Trazado 261" d="M1845.285,1667.34c26.129,119.924,55.11,162.365,55.11,162.365l-38.033,2.182-8.3.48" fill="none" stroke="#25292b" stroke-miterlimit="10" stroke-width="0.608"/>
      <path id="Trazado_262" data-name="Trazado 262" d="M1802.947,1533.1s-23.455,9.022-25.85,39.924" fill="none" stroke="#25292b" stroke-miterlimit="10" stroke-width="0.608"/>
      <path id="Trazado_263" data-name="Trazado 263" d="M1800.442,1530.606s-13.593,7.2-22.123,20.877h-7.149" fill="none" stroke="#25292b" stroke-miterlimit="10" stroke-width="0.608"/>
      <path id="Trazado_264" data-name="Trazado 264" d="M1768.543,1557.453h7.326l-1.3,11.715a3.97,3.97,0,0,1-1.392,2.615l-2.778,2.358h-.006" fill="none" stroke="#25292b" stroke-miterlimit="10" stroke-width="0.608"/>
      <path id="Trazado_265" data-name="Trazado 265" d="M1796.552,1601.761l8.869,52.368a15.762,15.762,0,0,1-.577,7.575l-58.3,175.679" fill="none" stroke="#25292b" stroke-miterlimit="10" stroke-width="0.608"/>
      <path id="Trazado_266" data-name="Trazado 266" d="M1862.362,1831.887s-21.558-28.178-39.541-99.18" fill="none" stroke="#25292b" stroke-miterlimit="10" stroke-width="0.608"/>
      <path id="Trazado_267" data-name="Trazado 267" d="M1735.392,1837.383c-4.627,11.642-17.029,12.518-17.029,12.518-22.956,1.252-17.2,12.457-17.2,12.457H1757c2.28-4.931.146-24.975.146-24.975C1747.405,1837.444,1744.231,1837.383,1735.392,1837.383Z" fill="none" stroke="#25292b" stroke-miterlimit="10" stroke-width="0.608"/>
      <path id="Trazado_268" data-name="Trazado 268" d="M1850.987,1832.544c-4.043,11.837-14.384,12.913-14.384,12.913-22.865,2.4-18.542,13.721-18.542,13.721l30.318-1.52,21.923-4.9a6.108,6.108,0,0,0,4.778-6.1,89.379,89.379,0,0,0-2.353-15.223c-8.517.481-12.013.62-18.664.936-.085.007-.17.013-.255.013-.875.042-1.812.091-2.815.139C1850.993,1832.526,1850.987,1832.538,1850.987,1832.544Z" fill="none" stroke="#25292b" stroke-miterlimit="10" stroke-width="0.608"/>
      <path id="Trazado_269" data-name="Trazado 269" d="M1689.826,1607.621l.5,3.623,11.618-1.629-.079-.584" fill="none" stroke="#25292b" stroke-miterlimit="10" stroke-width="0.608"/>
      <path id="Trazado_270" data-name="Trazado 270" d="M1698.453,1588.118l.48-.067.024.17.03.231.371,3" fill="none" stroke="#25292b" stroke-miterlimit="10" stroke-width="0.608"/>
      <path id="Trazado_271" data-name="Trazado 271" d="M1687.364,1590.021l-.049-.347.474-.067" fill="none" stroke="#25292b" stroke-miterlimit="10" stroke-width="0.608"/>
      <path id="Trazado_272" data-name="Trazado 272" d="M1687.79,1589.608l-.073-.505a.788.788,0,0,1,.674-.888l9.1-1.276a.794.794,0,0,1,.894.675l.067.5Z" fill="none" stroke="#25292b" stroke-miterlimit="10" stroke-width="0.608"/>
      <path id="Trazado_273" data-name="Trazado 273" d="M1797.8,1526.873s-7.867,6.512-15.558,6.512" fill="none" stroke="#25292b" stroke-miterlimit="10" stroke-width="0.608"/>
      <path id="Trazado_274" data-name="Trazado 274" d="M1793.737,1504.805l-3.709-.815-6.116-1.349-12.451-2.742-12.724-2.8a.549.549,0,0,1,.176-1.082l13.3,1.4" fill="none" stroke="#25292b" stroke-miterlimit="10" stroke-width="0.608"/>
      <path id="Trazado_275" data-name="Trazado 275" d="M1792.813,1500.914s-2.384.037-2.785,3.076" fill="none" stroke="#25292b" stroke-miterlimit="10" stroke-width="0.608"/>
      <path id="Trazado_276" data-name="Trazado 276" d="M1783.912,1502.641s-.048,1.653,1.125,2.164c1.088.474,2.827.419,2.462,3.155a2.724,2.724,0,0,0,.14,1.344l.036.109a3.164,3.164,0,0,0,4.043,1.873l1.928-.7" fill="none" stroke="#25292b" stroke-miterlimit="10" stroke-width="0.608"/>
      <path id="Trazado_277" data-name="Trazado 277" d="M1710.5,1590.556s-3.964-2.669-11.387-2.122" fill="none" stroke="#25292b" stroke-miterlimit="10" stroke-width="0.608"/>
      <path id="Trazado_278" data-name="Trazado 278" d="M1712.649,1606.734a59.288,59.288,0,0,1-10.779,2.292c-5.7.607-9.509-.183-12.044-1.405-4.176-2.006-4.9-5.173-4.9-5.173s-.322-2.4-1.039-6.238,3.477-6.189,3.477-6.189a2.582,2.582,0,0,0,.766,1.331,2.691,2.691,0,0,0,1.38.681c3.034.511,7.423-.139,9.849-.583,1.088-.2,1.781-.365,1.781-.365" fill="none" stroke="#25292b" stroke-miterlimit="10" stroke-width="0.608"/>
      <path id="Trazado_279" data-name="Trazado 279" d="M1845.807,1638.693l.219-.267,5.143-6.28,4.766-5.824-18.014-20.02" fill="none" stroke="#25292b" stroke-miterlimit="10" stroke-width="0.608"/>
      <path id="Trazado_280" data-name="Trazado 280" d="M1846.184,1638.554s2.8,12.256,16.914,17.606a2.924,2.924,0,0,0,2.942-.547,2.906,2.906,0,0,0,.383-4.019l-15.241-19.436" fill="none" stroke="#25292b" stroke-miterlimit="10" stroke-width="0.608"/>
    </g>
  </g>
</svg>
