<svg xmlns="http://www.w3.org/2000/svg" width="240.155" height="240.155" viewBox="0 0 240.155 240.155">
  <g id="Grupo_118" data-name="Grupo 118" transform="translate(-1483.732 -512.723)">
    <g id="Grupo_117" data-name="Grupo 117">
      <path id="Trazado_917" data-name="Trazado 917" d="M1546.686,585.471V693.127a10.986,10.986,0,0,0,10.986,10.985h98.867a13.182,13.182,0,0,1-13.182-13.182V585.471a13.183,13.183,0,0,0-26.365,0Z" fill="#fafafa" stroke="#000" stroke-miterlimit="10" stroke-width="0.299"/>
      <path id="Trazado_918" data-name="Trazado 918" d="M1566.46,618.427H1614.8v4.394H1566.46Z" fill="#f5b335" stroke="#000" stroke-miterlimit="10" stroke-width="0.299"/>
      <path id="Trazado_919" data-name="Trazado 919" d="M1562.066,627.215h57.123v4.394h-57.123Z" fill="#f5b335" stroke="#000" stroke-miterlimit="10" stroke-width="0.299"/>
      <path id="Trazado_920" data-name="Trazado 920" d="M1559.869,598.654h63.714v13.182h-63.714Z" fill="#df6a2e" stroke="#000" stroke-miterlimit="10" stroke-width="0.299"/>
      <path id="Trazado_921" data-name="Trazado 921" d="M1639.617,594.849l-.02,0a21.962,21.962,0,0,0-3.175-.5c-.107-.009-.213-.017-.32-.024-.507-.035-1.018-.06-1.534-.06a21.959,21.959,0,0,0-21.524,17.543l-.005.029c-.069.343-.132.687-.185,1.035a22.211,22.211,0,0,0-.256,3.364,21.97,21.97,0,1,0,27.019-21.381Z" fill="#18988b" stroke="#000" stroke-miterlimit="10" stroke-width="0.299"/>
      <path id="Trazado_922" data-name="Trazado 922" d="M1562.066,636h58.958v4.4h-58.958Z" fill="#f5b335" stroke="#000" stroke-miterlimit="10" stroke-width="0.299"/>
      <path id="Trazado_923" data-name="Trazado 923" d="M1562.064,644.789h49.123v4.392h-49.123Z" fill="#f5b335" stroke="#000" stroke-miterlimit="10" stroke-width="0.299"/>
      <path id="Trazado_924" data-name="Trazado 924" d="M1634.568,638.2l-8.788,28.562-8.788-13.182h-17.576l22.135-19.774-.059.079A21.854,21.854,0,0,0,1634.568,638.2Z" fill="#8f4899" stroke="#000" stroke-miterlimit="10" stroke-width="0.299"/>
      <path id="Trazado_925" data-name="Trazado 925" d="M1647.645,633.885a21.857,21.857,0,0,1-13.077,4.315l8.789,28.562,8.788-13.182h17.576l-22.135-19.774Z" fill="#8f4899" stroke="#000" stroke-miterlimit="10" stroke-width="0.299"/>
      <path id="Trazado_926" data-name="Trazado 926" d="M1643.357,675.55v15.38a13.182,13.182,0,1,0,26.364,0V675.55Z" fill="#ececec" stroke="#000" stroke-miterlimit="10" stroke-width="0.299"/>
      <path id="Trazado_927" data-name="Trazado 927" d="M1630.174,572.289h-79.093a13.183,13.183,0,0,0-13.183,13.182h79.094A13.182,13.182,0,0,1,1630.174,572.289Z" fill="#ececec" stroke="#000" stroke-miterlimit="10" stroke-width="0.299"/>
      <path id="Trazado_928" data-name="Trazado 928" d="M1559.869,677.747h70.3V690.93h-70.3Z" fill="#df6a2e" stroke="#000" stroke-miterlimit="10" stroke-width="0.299"/>
      <path id="Trazado_929" data-name="Trazado 929" d="M1643.677,606.715h0c-.01-.011-.022-.019-.032-.029-.285-.271-.58-.531-.889-.776-.054-.043-.112-.082-.167-.125-.273-.21-.55-.413-.84-.6-.082-.054-.167-.1-.25-.152-.271-.168-.544-.331-.827-.48-.1-.052-.2-.1-.306-.147-.273-.134-.546-.266-.829-.381-.12-.049-.243-.088-.364-.133-.27-.1-.54-.2-.818-.285-.153-.046-.309-.079-.463-.119-.252-.066-.5-.135-.76-.186-.222-.044-.448-.07-.673-.1-.195-.029-.388-.066-.587-.085a12.832,12.832,0,0,0-1.3-.066,13.166,13.166,0,0,0-10.448,21.2l.011.014a13.256,13.256,0,0,0,1.491,1.632l.2.179a13.166,13.166,0,0,0,1.077.864c.02.014.039.031.06.045h0a13.171,13.171,0,0,0,16.721-20.265Z" fill="#f9b5c3" stroke="#000" stroke-miterlimit="10" stroke-width="0.299"/>
    </g>
    <circle id="Elipse_21" data-name="Elipse 21" cx="117.091" cy="117.091" r="117.091" transform="translate(1486.719 515.71)" fill="none" stroke="#f5b335" stroke-miterlimit="10" stroke-width="5.973"/>
  </g>
</svg>
