<svg xmlns="http://www.w3.org/2000/svg" width="239.854" height="239.854" viewBox="0 0 239.854 239.854">
  <g id="Grupo_167" data-name="Grupo 167" transform="translate(-1063.972 -531.288)">
    <g id="Grupo_155" data-name="Grupo 155" transform="translate(-8.17 15.221)">
      <g id="Grupo_154" data-name="Grupo 154">
        <path id="Trazado_1007" data-name="Trazado 1007" d="M1192.068,699.628h26.5a31.991,31.991,0,0,1-9.938-22.082h-33.124a31.992,31.992,0,0,1-9.937,22.082Z" fill="#df6a2e" stroke="#000" stroke-miterlimit="10" stroke-width="0.298"/>
        <path id="Trazado_1008" data-name="Trazado 1008" d="M1254.452,677.546H1129.684a5.52,5.52,0,0,1-5.52-5.521V583.693a5.52,5.52,0,0,1,5.52-5.52h124.768a5.52,5.52,0,0,1,5.521,5.52v88.332A5.521,5.521,0,0,1,1254.452,677.546Z" fill="#18988b" stroke="#000" stroke-miterlimit="10" stroke-width="0.298"/>
        <path id="Trazado_1009" data-name="Trazado 1009" d="M1133,657.7V589.738a2.732,2.732,0,0,1,2.732-2.732h112.679a2.732,2.732,0,0,1,2.732,2.732V657.7a2.732,2.732,0,0,1-2.732,2.732H1135.729A2.732,2.732,0,0,1,1133,657.7Z" fill="#ecf4ff" stroke="#000" stroke-miterlimit="10" stroke-width="0.298"/>
        <path id="Trazado_1010" data-name="Trazado 1010" d="M1156.184,706.8v-5.52a1.656,1.656,0,0,1,1.656-1.657H1226.3a1.657,1.657,0,0,1,1.656,1.657v5.52a1.657,1.657,0,0,1-1.656,1.657H1157.84a1.656,1.656,0,0,1-1.656-1.657Z" fill="#18988b" stroke="#000" stroke-miterlimit="10" stroke-width="0.298"/>
        <g id="Grupo_143" data-name="Grupo 143">
          <path id="Trazado_1011" data-name="Trazado 1011" d="M1154.528,596.274h-12.7a2.049,2.049,0,0,0-2.049,2.049v11.042a2.049,2.049,0,0,0,2.049,2.049h12.7a2.049,2.049,0,0,0,2.049-2.049V598.323A2.049,2.049,0,0,0,1154.528,596.274Z" fill="#f9b5c3" stroke="#000" stroke-miterlimit="10" stroke-width="0.298"/>
          <path id="Trazado_1012" data-name="Trazado 1012" d="M1154.528,616.148h-12.7a2.049,2.049,0,0,0-2.049,2.05v11.041a2.049,2.049,0,0,0,2.049,2.049h12.7a2.049,2.049,0,0,0,2.049-2.049V618.2a2.05,2.05,0,0,0-2.049-2.05Z" fill="#f9b5c3" stroke="#000" stroke-miterlimit="10" stroke-width="0.298"/>
          <path id="Trazado_1013" data-name="Trazado 1013" d="M1154.528,636.023h-12.7a2.049,2.049,0,0,0-2.049,2.049v11.042a2.049,2.049,0,0,0,2.049,2.049h12.7a2.049,2.049,0,0,0,2.049-2.049V638.072A2.049,2.049,0,0,0,1154.528,636.023Z" fill="#f9b5c3" stroke="#000" stroke-miterlimit="10" stroke-width="0.298"/>
        </g>
        <g id="Grupo_153" data-name="Grupo 153">
          <g id="Grupo_144" data-name="Grupo 144">
            <path id="Trazado_1014" data-name="Trazado 1014" d="M1199.8,611.414h-34.228a2.049,2.049,0,0,1,0-4.1H1199.8a2.049,2.049,0,1,1,0,4.1Z" fill="#8f4899" stroke="#000" stroke-miterlimit="10" stroke-width="0.298"/>
          </g>
          <g id="Grupo_145" data-name="Grupo 145">
            <path id="Trazado_1015" data-name="Trazado 1015" d="M1209.735,600.373h-28.156a2.049,2.049,0,0,1,0-4.1h28.156a2.049,2.049,0,0,1,0,4.1Z" fill="#8f4899" stroke="#000" stroke-miterlimit="10" stroke-width="0.298"/>
          </g>
          <g id="Grupo_146" data-name="Grupo 146">
            <path id="Trazado_1016" data-name="Trazado 1016" d="M1171.918,600.373h-6.349a2.049,2.049,0,1,1,0-4.1h6.349a2.049,2.049,0,0,1,0,4.1Z" fill="#8f4899" stroke="#000" stroke-miterlimit="10" stroke-width="0.298"/>
          </g>
          <g id="Grupo_147" data-name="Grupo 147">
            <path id="Trazado_1017" data-name="Trazado 1017" d="M1199.8,631.289h-34.228a2.049,2.049,0,0,1,0-4.1H1199.8a2.049,2.049,0,1,1,0,4.1Z" fill="#8f4899" stroke="#000" stroke-miterlimit="10" stroke-width="0.298"/>
          </g>
          <g id="Grupo_148" data-name="Grupo 148">
            <path id="Trazado_1018" data-name="Trazado 1018" d="M1209.735,620.247h-28.156a2.049,2.049,0,0,1,0-4.1h28.156a2.049,2.049,0,0,1,0,4.1Z" fill="#8f4899" stroke="#000" stroke-miterlimit="10" stroke-width="0.298"/>
          </g>
          <g id="Grupo_149" data-name="Grupo 149">
            <path id="Trazado_1019" data-name="Trazado 1019" d="M1171.918,620.247h-6.349a2.049,2.049,0,1,1,0-4.1h6.349a2.049,2.049,0,0,1,0,4.1Z" fill="#8f4899" stroke="#000" stroke-miterlimit="10" stroke-width="0.298"/>
          </g>
          <g id="Grupo_150" data-name="Grupo 150">
            <path id="Trazado_1020" data-name="Trazado 1020" d="M1199.8,651.163h-34.228a2.049,2.049,0,0,1,0-4.1H1199.8a2.049,2.049,0,1,1,0,4.1Z" fill="#8f4899" stroke="#000" stroke-miterlimit="10" stroke-width="0.298"/>
          </g>
          <g id="Grupo_151" data-name="Grupo 151">
            <path id="Trazado_1021" data-name="Trazado 1021" d="M1209.735,640.122h-28.156a2.049,2.049,0,0,1,0-4.1h28.156a2.049,2.049,0,0,1,0,4.1Z" fill="#8f4899" stroke="#000" stroke-miterlimit="10" stroke-width="0.298"/>
          </g>
          <g id="Grupo_152" data-name="Grupo 152">
            <path id="Trazado_1022" data-name="Trazado 1022" d="M1171.918,640.122h-6.349a2.049,2.049,0,1,1,0-4.1h6.349a2.049,2.049,0,0,1,0,4.1Z" fill="#8f4899" stroke="#000" stroke-miterlimit="10" stroke-width="0.298"/>
          </g>
        </g>
        <path id="Trazado_1023" data-name="Trazado 1023" d="M1242.9,630.533l-23.739-7.121a2.05,2.05,0,0,0-2.552,2.552l7.122,23.739a2.047,2.047,0,0,0,1.871,1.458c.031,0,.061,0,.092,0a2.049,2.049,0,0,0,1.9-1.288l4.422-11.054,11.054-4.422a2.05,2.05,0,0,0-.172-3.866Z" fill="#f5b335" stroke="#000" stroke-miterlimit="10" stroke-width="0.298"/>
      </g>
      <circle id="Elipse_34" data-name="Elipse 34" cx="116.944" cy="116.944" r="116.944" transform="translate(1075.124 519.049)" fill="none" stroke="#df6a2e" stroke-miterlimit="10" stroke-width="5.966"/>
    </g>
  </g>
</svg>
