<svg xmlns="http://www.w3.org/2000/svg" width="240.498" height="240.498" viewBox="0 0 240.498 240.498">
  <g id="Grupo_102" data-name="Grupo 102" transform="translate(-640.892 -529.009)">
    <g id="Grupo_85" data-name="Grupo 85" transform="translate(-3.725 35.165)">
      <g id="Grupo_84" data-name="Grupo 84">
        <path id="Trazado_791" data-name="Trazado 791" d="M713.349,661.863h13.689v19.815l2.155,2.583h71.346l2.312-1.722V662.533H815.2l2.63-1.991v-13.52c0-7.932-5.078-14.865-11.211-17.389l-19.237-7.45h0l-3.1.745-5.72,2.8H750.275l-4.882-3.588H742.3l-19.185,7.493a19.2,19.2,0,0,0-11.21,17.389v13.52Z" fill="#18988b" stroke="#000" stroke-miterlimit="10" stroke-width="0.299"/>
        <g id="Grupo_82" data-name="Grupo 82">
          <path id="Trazado_792" data-name="Trazado 792" d="M776.813,617.807h0Z" fill="#dcc7b7" stroke="#000" stroke-miterlimit="10" stroke-width="0.299"/>
          <path id="Trazado_793" data-name="Trazado 793" d="M776.813,617.807a2.068,2.068,0,0,1-.485-1.319l-.006-6.813-1.279-.555H754.19l-.8.524h0v6.831a1.9,1.9,0,0,1-.48,1.326h0v.939h0l7.343,6.078-.431,1.436h0l.31.819H769.6l.611-1.106-.479-1.579,7.083-5.552Z" fill="#dcc7b7" stroke="#000" stroke-miterlimit="10" stroke-width="0.299"/>
        </g>
        <path id="Trazado_794" data-name="Trazado 794" d="M760.93,627.073h7.865v57.189H760.93Z" fill="#f9b5c3" stroke="#000" stroke-miterlimit="10" stroke-width="0.299"/>
        <g id="Grupo_83" data-name="Grupo 83">
          <path id="Trazado_795" data-name="Trazado 795" d="M772.607,631.528a2.036,2.036,0,0,0,2.988.429l11.786-9.774-9.728-3.767a2.069,2.069,0,0,1-.84-.609L769.6,623.79a2.036,2.036,0,0,0-.388,2.708Z" fill="#f9b5c3" stroke="#000" stroke-miterlimit="10" stroke-width="0.299"/>
          <path id="Trazado_796" data-name="Trazado 796" d="M754.137,631.957a2.036,2.036,0,0,0,2.988-.429l3.4-5.03a2.038,2.038,0,0,0-.388-2.708l-7.223-5.989a2.188,2.188,0,0,1-.4.352L742.3,622.14Z" fill="#f9b5c3" stroke="#000" stroke-miterlimit="10" stroke-width="0.299"/>
        </g>
        <path id="Trazado_797" data-name="Trazado 797" d="M795.4,559.735c-3.942-5.107-7.9-7.149-10-7.928a.358.358,0,0,1,.069-.691l2.916-.439a.359.359,0,0,0,.238-.566c-2.875-3.9-10.869-8.25-20.69-8.572-16.442,0-22.524,8.352-23.4,12.475a1.986,1.986,0,0,1-1.868,1.541c-3.581.176-10.606,2.871-4.411,22.88l1.035.915h6.229v-4.212l6.073-3.35.628-4.978h24.6l2.49,6.27,4.02,1.388v3.967H791a20.394,20.394,0,0,1,4.373-12.768,4.829,4.829,0,0,0,.023-5.932Z" fill="#625d9c" stroke="#000" stroke-miterlimit="10" stroke-width="0.299"/>
        <path id="Trazado_798" data-name="Trazado 798" d="M802.547,660.542a2.008,2.008,0,0,0-2.008,2.008v21.711h13.554a3.736,3.736,0,0,0,3.736-3.736V660.542Z" fill="#dcc7b7" stroke="#000" stroke-miterlimit="10" stroke-width="0.299"/>
        <path id="Trazado_799" data-name="Trazado 799" d="M795.161,585.184a7.883,7.883,0,0,0-4.308-6.825v-.006c-.026-.014-.052-.026-.078-.039-.109-.058-.22-.112-.331-.166-.127-.061-.255-.12-.385-.175-.112-.048-.224-.1-.337-.138-.15-.057-.3-.108-.456-.157-.095-.031-.189-.065-.286-.092q-.361-.1-.731-.175c-.087-.017-.175-.027-.262-.041-.178-.03-.356-.055-.536-.072-.1-.01-.194-.017-.292-.023-.182-.012-.364-.017-.546-.016-.087,0-.172,0-.259,0-.266.009-.533.027-.8.062v-2.628a1.937,1.937,0,0,0-1.937-1.937,3.882,3.882,0,0,1-3.882-3.882,4.331,4.331,0,0,0-3.236-4.194,46.6,46.6,0,0,0-20.424-.65v-.011c-.072.013-.142.034-.213.048-.044.008-.088.013-.131.022v.007c-.871.173-1.738.361-2.6.584a4.331,4.331,0,0,0-3.236,4.194,3.882,3.882,0,0,1-3.882,3.882,1.937,1.937,0,0,0-1.937,1.937v2.622a8.085,8.085,0,0,0-9.6,7.868h0a8.087,8.087,0,0,0,9.618,7.867l.005-.007a20.3,20.3,0,0,0,12.354,18.249,21.489,21.489,0,0,0,13.406,1.1l.034.013c.172-.043.337-.1.508-.148.137-.038.282-.064.416-.1l-.028-.009a19.865,19.865,0,0,0,2.4-.855,20.3,20.3,0,0,0,12.354-18.249l.006.006h0c.3.046.6.072.894.089.088.005.174.007.261.009.218.007.433.005.645,0,.083,0,.165-.005.246-.01.275-.019.545-.048.809-.092.065-.011.128-.027.192-.039.2-.038.4-.082.6-.134.1-.026.194-.054.29-.083.169-.051.335-.109.5-.17.086-.032.173-.061.258-.1.211-.088.417-.182.618-.285v0A7.9,7.9,0,0,0,795.161,585.184Z" fill="#dcc7b7" stroke="#000" stroke-miterlimit="10" stroke-width="0.299"/>
        <path id="Trazado_800" data-name="Trazado 800" d="M727.185,660.542H711.9v19.984a3.736,3.736,0,0,0,3.736,3.736h13.554V662.55A2.008,2.008,0,0,0,727.185,660.542Z" fill="#dcc7b7" stroke="#000" stroke-miterlimit="10" stroke-width="0.299"/>
      </g>
      <circle id="Elipse_14" data-name="Elipse 14" cx="117.258" cy="117.258" r="117.258" transform="translate(647.608 496.835)" fill="none" stroke="#625d9c" stroke-miterlimit="10" stroke-width="5.982"/>
    </g>
  </g>
</svg>
