<svg xmlns="http://www.w3.org/2000/svg" width="240.155" height="240.155" viewBox="0 0 240.155 240.155">
  <g id="Grupo_126" data-name="Grupo 126" transform="translate(-1067.398 -512.723)">
    <circle id="Elipse_30" data-name="Elipse 30" cx="117.091" cy="117.091" r="117.091" transform="translate(1070.385 515.71)" fill="none" stroke="#f5b335" stroke-miterlimit="10" stroke-width="5.973"/>
    <g id="Grupo_125" data-name="Grupo 125">
      <path id="Trazado_941" data-name="Trazado 941" d="M1222.588,600.371h-92.935a10.458,10.458,0,0,0-10.458,10.458v5.025l4.03,6.575-4.03,7.638v38.774a10.458,10.458,0,0,0,10.458,10.458h104a10.458,10.458,0,0,0,10.458-10.458V630.067Z" fill="#18988b" stroke="#000" stroke-miterlimit="10" stroke-width="0.299"/>
      <path id="Trazado_942" data-name="Trazado 942" d="M1232.324,619.083v26.945a27.377,27.377,0,0,1-27.377,27.377h-84.706a10.458,10.458,0,0,0,9.412,5.894h104a10.459,10.459,0,0,0,10.458-10.458V630.067Z" fill="#625d9c" stroke="#000" stroke-miterlimit="10" stroke-width="0.299"/>
      <path id="Trazado_943" data-name="Trazado 943" d="M1119.195,615.854h124.916v14.213H1119.195Z" fill="#8f4899" stroke="#000" stroke-miterlimit="10" stroke-width="0.299"/>
      <g id="Grupo_124" data-name="Grupo 124">
        <path id="Trazado_944" data-name="Trazado 944" d="M1178.812,657.818h-9.095a2.21,2.21,0,1,1,0-4.42h9.095a2.21,2.21,0,0,1,0,4.42Z" fill="#f5b335" stroke="#000" stroke-miterlimit="10" stroke-width="0.299"/>
        <path id="Trazado_945" data-name="Trazado 945" d="M1195.468,657.818h-9.095a2.21,2.21,0,0,1,0-4.42h9.095a2.21,2.21,0,0,1,0,4.42Z" fill="#f5b335" stroke="#000" stroke-miterlimit="10" stroke-width="0.299"/>
        <path id="Trazado_946" data-name="Trazado 946" d="M1212.124,657.818h-9.094a2.21,2.21,0,1,1,0-4.42h9.094a2.21,2.21,0,0,1,0,4.42Z" fill="#f5b335" stroke="#000" stroke-miterlimit="10" stroke-width="0.299"/>
      </g>
      <circle id="Elipse_31" data-name="Elipse 31" cx="21.533" cy="21.533" r="21.533" transform="translate(1222.577 579.526)" fill="#df6a2e" stroke="#000" stroke-miterlimit="10" stroke-width="0.299"/>
      <path id="Trazado_947" data-name="Trazado 947" d="M1251.706,591.648l-10.565,10.565a.6.6,0,0,1-.854,0l-3.772-3.772a.605.605,0,0,0-.854,0l-4.787,4.787a.6.6,0,0,0,0,.854l9.413,9.413a.6.6,0,0,0,.853,0l16.207-16.207a.6.6,0,0,0,0-.853l-4.787-4.788a.6.6,0,0,0-.854,0Z" fill="#f6f9f9" stroke="#000" stroke-miterlimit="10" stroke-width="0.299"/>
    </g>
    <path id="Trazado_948" data-name="Trazado 948" d="M1253.731,592.819a21.92,21.92,0,0,1,.126,2.347,21.515,21.515,0,0,1-1.051,6.663l4.541-4.54a.605.605,0,0,0,0-.854Z" fill="#e7ecf1"/>
  </g>
</svg>
