<svg xmlns="http://www.w3.org/2000/svg" width="303.152" height="522.007" viewBox="0 0 303.152 522.007">
  <g id="Grupo_171" data-name="Grupo 171" transform="translate(-1537.088 -2284.086)">
    <g id="Grupo_169" data-name="Grupo 169">
      <path id="Trazado_1062" data-name="Trazado 1062" d="M1618.3,2786.5c-31.8,1.732-23.823,17.257-23.823,17.257h77.352c3.158-6.832.2-34.6.2-34.6-13.5.088-17.893,0-30.14,0C1635.476,2785.284,1618.3,2786.5,1618.3,2786.5Z" fill="#221e20"/>
      <path id="Trazado_1063" data-name="Trazado 1063" d="M1770.579,2786.67c-31.671,3.327-25.685,19.006-25.685,19.006l42-2.1,30.365-6.792a8.455,8.455,0,0,0,6.623-8.451,133,133,0,0,0-2.812-20.448h-30.7C1784.678,2783.931,1770.579,2786.67,1770.579,2786.67Z" fill="#221e20" stroke="#2d2d2e" stroke-miterlimit="10" stroke-width="0.806"/>
      <path id="Trazado_1064" data-name="Trazado 1064" d="M1737.933,2333.32a40.558,40.558,0,0,1-1.522,8.854c11.915,3.029,20.7-.862,20.7-.862l.153-.04a51.219,51.219,0,0,1-1.031-16.42c-3.07,5.656-8.049,9.33-13.672,9.33A12.839,12.839,0,0,1,1737.933,2333.32Z" fill="#dcc7b7"/>
      <path id="Trazado_1065" data-name="Trazado 1065" d="M1647.005,2538.371a3.5,3.5,0,0,0-.435-3.263c-1.49-1.555-7.073-5.575-10.707-8.129a6.862,6.862,0,0,0-9.515,1.5,15.926,15.926,0,0,0-1.49,2.546s-1.136,3.867-3.449,3.1c-.137.346-.274.677-.411.983a30.728,30.728,0,0,0,13.536,10.949c3.432,1.394,6.824.217,9.716-1.773,0,0,.6-.9,1.265-2.167A16.827,16.827,0,0,0,1647.005,2538.371Z" fill="#dcc7b7"/>
      <path id="Trazado_1066" data-name="Trazado 1066" d="M1622.755,2530.322h.008l2.1.7a15.926,15.926,0,0,1,1.49-2.546,6.862,6.862,0,0,1,9.515-1.5c3.634,2.554,9.217,6.574,10.707,8.129a3.5,3.5,0,0,1,.435,3.263,6.492,6.492,0,0,1,2.208,1.385,35.293,35.293,0,0,0,3.11-4.092l.008-.008L1638,2515.28l-.008.008s-17.749,2.256-19.441,9.58c-.322,1.394-.612,2.65-.854,3.778a35.793,35.793,0,0,0-.685,4.021c-.217,2.312.161,3.746,1.539,4.64.878.572,1.692-.515,2.449-2.2.137-.306.274-.637.411-.983C1621.885,2532.932,1622.328,2531.571,1622.755,2530.322Z" fill="#dcc7b7"/>
      <path id="Trazado_1067" data-name="Trazado 1067" d="M1621.409,2534.125c2.313.765,3.449-3.1,3.449-3.1l-2.1-.7h-.008C1622.328,2531.571,1621.885,2532.932,1621.409,2534.125Z" fill="#221e20"/>
      <path id="Trazado_1068" data-name="Trazado 1068" d="M1646.369,2542.633a2.494,2.494,0,0,1,.717,2.675l-3.263,9.845,3.827,1.265,3.263-9.837a6.6,6.6,0,0,0-1.7-6.825,6.492,6.492,0,0,0-2.208-1.385,16.827,16.827,0,0,1-1.49,3.746A2.316,2.316,0,0,1,1646.369,2542.633Z" fill="#221e20"/>
      <path id="Trazado_1069" data-name="Trazado 1069" d="M1609.131,2532.731l-3.263,9.845,3.827,1.265,3.263-9.845a2.542,2.542,0,0,1,3.214-1.611l.838.282a35.793,35.793,0,0,1,.685-4.021l-.258-.088A6.586,6.586,0,0,0,1609.131,2532.731Z" fill="#221e20"/>
      <path id="Trazado_1070" data-name="Trazado 1070" d="M1561.008,2527.7l-23.389,70.569,121.269,40.187,21.93-71.044-33.169-11-3.827-1.265-34.128-11.312-3.827-1.265Z" fill="#221e20"/>
      <path id="Trazado_1071" data-name="Trazado 1071" d="M1633.438,2508.8l4.56,6.477,14.333,20.376,3.368,4.793,40.009-21.269h-18.587l.2-.822c.032-.145.072-.314.121-.5l.08-.338c.057-.242.121-.508.194-.8,1.409-5.833,5.18-21.438,9.627-39.751Z" fill="#3d4543"/>
      <path id="Trazado_1072" data-name="Trazado 1072" d="M1726.436,2352.5a4.277,4.277,0,0,0,.073,1.523l2.159,1.853c1.764-2.361,2.892-3.8,2.892-3.8.339-.419.653-.846.951-1.281v-.008c-.951-.169-1.909-.371-2.876-.6l2.763-4.714a33.985,33.985,0,0,0-4.874,3.964A6.868,6.868,0,0,0,1726.436,2352.5Z" fill="#f5b335"/>
      <path id="Trazado_1073" data-name="Trazado 1073" d="M1701.058,2417.5v.008c.29-.1.572-.2.854-.306,3.472-14.139,6.171-24.992,7.074-28.295,2.554-9.346,14.187-25.669,19.682-33.032l-2.159-1.853s-16.283,23.332-18.555,29.068C1703.966,2393.173,1701.219,2416.86,1701.058,2417.5Z" fill="#f5b335"/>
      <path id="Trazado_1074" data-name="Trazado 1074" d="M1581.577,2377.35c-4.149,4.141-13.132,13.06-12.826,16.709s5.6,10.99,15.565,13.938a52.539,52.539,0,0,1,9.12,3.908,53.992,53.992,0,0,1,4.52-7.324,5.138,5.138,0,0,1,4.568-6.389c2.224-3.537,3.916-4.866,4.448-5.22a21.987,21.987,0,0,1-5.89-6.865c-2.022-3.7-5.164-7.936-7-9.063C1589.424,2374.175,1585.734,2373.2,1581.577,2377.35Z" fill="#dcc7b7"/>
      <path id="Trazado_1075" data-name="Trazado 1075" d="M1593.436,2411.905c.726.379,1.443.757,2.144,1.152,1.16.644,2.3,1.305,3.375,1.95a49.117,49.117,0,0,1,3.98-6.776,4.67,4.67,0,0,1-2.046-.306,4.788,4.788,0,0,1-2.933-3.344A53.992,53.992,0,0,0,1593.436,2411.905Z" fill="#cda787"/>
      <path id="Trazado_1076" data-name="Trazado 1076" d="M1602.935,2408.231a49.117,49.117,0,0,0-3.98,6.776c5.4,3.23,9.564,6.244,9.564,6.244l.008.008,11.432-19.522-7.67-5.148s-1.184.5-4.818,5.366a5.114,5.114,0,0,1-.209,3.013,5.027,5.027,0,0,1-4.319,3.263Z" fill="#dcc7b7"/>
      <path id="Trazado_1077" data-name="Trazado 1077" d="M1602.524,2398.192a4.632,4.632,0,0,1,1.99.315,4.779,4.779,0,0,1,2.957,3.448c3.634-4.866,4.818-5.366,4.818-5.366l-3.142-2.111-1.12-.749c-.354-.25-.709-.5-1.055-.757C1606.44,2393.326,1604.748,2394.655,1602.524,2398.192Z" fill="#cda787"/>
      <path id="Trazado_1078" data-name="Trazado 1078" d="M1691.631,2459.294a38.931,38.931,0,0,0,10.837.315c19.392-2.885,59.273-33.782,74.307-60.385,3.738-6.6,5.937-12.939,5.913-18.523-.072-14.695-13.769-17.749-21.116-29.012-.315-.483-.621-.983-.9-1.482a70.238,70.238,0,0,1-28.166.572v.008c-.3.435-.612.862-.951,1.281,0,0-1.128,1.442-2.892,3.8-5.495,7.363-17.128,23.686-19.682,33.032-.9,3.3-3.6,14.156-7.074,28.295-.282.1-.564.21-.854.306a35.2,35.2,0,0,1-23.945-.306l-54.06-20.295-18.023,30.334S1661.467,2454.96,1691.631,2459.294Z" fill="#3d4543"/>
      <path id="Trazado_1079" data-name="Trazado 1079" d="M1658.889,2638.459l-40.34,140.312h66.742s23.574-61.574,47.123-113.7v-.008l46.633-104.205c5.905-14.687,5.075-41.629,5.075-41.629l-88.414-.048-14.889,48.235Z" fill="#3d4543"/>
      <path id="Trazado_1080" data-name="Trazado 1080" d="M1677.323,2518.358l-.2.822h118.828l-19.174-119.956c-15.034,26.6-54.915,57.5-74.307,60.385a38.931,38.931,0,0,1-10.837-.315c-1.458,6.019-2.908,11.981-4.286,17.677l.1-.065-9.732,39.816-.194.8-.08.338Z" fill="#3d4543"/>
      <path id="Trazado_1081" data-name="Trazado 1081" d="M1727.4,2284.641s-5.18,8.919,0,12.577a6.84,6.84,0,0,0,1.628.822c5.4,1.074,8.468,1.751,13.986,1.316,11.87-.935,8.585-2.3,12.423,8.8.121.435,4.005,1.273,3.964,1.853.033.515.049,1.039.049,1.563a20.3,20.3,0,0,0-2.184,8.387h1.322c11.384-14.381-.307-35.095-6.277-35.288C1744.628,2284.416,1727.4,2284.641,1727.4,2284.641Z" fill="#221e20"/>
      <path id="Trazado_1082" data-name="Trazado 1082" d="M1737.933,2333.32a12.839,12.839,0,0,0,4.625.862c5.623,0,10.6-3.674,13.672-9.33a25.15,25.15,0,0,0,2.014-4.89h-.975s.073-4.327.75-5.406a10.808,10.808,0,0,0,1.385-4.544c-.016-.524-.056-1.039-.112-1.555a1.33,1.33,0,0,0-.758-.975,1.643,1.643,0,0,0-2.32.717.417.417,0,0,1-.774-.04c-.926-2.683-3.126-9.37-3.126-9.37s-14.574,1.547-21.962-.347a12.534,12.534,0,0,1-1.321-.4,27.743,27.743,0,0,0-3.368,13.535C1725.663,2321.912,1730.851,2330.629,1737.933,2333.32Z" fill="#dcc7b7"/>
      <path id="Trazado_1083" data-name="Trazado 1083" d="M1821.07,2775.392h18.547c-27.893-69.433-48.083-145.1-60.57-214.535-2.844,7.082-24.726,55.712-46.633,104.205v.008c3.674,31.76,18.426,73.454,37.351,110.322h20.609c.049-.121,5.328.128,5.368,0l25.208.008c.113,0,.234-.008.346-.017" fill="#3d4543"/>
    </g>
    <g id="Grupo_170" data-name="Grupo 170">
      <path id="Trazado_1084" data-name="Trazado 1084" d="M1635.707,2778.771a31.63,31.63,0,0,1-17.408,7.73c-31.8,1.732-23.823,17.257-23.823,17.257h77.352c1.938-4.192,1.723-16.275,1.268-24.987" fill="none" stroke="#2d2d2e" stroke-miterlimit="10" stroke-width="0.806"/>
      <path id="Trazado_1085" data-name="Trazado 1085" d="M1736.411,2342.182v-.008a40.558,40.558,0,0,0,1.522-8.854" fill="none" stroke="#2d2d2e" stroke-miterlimit="10" stroke-width="0.842"/>
      <path id="Trazado_1086" data-name="Trazado 1086" d="M1701.912,2417.2c3.472-14.139,6.171-24.992,7.074-28.295,2.554-9.346,14.187-25.669,19.682-33.032,1.764-2.361,2.892-3.8,2.892-3.8.339-.419.653-.846.951-1.281" fill="none" stroke="#2d2d2e" stroke-miterlimit="10" stroke-width="0.842"/>
      <path id="Trazado_1087" data-name="Trazado 1087" d="M1677.524,2517.52c.057-.242.121-.508.194-.8,1.409-5.833,5.18-21.438,9.627-39.751,1.378-5.7,2.828-11.658,4.286-17.677v-.008" fill="none" stroke="#2d2d2e" stroke-miterlimit="10" stroke-width="0.842"/>
      <path id="Trazado_1088" data-name="Trazado 1088" d="M1677.323,2518.358c.032-.145.072-.314.121-.5" fill="none" stroke="#2d2d2e" stroke-miterlimit="10" stroke-width="0.842"/>
      <path id="Trazado_1089" data-name="Trazado 1089" d="M1776.775,2399.224l19.175,119.956H1695.708" fill="none" stroke="#2d2d2e" stroke-miterlimit="10" stroke-width="0.842"/>
      <path id="Trazado_1090" data-name="Trazado 1090" d="M1759.4,2310.012c-.016-.524-.056-1.039-.112-1.555" fill="none" stroke="#2d2d2e" stroke-miterlimit="10" stroke-width="0.842"/>
      <path id="Trazado_1091" data-name="Trazado 1091" d="M1729.031,2298.04a27.743,27.743,0,0,0-3.368,13.535c0,10.337,5.188,19.054,12.27,21.745a12.839,12.839,0,0,0,4.625.862c5.623,0,10.6-3.674,13.672-9.33a25.15,25.15,0,0,0,2.014-4.89" fill="none" stroke="#2d2d2e" stroke-miterlimit="10" stroke-width="0.842"/>
      <path id="Trazado_1092" data-name="Trazado 1092" d="M1754.466,2369.333s-7.9,1.128-16.533,15.018c-4.471,7.2-15.436,17.717-24.967,26.184a35.452,35.452,0,0,1-11.054,6.663c-.282.1-.564.21-.854.306a35.2,35.2,0,0,1-23.945-.306l-54.06-20.295-18.023,30.334s56.437,27.723,86.6,32.057a38.931,38.931,0,0,0,10.837.315c19.392-2.885,59.273-33.782,74.307-60.385,3.738-6.6,5.937-12.939,5.913-18.523-.072-14.695-13.769-17.749-21.116-29.012-.315-.483-.621-.983-.9-1.482a34.024,34.024,0,0,1-3.416-8.935,51.219,51.219,0,0,1-1.031-16.42" fill="none" stroke="#2d2d2e" stroke-miterlimit="10" stroke-width="0.842"/>
      <path id="Trazado_1093" data-name="Trazado 1093" d="M1635.389,2778.771h-16.84l40.34-140.312,21.93-71.044,14.889-48.235,88.414.048s.83,26.942-5.075,41.629c-2.844,7.082-24.726,55.712-46.633,104.205" fill="none" stroke="#2d2d2e" stroke-miterlimit="10" stroke-width="0.842"/>
      <path id="Trazado_1094" data-name="Trazado 1094" d="M1673.1,2778.771h-37.707" fill="none" stroke="#2d2d2e" stroke-miterlimit="10" stroke-width="0.842"/>
      <path id="Trazado_1095" data-name="Trazado 1095" d="M1732.414,2665.07c-23.549,52.127-47.123,113.7-47.123,113.7h-12.2" fill="none" stroke="#2d2d2e" stroke-miterlimit="10" stroke-width="0.842"/>
      <path id="Trazado_1096" data-name="Trazado 1096" d="M1779.047,2560.857c12.487,69.433,32.677,145.1,60.57,214.535h-69.852c-18.925-36.868-33.677-78.562-37.351-110.322v-.008Z" fill="none" stroke="#2d2d2e" stroke-miterlimit="10" stroke-width="0.842"/>
      <path id="Trazado_1097" data-name="Trazado 1097" d="M1677.718,2516.722l9.732-39.816-.1.064-53.907,31.832,4.56,6.478,14.333,20.375,3.368,4.794,40.01-21.27h-18.587l.2-.822.121-.5.081-.338Z" fill="none" stroke="#2d2d2e" stroke-miterlimit="10" stroke-width="0.842"/>
      <path id="Trazado_1098" data-name="Trazado 1098" d="M1729.031,2298.04a6.84,6.84,0,0,1-1.628-.822c-5.18-3.658,0-12.577,0-12.577s17.225-.225,24.911.033c5.97.193,17.661,20.907,6.277,35.288h-1.322s.073-4.327.75-5.406a10.808,10.808,0,0,0,1.385-4.544,4.753,4.753,0,0,0-.112-1.555,1.33,1.33,0,0,0-.758-.975,1.643,1.643,0,0,0-2.32.717.417.417,0,0,1-.774-.04c-.926-2.683-3.126-9.37-3.126-9.37s-14.574,1.547-21.962-.347A12.534,12.534,0,0,1,1729.031,2298.04Z" fill="none" stroke="#2d2d2e" stroke-miterlimit="10" stroke-width="0.905"/>
      <path id="Trazado_1099" data-name="Trazado 1099" d="M1732.4,2345.469l-2.763,4.714c.967.225,1.925.427,2.876.6a70.238,70.238,0,0,0,28.166-.572l.113-.024" fill="none" stroke="#2d2d2e" stroke-miterlimit="10" stroke-width="0.842"/>
      <path id="Trazado_1100" data-name="Trazado 1100" d="M1757.108,2341.312s-8.782,3.891-20.7.862c-.589-.145-1.185-.306-1.789-.491l-2.216,3.778" fill="none" stroke="#2d2d2e" stroke-miterlimit="10" stroke-width="0.842"/>
      <path id="Trazado_1101" data-name="Trazado 1101" d="M1732.406,2345.461l-.008.008a33.985,33.985,0,0,0-4.874,3.964,6.868,6.868,0,0,0-1.088,3.062,4.277,4.277,0,0,0,.073,1.523l2.159,1.853" fill="none" stroke="#2d2d2e" stroke-miterlimit="10" stroke-width="0.842"/>
      <path id="Trazado_1102" data-name="Trazado 1102" d="M1701.058,2417.5c.161-.636,2.908-24.323,6.9-34.41,2.272-5.736,18.555-29.068,18.555-29.068" fill="none" stroke="#2d2d2e" stroke-miterlimit="10" stroke-width="0.842"/>
      <path id="Trazado_1103" data-name="Trazado 1103" d="M1606.972,2392.972a21.987,21.987,0,0,1-5.89-6.865c-2.022-3.7-5.164-7.936-7-9.063-4.657-2.869-8.347-3.844-12.5.306s-13.132,13.06-12.826,16.709,5.6,10.99,15.565,13.938a52.539,52.539,0,0,1,9.12,3.908" fill="none" stroke="#2d2d2e" stroke-miterlimit="10" stroke-width="0.714"/>
      <path id="Trazado_1104" data-name="Trazado 1104" d="M1597.956,2404.581a53.992,53.992,0,0,0-4.52,7.324c.726.379,1.443.757,2.144,1.152,1.16.644,2.3,1.305,3.375,1.95" fill="none" stroke="#2d2d2e" stroke-miterlimit="10" stroke-width="0.714"/>
      <path id="Trazado_1105" data-name="Trazado 1105" d="M1612.289,2396.589l-3.142-2.111-1.12-.749c-.354-.25-.709-.5-1.055-.757-.532.354-2.224,1.683-4.448,5.22" fill="none" stroke="#2d2d2e" stroke-miterlimit="10" stroke-width="0.714"/>
      <path id="Trazado_1106" data-name="Trazado 1106" d="M1602.943,2408.231h-.008a49.117,49.117,0,0,0-3.98,6.776c5.4,3.23,9.564,6.244,9.564,6.244l.008.008,11.432-19.522-7.67-5.148s-1.184.5-4.818,5.366" fill="none" stroke="#2d2d2e" stroke-miterlimit="10" stroke-width="0.714"/>
      <path id="Trazado_1107" data-name="Trazado 1107" d="M1602.943,2408.231a5.027,5.027,0,0,0,4.319-3.263,5.114,5.114,0,0,0,.209-3.013,4.779,4.779,0,0,0-2.957-3.448,4.632,4.632,0,0,0-1.99-.315,5.138,5.138,0,0,0-4.568,6.389,4.788,4.788,0,0,0,2.933,3.344,4.67,4.67,0,0,0,2.046.306" fill="none" stroke="#2d2d2e" stroke-miterlimit="10" stroke-width="0.714"/>
      <path id="Trazado_1108" data-name="Trazado 1108" d="M1600.067,2401.463l2.635,1.756-1.225,1.716" fill="none" stroke="#2d2d2e" stroke-miterlimit="10" stroke-width="0.714"/>
      <path id="Trazado_1109" data-name="Trazado 1109" d="M1637.99,2515.288s-17.749,2.256-19.441,9.58c-.322,1.394-.612,2.65-.854,3.778a35.793,35.793,0,0,0-.685,4.021c-.217,2.312.161,3.746,1.539,4.64.878.572,1.692-.515,2.449-2.2.137-.306.274-.637.411-.983.476-1.193.919-2.554,1.346-3.8.709-2.062,1.369-3.811,1.99-4.028" fill="none" stroke="#2d2d2e" stroke-miterlimit="10" stroke-width="0.842"/>
      <path id="Trazado_1110" data-name="Trazado 1110" d="M1646.377,2542.625l-.008.008a22.264,22.264,0,0,1-2.119,1.651c-2.892,1.99-6.284,3.167-9.716,1.773A30.728,30.728,0,0,1,1621,2535.108" fill="none" stroke="#2d2d2e" stroke-miterlimit="10" stroke-width="0.842"/>
      <path id="Trazado_1111" data-name="Trazado 1111" d="M1652.323,2535.664a35.293,35.293,0,0,1-3.11,4.092" fill="none" stroke="#2d2d2e" stroke-miterlimit="10" stroke-width="0.842"/>
      <path id="Trazado_1112" data-name="Trazado 1112" d="M1605.868,2542.576l-44.86-14.873-23.389,70.569,121.269,40.187" fill="none" stroke="#2d2d2e" stroke-miterlimit="10" stroke-width="0.842"/>
      <line id="Línea_83" data-name="Línea 83" x1="34.128" y1="11.312" transform="translate(1609.695 2543.841)" fill="none" stroke="#2d2d2e" stroke-miterlimit="10" stroke-width="0.842"/>
      <line id="Línea_84" data-name="Línea 84" x1="33.169" y1="10.997" transform="translate(1647.65 2556.418)" fill="none" stroke="#2d2d2e" stroke-miterlimit="10" stroke-width="0.842"/>
      <path id="Trazado_1113" data-name="Trazado 1113" d="M1649.213,2539.756a6.492,6.492,0,0,0-2.208-1.385l-.265-.1" fill="none" stroke="#2d2d2e" stroke-miterlimit="10" stroke-width="0.806"/>
      <path id="Trazado_1114" data-name="Trazado 1114" d="M1645.475,2542.1c.016.008.032.008.04.016a2.316,2.316,0,0,1,.854.516,2.494,2.494,0,0,1,.717,2.675l-3.263,9.845,3.827,1.265,3.263-9.837a6.6,6.6,0,0,0-1.7-6.825" fill="none" stroke="#2d2d2e" stroke-miterlimit="10" stroke-width="0.806"/>
      <path id="Trazado_1115" data-name="Trazado 1115" d="M1617.695,2528.646l-.258-.088a6.586,6.586,0,0,0-8.306,4.173l-3.263,9.845,3.827,1.265,3.263-9.845a2.542,2.542,0,0,1,3.214-1.611l.838.282" fill="none" stroke="#2d2d2e" stroke-miterlimit="10" stroke-width="0.806"/>
      <line id="Línea_85" data-name="Línea 85" x1="2.095" y1="0.701" transform="translate(1622.763 2530.322)" fill="none" stroke="#2d2d2e" stroke-miterlimit="10" stroke-width="0.806"/>
      <path id="Trazado_1116" data-name="Trazado 1116" d="M1644.25,2544.284s.6-.9,1.265-2.167a16.827,16.827,0,0,0,1.49-3.746,3.5,3.5,0,0,0-.435-3.263c-1.49-1.555-7.073-5.575-10.707-8.129a6.862,6.862,0,0,0-9.515,1.5,15.926,15.926,0,0,0-1.49,2.546s-1.136,3.867-3.449,3.1" fill="none" stroke="#2d2d2e" stroke-miterlimit="10" stroke-width="0.806"/>
    </g>
  </g>
</svg>
