<svg xmlns="http://www.w3.org/2000/svg" width="239.854" height="239.854" viewBox="0 0 239.854 239.854">
  <g id="Grupo_168" data-name="Grupo 168" transform="translate(-1479.783 -531.288)">
    <g id="Grupo_157" data-name="Grupo 157" transform="translate(-8.17 15.221)">
      <g id="Grupo_156" data-name="Grupo 156">
        <path id="Trazado_1024" data-name="Trazado 1024" d="M1550.828,588.723v107.52a10.971,10.971,0,0,0,10.971,10.972h98.743a13.166,13.166,0,0,1-13.165-13.166V588.723a13.166,13.166,0,0,0-26.332,0Z" fill="#fafafa" stroke="#000" stroke-miterlimit="10" stroke-width="0.298"/>
        <path id="Trazado_1025" data-name="Trazado 1025" d="M1570.576,621.638h48.275v4.388h-48.275Z" fill="#f5b335" stroke="#000" stroke-miterlimit="10" stroke-width="0.298"/>
        <path id="Trazado_1026" data-name="Trazado 1026" d="M1566.188,630.415h57.051V634.8h-57.051Z" fill="#f5b335" stroke="#000" stroke-miterlimit="10" stroke-width="0.298"/>
        <path id="Trazado_1027" data-name="Trazado 1027" d="M1563.994,601.889h63.634v13.166h-63.634Z" fill="#df6a2e" stroke="#000" stroke-miterlimit="10" stroke-width="0.298"/>
        <path id="Trazado_1028" data-name="Trazado 1028" d="M1643.642,598.089l-.02,0a21.783,21.783,0,0,0-3.171-.5c-.107-.009-.213-.017-.32-.024-.507-.035-1.016-.06-1.532-.06a21.931,21.931,0,0,0-21.5,17.521l-.005.029q-.1.513-.184,1.034a21.944,21.944,0,1,0,26.729-17.995Z" fill="#18988b" stroke="#000" stroke-miterlimit="10" stroke-width="0.298"/>
        <path id="Trazado_1029" data-name="Trazado 1029" d="M1566.188,639.192h58.884v4.389h-58.884Z" fill="#f5b335" stroke="#000" stroke-miterlimit="10" stroke-width="0.298"/>
        <path id="Trazado_1030" data-name="Trazado 1030" d="M1566.186,647.967h49.062v4.386h-49.062Z" fill="#f5b335" stroke="#000" stroke-miterlimit="10" stroke-width="0.298"/>
        <path id="Trazado_1031" data-name="Trazado 1031" d="M1638.6,641.386l-8.777,28.526-8.777-13.166h-17.554L1625.6,637l-.059.079A21.839,21.839,0,0,0,1638.6,641.386Z" fill="#8f4899" stroke="#000" stroke-miterlimit="10" stroke-width="0.298"/>
        <path id="Trazado_1032" data-name="Trazado 1032" d="M1651.66,637.077a21.842,21.842,0,0,1-13.061,4.309l8.778,28.526,8.777-13.166h17.554L1651.6,637Z" fill="#8f4899" stroke="#000" stroke-miterlimit="10" stroke-width="0.298"/>
        <path id="Trazado_1033" data-name="Trazado 1033" d="M1647.377,678.689v15.36a13.166,13.166,0,1,0,26.331,0v-15.36Z" fill="#ececec" stroke="#000" stroke-miterlimit="10" stroke-width="0.298"/>
        <path id="Trazado_1034" data-name="Trazado 1034" d="M1634.211,575.558h-79a13.165,13.165,0,0,0-13.165,13.165h78.994A13.166,13.166,0,0,1,1634.211,575.558Z" fill="#ececec" stroke="#000" stroke-miterlimit="10" stroke-width="0.298"/>
        <path id="Trazado_1035" data-name="Trazado 1035" d="M1563.994,680.883h70.217v13.166h-70.217Z" fill="#df6a2e" stroke="#000" stroke-miterlimit="10" stroke-width="0.298"/>
        <path id="Trazado_1036" data-name="Trazado 1036" d="M1647.7,609.941h0c-.01-.01-.022-.019-.033-.029-.284-.27-.579-.53-.887-.774-.055-.044-.112-.083-.167-.125-.273-.21-.55-.413-.839-.6-.082-.053-.167-.1-.25-.152-.27-.167-.543-.331-.825-.479-.1-.052-.205-.1-.306-.147-.273-.134-.546-.265-.828-.38-.12-.049-.243-.088-.364-.133-.27-.1-.539-.2-.817-.285-.152-.046-.308-.078-.462-.119-.252-.065-.5-.134-.759-.185-.222-.044-.447-.07-.672-.1-.2-.028-.388-.065-.587-.085-.43-.042-.865-.066-1.3-.065a13.15,13.15,0,0,0-10.435,21.171l.011.014a13.151,13.151,0,0,0,1.489,1.63c.065.061.131.12.2.179a13.088,13.088,0,0,0,1.074.863c.021.014.04.03.06.045h0a13.154,13.154,0,0,0,16.7-20.239Z" fill="#f9b5c3" stroke="#000" stroke-miterlimit="10" stroke-width="0.298"/>
      </g>
      <circle id="Elipse_35" data-name="Elipse 35" cx="116.944" cy="116.944" r="116.944" transform="translate(1490.935 519.049)" fill="none" stroke="#df6a2e" stroke-miterlimit="10" stroke-width="5.966"/>
    </g>
  </g>
</svg>
