<svg xmlns="http://www.w3.org/2000/svg" width="193.406" height="563.421" viewBox="0 0 193.406 563.421">
  <g id="Grupo_138" data-name="Grupo 138" transform="translate(-1585.12 -2237.505)">
    <g id="Grupo_137" data-name="Grupo 137">
      <g id="Grupo_135" data-name="Grupo 135">
        <path id="Trazado_963" data-name="Trazado 963" d="M1597.433,2783.765c-14.123,2.5-11.618,16.552-11.618,16.552h69.709v-44.459h-35.686v13.074a12.4,12.4,0,0,1-9.293,11.987C1607.057,2781.836,1602.642,2782.848,1597.433,2783.765Z" fill="#18988b"/>
        <path id="Trazado_964" data-name="Trazado 964" d="M1685.227,2631.906l40.007,123.952h52.617L1734.261,2618l6.891-90.034h-81.072l-46.444,227.892h46.444Z" fill="#625d9c"/>
        <path id="Trazado_965" data-name="Trazado 965" d="M1739.5,2500.845c1.57.236,32.879,4.66,34.855-12.072,2.023-17.158-27.471-85.232-27.471-85.232-1.3-5.341-9.066-6.3-18.047-9.056l-.038.123s-8.508,10.276-8.659,19.861a21.227,21.227,0,0,1,2.741,10.475v64.065a21.394,21.394,0,0,1-21.4,21.4h-10.635a21.394,21.394,0,0,1-21.4-21.4v-64.065a21.239,21.239,0,0,1,4.537-13.169.009.009,0,0,1,.01-.009c7.808-12.961-7.705-34.231-8.631-35.715-8.688-9.832-15.6-17.2-16.392-23.927-.766-6.579,1.777-58.346,3.4-76.714a7.475,7.475,0,0,0-2.363-6.144,7.362,7.362,0,0,0-4.1-1.929,34.534,34.534,0,0,0-10.976.331c-.17.038-.321.066-.482.114a7.474,7.474,0,0,0-5.511,6.5c-1.806,19-7.979,85.174-6.806,91.423,1.37,7.288,36.007,53.752,36.007,53.752l-4.707,108.505h87.727Z" fill="#f9b5c3"/>
        <path id="Trazado_966" data-name="Trazado 966" d="M1634.424,2262.686v4.982l.019.114c.161-.048.312-.076.482-.114a34.534,34.534,0,0,1,10.976-.331,7.362,7.362,0,0,1,4.1,1.929v-6.58h-15.58Z" fill="#f9b5c3"/>
        <path id="Trazado_967" data-name="Trazado 967" d="M1637.988,2238.618c-4.481,1.153-8.2,10.1.936,24.068h7.052s1.825-.728,4.028-12.8S1644.218,2237.02,1637.988,2238.618Z" fill="#dcc7b7"/>
        <path id="Trazado_968" data-name="Trazado 968" d="M1669.373,2380.664q-2.055-2.4-4.017-4.613c.926,1.484,16.439,22.754,8.631,35.715a21.323,21.323,0,0,1,12.091-7.686c2.977-12.989-7.034-22.13-7.034-22.13C1676.284,2384.4,1672.994,2384.871,1669.373,2380.664Z" fill="#8f4899"/>
        <path id="Trazado_969" data-name="Trazado 969" d="M1673.977,2411.775a.009.009,0,0,1,.01-.009,21.323,21.323,0,0,1,12.091-7.686,20.794,20.794,0,0,1,4.764-.539h10.635a21.388,21.388,0,0,1,18.661,10.928,21.227,21.227,0,0,1,2.741,10.475v64.065a21.394,21.394,0,0,1-21.4,21.4h-10.635a21.394,21.394,0,0,1-21.4-21.4v-64.065A21.239,21.239,0,0,1,1673.977,2411.775Zm13.1,85.988H1704.4a9.049,9.049,0,0,0,9.047-9.056v-22.679a9.049,9.049,0,0,0-9.047-9.056H1687.08a9.047,9.047,0,0,0-9.038,9.056v22.679A9.048,9.048,0,0,0,1687.08,2497.763Zm-.993-48.108h19.3a8.045,8.045,0,1,0,0-16.09h-19.3a8.045,8.045,0,1,0,0,16.09Z" fill="#8f4899"/>
        <path id="Trazado_970" data-name="Trazado 970" d="M1678.042,2311.466s-.68,10.124,4.812,16.732a15.387,15.387,0,0,0,10.531,5.445c14.246,1.645,13.849,6.712,13.849,6.712,0,1.891,1.135,2.921,2.883,3.6,1.116.435,1.967,1.181,1.239,2.458a17.674,17.674,0,0,1-2.543,3.318,5.977,5.977,0,0,0-1.626,4.084V2361a7.631,7.631,0,0,0,3.63,2.307,11.435,11.435,0,0,0,4.717.425c5.814-.6,17.357-30.307,2.156-44.185C1702.507,2305.69,1683.847,2318.981,1678.042,2311.466Z" fill="#221e20"/>
        <path id="Trazado_971" data-name="Trazado 971" d="M1678.042,2466.028v22.679a9.048,9.048,0,0,0,9.038,9.056H1704.4a9.049,9.049,0,0,0,9.047-9.056v-22.679a9.049,9.049,0,0,0-9.047-9.056H1687.08A9.047,9.047,0,0,0,1678.042,2466.028Z" fill="#f5b335"/>
        <path id="Trazado_972" data-name="Trazado 972" d="M1678.042,2441.6a8.022,8.022,0,0,0,8.045,8.055h19.3a8.045,8.045,0,1,0,0-16.09h-19.3A8.043,8.043,0,0,0,1678.042,2441.6Z" fill="#f5b335"/>
        <path id="Trazado_973" data-name="Trazado 973" d="M1682.854,2328.2a28.7,28.7,0,0,0-4.812,16.25c0,9,3.8,16.884,9.482,21.261a16.529,16.529,0,0,0,20.693,0,23.78,23.78,0,0,0,2.6-2.4,7.631,7.631,0,0,1-3.63-2.307v-7.184a5.977,5.977,0,0,1,1.626-4.084,17.674,17.674,0,0,0,2.543-3.318c.728-1.277-.123-2.023-1.239-2.458-1.748-.681-2.883-1.711-2.883-3.6,0,0,.4-5.067-13.849-6.712A15.387,15.387,0,0,1,1682.854,2328.2Z" fill="#dcc7b7"/>
        <path id="Trazado_974" data-name="Trazado 974" d="M1683.364,2376.051a21.6,21.6,0,0,1-4.32,5.9s10.011,9.141,7.034,22.13a20.794,20.794,0,0,1,4.764-.539h10.635a21.458,21.458,0,0,1,5.71.775v-.018c-.463-8.887,8.347-15.863,8.347-15.863a19.32,19.32,0,0,1-6.891-10.985C1708.17,2377.667,1696.022,2383.368,1683.364,2376.051Z" fill="#f9b5c3"/>
        <path id="Trazado_975" data-name="Trazado 975" d="M1687.524,2365.709a58.338,58.338,0,0,1-4.16,10.342c12.658,7.317,24.806,1.616,25.279,1.4a30.229,30.229,0,0,1-.426-11.741,16.529,16.529,0,0,1-20.693,0Z" fill="#f9b5c3"/>
        <path id="Trazado_976" data-name="Trazado 976" d="M1715.534,2388.435s-8.81,6.976-8.347,15.863v.018a21.356,21.356,0,0,1,12.951,10.153c.151-9.585,8.659-19.861,8.659-19.861l.038-.123a54.68,54.68,0,0,1-11.145-4.613A19.1,19.1,0,0,1,1715.534,2388.435Z" fill="#8f4899"/>
        <path id="Trazado_977" data-name="Trazado 977" d="M1719.457,2780.153c-10.852,9.35-1.531,20.164-1.531,20.164l59.925-35.648-6.041-8.811h-40.678v.095a12.394,12.394,0,0,1-1.853,15.04C1726.736,2773.574,1723.456,2776.7,1719.457,2780.153Z" fill="#18988b"/>
      </g>
      <g id="Grupo_136" data-name="Grupo 136">
        <line id="Línea_79" data-name="Línea 79" x1="0.038" y2="0.123" transform="translate(1728.797 2394.485)" fill="none" stroke="#2d2d2e" stroke-miterlimit="10" stroke-width="0.945"/>
        <line id="Línea_80" data-name="Línea 80" x2="0.019" y2="0.113" transform="translate(1634.424 2267.668)" fill="none" stroke="#2d2d2e" stroke-miterlimit="10" stroke-width="0.945"/>
        <path id="Trazado_978" data-name="Trazado 978" d="M1710.817,2363.308a11.435,11.435,0,0,0,4.717.425c5.814-.6,17.357-30.307,2.156-44.185-15.183-13.858-33.843-.567-39.648-8.082,0,0-.68,10.124,4.812,16.732" fill="none" stroke="#2d2d2e" stroke-miterlimit="10" stroke-width="0.945"/>
        <path id="Trazado_979" data-name="Trazado 979" d="M1710.817,2363.308a7.631,7.631,0,0,1-3.63-2.307v-7.184a5.977,5.977,0,0,1,1.626-4.084,17.674,17.674,0,0,0,2.543-3.318c.728-1.277-.123-2.023-1.239-2.458-1.748-.681-2.883-1.711-2.883-3.6,0,0,.4-5.067-13.849-6.712a15.387,15.387,0,0,1-10.531-5.445" fill="none" stroke="#2d2d2e" stroke-miterlimit="10" stroke-width="0.945"/>
        <line id="Línea_81" data-name="Línea 81" y1="0.019" transform="translate(1707.187 2404.298)" fill="none" stroke="#2d2d2e" stroke-miterlimit="10" stroke-width="0.945"/>
        <line id="Línea_82" data-name="Línea 82" y2="0.095" transform="translate(1731.132 2755.858)" fill="none" stroke="#2d2d2e" stroke-miterlimit="10" stroke-width="0.945"/>
        <path id="Trazado_980" data-name="Trazado 980" d="M1682.854,2328.2a28.7,28.7,0,0,0-4.812,16.25c0,9,3.8,16.884,9.482,21.261a16.529,16.529,0,0,0,20.693,0,23.78,23.78,0,0,0,2.6-2.4" fill="none" stroke="#2d2d2e" stroke-miterlimit="10" stroke-width="0.945"/>
        <path id="Trazado_981" data-name="Trazado 981" d="M1708.217,2365.709a30.229,30.229,0,0,0,.426,11.741,19.32,19.32,0,0,0,6.891,10.985,19.1,19.1,0,0,0,2.156,1.437,54.68,54.68,0,0,0,11.145,4.613c8.981,2.751,16.742,3.715,18.047,9.056,0,0,29.494,68.074,27.471,85.232-1.976,16.732-33.285,12.308-34.855,12.072a.371.371,0,0,0-.066-.01" fill="none" stroke="#2d2d2e" stroke-miterlimit="10" stroke-width="0.945"/>
        <path id="Trazado_982" data-name="Trazado 982" d="M1687.524,2365.709a58.338,58.338,0,0,1-4.16,10.342,21.6,21.6,0,0,1-4.32,5.9c-2.76,2.448-6.05,2.921-9.671-1.286q-2.055-2.4-4.017-4.613c-8.688-9.832-15.6-17.2-16.392-23.927-.766-6.579,1.777-58.346,3.4-76.714a7.475,7.475,0,0,0-2.363-6.144,7.362,7.362,0,0,0-4.1-1.929,34.534,34.534,0,0,0-10.976.331c-.17.038-.321.066-.482.114a7.474,7.474,0,0,0-5.511,6.5c-1.806,19-7.979,85.174-6.806,91.423,1.37,7.288,36.007,53.752,36.007,53.752l-4.707,108.505h87.727l-1.655-27.121L1734.724,2423" fill="none" stroke="#2d2d2e" stroke-miterlimit="10" stroke-width="0.945"/>
        <path id="Trazado_983" data-name="Trazado 983" d="M1673.977,2411.775a21.239,21.239,0,0,0-4.537,13.169v64.065a21.394,21.394,0,0,0,21.4,21.4h10.635a21.394,21.394,0,0,0,21.4-21.4v-64.065a21.414,21.414,0,0,0-15.692-20.628,21.458,21.458,0,0,0-5.71-.775h-10.635a20.794,20.794,0,0,0-4.764.539,21.323,21.323,0,0,0-12.091,7.686" fill="none" stroke="#2d2d2e" stroke-miterlimit="10" stroke-width="0.945"/>
        <path id="Trazado_984" data-name="Trazado 984" d="M1728.8,2394.608s-8.508,10.276-8.659,19.861" fill="none" stroke="#2d2d2e" stroke-miterlimit="10" stroke-width="0.945"/>
        <path id="Trazado_985" data-name="Trazado 985" d="M1715.534,2388.435s-8.81,6.976-8.347,15.863" fill="none" stroke="#2d2d2e" stroke-miterlimit="10" stroke-width="0.945"/>
        <path id="Trazado_986" data-name="Trazado 986" d="M1679.044,2381.95s10.011,9.141,7.034,22.13" fill="none" stroke="#2d2d2e" stroke-miterlimit="10" stroke-width="0.945"/>
        <path id="Trazado_987" data-name="Trazado 987" d="M1665.356,2376.051c.926,1.484,16.439,22.754,8.631,35.715a.009.009,0,0,0-.01.009" fill="none" stroke="#2d2d2e" stroke-miterlimit="10" stroke-width="0.945"/>
        <path id="Trazado_988" data-name="Trazado 988" d="M1687.08,2497.763H1704.4a9.049,9.049,0,0,0,9.047-9.056v-22.679a9.049,9.049,0,0,0-9.047-9.056H1687.08a9.047,9.047,0,0,0-9.038,9.056v22.679A9.048,9.048,0,0,0,1687.08,2497.763Z" fill="none" stroke="#2d2d2e" stroke-miterlimit="10" stroke-width="0.945"/>
        <path id="Trazado_989" data-name="Trazado 989" d="M1686.087,2449.655h19.3a8.045,8.045,0,1,0,0-16.09h-19.3a8.045,8.045,0,1,0,0,16.09Z" fill="none" stroke="#2d2d2e" stroke-miterlimit="10" stroke-width="0.945"/>
        <path id="Trazado_990" data-name="Trazado 990" d="M1708.652,2377.441l-.009.009c-.473.217-12.621,5.918-25.279-1.4h-.009" fill="none" stroke="#2d2d2e" stroke-miterlimit="10" stroke-width="0.945"/>
        <path id="Trazado_991" data-name="Trazado 991" d="M1650,2269.266v-6.58h-15.579v4.982" fill="none" stroke="#2d2d2e" stroke-miterlimit="10" stroke-width="0.945"/>
        <path id="Trazado_992" data-name="Trazado 992" d="M1741.153,2527.966,1734.261,2618l43.589,137.858h-52.617l-40.007-123.952" fill="none" stroke="#2d2d2e" stroke-miterlimit="10" stroke-width="0.945"/>
        <path id="Trazado_993" data-name="Trazado 993" d="M1701.628,2551.08l-16.4,80.826-25.146,123.952h-46.444l46.444-227.892" fill="none" stroke="#2d2d2e" stroke-miterlimit="10" stroke-width="0.945"/>
        <path id="Trazado_994" data-name="Trazado 994" d="M1655.524,2755.858v44.459h-69.709s-2.5-14.057,11.618-16.552c5.209-.917,9.624-1.929,13.112-2.846a12.4,12.4,0,0,0,9.293-11.987v-13.074" fill="none" stroke="#2d2d2e" stroke-miterlimit="10" stroke-width="0.945"/>
        <path id="Trazado_995" data-name="Trazado 995" d="M1731.132,2755.953a12.394,12.394,0,0,1-1.853,15.04c-2.543,2.581-5.823,5.71-9.822,9.16-10.852,9.35-1.531,20.164-1.531,20.164l59.925-35.648-6.041-8.811" fill="none" stroke="#2d2d2e" stroke-miterlimit="10" stroke-width="0.945"/>
        <path id="Trazado_996" data-name="Trazado 996" d="M1645.976,2262.686s1.825-.728,4.028-12.8-5.786-12.866-12.016-11.268c-4.481,1.153-8.2,10.1.936,24.068" fill="none" stroke="#2d2d2e" stroke-miterlimit="10" stroke-width="0.945"/>
      </g>
    </g>
  </g>
</svg>
