<svg xmlns="http://www.w3.org/2000/svg" width="257.401" height="478.316" viewBox="0 0 257.401 478.316">
  <g id="Grupo_116" data-name="Grupo 116" transform="translate(-71.31 -2370.584)">
    <g id="Grupo_113" data-name="Grupo 113" transform="translate(-20.729 12.214)">
      <path id="Trazado_880" data-name="Trazado 880" d="M348.749,2560.406v12.326H92.729v-12.326h256.02Z" fill="#3d4543"/>
      <path id="Trazado_881" data-name="Trazado 881" d="M314.007,2534.277v26.129H287.381v-5.714s14.7-8.641,14.838-12.327C302.371,2538.694,314.007,2534.277,314.007,2534.277Z" fill="#625d9c"/>
      <path id="Trazado_882" data-name="Trazado 882" d="M314.007,2521.053v13.224s-11.636,4.417-11.788,8.088c-.138,3.686-14.838,12.327-14.838,12.327v-13.224s14.7-8.641,14.838-12.326S314.007,2521.053,314.007,2521.053Z" fill="#8f4899"/>
      <path id="Trazado_883" data-name="Trazado 883" d="M314.007,2510.963v10.09s-11.636,4.4-11.788,8.089-14.838,12.326-14.838,12.326v-30.505h26.626Z" fill="#625d9c"/>
      <path id="Trazado_884" data-name="Trazado 884" d="M290.252,2508.023h20.87a1.788,1.788,0,0,1,1.794,1.781v1.159H288.471V2509.8A1.786,1.786,0,0,1,290.252,2508.023Z" fill="#5d6162" stroke="#25292b" stroke-miterlimit="10" stroke-width="1.38"/>
      <path id="Trazado_885" data-name="Trazado 885" d="M312.917,2510.963h1.09v49.443" fill="none" stroke="#25292b" stroke-miterlimit="10" stroke-width="1.38"/>
      <path id="Trazado_886" data-name="Trazado 886" d="M287.381,2560.406v-49.443h1.09" fill="none" stroke="#25292b" stroke-miterlimit="10" stroke-width="1.38"/>
      <path id="Trazado_887" data-name="Trazado 887" d="M312.916,2510.963V2509.8a1.788,1.788,0,0,0-1.794-1.781h-20.87a1.786,1.786,0,0,0-1.781,1.781v1.159Z" fill="none" stroke="#25292b" stroke-miterlimit="10" stroke-width="1.38"/>
      <line id="Línea_78" data-name="Línea 78" y1="3.313" x2="6.308" transform="translate(304.221 2504.71)" fill="none" stroke="#25292b" stroke-miterlimit="10" stroke-width="1.38"/>
      <path id="Trazado_888" data-name="Trazado 888" d="M314.007,2521.053s-11.636,4.4-11.788,8.089-14.838,12.326-14.838,12.326" fill="none" stroke="#25292b" stroke-miterlimit="10" stroke-width="1.38"/>
      <path id="Trazado_889" data-name="Trazado 889" d="M314.007,2534.277s-11.636,4.417-11.788,8.088c-.138,3.686-14.838,12.327-14.838,12.327" fill="none" stroke="#25292b" stroke-miterlimit="10" stroke-width="1.38"/>
      <path id="Trazado_890" data-name="Trazado 890" d="M298.837,2503.22a1.139,1.139,0,1,1-1.132-1.132A1.137,1.137,0,0,1,298.837,2503.22Z" fill="none" stroke="#25292b" stroke-miterlimit="10" stroke-width="1.38"/>
      <path id="Trazado_891" data-name="Trazado 891" d="M303.586,2499.728a2.023,2.023,0,1,1-2.029-2.03A2.032,2.032,0,0,1,303.586,2499.728Z" fill="none" stroke="#25292b" stroke-miterlimit="10" stroke-width="1.38"/>
      <path id="Trazado_892" data-name="Trazado 892" d="M184.686,2560.406H348.749v12.326H92.729v-12.326H180.02" fill="none" stroke="#25292b" stroke-miterlimit="10" stroke-width="1.38"/>
      <path id="Trazado_893" data-name="Trazado 893" d="M334.836,2572.732l-114.1,131.751-114.1,131.751" fill="none" stroke="#25292b" stroke-miterlimit="10" stroke-width="1.38"/>
      <path id="Trazado_894" data-name="Trazado 894" d="M106.643,2572.732l114.1,131.751,114.1,131.751" fill="none" stroke="#25292b" stroke-miterlimit="10" stroke-width="1.38"/>
      <path id="Trazado_895" data-name="Trazado 895" d="M220.739,2572.732v263.5" fill="none" stroke="#25292b" stroke-miterlimit="10" stroke-width="1.38"/>
      <path id="Trazado_896" data-name="Trazado 896" d="M246.358,2450.257v48.477a61.665,61.665,0,0,1-61.672,61.672H180.02a61.674,61.674,0,0,1-61.672-61.672v-48.477H174.14a66.259,66.259,0,0,0,16.426,0Z" fill="#f5b335"/>
      <path id="Trazado_897" data-name="Trazado 897" d="M201.249,2405.149a64.774,64.774,0,0,0-4.265-23.59,64.155,64.155,0,0,1,23.065-14.921,64.223,64.223,0,0,1,4.155,23.741A64.617,64.617,0,0,0,201.249,2405.149Z" fill="#18988b"/>
      <path id="Trazado_898" data-name="Trazado 898" d="M186.411,2428.186a64.333,64.333,0,0,0-4.058-23.714,64.149,64.149,0,0,1,14.631-22.913,64.774,64.774,0,0,1,4.265,23.59A64.307,64.307,0,0,0,186.411,2428.186Z" fill="#18988b"/>
      <path id="Trazado_899" data-name="Trazado 899" d="M224.2,2390.379a64.394,64.394,0,0,1-41.078,59.036,64.209,64.209,0,0,0,18.123-44.266A64.617,64.617,0,0,1,224.2,2390.379Z" fill="#18988b"/>
      <path id="Trazado_900" data-name="Trazado 900" d="M190.566,2450.257h-8.2c-.014-.014-.014-.014-.014-.027s0-.014.014-.028c.262-.262.524-.525.759-.787a64.394,64.394,0,0,0,41.078-59.036,64.287,64.287,0,0,1,22.609-4.072A64.441,64.441,0,0,1,190.566,2450.257Z" fill="#18988b"/>
      <path id="Trazado_901" data-name="Trazado 901" d="M182.353,2404.472a64.137,64.137,0,0,0-14.632-22.913,64.394,64.394,0,0,1,14.632-22.5,64.391,64.391,0,0,1,14.631,22.5A64.149,64.149,0,0,0,182.353,2404.472Z" fill="#18988b"/>
      <path id="Trazado_902" data-name="Trazado 902" d="M201.249,2405.149a64.209,64.209,0,0,1-18.123,44.266,6.917,6.917,0,0,1-.677.276,1.28,1.28,0,0,1-.069-.207.609.609,0,0,1-.013-.069.108.108,0,0,1,.013-.055v-.014a64.244,64.244,0,0,0,4.031-21.16A64.307,64.307,0,0,1,201.249,2405.149Z" fill="#18988b"/>
      <path id="Trazado_903" data-name="Trazado 903" d="M186.411,2428.186a64.244,64.244,0,0,1-4.031,21.16A64.015,64.015,0,0,1,186.411,2428.186Z" fill="#18988b"/>
      <path id="Trazado_904" data-name="Trazado 904" d="M182.325,2449.36a64.122,64.122,0,0,0-4.03-21.174,64.333,64.333,0,0,1,4.058-23.714,64.333,64.333,0,0,1,4.058,23.714,64.015,64.015,0,0,0-4.031,21.16v.014a.108.108,0,0,0-.013.055h-.028A.1.1,0,0,0,182.325,2449.36Z" fill="#18988b"/>
      <path id="Trazado_905" data-name="Trazado 905" d="M167.721,2381.559a64.137,64.137,0,0,1,14.632,22.913,64.333,64.333,0,0,0-4.058,23.714,64.309,64.309,0,0,0-14.839-23.037A64.8,64.8,0,0,1,167.721,2381.559Z" fill="#18988b"/>
      <path id="Trazado_906" data-name="Trazado 906" d="M163.456,2405.149a64.309,64.309,0,0,1,14.839,23.037,64.263,64.263,0,0,0,4.03,21.174c0,.028.014.041.014.055a.571.571,0,0,1-.014.069,1.19,1.19,0,0,1-.069.207,6.9,6.9,0,0,1-.676-.276A64.21,64.21,0,0,1,163.456,2405.149Z" fill="#18988b"/>
      <path id="Trazado_907" data-name="Trazado 907" d="M182.325,2449.36a64.263,64.263,0,0,1-4.03-21.174A64.122,64.122,0,0,1,182.325,2449.36Z" fill="#18988b"/>
      <path id="Trazado_908" data-name="Trazado 908" d="M163.456,2405.149a64.21,64.21,0,0,0,18.124,44.266,64.394,64.394,0,0,1-41.064-59.022A64.33,64.33,0,0,1,163.456,2405.149Z" fill="#18988b"/>
      <path id="Trazado_909" data-name="Trazado 909" d="M167.721,2381.559a64.8,64.8,0,0,0-4.265,23.59,64.33,64.33,0,0,0-22.94-14.756,64.27,64.27,0,0,1,4.154-23.755A63.978,63.978,0,0,1,167.721,2381.559Z" fill="#18988b"/>
      <path id="Trazado_910" data-name="Trazado 910" d="M182.339,2450.257h-8.2a64.442,64.442,0,0,1-56.248-63.95,64.056,64.056,0,0,1,22.624,4.086,64.394,64.394,0,0,0,41.064,59.022c.234.262.5.525.759.787.014.014.014.014.014.028S182.353,2450.243,182.339,2450.257Z" fill="#18988b"/>
      <path id="Trazado_911" data-name="Trazado 911" d="M184.686,2560.406H180.02a61.674,61.674,0,0,1-61.672-61.672v-48.477h128.01v48.477A61.665,61.665,0,0,1,184.686,2560.406Z" fill="none" stroke="#25292b" stroke-linecap="round" stroke-linejoin="round" stroke-width="1.38"/>
      <path id="Trazado_912" data-name="Trazado 912" d="M167.721,2381.559a64.394,64.394,0,0,1,14.632-22.5,64.392,64.392,0,0,1,.773,90.355c-.235.262-.5.525-.759.787l-.014.014-.014-.014c-.262-.262-.525-.525-.759-.787a64.424,64.424,0,0,1-13.859-67.856Z" fill="none" stroke="#25292b" stroke-linecap="round" stroke-linejoin="round" stroke-width="1.38"/>
      <path id="Trazado_913" data-name="Trazado 913" d="M224.2,2390.379a64.287,64.287,0,0,1,22.609-4.072,64.441,64.441,0,0,1-56.247,63.95,67.21,67.21,0,0,1-8.213.511c0-.166,0-.345.014-.511a.041.041,0,0,1,0-.055,6.372,6.372,0,0,1,.013-.718.2.2,0,0,1,0-.124,64.436,64.436,0,0,1,41.824-58.981Z" fill="none" stroke="#25292b" stroke-linecap="round" stroke-linejoin="round" stroke-width="1.38"/>
      <path id="Trazado_914" data-name="Trazado 914" d="M196.984,2381.559a64.155,64.155,0,0,1,23.065-14.921,64.364,64.364,0,0,1-36.923,82.777,6.917,6.917,0,0,1-.677.276,1.28,1.28,0,0,1-.069-.207.108.108,0,0,1-.027-.055c-.014-.028-.014-.041-.028-.069a64.509,64.509,0,0,1,14.659-67.8Z" fill="none" stroke="#25292b" stroke-linecap="round" stroke-linejoin="round" stroke-width="1.38"/>
      <path id="Trazado_915" data-name="Trazado 915" d="M140.516,2390.393a64.056,64.056,0,0,0-22.624-4.086,64.442,64.442,0,0,0,56.248,63.95,67.21,67.21,0,0,0,8.213.511c0-.166,0-.345-.014-.511a.042.042,0,0,0,0-.055,6.147,6.147,0,0,0-.014-.718.188.188,0,0,0,0-.124,64.405,64.405,0,0,0-41.809-58.967Z" fill="none" stroke="#25292b" stroke-linecap="round" stroke-linejoin="round" stroke-width="1.38"/>
      <path id="Trazado_916" data-name="Trazado 916" d="M167.721,2381.559a63.978,63.978,0,0,0-23.051-14.921,64.373,64.373,0,0,0,36.91,82.777,6.9,6.9,0,0,0,.676.276,1.19,1.19,0,0,0,.069-.207.1.1,0,0,0,.028-.055c.014-.028.014-.041.027-.069a64.5,64.5,0,0,0-14.659-67.8Z" fill="none" stroke="#25292b" stroke-linecap="round" stroke-linejoin="round" stroke-width="1.38"/>
    </g>
  </g>
</svg>
