<svg xmlns="http://www.w3.org/2000/svg" width="240.498" height="240.498" viewBox="0 0 240.498 240.498">
  <g id="Grupo_103" data-name="Grupo 103" transform="translate(-1064.177 -529.009)">
    <g id="Grupo_98" data-name="Grupo 98" transform="translate(-3.725 35.165)">
      <g id="Grupo_97" data-name="Grupo 97">
        <path id="Trazado_801" data-name="Trazado 801" d="M1188.151,677.9h26.571a32.079,32.079,0,0,1-9.964-22.142h-33.213a32.079,32.079,0,0,1-9.964,22.142Z" fill="#df6a2e" stroke="#000" stroke-miterlimit="10" stroke-width="0.299"/>
        <path id="Trazado_802" data-name="Trazado 802" d="M1250.7,655.758H1125.6a5.536,5.536,0,0,1-5.536-5.536V561.653a5.535,5.535,0,0,1,5.536-5.535h125.1a5.536,5.536,0,0,1,5.536,5.535v88.569A5.537,5.537,0,0,1,1250.7,655.758Z" fill="#18988b" stroke="#000" stroke-miterlimit="10" stroke-width="0.299"/>
        <path id="Trazado_803" data-name="Trazado 803" d="M1128.921,635.857V567.714a2.74,2.74,0,0,1,2.74-2.74h112.981a2.74,2.74,0,0,1,2.74,2.74v68.143a2.74,2.74,0,0,1-2.74,2.74H1131.661a2.74,2.74,0,0,1-2.74-2.74Z" fill="#ecf4ff" stroke="#000" stroke-miterlimit="10" stroke-width="0.299"/>
        <path id="Trazado_804" data-name="Trazado 804" d="M1152.17,685.1V679.56a1.661,1.661,0,0,1,1.661-1.66h68.641a1.66,1.66,0,0,1,1.66,1.66V685.1a1.661,1.661,0,0,1-1.66,1.661h-68.641a1.661,1.661,0,0,1-1.661-1.661Z" fill="#18988b" stroke="#000" stroke-miterlimit="10" stroke-width="0.299"/>
        <g id="Grupo_86" data-name="Grupo 86">
          <path id="Trazado_805" data-name="Trazado 805" d="M1150.51,574.267h-12.732a2.055,2.055,0,0,0-2.055,2.055v11.071a2.055,2.055,0,0,0,2.055,2.055h12.732a2.055,2.055,0,0,0,2.055-2.055V576.322A2.055,2.055,0,0,0,1150.51,574.267Z" fill="#f9b5c3" stroke="#000" stroke-miterlimit="10" stroke-width="0.299"/>
          <path id="Trazado_806" data-name="Trazado 806" d="M1150.51,594.2h-12.732a2.055,2.055,0,0,0-2.055,2.055v11.071a2.055,2.055,0,0,0,2.055,2.055h12.732a2.055,2.055,0,0,0,2.055-2.055V596.25a2.055,2.055,0,0,0-2.055-2.055Z" fill="#f9b5c3" stroke="#000" stroke-miterlimit="10" stroke-width="0.299"/>
          <path id="Trazado_807" data-name="Trazado 807" d="M1150.51,614.123h-12.732a2.055,2.055,0,0,0-2.055,2.055v11.071a2.054,2.054,0,0,0,2.055,2.055h12.732a2.055,2.055,0,0,0,2.055-2.055V616.178A2.055,2.055,0,0,0,1150.51,614.123Z" fill="#f9b5c3" stroke="#000" stroke-miterlimit="10" stroke-width="0.299"/>
        </g>
        <g id="Grupo_96" data-name="Grupo 96">
          <g id="Grupo_87" data-name="Grupo 87">
            <path id="Trazado_808" data-name="Trazado 808" d="M1195.9,589.448h-34.32a2.055,2.055,0,1,1,0-4.11h34.32a2.055,2.055,0,1,1,0,4.11Z" fill="#8f4899" stroke="#000" stroke-miterlimit="10" stroke-width="0.299"/>
          </g>
          <g id="Grupo_88" data-name="Grupo 88">
            <path id="Trazado_809" data-name="Trazado 809" d="M1205.865,578.377h-28.231a2.055,2.055,0,1,1,0-4.109h28.231a2.055,2.055,0,1,1,0,4.109Z" fill="#8f4899" stroke="#000" stroke-miterlimit="10" stroke-width="0.299"/>
          </g>
          <g id="Grupo_89" data-name="Grupo 89">
            <path id="Trazado_810" data-name="Trazado 810" d="M1167.946,578.377h-6.365a2.055,2.055,0,1,1,0-4.109h6.365a2.055,2.055,0,1,1,0,4.109Z" fill="#8f4899" stroke="#000" stroke-miterlimit="10" stroke-width="0.299"/>
          </g>
          <g id="Grupo_90" data-name="Grupo 90">
            <path id="Trazado_811" data-name="Trazado 811" d="M1195.9,609.376h-34.32a2.054,2.054,0,1,1,0-4.109h34.32a2.054,2.054,0,1,1,0,4.109Z" fill="#8f4899" stroke="#000" stroke-miterlimit="10" stroke-width="0.299"/>
          </g>
          <g id="Grupo_91" data-name="Grupo 91">
            <path id="Trazado_812" data-name="Trazado 812" d="M1205.865,598.3h-28.231a2.055,2.055,0,1,1,0-4.11h28.231a2.055,2.055,0,1,1,0,4.11Z" fill="#8f4899" stroke="#000" stroke-miterlimit="10" stroke-width="0.299"/>
          </g>
          <g id="Grupo_92" data-name="Grupo 92">
            <path id="Trazado_813" data-name="Trazado 813" d="M1167.946,598.3h-6.365a2.055,2.055,0,1,1,0-4.11h6.365a2.055,2.055,0,0,1,0,4.11Z" fill="#8f4899" stroke="#000" stroke-miterlimit="10" stroke-width="0.299"/>
          </g>
          <g id="Grupo_93" data-name="Grupo 93">
            <path id="Trazado_814" data-name="Trazado 814" d="M1195.9,629.3h-34.32a2.055,2.055,0,1,1,0-4.109h34.32a2.055,2.055,0,1,1,0,4.109Z" fill="#8f4899" stroke="#000" stroke-miterlimit="10" stroke-width="0.299"/>
          </g>
          <g id="Grupo_94" data-name="Grupo 94">
            <path id="Trazado_815" data-name="Trazado 815" d="M1205.865,618.233h-28.231a2.055,2.055,0,1,1,0-4.11h28.231a2.055,2.055,0,1,1,0,4.11Z" fill="#8f4899" stroke="#000" stroke-miterlimit="10" stroke-width="0.299"/>
          </g>
          <g id="Grupo_95" data-name="Grupo 95">
            <path id="Trazado_816" data-name="Trazado 816" d="M1167.946,618.233h-6.365a2.055,2.055,0,1,1,0-4.11h6.365a2.055,2.055,0,0,1,0,4.11Z" fill="#8f4899" stroke="#000" stroke-miterlimit="10" stroke-width="0.299"/>
          </g>
        </g>
        <path id="Trazado_817" data-name="Trazado 817" d="M1239.116,608.619l-23.8-7.141a2.055,2.055,0,0,0-2.559,2.559l7.141,23.8a2.053,2.053,0,0,0,1.876,1.462c.031,0,.062,0,.092,0a2.057,2.057,0,0,0,1.908-1.292l4.433-11.084,11.084-4.434a2.055,2.055,0,0,0-.172-3.876Z" fill="#f5b335" stroke="#000" stroke-miterlimit="10" stroke-width="0.299"/>
      </g>
      <circle id="Elipse_15" data-name="Elipse 15" cx="117.258" cy="117.258" r="117.258" transform="translate(1070.893 496.835)" fill="none" stroke="#625d9c" stroke-miterlimit="10" stroke-width="5.982"/>
    </g>
  </g>
</svg>
