<svg xmlns="http://www.w3.org/2000/svg" width="311.706" height="533.73" viewBox="0 0 311.706 533.73">
  <g id="Grupo_115" data-name="Grupo 115" transform="translate(-1537.233 -2309.542)">
    <g id="Grupo_114" data-name="Grupo 114">
      <g id="Grupo_112" data-name="Grupo 112" transform="translate(-20.729 12.214)">
        <path id="Trazado_832" data-name="Trazado 832" d="M1564.117,2439.652l-.679.1.069.5a3.708,3.708,0,0,0,1.1,1.908,3.858,3.858,0,0,0,1.979.976c4.348.732,10.64-.2,14.117-.836l-.531-4.3-.044-.331-.035-.244-.688.1Z" fill="#625d9c"/>
        <path id="Trazado_833" data-name="Trazado 833" d="M1580.17,2438l.531,4.3c-3.477.636-9.769,1.568-14.117.836a3.858,3.858,0,0,1-1.979-.976,3.708,3.708,0,0,1-1.1-1.908s-6.021,3.372-4.984,8.871,1.49,8.941,1.49,8.941,1.037,4.541,7.024,7.417c3.634,1.751,9.1,2.884,17.263,2.013a84.868,84.868,0,0,0,15.451-3.286h.009l-3.085-23.189s-5.682-3.826-16.322-3.042Z" fill="#dcc7b7"/>
        <path id="Trazado_834" data-name="Trazado 834" d="M1579.307,2436.794a1.137,1.137,0,0,0-1.281-.967l-13.046,1.83a1.129,1.129,0,0,0-.967,1.272l.1.723,15.286-2.135Z" fill="#5d6162" stroke="#25292b" stroke-miterlimit="10" stroke-width="0.871"/>
        <path id="Trazado_835" data-name="Trazado 835" d="M1584.3,2467.487c-8.165.871-13.629-.262-17.263-2.013l.723,5.193,16.654-2.335-.114-.837Z" fill="#625d9c"/>
        <path id="Trazado_836" data-name="Trazado 836" d="M1607.943,2812.766c-32.906,1.795-24.654,17.856-24.654,17.856h80.044c3.268-7.067.209-35.8.209-35.8-13.97.087-18.519,0-31.19,0C1625.721,2811.511,1607.943,2812.766,1607.943,2812.766Z" fill="#dcc7b7"/>
        <path id="Trazado_837" data-name="Trazado 837" d="M1665.816,2307.043l18.24,4.017a21.017,21.017,0,0,1,1.072-3.555l-19.059-2.013A.787.787,0,0,0,1665.816,2307.043Z" fill="#625d9c"/>
        <path id="Trazado_838" data-name="Trazado 838" d="M1720.021,2457.073c-9.177,3.137-26.71,6.231-45.542,8.915V2466l7.233,64.244v.009L1594.7,2794.823h53.639L1731.908,2543a22.607,22.607,0,0,0,.827-10.858Z" fill="#18988b"/>
        <path id="Trazado_839" data-name="Trazado 839" d="M1679.882,2393.561a85.539,85.539,0,0,0-5.4,25.115c2.684-.383,5.376-.775,8.043-1.194h.009l3.982-3.381a5.688,5.688,0,0,0,2-3.747l1.865-16.793Z" fill="#18988b"/>
        <path id="Trazado_840" data-name="Trazado 840" d="M1729.189,2358.659s-33.621,12.933-37.055,57.229q-4.745.836-9.6,1.594h-.009c-2.667.419-5.359.811-8.043,1.194-39.643,5.639-79.774,7.53-79.774,7.53l1.97,14.806,3.085,23.189,1.368,10.3s38.867-3.582,73.351-8.506v-.008c18.832-2.684,36.365-5.778,45.542-8.915,25.978-8.863,32.706-17.116,36.679-52.262a51.864,51.864,0,0,0,.305-7.947C1755.855,2367.975,1729.189,2358.659,1729.189,2358.659Z" fill="#cda787" stroke="#2d2a26" stroke-miterlimit="10" stroke-width="0.871"/>
        <path id="Trazado_841" data-name="Trazado 841" d="M1725.6,2355.077s-19.486,10.318-31.712,29.926h-10.248l-.122-.061c-1.29,2.71-2.519,5.6-3.634,8.619h10.492l-1.865,16.793a5.688,5.688,0,0,1-2,3.747l-3.982,3.381q4.85-.757,9.6-1.594c3.434-44.3,37.055-57.229,37.055-57.229A30.282,30.282,0,0,1,1725.6,2355.077Z" fill="#18988b"/>
        <path id="Trazado_842" data-name="Trazado 842" d="M1698.627,2360.489a142.234,142.234,0,0,0-15.111,24.453l.122.061h10.248c12.226-19.608,31.712-29.926,31.712-29.926a37.163,37.163,0,0,1-3.782-5.35s-11.277,9.333-22.3,9.333A11.441,11.441,0,0,1,1698.627,2360.489Z" fill="#cda787" stroke="#2d2a26" stroke-miterlimit="10" stroke-width="0.871"/>
        <path id="Trazado_843" data-name="Trazado 843" d="M1684.056,2311.06l17.847,3.93,8.767,1.935c.575-4.357,3.991-4.41,3.991-4.41-3.416-9.908-11.7-16.226-19.573-14.422-4.557,1.037-8.06,4.584-9.96,9.412A21.017,21.017,0,0,0,1684.056,2311.06Z" fill="#625d9c"/>
        <path id="Trazado_844" data-name="Trazado 844" d="M1707.045,2322.616a3.91,3.91,0,0,0,.2,1.926l.053.156a4.533,4.533,0,0,0,5.8,2.685l2.762-1a26.541,26.541,0,0,0,.131-8.287l-5.316-1.168-8.767-1.935s-.069,2.371,1.612,3.1C1705.075,2318.773,1707.568,2318.694,1707.045,2322.616Z" fill="#df6a2e"/>
        <path id="Trazado_845" data-name="Trazado 845" d="M1710.67,2316.925l5.316,1.168c-.113-.846-.27-1.708-.462-2.571a27.257,27.257,0,0,0-.863-3.007S1711.245,2312.568,1710.67,2316.925Z" fill="#df6a2e"/>
        <path id="Trazado_846" data-name="Trazado 846" d="M1713.093,2327.383a4.533,4.533,0,0,1-5.8-2.685l-.053-.156a3.91,3.91,0,0,1-.2-1.926c.523-3.922-1.97-3.843-3.53-4.523-1.681-.732-1.612-3.1-1.612-3.1l-17.847-3.93a27.249,27.249,0,0,0,.183,11.608c2.161,9.464,8.645,16.392,15.642,17.569,0,0,3.451,11.572-.366,18.823,11.024,0,22.3-9.333,22.3-9.333a53.591,53.591,0,0,1-5.891-15.4,19.99,19.99,0,0,1-.436-3.939v-.122a22.555,22.555,0,0,1,.366-3.887Z" fill="#dcc7b7"/>
        <path id="Trazado_847" data-name="Trazado 847" d="M1779.315,2463.582c-9.769-31.982-22.266-66.718-22.266-66.718h-.044a51.864,51.864,0,0,1-.305,7.947c-3.973,35.146-10.7,43.4-36.679,52.262l12.714,75.067a22.607,22.607,0,0,1-.827,10.858l-83.564,251.825h51.808l33.812-88.183,23.712-61.864,22.545-58.806a170.769,170.769,0,0,0,9.342-34.98,160.262,160.262,0,0,0,1.882-28.035c-.087-4.236-.339-8.584-.819-12.941a117.786,117.786,0,0,0-1.987-12.288C1786.565,2488.288,1783.158,2476.149,1779.315,2463.582Z" fill="#18988b"/>
        <path id="Trazado_848" data-name="Trazado 848" d="M1733.964,2706.64c-3.338,46.615,23.085,83.6,23.085,83.6l41-2.353c0-.009.009-.026.009-.035,1.438-.069,2.78-.139,4.035-.2.122,0,.244-.009.366-.018l11.895-.688s-30.9-40.392-56.68-142.169Z" fill="#18988b"/>
        <path id="Trazado_849" data-name="Trazado 849" d="M1789.563,2550.99a170.769,170.769,0,0,1-9.342,34.98l-22.545,58.806c25.778,101.777,56.68,142.169,56.68,142.169l54.518-3.128s-41.542-60.837-79-232.74Z" fill="#18988b"/>
        <path id="Trazado_850" data-name="Trazado 850" d="M1790.94,2509.63l7.372-9,6.833-8.348-25.822-28.7h-.008c3.843,12.567,7.25,24.706,9.324,34.144a117.786,117.786,0,0,1,1.987,12.288Z" fill="#cda787" stroke="#2d2a26" stroke-miterlimit="10" stroke-width="0.871"/>
        <path id="Trazado_851" data-name="Trazado 851" d="M1798.312,2500.628l-7.372,9,.227.183s4.017,17.569,24.243,25.238a4.192,4.192,0,0,0,4.218-.785,4.163,4.163,0,0,0,.549-5.76l-21.847-27.861Z" fill="#dcc7b7"/>
        <path id="Trazado_852" data-name="Trazado 852" d="M1802.095,2787.651l-4.044.235c-5.8,16.967-20.619,18.51-20.619,18.51-32.775,3.442-26.579,19.669-26.579,19.669l43.459-2.179,31.425-7.024a8.756,8.756,0,0,0,6.85-8.749c-.27-9.255-3.373-21.822-3.373-21.822-12.209.689-17.22.889-26.753,1.342C1802.339,2787.642,1802.217,2787.651,1802.095,2787.651Z" fill="#dcc7b7"/>
        <path id="Trazado_853" data-name="Trazado 853" d="M1674.479,2465.988c18.832-2.684,36.365-5.778,45.542-8.915,25.978-8.863,32.706-17.116,36.679-52.262a51.864,51.864,0,0,0,.305-7.947c-1.15-28.889-27.816-38.205-27.816-38.205a30.282,30.282,0,0,1-3.591-3.582,37.163,37.163,0,0,1-3.782-5.35,53.591,53.591,0,0,1-5.891-15.4,19.99,19.99,0,0,1-.436-3.939v-.122a22.555,22.555,0,0,1,.366-3.887,26.541,26.541,0,0,0,.131-8.287c-.113-.846-.27-1.708-.462-2.571a27.257,27.257,0,0,0-.863-3.007c-3.416-9.908-11.7-16.226-19.573-14.422-4.557,1.037-8.06,4.584-9.96,9.412a21.017,21.017,0,0,0-1.072,3.555,27.249,27.249,0,0,0,.183,11.608c2.161,9.464,8.645,16.392,15.642,17.569a12.391,12.391,0,0,0,4.8-.131,12.543,12.543,0,0,0,5.656-3" fill="none" stroke="#25292b" stroke-miterlimit="10" stroke-width="0.871"/>
        <path id="Trazado_854" data-name="Trazado 854" d="M1682.522,2417.482c-2.667.419-5.359.811-8.043,1.194-39.643,5.639-79.774,7.53-79.774,7.53l1.97,14.806,3.085,23.189,1.368,10.3s38.867-3.582,73.351-8.506" fill="none" stroke="#25292b" stroke-miterlimit="10" stroke-width="0.871"/>
        <path id="Trazado_855" data-name="Trazado 855" d="M1703.794,2401.343a14.085,14.085,0,0,1-11.66,14.545q-4.745.836-9.6,1.594" fill="none" stroke="#25292b" stroke-miterlimit="10" stroke-width="0.871"/>
        <path id="Trazado_856" data-name="Trazado 856" d="M1699.881,2340.237s3.451,11.572-.366,18.823a11.441,11.441,0,0,1-.888,1.429,142.234,142.234,0,0,0-15.111,24.453c-1.29,2.71-2.519,5.6-3.634,8.619a85.539,85.539,0,0,0-5.4,25.115" fill="none" stroke="#25292b" stroke-miterlimit="10" stroke-width="0.871"/>
        <line id="Línea_77" data-name="Línea 77" x2="1.325" y2="11.8" transform="translate(1681.712 2530.249)" fill="none" stroke="#25292b" stroke-miterlimit="10" stroke-width="0.871"/>
        <path id="Trazado_857" data-name="Trazado 857" d="M1674.479,2465.988V2466l7.233,64.244" fill="none" stroke="#25292b" stroke-miterlimit="10" stroke-width="0.871"/>
        <path id="Trazado_858" data-name="Trazado 858" d="M1681.712,2530.24v.009L1594.7,2794.823h105.447l33.812-88.183,23.712-61.864,22.545-58.806a170.769,170.769,0,0,0,9.342-34.98,160.262,160.262,0,0,0,1.882-28.035c-.087-4.236-.339-8.584-.819-12.941a117.786,117.786,0,0,0-1.987-12.288c-2.074-9.438-5.481-21.577-9.324-34.144-9.769-31.982-22.266-66.718-22.266-66.718" fill="none" stroke="#25292b" stroke-miterlimit="10" stroke-width="0.871"/>
        <path id="Trazado_859" data-name="Trazado 859" d="M1802.095,2787.651l-4.044.235-41,2.353s-26.423-36.984-23.085-83.6" fill="none" stroke="#25292b" stroke-miterlimit="10" stroke-width="0.871"/>
        <path id="Trazado_860" data-name="Trazado 860" d="M1789.877,2551.077c37.455,171.9,79,232.74,79,232.74l-54.518,3.128-11.895.688" fill="none" stroke="#25292b" stroke-miterlimit="10" stroke-width="0.871"/>
        <path id="Trazado_861" data-name="Trazado 861" d="M1729.189,2358.659s-33.621,12.933-37.055,57.229" fill="none" stroke="#25292b" stroke-miterlimit="10" stroke-width="0.871"/>
        <path id="Trazado_862" data-name="Trazado 862" d="M1725.6,2355.077s-19.486,10.318-31.712,29.926h-10.248" fill="none" stroke="#25292b" stroke-miterlimit="10" stroke-width="0.871"/>
        <path id="Trazado_863" data-name="Trazado 863" d="M1679.873,2393.561h10.5l-1.865,16.793a5.688,5.688,0,0,1-2,3.747l-3.982,3.381h-.009" fill="none" stroke="#25292b" stroke-miterlimit="10" stroke-width="0.871"/>
        <path id="Trazado_864" data-name="Trazado 864" d="M1720.021,2457.073l12.714,75.067a22.607,22.607,0,0,1-.827,10.858l-83.564,251.825" fill="none" stroke="#25292b" stroke-miterlimit="10" stroke-width="0.871"/>
        <path id="Trazado_865" data-name="Trazado 865" d="M1814.356,2786.945s-30.9-40.392-56.68-142.169" fill="none" stroke="#25292b" stroke-miterlimit="10" stroke-width="0.871"/>
        <path id="Trazado_866" data-name="Trazado 866" d="M1632.352,2794.823c-6.631,16.688-24.409,17.943-24.409,17.943-32.906,1.795-24.654,17.856-24.654,17.856h80.044c3.268-7.067.209-35.8.209-35.8C1649.572,2794.91,1645.023,2794.823,1632.352,2794.823Z" fill="none" stroke="#25292b" stroke-miterlimit="10" stroke-width="0.871"/>
        <path id="Trazado_867" data-name="Trazado 867" d="M1798.051,2787.886c-5.8,16.967-20.619,18.51-20.619,18.51-32.775,3.442-26.579,19.669-26.579,19.669l43.459-2.179,31.425-7.024a8.756,8.756,0,0,0,6.85-8.749c-.27-9.255-3.373-21.822-3.373-21.822-12.209.689-17.22.889-26.753,1.342-.122.009-.244.018-.366.018-1.255.061-2.6.131-4.035.2C1798.06,2787.86,1798.051,2787.877,1798.051,2787.886Z" fill="none" stroke="#25292b" stroke-miterlimit="10" stroke-width="0.871"/>
        <path id="Trazado_868" data-name="Trazado 868" d="M1567.037,2465.473l.723,5.194,16.654-2.336-.113-.836" fill="none" stroke="#25292b" stroke-miterlimit="10" stroke-width="0.871"/>
        <path id="Trazado_869" data-name="Trazado 869" d="M1579.4,2437.517l.688-.1.035.244.044.331.532,4.3" fill="none" stroke="#25292b" stroke-miterlimit="10" stroke-width="0.871"/>
        <path id="Trazado_870" data-name="Trazado 870" d="M1563.507,2440.245l-.07-.5.68-.1" fill="none" stroke="#25292b" stroke-miterlimit="10" stroke-width="0.871"/>
        <path id="Trazado_871" data-name="Trazado 871" d="M1564.117,2439.652l-.1-.723a1.129,1.129,0,0,1,.967-1.272l13.046-1.83a1.137,1.137,0,0,1,1.281.967l.1.723Z" fill="none" stroke="#25292b" stroke-miterlimit="10" stroke-width="0.871"/>
        <path id="Trazado_872" data-name="Trazado 872" d="M1721.816,2349.727s-11.277,9.333-22.3,9.333" fill="none" stroke="#25292b" stroke-miterlimit="10" stroke-width="0.871"/>
        <path id="Trazado_873" data-name="Trazado 873" d="M1715.986,2318.093l-5.316-1.168-8.767-1.935-17.847-3.93-18.24-4.017a.787.787,0,0,1,.253-1.551l19.059,2.013" fill="none" stroke="#25292b" stroke-miterlimit="10" stroke-width="0.871"/>
        <path id="Trazado_874" data-name="Trazado 874" d="M1714.661,2312.515s-3.416.053-3.991,4.41" fill="none" stroke="#25292b" stroke-miterlimit="10" stroke-width="0.871"/>
        <path id="Trazado_875" data-name="Trazado 875" d="M1701.9,2314.99s-.069,2.371,1.612,3.1c1.56.68,4.053.6,3.53,4.523a3.91,3.91,0,0,0,.2,1.926l.053.156a4.533,4.533,0,0,0,5.8,2.685l2.762-1" fill="none" stroke="#25292b" stroke-miterlimit="10" stroke-width="0.871"/>
        <path id="Trazado_876" data-name="Trazado 876" d="M1596.675,2441.012s-5.682-3.826-16.322-3.042" fill="none" stroke="#25292b" stroke-miterlimit="10" stroke-width="0.871"/>
        <path id="Trazado_877" data-name="Trazado 877" d="M1599.751,2464.2a84.868,84.868,0,0,1-15.451,3.286c-8.165.871-13.629-.262-17.263-2.013-5.987-2.876-7.024-7.417-7.024-7.417s-.462-3.442-1.49-8.941,4.984-8.871,4.984-8.871a3.708,3.708,0,0,0,1.1,1.908,3.858,3.858,0,0,0,1.979.976c4.348.732,10.64-.2,14.117-.836,1.56-.288,2.553-.523,2.553-.523" fill="none" stroke="#25292b" stroke-miterlimit="10" stroke-width="0.871"/>
        <path id="Trazado_878" data-name="Trazado 878" d="M1790.626,2510.014l.314-.384,7.373-9,6.832-8.349-25.821-28.7" fill="none" stroke="#25292b" stroke-miterlimit="10" stroke-width="0.871"/>
        <path id="Trazado_879" data-name="Trazado 879" d="M1791.167,2509.813s4.017,17.569,24.243,25.238a4.192,4.192,0,0,0,4.218-.785,4.163,4.163,0,0,0,.549-5.76l-21.847-27.861" fill="none" stroke="#25292b" stroke-miterlimit="10" stroke-width="0.871"/>
      </g>
    </g>
  </g>
</svg>
