<svg xmlns="http://www.w3.org/2000/svg" width="240.498" height="240.498" viewBox="0 0 240.498 240.498">
  <g id="Grupo_104" data-name="Grupo 104" transform="translate(-1479.146 -529.009)">
    <g id="Grupo_100" data-name="Grupo 100" transform="translate(-3.725 35.165)">
      <g id="Grupo_99" data-name="Grupo 99">
        <path id="Trazado_818" data-name="Trazado 818" d="M1545.909,566.7V674.506a11,11,0,0,0,11,11h99.008a13.2,13.2,0,0,1-13.2-13.2V566.7a13.2,13.2,0,1,0-26.4,0Z" fill="#fafafa" stroke="#000" stroke-miterlimit="10" stroke-width="0.299"/>
        <path id="Trazado_819" data-name="Trazado 819" d="M1565.711,599.7h48.4v4.4h-48.4Z" fill="#f5b335" stroke="#000" stroke-miterlimit="10" stroke-width="0.299"/>
        <path id="Trazado_820" data-name="Trazado 820" d="M1561.31,608.5h57.2v4.4h-57.2Z" fill="#f5b335" stroke="#000" stroke-miterlimit="10" stroke-width="0.299"/>
        <path id="Trazado_821" data-name="Trazado 821" d="M1559.11,579.9h63.806v13.2H1559.11Z" fill="#df6a2e" stroke="#000" stroke-miterlimit="10" stroke-width="0.299"/>
        <path id="Trazado_822" data-name="Trazado 822" d="M1638.972,576.088l-.019-.005a22.04,22.04,0,0,0-3.18-.5l-.321-.024c-.508-.035-1.019-.06-1.535-.06a21.989,21.989,0,0,0-21.555,17.568l-.005.029q-.105.515-.186,1.036a22.287,22.287,0,0,0-.256,3.369,22,22,0,1,0,27.057-21.411Z" fill="#18988b" stroke="#000" stroke-miterlimit="10" stroke-width="0.299"/>
        <path id="Trazado_823" data-name="Trazado 823" d="M1561.31,617.3h59.042v4.4H1561.31Z" fill="#f5b335" stroke="#000" stroke-miterlimit="10" stroke-width="0.299"/>
        <path id="Trazado_824" data-name="Trazado 824" d="M1561.308,626.1H1610.5v4.4h-49.194Z" fill="#f5b335" stroke="#000" stroke-miterlimit="10" stroke-width="0.299"/>
        <path id="Trazado_825" data-name="Trazado 825" d="M1633.917,619.5l-8.8,28.6-8.8-13.2h-17.6l22.166-19.8-.059.079A21.9,21.9,0,0,0,1633.917,619.5Z" fill="#8f4899" stroke="#000" stroke-miterlimit="10" stroke-width="0.299"/>
        <path id="Trazado_826" data-name="Trazado 826" d="M1647.012,615.18a21.9,21.9,0,0,1-13.095,4.321l8.8,28.6,8.8-13.2h17.6l-22.167-19.8Z" fill="#8f4899" stroke="#000" stroke-miterlimit="10" stroke-width="0.299"/>
        <path id="Trazado_827" data-name="Trazado 827" d="M1642.717,656.9v15.4a13.2,13.2,0,1,0,26.4,0V656.9Z" fill="#ececec" stroke="#000" stroke-miterlimit="10" stroke-width="0.299"/>
        <path id="Trazado_828" data-name="Trazado 828" d="M1629.516,553.495H1550.31a13.2,13.2,0,0,0-13.2,13.2h79.207A13.2,13.2,0,0,1,1629.516,553.495Z" fill="#ececec" stroke="#000" stroke-miterlimit="10" stroke-width="0.299"/>
        <path id="Trazado_829" data-name="Trazado 829" d="M1559.11,659.1h70.406v13.2H1559.11Z" fill="#df6a2e" stroke="#000" stroke-miterlimit="10" stroke-width="0.299"/>
        <path id="Trazado_830" data-name="Trazado 830" d="M1643.038,587.971h0c-.011-.01-.023-.018-.033-.028-.286-.272-.581-.532-.89-.777-.055-.044-.112-.083-.167-.125-.274-.211-.552-.414-.841-.6-.082-.053-.168-.1-.251-.152-.271-.168-.544-.332-.828-.48-.1-.053-.205-.1-.307-.148-.273-.134-.546-.266-.83-.381-.119-.049-.243-.088-.364-.134-.271-.1-.541-.2-.82-.285-.152-.046-.309-.079-.463-.119-.253-.066-.5-.135-.761-.186-.222-.044-.449-.07-.674-.1-.2-.028-.389-.066-.588-.085-.432-.043-.867-.066-1.305-.066a13.184,13.184,0,0,0-10.464,21.228l.011.014a13.3,13.3,0,0,0,1.493,1.635l.2.18a13.181,13.181,0,0,0,1.078.864c.02.015.039.031.06.046h0a13.189,13.189,0,0,0,16.745-20.293Z" fill="#f9b5c3" stroke="#000" stroke-miterlimit="10" stroke-width="0.299"/>
      </g>
      <circle id="Elipse_16" data-name="Elipse 16" cx="117.258" cy="117.258" r="117.258" transform="translate(1485.861 496.835)" fill="none" stroke="#625d9c" stroke-miterlimit="10" stroke-width="5.982"/>
    </g>
  </g>
</svg>
