<svg xmlns="http://www.w3.org/2000/svg" width="240.498" height="240.498" viewBox="0 0 240.498 240.498">
  <g id="Grupo_101" data-name="Grupo 101" transform="translate(-219.073 -529.009)">
    <g id="Grupo_81" data-name="Grupo 81" transform="translate(-3.725 35.165)">
      <g id="Grupo_80" data-name="Grupo 80">
        <path id="Trazado_780" data-name="Trazado 780" d="M408.482,650.128H277.612a6.563,6.563,0,0,1-6.543-6.544V571.606a6.563,6.563,0,0,1,6.543-6.544H408.483a6.563,6.563,0,0,1,6.543,6.544v71.978A6.564,6.564,0,0,1,408.482,650.128Z" fill="#18988b" stroke="#000" stroke-miterlimit="10" stroke-width="0.299"/>
        <path id="Trazado_781" data-name="Trazado 781" d="M395.395,643.584H290.7A13.125,13.125,0,0,0,277.612,630.5v-45.8A13.125,13.125,0,0,0,290.7,571.606h104.7a13.125,13.125,0,0,0,13.087,13.087v45.8A13.125,13.125,0,0,0,395.395,643.584Z" fill="#f9b5c3" stroke="#000" stroke-miterlimit="10" stroke-width="0.299"/>
        <g id="Grupo_77" data-name="Grupo 77">
          <ellipse id="Elipse_6" data-name="Elipse 6" cx="26.174" cy="29.446" rx="26.174" ry="29.446" transform="translate(316.873 578.149)" fill="#18988b" stroke="#000" stroke-miterlimit="10" stroke-width="0.299"/>
          <circle id="Elipse_7" data-name="Elipse 7" cx="6.544" cy="6.544" r="6.544" transform="translate(297.243 601.052)" fill="#18988b" stroke="#000" stroke-miterlimit="10" stroke-width="0.299"/>
          <circle id="Elipse_8" data-name="Elipse 8" cx="6.544" cy="6.544" r="6.544" transform="translate(375.765 601.052)" fill="#18988b" stroke="#000" stroke-miterlimit="10" stroke-width="0.299"/>
        </g>
        <path id="Trazado_782" data-name="Trazado 782" d="M346.319,604.323h-6.544a3.271,3.271,0,0,1,0-6.543h9.816a3.272,3.272,0,0,0,0-6.543h-3.272a3.271,3.271,0,1,0-6.543,0,9.815,9.815,0,1,0,0,19.63h6.543a3.272,3.272,0,1,1,0,6.544H336.5a3.271,3.271,0,1,0,0,6.543h3.272a3.271,3.271,0,1,0,6.543,0,9.815,9.815,0,0,0,0-19.631Z" fill="#89c763" stroke="#000" stroke-miterlimit="10" stroke-width="0.299"/>
        <circle id="Elipse_9" data-name="Elipse 9" cx="22.902" cy="22.902" r="22.902" transform="translate(333.232 630.497)" fill="#ffca5d" stroke="#000" stroke-miterlimit="10" stroke-width="0.299"/>
        <circle id="Elipse_10" data-name="Elipse 10" cx="22.902" cy="22.902" r="22.902" transform="translate(362.678 623.954)" fill="#f6b545" stroke="#000" stroke-miterlimit="10" stroke-width="0.299"/>
        <path id="Trazado_783" data-name="Trazado 783" d="M385.58,623.954a22.9,22.9,0,1,0,22.9,22.9A22.761,22.761,0,0,0,385.58,623.954Zm0,39.261a16.359,16.359,0,1,1,16.359-16.359A16.2,16.2,0,0,1,385.58,663.215Z" fill="#df6a2e" stroke="#000" stroke-miterlimit="10" stroke-width="0.299"/>
        <g id="Grupo_78" data-name="Grupo 78">
          <path id="Trazado_784" data-name="Trazado 784" d="M385.58,656.672a3.091,3.091,0,0,1-3.271-3.272V640.313a3.271,3.271,0,1,1,6.543,0V653.4A3.092,3.092,0,0,1,385.58,656.672Z" fill="#df6a2e" stroke="#000" stroke-miterlimit="10" stroke-width="0.299"/>
        </g>
        <circle id="Elipse_11" data-name="Elipse 11" cx="22.902" cy="22.902" r="22.902" transform="translate(333.232 630.497)" fill="#f6b545" stroke="#000" stroke-miterlimit="10" stroke-width="0.299"/>
        <path id="Trazado_785" data-name="Trazado 785" d="M356.134,630.5a22.9,22.9,0,1,0,22.9,22.9A22.761,22.761,0,0,0,356.134,630.5Zm0,39.26A16.358,16.358,0,1,1,372.493,653.4,16.2,16.2,0,0,1,356.134,669.758Z" fill="#df6a2e" stroke="#000" stroke-miterlimit="10" stroke-width="0.299"/>
        <path id="Trazado_786" data-name="Trazado 786" d="M356.134,675.975h0a22.487,22.487,0,0,0,22.9-22.575h-.328a3.479,3.479,0,0,0-3.271,2.945,19.785,19.785,0,0,1-6.217,11.778,18.543,18.543,0,0,1-10.142,4.908A2.931,2.931,0,0,0,356.134,675.975Z" fill="#f6b545" stroke="#000" stroke-miterlimit="10" stroke-width="0.299"/>
        <path id="Trazado_787" data-name="Trazado 787" d="M365.95,663.542a1.2,1.2,0,0,1-.982-.327,1.582,1.582,0,0,1,0-2.29,10.92,10.92,0,0,0,2.945-7.525,1.635,1.635,0,1,1,3.271,0,15.106,15.106,0,0,1-3.6,9.815A3.562,3.562,0,0,1,365.95,663.542Z" fill="#ffcb5b" stroke="#000" stroke-miterlimit="10" stroke-width="0.299"/>
        <path id="Trazado_788" data-name="Trazado 788" d="M356.134,663.215a3.09,3.09,0,0,1-3.271-3.271V646.857a3.271,3.271,0,1,1,6.543,0v13.087A3.091,3.091,0,0,1,356.134,663.215Z" fill="#df6a2e" stroke="#000" stroke-miterlimit="10" stroke-width="0.299"/>
        <g id="Grupo_79" data-name="Grupo 79">
          <circle id="Elipse_12" data-name="Elipse 12" cx="22.902" cy="22.902" r="22.902" transform="translate(349.591 650.128)" fill="#f6b545" stroke="#000" stroke-miterlimit="10" stroke-width="0.299"/>
        </g>
        <path id="Trazado_789" data-name="Trazado 789" d="M372.493,650.128a22.9,22.9,0,1,0,22.9,22.9A22.761,22.761,0,0,0,372.493,650.128Zm0,39.261a16.358,16.358,0,1,1,16.359-16.359A16.2,16.2,0,0,1,372.493,689.389Z" fill="#df6a2e" stroke="#000" stroke-miterlimit="10" stroke-width="0.299"/>
        <path id="Trazado_790" data-name="Trazado 790" d="M372.493,682.846a3.092,3.092,0,0,1-3.272-3.272V666.487a3.272,3.272,0,0,1,6.544,0v13.087A3.092,3.092,0,0,1,372.493,682.846Z" fill="#df6a2e" stroke="#000" stroke-miterlimit="10" stroke-width="0.299"/>
      </g>
      <circle id="Elipse_13" data-name="Elipse 13" cx="117.258" cy="117.258" r="117.258" transform="translate(225.789 496.835)" fill="none" stroke="#625d9c" stroke-miterlimit="10" stroke-width="5.982"/>
    </g>
  </g>
</svg>
