<svg xmlns="http://www.w3.org/2000/svg" width="239.854" height="239.854" viewBox="0 0 239.854 239.854">
  <g id="Grupo_165" data-name="Grupo 165" transform="translate(-221.132 -531.288)">
    <g id="Grupo_164" data-name="Grupo 164" transform="translate(-8.17 15.221)">
      <circle id="Elipse_36" data-name="Elipse 36" cx="116.944" cy="116.944" r="116.944" transform="translate(232.285 519.049)" fill="none" stroke="#df6a2e" stroke-miterlimit="10" stroke-width="5.966"/>
      <g id="Grupo_163" data-name="Grupo 163">
        <path id="Trazado_1037" data-name="Trazado 1037" d="M396.422,598.206a7.718,7.718,0,0,0-7.718-7.717H300.6a7.717,7.717,0,0,0-7.717,7.717v88.107a7.7,7.7,0,0,0,2.411,5.6H388.7v2.117h13.518a7.72,7.72,0,0,0,7.241-5.043C410.365,686.6,410.684,691.162,396.422,598.206Z" fill="#3d4543" stroke="#000" stroke-miterlimit="10" stroke-width="0.298"/>
        <path id="Trazado_1038" data-name="Trazado 1038" d="M401.134,686.313v-57.39l-4.712-30.717a7.718,7.718,0,0,0-7.718-7.717H305.31a7.718,7.718,0,0,0-7.718,7.717v88.107a7.7,7.7,0,0,0,2.411,5.6h88.7v2.117h4.713A7.717,7.717,0,0,0,401.134,686.313Z" fill="#e1e1e1" stroke="#000" stroke-miterlimit="10" stroke-width="0.298"/>
        <path id="Trazado_1039" data-name="Trazado 1039" d="M388.7,590.489H300.6a7.717,7.717,0,0,0-7.717,7.717v88.107a7.717,7.717,0,0,0,7.717,7.718H388.7a7.717,7.717,0,0,0,7.718-7.718V598.206A7.716,7.716,0,0,0,388.7,590.489Z" fill="#fafafa" stroke="#000" stroke-miterlimit="10" stroke-width="0.298"/>
        <path id="Trazado_1040" data-name="Trazado 1040" d="M388.7,590.489H300.6a7.717,7.717,0,0,0-7.717,7.717v19.825H396.422V598.206A7.718,7.718,0,0,0,388.7,590.489Z" fill="#8f4899" stroke="#000" stroke-miterlimit="10" stroke-width="0.298"/>
        <g id="Grupo_158" data-name="Grupo 158">
          <path id="Trazado_1041" data-name="Trazado 1041" d="M375.526,597.389v1.606c0,1.562-1.266,1.65-2.828,1.65h-.942c-1.562,0-2.828-.088-2.828-1.65v-1.606a5.773,5.773,0,1,0,6.6,0Z" fill="#3d4543" stroke="#000" stroke-miterlimit="10" stroke-width="0.298"/>
          <path id="Trazado_1042" data-name="Trazado 1042" d="M346.306,597.389v1.606c0,1.562-1.266,1.414-2.828,1.414h-.942c-1.562,0-2.828.148-2.828-1.414v-1.606a5.773,5.773,0,1,0,6.6,0Z" fill="#3d4543" stroke="#000" stroke-miterlimit="10" stroke-width="0.298"/>
          <path id="Trazado_1043" data-name="Trazado 1043" d="M317.086,597.389v1.606c0,1.821-1.714,1.65-3.77,1.65-1.562,0-2.828-.088-2.828-1.65v-1.606a5.773,5.773,0,1,0,6.6,0Z" fill="#3d4543" stroke="#000" stroke-miterlimit="10" stroke-width="0.298"/>
        </g>
        <rect id="Rectángulo_21" data-name="Rectángulo 21" width="103.543" height="6.598" transform="translate(292.879 618.031)" fill="#df6a2e" stroke="#000" stroke-miterlimit="10" stroke-width="0.298"/>
        <path id="SVGCleanerId_0" data-name="SVGCleanerId 0" d="M314.259,580.458a2.828,2.828,0,0,1,2.827,2.828v15.709a2.828,2.828,0,0,1-2.827,2.828h-.943a2.828,2.828,0,0,1-2.828-2.828V583.286a2.828,2.828,0,0,1,2.828-2.828Z" fill="#585a60" stroke="#000" stroke-miterlimit="10" stroke-width="0.298"/>
        <path id="SVGCleanerId_1" data-name="SVGCleanerId 1" d="M343.478,580.458a2.828,2.828,0,0,1,2.828,2.828v15.709a2.828,2.828,0,0,1-2.828,2.828h-.942a2.828,2.828,0,0,1-2.828-2.828V583.286a2.828,2.828,0,0,1,2.828-2.828Z" fill="#585a60" stroke="#000" stroke-miterlimit="10" stroke-width="0.298"/>
        <path id="SVGCleanerId_2" data-name="SVGCleanerId 2" d="M372.7,580.458a2.828,2.828,0,0,1,2.828,2.828v15.709a2.828,2.828,0,0,1-2.828,2.828h-.942a2.828,2.828,0,0,1-2.828-2.828V583.286a2.828,2.828,0,0,1,2.828-2.828Z" fill="#585a60" stroke="#000" stroke-miterlimit="10" stroke-width="0.298"/>
        <g id="Grupo_159" data-name="Grupo 159">
          <path id="SVGCleanerId_0-2" data-name="SVGCleanerId 0" d="M314.259,580.458a2.828,2.828,0,0,1,2.827,2.828v15.709a2.828,2.828,0,0,1-2.827,2.828h-.943a2.828,2.828,0,0,1-2.828-2.828V583.286a2.828,2.828,0,0,1,2.828-2.828Z" fill="#f5b335" stroke="#000" stroke-miterlimit="10" stroke-width="0.298"/>
        </g>
        <g id="Grupo_160" data-name="Grupo 160">
          <path id="SVGCleanerId_1-2" data-name="SVGCleanerId 1" d="M343.478,580.458a2.828,2.828,0,0,1,2.828,2.828v15.709a2.828,2.828,0,0,1-2.828,2.828h-.942a2.828,2.828,0,0,1-2.828-2.828V583.286a2.828,2.828,0,0,1,2.828-2.828Z" fill="#f5b335" stroke="#000" stroke-miterlimit="10" stroke-width="0.298"/>
        </g>
        <g id="Grupo_161" data-name="Grupo 161">
          <path id="SVGCleanerId_2-2" data-name="SVGCleanerId 2" d="M372.7,580.458a2.828,2.828,0,0,1,2.828,2.828v15.709a2.828,2.828,0,0,1-2.828,2.828h-.942a2.828,2.828,0,0,1-2.828-2.828V583.286a2.828,2.828,0,0,1,2.828-2.828Z" fill="#f5b335" stroke="#000" stroke-miterlimit="10" stroke-width="0.298"/>
        </g>
        <g id="Grupo_162" data-name="Grupo 162">
          <path id="Trazado_1044" data-name="Trazado 1044" d="M331.39,635.458h-5.819a1.767,1.767,0,0,0,0,3.535h5.819a1.767,1.767,0,0,0,0-3.535Z" fill="#18988b" stroke="#000" stroke-miterlimit="10" stroke-width="0.298"/>
          <path id="Trazado_1045" data-name="Trazado 1045" d="M347.566,635.458h-5.819a1.767,1.767,0,0,0,0,3.535h5.819a1.767,1.767,0,1,0,0-3.535Z" fill="#18988b" stroke="#000" stroke-miterlimit="10" stroke-width="0.298"/>
          <path id="Trazado_1046" data-name="Trazado 1046" d="M363.742,635.458h-5.819a1.767,1.767,0,1,0,0,3.535h5.819a1.767,1.767,0,1,0,0-3.535Z" fill="#18988b" stroke="#000" stroke-miterlimit="10" stroke-width="0.298"/>
          <path id="Trazado_1047" data-name="Trazado 1047" d="M379.918,635.458H374.1a1.767,1.767,0,1,0,0,3.535h5.819a1.767,1.767,0,0,0,0-3.535Z" fill="#18988b" stroke="#000" stroke-miterlimit="10" stroke-width="0.298"/>
          <path id="Trazado_1048" data-name="Trazado 1048" d="M315.215,649.7h-5.82a1.767,1.767,0,0,0,0,3.535h5.82a1.767,1.767,0,0,0,0-3.535Z" fill="#18988b" stroke="#000" stroke-miterlimit="10" stroke-width="0.298"/>
          <path id="Trazado_1049" data-name="Trazado 1049" d="M331.39,649.7h-5.819a1.767,1.767,0,0,0,0,3.535h5.819a1.767,1.767,0,0,0,0-3.535Z" fill="#18988b" stroke="#000" stroke-miterlimit="10" stroke-width="0.298"/>
          <path id="Trazado_1050" data-name="Trazado 1050" d="M347.566,649.7h-5.819a1.767,1.767,0,0,0,0,3.535h5.819a1.767,1.767,0,1,0,0-3.535Z" fill="#18988b" stroke="#000" stroke-miterlimit="10" stroke-width="0.298"/>
          <path id="Trazado_1051" data-name="Trazado 1051" d="M363.742,649.7h-5.819a1.767,1.767,0,1,0,0,3.535h5.819a1.767,1.767,0,1,0,0-3.535Z" fill="#18988b" stroke="#000" stroke-miterlimit="10" stroke-width="0.298"/>
          <path id="Trazado_1052" data-name="Trazado 1052" d="M379.918,649.7H374.1a1.767,1.767,0,1,0,0,3.535h5.819a1.767,1.767,0,0,0,0-3.535Z" fill="#18988b" stroke="#000" stroke-miterlimit="10" stroke-width="0.298"/>
          <path id="Trazado_1053" data-name="Trazado 1053" d="M315.215,663.936h-5.82a1.768,1.768,0,0,0,0,3.535h5.82a1.768,1.768,0,0,0,0-3.535Z" fill="#18988b" stroke="#000" stroke-miterlimit="10" stroke-width="0.298"/>
          <path id="Trazado_1054" data-name="Trazado 1054" d="M331.39,663.936h-5.819a1.768,1.768,0,0,0,0,3.535h5.819a1.768,1.768,0,0,0,0-3.535Z" fill="#18988b" stroke="#000" stroke-miterlimit="10" stroke-width="0.298"/>
          <path id="Trazado_1055" data-name="Trazado 1055" d="M347.566,663.936h-5.819a1.768,1.768,0,0,0,0,3.535h5.819a1.768,1.768,0,1,0,0-3.535Z" fill="#18988b" stroke="#000" stroke-miterlimit="10" stroke-width="0.298"/>
          <path id="Trazado_1056" data-name="Trazado 1056" d="M363.742,663.936h-5.819a1.768,1.768,0,1,0,0,3.535h5.819a1.768,1.768,0,1,0,0-3.535Z" fill="#18988b" stroke="#000" stroke-miterlimit="10" stroke-width="0.298"/>
          <path id="Trazado_1057" data-name="Trazado 1057" d="M379.918,663.936H374.1a1.768,1.768,0,1,0,0,3.535h5.819a1.768,1.768,0,0,0,0-3.535Z" fill="#18988b" stroke="#000" stroke-miterlimit="10" stroke-width="0.298"/>
          <path id="Trazado_1058" data-name="Trazado 1058" d="M315.215,678.175h-5.82a1.768,1.768,0,0,0,0,3.535h5.82a1.768,1.768,0,0,0,0-3.535Z" fill="#18988b" stroke="#000" stroke-miterlimit="10" stroke-width="0.298"/>
          <path id="Trazado_1059" data-name="Trazado 1059" d="M331.39,678.175h-5.819a1.768,1.768,0,0,0,0,3.535h5.819a1.768,1.768,0,0,0,0-3.535Z" fill="#18988b" stroke="#000" stroke-miterlimit="10" stroke-width="0.298"/>
          <path id="Trazado_1060" data-name="Trazado 1060" d="M347.566,678.175h-5.819a1.768,1.768,0,0,0,0,3.535h5.819a1.768,1.768,0,1,0,0-3.535Z" fill="#18988b" stroke="#000" stroke-miterlimit="10" stroke-width="0.298"/>
          <path id="Trazado_1061" data-name="Trazado 1061" d="M363.742,678.175h-5.819a1.768,1.768,0,1,0,0,3.535h5.819a1.768,1.768,0,1,0,0-3.535Z" fill="#18988b" stroke="#000" stroke-miterlimit="10" stroke-width="0.298"/>
        </g>
      </g>
    </g>
  </g>
</svg>
