<svg xmlns="http://www.w3.org/2000/svg" width="240.155" height="240.155" viewBox="0 0 240.155 240.155">
  <g id="Grupo_134" data-name="Grupo 134" transform="translate(-644.716 -512.723)">
    <circle id="Elipse_32" data-name="Elipse 32" cx="117.091" cy="117.091" r="117.091" transform="translate(647.703 515.71)" fill="none" stroke="#f5b335" stroke-miterlimit="10" stroke-width="5.973"/>
    <g id="Grupo_133" data-name="Grupo 133">
      <path id="Trazado_949" data-name="Trazado 949" d="M803.794,583.363V684.348a7.3,7.3,0,0,1-7.3,7.3H725.076a7.3,7.3,0,0,1-7.3-7.3V583.361a7.3,7.3,0,0,1,7.3-7.3h71.413a7.3,7.3,0,0,1,7.3,7.3Z" fill="#fafafa" stroke="#000" stroke-miterlimit="10" stroke-width="0.299"/>
      <path id="Trazado_950" data-name="Trazado 950" d="M803.795,583.363V684.348a7.3,7.3,0,0,1-7.3,7.3h-7.545a7.3,7.3,0,0,0,7.3-7.3V583.363a7.3,7.3,0,0,0-7.306-7.3h7.548a7.3,7.3,0,0,1,7.306,7.3Z" fill="#e1e1e1" stroke="#000" stroke-miterlimit="10" stroke-width="0.299"/>
      <path id="Trazado_951" data-name="Trazado 951" d="M780.7,587.479v6.28a1.366,1.366,0,0,1-1.366,1.365H741.853a1.366,1.366,0,0,1-1.366-1.365v-6.28a1.366,1.366,0,0,1,1.366-1.365h37.478A1.366,1.366,0,0,1,780.7,587.479Z" fill="#df6a2e" stroke="#000" stroke-miterlimit="10" stroke-width="0.299"/>
      <g id="Grupo_127" data-name="Grupo 127">
        <path id="Trazado_952" data-name="Trazado 952" d="M821.947,627.576a1.813,1.813,0,0,1-1.871-2.519l13.205-30.582a.873.873,0,0,0-.455-1.147l-3.692-1.594a1.863,1.863,0,0,1-1.036-2.361,1.812,1.812,0,0,1,2.4-1l6.193,2.675a1.852,1.852,0,0,1,.621.419,1.82,1.82,0,0,1,.357,1.977L823.4,626.494A1.814,1.814,0,0,1,821.947,627.576Z" fill="#18988b" stroke="#000" stroke-miterlimit="10" stroke-width="0.299"/>
      </g>
      <path id="Trazado_953" data-name="Trazado 953" d="M813.661,627.378,792.774,675.75l-7.783-1.164-7.781-5.557,20.884-48.373,8.473.216Z" fill="#8f4899" stroke="#000" stroke-miterlimit="10" stroke-width="0.299"/>
      <path id="Trazado_954" data-name="Trazado 954" d="M830.478,579.307a5.6,5.6,0,0,1-.422,2.866l-2.188,5.066-5.838-1.124-4.461-3.322,2.19-5.069a5.608,5.608,0,0,1,10.719,1.583Z" fill="#18988b" stroke="#000" stroke-miterlimit="10" stroke-width="0.299"/>
      <path id="Trazado_955" data-name="Trazado 955" d="M830.5,588.376l-16.841,39-15.566-6.722,16.113-37.31a1.84,1.84,0,0,1,2.419-.96Z" fill="#f9b5c3" stroke="#000" stroke-miterlimit="10" stroke-width="0.299"/>
      <path id="Trazado_956" data-name="Trazado 956" d="M786.592,673.079v0l-9.382-4.052Z" fill="#5986cb" stroke="#000" stroke-miterlimit="10" stroke-width="0.299"/>
      <path id="Trazado_957" data-name="Trazado 957" d="M792.774,675.75l-11.7,10.993a2.281,2.281,0,0,1-3.844-1.658l0-3.2-.018-12.854,9.385,4.053Z" fill="#18988b" stroke="#000" stroke-miterlimit="10" stroke-width="0.299"/>
      <g id="Grupo_128" data-name="Grupo 128">
        <path id="Trazado_958" data-name="Trazado 958" d="M790.166,608.051H731.042a1.812,1.812,0,0,1,0-3.624h59.124a1.812,1.812,0,0,1,0,3.624Z" fill="#625d9c" stroke="#000" stroke-miterlimit="10" stroke-width="0.299"/>
      </g>
      <g id="Grupo_129" data-name="Grupo 129">
        <path id="Trazado_959" data-name="Trazado 959" d="M790.166,619.453H731.042a1.812,1.812,0,0,1,0-3.624h59.124a1.812,1.812,0,0,1,0,3.624Z" fill="#625d9c" stroke="#000" stroke-miterlimit="10" stroke-width="0.299"/>
      </g>
      <g id="Grupo_130" data-name="Grupo 130">
        <path id="Trazado_960" data-name="Trazado 960" d="M775.432,630.855h-44.39a1.813,1.813,0,0,1,0-3.625h44.39a1.813,1.813,0,0,1,0,3.625Z" fill="#625d9c" stroke="#000" stroke-miterlimit="10" stroke-width="0.299"/>
      </g>
      <g id="Grupo_131" data-name="Grupo 131">
        <path id="Trazado_961" data-name="Trazado 961" d="M748.8,642.256H731.042a1.812,1.812,0,1,1,0-3.624H748.8a1.812,1.812,0,0,1,0,3.624Z" fill="#625d9c" stroke="#000" stroke-miterlimit="10" stroke-width="0.299"/>
      </g>
      <g id="Grupo_132" data-name="Grupo 132">
        <path id="Trazado_962" data-name="Trazado 962" d="M749.841,677.576q-.323,0-.657-.02c-2.868-.167-4.552-1.66-6.037-2.977-1.393-1.235-2.494-2.211-4.569-2.321a6.864,6.864,0,0,0-6.053,3.422,1.812,1.812,0,0,1-3.187-1.726c.124-.231,3.1-5.645,9.43-5.315a10.424,10.424,0,0,1,6.784,3.229c1.294,1.147,2.229,1.976,3.843,2.07a7.1,7.1,0,0,0,6.357-3.385,1.812,1.812,0,1,1,3.17,1.757,10.8,10.8,0,0,1-9.081,5.266Z" fill="#18988b" stroke="#000" stroke-miterlimit="10" stroke-width="0.299"/>
      </g>
    </g>
  </g>
</svg>
