<svg xmlns="http://www.w3.org/2000/svg" width="239.854" height="239.854" viewBox="0 0 239.854 239.854">
  <g id="Grupo_166" data-name="Grupo 166" transform="translate(-641.821 -531.288)">
    <g id="Grupo_142" data-name="Grupo 142" transform="translate(-8.17 15.221)">
      <g id="Grupo_141" data-name="Grupo 141">
        <path id="Trazado_997" data-name="Trazado 997" d="M718.539,683.635h13.652V703.4l2.149,2.577h71.155l2.3-1.717V684.3h12.316l2.622-1.986V668.833c0-7.91-5.064-14.825-11.18-17.342l-19.186-7.43h0l-3.092.743-5.7,2.792H755.365l-4.868-3.578h-3.086l-19.133,7.473A19.144,19.144,0,0,0,717.1,668.833v13.484Z" fill="#18988b" stroke="#000" stroke-miterlimit="10" stroke-width="0.298"/>
        <g id="Grupo_139" data-name="Grupo 139">
          <path id="Trazado_998" data-name="Trazado 998" d="M781.833,639.7h0Z" fill="#dcc7b7" stroke="#000" stroke-miterlimit="10" stroke-width="0.298"/>
          <path id="Trazado_999" data-name="Trazado 999" d="M781.833,639.7a2.059,2.059,0,0,1-.484-1.316l-.006-6.795-1.276-.553h-20.8l-.8.522h0v6.812a1.891,1.891,0,0,1-.48,1.323h0v.936h0l7.324,6.062-.43,1.432h0l.309.817h9.44l.609-1.1-.477-1.575,7.064-5.537Z" fill="#dcc7b7" stroke="#000" stroke-miterlimit="10" stroke-width="0.298"/>
        </g>
        <path id="Trazado_1000" data-name="Trazado 1000" d="M765.992,648.938h7.844v57.035h-7.844Z" fill="#f9b5c3" stroke="#000" stroke-miterlimit="10" stroke-width="0.298"/>
        <g id="Grupo_140" data-name="Grupo 140">
          <path id="Trazado_1001" data-name="Trazado 1001" d="M777.637,653.381a2.032,2.032,0,0,0,2.981.428l11.754-9.748-9.7-3.757a2.075,2.075,0,0,1-.838-.607l-7.2,5.967a2.033,2.033,0,0,0-.387,2.7Z" fill="#f9b5c3" stroke="#000" stroke-miterlimit="10" stroke-width="0.298"/>
          <path id="Trazado_1002" data-name="Trazado 1002" d="M759.217,653.809a2.032,2.032,0,0,0,2.981-.428l3.387-5.016a2.033,2.033,0,0,0-.387-2.7l-7.2-5.973a2.244,2.244,0,0,1-.4.351l-10.182,3.976Z" fill="#f9b5c3" stroke="#000" stroke-miterlimit="10" stroke-width="0.298"/>
        </g>
        <path id="Trazado_1003" data-name="Trazado 1003" d="M800.369,581.78c-3.932-5.093-7.882-7.129-9.977-7.907a.357.357,0,0,1,.069-.689l2.909-.438a.357.357,0,0,0,.237-.564c-2.868-3.885-10.84-8.227-20.634-8.549-16.4,0-22.464,8.33-23.34,12.442a1.98,1.98,0,0,1-1.863,1.536c-3.571.176-10.577,2.864-4.4,22.819l1.033.913h6.213v-4.2l6.056-3.341.626-4.965h24.535l2.482,6.253,4.01,1.385v3.956h7.66a20.339,20.339,0,0,1,4.361-12.734,4.817,4.817,0,0,0,.023-5.916Z" fill="#625d9c" stroke="#000" stroke-miterlimit="10" stroke-width="0.298"/>
        <path id="Trazado_1004" data-name="Trazado 1004" d="M807.5,682.317a2,2,0,0,0-2,2v21.653h13.517a3.726,3.726,0,0,0,3.726-3.726v-19.93Z" fill="#dcc7b7" stroke="#000" stroke-miterlimit="10" stroke-width="0.298"/>
        <path id="Trazado_1005" data-name="Trazado 1005" d="M800.131,607.162a7.864,7.864,0,0,0-4.3-6.808v-.006c-.026-.014-.052-.025-.078-.039-.108-.058-.219-.111-.33-.164-.127-.062-.255-.12-.385-.176-.111-.047-.222-.094-.335-.137-.15-.057-.3-.108-.455-.157-.1-.03-.188-.064-.285-.092-.24-.068-.484-.126-.73-.174-.086-.016-.173-.027-.26-.041-.178-.029-.356-.054-.536-.072-.1-.01-.193-.017-.29-.023-.181-.011-.363-.016-.545-.016-.086,0-.172,0-.258,0-.266.009-.532.027-.8.062V596.7a1.931,1.931,0,0,0-1.931-1.931,3.873,3.873,0,0,1-3.873-3.872,4.318,4.318,0,0,0-3.227-4.182,46.463,46.463,0,0,0-20.369-.649v-.011c-.072.013-.142.034-.213.047-.043.009-.087.014-.13.023v.007c-.868.172-1.734.36-2.591.583a4.316,4.316,0,0,0-3.227,4.182,3.873,3.873,0,0,1-3.872,3.872,1.931,1.931,0,0,0-1.932,1.931v2.615a8.063,8.063,0,0,0-9.579,7.848h0a8.065,8.065,0,0,0,9.592,7.846L749.2,615a20.245,20.245,0,0,0,12.321,18.2,21.418,21.418,0,0,0,13.37,1.1l.034.013c.171-.042.336-.1.506-.148.137-.037.281-.064.416-.1l-.028-.009a19.93,19.93,0,0,0,2.389-.853A20.245,20.245,0,0,0,790.533,615l.006.007h0c.3.045.6.071.892.088.087.005.173.007.26.009q.326.009.643,0c.082,0,.165-.005.246-.01.273-.019.543-.048.807-.092.065-.011.127-.027.191-.039q.3-.057.6-.133c.1-.026.194-.054.29-.083q.252-.077.5-.17c.086-.032.173-.061.257-.1.21-.087.417-.181.617-.284v0A7.882,7.882,0,0,0,800.131,607.162Z" fill="#dcc7b7" stroke="#000" stroke-miterlimit="10" stroke-width="0.298"/>
        <path id="Trazado_1006" data-name="Trazado 1006" d="M732.338,682.317H717.1v19.93a3.726,3.726,0,0,0,3.725,3.726H734.34V684.32A2,2,0,0,0,732.338,682.317Z" fill="#dcc7b7" stroke="#000" stroke-miterlimit="10" stroke-width="0.298"/>
      </g>
      <circle id="Elipse_33" data-name="Elipse 33" cx="116.944" cy="116.944" r="116.944" transform="translate(652.974 519.049)" fill="none" stroke="#df6a2e" stroke-miterlimit="10" stroke-width="5.966"/>
    </g>
  </g>
</svg>
