<svg xmlns="http://www.w3.org/2000/svg" width="1000.644" height="321.547" viewBox="0 0 1000.644 321.547">
  <g id="Grupo_57" data-name="Grupo 57" transform="translate(-462.187 -2495.64)">
    <g id="Grupo_44" data-name="Grupo 44" transform="translate(-1.467 15.051)">
      <path id="Trazado_308" data-name="Trazado 308" d="M717.714,2512.012v.007c-.072.764-.093,1.557-.093,2.53,0,.525.014,1.051.057,1.563h-.021s-2.248-2.846-1.578-4.028C716.641,2511.083,717.469,2511.767,717.714,2512.012Z" fill="#cda787" stroke="#2d2a26" stroke-miterlimit="10" stroke-width="0.721"/>
      <path id="Trazado_309" data-name="Trazado 309" d="M744.965,2514.549a16.184,16.184,0,0,0-.216-2.45l.086-.015s1.038-1.189,1.708,0-1.578,4.028-1.578,4.028h-.058C744.951,2515.6,744.965,2515.074,744.965,2514.549Z" fill="#cda787" stroke="#2d2a26" stroke-miterlimit="10" stroke-width="0.721"/>
      <path id="Trazado_310" data-name="Trazado 310" d="M1319.189,2643.214v79.576h-50.445v-79.576a15.879,15.879,0,0,1,14.973-15.852c.3-.022.6-.029.915-.029H1303.3A15.885,15.885,0,0,1,1319.189,2643.214Z" fill="#cda787" stroke="#2d2a26" stroke-miterlimit="10" stroke-width="0.721"/>
      <path id="Trazado_311" data-name="Trazado 311" d="M1301.161,2722.79l-6.074,77.947a1.124,1.124,0,0,1-2.241,0l-6.074-77.947Z" fill="#3d4543"/>
      <path id="Trazado_312" data-name="Trazado 312" d="M1268.744,2687.563v35.227h-77.89c-.533-10.463-.987-23.173-2.125-35.227Z" fill="#cda787" stroke="#2d2a26" stroke-miterlimit="10" stroke-width="0.721"/>
      <path id="Trazado_313" data-name="Trazado 313" d="M1228.74,2626.973a3.016,3.016,0,1,1-3.019,3.019A3.012,3.012,0,0,1,1228.74,2626.973Z" fill="#3d4543"/>
      <path id="Trazado_314" data-name="Trazado 314" d="M1228.74,2633a3.016,3.016,0,1,0-3.019-3.012A3.011,3.011,0,0,0,1228.74,2633Zm15.765-56.332c44.738.843,39.212,50.661,39.212,50.661v.029a15.879,15.879,0,0,0-14.973,15.852v44.349h-80.015c-1.168-12.35-3.041-24.009-6.428-31.834-6.852-15.808-19.987-14.432-27.87-11.817,19.664-9.021,40.408-21.421,43.751-27.661,5.39-10.08-14.908-25.125-39.046-42.022a181.391,181.391,0,0,0-19.606-11.773C1166.551,2574.727,1199.789,2575.829,1244.505,2576.672Z" fill="#cda787" stroke="#2d2a26" stroke-miterlimit="10" stroke-width="0.721"/>
      <path id="Trazado_315" data-name="Trazado 315" d="M1195.012,2779.287c27.207,1.484,20.376,14.764,20.376,14.764h-66.174c-2.7-5.844-.18-29.6-.18-29.6,11.558.072,15.319.007,25.8,0C1180.306,2778.249,1195.012,2779.287,1195.012,2779.287Z" fill="#dcc7b7"/>
      <path id="Trazado_316" data-name="Trazado 316" d="M1200.358,2748.239v12.991a3.22,3.22,0,0,1-3.221,3.221H1129.2a3.22,3.22,0,0,1-3.221-3.221v-12.991a3.218,3.218,0,0,1,3.221-3.214h67.932A3.218,3.218,0,0,1,1200.358,2748.239Z" fill="#8f4899" opacity="0.5"/>
      <path id="Trazado_317" data-name="Trazado 317" d="M1137.844,2650.743a68.6,68.6,0,0,1-14.173,3.754l-1.52-10.145-3.538-23.677-.547-3.653s6.088-1.225,13.87-3.343c0,0,5.519,14.23,5.908,37.057Zm-11.86-25.665a2.5,2.5,0,1,0-2.5-2.5A2.5,2.5,0,0,0,1125.984,2625.078Z" fill="#df6a2e"/>
      <path id="Trazado_318" data-name="Trazado 318" d="M1125.984,2687.563c3.106,6.441,6.175,17.228,7.4,35.227H1030.953c1.225-18,4.294-28.786,7.4-35.227A213.246,213.246,0,0,0,1125.984,2687.563Z" fill="#cda787" stroke="#2d2a26" stroke-miterlimit="10" stroke-width="0.721"/>
      <circle id="Elipse_1" data-name="Elipse 1" cx="2.5" cy="2.5" r="2.5" transform="translate(1123.484 2620.077)" fill="#df6a2e"/>
      <path id="Trazado_319" data-name="Trazado 319" d="M1112.532,2649.093c-4.936.786-10.311.641-12.422-.245-4.078-1.708,0-3.8,0-3.8a34.68,34.68,0,0,0,8.61-5.872c4.453-4.36,4.518-8.193,4.071-10.254-1.145-.086-6.838-.569-8.711-1.592-2.082-1.139-2.752-4.583.281-4.756,3.142-.18,14.245-1.9,14.245-1.9h.007l3.538,23.677C1121.308,2646.838,1117.115,2648.365,1112.532,2649.093Z" fill="#dcc7b7"/>
      <path id="Trazado_320" data-name="Trazado 320" d="M1103.994,2639.38a1.562,1.562,0,0,1,1.563,1.564,1.575,1.575,0,0,1-1.563,1.563h-3.034a1.559,1.559,0,0,1-1.1-2.666,1.528,1.528,0,0,1,1.1-.461Z" fill="#18988b"/>
      <path id="Trazado_321" data-name="Trazado 321" d="M1103.288,2603.635a2.5,2.5,0,1,1,2.5-2.508A2.51,2.51,0,0,1,1103.288,2603.635Z" fill="#df6a2e"/>
      <path id="Trazado_322" data-name="Trazado 322" d="M1103.287,2632.795v3.48H1099.2l-.367-3.351,1.167-.13Z" fill="#f5b335"/>
      <path id="Trazado_323" data-name="Trazado 323" d="M1100,2581.586a2.5,2.5,0,1,1,2.507-2.507A2.5,2.5,0,0,1,1100,2581.586Z" fill="#df6a2e"/>
      <path id="Trazado_324" data-name="Trazado 324" d="M1097.343,2512.8c.67,1.189-1.578,4.028-1.578,4.028h-.058c.044-.512.058-1.031.058-1.557a23.094,23.094,0,0,0-.13-2.471S1096.673,2511.622,1097.343,2512.8Z" fill="#dcc7b7"/>
      <path id="Trazado_325" data-name="Trazado 325" d="M1095.117,2504.705l.187,5.944-2.01-1.513a13.138,13.138,0,0,0-7.9-2.644h-6.542a13.1,13.1,0,0,0-7.767,2.543l-2.2,1.614v-5.368c0-2.413.965-6.852,2.673-8.56l.288-.295a9.113,9.113,0,0,1,6.442-2.666h7.738a9.113,9.113,0,0,1,6.442,2.666,9.453,9.453,0,0,1,1.916,3.884A19.659,19.659,0,0,1,1095.117,2504.705Z" fill="#3d4543"/>
      <path id="Trazado_326" data-name="Trazado 326" d="M1099.375,2565.8a6.785,6.785,0,0,0-7.184-2.1.827.827,0,0,1-.994-.49v-.014a.814.814,0,0,1-.007-.612l3.019-7.941c1.88-5.137,2.313-8.675,1.974-11.11-.562-4.093-3.307-5.066-5.008-5.267,7.112.3,10.239,3.782,11.3,8.17C1104.455,2554.566,1099.375,2565.8,1099.375,2565.8Z" fill="#df6a2e"/>
      <path id="Trazado_327" data-name="Trazado 327" d="M1103.288,2603.635a2.5,2.5,0,1,0-2.508-2.508A2.508,2.508,0,0,0,1103.288,2603.635ZM1100,2581.586a2.5,2.5,0,1,0-2.5-2.507A2.509,2.509,0,0,0,1100,2581.586Zm-7.811-17.884a6.785,6.785,0,0,1,7.184,2.1s5.08-11.233,3.1-19.361h.008a284.318,284.318,0,0,1,37,16l.05.022a181.391,181.391,0,0,1,19.606,11.773c24.138,16.9,44.436,31.942,39.046,42.022-3.343,6.24-24.087,18.64-43.751,27.661-.007,0-.014.008-.021.008a34.857,34.857,0,0,0-6.442,2.839l-.007.007c-3.516,1.5-6.925,2.839-10.117,3.97-.389-22.827-5.908-37.057-5.908-37.057-7.782,2.118-13.87,3.343-13.87,3.343l.547,3.653h-.007s-11.1,1.722-14.245,1.9c-3.033.173-2.363,3.617-.281,4.756,1.873,1.023,7.566,1.506,8.711,1.592.447,2.061.382,5.894-4.071,10.254a13.566,13.566,0,0,0-3.062-2.9h-2.37v-3.48H1100l-1.167.129-7.638-69.712A.827.827,0,0,0,1092.191,2563.7Z" fill="#f5b335"/>
      <path id="Trazado_328" data-name="Trazado 328" d="M1089.792,2538.246a7.514,7.514,0,0,0,3.567,4.114l2.824,1.175c.339,2.435-.094,5.973-1.974,11.11l-3.019,7.941a.814.814,0,0,0,.007.612v.014l7.638,69.712.367,3.351h-34.074l.367-3.351,7.631-69.69a.8.8,0,0,0,.021-.648l-3.019-7.941c-1.9-5.188-2.32-8.747-1.967-11.19l2.63-1.095a7.553,7.553,0,0,0,3.574-4.114h.18s-.057-.007-.173-.015a17.013,17.013,0,0,0,.952-3.047c5.223,3.429,9.266,3.033,13.51,0A16.605,16.605,0,0,0,1089.792,2538.246Z" fill="#3d4543"/>
      <path id="Trazado_329" data-name="Trazado 329" d="M1091.175,2538.268c1.7.2,4.446,1.174,5.008,5.267l-2.824-1.175a7.514,7.514,0,0,1-3.567-4.114C1090.267,2538.239,1090.729,2538.246,1091.175,2538.268Z" fill="#df6a2e"/>
      <path id="Trazado_330" data-name="Trazado 330" d="M1085.389,2506.492a13.138,13.138,0,0,1,7.9,2.644l2.01,1.513c.144.7.252,1.42.331,2.155a23.094,23.094,0,0,1,.13,2.471c0,.526-.014,1.045-.058,1.557-.4,6.3-3.3,11.687-7.392,14.432a10.82,10.82,0,0,1-12.473-.022c-4.078-2.752-6.96-8.113-7.364-14.41-.043-.512-.057-1.031-.057-1.557,0-.98.021-1.765.093-2.529v-.007a16.322,16.322,0,0,1,.361-2.09l2.2-1.614a13.1,13.1,0,0,1,7.767-2.543Zm-10.037,16.651h13.453c0-2.14-3.012-3.883-6.73-3.883S1075.352,2521,1075.352,2523.143Z" fill="#dcc7b7"/>
      <path id="Trazado_331" data-name="Trazado 331" d="M1075.842,2531.242a10.82,10.82,0,0,0,12.473.022,23.352,23.352,0,0,0,.519,3.92c-4.244,3.033-8.287,3.429-13.51,0A23.233,23.233,0,0,0,1075.842,2531.242Z" fill="#dcc7b7"/>
      <path id="Trazado_332" data-name="Trazado 332" d="M1082.075,2519.26c3.718,0,6.73,1.743,6.73,3.883h-13.453C1075.352,2521,1078.364,2519.26,1082.075,2519.26Z" fill="#3d4543"/>
      <path id="Trazado_333" data-name="Trazado 333" d="M1073.169,2538.268c.389-.022.785-.029,1.2-.022a7.553,7.553,0,0,1-3.574,4.114l-2.63,1.095C1068.752,2539.428,1071.476,2538.462,1073.169,2538.268Z" fill="#df6a2e"/>
      <path id="Trazado_334" data-name="Trazado 334" d="M1073.147,2562.586a.8.8,0,0,1-.021.648.822.822,0,0,1-.987.468,6.775,6.775,0,0,0-7.177,2.1s-5.08-11.24-3.1-19.361c1.066-4.4,4.193-7.875,11.312-8.17-1.693.194-4.417,1.16-5.008,5.187-.353,2.443.072,6,1.967,11.19Z" fill="#df6a2e"/>
      <path id="Trazado_335" data-name="Trazado 335" d="M1066.872,2512.8c.569-1.009,1.412-.3,1.642-.065v.007c-.072.764-.093,1.549-.093,2.529,0,.526.014,1.045.057,1.557h-.028S1066.2,2513.993,1066.872,2512.8Z" fill="#dcc7b7"/>
      <path id="Trazado_336" data-name="Trazado 336" d="M1065.5,2632.924l-.367,3.351h-4.078v-3.48h3.278Z" fill="#f5b335"/>
      <path id="Trazado_337" data-name="Trazado 337" d="M1063.745,2639.38a1.562,1.562,0,0,1,1.563,1.564,1.574,1.574,0,0,1-1.563,1.563h-3.034a1.564,1.564,0,1,1,0-3.127Z" fill="#18988b"/>
      <path id="Trazado_338" data-name="Trazado 338" d="M1064.227,2648.848c-2.118.886-7.493,1.031-12.429.245v-.007c-4.575-.721-8.769-2.248-9.612-4.734l3.538-23.677s11.111,1.722,14.245,1.9c3.041.173,2.37,3.617.281,4.756-1.873,1.023-7.587,1.506-8.711,1.592-.447,2.054-.382,5.887,4.071,10.254a34.958,34.958,0,0,0,8.617,5.872S1068.305,2647.14,1064.227,2648.848Z" fill="#dcc7b7"/>
      <path id="Trazado_339" data-name="Trazado 339" d="M1061.857,2546.438c-1.975,8.121,3.1,19.361,3.1,19.361a6.775,6.775,0,0,1,7.177-2.1.822.822,0,0,0,.987-.468l-7.631,69.69-1.167-.129h-3.278v3.48h-2.371a13.67,13.67,0,0,0-3.069,2.9c-4.453-4.367-4.518-8.2-4.071-10.254,1.124-.086,6.838-.569,8.711-1.592,2.089-1.139,2.76-4.583-.281-4.756-3.134-.18-14.245-1.9-14.245-1.9l.548-3.653s-6.089-1.225-13.871-3.343c0,0-5.519,14.23-5.908,37.057-3.192-1.131-6.6-2.479-10.124-3.97l-.007-.007a34.931,34.931,0,0,0-6.434-2.839c-.008,0-.015-.008-.022-.008-19.671-9.021-40.408-21.421-43.751-27.661-5.4-10.08,14.908-25.125,39.046-42.022,23.893-16.73,56.022-27.582,56.648-27.791Z" fill="#f5b335"/>
      <path id="Trazado_340" data-name="Trazado 340" d="M1100.96,2642.507h3.034a1.575,1.575,0,0,0,1.563-1.563,1.562,1.562,0,0,0-1.563-1.564h-3.034a1.528,1.528,0,0,0-1.1.461,1.559,1.559,0,0,0,1.1,2.666Zm-41.813-1.563a1.562,1.562,0,0,0,1.564,1.563h3.034a1.574,1.574,0,0,0,1.563-1.563,1.562,1.562,0,0,0-1.563-1.564h-3.034a1.562,1.562,0,0,0-1.564,1.564Zm.289,15.78a5.329,5.329,0,0,1-7.66-4.453,22.183,22.183,0,0,1,.022-3.178c4.936.786,10.311.641,12.429-.245,4.078-1.708,0-3.8,0-3.8a34.958,34.958,0,0,1-8.617-5.872,13.67,13.67,0,0,1,3.069-2.9h46.979a13.566,13.566,0,0,1,3.062,2.9,34.68,34.68,0,0,1-8.61,5.872s-4.078,2.089,0,3.8c2.111.886,7.486,1.031,12.422.245a23.208,23.208,0,0,1,.029,3.178,5.334,5.334,0,0,1-7.667,4.453,51.5,51.5,0,0,0-9.691-3.445h-26.069A51.41,51.41,0,0,0,1059.436,2656.724Z" fill="#5d6162" stroke="#25292b" stroke-miterlimit="10" stroke-width="0.721"/>
      <path id="Trazado_341" data-name="Trazado 341" d="M982.036,2655.729c6.852-15.808,19.98-14.432,27.87-11.817.007,0,.014.008.022.008q3.252,1.491,6.434,2.839l.007.007c3.524,1.491,6.932,2.839,10.124,3.97v.007a68.593,68.593,0,0,0,14.173,3.754l1.52-10.145c.843,2.486,5.037,4.013,9.612,4.734v.007a22.183,22.183,0,0,0-.022,3.178,5.329,5.329,0,0,0,7.66,4.453,51.41,51.41,0,0,1,9.7-3.445H1095.2a51.5,51.5,0,0,1,9.691,3.445,5.334,5.334,0,0,0,7.667-4.453,23.208,23.208,0,0,0-.029-3.178c4.583-.728,8.776-2.255,9.619-4.741l1.52,10.145a68.6,68.6,0,0,0,14.173-3.754v-.007c3.192-1.131,6.6-2.471,10.117-3.97l.007-.007c2.118-.894,4.273-1.845,6.442-2.839.007,0,.014-.008.021-.008,7.883-2.615,21.018-3.991,27.87,11.817,3.387,7.825,5.26,19.484,6.428,31.834,1.138,12.054,1.592,24.764,2.125,35.227.569,11.1,1.211,19.67,2.832,22.235H1133.9c.115-8.423-.086-15.794-.519-22.235-1.225-18-4.294-28.786-7.4-35.227a213.246,213.246,0,0,1-87.631,0c-3.106,6.441-6.175,17.228-7.4,35.227-.432,6.441-.634,13.812-.519,22.235H970.651c1.621-2.565,2.263-11.132,2.832-22.235.526-10.463.987-23.173,2.118-35.227C976.769,2675.213,978.642,2663.554,982.036,2655.729Z" fill="#8f4899"/>
      <path id="Trazado_342" data-name="Trazado 342" d="M1038.353,2625.078a2.5,2.5,0,1,0-2.508-2.5A2.5,2.5,0,0,0,1038.353,2625.078Zm-11.86,25.658c.389-22.827,5.908-37.057,5.908-37.057,7.782,2.118,13.871,3.343,13.871,3.343l-.548,3.653-3.538,23.677-1.52,10.145a68.593,68.593,0,0,1-14.173-3.754Z" fill="#df6a2e"/>
      <path id="Trazado_343" data-name="Trazado 343" d="M1038.353,2620.077a2.5,2.5,0,1,1-2.508,2.5A2.5,2.5,0,0,1,1038.353,2620.077Z" fill="#df6a2e"/>
      <path id="Trazado_344" data-name="Trazado 344" d="M1038.353,2748.239v12.991a3.22,3.22,0,0,1-3.221,3.221H967.2a3.22,3.22,0,0,1-3.221-3.221v-12.991a3.218,3.218,0,0,1,3.221-3.214h67.932A3.218,3.218,0,0,1,1038.353,2748.239Z" fill="#8f4899" opacity="0.5"/>
      <path id="Trazado_345" data-name="Trazado 345" d="M1015.3,2764.451s2.529,23.756-.173,29.6H948.942s-6.824-13.28,20.383-14.764c0,0,14.7-1.038,20.183-14.836C999.984,2764.458,1003.745,2764.523,1015.3,2764.451Z" fill="#dcc7b7"/>
      <path id="Trazado_346" data-name="Trazado 346" d="M966.155,2616.251c3.343,6.24,24.08,18.64,43.751,27.661-7.89-2.615-21.018-3.991-27.87,11.817-3.394,7.825-5.267,19.484-6.435,31.834H908.44v-44.349a15.889,15.889,0,0,0-15.888-15.881h-9.338v-64.02a56.94,56.94,0,0,1,43.1-55.222c72.06-17.962,134.689,37.591,135.532,38.347-.626.209-32.755,11.061-56.648,27.791C981.063,2591.126,960.758,2606.171,966.155,2616.251Zm-10.476,32.388a3.016,3.016,0,1,0-3.012-3.012A3.01,3.01,0,0,0,955.679,2648.639Zm0-80.174a3.016,3.016,0,1,0-3.012-3.012A3.01,3.01,0,0,0,955.679,2568.465Z" fill="#cda787" stroke="#2d2a26" stroke-miterlimit="10" stroke-width="0.721"/>
      <path id="Trazado_347" data-name="Trazado 347" d="M908.44,2687.563H975.6c-1.131,12.054-1.592,24.764-2.118,35.227H908.44Z" fill="#cda787" stroke="#2d2a26" stroke-miterlimit="10" stroke-width="0.721"/>
      <path id="Trazado_348" data-name="Trazado 348" d="M955.679,2568.465a3.016,3.016,0,1,1,3.011-3.012A3.01,3.01,0,0,1,955.679,2568.465Z" fill="#3d4543"/>
      <path id="Trazado_349" data-name="Trazado 349" d="M955.679,2648.639a3.016,3.016,0,1,1,3.011-3.012A3.01,3.01,0,0,1,955.679,2648.639Z" fill="#3d4543"/>
      <path id="Trazado_350" data-name="Trazado 350" d="M892.552,2627.333a15.889,15.889,0,0,1,15.888,15.881v79.576H858v-79.576a15.884,15.884,0,0,1,15.887-15.881h18.669Z" fill="#cda787" stroke="#2d2a26" stroke-miterlimit="10" stroke-width="0.721"/>
      <path id="Trazado_351" data-name="Trazado 351" d="M890.412,2722.79l-6.074,77.947a1.124,1.124,0,0,1-2.241,0l-6.074-77.947Z" fill="#3d4543"/>
      <path id="Trazado_352" data-name="Trazado 352" d="M867.355,2789.137v4.186H795.972v-4.186h71.383Z" fill="#3d4543"/>
      <path id="Trazado_353" data-name="Trazado 353" d="M846.5,2778.726c15.182,1.29,18.5,6.571,18.828,10.411H846.5Z" fill="#cda787" stroke="#2d2a26" stroke-miterlimit="10" stroke-width="0.721"/>
      <path id="Trazado_354" data-name="Trazado 354" d="M846.5,2778.726v10.412h-6.067v-13.121H846.5Z" fill="#3d4543"/>
      <path id="Trazado_355" data-name="Trazado 355" d="M824.029,2763.724c3.718,9.36,11.673,12.847,16.407,14.123v11.29H797.471c-.988-8.869.77-25.413.77-25.413C809.792,2763.8,813.553,2763.731,824.029,2763.724Z" fill="#cda787" stroke="#2d2a26" stroke-miterlimit="10" stroke-width="0.721"/>
      <path id="Trazado_356" data-name="Trazado 356" d="M803.718,2636l2.723,3.084a64.07,64.07,0,0,0-18.7,1.34C792.729,2639.187,798.191,2637.681,803.718,2636Z" fill="#f9b5c3"/>
      <path id="Trazado_357" data-name="Trazado 357" d="M761.739,2648.366c-4.936.786-10.311.642-12.429-.245-4.071-1.707,0-3.79,0-3.79a34.709,34.709,0,0,0,8.617-5.879c4.446-4.352,4.511-8.185,4.072-10.246-1.125-.087-6.838-.577-8.712-1.6-2.089-1.138-2.752-4.575.281-4.755.49-.029,1.175-.094,1.982-.18a97.664,97.664,0,0,0,23.014-5.52c3.235-1.2,6.931-2.63,10.678-4.179l-8.827-11.68,31.891-24q1.426,1,2.818,2c3.523,2.508,6.91,4.965,10.08,7.357,15.736,11.9,26.242,22.3,22.178,29.888-1.326,2.464-5.454,5.281-11.2,8.17-8.539,4.273-20.651,8.69-32.46,12.293-5.527,1.686-10.989,3.192-15.982,4.424-.584.13-.9.216-.9.216a132.756,132.756,0,0,1-15.477,2.99C770.515,2646.111,766.315,2647.639,761.739,2648.366Z" fill="#cda787" stroke="#2d2a26" stroke-miterlimit="10" stroke-width="0.721"/>
      <path id="Trazado_358" data-name="Trazado 358" d="M654.156,2639.54a67.368,67.368,0,0,1,22.272,1.225c.223.05.439.1.655.151.08.022.159.043.238.058l.087.021a124.59,124.59,0,0,0,13.978,2.63c.843,2.486,5.037,4.014,9.619,4.741a23.2,23.2,0,0,0-.029,3.178,5.331,5.331,0,0,0,7.667,4.453,52.1,52.1,0,0,1,9.691-3.437H744.4a51.981,51.981,0,0,1,9.7,3.437,5.326,5.326,0,0,0,7.66-4.453,22.174,22.174,0,0,0-.022-3.178c4.576-.727,8.776-2.255,9.619-4.741a132.756,132.756,0,0,0,15.477-2.99s.317-.086.9-.216a64.07,64.07,0,0,1,18.7-1.34c.995.086,2,.2,3,.36,8.725,1.333,17.66,5.4,22.07,15.571.425.98.821,2.053,1.2,3.206.562,1.708,1.073,3.6,1.542,5.649,6.823,29.946,4.417,93.173,8.639,99.859H783.11a286.929,286.929,0,0,0-1.347-33.173c-.079-.807-.166-1.6-.26-2.385q-.648-5.772-1.484-10.815c-.828-5.008-1.765-9.5-2.76-13.482-1.491.8-2.975,1.557-4.467,2.27a107.455,107.455,0,0,1-13.719,5.526,93.8,93.8,0,0,1-13.7,3.322,86.046,86.046,0,0,1-27.993,0,93.812,93.812,0,0,1-13.7-3.322,108.17,108.17,0,0,1-13.726-5.526c-1.492-.721-2.976-1.477-4.467-2.27-1,3.985-1.931,8.467-2.76,13.482q-.832,5.046-1.492,10.815c-.079.713-.158,1.441-.23,2.176a286.877,286.877,0,0,0-1.362,33.382H619.851c4.259-6.744,1.78-70.915,8.812-100.558.418-1.78.879-3.437,1.377-4.95.374-1.153.771-2.226,1.2-3.206C635.681,2644.742,645.027,2640.765,654.156,2639.54Z" fill="#625d9c"/>
      <path id="Trazado_359" data-name="Trazado 359" d="M753.2,2638.654a1.562,1.562,0,0,1,1.563,1.563,1.55,1.55,0,0,1-1.563,1.564h-3.034a1.563,1.563,0,1,1,0-3.127Z" fill="#df6a2e"/>
      <path id="Trazado_360" data-name="Trazado 360" d="M750.8,2587.87a5.627,5.627,0,0,1-5.634-5.627v-8.394h11.262v8.394A5.626,5.626,0,0,1,750.8,2587.87Z" fill="#f9b5c3"/>
      <path id="Trazado_361" data-name="Trazado 361" d="M737.515,2530.537a10.824,10.824,0,0,1-12.473-.021,14.906,14.906,0,0,1-3.927-3.985l-.007-.007a20.827,20.827,0,0,1-3.43-10.412c-.043-.512-.057-1.038-.057-1.563,0-.973.021-1.766.093-2.53v-.007a16.867,16.867,0,0,1,.426-2.37s10.692-1.5,15.678-6.5c5.174-5.18,9.836-1.188,10.491,5.887.094,1.009.289,2.025.44,3.07a16.184,16.184,0,0,1,.216,2.45c0,.525-.014,1.051-.058,1.563a20.852,20.852,0,0,1-3.429,10.419A14.88,14.88,0,0,1,737.515,2530.537Z" fill="#cda787" stroke="#2d2a26" stroke-miterlimit="10" stroke-width="0.721"/>
      <path id="Trazado_362" data-name="Trazado 362" d="M725.042,2530.516a10.824,10.824,0,0,0,12.473.021c.05,1.29.562,9.05,5.051,11.1a12.962,12.962,0,0,1-23.987.591l-.029-.057,1.448-.534C724.516,2539.573,725,2531.733,725.042,2530.516Z" fill="#cda787" stroke="#2d2a26" stroke-miterlimit="10" stroke-width="0.721"/>
      <path id="Trazado_363" data-name="Trazado 363" d="M745.167,2582.243a5.631,5.631,0,0,0,11.262,0v-8.394H745.167Zm-26.588-40.019a12.962,12.962,0,0,0,23.987-.591s2.053.743,5.519,2.076c4.114,1.585,10.2,4.013,17.2,7.039,5.08,2.2,10.635,4.713,16.248,7.458,5.39,2.63,10.83,5.469,15.953,8.437,3.848,2.227,7.522,4.525,10.858,6.86,1.333.936,2.659,1.866,3.963,2.788l-31.891,24,8.827,11.68c-3.747,1.549-7.443,2.976-10.678,4.179a97.664,97.664,0,0,1-23.014,5.52c-.807.086-1.492.151-1.982.18-3.033.18-2.37,3.617-.281,4.755,1.874,1.023,7.587,1.513,8.712,1.6.439,2.061.374,5.894-4.072,10.246a13.663,13.663,0,0,0-3.069-2.9H707.879a13.732,13.732,0,0,0-3.062,2.9c-4.453-4.352-4.518-8.185-4.071-10.246,1.145-.087,6.838-.577,8.711-1.6,2.082-1.138,2.753-4.575-.281-4.755-.49-.029-1.174-.094-1.981-.18a97.64,97.64,0,0,1-23.014-5.52c-3.07-1.145-6.564-2.486-10.124-3.948l8.265-11.291L654.4,2573.5c3.336-2.335,7-4.633,10.844-6.86,5.13-2.968,10.57-5.814,15.953-8.452,5.62-2.752,11.175-5.274,16.255-7.479,7.011-3.04,13.106-5.476,17.185-7.054,1.664-.648,3-1.146,3.912-1.491Z" fill="#f9b5c3"/>
      <path id="Trazado_364" data-name="Trazado 364" d="M718.14,2509.642a16.867,16.867,0,0,0-.426,2.37c-.245-.245-1.073-.929-1.635.072-.67,1.182,1.578,4.028,1.578,4.028h.021a20.827,20.827,0,0,0,3.43,10.412c-.324-.123-10.916-4.287-10.368-17.855a30.327,30.327,0,0,1,.944-6.283c4.726-18.857,14.115-10.9,21.126-15.83,4.258-2.991,11.752-.757,14.5,5.879a52.633,52.633,0,0,1,3.559,15.888c.411,7.674-1.441,15.513-9.388,18.208a20.852,20.852,0,0,0,3.429-10.419h.058s2.248-2.846,1.578-4.028-1.708,0-1.708,0l-.086.015c-.151-1.045-.346-2.061-.44-3.07-.655-7.075-5.317-11.067-10.491-5.887C728.832,2508.143,718.14,2509.642,718.14,2509.642Z" fill="#f5b335"/>
      <path id="Trazado_365" data-name="Trazado 365" d="M712.944,2638.654a1.563,1.563,0,1,1,0,3.127h-3.033a1.568,1.568,0,0,1-1.564-1.564,1.587,1.587,0,0,1,.462-1.109,1.551,1.551,0,0,1,1.1-.454Z" fill="#df6a2e"/>
      <path id="Trazado_366" data-name="Trazado 366" d="M684.181,2616.151a97.64,97.64,0,0,0,23.014,5.52c.807.086,1.491.151,1.981.18,3.034.18,2.363,3.617.281,4.755-1.873,1.023-7.566,1.513-8.711,1.6-.447,2.061-.382,5.894,4.071,10.246a34.65,34.65,0,0,0,8.61,5.879s4.078,2.083,0,3.79c-2.111.887-7.493,1.031-12.422.245-4.582-.727-8.776-2.255-9.619-4.741a124.59,124.59,0,0,1-13.978-2.63l-.087-.021c-.05-.015-.13-.036-.238-.058-.216-.05-.432-.1-.655-.151-5.736-1.376-12.149-3.142-18.6-5.138-11.463-3.545-23.078-7.817-31.328-11.961-5.714-2.874-9.821-5.677-11.133-8.134-4.064-7.588,6.435-17.992,22.164-29.874v-.007c3.178-2.392,6.564-4.856,10.087-7.364q3.32-2.367,6.788-4.784l27.921,27.409-8.265,11.291C677.617,2613.665,681.111,2615.006,684.181,2616.151Z" fill="#cda787" stroke="#2d2a26" stroke-miterlimit="10" stroke-width="0.721"/>
      <path id="Trazado_367" data-name="Trazado 367" d="M750.167,2641.781H753.2a1.55,1.55,0,0,0,1.563-1.564,1.562,1.562,0,0,0-1.563-1.563h-3.034a1.563,1.563,0,0,0,0,3.127Zm-41.358-2.673a1.587,1.587,0,0,0-.462,1.109,1.568,1.568,0,0,0,1.564,1.564h3.033a1.563,1.563,0,1,0,0-3.127h-3.033A1.551,1.551,0,0,0,708.809,2639.108ZM708.643,2656a5.331,5.331,0,0,1-7.667-4.453,23.2,23.2,0,0,1,.029-3.178c4.929.786,10.311.642,12.422-.245,4.078-1.707,0-3.79,0-3.79a34.65,34.65,0,0,1-8.61-5.879,13.732,13.732,0,0,1,3.062-2.9h46.979a13.663,13.663,0,0,1,3.069,2.9,34.709,34.709,0,0,1-8.617,5.879s-4.071,2.083,0,3.79c2.118.887,7.493,1.031,12.429.245a22.174,22.174,0,0,1,.022,3.178A5.326,5.326,0,0,1,754.1,2656a51.981,51.981,0,0,0-9.7-3.437H718.334A52.1,52.1,0,0,0,708.643,2656Z" fill="#5d6162" stroke="#25292b" stroke-miterlimit="10" stroke-width="0.721"/>
      <path id="Trazado_368" data-name="Trazado 368" d="M676.428,2640.765a67.368,67.368,0,0,0-22.272-1.225l-.014-.1,3.681-3.812C664.279,2637.623,670.692,2639.389,676.428,2640.765Z" fill="#f9b5c3"/>
      <path id="Trazado_369" data-name="Trazado 369" d="M667.075,2793.324v.195H595.692v-4.179h71.383Z" fill="#3d4543"/>
      <path id="Trazado_370" data-name="Trazado 370" d="M664.8,2763.926s1.759,16.543.771,25.413H622.6v-11.291c4.741-1.275,12.7-4.77,16.406-14.122C649.494,2763.926,653.255,2764,664.8,2763.926Z" fill="#cda787" stroke="#2d2a26" stroke-miterlimit="10" stroke-width="0.721"/>
      <path id="Trazado_371" data-name="Trazado 371" d="M622.6,2776.218v13.121h-6.067v-13.121Z" fill="#3d4543"/>
      <path id="Trazado_372" data-name="Trazado 372" d="M616.537,2778.92v10.419H597.716C598.041,2785.5,601.362,2780.21,616.537,2778.92Z" fill="#cda787" stroke="#2d2a26" stroke-miterlimit="10" stroke-width="0.721"/>
      <path id="Trazado_373" data-name="Trazado 373" d="M597.659,2647.113v6.434H464.014v-6.434H597.659Z" fill="#3d4543"/>
      <path id="Trazado_374" data-name="Trazado 374" d="M579.523,2633.473v13.64h-13.9v-2.983s7.673-4.511,7.745-6.435S579.523,2633.473,579.523,2633.473Z" fill="#625d9c"/>
      <path id="Trazado_375" data-name="Trazado 375" d="M579.523,2626.57v6.9s-6.074,2.306-6.154,4.222-7.745,6.435-7.745,6.435v-6.9s7.673-4.511,7.745-6.434S579.523,2626.57,579.523,2626.57Z" fill="#8f4899"/>
      <path id="Trazado_376" data-name="Trazado 376" d="M579.523,2621.3v5.267s-6.074,2.3-6.154,4.223-7.745,6.434-7.745,6.434V2621.3h13.9Z" fill="#625d9c"/>
      <path id="Trazado_377" data-name="Trazado 377" d="M567.122,2619.768h10.9a.934.934,0,0,1,.937.93v.6H566.193v-.6A.932.932,0,0,1,567.122,2619.768Z" fill="#5d6162" stroke="#25292b" stroke-miterlimit="10" stroke-width="0.721"/>
      <path id="Trazado_378" data-name="Trazado 378" d="M1068.514,2512.739a16.322,16.322,0,0,1,.361-2.09c.014-.093.043-.187.065-.288" fill="none" stroke="#25292b" stroke-miterlimit="10" stroke-width="0.721"/>
      <path id="Trazado_379" data-name="Trazado 379" d="M1095.1,2509.756c.072.295.144.591.2.893.144.7.252,1.42.331,2.155a23.094,23.094,0,0,1,.13,2.471c0,.526-.014,1.045-.058,1.557-.4,6.3-3.3,11.687-7.392,14.432a10.82,10.82,0,0,1-12.473-.022c-4.078-2.752-6.96-8.113-7.364-14.41-.043-.512-.057-1.031-.057-1.557,0-.98.021-1.765.093-2.529" fill="none" stroke="#25292b" stroke-miterlimit="10" stroke-width="0.721"/>
      <path id="Trazado_380" data-name="Trazado 380" d="M1088.308,2531.077s0,.064.007.187a23.352,23.352,0,0,0,.519,3.92,16.605,16.605,0,0,0,.958,3.062,7.514,7.514,0,0,0,3.567,4.114l2.824,1.175" fill="none" stroke="#25292b" stroke-miterlimit="10" stroke-width="0.721"/>
      <path id="Trazado_381" data-name="Trazado 381" d="M1102.473,2546.438c-1.059-4.388-4.186-7.868-11.3-8.17-.446-.022-.908-.029-1.383-.022h-.007" fill="none" stroke="#25292b" stroke-miterlimit="10" stroke-width="0.721"/>
      <path id="Trazado_382" data-name="Trazado 382" d="M1091.2,2563.212a.827.827,0,0,0,.994.49,6.785,6.785,0,0,1,7.184,2.1s5.08-11.233,3.1-19.361" fill="none" stroke="#25292b" stroke-miterlimit="10" stroke-width="0.721"/>
      <path id="Trazado_383" data-name="Trazado 383" d="M1089.792,2538.246a5.653,5.653,0,0,1,1.383.022c1.7.2,4.446,1.174,5.008,5.267.339,2.435-.094,5.973-1.974,11.11l-3.019,7.941a.814.814,0,0,0,.007.612" fill="none" stroke="#25292b" stroke-miterlimit="10" stroke-width="0.721"/>
      <path id="Trazado_384" data-name="Trazado 384" d="M1137.844,2650.743a68.6,68.6,0,0,1-14.173,3.754l-1.52-10.145-3.538-23.677-.547-3.653s6.088-1.225,13.87-3.343c2.313-.627,4.77-1.333,7.256-2.1,7.846-2.443,16.025-5.563,20.939-9.086" fill="none" stroke="#25292b" stroke-miterlimit="10" stroke-width="0.721"/>
      <path id="Trazado_385" data-name="Trazado 385" d="M1154.41,2643.92c-2.169.994-4.331,1.945-6.449,2.846-3.516,1.5-6.925,2.839-10.117,3.97" fill="none" stroke="#25292b" stroke-miterlimit="10" stroke-width="0.721"/>
      <path id="Trazado_386" data-name="Trazado 386" d="M1139.53,2562.456a181.391,181.391,0,0,1,19.606,11.773c24.138,16.9,44.436,31.942,39.046,42.022-3.343,6.24-24.087,18.64-43.751,27.661" fill="none" stroke="#25292b" stroke-miterlimit="10" stroke-width="0.721"/>
      <path id="Trazado_387" data-name="Trazado 387" d="M1102.481,2546.438a284.318,284.318,0,0,1,37,16" fill="none" stroke="#25292b" stroke-miterlimit="10" stroke-width="0.721"/>
      <path id="Trazado_388" data-name="Trazado 388" d="M1116.531,2581.586l22.661,29.989.288.382" fill="none" stroke="#25292b" stroke-miterlimit="10" stroke-width="0.721"/>
      <line id="Línea_18" data-name="Línea 18" y2="0.007" transform="translate(1137.844 2650.736)" fill="none" stroke="#25292b" stroke-miterlimit="10" stroke-width="0.721"/>
      <path id="Trazado_389" data-name="Trazado 389" d="M1131.936,2613.679s5.519,14.23,5.908,37.057" fill="none" stroke="#25292b" stroke-miterlimit="10" stroke-width="0.721"/>
      <circle id="Elipse_2" data-name="Elipse 2" cx="2.5" cy="2.5" r="2.5" transform="translate(1123.484 2620.077)" fill="none" stroke="#25292b" stroke-miterlimit="10" stroke-width="0.721"/>
      <path id="Trazado_390" data-name="Trazado 390" d="M1102.509,2579.079a2.5,2.5,0,1,1-2.507-2.5A2.509,2.509,0,0,1,1102.509,2579.079Z" fill="none" stroke="#25292b" stroke-miterlimit="10" stroke-width="0.721"/>
      <path id="Trazado_391" data-name="Trazado 391" d="M1105.788,2601.127a2.5,2.5,0,1,1-2.5-2.5A2.508,2.508,0,0,1,1105.788,2601.127Z" fill="none" stroke="#25292b" stroke-miterlimit="10" stroke-width="0.721"/>
      <path id="Trazado_392" data-name="Trazado 392" d="M1091.2,2563.212l7.638,69.712.367,3.351" fill="none" stroke="#25292b" stroke-miterlimit="10" stroke-width="0.721"/>
      <line id="Línea_19" data-name="Línea 19" y2="0.014" transform="translate(1091.197 2563.198)" fill="none" stroke="#25292b" stroke-miterlimit="10" stroke-width="0.721"/>
      <path id="Trazado_393" data-name="Trazado 393" d="M1118.606,2620.675s-11.1,1.722-14.245,1.9c-3.033.173-2.363,3.617-.281,4.756,1.873,1.023,7.566,1.506,8.711,1.592.13.008.2.015.2.015" fill="none" stroke="#25292b" stroke-miterlimit="10" stroke-width="0.721"/>
      <path id="Trazado_394" data-name="Trazado 394" d="M1112.237,2627.333a5.8,5.8,0,0,1,.554,1.592c.447,2.061.382,5.894-4.071,10.254a34.68,34.68,0,0,1-8.61,5.872s-4.078,2.089,0,3.8c2.111.886,7.486,1.031,12.422.245,4.583-.728,8.776-2.255,9.619-4.741" fill="none" stroke="#25292b" stroke-miterlimit="10" stroke-width="0.721"/>
      <line id="Línea_20" data-name="Línea 20" y1="3.278" transform="translate(1103.287 2632.996)" fill="none" stroke="#25292b" stroke-miterlimit="10" stroke-width="0.721"/>
      <path id="Trazado_395" data-name="Trazado 395" d="M1100,2632.795h6.564" fill="none" stroke="#25292b" stroke-miterlimit="10" stroke-width="0.721"/>
      <path id="Trazado_396" data-name="Trazado 396" d="M1147.961,2646.766a34.73,34.73,0,0,1,6.449-2.846c.007,0,.014-.008.021-.008,7.883-2.615,21.018-3.991,27.87,11.817,3.387,7.825,5.26,19.484,6.428,31.834,1.138,12.054,1.592,24.764,2.125,35.227.569,11.1,1.211,19.67,2.832,22.235" fill="none" stroke="#25292b" stroke-miterlimit="10" stroke-width="0.721"/>
      <path id="Trazado_397" data-name="Trazado 397" d="M1193.686,2745.025h3.451a3.218,3.218,0,0,1,3.221,3.214v12.991a3.22,3.22,0,0,1-3.221,3.221H1129.2a3.22,3.22,0,0,1-3.221-3.221v-12.991a3.218,3.218,0,0,1,3.221-3.214h64.481Z" fill="none" stroke="#25292b" stroke-miterlimit="10" stroke-width="0.721"/>
      <path id="Trazado_398" data-name="Trazado 398" d="M1117.741,2678.1s4.151.929,8.243,9.461c3.106,6.441,6.175,17.228,7.4,35.227.433,6.441.634,13.812.519,22.235" fill="none" stroke="#25292b" stroke-miterlimit="10" stroke-width="0.721"/>
      <path id="Trazado_399" data-name="Trazado 399" d="M1074.365,2538.246h.18s-.057-.007-.173-.015a6.7,6.7,0,0,0-1.2.037c-1.693.194-4.417,1.16-5.008,5.187-.353,2.443.072,6,1.967,11.19l3.019,7.941a.8.8,0,0,1-.021.648.822.822,0,0,1-.987.468,6.775,6.775,0,0,0-7.177,2.1s-5.08-11.24-3.1-19.361c1.066-4.4,4.193-7.875,11.312-8.17C1073.558,2538.246,1073.954,2538.239,1074.365,2538.246Z" fill="none" stroke="#25292b" stroke-miterlimit="10" stroke-width="0.721"/>
      <path id="Trazado_400" data-name="Trazado 400" d="M1026.493,2650.743a68.593,68.593,0,0,0,14.173,3.754l1.52-10.145,3.538-23.677.548-3.653s-6.089-1.225-13.871-3.343c-2.313-.627-4.77-1.333-7.256-2.1-7.846-2.443-16.024-5.563-20.938-9.086" fill="none" stroke="#25292b" stroke-miterlimit="10" stroke-width="0.721"/>
      <path id="Trazado_401" data-name="Trazado 401" d="M1009.928,2643.92c2.168.994,4.323,1.945,6.441,2.846,3.524,1.491,6.932,2.839,10.124,3.97" fill="none" stroke="#25292b" stroke-miterlimit="10" stroke-width="0.721"/>
      <path id="Trazado_402" data-name="Trazado 402" d="M1061.857,2546.438s-32.525,10.9-56.656,27.791-44.443,31.942-39.046,42.022c3.343,6.24,24.08,18.64,43.751,27.661" fill="none" stroke="#25292b" stroke-miterlimit="10" stroke-width="0.721"/>
      <path id="Trazado_403" data-name="Trazado 403" d="M1047.8,2581.586l-22.654,29.989-.288.382" fill="none" stroke="#25292b" stroke-miterlimit="10" stroke-width="0.721"/>
      <path id="Trazado_404" data-name="Trazado 404" d="M1032.4,2613.679s-5.519,14.23-5.908,37.057v.007" fill="none" stroke="#25292b" stroke-miterlimit="10" stroke-width="0.721"/>
      <path id="Trazado_405" data-name="Trazado 405" d="M1035.845,2622.577a2.5,2.5,0,1,0,2.508-2.5A2.5,2.5,0,0,0,1035.845,2622.577Z" fill="none" stroke="#25292b" stroke-miterlimit="10" stroke-width="0.721"/>
      <path id="Trazado_406" data-name="Trazado 406" d="M1073.133,2563.2l-.007.036-7.63,69.69-.367,3.351" fill="none" stroke="#25292b" stroke-miterlimit="10" stroke-width="0.721"/>
      <path id="Trazado_407" data-name="Trazado 407" d="M1045.724,2620.675s11.111,1.722,14.245,1.9c3.041.173,2.37,3.617.281,4.756-1.873,1.023-7.587,1.506-8.711,1.592-.123.008-.195.015-.195.015" fill="none" stroke="#25292b" stroke-miterlimit="10" stroke-width="0.721"/>
      <path id="Trazado_408" data-name="Trazado 408" d="M1051.8,2649.086c-4.575-.721-8.769-2.248-9.612-4.734" fill="none" stroke="#25292b" stroke-miterlimit="10" stroke-width="0.721"/>
      <path id="Trazado_409" data-name="Trazado 409" d="M1052.1,2627.333a6.049,6.049,0,0,0-.562,1.592c-.447,2.054-.382,5.887,4.071,10.254a34.958,34.958,0,0,0,8.617,5.872s4.078,2.089,0,3.8c-2.118.886-7.493,1.031-12.429.245" fill="none" stroke="#25292b" stroke-miterlimit="10" stroke-width="0.721"/>
      <path id="Trazado_410" data-name="Trazado 410" d="M1108.72,2639.179a13.566,13.566,0,0,0-3.062-2.9h-17.5" fill="none" stroke="#25292b" stroke-miterlimit="10" stroke-width="0.721"/>
      <path id="Trazado_411" data-name="Trazado 411" d="M1051.8,2649.086v.007a22.183,22.183,0,0,0-.022,3.178,5.329,5.329,0,0,0,7.66,4.453,51.41,51.41,0,0,1,9.7-3.445H1095.2a51.5,51.5,0,0,1,9.691,3.445,5.334,5.334,0,0,0,7.667-4.453,23.208,23.208,0,0,0-.029-3.178" fill="none" stroke="#25292b" stroke-miterlimit="10" stroke-width="0.721"/>
      <path id="Trazado_412" data-name="Trazado 412" d="M1088.156,2636.275h-29.477a13.67,13.67,0,0,0-3.069,2.9" fill="none" stroke="#25292b" stroke-miterlimit="10" stroke-width="0.721"/>
      <line id="Línea_21" data-name="Línea 21" y1="3.278" transform="translate(1061.05 2632.996)" fill="none" stroke="#25292b" stroke-miterlimit="10" stroke-width="0.721"/>
      <path id="Trazado_413" data-name="Trazado 413" d="M1064.328,2632.795h-6.557" fill="none" stroke="#25292b" stroke-miterlimit="10" stroke-width="0.721"/>
      <path id="Trazado_414" data-name="Trazado 414" d="M1016.369,2646.766a34.792,34.792,0,0,0-6.441-2.846c-.008,0-.015-.008-.022-.008-7.89-2.615-21.018-3.991-27.87,11.817-3.394,7.825-5.267,19.484-6.435,31.834-1.131,12.054-1.592,24.764-2.118,35.227-.569,11.1-1.211,19.67-2.832,22.235" fill="none" stroke="#25292b" stroke-miterlimit="10" stroke-width="0.721"/>
      <path id="Trazado_415" data-name="Trazado 415" d="M970.651,2745.025H967.2a3.218,3.218,0,0,0-3.221,3.214v12.991a3.22,3.22,0,0,0,3.221,3.221h67.932a3.22,3.22,0,0,0,3.221-3.221v-12.991a3.218,3.218,0,0,0-3.221-3.214H970.651Z" fill="none" stroke="#25292b" stroke-miterlimit="10" stroke-width="0.721"/>
      <path id="Trazado_416" data-name="Trazado 416" d="M1046.6,2678.1s-4.151.929-8.243,9.461c-3.106,6.441-6.175,17.228-7.4,35.227-.432,6.441-.634,13.812-.519,22.235" fill="none" stroke="#25292b" stroke-miterlimit="10" stroke-width="0.721"/>
      <path id="Trazado_417" data-name="Trazado 417" d="M1038.353,2687.563a213.246,213.246,0,0,0,87.631,0" fill="none" stroke="#25292b" stroke-miterlimit="10" stroke-width="0.721"/>
      <path id="Trazado_418" data-name="Trazado 418" d="M1075.85,2531.077s0,.057-.008.165a23.233,23.233,0,0,1-.518,3.942,17.013,17.013,0,0,1-.952,3.047c-.007.008-.007.008-.007.015a7.553,7.553,0,0,1-3.574,4.114l-2.63,1.095-.187.08" fill="none" stroke="#25292b" stroke-miterlimit="10" stroke-width="0.721"/>
      <path id="Trazado_419" data-name="Trazado 419" d="M1075.324,2535.184c5.223,3.429,9.266,3.033,13.51,0" fill="none" stroke="#25292b" stroke-miterlimit="10" stroke-width="0.721"/>
      <line id="Línea_22" data-name="Línea 22" x2="80.016" transform="translate(1188.729 2687.563)" fill="none" stroke="#25292b" stroke-miterlimit="10" stroke-width="0.721"/>
      <path id="Trazado_420" data-name="Trazado 420" d="M908.44,2687.563h67.348" fill="none" stroke="#25292b" stroke-miterlimit="10" stroke-width="0.721"/>
      <path id="Trazado_421" data-name="Trazado 421" d="M1030.4,2722.79h103.541" fill="none" stroke="#25292b" stroke-miterlimit="10" stroke-width="0.721"/>
      <line id="Línea_23" data-name="Línea 23" x2="77.89" transform="translate(1190.854 2722.79)" fill="none" stroke="#25292b" stroke-miterlimit="10" stroke-width="0.721"/>
      <line id="Línea_24" data-name="Línea 24" x2="65.036" transform="translate(908.44 2722.79)" fill="none" stroke="#25292b" stroke-miterlimit="10" stroke-width="0.721"/>
      <path id="Trazado_422" data-name="Trazado 422" d="M1286.772,2722.79h-18.028v-79.576a15.879,15.879,0,0,1,14.973-15.852c.3-.022.6-.029.915-.029H1303.3a15.885,15.885,0,0,1,15.888,15.881v79.576h-18.028" fill="none" stroke="#25292b" stroke-miterlimit="10" stroke-width="0.721"/>
      <path id="Trazado_423" data-name="Trazado 423" d="M876.023,2722.79H858v-79.576a15.884,15.884,0,0,1,15.887-15.881h18.669a15.889,15.889,0,0,1,15.888,15.881v79.576H890.412" fill="none" stroke="#25292b" stroke-miterlimit="10" stroke-width="0.721"/>
      <path id="Trazado_424" data-name="Trazado 424" d="M1283.717,2627.333s5.526-49.818-39.212-50.661c-44.716-.843-77.954-1.945-104.975-14.216l-.05-.022" fill="none" stroke="#25292b" stroke-miterlimit="10" stroke-width="0.721"/>
      <path id="Trazado_425" data-name="Trazado 425" d="M1061.857,2546.438s-62.99-56.432-135.54-38.347a56.934,56.934,0,0,0-43.1,55.222v64.02" fill="none" stroke="#25292b" stroke-miterlimit="10" stroke-width="0.721"/>
      <path id="Trazado_426" data-name="Trazado 426" d="M1063.745,2642.507h-3.034a1.564,1.564,0,1,1,0-3.127h3.034a1.562,1.562,0,0,1,1.563,1.564,1.574,1.574,0,0,1-1.563,1.563Z" fill="none" stroke="#25292b" stroke-miterlimit="10" stroke-width="0.721"/>
      <path id="Trazado_427" data-name="Trazado 427" d="M1103.994,2642.507h-3.034a1.559,1.559,0,0,1-1.1-2.666,1.528,1.528,0,0,1,1.1-.461h3.034a1.562,1.562,0,0,1,1.563,1.564,1.575,1.575,0,0,1-1.563,1.563Z" fill="none" stroke="#25292b" stroke-miterlimit="10" stroke-width="0.721"/>
      <path id="Trazado_428" data-name="Trazado 428" d="M958.69,2565.453a3.012,3.012,0,1,1-3.011-3.019A3.01,3.01,0,0,1,958.69,2565.453Z" fill="none" stroke="#25292b" stroke-miterlimit="10" stroke-width="0.721"/>
      <path id="Trazado_429" data-name="Trazado 429" d="M958.69,2645.627a3.012,3.012,0,1,1-3.011-3.019A3.01,3.01,0,0,1,958.69,2645.627Z" fill="none" stroke="#25292b" stroke-miterlimit="10" stroke-width="0.721"/>
      <path id="Trazado_430" data-name="Trazado 430" d="M1231.752,2629.992a3.016,3.016,0,1,1-3.012-3.019A3.011,3.011,0,0,1,1231.752,2629.992Z" fill="none" stroke="#25292b" stroke-miterlimit="10" stroke-width="0.721"/>
      <path id="Trazado_431" data-name="Trazado 431" d="M876.023,2722.79l6.074,77.947a1.124,1.124,0,0,0,2.241,0l6.074-77.947Z" fill="none" stroke="#25292b" stroke-miterlimit="10" stroke-width="0.721"/>
      <path id="Trazado_432" data-name="Trazado 432" d="M1286.772,2722.79l6.074,77.947a1.124,1.124,0,0,0,2.241,0l6.074-77.947Z" fill="none" stroke="#25292b" stroke-miterlimit="10" stroke-width="0.721"/>
      <line id="Línea_25" data-name="Línea 25" x2="4.9" transform="translate(1061.857 2579.079)" fill="none" stroke="#25292b" stroke-miterlimit="10" stroke-width="0.721"/>
      <line id="Línea_26" data-name="Línea 26" x2="4.9" transform="translate(1057.771 2601.127)" fill="none" stroke="#25292b" stroke-miterlimit="10" stroke-width="0.721"/>
      <path id="Trazado_433" data-name="Trazado 433" d="M1088.805,2523.143c0-2.14-3.012-3.883-6.73-3.883s-6.723,1.743-6.723,3.883Z" fill="none" stroke="#25292b" stroke-miterlimit="10" stroke-width="0.721"/>
      <path id="Trazado_434" data-name="Trazado 434" d="M1095.3,2510.649l-2.01-1.513a13.138,13.138,0,0,0-7.9-2.644h-6.542a13.1,13.1,0,0,0-7.767,2.543l-2.2,1.614v-5.368c0-2.413.965-6.852,2.673-8.56l.288-.295a9.113,9.113,0,0,1,6.442-2.666h7.738a9.113,9.113,0,0,1,6.442,2.666,9.453,9.453,0,0,1,1.916,3.884,19.659,19.659,0,0,1,.743,4.4Z" fill="none" stroke="#25292b" stroke-miterlimit="10" stroke-width="0.721"/>
      <path id="Trazado_435" data-name="Trazado 435" d="M1095.635,2512.8s1.038-1.182,1.708,0-1.578,4.028-1.578,4.028" fill="none" stroke="#25292b" stroke-miterlimit="10" stroke-width="0.721"/>
      <path id="Trazado_436" data-name="Trazado 436" d="M1068.579,2512.8a.788.788,0,0,0-.065-.058v-.007c-.23-.231-1.073-.944-1.642.065-.67,1.189,1.578,4.028,1.578,4.028" fill="none" stroke="#25292b" stroke-miterlimit="10" stroke-width="0.721"/>
      <path id="Trazado_437" data-name="Trazado 437" d="M1174.83,2764.451c5.476,13.8,20.182,14.836,20.182,14.836,27.207,1.484,20.376,14.764,20.376,14.764h-66.174c-2.7-5.844-.18-29.6-.18-29.6C1160.592,2764.523,1164.353,2764.458,1174.83,2764.451Z" fill="none" stroke="#25292b" stroke-miterlimit="10" stroke-width="0.721"/>
      <path id="Trazado_438" data-name="Trazado 438" d="M989.508,2764.451c-5.484,13.8-20.183,14.836-20.183,14.836-27.207,1.484-20.383,14.764-20.383,14.764h66.181c2.7-5.844.173-29.6.173-29.6C1003.745,2764.523,999.984,2764.458,989.508,2764.451Z" fill="none" stroke="#25292b" stroke-miterlimit="10" stroke-width="0.721"/>
      <path id="Trazado_439" data-name="Trazado 439" d="M753.5,2509.166A87.346,87.346,0,0,1,775.6,2520.6a119.636,119.636,0,0,1,18.107,15.83,151.332,151.332,0,0,1,14.18,17.581,172.846,172.846,0,0,1,12.069,20.283c1.888,3.733,3.639,7.53,5.246,11.349" fill="none" stroke="#25292b" stroke-miterlimit="10" stroke-width="0.721"/>
      <path id="Trazado_440" data-name="Trazado 440" d="M750.873,2508.323c.88.259,1.751.54,2.623.836" fill="none" stroke="#25292b" stroke-miterlimit="10" stroke-width="0.721"/>
      <path id="Trazado_441" data-name="Trazado 441" d="M642.779,2574.288A172.829,172.829,0,0,1,654.848,2554a151.267,151.267,0,0,1,14.18-17.581,119.24,119.24,0,0,1,18.107-15.823,87.155,87.155,0,0,1,22.113-11.442c.5-.173.994-.332,1.492-.49" fill="none" stroke="#25292b" stroke-miterlimit="10" stroke-width="0.721"/>
      <path id="Trazado_442" data-name="Trazado 442" d="M637.526,2585.651c1.607-3.826,3.365-7.623,5.253-11.363" fill="none" stroke="#25292b" stroke-miterlimit="10" stroke-width="0.721"/>
      <path id="Trazado_443" data-name="Trazado 443" d="M628.541,2663.137q-.562-2.236-1.03-4.517a96.839,96.839,0,0,1-1.917-19.181,137.6,137.6,0,0,1,.9-15.773" fill="none" stroke="#25292b" stroke-miterlimit="10" stroke-width="0.721"/>
      <path id="Trazado_444" data-name="Trazado 444" d="M780.56,2728.649a108.8,108.8,0,0,1-30.861,10.022,112,112,0,0,1-36.654.007,108.717,108.717,0,0,1-15.563-3.782q-1.3-.411-2.573-.865a107.905,107.905,0,0,1-12.818-5.426c-.288-.144-.576-.288-.865-.439-.021-.007-.036-.022-.057-.029" fill="none" stroke="#25292b" stroke-miterlimit="10" stroke-width="0.721"/>
      <path id="Trazado_445" data-name="Trazado 445" d="M781.784,2728.022c-.093.05-.187.093-.281.144-.309.158-.626.324-.943.475" fill="none" stroke="#25292b" stroke-miterlimit="10" stroke-width="0.721"/>
      <path id="Trazado_446" data-name="Trazado 446" d="M836.178,2623.7a139.116,139.116,0,0,1,.958,15.737,109.041,109.041,0,0,1-1.78,19.2c-.324,1.8-.7,3.552-1.109,5.224" fill="none" stroke="#25292b" stroke-miterlimit="10" stroke-width="0.721"/>
      <line id="Línea_27" data-name="Línea 27" x1="28.404" y2="58.299" transform="translate(669.035 2735.025)" fill="none" stroke="#25292b" stroke-miterlimit="10" stroke-width="0.721"/>
      <line id="Línea_28" data-name="Línea 28" x2="28.404" y2="58.299" transform="translate(765.291 2735.025)" fill="none" stroke="#25292b" stroke-miterlimit="10" stroke-width="0.721"/>
      <path id="Trazado_447" data-name="Trazado 447" d="M721.108,2526.524a20.827,20.827,0,0,1-3.43-10.412c-.043-.512-.057-1.038-.057-1.563,0-.973.021-1.766.093-2.53" fill="none" stroke="#25292b" stroke-miterlimit="10" stroke-width="0.721"/>
      <path id="Trazado_448" data-name="Trazado 448" d="M717.714,2512.012a16.867,16.867,0,0,1,.426-2.37s10.692-1.5,15.678-6.5c5.174-5.18,9.836-1.188,10.491,5.887.094,1.009.289,2.025.44,3.07a16.184,16.184,0,0,1,.216,2.45c0,.525-.014,1.051-.058,1.563a20.852,20.852,0,0,1-3.429,10.419,14.88,14.88,0,0,1-3.963,4.006,10.824,10.824,0,0,1-12.473-.021,14.906,14.906,0,0,1-3.927-3.985" fill="none" stroke="#25292b" stroke-miterlimit="10" stroke-width="0.721"/>
      <path id="Trazado_449" data-name="Trazado 449" d="M765.738,2580.859l14.677,19.433,8.827,11.68" fill="none" stroke="#25292b" stroke-miterlimit="10" stroke-width="0.721"/>
      <path id="Trazado_450" data-name="Trazado 450" d="M762.193,2628.22s-.072-.007-.194-.014c-1.125-.087-6.838-.577-8.712-1.6-2.089-1.138-2.752-4.575.281-4.755.49-.029,1.175-.094,1.982-.18a97.664,97.664,0,0,0,23.014-5.52c3.235-1.2,6.931-2.63,10.678-4.179,7.537-3.127,15.311-6.78,20.089-10.21" fill="none" stroke="#25292b" stroke-miterlimit="10" stroke-width="0.721"/>
      <path id="Trazado_451" data-name="Trazado 451" d="M787.736,2640.419c4.993-1.232,10.455-2.738,15.982-4.424,11.809-3.6,23.921-8.02,32.46-12.293,5.75-2.889,9.878-5.706,11.2-8.17,4.064-7.588-6.442-17.992-22.178-29.888-3.17-2.392-6.557-4.849-10.08-7.357q-1.4-.995-2.818-2c-1.3-.922-2.63-1.852-3.963-2.788-3.336-2.335-7.01-4.633-10.858-6.86-5.123-2.968-10.563-5.807-15.953-8.437-5.613-2.745-11.168-5.26-16.248-7.458-7-3.026-13.085-5.454-17.2-7.039-3.466-1.333-5.519-2.076-5.519-2.076-4.489-2.046-5-9.806-5.051-11.1-.007-.115-.007-.18-.007-.18" fill="none" stroke="#25292b" stroke-miterlimit="10" stroke-width="0.721"/>
      <path id="Trazado_452" data-name="Trazado 452" d="M761.437,2626.606a5.794,5.794,0,0,1,.562,1.6c.439,2.061.374,5.894-4.072,10.246a34.709,34.709,0,0,1-8.617,5.879s-4.071,2.083,0,3.79c2.118.887,7.493,1.031,12.429.245,4.576-.727,8.776-2.255,9.619-4.741a132.756,132.756,0,0,0,15.477-2.99" fill="none" stroke="#25292b" stroke-miterlimit="10" stroke-width="0.721"/>
      <line id="Línea_29" data-name="Línea 29" y1="3.278" transform="translate(752.487 2632.27)" fill="none" stroke="#25292b" stroke-miterlimit="10" stroke-width="0.721"/>
      <line id="Línea_30" data-name="Línea 30" x2="6.557" transform="translate(749.209 2632.068)" fill="none" stroke="#25292b" stroke-miterlimit="10" stroke-width="0.721"/>
      <path id="Trazado_453" data-name="Trazado 453" d="M766.941,2677.382s5.685,7.761,10.318,26.487c1,3.985,1.932,8.474,2.76,13.482q.832,5.046,1.484,10.815c.094.785.181,1.578.26,2.385a286.929,286.929,0,0,1,1.347,33.173h59.776c-4.222-6.686-1.816-69.913-8.639-99.859-.469-2.046-.98-3.941-1.542-5.649-.375-1.153-.771-2.226-1.2-3.206-4.41-10.174-13.345-14.238-22.07-15.571-1-.159-2-.274-3-.36a64.07,64.07,0,0,0-18.7,1.34c-.584.13-.9.216-.9.216" fill="none" stroke="#25292b" stroke-miterlimit="10" stroke-width="0.721"/>
      <path id="Trazado_454" data-name="Trazado 454" d="M697.006,2580.859l-14.685,20.052-8.265,11.291" fill="none" stroke="#25292b" stroke-miterlimit="10" stroke-width="0.721"/>
      <path id="Trazado_455" data-name="Trazado 455" d="M757.927,2638.452a13.663,13.663,0,0,0-3.069-2.9H737.363" fill="none" stroke="#25292b" stroke-miterlimit="10" stroke-width="0.721"/>
      <path id="Trazado_456" data-name="Trazado 456" d="M701.005,2648.366a23.2,23.2,0,0,0-.029,3.178,5.331,5.331,0,0,0,7.667,4.453,52.1,52.1,0,0,1,9.691-3.437H744.4a51.981,51.981,0,0,1,9.7,3.437,5.326,5.326,0,0,0,7.66-4.453,22.174,22.174,0,0,0-.022-3.178" fill="none" stroke="#25292b" stroke-miterlimit="10" stroke-width="0.721"/>
      <path id="Trazado_457" data-name="Trazado 457" d="M737.363,2635.548H707.879a13.732,13.732,0,0,0-3.062,2.9" fill="none" stroke="#25292b" stroke-miterlimit="10" stroke-width="0.721"/>
      <line id="Línea_31" data-name="Línea 31" y1="3.278" transform="translate(710.257 2632.27)" fill="none" stroke="#25292b" stroke-miterlimit="10" stroke-width="0.721"/>
      <line id="Línea_32" data-name="Línea 32" x1="6.564" transform="translate(706.971 2632.068)" fill="none" stroke="#25292b" stroke-miterlimit="10" stroke-width="0.721"/>
      <path id="Trazado_458" data-name="Trazado 458" d="M677.083,2640.916c.108.022.188.043.238.058" fill="none" stroke="#25292b" stroke-miterlimit="10" stroke-width="0.721"/>
      <path id="Trazado_459" data-name="Trazado 459" d="M695.8,2677.382s-5.693,7.761-10.318,26.487c-1,3.985-1.931,8.467-2.76,13.482q-.832,5.046-1.492,10.815c-.079.713-.158,1.441-.23,2.176a286.877,286.877,0,0,0-1.362,33.382H619.851c4.259-6.744,1.78-70.915,8.812-100.558.418-1.78.879-3.437,1.377-4.95.374-1.153.771-2.226,1.2-3.206,4.445-10.268,13.791-14.245,22.92-15.47a67.368,67.368,0,0,1,22.272,1.225" fill="none" stroke="#25292b" stroke-miterlimit="10" stroke-width="0.721"/>
      <path id="Trazado_460" data-name="Trazado 460" d="M653.414,2601.762c4.892,3.516,12.933,7.263,20.643,10.441,3.56,1.462,7.054,2.8,10.124,3.948a97.64,97.64,0,0,0,23.014,5.52c.807.086,1.491.151,1.981.18,3.034.18,2.363,3.617.281,4.755-1.873,1.023-7.566,1.513-8.711,1.6-.13.007-.2.014-.2.014" fill="none" stroke="#25292b" stroke-miterlimit="10" stroke-width="0.721"/>
      <path id="Trazado_461" data-name="Trazado 461" d="M725.049,2530.357s0,.058-.007.159c-.043,1.217-.526,9.057-5.044,11.117l-1.448.534c-.915.345-2.248.843-3.912,1.491-4.079,1.578-10.174,4.014-17.185,7.054-5.08,2.205-10.635,4.727-16.255,7.479-5.383,2.638-10.823,5.484-15.953,8.452-3.84,2.227-7.508,4.525-10.844,6.86q-3.459,2.421-6.788,4.784c-3.523,2.508-6.909,4.972-10.087,7.364v.007c-15.729,11.882-26.228,22.286-22.164,29.874,1.312,2.457,5.419,5.26,11.133,8.134,8.25,4.144,19.865,8.416,31.328,11.961,6.456,2,12.869,3.762,18.6,5.138.223.05.439.1.655.151.08.022.159.043.238.058l.087.021a124.59,124.59,0,0,0,13.978,2.63c.843,2.486,5.037,4.014,9.619,4.741,4.929.786,10.311.642,12.422-.245,4.078-1.707,0-3.79,0-3.79a34.65,34.65,0,0,1-8.61-5.879c-4.453-4.352-4.518-8.185-4.071-10.246a5.907,5.907,0,0,1,.555-1.6" fill="none" stroke="#25292b" stroke-miterlimit="10" stroke-width="0.721"/>
      <path id="Trazado_462" data-name="Trazado 462" d="M712.944,2641.781h-3.033a1.568,1.568,0,0,1-1.564-1.564,1.587,1.587,0,0,1,.462-1.109,1.551,1.551,0,0,1,1.1-.454h3.033a1.563,1.563,0,1,1,0,3.127Z" fill="none" stroke="#25292b" stroke-miterlimit="10" stroke-width="0.721"/>
      <path id="Trazado_463" data-name="Trazado 463" d="M753.2,2641.781h-3.034a1.563,1.563,0,1,1,0-3.127H753.2a1.562,1.562,0,0,1,1.563,1.563,1.55,1.55,0,0,1-1.563,1.564Z" fill="none" stroke="#25292b" stroke-miterlimit="10" stroke-width="0.721"/>
      <path id="Trazado_464" data-name="Trazado 464" d="M744.835,2512.084s1.038-1.189,1.708,0-1.578,4.028-1.578,4.028" fill="none" stroke="#25292b" stroke-miterlimit="10" stroke-width="0.721"/>
      <path id="Trazado_465" data-name="Trazado 465" d="M717.786,2512.084a.9.9,0,0,0-.072-.065v-.007c-.245-.245-1.073-.929-1.635.072-.67,1.182,1.578,4.028,1.578,4.028" fill="none" stroke="#25292b" stroke-miterlimit="10" stroke-width="0.721"/>
      <path id="Trazado_466" data-name="Trazado 466" d="M685.478,2703.869c1.491.793,2.975,1.549,4.467,2.27a108.17,108.17,0,0,0,13.726,5.526,93.812,93.812,0,0,0,13.7,3.322,86.046,86.046,0,0,0,27.993,0,93.8,93.8,0,0,0,13.7-3.322,107.455,107.455,0,0,0,13.719-5.526c1.492-.713,2.976-1.47,4.467-2.27h.008" fill="none" stroke="#25292b" stroke-miterlimit="10" stroke-width="0.721"/>
      <path id="Trazado_467" data-name="Trazado 467" d="M731.369,2716.125v24.059" fill="none" stroke="#25292b" stroke-miterlimit="10" stroke-width="0.721"/>
      <line id="Línea_33" data-name="Línea 33" x1="10.21" y1="12.48" transform="translate(655.006 2554.12)" fill="none" stroke="#25292b" stroke-miterlimit="10" stroke-width="0.721"/>
      <path id="Trazado_468" data-name="Trazado 468" d="M687.135,2520.6l10.318,30.111.05.151" fill="none" stroke="#25292b" stroke-miterlimit="10" stroke-width="0.721"/>
      <line id="Línea_34" data-name="Línea 34" x2="5.39" y2="34.499" transform="translate(709.248 2509.159)" fill="none" stroke="#25292b" stroke-miterlimit="10" stroke-width="0.721"/>
      <line id="Línea_35" data-name="Línea 35" x2="12.134" y2="21.703" transform="translate(669.035 2536.431)" fill="none" stroke="#25292b" stroke-miterlimit="10" stroke-width="0.721"/>
      <line id="Línea_36" data-name="Línea 36" x2="4.813" y2="3.97" transform="translate(642.786 2574.295)" fill="none" stroke="#25292b" stroke-miterlimit="10" stroke-width="0.721"/>
      <path id="Trazado_469" data-name="Trazado 469" d="M703.671,2711.658v.007l-8.762,22.365v.007" fill="none" stroke="#25292b" stroke-miterlimit="10" stroke-width="0.721"/>
      <line id="Línea_37" data-name="Línea 37" x1="2.371" y2="0.396" transform="translate(627.633 2658.202)" fill="none" stroke="#25292b" stroke-miterlimit="10" stroke-width="0.721"/>
      <line id="Línea_38" data-name="Línea 38" x1="4.33" y2="23.684" transform="translate(713.045 2714.987)" fill="none" stroke="#25292b" stroke-miterlimit="10" stroke-width="0.721"/>
      <line id="Línea_39" data-name="Línea 39" x1="7.22" y2="11.212" transform="translate(682.725 2706.139)" fill="none" stroke="#25292b" stroke-miterlimit="10" stroke-width="0.721"/>
      <path id="Trazado_470" data-name="Trazado 470" d="M837.15,2639.439h-27.82" fill="none" stroke="#25292b" stroke-miterlimit="10" stroke-width="0.721"/>
      <path id="Trazado_471" data-name="Trazado 471" d="M797.406,2566.744l.079-.1,10.253-12.523" fill="none" stroke="#25292b" stroke-miterlimit="10" stroke-width="0.721"/>
      <path id="Trazado_472" data-name="Trazado 472" d="M775.6,2520.6l-10.318,30.147-.043.115" fill="none" stroke="#25292b" stroke-miterlimit="10" stroke-width="0.721"/>
      <path id="Trazado_473" data-name="Trazado 473" d="M753.5,2509.159v.007l-5.39,34.492" fill="none" stroke="#25292b" stroke-miterlimit="10" stroke-width="0.721"/>
      <line id="Línea_40" data-name="Línea 40" x1="12.141" y2="21.703" transform="translate(781.568 2536.431)" fill="none" stroke="#25292b" stroke-miterlimit="10" stroke-width="0.721"/>
      <line id="Línea_41" data-name="Línea 41" x1="4.835" y2="3.992" transform="translate(815.124 2574.295)" fill="none" stroke="#25292b" stroke-miterlimit="10" stroke-width="0.721"/>
      <path id="Trazado_474" data-name="Trazado 474" d="M759.073,2711.658v.007l8.762,22.365v.007" fill="none" stroke="#25292b" stroke-miterlimit="10" stroke-width="0.721"/>
      <line id="Línea_42" data-name="Línea 42" x2="2.363" y2="0.396" transform="translate(832.741 2658.202)" fill="none" stroke="#25292b" stroke-miterlimit="10" stroke-width="0.721"/>
      <line id="Línea_43" data-name="Línea 43" x2="4.33" y2="23.684" transform="translate(745.369 2714.987)" fill="none" stroke="#25292b" stroke-miterlimit="10" stroke-width="0.721"/>
      <line id="Línea_44" data-name="Línea 44" x2="7.227" y2="11.212" transform="translate(772.792 2706.139)" fill="none" stroke="#25292b" stroke-miterlimit="10" stroke-width="0.721"/>
      <line id="Línea_45" data-name="Línea 45" x1="1.095" y2="1.736" transform="translate(680.996 2728.605)" fill="none" stroke="#25292b" stroke-miterlimit="10" stroke-width="0.721"/>
      <path id="Trazado_475" data-name="Trazado 475" d="M780.56,2728.648l1.2,1.9.007.007" fill="none" stroke="#25292b" stroke-miterlimit="10" stroke-width="0.721"/>
      <line id="Línea_46" data-name="Línea 46" y2="0.007" transform="translate(780.56 2728.641)" fill="none" stroke="#25292b" stroke-miterlimit="10" stroke-width="0.721"/>
      <path id="Trazado_476" data-name="Trazado 476" d="M1463.937,2657.264v6.435H1330.292v-6.435h133.645Z" fill="#3d4543"/>
      <path id="Trazado_477" data-name="Trazado 477" d="M1428.386,2638.9a2.025,2.025,0,0,0,3.106.518,2.038,2.038,0,0,1,1.354-.511,1.955,1.955,0,0,1,1.722.987,9.5,9.5,0,0,1,.951,5.526c-.454,5.765.6,6.392.6,6.392a14.01,14.01,0,1,1-15.347-22.128s6.1,1.167,6.708,6.024A9,9,0,0,0,1428.386,2638.9Zm-7.616,3.545a3.257,3.257,0,1,0-3.257-3.257A3.259,3.259,0,0,0,1420.77,2642.443Z" fill="#625d9c"/>
      <path id="Trazado_478" data-name="Trazado 478" d="M1431.492,2639.416a2.025,2.025,0,0,1-3.106-.518,9,9,0,0,1-.908-3.192c-.6-4.857-6.708-6.024-6.708-6.024a13.8,13.8,0,0,1,4.489-.742,14.011,14.011,0,0,1,10.858,22.87s-1.052-.627-.6-6.392a9.5,9.5,0,0,0-.951-5.526,1.955,1.955,0,0,0-1.722-.987A2.038,2.038,0,0,0,1431.492,2639.416Z" fill="#8f4899"/>
      <circle id="Elipse_3" data-name="Elipse 3" cx="3.257" cy="3.257" r="3.257" transform="translate(1417.513 2635.929)" fill="#8f4899"/>
      <path id="Trazado_479" data-name="Trazado 479" d="M1394.081,2480.949l17.732,76.629h-62.989l19.937-76.629Z" fill="#f5b335"/>
      <path id="Trazado_480" data-name="Trazado 480" d="M1394.081,2639.186v18.078h-25.32v-88.8h25.32v70.721Z" fill="#18988b"/>
      <path id="Trazado_481" data-name="Trazado 481" d="M1342.671,2647.7c.072-1.916,6.153-4.222,6.153-4.222v13.64h-13.906v-2.983S1342.6,2649.619,1342.671,2647.7Z" fill="#625d9c"/>
      <path id="Trazado_482" data-name="Trazado 482" d="M1348.824,2636.57v6.9s-6.081,2.306-6.153,4.222-7.753,6.435-7.753,6.435v-6.9s7.681-4.511,7.753-6.434S1348.824,2636.57,1348.824,2636.57Z" fill="#8f4899"/>
      <path id="Trazado_483" data-name="Trazado 483" d="M1348.255,2631.3h.569v5.267s-6.081,2.3-6.153,4.223-7.753,6.434-7.753,6.434V2631.3h13.337Z" fill="#625d9c"/>
      <path id="Trazado_484" data-name="Trazado 484" d="M1348.255,2631.3h-12.768v-.6a.934.934,0,0,1,.937-.93h10.9a.933.933,0,0,1,.936.93Z" fill="#5d6162" stroke="#25292b" stroke-miterlimit="10" stroke-width="0.721"/>
      <path id="Trazado_485" data-name="Trazado 485" d="M1411.252,2657.264h52.686v6.435H1330.292v-6.435h38.469" fill="none" stroke="#25292b" stroke-miterlimit="10" stroke-width="0.721"/>
      <line id="Línea_47" data-name="Línea 47" x1="59.567" y2="68.775" transform="translate(1337.548 2732.474)" fill="none" stroke="#25292b" stroke-miterlimit="10" stroke-width="0.721"/>
      <line id="Línea_48" data-name="Línea 48" x1="59.559" y2="68.768" transform="translate(1397.115 2663.698)" fill="none" stroke="#25292b" stroke-miterlimit="10" stroke-width="0.721"/>
      <line id="Línea_49" data-name="Línea 49" x2="59.559" y2="68.768" transform="translate(1397.115 2732.481)" fill="none" stroke="#25292b" stroke-miterlimit="10" stroke-width="0.721"/>
      <line id="Línea_50" data-name="Línea 50" x2="59.567" y2="68.775" transform="translate(1337.548 2663.698)" fill="none" stroke="#25292b" stroke-miterlimit="10" stroke-width="0.721"/>
      <path id="Trazado_486" data-name="Trazado 486" d="M1397.115,2663.7v137.55" fill="none" stroke="#25292b" stroke-miterlimit="10" stroke-width="0.721"/>
      <path id="Trazado_487" data-name="Trazado 487" d="M1394.081,2657.264h-25.32v-88.8h25.32v35.169" fill="none" stroke="#25292b" stroke-miterlimit="10" stroke-width="0.721"/>
      <path id="Trazado_488" data-name="Trazado 488" d="M1420.77,2629.682a13.8,13.8,0,0,1,4.489-.742,14.018,14.018,0,1,1-4.489.742Z" fill="none" stroke="#25292b" stroke-miterlimit="10" stroke-width="0.721"/>
      <path id="Trazado_489" data-name="Trazado 489" d="M1411.814,2557.578h-62.989l19.937-76.629h25.32Z" fill="none" stroke="#25292b" stroke-miterlimit="10" stroke-width="0.721"/>
      <line id="Línea_51" data-name="Línea 51" y1="10.887" transform="translate(1381.422 2557.578)" fill="none" stroke="#25292b" stroke-miterlimit="10" stroke-width="0.721"/>
      <path id="Trazado_490" data-name="Trazado 490" d="M1420.77,2629.682s6.1,1.167,6.708,6.024a9,9,0,0,0,.908,3.192,2.025,2.025,0,0,0,3.106.518,2.038,2.038,0,0,1,1.354-.511,1.955,1.955,0,0,1,1.722.987,9.5,9.5,0,0,1,.951,5.526c-.454,5.765.6,6.392.6,6.392" fill="none" stroke="#25292b" stroke-miterlimit="10" stroke-width="0.721"/>
      <path id="Trazado_491" data-name="Trazado 491" d="M1406.986,2653.661a1.592,1.592,0,0,1-1.592-1.592v-2.291a1.589,1.589,0,1,1,3.177,0v2.291A1.586,1.586,0,0,1,1406.986,2653.661Z" fill="#f5b335"/>
      <path id="Trazado_492" data-name="Trazado 492" d="M1405.394,2652.069a1.589,1.589,0,1,0,3.177,0v-2.291a1.589,1.589,0,1,0-3.177,0Zm5.858-9.115v14.31h-8.539v-36.156h8.539Z" fill="#f9b5c3"/>
      <path id="Trazado_493" data-name="Trazado 493" d="M1402.713,2621.107v18.078h-8.632v-35.551h8.632Z" fill="#f9b5c3"/>
      <path id="Trazado_494" data-name="Trazado 494" d="M1398.4,2648.185a1.6,1.6,0,0,1,1.593,1.593v2.291a1.589,1.589,0,1,1-3.178,0v-2.291A1.587,1.587,0,0,1,1398.4,2648.185Z" fill="#f5b335"/>
      <path id="Trazado_495" data-name="Trazado 495" d="M1398.4,2653.661a1.593,1.593,0,0,0,1.593-1.592v-2.291a1.589,1.589,0,1,0-3.178,0v2.291A1.586,1.586,0,0,0,1398.4,2653.661Zm4.316-14.475v18.078h-8.632v-18.078Z" fill="#f9b5c3"/>
      <path id="Trazado_496" data-name="Trazado 496" d="M1402.713,2657.264h-8.632v-53.629h8.632v17.473" fill="none" stroke="#25292b" stroke-miterlimit="10" stroke-width="0.721"/>
      <path id="Trazado_497" data-name="Trazado 497" d="M1411.252,2657.264h-8.538v-36.156h8.538v36.156Z" fill="none" stroke="#25292b" stroke-miterlimit="10" stroke-width="0.721"/>
      <line id="Línea_52" data-name="Línea 52" y2="5.678" transform="translate(1406.986 2624.775)" fill="none" stroke="#25292b" stroke-miterlimit="10" stroke-width="0.721"/>
      <line id="Línea_53" data-name="Línea 53" y2="10.952" transform="translate(1406.986 2632.377)" fill="none" stroke="#25292b" stroke-miterlimit="10" stroke-width="0.721"/>
      <line id="Línea_54" data-name="Línea 54" y2="5.671" transform="translate(1398.397 2607.381)" fill="none" stroke="#25292b" stroke-miterlimit="10" stroke-width="0.721"/>
      <line id="Línea_55" data-name="Línea 55" y2="10.952" transform="translate(1398.397 2614.976)" fill="none" stroke="#25292b" stroke-miterlimit="10" stroke-width="0.721"/>
      <path id="Trazado_498" data-name="Trazado 498" d="M1406.986,2653.661a1.592,1.592,0,0,1-1.592-1.592v-2.291a1.589,1.589,0,1,1,3.177,0v2.291A1.586,1.586,0,0,1,1406.986,2653.661Z" fill="none" stroke="#25292b" stroke-miterlimit="10" stroke-width="0.721"/>
      <path id="Trazado_499" data-name="Trazado 499" d="M1398.4,2653.661a1.586,1.586,0,0,1-1.585-1.592v-2.291a1.589,1.589,0,0,1,3.178,0v2.291A1.593,1.593,0,0,1,1398.4,2653.661Z" fill="none" stroke="#25292b" stroke-miterlimit="10" stroke-width="0.721"/>
      <line id="Línea_56" data-name="Línea 56" x2="8.632" transform="translate(1394.081 2639.186)" fill="none" stroke="#25292b" stroke-miterlimit="10" stroke-width="0.721"/>
      <circle id="Elipse_4" data-name="Elipse 4" cx="3.257" cy="3.257" r="3.257" transform="translate(1417.513 2635.929)" fill="none" stroke="#25292b" stroke-miterlimit="10" stroke-width="0.721"/>
      <path id="Trazado_500" data-name="Trazado 500" d="M1348.255,2631.3h.569v25.81h-13.906V2631.3h.569" fill="none" stroke="#25292b" stroke-miterlimit="10" stroke-width="0.721"/>
      <path id="Trazado_501" data-name="Trazado 501" d="M1348.255,2631.3v-.6a.933.933,0,0,0-.936-.93h-10.9a.934.934,0,0,0-.937.93v.6Z" fill="none" stroke="#25292b" stroke-miterlimit="10" stroke-width="0.721"/>
      <line id="Línea_57" data-name="Línea 57" y1="1.729" x2="3.3" transform="translate(1343.709 2628.039)" fill="none" stroke="#25292b" stroke-miterlimit="10" stroke-width="0.721"/>
      <path id="Trazado_502" data-name="Trazado 502" d="M1348.824,2636.57s-6.081,2.3-6.153,4.223-7.753,6.434-7.753,6.434" fill="none" stroke="#25292b" stroke-miterlimit="10" stroke-width="0.721"/>
      <path id="Trazado_503" data-name="Trazado 503" d="M1348.824,2643.473s-6.081,2.306-6.153,4.222-7.753,6.435-7.753,6.435" fill="none" stroke="#25292b" stroke-miterlimit="10" stroke-width="0.721"/>
      <path id="Trazado_504" data-name="Trazado 504" d="M1340.906,2627.261a.594.594,0,1,1-.6-.591A.6.6,0,0,1,1340.906,2627.261Z" fill="none" stroke="#25292b" stroke-miterlimit="10" stroke-width="0.721"/>
      <circle id="Elipse_5" data-name="Elipse 5" cx="1.059" cy="1.059" r="1.059" transform="translate(1341.266 2624.379)" fill="none" stroke="#25292b" stroke-miterlimit="10" stroke-width="0.721"/>
      <path id="Trazado_505" data-name="Trazado 505" d="M578.954,2621.3h.569v25.81" fill="none" stroke="#25292b" stroke-miterlimit="10" stroke-width="0.721"/>
      <path id="Trazado_506" data-name="Trazado 506" d="M565.624,2647.113V2621.3h.569" fill="none" stroke="#25292b" stroke-miterlimit="10" stroke-width="0.721"/>
      <path id="Trazado_507" data-name="Trazado 507" d="M578.954,2621.3v-.6a.934.934,0,0,0-.937-.93h-10.9a.932.932,0,0,0-.929.93v.6Z" fill="none" stroke="#25292b" stroke-miterlimit="10" stroke-width="0.721"/>
      <line id="Línea_58" data-name="Línea 58" y1="1.729" x2="3.293" transform="translate(574.414 2618.039)" fill="none" stroke="#25292b" stroke-miterlimit="10" stroke-width="0.721"/>
      <path id="Trazado_508" data-name="Trazado 508" d="M579.523,2626.57s-6.074,2.3-6.154,4.223-7.745,6.434-7.745,6.434" fill="none" stroke="#25292b" stroke-miterlimit="10" stroke-width="0.721"/>
      <path id="Trazado_509" data-name="Trazado 509" d="M579.523,2633.473s-6.074,2.306-6.154,4.222-7.745,6.435-7.745,6.435" fill="none" stroke="#25292b" stroke-miterlimit="10" stroke-width="0.721"/>
      <path id="Trazado_510" data-name="Trazado 510" d="M571.6,2617.261a.595.595,0,1,1-.591-.591A.594.594,0,0,1,571.6,2617.261Z" fill="none" stroke="#25292b" stroke-miterlimit="10" stroke-width="0.721"/>
      <path id="Trazado_511" data-name="Trazado 511" d="M574.083,2615.438a1.056,1.056,0,1,1-1.059-1.059A1.061,1.061,0,0,1,574.083,2615.438Z" fill="none" stroke="#25292b" stroke-miterlimit="10" stroke-width="0.721"/>
      <path id="Trazado_512" data-name="Trazado 512" d="M512.016,2647.113h85.643v6.434H464.014v-6.434H509.58" fill="none" stroke="#25292b" stroke-miterlimit="10" stroke-width="0.721"/>
      <path id="Trazado_513" data-name="Trazado 513" d="M590.4,2653.547l-59.559,68.775-59.56,68.775" fill="none" stroke="#25292b" stroke-miterlimit="10" stroke-width="0.721"/>
      <path id="Trazado_514" data-name="Trazado 514" d="M471.277,2653.547l59.56,68.775L590.4,2791.1" fill="none" stroke="#25292b" stroke-miterlimit="10" stroke-width="0.721"/>
      <path id="Trazado_515" data-name="Trazado 515" d="M530.836,2653.547V2791.1" fill="none" stroke="#25292b" stroke-miterlimit="10" stroke-width="0.721"/>
      <path id="Trazado_516" data-name="Trazado 516" d="M721.115,2526.531l-.007-.007c-.324-.123-10.916-4.287-10.368-17.855a30.327,30.327,0,0,1,.944-6.283c4.726-18.857,14.115-10.9,21.126-15.83,4.258-2.991,11.752-.757,14.5,5.879a52.633,52.633,0,0,1,3.559,15.888c.411,7.674-1.441,15.513-9.388,18.208" fill="none" stroke="#25292b" stroke-miterlimit="10" stroke-width="0.721"/>
      <path id="Trazado_517" data-name="Trazado 517" d="M718.55,2542.167l.029.057a12.962,12.962,0,0,0,23.987-.591" fill="none" stroke="#25292b" stroke-miterlimit="10" stroke-width="0.721"/>
      <path id="Trazado_518" data-name="Trazado 518" d="M657.823,2635.627l-3.682,3.812H625.594" fill="none" stroke="#25292b" stroke-miterlimit="10" stroke-width="0.721"/>
      <line id="Línea_59" data-name="Línea 59" x2="2.724" y2="3.084" transform="translate(803.718 2635.995)" fill="none" stroke="#25292b" stroke-miterlimit="10" stroke-width="0.721"/>
      <path id="Trazado_519" data-name="Trazado 519" d="M544.209,2589.614v25.3a32.19,32.19,0,0,1-32.193,32.194H509.58a32.2,32.2,0,0,1-32.193-32.194v-25.3h29.124a34.539,34.539,0,0,0,8.574,0Z" fill="#f5b335"/>
      <path id="Trazado_520" data-name="Trazado 520" d="M520.662,2566.067a33.814,33.814,0,0,0-2.226-12.314,33.479,33.479,0,0,1,12.04-7.789,33.517,33.517,0,0,1,2.169,12.393A33.734,33.734,0,0,0,520.662,2566.067Z" fill="#18988b"/>
      <path id="Trazado_521" data-name="Trazado 521" d="M512.917,2578.093a33.579,33.579,0,0,0-2.119-12.379,33.475,33.475,0,0,1,7.638-11.961,33.814,33.814,0,0,1,2.226,12.314A33.569,33.569,0,0,0,512.917,2578.093Z" fill="#18988b"/>
      <path id="Trazado_522" data-name="Trazado 522" d="M532.645,2558.357a33.614,33.614,0,0,1-21.443,30.817,33.52,33.52,0,0,0,9.46-23.107A33.734,33.734,0,0,1,532.645,2558.357Z" fill="#18988b"/>
      <path id="Trazado_523" data-name="Trazado 523" d="M515.085,2589.614H510.8c-.007-.007-.007-.007-.007-.014s0-.008.007-.015c.137-.137.274-.274.4-.411a33.614,33.614,0,0,0,21.443-30.817,33.556,33.556,0,0,1,11.8-2.125A33.639,33.639,0,0,1,515.085,2589.614Z" fill="#18988b"/>
      <path id="Trazado_524" data-name="Trazado 524" d="M510.8,2565.714a33.476,33.476,0,0,0-7.638-11.961,33.612,33.612,0,0,1,7.638-11.745,33.611,33.611,0,0,1,7.638,11.745A33.475,33.475,0,0,0,510.8,2565.714Z" fill="#18988b"/>
      <path id="Trazado_525" data-name="Trazado 525" d="M520.662,2566.067a33.52,33.52,0,0,1-9.46,23.107c-.116.058-.238.1-.353.145a.608.608,0,0,1-.036-.109.259.259,0,0,1-.008-.036.048.048,0,0,1,.008-.028v-.008a33.578,33.578,0,0,0,2.1-11.045A33.569,33.569,0,0,1,520.662,2566.067Z" fill="#18988b"/>
      <path id="Trazado_526" data-name="Trazado 526" d="M512.917,2578.093a33.578,33.578,0,0,1-2.1,11.045A33.4,33.4,0,0,1,512.917,2578.093Z" fill="#18988b"/>
      <path id="Trazado_527" data-name="Trazado 527" d="M510.784,2589.146a33.468,33.468,0,0,0-2.1-11.053,33.557,33.557,0,0,1,2.118-12.379,33.579,33.579,0,0,1,2.119,12.379,33.4,33.4,0,0,0-2.1,11.045v.008a.048.048,0,0,0-.008.028h-.014A.053.053,0,0,0,510.784,2589.146Z" fill="#18988b"/>
      <path id="Trazado_528" data-name="Trazado 528" d="M503.16,2553.753a33.476,33.476,0,0,1,7.638,11.961,33.557,33.557,0,0,0-2.118,12.379,33.584,33.584,0,0,0-7.746-12.026A33.814,33.814,0,0,1,503.16,2553.753Z" fill="#18988b"/>
      <path id="Trazado_529" data-name="Trazado 529" d="M500.934,2566.067a33.584,33.584,0,0,1,7.746,12.026,33.54,33.54,0,0,0,2.1,11.053c0,.014.007.021.007.028a.291.291,0,0,1-.007.036.693.693,0,0,1-.036.109,3.731,3.731,0,0,1-.353-.145A33.516,33.516,0,0,1,500.934,2566.067Z" fill="#18988b"/>
      <path id="Trazado_530" data-name="Trazado 530" d="M510.784,2589.146a33.54,33.54,0,0,1-2.1-11.053A33.468,33.468,0,0,1,510.784,2589.146Z" fill="#18988b"/>
      <path id="Trazado_531" data-name="Trazado 531" d="M500.934,2566.067a33.516,33.516,0,0,0,9.461,23.107,33.612,33.612,0,0,1-21.436-30.81A33.6,33.6,0,0,1,500.934,2566.067Z" fill="#18988b"/>
      <path id="Trazado_532" data-name="Trazado 532" d="M503.16,2553.753a33.814,33.814,0,0,0-2.226,12.314,33.6,33.6,0,0,0-11.975-7.7,33.554,33.554,0,0,1,2.169-12.4A33.386,33.386,0,0,1,503.16,2553.753Z" fill="#18988b"/>
      <path id="Trazado_533" data-name="Trazado 533" d="M510.791,2589.614h-4.28a33.64,33.64,0,0,1-29.362-33.382,33.445,33.445,0,0,1,11.81,2.132,33.612,33.612,0,0,0,21.436,30.81c.122.137.259.274.4.411.007.007.007.007.007.015S510.8,2589.607,510.791,2589.614Z" fill="#18988b"/>
      <path id="Trazado_534" data-name="Trazado 534" d="M512.016,2647.113H509.58a32.2,32.2,0,0,1-32.193-32.194v-25.3h66.822v25.3A32.19,32.19,0,0,1,512.016,2647.113Z" fill="none" stroke="#25292b" stroke-linecap="round" stroke-linejoin="round" stroke-width="0.721"/>
      <path id="Trazado_535" data-name="Trazado 535" d="M503.16,2553.753a33.612,33.612,0,0,1,7.638-11.745,33.613,33.613,0,0,1,.4,47.166c-.123.137-.26.274-.4.411l-.007.007-.007-.007c-.137-.137-.274-.274-.4-.411a33.631,33.631,0,0,1-7.235-35.421Z" fill="none" stroke="#25292b" stroke-linecap="round" stroke-linejoin="round" stroke-width="0.721"/>
      <path id="Trazado_536" data-name="Trazado 536" d="M532.645,2558.357a33.556,33.556,0,0,1,11.8-2.125,33.639,33.639,0,0,1-29.362,33.382,34.988,34.988,0,0,1-4.287.267c0-.087,0-.181.007-.267a.023.023,0,0,1,0-.029,3.138,3.138,0,0,1,.008-.375.088.088,0,0,1,0-.064,33.634,33.634,0,0,1,21.832-30.789Z" fill="none" stroke="#25292b" stroke-linecap="round" stroke-linejoin="round" stroke-width="0.721"/>
      <path id="Trazado_537" data-name="Trazado 537" d="M518.436,2553.753a33.479,33.479,0,0,1,12.04-7.789,33.6,33.6,0,0,1-19.274,43.21c-.116.058-.238.1-.353.145a.608.608,0,0,1-.036-.109.049.049,0,0,1-.015-.028c-.007-.015-.007-.022-.014-.036a33.673,33.673,0,0,1,7.652-35.393Z" fill="none" stroke="#25292b" stroke-linecap="round" stroke-linejoin="round" stroke-width="0.721"/>
      <path id="Trazado_538" data-name="Trazado 538" d="M488.959,2558.364a33.445,33.445,0,0,0-11.81-2.132,33.64,33.64,0,0,0,29.362,33.382,35,35,0,0,0,4.287.267c0-.087,0-.181-.007-.267a.023.023,0,0,0,0-.029,3.355,3.355,0,0,0-.007-.375.1.1,0,0,0,0-.064,33.621,33.621,0,0,0-21.825-30.782Z" fill="none" stroke="#25292b" stroke-linecap="round" stroke-linejoin="round" stroke-width="0.721"/>
      <path id="Trazado_539" data-name="Trazado 539" d="M503.16,2553.753a33.386,33.386,0,0,0-12.032-7.789,33.6,33.6,0,0,0,19.267,43.21,3.731,3.731,0,0,0,.353.145.693.693,0,0,0,.036-.109.053.053,0,0,0,.014-.028.386.386,0,0,1,.015-.036,33.675,33.675,0,0,0-7.653-35.393Z" fill="none" stroke="#25292b" stroke-linecap="round" stroke-linejoin="round" stroke-width="0.721"/>
      <path id="Trazado_540" data-name="Trazado 540" d="M846.5,2778.726c15.182,1.29,18.5,6.571,18.828,10.411" fill="none" stroke="#25292b" stroke-miterlimit="10" stroke-width="0.721"/>
      <path id="Trazado_541" data-name="Trazado 541" d="M797.471,2789.137c-.988-8.869.77-25.413.77-25.413,11.551.072,15.312.007,25.788,0,3.718,9.36,11.673,12.847,16.407,14.123" fill="none" stroke="#25292b" stroke-miterlimit="10" stroke-width="0.721"/>
      <line id="Línea_60" data-name="Línea 60" x1="42.966" transform="translate(797.471 2789.137)" fill="none" stroke="#25292b" stroke-miterlimit="10" stroke-width="0.721"/>
      <path id="Trazado_542" data-name="Trazado 542" d="M797.471,2789.137h-1.5v4.186h71.383v-4.186H846.5" fill="none" stroke="#25292b" stroke-miterlimit="10" stroke-width="0.721"/>
      <path id="Trazado_543" data-name="Trazado 543" d="M846.5,2789.137h-6.067v-13.121H846.5v13.121Z" fill="none" stroke="#25292b" stroke-miterlimit="10" stroke-width="0.721"/>
      <path id="Trazado_544" data-name="Trazado 544" d="M616.537,2778.92c-15.175,1.29-18.5,6.579-18.821,10.419" fill="none" stroke="#25292b" stroke-miterlimit="10" stroke-width="0.721"/>
      <path id="Trazado_545" data-name="Trazado 545" d="M665.576,2789.339c.988-8.87-.771-25.413-.771-25.413-11.55.072-15.311,0-25.795,0-3.71,9.352-11.665,12.847-16.406,14.122" fill="none" stroke="#25292b" stroke-miterlimit="10" stroke-width="0.721"/>
      <line id="Línea_61" data-name="Línea 61" x2="42.973" transform="translate(622.604 2789.339)" fill="none" stroke="#25292b" stroke-miterlimit="10" stroke-width="0.721"/>
      <path id="Trazado_546" data-name="Trazado 546" d="M665.576,2789.339h1.5v4.179H595.692v-4.179h20.845" fill="none" stroke="#25292b" stroke-miterlimit="10" stroke-width="0.721"/>
      <path id="Trazado_547" data-name="Trazado 547" d="M616.537,2789.339H622.6v-13.121h-6.067v13.121Z" fill="none" stroke="#25292b" stroke-miterlimit="10" stroke-width="0.721"/>
      <line id="Línea_62" data-name="Línea 62" y1="24.001" x2="31.891" transform="translate(780.415 2576.291)" fill="none" stroke="#25292b" stroke-miterlimit="10" stroke-width="0.721"/>
      <line id="Línea_63" data-name="Línea 63" x1="27.921" y1="27.409" transform="translate(654.401 2573.503)" fill="none" stroke="#25292b" stroke-miterlimit="10" stroke-width="0.721"/>
      <path id="Trazado_548" data-name="Trazado 548" d="M750.8,2587.87a5.627,5.627,0,0,1-5.634-5.627v-8.394h11.262v8.394A5.626,5.626,0,0,1,750.8,2587.87Z" fill="none" stroke="#25292b" stroke-miterlimit="10" stroke-width="0.721"/>
    </g>
  </g>
</svg>
