<svg xmlns="http://www.w3.org/2000/svg" width="177.407" height="321.615" viewBox="0 0 177.407 321.615">
  <g id="Grupo_41" data-name="Grupo 41" transform="translate(-61.689 -1565.279)">
    <g id="Grupo_40" data-name="Grupo 40" transform="translate(-3.81 24.127)">
      <path id="Trazado_281" data-name="Trazado 281" d="M196.515,1804.4v34.52a23.609,23.609,0,0,1-23.609,23.609H151.194a23.61,23.61,0,0,1-23.609-23.609V1804.4h68.93Zm-7.22,8.971a1.692,1.692,0,1,0-3.131-1.282l-5.951,14.516a1.692,1.692,0,1,0,3.13,1.287Zm-10.229,38.126a1.7,1.7,0,0,0,1.011-2.173l-5.361-14.749a1.7,1.7,0,0,0-1.592-1.113,1.719,1.719,0,0,0-.581.1,1.7,1.7,0,0,0-1.011,2.172l5.366,14.744A1.691,1.691,0,0,0,179.066,1851.493Zm-7.249-28.884a1.693,1.693,0,0,0-1.161-2.095l-15.088-4.311a1.691,1.691,0,1,0-.929,3.251l15.088,4.317a1.718,1.718,0,0,0,.464.062A1.693,1.693,0,0,0,171.817,1822.609Zm-8.429,27.258a1.692,1.692,0,0,0,1.442-1.912l-2.207-15.537a1.693,1.693,0,0,0-3.353.474l2.206,15.538a1.69,1.69,0,0,0,1.665,1.456A1.472,1.472,0,0,0,163.388,1849.867Zm-14.067-17.957a1.693,1.693,0,1,0-3.131-1.288l-5.952,14.522a1.692,1.692,0,1,0,3.131,1.282Zm-7.873-2.962a1.691,1.691,0,0,0,1.011-2.168l-5.366-14.749a1.7,1.7,0,0,0-1.592-1.113,1.716,1.716,0,0,0-.576.1,1.694,1.694,0,0,0-1.011,2.168l5.361,14.749A1.693,1.693,0,0,0,141.448,1828.948Z" fill="#f9b5c3"/>
      <path id="Trazado_282" data-name="Trazado 282" d="M189.426,1812.723a1.7,1.7,0,0,1-.131.644l-5.952,14.521a1.692,1.692,0,1,1-3.13-1.287l5.951-14.516a1.695,1.695,0,0,1,3.262.638Z" fill="#8f4899"/>
      <path id="Trazado_283" data-name="Trazado 283" d="M180.077,1849.32a1.691,1.691,0,1,1-3.179,1.156l-5.366-14.744a1.7,1.7,0,0,1,1.011-2.172,1.719,1.719,0,0,1,.581-.1,1.7,1.7,0,0,1,1.592,1.113Z" fill="#8f4899"/>
      <path id="Trazado_284" data-name="Trazado 284" d="M170.656,1820.514a1.692,1.692,0,0,1-.465,3.319,1.718,1.718,0,0,1-.464-.062l-15.088-4.317a1.691,1.691,0,1,1,.929-3.251Z" fill="#8f4899"/>
      <path id="Trazado_285" data-name="Trazado 285" d="M164.83,1847.955a1.692,1.692,0,0,1-1.442,1.912,1.472,1.472,0,0,1-.247.019,1.69,1.69,0,0,1-1.665-1.456l-2.206-15.538a1.693,1.693,0,0,1,3.353-.474Z" fill="#8f4899"/>
      <path id="Trazado_286" data-name="Trazado 286" d="M149.452,1831.266a1.7,1.7,0,0,1-.131.644l-5.952,14.516a1.692,1.692,0,1,1-3.131-1.282l5.952-14.522a1.695,1.695,0,0,1,3.262.644Z" fill="#8f4899"/>
      <path id="Trazado_287" data-name="Trazado 287" d="M142.459,1826.78a1.694,1.694,0,0,1-3.184,1.157l-5.361-14.749a1.694,1.694,0,0,1,1.011-2.168,1.716,1.716,0,0,1,.576-.1,1.7,1.7,0,0,1,1.592,1.113Z" fill="#8f4899"/>
      <path id="Trazado_288" data-name="Trazado 288" d="M178.393,1804.4h18.122v34.52a23.609,23.609,0,0,1-23.609,23.609H151.194a23.61,23.61,0,0,1-23.609-23.609V1804.4h50.808Z" fill="none" stroke="#2d2d2e" stroke-miterlimit="10" stroke-width="0.484"/>
      <path id="Trazado_289" data-name="Trazado 289" d="M141.448,1828.948a1.693,1.693,0,0,1-2.173-1.011l-5.361-14.749a1.694,1.694,0,0,1,1.011-2.168,1.716,1.716,0,0,1,.576-.1,1.7,1.7,0,0,1,1.592,1.113l5.366,14.749A1.691,1.691,0,0,1,141.448,1828.948Z" fill="none" stroke="#2d2d2e" stroke-miterlimit="10" stroke-width="0.484"/>
      <path id="Trazado_290" data-name="Trazado 290" d="M179.066,1851.493a1.691,1.691,0,0,1-2.168-1.017l-5.366-14.744a1.7,1.7,0,0,1,1.011-2.172,1.719,1.719,0,0,1,.581-.1,1.7,1.7,0,0,1,1.592,1.113l5.361,14.749A1.7,1.7,0,0,1,179.066,1851.493Z" fill="none" stroke="#2d2d2e" stroke-miterlimit="10" stroke-width="0.484"/>
      <path id="Trazado_291" data-name="Trazado 291" d="M149.452,1831.266a1.7,1.7,0,0,1-.131.644l-5.952,14.516a1.692,1.692,0,1,1-3.131-1.282l5.952-14.522a1.695,1.695,0,0,1,3.262.644Z" fill="none" stroke="#2d2d2e" stroke-miterlimit="10" stroke-width="0.484"/>
      <path id="Trazado_292" data-name="Trazado 292" d="M189.426,1812.723a1.7,1.7,0,0,1-.131.644l-5.952,14.521a1.692,1.692,0,1,1-3.13-1.287l5.951-14.516a1.695,1.695,0,0,1,3.262.638Z" fill="none" stroke="#2d2d2e" stroke-miterlimit="10" stroke-width="0.484"/>
      <path id="Trazado_293" data-name="Trazado 293" d="M164.83,1847.955a1.692,1.692,0,0,1-1.442,1.912,1.472,1.472,0,0,1-.247.019,1.69,1.69,0,0,1-1.665-1.456l-2.206-15.538a1.693,1.693,0,0,1,3.353-.474Z" fill="none" stroke="#2d2d2e" stroke-miterlimit="10" stroke-width="0.484"/>
      <path id="Trazado_294" data-name="Trazado 294" d="M170.656,1820.514a1.692,1.692,0,0,1-.465,3.319,1.718,1.718,0,0,1-.464-.062l-15.088-4.317a1.691,1.691,0,1,1,.929-3.251Z" fill="none" stroke="#2d2d2e" stroke-miterlimit="10" stroke-width="0.484"/>
      <g id="Grupo_39" data-name="Grupo 39">
        <g id="Grupo_37" data-name="Grupo 37">
          <path id="Trazado_295" data-name="Trazado 295" d="M135.235,1674.273c-10.384-19.3-25.278-36.616-44.281-51.472a1.451,1.451,0,1,0-1.785,2.289c18.683,14.609,33.315,31.613,43.511,50.557a136.89,136.89,0,0,1,6.407,13.631l-.054.024a84.49,84.49,0,0,1-72.665-93.492,84.493,84.493,0,0,1,74.6,90.333l-.024.009Q138.4,1680.151,135.235,1674.273Z" fill="#18988b"/>
          <path id="Trazado_296" data-name="Trazado 296" d="M148.324,1804.4v-68.209a124.346,124.346,0,0,0-9.237-46.909,136.89,136.89,0,0,0-6.407-13.631c-10.2-18.944-24.828-35.948-43.511-50.557a1.451,1.451,0,1,1,1.785-2.289c19,14.856,33.9,32.169,44.281,51.472q3.165,5.879,5.705,11.879a127.545,127.545,0,0,1,10.288,50.035V1804.4Z" fill="#cda787"/>
          <path id="Trazado_297" data-name="Trazado 297" d="M173.569,1638.155a208.207,208.207,0,0,1,44.818-68.039,1.459,1.459,0,0,1,2.061-.005,1.441,1.441,0,0,1,.426,1.026,1.457,1.457,0,0,1-.421,1.021,205.258,205.258,0,0,0-43.715,65.92c-.242.581-.479,1.166-.711,1.747a205.189,205.189,0,0,0-15,77.219V1804.4h-2.9v-86.142a212.32,212.32,0,0,1,15.32-79.8C173.486,1638.354,173.53,1638.257,173.569,1638.155Z" fill="#cda787"/>
          <path id="Trazado_298" data-name="Trazado 298" d="M218.387,1570.116a208.207,208.207,0,0,0-44.818,68.039c-.039.1-.083.2-.121.3a84.18,84.18,0,0,1,67.589-97.02,84.494,84.494,0,0,1-65.01,98.39c.232-.581.469-1.166.711-1.747a205.258,205.258,0,0,1,43.715-65.92,1.457,1.457,0,0,0,.421-1.021,1.441,1.441,0,0,0-.426-1.026A1.459,1.459,0,0,0,218.387,1570.116Z" fill="#18988b"/>
          <path id="Trazado_299" data-name="Trazado 299" d="M182.961,1696.44a133.477,133.477,0,0,1,32.634-42.7,1.006,1.006,0,1,0-1.331-1.509,135.5,135.5,0,0,0-33.316,43.482c-.363.765-.721,1.529-1.065,2.294a54.844,54.844,0,0,1,49.3-59.766,54.848,54.848,0,0,1-46.913,59.674C182.5,1697.422,182.724,1696.929,182.961,1696.44Z" fill="#18988b"/>
          <path id="Trazado_300" data-name="Trazado 300" d="M215.6,1653.741a133.477,133.477,0,0,0-32.634,42.7c-.237.489-.465.982-.692,1.476h0a117.865,117.865,0,0,0-11.071,49.777v56.7H169.02v-56.7a119.349,119.349,0,0,1,10.863-49.685c.344-.765.7-1.529,1.065-2.294a135.5,135.5,0,0,1,33.316-43.482,1.006,1.006,0,1,1,1.331,1.509Z" fill="#cda787"/>
        </g>
        <g id="Grupo_38" data-name="Grupo 38">
          <path id="Trazado_301" data-name="Trazado 301" d="M173.448,1638.455a84.18,84.18,0,0,1,67.589-97.02,84.494,84.494,0,0,1-65.01,98.39h0" fill="none" stroke="#2d2d2e" stroke-miterlimit="10" stroke-width="0.484"/>
          <path id="Trazado_302" data-name="Trazado 302" d="M139.033,1689.3a84.49,84.49,0,0,1-72.665-93.492,84.493,84.493,0,0,1,74.6,90.333" fill="none" stroke="#2d2d2e" stroke-miterlimit="10" stroke-width="0.484"/>
          <path id="Trazado_303" data-name="Trazado 303" d="M176.027,1639.825a205.189,205.189,0,0,0-15,77.219V1804.4h-2.9v-86.142a212.32,212.32,0,0,1,15.32-79.8c.038-.1.082-.2.121-.3a208.207,208.207,0,0,1,44.818-68.039,1.459,1.459,0,0,1,2.061-.005,1.441,1.441,0,0,1,.426,1.026,1.457,1.457,0,0,1-.421,1.021,205.258,205.258,0,0,0-43.715,65.92C176.5,1638.659,176.259,1639.244,176.027,1639.825Z" fill="none" stroke="#2d2d2e" stroke-miterlimit="10" stroke-width="0.484"/>
          <path id="Trazado_304" data-name="Trazado 304" d="M179.883,1698.008a54.844,54.844,0,0,1,49.3-59.766,54.848,54.848,0,0,1-46.913,59.674" fill="none" stroke="#2d2d2e" stroke-miterlimit="10" stroke-width="0.484"/>
          <line id="Línea_16" data-name="Línea 16" x1="0.005" transform="translate(182.264 1697.916)" fill="none" stroke="#2d2d2e" stroke-miterlimit="10" stroke-width="0.484"/>
          <path id="Trazado_305" data-name="Trazado 305" d="M182.264,1697.916a117.865,117.865,0,0,0-11.071,49.777v56.7H169.02v-56.7a119.349,119.349,0,0,1,10.863-49.685c.344-.765.7-1.529,1.065-2.294a135.5,135.5,0,0,1,33.316-43.482,1.006,1.006,0,1,1,1.331,1.509,133.477,133.477,0,0,0-32.634,42.7c-.237.489-.465.982-.692,1.476" fill="none" stroke="#2d2d2e" stroke-miterlimit="10" stroke-width="0.484"/>
          <path id="Trazado_306" data-name="Trazado 306" d="M140.94,1686.152a127.545,127.545,0,0,1,10.288,50.035V1804.4h-2.9v-68.209a124.346,124.346,0,0,0-9.237-46.909,136.89,136.89,0,0,0-6.407-13.631c-10.2-18.944-24.828-35.948-43.511-50.557a1.451,1.451,0,1,1,1.785-2.289c19,14.856,33.9,32.169,44.281,51.472Q138.4,1680.152,140.94,1686.152Z" fill="none" stroke="#2d2d2e" stroke-miterlimit="10" stroke-width="0.484"/>
        </g>
      </g>
    </g>
  </g>
</svg>
