<svg width="607" height="539" viewBox="0 0 607 539" fill="none" xmlns="http://www.w3.org/2000/svg">
<mask id="mask0_1077_284" style="mask-type:alpha" maskUnits="userSpaceOnUse" x="323" y="18" width="396" height="409">
<path fill-rule="evenodd" clip-rule="evenodd" d="M601.664 62.3557C608.688 87.7 631.643 105.14 658.399 105.471C711.756 106.124 737.071 169.203 699.448 207.751C680.581 227.08 676.197 255.91 688.614 279.008C713.371 325.071 670.132 379.89 618.496 367.897C592.607 361.885 565.27 373.27 550.931 396.037C522.332 441.447 453.777 433.187 439.765 382.649C432.741 357.305 409.782 339.863 383.03 339.534C329.673 338.877 304.357 275.799 341.982 237.254C360.843 217.923 365.233 189.095 352.815 165.997C328.058 119.934 371.297 65.1152 422.932 77.1046C448.823 83.1201 476.159 71.735 490.497 48.9649C519.098 3.55869 587.652 11.8178 601.664 62.3557Z" stroke="#F6E3E3" stroke-width="2"/>
</mask>
<g mask="url(#mask0_1077_284)">
<rect x="271" y="90" width="336" height="379" fill="#B4B4B4"/>
</g>
<path fill-rule="evenodd" clip-rule="evenodd" d="M322.526 145.463C329.782 169.802 351.966 186.633 377.36 187.072C427.997 187.94 453.487 248.552 418.691 285.352C401.243 303.805 397.756 331.435 410.076 353.644C434.639 397.934 394.895 450.314 345.625 438.578C320.922 432.695 295.252 443.49 282.179 465.26C256.105 508.682 190.871 500.45 176.397 451.917C169.142 427.578 146.952 410.746 121.564 410.309C70.925 409.437 45.4348 348.826 80.2319 312.028C97.6759 293.574 101.168 265.946 88.8475 243.736C64.2841 199.446 104.028 147.066 153.297 158.799C178.001 164.686 203.671 153.89 216.743 132.117C242.818 88.6984 308.053 96.9301 322.526 145.463Z" fill="#E5DBE5"/>
<path d="M95.0481 503.913C72.7768 505.121 78.3637 516 78.3637 516H103.11C103.11 516 97.4941 505.112 119.775 503.913C119.775 503.913 131.862 503.684 136.345 492.377C130.482 493.46 124.867 495.605 119.775 498.706C120.051 497.545 120.337 496.374 120.622 495.213C118.1 493.118 114.896 492.02 111.618 492.13V492.377C107.136 503.675 95.0481 503.913 95.0481 503.913Z" fill="#CDA787" stroke="#2D2A26" stroke-width="0.6" stroke-miterlimit="10"/>
<path d="M119.775 503.912C97.5036 505.121 103.091 516 103.091 516H157.265C159.483 511.241 157.322 494.576 157.265 494.223C150.568 491.782 143.346 491.149 136.326 492.387C131.862 503.675 119.775 503.912 119.775 503.912Z" fill="#CDA787" stroke="#2D2A26" stroke-width="0.6" stroke-miterlimit="10"/>
<path d="M102.462 495.223C105.172 493.368 108.339 492.294 111.618 492.12C114.896 492.011 118.1 493.108 120.622 495.204C128.569 462.263 136.736 430.769 145.311 396.915C146.577 391.414 149.956 386.779 155.019 384.656C168.239 379.155 181.764 375.567 195.621 371.674C195.621 371.674 189.235 372.188 180.936 373.273C170.742 374.596 157.655 376.766 149.965 379.869C148.89 380.285 147.847 380.778 146.843 381.344C135.298 387.949 102.462 495.223 102.462 495.223Z" fill="#E96235"/>
<path d="M263.834 401.54C264.421 399.864 264.879 398.146 265.205 396.401C265.395 395.364 265.538 394.317 265.643 393.27C267.308 376.138 257.124 360.091 257.124 360.091H212.068C211.116 362.366 206.548 368.191 201.912 369.885C199.809 370.494 197.706 371.084 195.621 371.674C181.764 375.567 168.239 379.155 155.019 384.656C149.956 386.779 146.577 391.414 145.311 396.915C136.745 430.769 128.569 462.263 120.622 495.204C120.337 496.365 120.051 497.536 119.775 498.697C124.867 495.595 130.482 493.45 136.345 492.368C143.365 491.13 150.587 491.763 157.284 494.204C160.367 495.278 163.281 496.787 165.936 498.687C165.936 498.687 174.073 457.638 179.175 435.5C179.822 432.692 180.422 430.17 180.945 428.104H220.091C228.343 428.143 236.491 426.256 243.885 422.594C244.837 422.137 245.694 421.642 246.579 421.128C249.461 419.466 252.154 417.497 254.612 415.255C256.106 413.894 257.482 412.407 258.723 410.811C260.924 408.018 262.651 404.883 263.834 401.531V401.54Z" fill="#E96235"/>
<path d="M137.288 360.586C137.706 366.925 136.859 373.682 137.706 380.021C141.932 380.021 145.73 380.021 149.946 379.821C157.636 376.718 170.723 374.548 180.917 373.225C180.917 373.225 196.573 367.077 199.562 364.564C200.256 363.984 201.142 362.309 202.093 360.082C192.1 360.319 181.963 360.167 171.808 360.082C171.618 360.082 171.418 360.082 171.228 360.082H163.956C163.568 360.085 163.179 360.06 162.795 360.005C154.277 359.986 145.749 360.091 137.288 360.586Z" fill="#CDA787"/>
<path d="M156.047 336.992V352.22C156.049 354.118 156.732 355.953 157.972 357.391C159.212 358.828 160.927 359.773 162.804 360.053C165.812 360.053 168.81 360.053 171.818 360.11C173.81 359.963 175.673 359.068 177.032 357.605C178.392 356.141 179.147 354.218 179.146 352.22V336.992H156.047Z" fill="#F5B8B9"/>
<path d="M165.07 322.354C163.597 322.87 162.321 323.83 161.418 325.103C160.516 326.376 160.031 327.898 160.031 329.458C160.031 331.019 160.516 332.541 161.418 333.814C162.321 335.087 163.597 336.047 165.07 336.563C164.036 334.338 163.5 331.913 163.5 329.458C163.5 327.004 164.036 324.579 165.07 322.354Z" fill="#238D7E"/>
<path d="M165.07 322.354C164.037 324.578 163.502 327.001 163.502 329.454C163.502 331.906 164.037 334.329 165.07 336.554C165.874 336.838 166.72 336.983 167.573 336.982V321.925C166.72 321.925 165.874 322.07 165.07 322.354Z" fill="#238D7E"/>
<path d="M165.745 281.285C165.745 284.683 183.41 317.062 187.265 323.629C191.119 330.196 200.171 341.294 207.414 336.954L213.676 332.252C212.242 326.497 208.942 321.38 204.292 317.699L200.628 320.869C200.628 320.869 199.809 319.803 198.458 318.014C191.9 309.295 172.76 283.55 172.541 280.352C172.313 276.545 173.674 267.218 171.408 267.218C169.143 267.218 165.774 279.143 165.745 281.285Z" fill="#CDA787" stroke="#2D2A26" stroke-width="0.6" stroke-miterlimit="10"/>
<path d="M170.047 322.353C169.257 322.081 168.427 321.943 167.592 321.944V337.011C168.424 337.012 169.251 336.874 170.038 336.601C171.082 334.372 171.623 331.94 171.625 329.479C171.627 327.017 171.088 324.584 170.047 322.353Z" fill="#238D7E"/>
<path d="M170.038 336.554C171.534 336.052 172.835 335.094 173.756 333.813C174.678 332.532 175.174 330.994 175.174 329.416C175.174 327.838 174.678 326.3 173.756 325.019C172.835 323.738 171.534 322.779 170.038 322.277C171.084 324.512 171.627 326.949 171.627 329.416C171.627 331.883 171.084 334.32 170.038 336.554Z" fill="#238D7E"/>
<path d="M182.506 498.697C180.794 498.695 179.12 499.201 177.696 500.151C176.272 501.101 175.161 502.452 174.505 504.033C173.849 505.614 173.677 507.355 174.011 509.034C174.344 510.713 175.168 512.255 176.379 513.466C177.589 514.676 179.132 515.501 180.811 515.834C182.49 516.168 184.23 515.996 185.812 515.34C187.393 514.684 188.744 513.573 189.694 512.149C190.644 510.725 191.15 509.051 191.148 507.339C191.148 505.047 190.237 502.849 188.617 501.228C186.996 499.607 184.798 498.697 182.506 498.697Z" fill="#3D4543"/>
<path d="M179.156 435.509H284.802C286.513 435.509 288.155 434.829 289.365 433.619C290.575 432.409 291.255 430.768 291.255 429.056C291.255 427.345 290.575 425.703 289.365 424.493C288.155 423.283 286.513 422.603 284.802 422.603H243.876C236.481 426.266 228.334 428.153 220.082 428.114H180.917C180.403 430.179 179.803 432.701 179.156 435.509Z" fill="#8B4986"/>
<path d="M202.103 360.091C201.151 362.318 200.266 363.993 199.571 364.574C196.583 367.087 180.926 373.235 180.926 373.235C189.225 372.15 195.612 371.636 195.612 371.636C197.696 371.046 199.8 370.456 201.903 369.847C206.538 368.153 211.145 362.328 212.058 360.053L213.324 339.438C211.992 340.247 211.087 340.685 210.802 340.58C210.145 340.284 209.561 339.849 209.089 339.304C208.994 339.704 205.196 352.829 202.103 360.091Z" fill="#CDA787" stroke="#2D2A26" stroke-width="0.6" stroke-miterlimit="10"/>
<path d="M198.886 316.348C198.699 316.567 198.563 316.825 198.487 317.103C198.412 317.381 198.398 317.673 198.448 317.956C198.443 317.982 198.443 318.007 198.448 318.033C199.8 319.831 200.618 320.888 200.618 320.888L204.282 317.718C203.453 317.056 202.585 316.443 201.684 315.882C201.26 315.616 200.756 315.506 200.26 315.57C199.763 315.634 199.305 315.869 198.962 316.234L198.886 316.348Z" fill="#F6B248" stroke="#2E2E2E" stroke-width="0.58" stroke-miterlimit="10"/>
<path d="M214.561 338.724C214.133 339 213.733 339.257 213.362 339.476L212.096 360.091H261.798C260.971 344.255 258.918 328.507 255.659 312.988C254.797 308.536 253.424 304.199 251.566 300.063C245.637 287.367 237.88 288.08 237.88 288.08C237.88 288.08 231.217 289.28 221.624 295.419C212.994 301.09 205.343 308.126 198.971 316.253C199.314 315.888 199.773 315.653 200.269 315.589C200.766 315.525 201.269 315.635 201.694 315.901C202.595 316.462 203.462 317.075 204.292 317.737C208.942 321.418 212.242 326.535 213.676 332.29C214.248 334.387 214.545 336.55 214.561 338.724Z" fill="#F6B248"/>
<path d="M213.676 332.29L207.414 336.992C207.889 337.833 208.454 338.622 209.098 339.343C209.57 339.887 210.155 340.322 210.812 340.618C211.097 340.723 212.001 340.285 213.334 339.476C213.705 339.257 214.105 339 214.533 338.724C214.526 336.551 214.238 334.389 213.676 332.29Z" fill="#F6B248" stroke="#2E2E2E" stroke-width="0.58" stroke-miterlimit="10"/>
<path d="M212.382 267.237C212.162 268.365 212.057 269.513 212.068 270.663H224.384V267.237H212.382Z" fill="#CDA787" stroke="#2D2A26" stroke-width="0.6" stroke-miterlimit="10"/>
<path d="M224.384 270.663H212.068C212.081 271.939 212.192 273.212 212.401 274.47C214.209 285.568 223.042 281.485 223.042 281.485L221.614 295.38C231.198 289.242 237.87 288.042 237.87 288.042C233.911 287.243 232.407 284.131 231.893 281.218C231.788 280.589 231.728 279.953 231.712 279.315H228.448L224.641 273.737C224.641 273.737 227.058 272.519 226.754 270.882C226.449 269.245 224.346 270.882 224.346 270.882L224.384 270.663Z" fill="#CDA787" stroke="#2D2A26" stroke-width="0.6" stroke-miterlimit="10"/>
<path d="M212.382 267.237H224.384V270.939C224.384 270.939 226.497 269.274 226.792 270.939C227.087 272.605 224.679 273.794 224.679 273.794L228.486 279.372H231.693C231.618 277.467 231.942 275.567 232.645 273.794C232.845 273.299 233.007 272.843 233.149 272.357C233.77 270.257 233.739 268.018 233.059 265.936C232.379 263.854 231.083 262.027 229.342 260.698C227.92 259.49 226.198 258.686 224.358 258.371C222.519 258.057 220.628 258.242 218.884 258.909C217.141 259.575 215.609 260.698 214.448 262.16C213.287 263.622 212.541 265.368 212.287 267.218L212.382 267.237Z" fill="#3D4543"/>
<path d="M225.507 435.509L219.111 498.706H231.36H244.161L240.088 435.509H225.507Z" fill="#3D4543"/>
<path d="M231.36 498.697C229.649 498.697 227.976 499.204 226.553 500.155C225.13 501.107 224.021 502.458 223.366 504.04C222.712 505.621 222.541 507.361 222.876 509.04C223.21 510.718 224.035 512.26 225.246 513.469C226.457 514.679 227.999 515.502 229.678 515.835C231.357 516.168 233.097 515.995 234.678 515.339C236.258 514.682 237.609 513.572 238.558 512.148C239.508 510.724 240.014 509.05 240.012 507.339C240.012 506.203 239.788 505.079 239.353 504.029C238.918 502.98 238.281 502.027 237.477 501.225C236.674 500.422 235.72 499.786 234.67 499.352C233.621 498.918 232.496 498.696 231.36 498.697Z" fill="#3D4543"/>
<path d="M232.712 273.813C231.767 276.174 231.487 278.748 231.903 281.256C232.417 284.169 233.92 287.281 237.88 288.08C237.88 288.08 245.637 287.367 251.566 300.063C268.184 306.982 273 292.535 270.602 284.073C269.998 282.233 268.874 280.606 267.366 279.391C262.293 274.841 253.869 271.957 257.267 262.316C257.458 261.802 257.667 261.269 257.924 260.717C258.287 259.917 258.605 259.097 258.876 258.262C262.768 245.803 251.014 238.931 241.934 241.263C232.274 243.747 229.476 260.717 229.476 260.717C231.216 262.046 232.513 263.873 233.192 265.955C233.872 268.037 233.904 270.276 233.283 272.376C233.073 272.843 232.912 273.318 232.712 273.813Z" fill="#3D4543"/>
<path d="M309.967 336.992C309.897 333.23 309.631 329.475 309.167 325.742C308.24 318.416 306.8 311.165 304.856 304.042C303.339 298.197 300.623 292.733 296.88 287.995C291.026 280.733 278.435 274.718 267.375 279.429C268.883 280.645 270.007 282.271 270.611 284.112C273.029 292.573 268.213 307.021 251.576 300.101C253.434 304.237 254.807 308.574 255.668 313.026C258.928 328.545 260.98 344.293 261.807 360.129H257.134C257.134 360.129 267.318 376.195 265.652 393.308C268.821 393.031 271.95 392.419 274.989 391.48C282.556 389.294 289.475 385.295 295.148 379.831C301.069 373.933 305.319 366.57 307.463 358.492C309.354 351.488 310.198 344.243 309.967 336.992Z" fill="#8B4986"/>
<path d="M254.612 415.265L254.802 415.465H282.46C283.076 415.465 283.667 415.22 284.103 414.785C284.538 414.349 284.783 413.758 284.783 413.143C284.783 412.527 284.538 411.936 284.103 411.5C283.667 411.065 283.076 410.82 282.46 410.82H258.723C257.482 412.416 256.106 413.903 254.612 415.265Z" fill="#3D4543"/>
<path d="M257.248 262.316C253.85 271.957 262.274 274.841 267.347 279.391C278.435 274.718 291.026 280.733 296.851 287.957C300.609 292.703 303.335 298.182 304.856 304.042C306.8 311.165 308.24 318.416 309.167 325.742H358.754V262.364H257.867L257.248 262.316Z" fill="#F5B8B9"/>
<path d="M257.248 262.316H257.905H358.792V325.742H309.205C309.669 329.475 309.935 333.23 310.005 336.992H359.182C360.233 336.992 361.24 336.575 361.982 335.832C362.725 335.09 363.142 334.082 363.142 333.032V262.221C363.142 261.171 362.725 260.164 361.982 259.421C361.24 258.679 360.233 258.262 359.182 258.262H258.838C258.567 259.097 258.249 259.917 257.886 260.717C257.648 261.269 257.391 261.802 257.248 262.316Z" fill="#9A9999" stroke="#2E2E2E" stroke-width="0.58" stroke-miterlimit="10"/>
<path d="M261.731 406.261H261.798H282.461C282.766 406.26 283.067 406.199 283.349 406.081C283.63 405.963 283.885 405.791 284.1 405.574C284.315 405.358 284.485 405.101 284.6 404.819C284.716 404.537 284.775 404.234 284.773 403.929V403.825C284.775 403.52 284.716 403.218 284.6 402.937C284.484 402.655 284.314 402.399 284.099 402.183C283.884 401.967 283.629 401.796 283.348 401.679C283.067 401.563 282.765 401.502 282.461 401.502H263.834C263.263 403.143 262.559 404.734 261.731 406.261Z" fill="#3D4543"/>
<path d="M265.205 396.363H282.461C283.074 396.363 283.662 396.119 284.096 395.686C284.53 395.252 284.773 394.664 284.773 394.05V393.727C284.775 393.422 284.716 393.12 284.6 392.839C284.484 392.557 284.314 392.301 284.099 392.085C283.884 391.869 283.629 391.698 283.348 391.581C283.067 391.464 282.765 391.404 282.461 391.404H274.98C271.941 392.343 268.811 392.955 265.643 393.232C265.538 394.317 265.395 395.411 265.205 396.363Z" fill="#3D4543"/>
<path d="M279.795 498.697C278.084 498.695 276.41 499.201 274.985 500.151C273.561 501.101 272.451 502.452 271.795 504.033C271.139 505.614 270.967 507.355 271.3 509.034C271.634 510.713 272.458 512.255 273.668 513.466C274.879 514.676 276.421 515.501 278.1 515.834C279.78 516.168 281.52 515.996 283.101 515.34C284.682 514.684 286.034 513.573 286.983 512.149C287.933 510.725 288.439 509.051 288.438 507.339C288.435 505.048 287.524 502.851 285.904 501.231C284.283 499.611 282.087 498.699 279.795 498.697Z" fill="#3D4543"/>
<path d="M307.454 358.454C305.309 366.532 301.059 373.895 295.138 379.793C297.042 379.793 391.676 378.898 391.676 379.793V358.454H307.454Z" fill="#CDA787"/>
<path d="M307.454 358.454H324.176L319.199 336.992H309.967C310.191 344.231 309.344 351.463 307.454 358.454Z" fill="#9A9999" stroke="#2E2E2E" stroke-width="0.58" stroke-miterlimit="10"/>
<path d="M221.614 295.399L223.042 281.504C223.042 281.504 214.209 285.587 212.401 274.489C212.192 273.231 212.081 271.958 212.068 270.682C212.057 269.532 212.162 268.384 212.382 267.256C212.636 265.406 213.382 263.66 214.543 262.198C215.704 260.736 217.236 259.613 218.98 258.947C220.723 258.28 222.614 258.095 224.454 258.409C226.293 258.724 228.015 259.528 229.438 260.736C231.178 262.065 232.474 263.892 233.154 265.974C233.834 268.056 233.866 270.295 233.245 272.395C233.102 272.862 232.94 273.347 232.74 273.832C231.796 276.193 231.516 278.767 231.931 281.275C232.445 284.188 233.949 287.3 237.908 288.099C237.908 288.099 245.665 287.386 251.595 300.082C253.453 304.218 254.826 308.555 255.687 313.007C258.947 328.526 260.999 344.274 261.826 360.11H212.096L213.362 339.495" stroke="#2E2E2E" stroke-width="0.58" stroke-miterlimit="10"/>
<path d="M209.098 339.343C209.57 339.887 210.155 340.322 210.812 340.618C211.097 340.723 212.001 340.285 213.334 339.476C213.705 339.257 214.105 339 214.533 338.724C222.461 333.575 240.031 319.784 240.031 319.784" stroke="#2E2E2E" stroke-width="0.58" stroke-miterlimit="10"/>
<path d="M198.458 318.032C191.9 309.314 172.76 283.569 172.541 280.371C172.313 276.564 173.674 267.237 171.408 267.237C169.143 267.237 165.774 279.143 165.698 281.285C165.698 284.683 183.363 317.062 187.217 323.629C191.072 330.196 200.123 341.294 207.366 336.954C207.842 337.795 208.407 338.583 209.051 339.304" stroke="#2E2E2E" stroke-width="0.58" stroke-miterlimit="10"/>
<path d="M204.301 317.728L200.637 320.897C200.637 320.897 199.819 319.831 198.467 318.042" stroke="#2E2E2E" stroke-width="0.58" stroke-miterlimit="10"/>
<path d="M198.886 316.348C198.699 316.567 198.563 316.825 198.487 317.103C198.412 317.381 198.398 317.673 198.448 317.956C198.443 317.981 198.443 318.007 198.448 318.032V318.032" stroke="#2E2E2E" stroke-width="0.58" stroke-miterlimit="10"/>
<path d="M214.561 338.724C214.555 336.551 214.267 334.389 213.705 332.29C212.271 326.535 208.971 321.418 204.32 317.737C203.491 317.075 202.623 316.462 201.722 315.901C201.298 315.635 200.795 315.525 200.298 315.589C199.802 315.653 199.343 315.888 199 316.253" stroke="#2E2E2E" stroke-width="0.58" stroke-miterlimit="10"/>
<path d="M207.414 336.992L213.676 332.29" stroke="#2E2E2E" stroke-width="0.58" stroke-miterlimit="10"/>
<path d="M237.88 288.08C237.88 288.08 231.217 289.28 221.624 295.418C212.994 301.09 205.344 308.126 198.972 316.253L198.886 316.348" stroke="#2E2E2E" stroke-width="0.58" stroke-miterlimit="10"/>
<path d="M257.124 360.091C257.124 360.091 267.308 376.157 265.643 393.27C265.538 394.317 265.395 395.364 265.205 396.401C264.879 398.146 264.421 399.864 263.834 401.54C262.651 404.893 260.924 408.028 258.723 410.82C257.482 412.416 256.106 413.903 254.612 415.265C252.154 417.506 249.461 419.475 246.579 421.137C245.694 421.651 244.799 422.146 243.885 422.603C236.491 426.266 228.343 428.153 220.091 428.114H180.926" stroke="#2E2E2E" stroke-width="0.58" stroke-miterlimit="10"/>
<path d="M165.917 498.697C165.917 498.697 174.054 457.647 179.156 435.509C179.803 432.701 180.403 430.179 180.926 428.114C181.583 425.535 182.116 423.622 182.506 422.603" stroke="#2E2E2E" stroke-width="0.58" stroke-miterlimit="10"/>
<path d="M202.122 360.091C192.128 360.329 181.992 360.177 171.837 360.091C168.829 360.091 165.831 360.034 162.823 360.034C154.257 360.034 145.768 360.11 137.307 360.605C137.725 366.944 136.878 373.701 137.725 380.04C141.951 380.04 145.749 380.04 149.965 379.84" stroke="#2E2E2E" stroke-width="0.58" stroke-miterlimit="10"/>
<path d="M119.775 498.697C120.051 497.536 120.336 496.365 120.622 495.204C128.569 462.263 136.735 430.769 145.311 396.915C146.577 391.414 149.955 386.779 155.019 384.656C168.239 379.155 181.763 375.567 195.621 371.674C197.706 371.084 199.809 370.494 201.912 369.885C206.547 368.191 211.154 362.366 212.068 360.091" stroke="#2E2E2E" stroke-width="0.58" stroke-miterlimit="10"/>
<path d="M157.265 494.205C150.568 491.763 143.346 491.13 136.326 492.368C130.463 493.45 124.848 495.595 119.756 498.697" stroke="#2E2E2E" stroke-width="0.58" stroke-miterlimit="10"/>
<path d="M165.917 498.697C163.262 496.797 160.348 495.287 157.265 494.214" stroke="#2E2E2E" stroke-width="0.58" stroke-miterlimit="10"/>
<path d="M103.091 515.991C103.091 515.991 97.4942 505.112 119.775 503.913C119.775 503.913 131.862 503.684 136.345 492.377" stroke="#2E2E2E" stroke-width="0.58" stroke-miterlimit="10"/>
<path d="M157.265 494.205C157.322 494.557 159.483 511.194 157.265 515.981H132.519" stroke="#2E2E2E" stroke-width="0.58" stroke-miterlimit="10"/>
<path d="M132.538 515.991H78.3637C78.3637 515.991 72.7482 505.112 95.0481 503.913C95.0481 503.913 107.136 503.684 111.628 492.377" stroke="#2E2E2E" stroke-width="0.58" stroke-miterlimit="10"/>
<path d="M195.612 371.617C195.612 371.617 189.225 372.131 180.926 373.216C170.733 374.539 157.646 376.709 149.956 379.812C148.881 380.228 147.838 380.721 146.834 381.287C135.298 387.949 102.462 495.204 102.462 495.204C105.172 493.349 108.339 492.275 111.618 492.101C114.896 491.992 118.1 493.089 120.622 495.185V495.185" stroke="#2E2E2E" stroke-width="0.58" stroke-miterlimit="10"/>
<path d="M212.382 267.237H224.384V270.939C224.384 270.939 226.497 269.273 226.792 270.939C227.087 272.605 224.679 273.794 224.679 273.794L228.486 279.372H231.693" stroke="#2E2E2E" stroke-width="0.58" stroke-miterlimit="10"/>
<path d="M229.438 260.717C229.438 260.717 232.236 243.747 241.896 241.263C250.976 238.931 262.73 245.803 258.838 258.262C258.567 259.097 258.249 259.917 257.886 260.717C257.629 261.269 257.419 261.802 257.229 262.316C253.831 271.957 262.254 274.841 267.327 279.391C268.836 280.606 269.959 282.233 270.563 284.073C272.981 292.535 268.165 306.982 251.528 300.063" stroke="#2E2E2E" stroke-width="0.58" stroke-miterlimit="10"/>
<path d="M243.876 422.603H284.802C286.513 422.603 288.155 423.283 289.365 424.493C290.575 425.703 291.255 427.345 291.255 429.056C291.255 430.768 290.575 432.409 289.365 433.619C288.155 434.829 286.513 435.509 284.802 435.509H179.156" stroke="#2E2E2E" stroke-width="0.58" stroke-miterlimit="10"/>
<path d="M265.471 393.289H265.643C268.811 393.012 271.941 392.4 274.98 391.461C282.547 389.275 289.466 385.276 295.138 379.812C301.059 373.914 305.309 366.55 307.454 358.473C309.344 351.482 310.191 344.25 309.967 337.011C309.897 333.249 309.631 329.494 309.167 325.761C308.24 318.435 306.8 311.184 304.856 304.061C303.339 298.216 300.623 292.752 296.88 288.014C291.026 280.752 278.435 274.737 267.375 279.448" stroke="#2E2E2E" stroke-width="0.58" stroke-miterlimit="10"/>
<path d="M274.98 391.442H282.461C282.765 391.442 283.067 391.503 283.348 391.619C283.629 391.736 283.884 391.907 284.099 392.123C284.314 392.339 284.484 392.595 284.6 392.877C284.716 393.158 284.775 393.46 284.773 393.765V394.088C284.773 394.702 284.53 395.29 284.096 395.724C283.662 396.157 283.074 396.401 282.461 396.401H264.881" stroke="#2E2E2E" stroke-width="0.58" stroke-miterlimit="10"/>
<path d="M263.568 401.541H282.461C282.765 401.541 283.067 401.601 283.348 401.717C283.629 401.834 283.884 402.006 284.099 402.221C284.314 402.437 284.484 402.693 284.6 402.975C284.716 403.257 284.775 403.558 284.773 403.863V403.977C284.775 404.282 284.716 404.584 284.6 404.866C284.485 405.149 284.315 405.405 284.1 405.622C283.885 405.838 283.63 406.011 283.349 406.128C283.067 406.246 282.766 406.308 282.461 406.309H261.798" stroke="#2E2E2E" stroke-width="0.58" stroke-miterlimit="10"/>
<path d="M258.59 410.82H282.46C283.076 410.82 283.667 411.065 284.103 411.5C284.538 411.936 284.783 412.527 284.783 413.143C284.783 413.758 284.538 414.349 284.103 414.785C283.667 415.22 283.076 415.465 282.46 415.465H254.802" stroke="#2E2E2E" stroke-width="0.58" stroke-miterlimit="10"/>
<path d="M240.088 435.519L244.161 498.706" stroke="#2E2E2E" stroke-width="0.58" stroke-miterlimit="10"/>
<path d="M225.507 435.519L219.111 498.706" stroke="#2E2E2E" stroke-width="0.58" stroke-miterlimit="10"/>
<path d="M279.796 498.707H244.161H231.36H219.111H182.506" stroke="#2E2E2E" stroke-width="0.58" stroke-miterlimit="10"/>
<path d="M271.144 507.339C271.142 509.05 271.648 510.724 272.597 512.148C273.547 513.572 274.897 514.682 276.478 515.339C278.059 515.995 279.799 516.168 281.477 515.835C283.156 515.502 284.699 514.679 285.91 513.469C287.121 512.26 287.946 510.718 288.28 509.04C288.615 507.361 288.444 505.621 287.789 504.04C287.135 502.458 286.026 501.107 284.603 500.155C283.18 499.204 281.507 498.697 279.796 498.697C277.503 498.697 275.303 499.607 273.681 501.227C272.059 502.848 271.146 505.046 271.144 507.339Z" stroke="#2E2E2E" stroke-width="0.58" stroke-miterlimit="10"/>
<path d="M191.148 507.339C191.146 505.63 190.638 503.96 189.687 502.54C188.736 501.12 187.386 500.014 185.806 499.362C184.227 498.709 182.49 498.539 180.814 498.874C179.138 499.208 177.599 500.032 176.392 501.241C175.184 502.45 174.362 503.99 174.029 505.666C173.697 507.342 173.868 509.079 174.523 510.658C175.177 512.237 176.285 513.586 177.706 514.535C179.127 515.484 180.797 515.991 182.506 515.991C184.799 515.988 186.997 515.075 188.617 513.453C190.238 511.831 191.148 509.632 191.148 507.339Z" stroke="#2E2E2E" stroke-width="0.58" stroke-miterlimit="10"/>
<path d="M222.718 507.339C222.716 509.051 223.222 510.725 224.172 512.149C225.122 513.573 226.473 514.684 228.055 515.34C229.636 515.996 231.376 516.168 233.055 515.834C234.734 515.501 236.277 514.676 237.487 513.466C238.698 512.255 239.522 510.713 239.856 509.034C240.189 507.355 240.017 505.614 239.361 504.033C238.705 502.452 237.595 501.101 236.17 500.151C234.746 499.201 233.072 498.695 231.36 498.697C229.068 498.697 226.87 499.607 225.249 501.228C223.629 502.849 222.718 505.047 222.718 507.339Z" stroke="#2E2E2E" stroke-width="0.58" stroke-miterlimit="10"/>
<path d="M391.676 379.821C391.676 378.927 297.032 379.821 295.138 379.821" stroke="#2E2E2E" stroke-width="0.58" stroke-miterlimit="10"/>
<path d="M307.454 358.454H324.176H391.676V379.802" stroke="#2E2E2E" stroke-width="0.58" stroke-miterlimit="10"/>
<path d="M372.64 379.831L401.631 513.421" stroke="#2E2E2E" stroke-width="0.58" stroke-miterlimit="10"/>
<path d="M309.967 336.992H359.182C360.233 336.992 361.24 336.575 361.982 335.832C362.725 335.09 363.142 334.082 363.142 333.032V262.221C363.142 261.171 362.725 260.164 361.982 259.421C361.24 258.679 360.233 258.262 359.182 258.262H258.838" stroke="#2E2E2E" stroke-width="0.58" stroke-miterlimit="10"/>
<path d="M319.199 336.992L324.176 358.454" stroke="#2E2E2E" stroke-width="0.58" stroke-miterlimit="10"/>
<path d="M257.895 262.364H358.754V325.742H309.167" stroke="#2E2E2E" stroke-width="0.58" stroke-miterlimit="10"/>
<path d="M162.804 360.015C163.189 360.069 163.577 360.095 163.966 360.091H171.237C171.427 360.091 171.627 360.091 171.818 360.091C173.81 359.944 175.673 359.049 177.032 357.586C178.392 356.122 179.147 354.198 179.146 352.201V336.973H156.047V352.201C156.053 354.096 156.739 355.926 157.978 357.36C159.218 358.793 160.93 359.735 162.804 360.015V360.015Z" stroke="#2E2E2E" stroke-width="0.58" stroke-miterlimit="10"/>
<path d="M165.07 322.353C163.398 322.95 161.99 324.116 161.094 325.648C160.198 327.181 159.871 328.98 160.172 330.729C160.472 332.478 161.38 334.065 162.735 335.211C164.091 336.357 165.807 336.987 167.582 336.992C168.415 336.993 169.241 336.855 170.028 336.582C170.963 336.257 171.824 335.752 172.562 335.094C173.301 334.436 173.903 333.639 174.334 332.749C174.765 331.858 175.016 330.892 175.074 329.904C175.131 328.917 174.993 327.928 174.668 326.993C174.343 326.059 173.837 325.198 173.18 324.459C172.522 323.72 171.725 323.118 170.835 322.687C169.944 322.257 168.978 322.005 167.99 321.948C167.002 321.891 166.013 322.029 165.079 322.353" stroke="#2E2E2E" stroke-width="0.58" stroke-miterlimit="10"/>
<path d="M167.601 336.992V321.925" stroke="#2E2E2E" stroke-width="0.58" stroke-miterlimit="10"/>
<path d="M165.07 322.354C164.037 324.578 163.502 327.001 163.502 329.454C163.502 331.906 164.037 334.329 165.07 336.554" stroke="#2E2E2E" stroke-width="0.58" stroke-miterlimit="10"/>
<path d="M170.038 322.354C171.073 324.577 171.609 327.001 171.609 329.454C171.609 331.907 171.073 334.33 170.038 336.554" stroke="#2E2E2E" stroke-width="0.58" stroke-miterlimit="10"/>
<path d="M209.098 339.343C208.994 339.704 205.196 352.829 202.103 360.091C201.151 362.318 200.266 363.993 199.571 364.574C196.583 367.087 180.926 373.235 180.926 373.235" stroke="#2E2E2E" stroke-width="0.58" stroke-miterlimit="10"/>
<path d="M80.1244 496.565C80.1069 498.401 79.8248 500.225 79.2868 501.98C78.554 503.817 77.8211 505.788 77.7736 505.902" stroke="#2E2E2E" stroke-width="0.58" stroke-miterlimit="10"/>
<path d="M80.1244 496.565L92.1547 515.867H99.5023C100.185 515.867 100.854 515.672 101.429 515.304C102.004 514.936 102.461 514.41 102.747 513.79C103.032 513.17 103.134 512.481 103.04 511.805C102.945 511.129 102.659 510.494 102.215 509.975L100.787 508.329L96.9801 497.107L85.8445 464.043C83.6078 448.339 83.941 428.466 74.4233 410.011C72.3675 406.014 70.6162 401.379 68.6556 396.563C68.4478 396.039 68.124 395.569 67.7086 395.188C67.2932 394.807 66.797 394.526 66.2571 394.364C64.448 393.772 62.5704 393.414 60.6702 393.298C60.7845 393.622 64.7057 404.167 64.4773 406.623C64.2489 409.079 60.3657 408.888 60.3657 408.888C60.328 410.422 60.0052 411.936 59.4139 413.352C59.4139 413.352 54.7312 425.677 57.2724 436.194C57.7959 438.336 58.2242 440.325 58.5764 442.124C58.5764 442.124 56.8442 448.967 51.362 459.256C51.362 459.617 50.7148 465.29 55.1024 473.446C59.6233 481.879 62.0979 492.901 54.0745 497.06C46.0511 501.219 35.7816 500.762 30.5278 499.544C30.0329 501.885 29.6331 504.141 29.3 506.206C28.4244 511.803 28.1579 515.838 28.1579 515.838H83.8553C84.3883 509.652 80.8763 507.015 77.7735 505.873C77.8211 505.759 78.5539 503.789 79.2868 501.952C79.8221 500.206 80.1042 498.391 80.1244 496.565ZM59.1855 465.48C59.1855 464.464 59.4869 463.47 60.0516 462.625C60.6164 461.78 61.4191 461.121 62.3582 460.732C63.2973 460.343 64.3307 460.241 65.3277 460.439C66.3247 460.638 67.2405 461.127 67.9592 461.846C68.678 462.565 69.1675 463.481 69.3658 464.478C69.5641 465.475 69.4624 466.508 69.0734 467.447C68.6844 468.386 68.0256 469.189 67.1804 469.754C66.3352 470.318 65.3416 470.62 64.3251 470.62C62.9694 470.607 61.6733 470.061 60.7182 469.098C59.7631 468.136 59.226 466.836 59.2235 465.48H59.1855ZM62.726 421.699C62.726 421.28 63.2495 420.947 63.8872 420.947C64.5249 420.947 65.0579 421.28 65.0579 421.699C65.0579 422.118 64.5344 422.451 63.8872 422.451C63.24 422.451 62.7641 422.156 62.7641 421.737L62.726 421.699Z" fill="#F6B248"/>
<path d="M8.02801 492.415C8.02801 492.415 6.12449 515.867 28.0817 515.867C28.0817 515.867 28.3483 511.831 29.2239 506.235C28.9669 506.302 15.052 509.538 8.02801 492.415Z" fill="#F6B248"/>
<path d="M38.7702 478.434C34.6395 483.726 32.0412 492.101 30.4422 499.592C35.6959 500.81 45.9655 501.267 53.9889 497.107C62.0123 492.948 59.5377 481.879 55.0168 473.494C50.6292 465.337 51.2098 459.665 51.2764 459.303C47.6604 466.025 43.4764 472.425 38.7702 478.434Z" fill="#3D4543"/>
<path d="M57.2821 394.935C56.6158 397.914 60.4895 402.949 60.2991 408.917C60.2991 408.917 64.1062 409.183 64.4108 406.652C64.7154 404.12 60.756 393.612 60.6037 393.327C58.9476 393.251 57.52 393.631 57.2821 394.935Z" fill="#3D4543"/>
<path d="M64.3631 460.331C63.3443 460.329 62.3479 460.63 61.4999 461.194C60.6519 461.759 59.9904 462.562 59.5992 463.503C59.2081 464.444 59.1047 465.479 59.3023 466.479C59.4999 467.478 59.9896 468.397 60.7093 469.118C61.429 469.839 62.3465 470.33 63.3455 470.53C64.3446 470.729 65.3804 470.628 66.3218 470.238C67.2633 469.849 68.068 469.189 68.6342 468.342C69.2004 467.495 69.5027 466.499 69.5027 465.48C69.5027 464.116 68.9615 462.808 67.9979 461.843C67.0343 460.877 65.7271 460.334 64.3631 460.331Z" fill="#3D4543"/>
<path d="M63.9253 420.985C63.2876 420.985 62.7642 421.318 62.7642 421.737C62.7642 422.156 63.2876 422.489 63.9253 422.489C64.563 422.489 65.096 422.156 65.096 421.737C65.096 421.318 64.5725 420.985 63.9253 420.985Z" fill="#3D4543"/>
<path d="M85.873 464.043L97.0087 497.107C97.0087 497.107 102.329 487.123 101.13 481.432C99.9306 475.74 86.2061 464.328 85.873 464.043Z" fill="#F6B248"/>
<path d="M85.873 464.043L97.0087 497.107L100.816 508.329L102.243 509.975C102.688 510.494 102.974 511.129 103.068 511.805C103.162 512.481 103.061 513.17 102.775 513.79C102.49 514.41 102.032 514.936 101.457 515.304C100.882 515.672 100.214 515.867 99.5309 515.867H92.1833L80.153 496.565L73.4906 485.829C73.4146 485.537 73.3762 485.236 73.3763 484.934L72.6911 468.564" stroke="#2E2E2E" stroke-width="0.58" stroke-miterlimit="10"/>
<path d="M65.134 437.727C65.134 437.727 69.2457 434.424 72.12 441.039C74.9944 447.654 81.1713 448.815 70.2165 451.289C61.4793 453.25 60.0421 449.214 58.5383 442.162C58.1481 440.363 57.7578 438.355 57.2344 436.232C54.6932 425.706 59.3758 413.39 59.3758 413.39C59.9672 411.974 60.2899 410.46 60.3276 408.926C60.518 402.959 56.6443 397.924 57.3105 394.945C57.5865 393.641 58.9761 393.26 60.6702 393.298C62.5704 393.414 64.4479 393.772 66.2571 394.364C66.797 394.526 67.2932 394.807 67.7086 395.188C68.124 395.569 68.4478 396.039 68.6556 396.563C70.5591 401.379 72.3675 406.014 74.4233 410.011C83.9409 428.466 83.6554 448.339 85.8445 464.043" stroke="#2E2E2E" stroke-width="0.58" stroke-miterlimit="10"/>
<path d="M51.2858 459.284C56.768 449.005 58.5002 442.152 58.5002 442.152" stroke="#2E2E2E" stroke-width="0.58" stroke-miterlimit="10"/>
<path d="M65.3434 487.79C65.3434 487.79 73.3669 494.271 73.3669 505.064C74.8704 505.113 76.3571 505.395 77.7735 505.902C80.8763 507.044 84.4359 509.709 83.8553 515.867H28.0722C28.0722 515.867 28.3388 511.831 29.2144 506.235C29.5475 504.189 29.9472 501.933 30.4421 499.573C32.0411 492.082 34.6394 483.707 38.7701 478.415C43.4764 472.406 47.6603 466.006 51.2763 459.284" stroke="#2E2E2E" stroke-width="0.58" stroke-miterlimit="10"/>
<path d="M29.2239 506.235C28.9764 506.302 15.0616 509.538 8.02801 492.415C8.02801 492.415 6.12448 515.867 28.0817 515.867" stroke="#2E2E2E" stroke-width="0.58" stroke-miterlimit="10"/>
<path d="M85.8636 464.034C86.1967 464.319 99.9402 475.807 101.092 481.422C102.243 487.038 96.9707 497.098 96.9707 497.098" stroke="#2E2E2E" stroke-width="0.58" stroke-miterlimit="10"/>
<path d="M60.6322 393.289C60.7464 393.612 64.6677 404.158 64.4392 406.614C64.2108 409.069 60.3276 408.879 60.3276 408.879" stroke="#2E2E2E" stroke-width="0.58" stroke-miterlimit="10"/>
<path d="M51.2859 459.284C51.2859 459.646 50.6387 465.319 55.0263 473.475C59.5472 481.908 62.0218 492.929 53.9984 497.089C45.975 501.248 35.7055 500.791 30.4517 499.573" stroke="#2E2E2E" stroke-width="0.58" stroke-miterlimit="10"/>
<path d="M59.2236 465.48C59.2255 466.496 59.5285 467.489 60.0944 468.333C60.6603 469.177 61.4636 469.834 62.4029 470.222C63.3422 470.609 64.3753 470.71 65.3717 470.51C66.368 470.311 67.2829 469.821 68.0007 469.102C68.7186 468.382 69.2071 467.467 69.4046 466.47C69.6022 465.473 69.4998 464.44 69.1106 463.502C68.7213 462.563 68.0625 461.761 67.2175 461.197C66.3726 460.632 65.3793 460.331 64.3632 460.331C63.6874 460.331 63.0183 460.464 62.3942 460.723C61.77 460.982 61.203 461.362 60.7256 461.84C60.2482 462.318 59.8698 462.886 59.6121 463.51C59.3544 464.135 59.2224 464.804 59.2236 465.48V465.48Z" stroke="#2E2E2E" stroke-width="0.58" stroke-miterlimit="10"/>
<path d="M62.7642 421.737C62.7642 422.156 63.2876 422.489 63.9253 422.489C64.563 422.489 65.096 422.156 65.096 421.737C65.096 421.318 64.5725 420.985 63.9253 420.985C63.2781 420.985 62.7642 421.318 62.7642 421.737Z" stroke="#2E2E2E" stroke-width="0.58" stroke-miterlimit="10"/>
<path d="M325.918 469.773V504.693C325.918 506.793 326.752 508.807 328.237 510.292C329.722 511.777 331.737 512.612 333.837 512.612H360.848C362.947 512.609 364.96 511.774 366.445 510.29C367.929 508.805 368.764 506.792 368.767 504.693V469.773H325.937H325.918Z" fill="#F6B248"/>
<path d="M342.688 412.543C337.263 416.588 333.38 427.505 333.38 440.335C333.38 453.164 337.263 464.081 342.688 468.136C336.207 437.203 342.688 412.562 342.688 412.562V412.543Z" fill="#238D7E"/>
<path d="M342.698 412.543C342.698 412.543 336.216 437.184 342.698 468.117C344.027 469.17 345.666 469.758 347.361 469.792V410.82C345.664 410.853 344.024 411.445 342.698 412.505V412.543Z" fill="#238D7E"/>
<path d="M347.352 410.82V469.773C349.01 469.745 350.615 469.177 351.92 468.155V468.088C358.402 437.156 351.92 412.514 351.92 412.514V412.438C350.612 411.421 349.009 410.853 347.352 410.82Z" fill="#238D7E"/>
<path d="M351.92 412.438V412.514C351.92 412.514 358.402 437.156 351.92 468.088V468.155C357.393 464.157 361.324 453.202 361.324 440.296C361.324 427.39 357.393 416.436 351.92 412.438Z" fill="#238D7E"/>
<path d="M333.846 512.612H360.848C362.947 512.609 364.96 511.774 366.445 510.29C367.929 508.805 368.764 506.792 368.767 504.693V469.773H325.937V504.693C325.937 506.792 326.77 508.804 328.253 510.289C329.736 511.774 331.748 512.609 333.846 512.612V512.612Z" stroke="#2E2E2E" stroke-width="0.58" stroke-miterlimit="10"/>
<path d="M342.688 412.543C337.263 416.588 333.38 427.505 333.38 440.335C333.38 453.164 337.263 464.081 342.688 468.136C344.018 469.189 345.656 469.777 347.352 469.811C349.01 469.783 350.615 469.215 351.92 468.193C357.393 464.195 361.324 453.241 361.324 440.335C361.324 427.429 357.393 416.474 351.92 412.476C350.611 411.419 348.976 410.847 347.292 410.859C345.609 410.871 343.982 411.466 342.688 412.543V412.543Z" stroke="#2E2E2E" stroke-width="0.58" stroke-miterlimit="10"/>
<path d="M347.342 469.773V410.83" stroke="#2E2E2E" stroke-width="0.58" stroke-miterlimit="10"/>
<path d="M342.698 412.543C342.698 412.543 336.216 437.184 342.698 468.117" stroke="#2E2E2E" stroke-width="0.58" stroke-miterlimit="10"/>
<path d="M351.873 412.543C351.873 412.543 358.354 437.184 351.873 468.117" stroke="#2E2E2E" stroke-width="0.58" stroke-miterlimit="10"/>
<path d="M209.232 266.475V270.663V274.86" stroke="#2E2E2E" stroke-width="0.58" stroke-miterlimit="10"/>
<path d="M209.232 270.663H212.068H224.384" stroke="#2E2E2E" stroke-width="0.58" stroke-miterlimit="10"/>
<path d="M381.425 449.186V488.856C381.425 496.052 384.284 502.954 389.373 508.043C394.462 513.132 401.363 515.991 408.56 515.991H433.468C440.663 515.988 447.562 513.128 452.649 508.04C457.736 502.951 460.593 496.051 460.593 488.856V449.186H381.387H381.425ZM389.687 459.494C389.586 459.262 389.534 459.013 389.534 458.761C389.437 458.264 389.541 457.748 389.824 457.328C390.107 456.907 390.546 456.617 391.043 456.519C391.54 456.422 392.056 456.527 392.476 456.809C392.896 457.092 393.187 457.531 393.284 458.028L400.156 474.703C400.353 475.18 400.352 475.716 400.154 476.192C399.956 476.669 399.577 477.047 399.099 477.244C398.622 477.441 398.087 477.44 397.61 477.242C397.134 477.044 396.755 476.665 396.558 476.188L389.687 459.494ZM401.441 503.275C401.196 503.192 400.971 503.061 400.779 502.889C400.587 502.716 400.432 502.507 400.323 502.273C400.215 502.038 400.155 501.785 400.147 501.527C400.14 501.269 400.185 501.012 400.28 500.772L406.438 483.83C406.525 483.59 406.659 483.369 406.832 483.18C407.005 482.991 407.213 482.838 407.445 482.73C407.677 482.622 407.928 482.56 408.184 482.549C408.44 482.538 408.695 482.577 408.936 482.664C409.177 482.752 409.398 482.886 409.586 483.059C409.775 483.232 409.928 483.44 410.036 483.672C410.145 483.904 410.206 484.155 410.217 484.411C410.229 484.667 410.189 484.922 410.102 485.163L403.934 502.104C403.764 502.586 403.411 502.982 402.952 503.208C402.494 503.434 401.965 503.471 401.479 503.313L401.441 503.275ZM409.769 470.077C409.628 469.581 409.688 469.05 409.938 468.598C410.188 468.147 410.606 467.813 411.101 467.669L428.442 462.72C428.687 462.65 428.944 462.629 429.197 462.658C429.45 462.687 429.695 462.766 429.918 462.89C430.367 463.14 430.7 463.558 430.841 464.053C430.982 464.547 430.921 465.078 430.671 465.528C430.422 465.978 430.003 466.31 429.508 466.451L412.167 471.419C411.993 471.465 411.814 471.488 411.634 471.486C411.222 471.486 410.822 471.352 410.492 471.105C410.163 470.858 409.922 470.511 409.807 470.115L409.769 470.077ZM419.496 501.438C419.24 501.408 418.994 501.326 418.77 501.198C418.547 501.07 418.353 500.898 418.198 500.693C418.043 500.487 417.931 500.253 417.87 500.003C417.808 499.753 417.798 499.493 417.84 499.239L420.371 481.394C420.443 480.889 420.713 480.433 421.121 480.127C421.529 479.821 422.041 479.69 422.546 479.762C423.051 479.833 423.507 480.103 423.813 480.511C424.119 480.919 424.25 481.431 424.179 481.936L421.647 499.791C421.591 500.256 421.366 500.683 421.015 500.992C420.663 501.301 420.211 501.47 419.743 501.467L419.496 501.438ZM435.676 480.804C435.58 480.571 435.528 480.323 435.524 480.071C435.475 479.825 435.475 479.571 435.524 479.325C435.573 479.079 435.671 478.845 435.81 478.636C435.95 478.428 436.129 478.249 436.338 478.109C436.547 477.97 436.781 477.873 437.027 477.825C437.274 477.776 437.527 477.776 437.773 477.825C438.019 477.875 438.253 477.972 438.462 478.111C438.67 478.251 438.85 478.43 438.989 478.639C439.128 478.848 439.225 479.082 439.274 479.328L446.117 496.013C446.214 496.249 446.263 496.502 446.262 496.757C446.261 497.013 446.21 497.265 446.111 497.501C446.013 497.737 445.869 497.95 445.688 498.13C445.507 498.31 445.292 498.453 445.056 498.549C444.819 498.646 444.566 498.696 444.311 498.695C444.056 498.694 443.803 498.643 443.568 498.544C443.332 498.446 443.118 498.302 442.938 498.12C442.758 497.939 442.616 497.724 442.519 497.488L435.676 480.804ZM444.727 477.406C444.484 477.323 444.26 477.192 444.068 477.02C443.877 476.849 443.722 476.64 443.614 476.407C443.505 476.174 443.445 475.922 443.437 475.665C443.429 475.408 443.473 475.152 443.566 474.912L449.724 457.961C449.862 457.586 450.113 457.263 450.442 457.034C450.77 456.806 451.161 456.685 451.561 456.686C451.785 456.688 452.006 456.726 452.218 456.8C452.461 456.883 452.685 457.014 452.876 457.186C453.068 457.357 453.222 457.566 453.331 457.799C453.439 458.032 453.499 458.285 453.508 458.541C453.516 458.798 453.472 459.054 453.379 459.294L447.221 476.245C447.133 476.486 446.998 476.708 446.824 476.898C446.649 477.087 446.44 477.24 446.206 477.348C445.973 477.456 445.72 477.517 445.463 477.527C445.206 477.537 444.949 477.496 444.708 477.406H444.727Z" fill="#F5B8B9"/>
<path d="M389.572 458.761C389.572 459.013 389.624 459.262 389.725 459.494L396.558 476.188C396.755 476.665 397.134 477.044 397.61 477.242C398.087 477.44 398.622 477.441 399.1 477.244C399.577 477.047 399.956 476.669 400.154 476.192C400.352 475.716 400.353 475.18 400.156 474.703L393.322 458.028C393.225 457.531 392.934 457.092 392.514 456.809C392.094 456.527 391.578 456.422 391.081 456.519C390.584 456.617 390.145 456.907 389.862 457.328C389.579 457.748 389.475 458.263 389.572 458.761Z" fill="#8B4986"/>
<path d="M400.318 500.81C400.23 501.05 400.191 501.305 400.202 501.56C400.213 501.815 400.274 502.066 400.382 502.297C400.49 502.529 400.642 502.737 400.83 502.909C401.019 503.082 401.239 503.216 401.479 503.303C401.719 503.391 401.974 503.43 402.229 503.419C402.484 503.408 402.735 503.347 402.966 503.239C403.198 503.131 403.406 502.979 403.579 502.791C403.751 502.603 403.885 502.382 403.973 502.142L410.14 485.201C410.317 484.715 410.293 484.179 410.075 483.71C409.856 483.242 409.46 482.879 408.974 482.702C408.488 482.526 407.952 482.549 407.483 482.768C407.015 482.987 406.652 483.382 406.476 483.868L400.318 500.81Z" fill="#8B4986"/>
<path d="M411.139 467.746C410.635 467.816 410.178 468.084 409.871 468.491C409.564 468.898 409.432 469.411 409.502 469.916C409.573 470.42 409.841 470.876 410.248 471.183C410.655 471.49 411.168 471.623 411.672 471.553C411.852 471.554 412.032 471.532 412.205 471.486L429.547 466.518C429.792 466.448 430.02 466.33 430.22 466.172C430.419 466.013 430.586 465.817 430.71 465.594C430.833 465.372 430.912 465.127 430.941 464.874C430.97 464.621 430.949 464.364 430.879 464.119C430.809 463.874 430.692 463.645 430.533 463.446C430.375 463.246 430.179 463.08 429.956 462.956C429.733 462.833 429.488 462.754 429.235 462.725C428.982 462.696 428.726 462.717 428.481 462.787L411.139 467.746Z" fill="#8B4986"/>
<path d="M417.84 499.239C417.798 499.493 417.808 499.753 417.87 500.003C417.932 500.252 418.043 500.487 418.198 500.693C418.353 500.898 418.547 501.07 418.771 501.198C418.994 501.326 419.24 501.408 419.496 501.438H419.781C420.249 501.441 420.702 501.272 421.053 500.963C421.404 500.654 421.629 500.227 421.685 499.763L424.217 481.908C424.252 481.658 424.238 481.403 424.176 481.159C424.113 480.914 424.003 480.684 423.851 480.482C423.699 480.28 423.51 480.11 423.292 479.982C423.075 479.853 422.834 479.768 422.584 479.733C422.334 479.697 422.08 479.711 421.835 479.774C421.591 479.837 421.361 479.947 421.159 480.099C420.957 480.25 420.787 480.44 420.658 480.657C420.53 480.875 420.445 481.115 420.41 481.365L417.84 499.239Z" fill="#8B4986"/>
<path d="M435.505 480.118C435.509 480.37 435.561 480.619 435.657 480.851L442.5 497.536C442.597 497.772 442.739 497.987 442.919 498.168C443.099 498.349 443.313 498.493 443.548 498.592C443.784 498.69 444.037 498.741 444.292 498.742C444.547 498.743 444.8 498.694 445.036 498.597C445.273 498.5 445.488 498.358 445.669 498.178C445.85 497.998 445.994 497.784 446.092 497.548C446.191 497.313 446.242 497.06 446.243 496.805C446.244 496.55 446.195 496.297 446.098 496.06L439.255 479.376C439.156 478.879 438.864 478.441 438.443 478.159C438.022 477.877 437.506 477.774 437.008 477.872C436.511 477.971 436.073 478.263 435.791 478.684C435.509 479.105 435.406 479.621 435.505 480.118Z" fill="#8B4986"/>
<path d="M443.547 474.912C443.37 475.397 443.393 475.932 443.611 476.4C443.829 476.867 444.224 477.229 444.708 477.406C445.193 477.583 445.728 477.56 446.196 477.342C446.663 477.124 447.025 476.729 447.202 476.245L453.36 459.294C453.453 459.054 453.497 458.798 453.489 458.541C453.481 458.285 453.42 458.032 453.312 457.799C453.203 457.566 453.049 457.357 452.857 457.186C452.666 457.014 452.442 456.883 452.199 456.8C451.988 456.726 451.766 456.687 451.542 456.686C451.142 456.685 450.751 456.806 450.423 457.034C450.094 457.262 449.844 457.586 449.705 457.961L443.547 474.912Z" fill="#8B4986"/>
<path d="M402.25 449.186H381.425V488.856C381.425 496.052 384.284 502.954 389.373 508.043C394.462 513.132 401.363 515.991 408.56 515.991H433.468C440.663 515.988 447.562 513.128 452.649 508.04C457.736 502.951 460.593 496.051 460.593 488.856V449.186H402.25Z" stroke="#2E2E2E" stroke-width="0.58" stroke-miterlimit="10"/>
<path d="M444.708 477.406C445.193 477.581 445.727 477.557 446.194 477.34C446.662 477.122 447.024 476.728 447.202 476.245L453.36 459.294C453.453 459.054 453.497 458.798 453.489 458.541C453.481 458.285 453.42 458.032 453.312 457.799C453.203 457.566 453.049 457.357 452.857 457.186C452.666 457.014 452.442 456.883 452.199 456.8C451.988 456.726 451.766 456.687 451.542 456.686C451.142 456.685 450.751 456.806 450.423 457.034C450.094 457.262 449.844 457.586 449.705 457.961L443.547 474.912C443.454 475.152 443.41 475.408 443.418 475.665C443.426 475.921 443.487 476.174 443.595 476.407C443.704 476.64 443.858 476.849 444.049 477.02C444.241 477.192 444.465 477.323 444.708 477.406V477.406Z" stroke="#2E2E2E" stroke-width="0.58" stroke-miterlimit="10"/>
<path d="M401.479 503.313C401.965 503.485 402.499 503.458 402.966 503.239C403.433 503.02 403.794 502.626 403.973 502.142L410.14 485.201C410.317 484.715 410.293 484.179 410.075 483.71C409.856 483.242 409.46 482.879 408.974 482.702C408.488 482.526 407.952 482.549 407.483 482.768C407.015 482.987 406.652 483.382 406.476 483.868L400.318 500.81C400.223 501.05 400.178 501.307 400.185 501.565C400.193 501.823 400.253 502.076 400.361 502.311C400.47 502.545 400.625 502.754 400.817 502.927C401.009 503.099 401.234 503.23 401.479 503.313V503.313Z" stroke="#2E2E2E" stroke-width="0.58" stroke-miterlimit="10"/>
<path d="M435.505 480.118C435.509 480.37 435.561 480.619 435.657 480.851L442.5 497.536C442.597 497.772 442.739 497.987 442.919 498.168C443.099 498.349 443.313 498.493 443.548 498.592C443.784 498.69 444.037 498.741 444.292 498.742C444.547 498.743 444.8 498.694 445.036 498.597C445.273 498.5 445.488 498.358 445.669 498.178C445.85 497.998 445.994 497.784 446.092 497.548C446.191 497.313 446.242 497.06 446.243 496.805C446.244 496.55 446.195 496.297 446.098 496.06L439.255 479.376C439.156 478.879 438.864 478.441 438.443 478.159C438.022 477.877 437.506 477.774 437.008 477.872C436.511 477.971 436.073 478.263 435.791 478.684C435.509 479.105 435.406 479.621 435.505 480.118V480.118Z" stroke="#2E2E2E" stroke-width="0.58" stroke-miterlimit="10"/>
<path d="M389.572 458.761C389.572 459.013 389.624 459.262 389.725 459.494L396.558 476.188C396.755 476.665 397.134 477.044 397.61 477.242C398.087 477.44 398.622 477.441 399.1 477.244C399.577 477.047 399.956 476.669 400.154 476.192C400.352 475.716 400.353 475.18 400.156 474.703L393.322 458.028C393.225 457.531 392.934 457.092 392.514 456.809C392.094 456.527 391.578 456.422 391.081 456.519C390.584 456.617 390.145 456.907 389.862 457.328C389.579 457.748 389.475 458.263 389.572 458.761V458.761Z" stroke="#2E2E2E" stroke-width="0.58" stroke-miterlimit="10"/>
<path d="M417.84 499.239C417.798 499.493 417.808 499.753 417.87 500.003C417.932 500.252 418.043 500.487 418.198 500.693C418.353 500.898 418.547 501.07 418.771 501.198C418.994 501.326 419.24 501.408 419.496 501.438H419.781C420.249 501.441 420.702 501.272 421.053 500.963C421.404 500.654 421.629 500.227 421.685 499.763L424.217 481.908C424.252 481.658 424.238 481.403 424.176 481.159C424.113 480.914 424.003 480.684 423.851 480.482C423.699 480.28 423.51 480.11 423.292 479.982C423.075 479.853 422.834 479.768 422.584 479.733C422.334 479.697 422.08 479.711 421.835 479.774C421.591 479.837 421.361 479.947 421.159 480.099C420.957 480.25 420.787 480.44 420.658 480.657C420.53 480.875 420.445 481.115 420.41 481.365L417.84 499.239Z" stroke="#2E2E2E" stroke-width="0.58" stroke-miterlimit="10"/>
<path d="M411.139 467.745C410.635 467.816 410.178 468.084 409.871 468.491C409.564 468.898 409.432 469.411 409.502 469.916C409.573 470.42 409.841 470.876 410.248 471.183C410.655 471.49 411.168 471.623 411.672 471.553C411.852 471.554 412.032 471.532 412.205 471.486L429.547 466.518C429.792 466.448 430.02 466.33 430.22 466.172C430.419 466.013 430.586 465.817 430.71 465.594C430.833 465.372 430.912 465.127 430.941 464.874C430.97 464.621 430.949 464.364 430.879 464.119C430.809 463.874 430.692 463.645 430.533 463.446C430.375 463.246 430.179 463.08 429.956 462.956C429.733 462.833 429.488 462.754 429.235 462.725C428.982 462.696 428.726 462.717 428.481 462.787L411.139 467.745Z" stroke="#2E2E2E" stroke-width="0.58" stroke-miterlimit="10"/>
<path d="M451.846 299.663C463.772 277.487 480.894 257.586 502.728 240.521C503.021 240.289 503.382 240.162 503.756 240.159C504.012 240.159 504.265 240.218 504.495 240.332C504.724 240.446 504.924 240.611 505.079 240.816C505.345 241.165 505.464 241.606 505.409 242.042C505.354 242.478 505.129 242.875 504.784 243.147C483.312 259.937 466.494 279.476 454.778 301.205C452.038 306.288 449.582 311.518 447.421 316.871H447.478C472.687 313.481 495.558 300.333 511.173 280.254C526.788 260.175 533.899 234.77 530.976 209.503C506.042 212.368 483.187 224.78 467.205 244.133C451.224 263.486 443.359 288.276 445.26 313.302C447.221 308.715 449.416 304.168 451.846 299.663Z" fill="#238D7E"/>
<path d="M436.799 449.186V370.808C436.819 352.324 440.426 334.019 447.421 316.909C449.582 311.556 452.038 306.326 454.778 301.243C466.494 279.476 483.331 259.937 504.784 243.186C505.129 242.913 505.354 242.516 505.409 242.08C505.464 241.644 505.346 241.203 505.079 240.854C504.924 240.649 504.724 240.484 504.495 240.37C504.265 240.256 504.012 240.197 503.756 240.197C503.382 240.2 503.021 240.327 502.728 240.559C480.894 257.624 463.772 277.525 451.846 299.701C449.416 304.206 447.23 308.756 445.289 313.35C437.517 331.51 433.496 351.054 433.468 370.808V449.186H436.799Z" fill="#CDA787"/>
<path d="M407.77 258.166C395.918 228.968 378.417 202.397 356.27 179.979C355.955 179.667 355.529 179.492 355.085 179.492C354.641 179.492 354.216 179.667 353.9 179.979C353.745 180.133 353.622 180.316 353.538 180.518C353.454 180.719 353.411 180.936 353.411 181.154C353.411 181.373 353.454 181.589 353.538 181.791C353.622 181.993 353.745 182.176 353.9 182.33C375.404 204.08 392.472 229.804 404.153 258.071C404.429 258.737 404.705 259.413 404.972 260.079C416.379 288.257 422.229 318.375 422.199 348.775V449.186H425.54V350.202C425.63 318.789 419.651 287.654 407.932 258.509C407.894 258.357 407.837 258.281 407.77 258.166Z" fill="#CDA787"/>
<path d="M356.299 179.979C378.435 202.399 395.927 228.97 407.77 258.166C407.77 258.281 407.865 258.385 407.903 258.509C412.215 233.449 406.487 207.699 391.958 186.83C377.429 165.962 355.267 151.653 330.268 147C325.521 171.865 330.675 197.601 344.63 218.721C358.585 239.841 380.237 254.675 404.972 260.06C404.705 259.394 404.429 258.718 404.153 258.052C392.479 229.784 375.417 204.056 353.919 182.301C353.764 182.147 353.641 181.964 353.557 181.762C353.473 181.56 353.43 181.344 353.43 181.126C353.43 180.907 353.473 180.691 353.557 180.489C353.641 180.287 353.764 180.104 353.919 179.95C354.239 179.639 354.669 179.467 355.115 179.472C355.561 179.478 355.987 179.66 356.299 179.979Z" fill="#238D7E"/>
<path d="M397.006 325.133C387.96 306.406 375.201 289.714 359.506 276.069C359.381 275.962 359.28 275.829 359.211 275.68C359.142 275.53 359.107 275.368 359.106 275.203C359.107 274.983 359.172 274.768 359.291 274.583C359.411 274.399 359.581 274.252 359.781 274.161C359.981 274.07 360.203 274.038 360.421 274.069C360.639 274.1 360.843 274.193 361.01 274.337C377.04 288.214 390.069 305.217 399.299 324.305C399.709 325.18 400.127 326.056 400.518 326.941C402.093 310.326 397.014 293.764 386.394 280.888C375.774 268.013 360.48 259.876 343.868 258.262C342.268 274.448 346.985 290.626 357.035 303.415C367.085 316.204 381.69 324.613 397.796 326.884C397.539 326.265 397.301 325.694 397.006 325.133Z" fill="#238D7E"/>
<path d="M359.506 276.069C375.201 289.714 387.96 306.406 397.006 325.133C397.272 325.694 397.539 326.265 397.796 326.836C406.156 344.731 410.499 364.239 410.521 383.99V449.186H413.024V383.99C413.014 364.278 408.755 344.801 400.537 326.884C400.146 325.999 399.728 325.123 399.318 324.248C390.088 305.16 377.059 288.157 361.029 274.28C360.862 274.136 360.658 274.043 360.44 274.012C360.222 273.981 360 274.013 359.8 274.104C359.6 274.195 359.43 274.342 359.31 274.526C359.191 274.711 359.126 274.926 359.125 275.146C359.115 275.319 359.143 275.491 359.209 275.651C359.275 275.811 359.377 275.954 359.506 276.069Z" fill="#CDA787"/>
<path d="M407.932 258.509C412.243 233.445 406.511 207.691 391.976 186.822C377.441 165.952 355.272 151.646 330.268 147C325.521 171.865 330.675 197.601 344.63 218.721C358.585 239.841 380.237 254.675 404.972 260.06" stroke="#2E2E2E" stroke-width="0.58" stroke-miterlimit="10"/>
<path d="M447.478 316.938C472.7 313.548 495.582 300.39 511.199 280.297C526.815 260.203 533.918 234.781 530.976 209.503C506.042 212.368 483.186 224.78 467.205 244.133C451.224 263.486 443.359 288.276 445.26 313.302" stroke="#2E2E2E" stroke-width="0.58" stroke-miterlimit="10"/>
<path d="M404.972 260.079C416.379 288.257 422.229 318.375 422.199 348.775V449.186H425.54V350.202C425.63 318.789 419.651 287.654 407.932 258.509C407.932 258.385 407.837 258.281 407.799 258.166C395.947 228.968 378.445 202.397 356.299 179.979C355.983 179.667 355.557 179.492 355.114 179.492C354.67 179.492 354.244 179.667 353.929 179.979C353.774 180.133 353.651 180.316 353.566 180.518C353.482 180.719 353.439 180.936 353.439 181.154C353.439 181.373 353.482 181.589 353.566 181.791C353.651 181.993 353.774 182.176 353.929 182.33C375.422 204.082 392.48 229.807 404.153 258.071C404.429 258.737 404.705 259.413 404.972 260.079Z" stroke="#2E2E2E" stroke-width="0.58" stroke-miterlimit="10"/>
<path d="M400.537 326.941C402.112 310.326 397.033 293.764 386.413 280.888C375.793 268.013 360.499 259.876 343.888 258.262C342.286 274.445 347.001 290.621 357.047 303.409C367.094 316.197 381.693 324.608 397.796 326.884" stroke="#2E2E2E" stroke-width="0.58" stroke-miterlimit="10"/>
<path d="M397.795 326.836H397.805" stroke="#2E2E2E" stroke-width="0.58" stroke-miterlimit="10"/>
<path d="M397.805 326.884C406.155 344.765 410.495 364.255 410.521 383.99V449.186H413.024V383.99C413.014 364.278 408.755 344.801 400.537 326.884C400.146 325.999 399.728 325.123 399.318 324.248C390.088 305.16 377.059 288.157 361.029 274.28C360.862 274.136 360.658 274.043 360.44 274.012C360.222 273.981 360 274.013 359.8 274.104C359.6 274.195 359.43 274.342 359.31 274.526C359.191 274.711 359.126 274.926 359.125 275.146C359.126 275.311 359.161 275.473 359.23 275.623C359.299 275.772 359.4 275.905 359.525 276.012C375.22 289.657 387.979 306.349 397.025 325.076C397.291 325.637 397.558 326.208 397.815 326.779" stroke="#2E2E2E" stroke-width="0.58" stroke-miterlimit="10"/>
<path d="M445.289 313.312C437.512 331.484 433.491 351.042 433.468 370.808V449.186H436.799V370.808C436.819 352.324 440.426 334.019 447.421 316.909C449.582 311.556 452.038 306.326 454.778 301.243C466.494 279.476 483.331 259.937 504.784 243.186C505.129 242.913 505.354 242.516 505.409 242.08C505.464 241.644 505.346 241.203 505.079 240.854C504.924 240.649 504.724 240.484 504.495 240.37C504.265 240.256 504.012 240.197 503.756 240.197C503.382 240.2 503.021 240.327 502.728 240.559C480.894 257.624 463.772 277.525 451.846 299.701C449.416 304.181 447.23 308.718 445.289 313.312Z" stroke="#2E2E2E" stroke-width="0.58" stroke-miterlimit="10"/>
</svg>
