<svg width="375" height="281" viewBox="0 0 375 281" fill="none" xmlns="http://www.w3.org/2000/svg">
<mask id="mask0_167_1068" style="mask-type:alpha" maskUnits="userSpaceOnUse" x="0" y="0" width="375" height="281">
<rect width="375" height="281" fill="#C4C4C4"/>
</mask>
<g mask="url(#mask0_167_1068)">
<path d="M237.821 263.546C254.033 264.369 249.966 271.737 249.966 271.737H231.968C231.968 271.737 236.035 264.35 219.818 263.546C219.818 263.546 211.044 263.387 207.756 255.71C212.025 256.44 216.114 257.897 219.818 260.009C219.615 259.215 219.41 258.423 219.204 257.633C221.038 256.203 223.371 255.452 225.759 255.523V255.696C229.011 263.387 237.821 263.546 237.821 263.546Z" fill="#CDA787" stroke="#2D2A26" stroke-width="0.81" stroke-miterlimit="10"/>
<path d="M219.818 263.546C236.035 264.37 231.968 271.738 231.968 271.738H192.524C190.914 268.49 192.488 257.181 192.524 256.94C197.395 255.277 202.649 254.847 207.756 255.692C211.023 263.387 219.818 263.546 219.818 263.546Z" fill="#CDA787" stroke="#2D2A26" stroke-width="0.81" stroke-miterlimit="10"/>
<path d="M232.422 257.647C230.452 256.381 228.147 255.646 225.759 255.523C223.372 255.449 221.04 256.194 219.203 257.619C213.417 235.231 207.471 213.827 201.232 190.818C200.308 187.083 197.851 183.927 194.16 182.491C184.539 178.752 174.692 176.309 164.606 173.664C164.606 173.664 169.251 174.015 175.295 174.753C182.717 175.649 192.24 177.128 197.841 179.234C198.621 179.517 199.378 179.851 200.106 180.236C208.52 184.741 232.422 257.647 232.422 257.647Z" fill="#DF6A2E"/>
<path d="M114.943 193.974C114.517 192.839 114.184 191.674 113.947 190.491C113.808 189.777 113.705 189.069 113.627 188.361C112.419 176.728 119.821 165.81 119.821 165.81H152.622C153.293 167.356 156.643 171.312 160.018 172.464C161.567 172.878 163.074 173.279 164.596 173.678C174.682 176.324 184.53 178.767 194.151 182.506C197.841 183.952 200.298 187.098 201.222 190.833C207.462 213.842 213.408 235.246 219.194 257.633C219.4 258.424 219.605 259.216 219.808 260.009C216.104 257.897 212.015 256.441 207.746 255.711C202.642 254.871 197.391 255.305 192.525 256.969C190.28 257.698 188.16 258.725 186.228 260.019C186.228 260.019 180.308 232.119 176.591 217.075C176.122 215.147 175.688 213.456 175.301 212.044H146.795C140.787 212.075 134.855 210.793 129.473 208.3C128.812 207.992 128.152 207.66 127.512 207.308C125.409 206.177 123.445 204.836 121.653 203.308C120.567 202.381 119.565 201.371 118.66 200.287C117.065 198.383 115.809 196.251 114.938 193.974H114.943Z" fill="#DF6A2E"/>
<path d="M207.074 166.147C206.764 170.45 207.378 175.042 206.764 179.35C203.667 179.35 200.927 179.35 197.855 179.22C192.255 177.114 182.732 175.635 175.31 174.739C175.31 174.739 163.909 170.561 161.736 168.855C161.22 168.455 160.585 167.318 159.893 165.805C167.166 165.964 174.547 165.858 181.943 165.805C182.082 165.812 182.222 165.812 182.361 165.805H187.657C187.938 165.807 188.219 165.789 188.498 165.752C194.702 165.737 200.911 165.81 207.074 166.147Z" fill="#CDA787"/>
<path d="M193.398 150.11V160.431C193.397 161.722 192.9 162.969 191.997 163.946C191.094 164.923 189.846 165.566 188.479 165.756C186.296 165.756 184.107 165.756 181.924 165.795C180.473 165.696 179.115 165.088 178.124 164.093C177.133 163.099 176.582 161.79 176.582 160.431V150.11H193.398Z" fill="#F9B5C3"/>
<path d="M186.831 140.165C187.896 140.52 188.816 141.173 189.467 142.036C190.118 142.899 190.467 143.928 190.467 144.983C190.467 146.038 190.118 147.068 189.467 147.93C188.816 148.793 187.896 149.447 186.831 149.802C187.581 148.292 187.969 146.648 187.969 144.983C187.969 143.319 187.581 141.675 186.831 140.165Z" fill="#18988B"/>
<path d="M186.832 140.165C187.582 141.675 187.97 143.319 187.97 144.983C187.97 146.648 187.582 148.292 186.832 149.802C186.246 149.994 185.63 150.092 185.01 150.091V139.876C185.63 139.875 186.246 139.973 186.832 140.165Z" fill="#18988B"/>
<path d="M186.352 112.251C186.388 114.559 173.495 136.566 170.692 141.028C167.889 145.49 161.293 153.036 156.018 150.111L151.466 146.911C152.513 143.002 154.916 139.525 158.3 137.024L160.973 139.182L162.548 137.255C167.322 131.328 181.278 113.832 181.412 111.663C181.578 109.042 180.592 102.734 182.238 102.734C183.885 102.734 186.331 110.796 186.352 112.251Z" fill="#CDA787" stroke="#2D2A26" stroke-width="0.81" stroke-miterlimit="10"/>
<path d="M183.224 140.165C183.798 139.978 184.402 139.884 185.01 139.886V150.125C184.404 150.126 183.802 150.034 183.229 149.85C182.469 148.335 182.075 146.682 182.074 145.009C182.073 143.335 182.465 141.682 183.224 140.165Z" fill="#18988B"/>
<path d="M183.229 149.816C182.149 149.469 181.212 148.816 180.549 147.948C179.886 147.079 179.53 146.04 179.53 144.974C179.53 143.907 179.886 142.868 180.549 141.999C181.212 141.131 182.149 140.478 183.229 140.131C182.47 141.647 182.076 143.3 182.076 144.974C182.076 146.647 182.47 148.3 183.229 149.816Z" fill="#18988B"/>
<path d="M174.156 260.009C175.4 260.009 176.617 260.353 177.652 260.999C178.686 261.644 179.493 262.562 179.969 263.635C180.445 264.708 180.57 265.889 180.327 267.029C180.084 268.168 179.485 269.215 178.605 270.036C177.725 270.858 176.604 271.417 175.383 271.644C174.163 271.87 172.898 271.754 171.748 271.31C170.598 270.865 169.616 270.112 168.924 269.146C168.233 268.18 167.864 267.044 167.864 265.883C167.864 264.325 168.527 262.831 169.707 261.729C170.887 260.628 172.487 260.009 174.156 260.009Z" fill="#3D4543"/>
<path d="M176.592 217.065H99.6869C99.0564 217.085 98.4287 216.986 97.8401 216.774C97.2515 216.562 96.7149 216.242 96.2616 215.833C95.8084 215.424 95.4481 214.933 95.2019 214.392C94.9558 213.849 94.8291 213.267 94.8291 212.678C94.8291 212.089 94.9558 211.507 95.2019 210.964C95.4481 210.422 95.8084 209.932 96.2616 209.523C96.7149 209.114 97.2515 208.793 97.8401 208.582C98.4287 208.37 99.0564 208.271 99.6869 208.29H129.453C134.835 210.783 140.767 212.065 146.774 212.035H175.281C175.689 213.446 176.122 215.152 176.592 217.065Z" fill="#8F4899"/>
<path d="M159.89 165.809C160.581 167.322 161.226 168.459 161.732 168.86C163.905 170.565 175.307 174.743 175.307 174.743C169.262 174.006 164.617 173.654 164.617 173.654C163.069 173.254 161.572 172.854 160.039 172.44C156.663 171.288 153.329 167.332 152.643 165.785L151.724 151.773C152.689 152.327 153.35 152.621 153.556 152.548C154.036 152.35 154.463 152.056 154.805 151.686C154.872 151.956 157.634 160.875 159.89 165.809Z" fill="#CDA787" stroke="#2D2A26" stroke-width="0.81" stroke-miterlimit="10"/>
<path d="M162.227 136.083C162.363 136.231 162.463 136.406 162.519 136.594C162.575 136.782 162.586 136.98 162.552 137.172C162.552 137.172 162.552 137.211 162.552 137.225L160.978 139.152L158.299 137.023C158.903 136.574 159.534 136.157 160.188 135.775C160.496 135.59 160.863 135.512 161.226 135.557C161.589 135.6 161.924 135.763 162.17 136.016L162.227 136.083Z" fill="#D68C1E" stroke="#2D2D2E" stroke-width="0.78" stroke-miterlimit="10"/>
<path d="M150.841 151.286C151.155 151.479 151.444 151.648 151.713 151.797L152.621 165.81H116.429C117.034 155.046 118.528 144.343 120.899 133.795C121.529 130.77 122.528 127.823 123.877 125.011C128.192 116.385 133.844 116.867 133.844 116.867C133.844 116.867 138.685 117.71 145.674 121.854C150.469 124.721 156.265 129.164 162.191 136.016C161.944 135.764 161.609 135.601 161.246 135.557C160.884 135.513 160.516 135.59 160.208 135.775C159.554 136.158 158.924 136.574 158.319 137.023C154.937 139.526 152.537 143.002 151.491 146.911C151.071 148.337 150.852 149.808 150.841 151.286Z" fill="#F5B335"/>
<path d="M151.466 146.911L156.018 150.11C155.675 150.683 155.265 151.217 154.795 151.705C154.452 152.075 154.025 152.37 153.545 152.568C153.339 152.64 152.678 152.346 151.713 151.792C151.445 151.643 151.156 151.474 150.841 151.281C150.845 149.805 151.055 148.336 151.466 146.911Z" fill="#D68C1E" stroke="#2D2D2E" stroke-width="0.78" stroke-miterlimit="10"/>
<path d="M152.41 102.705C152.565 103.472 152.639 104.252 152.632 105.032H143.666V102.705H152.41Z" fill="#CDA787" stroke="#2D2A26" stroke-width="0.81" stroke-miterlimit="10"/>
<path d="M143.667 105.032H152.622C152.615 105.902 152.533 106.771 152.38 107.629C151.063 115.175 144.637 112.4 144.637 112.4L145.67 121.844C138.686 117.71 133.845 116.867 133.845 116.867C136.725 116.327 137.819 114.211 138.191 112.231C138.27 111.813 138.317 111.389 138.33 110.964H140.704L143.45 107.172C143.45 107.172 141.695 106.347 141.902 105.244C142.108 104.141 143.657 105.244 143.657 105.244L143.667 105.032Z" fill="#CDA787" stroke="#2D2A26" stroke-width="0.81" stroke-miterlimit="10"/>
<path d="M152.411 102.705H143.668V105.221C143.668 105.221 142.119 104.088 141.912 105.221C141.706 106.353 143.461 107.148 143.461 107.148L140.705 110.964H138.33C138.373 109.667 138.127 108.376 137.608 107.172C137.463 106.84 137.344 106.512 137.241 106.208C136.787 104.782 136.807 103.261 137.298 101.846C137.789 100.431 138.729 99.1879 139.992 98.2814C141.191 97.3498 142.665 96.7805 144.218 96.6485C145.771 96.517 147.331 96.8296 148.689 97.5444C150.677 98.5709 151.931 100.363 152.411 102.705Z" fill="#3D4543"/>
<path d="M142.851 217.065L147.507 260.009H138.593H129.271L132.239 217.065H142.851Z" fill="#3D4543"/>
<path d="M138.588 260.009C139.832 260.009 141.049 260.353 142.084 260.999C143.118 261.644 143.925 262.562 144.401 263.635C144.877 264.708 145.002 265.889 144.759 267.029C144.516 268.168 143.917 269.215 143.037 270.036C142.157 270.858 141.036 271.417 139.816 271.644C138.595 271.87 137.33 271.754 136.18 271.31C135.031 270.865 134.048 270.112 133.357 269.146C132.665 268.18 132.296 267.044 132.296 265.883C132.298 264.325 132.961 262.832 134.141 261.731C135.32 260.629 136.92 260.01 138.588 260.009Z" fill="#3D4543"/>
<path d="M137.607 107.171C138.126 108.375 138.372 109.667 138.33 110.964C138.317 111.389 138.27 111.813 138.19 112.231C137.819 114.211 136.724 116.327 133.844 116.866C133.844 116.866 128.193 116.385 123.878 125.01C111.784 129.713 108.28 119.893 110.035 114.144C110.48 112.896 111.298 111.792 112.394 110.964C116.089 107.87 122.2 105.909 119.743 99.3604C119.609 99.0088 119.449 98.6475 119.268 98.2713C119.007 97.7285 118.779 97.1716 118.587 96.6042C115.753 88.1381 124.306 83.4637 130.923 85.0394C137.953 86.7262 139.991 98.2617 139.991 98.2617C138.728 99.1682 137.789 100.411 137.297 101.826C136.806 103.241 136.786 104.763 137.241 106.188C137.344 106.512 137.463 106.839 137.607 107.171Z" fill="#3D4543"/>
<path d="M81.3631 150.111C81.4175 147.554 81.6126 145.002 81.9464 142.464C82.6241 137.485 83.6742 132.556 85.0899 127.714C86.192 123.742 88.1693 120.028 90.8962 116.809C95.1543 111.875 104.316 107.784 112.393 110.964C111.299 111.793 110.48 112.896 110.035 114.144C108.28 119.893 111.785 129.714 123.878 125.011C122.529 127.823 121.53 130.77 120.9 133.795C118.529 144.343 117.034 155.047 116.43 165.81H119.836C119.836 165.81 112.425 176.729 113.643 188.361C111.334 188.162 109.054 187.739 106.84 187.099C101.331 185.615 96.2935 182.897 92.1659 179.182C88.4396 175.77 85.1361 171.091 83.1954 164.677C81.8207 159.933 81.2032 155.024 81.3631 150.111Z" fill="#8F4899"/>
<path d="M121.653 203.308L121.514 203.443H101.384C100.952 203.421 100.546 203.245 100.248 202.951C99.9504 202.658 99.7847 202.269 99.7847 201.865C99.7847 201.461 99.9504 201.072 100.248 200.779C100.546 200.486 100.952 200.309 101.384 200.287H118.66C119.565 201.371 120.567 202.381 121.653 203.308Z" fill="#3D4543"/>
<path d="M119.743 99.3608C122.216 105.909 116.089 107.871 112.393 110.964C104.321 107.784 95.1543 111.875 90.8962 116.809C88.1693 120.028 86.1915 123.742 85.0894 127.714C83.6737 132.556 82.6237 137.485 81.9459 142.464H45.8521V99.3994H119.269L119.743 99.3608Z" fill="#F9B5C3"/>
<path d="M119.743 99.3607L119.268 99.3896H45.8518V142.464H81.9457C81.6119 145.002 81.4173 147.554 81.3624 150.11H45.5426C44.7786 150.11 44.046 149.827 43.506 149.323C42.9656 148.819 42.6621 148.135 42.6621 147.422V99.2933C42.6621 98.5804 42.9656 97.8964 43.506 97.3921C44.046 96.8877 44.7786 96.6045 45.5426 96.6045H118.587C118.779 97.1719 119.007 97.7288 119.268 98.2716C119.449 98.6478 119.588 99.0091 119.743 99.3607Z" fill="#989898" stroke="#2D2D2E" stroke-width="0.78" stroke-miterlimit="10"/>
<path d="M116.492 197.184L116.435 197.213H101.395C101.173 197.213 100.953 197.172 100.747 197.092C100.542 197.013 100.356 196.896 100.199 196.749C100.043 196.602 99.9185 196.428 99.8337 196.237C99.7494 196.044 99.7061 195.839 99.707 195.632V195.555C99.7061 195.347 99.7494 195.142 99.8337 194.951C99.9185 194.759 100.043 194.584 100.199 194.438C100.356 194.291 100.542 194.174 100.747 194.095C100.953 194.015 101.173 193.974 101.395 193.974H114.943C115.365 195.082 115.883 196.155 116.492 197.184Z" fill="#3D4543"/>
<path d="M113.953 190.471H101.395C101.173 190.471 100.953 190.43 100.747 190.35C100.542 190.271 100.356 190.154 100.199 190.008C100.043 189.861 99.9185 189.686 99.8337 189.495C99.7494 189.303 99.7061 189.098 99.707 188.89V188.673C99.707 188.256 99.8848 187.855 100.201 187.559C100.518 187.264 100.947 187.098 101.395 187.098H106.84C109.052 187.731 111.328 188.148 113.632 188.341C113.71 189.069 113.813 189.777 113.953 190.471Z" fill="#3D4543"/>
<path d="M103.335 260.009C104.579 260.01 105.796 260.355 106.829 261.001C107.864 261.647 108.669 262.565 109.144 263.638C109.62 264.712 109.744 265.893 109.5 267.032C109.257 268.171 108.657 269.217 107.777 270.038C106.897 270.859 105.776 271.418 104.556 271.644C103.335 271.87 102.071 271.754 100.921 271.309C99.7717 270.864 98.7895 270.112 98.0983 269.145C97.4071 268.18 97.0386 267.044 97.0386 265.883C97.0386 265.111 97.2014 264.347 97.5179 263.634C97.8343 262.921 98.2982 262.273 98.883 261.727C99.4677 261.182 100.162 260.75 100.926 260.455C101.69 260.16 102.509 260.008 103.335 260.009Z" fill="#3D4543"/>
<path d="M83.1951 164.696C85.1358 171.109 88.4392 175.779 92.1661 179.2C90.7826 179.2 21.8882 178.593 21.8882 179.2V164.696H83.1951Z" fill="#CDA787"/>
<path d="M83.1957 164.696H71.02L74.6332 150.11H81.3431C81.1875 155.031 81.8118 159.946 83.1957 164.696Z" fill="#989898" stroke="#2D2D2E" stroke-width="0.78" stroke-miterlimit="10"/>
<path d="M145.685 121.844L144.653 112.4C144.653 112.4 151.084 115.176 152.395 107.629C152.549 106.771 152.63 105.903 152.638 105.032C152.646 104.252 152.571 103.472 152.416 102.705C151.935 100.378 150.682 98.5708 148.694 97.5347C147.335 96.8198 145.776 96.5072 144.223 96.6387C142.67 96.7707 141.196 97.3401 139.997 98.2716C138.734 99.1782 137.794 100.421 137.303 101.836C136.812 103.251 136.792 104.773 137.246 106.198C137.35 106.512 137.468 106.839 137.612 107.162C138.132 108.366 138.378 109.657 138.336 110.954C138.323 111.379 138.276 111.803 138.196 112.222C137.824 114.202 136.73 116.318 133.85 116.857C133.85 116.857 128.198 116.375 123.883 125.001C122.534 127.813 121.535 130.76 120.905 133.785C118.534 144.333 117.04 155.037 116.436 165.8H152.622L151.703 151.788" stroke="#2D2D2E" stroke-width="0.78" stroke-miterlimit="10"/>
<path d="M154.795 151.711C154.452 152.081 154.025 152.375 153.546 152.573C153.339 152.645 152.679 152.351 151.714 151.797C151.445 151.648 151.156 151.479 150.841 151.286C145.065 147.788 132.26 138.416 132.26 138.416" stroke="#2D2D2E" stroke-width="0.78" stroke-miterlimit="10"/>
<path d="M162.541 137.226C167.316 131.299 181.272 113.802 181.406 111.634C181.571 109.012 180.586 102.705 182.232 102.705C183.878 102.705 186.33 110.796 186.361 112.251C186.397 114.559 173.504 136.565 170.701 141.028C167.899 145.49 161.302 153.036 156.027 150.11C155.684 150.683 155.274 151.218 154.804 151.706" stroke="#2D2D2E" stroke-width="0.78" stroke-miterlimit="10"/>
<path d="M158.299 137.019L160.973 139.177L162.547 137.25" stroke="#2D2D2E" stroke-width="0.78" stroke-miterlimit="10"/>
<path d="M162.228 136.083C162.364 136.232 162.464 136.406 162.519 136.594C162.576 136.782 162.587 136.98 162.553 137.173C162.553 137.173 162.553 137.211 162.553 137.226" stroke="#2D2D2E" stroke-width="0.78" stroke-miterlimit="10"/>
<path d="M150.841 151.286C150.844 149.808 151.054 148.337 151.466 146.91C152.513 143.001 154.915 139.524 158.299 137.023C158.904 136.574 159.534 136.157 160.188 135.775C160.496 135.59 160.864 135.512 161.227 135.557C161.589 135.6 161.924 135.763 162.171 136.016" stroke="#2D2D2E" stroke-width="0.78" stroke-miterlimit="10"/>
<path d="M156.024 150.105L151.466 146.911" stroke="#2D2D2E" stroke-width="0.78" stroke-miterlimit="10"/>
<path d="M133.845 116.866C133.845 116.866 138.686 117.71 145.675 121.854C150.47 124.721 156.266 129.164 162.192 136.016L162.253 136.083" stroke="#2D2D2E" stroke-width="0.78" stroke-miterlimit="10"/>
<path d="M119.836 165.81C119.836 165.81 112.424 176.728 113.643 188.361C113.72 189.069 113.823 189.777 113.962 190.491C114.199 191.674 114.532 192.839 114.959 193.974C115.828 196.251 117.085 198.383 118.68 200.287C119.586 201.371 120.587 202.381 121.674 203.308C123.462 204.832 125.423 206.17 127.521 207.298C128.162 207.65 128.822 207.982 129.483 208.291C134.865 210.783 140.797 212.065 146.804 212.035H175.332" stroke="#2D2D2E" stroke-width="0.78" stroke-miterlimit="10"/>
<path d="M186.227 260.008C186.227 260.008 180.307 232.109 176.591 217.065C176.122 215.137 175.688 213.446 175.301 212.034C174.831 210.285 174.434 208.984 174.155 208.29" stroke="#2D2D2E" stroke-width="0.78" stroke-miterlimit="10"/>
<path d="M159.874 165.809C167.146 165.968 174.527 165.862 181.923 165.809C184.107 165.809 186.295 165.771 188.478 165.771C194.672 165.771 200.897 165.823 207.059 166.161C206.75 170.464 207.364 175.056 206.75 179.364C203.653 179.364 200.912 179.364 197.841 179.234" stroke="#2D2D2E" stroke-width="0.78" stroke-miterlimit="10"/>
<path d="M219.817 260.009C219.614 259.216 219.41 258.424 219.203 257.633C213.417 235.246 207.471 213.842 201.231 190.833C200.307 187.098 197.85 183.942 194.16 182.506C184.539 178.767 174.691 176.324 164.606 173.678C163.057 173.279 161.56 172.878 160.028 172.464C156.652 171.312 153.318 167.356 152.631 165.81" stroke="#2D2D2E" stroke-width="0.78" stroke-miterlimit="10"/>
<path d="M192.524 256.968C197.395 255.307 202.649 254.876 207.755 255.72C212.025 256.45 216.113 257.907 219.817 260.018" stroke="#2D2D2E" stroke-width="0.78" stroke-miterlimit="10"/>
<path d="M186.228 260.009C188.16 258.716 190.28 257.689 192.525 256.959" stroke="#2D2D2E" stroke-width="0.78" stroke-miterlimit="10"/>
<path d="M231.968 271.756C231.968 271.756 236.035 264.369 219.818 263.565C219.818 263.565 211.044 263.406 207.756 255.729" stroke="#2D2D2E" stroke-width="0.78" stroke-miterlimit="10"/>
<path d="M192.524 256.968C192.488 257.209 190.914 268.533 192.524 271.766H210.527" stroke="#2D2D2E" stroke-width="0.78" stroke-miterlimit="10"/>
<path d="M210.527 271.756H249.966C249.966 271.756 254.033 264.369 237.821 263.565C237.821 263.565 229.021 263.406 225.754 255.729" stroke="#2D2D2E" stroke-width="0.78" stroke-miterlimit="10"/>
<path d="M164.617 173.654C164.617 173.654 169.262 174.006 175.306 174.743C182.728 175.64 192.251 177.119 197.851 179.225C198.631 179.507 199.388 179.842 200.117 180.227C208.52 184.742 232.422 257.648 232.422 257.648C230.452 256.381 228.147 255.646 225.759 255.523C223.373 255.449 221.04 256.194 219.204 257.619" stroke="#2D2D2E" stroke-width="0.78" stroke-miterlimit="10"/>
<path d="M152.41 102.705H143.666V105.22C143.666 105.22 142.118 104.088 141.911 105.22C141.705 106.352 143.46 107.148 143.46 107.148L140.704 110.964H138.33" stroke="#2D2D2E" stroke-width="0.78" stroke-miterlimit="10"/>
<path d="M139.991 98.2718C139.991 98.2718 137.953 86.7363 130.923 85.0494C124.306 83.4642 115.753 88.1385 118.587 96.6143C118.779 97.1817 119.007 97.7386 119.268 98.2814C119.449 98.6576 119.609 99.0189 119.743 99.3705C122.216 105.919 116.089 107.881 112.394 110.974C111.298 111.802 110.48 112.906 110.035 114.154C108.28 119.903 111.784 129.723 123.878 125.02" stroke="#2D2D2E" stroke-width="0.78" stroke-miterlimit="10"/>
<path d="M129.483 208.3H99.7063C98.4872 208.338 97.3311 208.817 96.4829 209.636C95.6346 210.454 95.1602 211.549 95.1602 212.688C95.1602 213.827 95.6346 214.921 96.4829 215.74C97.3311 216.558 98.4872 217.037 99.7063 217.075H176.612" stroke="#2D2D2E" stroke-width="0.78" stroke-miterlimit="10"/>
<path d="M113.757 188.37H113.632C111.327 188.167 109.051 187.741 106.84 187.098C101.331 185.614 96.2935 182.897 92.1664 179.181C88.4396 175.77 85.1362 171.091 83.1955 164.677C81.8188 159.926 81.2013 155.011 81.3631 150.091C81.418 147.535 81.6126 144.982 81.9464 142.444C82.6242 137.465 83.6743 132.536 85.0899 127.694C86.192 123.722 88.1699 120.008 90.8967 116.789C95.1548 111.855 104.316 107.764 112.394 110.945" stroke="#2D2D2E" stroke-width="0.78" stroke-miterlimit="10"/>
<path d="M106.84 187.098H101.395C100.947 187.098 100.518 187.264 100.201 187.559C99.8848 187.855 99.707 188.256 99.707 188.673V188.89C99.7061 189.098 99.7494 189.303 99.8337 189.495C99.9185 189.686 100.043 189.861 100.199 190.008C100.356 190.154 100.542 190.271 100.747 190.35C100.953 190.43 101.173 190.471 101.395 190.471H114.185" stroke="#2D2D2E" stroke-width="0.78" stroke-miterlimit="10"/>
<path d="M115.145 193.974H101.395C101.173 193.974 100.953 194.015 100.747 194.095C100.542 194.174 100.356 194.291 100.199 194.438C100.043 194.584 99.9185 194.759 99.8337 194.951C99.7494 195.142 99.7061 195.347 99.707 195.555V195.632C99.7061 195.839 99.7494 196.044 99.8337 196.237C99.9185 196.428 100.043 196.602 100.199 196.749C100.356 196.896 100.542 197.013 100.747 197.092C100.953 197.172 101.173 197.213 101.395 197.213H116.43" stroke="#2D2D2E" stroke-width="0.78" stroke-miterlimit="10"/>
<path d="M118.768 200.287H101.395C100.963 200.309 100.556 200.486 100.259 200.779C99.9611 201.072 99.7954 201.461 99.7954 201.865C99.7954 202.269 99.9611 202.658 100.259 202.951C100.556 203.245 100.963 203.421 101.395 203.443H121.524" stroke="#2D2D2E" stroke-width="0.78" stroke-miterlimit="10"/>
<path d="M132.239 217.065L129.271 260.009" stroke="#2D2D2E" stroke-width="0.78" stroke-miterlimit="10"/>
<path d="M142.852 217.065L147.507 260.009" stroke="#2D2D2E" stroke-width="0.78" stroke-miterlimit="10"/>
<path d="M103.334 260.009H129.271H138.592H147.506H174.155" stroke="#2D2D2E" stroke-width="0.78" stroke-miterlimit="10"/>
<path d="M109.626 265.883C109.627 267.046 109.259 268.183 108.568 269.151C107.876 270.118 106.892 270.872 105.742 271.318C104.591 271.763 103.324 271.88 102.102 271.654C100.88 271.427 99.758 270.867 98.877 270.044C97.996 269.222 97.3963 268.174 97.1535 267.033C96.9108 265.893 97.0355 264.71 97.5129 263.636C97.9902 262.561 98.798 261.643 99.8341 260.998C100.871 260.352 102.089 260.008 103.335 260.009C105.004 260.009 106.604 260.628 107.783 261.729C108.964 262.831 109.626 264.325 109.626 265.883Z" stroke="#2D2D2E" stroke-width="0.78" stroke-miterlimit="10"/>
<path d="M167.864 265.883C167.864 264.721 168.233 263.585 168.924 262.62C169.616 261.653 170.598 260.9 171.748 260.456C172.898 260.011 174.163 259.895 175.383 260.122C176.604 260.348 177.725 260.908 178.605 261.729C179.485 262.551 180.084 263.597 180.327 264.737C180.57 265.876 180.445 267.057 179.969 268.131C179.493 269.204 178.686 270.121 177.652 270.767C176.617 271.412 175.4 271.757 174.156 271.757C172.487 271.757 170.887 271.138 169.707 270.036C168.527 268.935 167.864 267.441 167.864 265.883Z" stroke="#2D2D2E" stroke-width="0.78" stroke-miterlimit="10"/>
<path d="M144.879 265.883C144.88 267.046 144.512 268.183 143.821 269.15C143.129 270.118 142.146 270.872 140.995 271.317C139.845 271.763 138.579 271.88 137.357 271.654C136.135 271.428 135.012 270.868 134.131 270.046C133.25 269.224 132.65 268.177 132.406 267.036C132.163 265.896 132.287 264.713 132.764 263.639C133.241 262.565 134.048 261.646 135.083 261C136.119 260.354 137.337 260.009 138.582 260.009C139.409 260.008 140.228 260.16 140.992 260.455C141.756 260.75 142.45 261.182 143.034 261.727C143.619 262.273 144.083 262.921 144.4 263.634C144.716 264.347 144.879 265.111 144.879 265.883Z" stroke="#2D2D2E" stroke-width="0.78" stroke-miterlimit="10"/>
<path d="M21.8882 179.22C21.8882 178.613 90.7826 179.22 92.1661 179.22" stroke="#2D2D2E" stroke-width="0.78" stroke-miterlimit="10"/>
<path d="M83.1951 164.696H71.0194H21.8882V179.195" stroke="#2D2D2E" stroke-width="0.78" stroke-miterlimit="10"/>
<path d="M35.7414 179.215L14.6362 270.013" stroke="#2D2D2E" stroke-width="0.78" stroke-miterlimit="10"/>
<path d="M81.3937 150.11H45.5426C45.164 150.11 44.7897 150.041 44.44 149.906C44.0908 149.771 43.7734 149.573 43.506 149.323C43.2382 149.073 43.0263 148.777 42.8818 148.451C42.7368 148.124 42.6621 147.775 42.6621 147.422V99.2933C42.6621 98.5804 42.9656 97.8964 43.506 97.3921C44.046 96.8877 44.7786 96.6045 45.5426 96.6045H118.587" stroke="#2D2D2E" stroke-width="0.78" stroke-miterlimit="10"/>
<path d="M74.6486 150.105L71.02 164.696" stroke="#2D2D2E" stroke-width="0.78" stroke-miterlimit="10"/>
<path d="M119.268 99.3843H45.8521V142.463H81.9512" stroke="#2D2D2E" stroke-width="0.78" stroke-miterlimit="10"/>
<path d="M188.493 165.756C188.215 165.794 187.934 165.811 187.652 165.809H182.357C182.218 165.816 182.078 165.816 181.939 165.809C180.487 165.71 179.129 165.103 178.139 164.108C177.148 163.113 176.597 161.805 176.597 160.446V150.11H193.397V160.431C193.397 161.72 192.902 162.965 192.002 163.942C191.103 164.919 189.858 165.562 188.493 165.756Z" stroke="#2D2D2E" stroke-width="0.78" stroke-miterlimit="10"/>
<path d="M186.831 140.165C188.055 140.564 189.089 141.354 189.749 142.396C190.408 143.438 190.651 144.664 190.434 145.857C190.218 147.05 189.556 148.133 188.566 148.915C187.576 149.695 186.321 150.124 185.025 150.124C183.729 150.124 182.475 149.695 181.484 148.915C180.494 148.133 179.832 147.05 179.616 145.857C179.399 144.664 179.642 143.438 180.302 142.396C180.961 141.354 181.995 140.564 183.219 140.165C183.793 139.978 184.397 139.884 185.004 139.886C185.625 139.885 186.241 139.983 186.827 140.175" stroke="#2D2D2E" stroke-width="0.78" stroke-miterlimit="10"/>
<path d="M185.004 150.105V139.866" stroke="#2D2D2E" stroke-width="0.78" stroke-miterlimit="10"/>
<path d="M186.826 140.16C187.576 141.67 187.964 143.314 187.964 144.978C187.964 146.643 187.576 148.287 186.826 149.797" stroke="#2D2D2E" stroke-width="0.78" stroke-miterlimit="10"/>
<path d="M183.23 140.16C182.479 141.67 182.089 143.314 182.089 144.978C182.089 146.643 182.479 148.288 183.23 149.797" stroke="#2D2D2E" stroke-width="0.78" stroke-miterlimit="10"/>
<path d="M154.795 151.706C154.873 151.952 157.634 160.862 159.89 165.805C160.581 167.318 161.227 168.455 161.733 168.856C163.906 170.561 175.307 174.739 175.307 174.739" stroke="#2D2D2E" stroke-width="0.78" stroke-miterlimit="10"/>
<path d="M248.686 258.563C248.686 258.563 248.686 260.877 249.295 262.24C249.811 263.488 250.363 264.823 250.394 264.91" stroke="#2D2D2E" stroke-width="0.78" stroke-miterlimit="10"/>
<path d="M248.686 258.564L239.912 271.675H234.575C234.076 271.68 233.587 271.55 233.166 271.301C232.744 271.052 232.409 270.694 232.201 270.271C231.994 269.848 231.921 269.377 231.993 268.917C232.066 268.456 232.279 268.025 232.608 267.676L233.641 266.553L236.397 258.93L244.495 236.46C246.121 225.787 245.915 212.281 252.841 199.738C254.343 197.02 255.644 193.873 257.043 190.582C257.195 190.226 257.431 189.906 257.734 189.646C258.037 189.387 258.398 189.195 258.792 189.084C260.11 188.685 261.476 188.442 262.859 188.361C262.772 188.582 259.917 195.748 260.119 197.444C260.32 199.14 263.102 198.981 263.102 198.981C263.138 200.025 263.378 201.053 263.809 202.017C263.809 202.017 267.21 210.392 265.357 217.547C264.981 218.993 264.697 220.357 264.413 221.576C264.413 221.576 265.672 226.226 269.662 233.213C269.693 233.458 270.132 237.313 266.942 242.85C263.649 248.584 261.853 256.072 267.691 258.901C273.528 261.729 281.007 261.416 284.832 260.587C285.193 262.182 285.487 263.715 285.725 265.107C286.36 268.904 286.556 271.646 286.556 271.646H245.966C245.579 267.444 248.139 265.652 250.395 264.9C250.363 264.813 249.827 263.455 249.295 262.231C248.712 260.877 248.686 258.564 248.686 258.564ZM263.897 237.429C263.896 236.738 263.675 236.063 263.264 235.489C262.851 234.915 262.266 234.468 261.582 234.205C260.898 233.941 260.146 233.873 259.42 234.009C258.694 234.144 258.028 234.478 257.505 234.967C256.983 235.456 256.627 236.079 256.484 236.757C256.34 237.435 256.415 238.137 256.7 238.775C256.984 239.413 257.464 239.958 258.08 240.341C258.696 240.724 259.42 240.928 260.16 240.928C260.651 240.927 261.138 240.835 261.592 240.66C262.045 240.483 262.458 240.226 262.804 239.901C263.151 239.576 263.426 239.191 263.614 238.766C263.802 238.342 263.897 237.888 263.897 237.429ZM261.316 207.708C261.316 207.423 260.934 207.192 260.464 207.192C259.995 207.192 259.613 207.423 259.613 207.708C259.613 207.992 259.995 208.214 260.464 208.214C260.934 208.214 261.327 207.987 261.327 207.708H261.316Z" fill="#F5B335"/>
<path d="M301.178 255.74C301.178 255.74 302.525 271.675 286.576 271.675C286.576 271.675 286.38 268.934 285.745 265.137C285.926 265.161 296.052 267.377 301.178 255.74Z" fill="#F5B335"/>
<path d="M278.792 246.237C281.796 249.832 283.691 255.528 284.852 260.616C281.027 261.445 273.548 261.753 267.711 258.929C261.873 256.106 263.669 248.613 266.963 242.878C270.152 237.337 269.713 233.482 269.683 233.241C272.316 237.808 275.364 242.156 278.792 246.237Z" fill="#3D4543"/>
<path d="M265.317 189.508C265.797 191.537 262.979 194.958 263.113 199.01C263.113 199.01 260.326 199.193 260.13 197.473C259.934 195.753 262.782 188.611 262.871 188.39C264.109 188.342 265.11 188.606 265.317 189.508Z" fill="#3D4543"/>
<path d="M260.16 233.936C260.901 233.936 261.626 234.141 262.242 234.525C262.859 234.91 263.339 235.456 263.623 236.096C263.906 236.736 263.98 237.439 263.835 238.118C263.69 238.797 263.333 239.42 262.808 239.909C262.283 240.398 261.615 240.731 260.888 240.865C260.161 241 259.407 240.93 258.723 240.664C258.038 240.399 257.453 239.949 257.042 239.374C256.631 238.798 256.412 238.121 256.413 237.429C256.413 236.97 256.51 236.515 256.698 236.091C256.887 235.667 257.163 235.281 257.511 234.957C257.859 234.633 258.272 234.375 258.727 234.2C259.181 234.025 259.668 233.935 260.16 233.936Z" fill="#3D4543"/>
<path d="M260.495 207.192C260.965 207.192 261.346 207.424 261.346 207.708C261.346 207.992 260.965 208.214 260.495 208.214C260.025 208.214 259.643 207.987 259.643 207.708C259.643 207.428 260.004 207.192 260.495 207.192Z" fill="#3D4543"/>
<path d="M244.495 236.46L236.392 258.929C236.392 258.929 232.521 252.15 233.393 248.295C234.265 244.44 244.258 236.648 244.495 236.46Z" fill="#F5B335"/>
<path d="M244.495 236.46L236.392 258.929L233.657 266.552L232.624 267.675C232.295 268.025 232.081 268.456 232.01 268.917C231.937 269.377 232.01 269.848 232.218 270.271C232.426 270.694 232.761 271.051 233.182 271.3C233.603 271.55 234.092 271.68 234.591 271.675H239.943L248.717 258.563L253.585 251.263C253.641 251.065 253.669 250.861 253.667 250.656L254.184 239.53" stroke="#2D2D2E" stroke-width="0.78" stroke-miterlimit="10"/>
<path d="M259.623 218.574C259.623 218.574 256.635 216.323 254.539 220.824C252.444 225.324 247.948 226.125 255.928 227.787C262.286 229.126 263.329 226.375 264.429 221.585C264.712 220.366 264.996 219.012 265.373 217.557C267.221 210.401 263.825 202.026 263.825 202.026C263.393 201.063 263.154 200.034 263.117 198.991C262.983 194.938 265.801 191.517 265.321 189.488C265.115 188.606 264.103 188.341 262.875 188.37C261.492 188.451 260.126 188.694 258.808 189.093C258.414 189.204 258.052 189.397 257.749 189.656C257.447 189.916 257.21 190.235 257.058 190.592C255.659 193.863 254.358 197.01 252.856 199.747C245.93 212.276 246.147 225.797 244.51 236.47" stroke="#2D2D2E" stroke-width="0.78" stroke-miterlimit="10"/>
<path d="M269.678 233.222C265.688 226.235 264.429 221.585 264.429 221.585" stroke="#2D2D2E" stroke-width="0.78" stroke-miterlimit="10"/>
<path d="M259.463 252.593C259.463 252.593 253.62 256.998 253.62 264.336C252.526 264.369 251.444 264.563 250.415 264.91C248.159 265.681 245.599 267.473 245.986 271.656H286.597C286.597 271.656 286.401 268.914 285.766 265.117C285.528 263.724 285.249 262.192 284.873 260.597C283.711 255.509 281.817 249.813 278.813 246.218C275.383 242.133 272.336 237.78 269.703 233.208" stroke="#2D2D2E" stroke-width="0.78" stroke-miterlimit="10"/>
<path d="M285.74 265.16C285.921 265.199 296.063 267.401 301.173 255.764C301.173 255.764 302.52 271.699 286.571 271.699" stroke="#2D2D2E" stroke-width="0.78" stroke-miterlimit="10"/>
<path d="M244.495 236.451C244.252 236.639 234.249 244.45 233.387 248.267C232.525 252.083 236.386 258.92 236.386 258.92" stroke="#2D2D2E" stroke-width="0.78" stroke-miterlimit="10"/>
<path d="M262.87 188.371C262.781 188.592 259.927 195.758 260.129 197.454C260.33 199.15 263.112 198.991 263.112 198.991" stroke="#2D2D2E" stroke-width="0.78" stroke-miterlimit="10"/>
<path d="M269.677 233.223C269.708 233.468 270.147 237.323 266.957 242.86C263.664 248.594 261.868 256.082 267.706 258.911C273.543 261.739 281.022 261.426 284.847 260.597" stroke="#2D2D2E" stroke-width="0.78" stroke-miterlimit="10"/>
<path d="M263.897 237.429C263.897 238.12 263.677 238.796 263.266 239.37C262.855 239.945 262.27 240.393 261.586 240.657C260.902 240.921 260.149 240.99 259.423 240.855C258.697 240.72 258.03 240.386 257.507 239.897C256.984 239.409 256.628 238.785 256.484 238.107C256.34 237.429 256.416 236.727 256.699 236.089C256.983 235.45 257.464 234.905 258.08 234.522C258.696 234.138 259.42 233.935 260.16 233.936C261.152 233.937 262.102 234.305 262.803 234.96C263.504 235.615 263.897 236.503 263.897 237.429Z" stroke="#2D2D2E" stroke-width="0.78" stroke-miterlimit="10"/>
<path d="M261.326 207.708C261.326 207.987 260.944 208.214 260.475 208.214C260.005 208.214 259.623 207.987 259.623 207.708C259.623 207.428 260.005 207.192 260.475 207.192C260.944 207.192 261.326 207.424 261.326 207.708Z" stroke="#2D2D2E" stroke-width="0.78" stroke-miterlimit="10"/>
<path d="M69.7455 240.354V264.086C69.7455 264.792 69.5961 265.491 69.3066 266.144C69.0171 266.796 68.5928 267.389 68.0581 267.888C67.5234 268.388 66.8881 268.784 66.1892 269.054C65.4907 269.324 64.7417 269.463 63.9849 269.463H44.3253C43.5681 269.464 42.8181 269.326 42.1187 269.056C41.4188 268.786 40.783 268.39 40.2469 267.891C39.7112 267.391 39.2859 266.798 38.9954 266.146C38.705 265.492 38.5557 264.793 38.5547 264.086V240.354H69.7402H69.7455Z" fill="#F5B335"/>
<path d="M57.5483 201.429C61.4967 204.18 64.3252 211.601 64.3252 220.318C64.3252 229.035 61.4967 236.46 57.5483 239.211C62.266 218.193 57.5483 201.448 57.5483 201.448V201.429Z" fill="#18988B"/>
<path d="M57.538 201.439C57.538 201.439 62.2552 218.184 57.538 239.202C56.5688 239.918 55.3767 240.319 54.1416 240.344V200.287C55.3771 200.31 56.5708 200.711 57.538 201.429V201.439Z" fill="#18988B"/>
<path d="M54.1513 200.287V240.354C52.9432 240.333 51.7746 239.945 50.8223 239.25L50.8637 239.202C46.1408 218.184 50.8637 201.439 50.8637 201.439L50.8223 201.386C51.7765 200.694 52.9442 200.309 54.1513 200.287Z" fill="#18988B"/>
<path d="M50.8234 201.386L50.8648 201.439C50.8648 201.439 46.1423 218.184 50.8648 239.202L50.8234 239.251C46.8389 236.533 43.9849 229.088 43.9849 220.318C43.9849 211.548 46.8389 204.103 50.8234 201.386Z" fill="#18988B"/>
<path d="M63.9849 269.463H44.3253C43.5681 269.464 42.8181 269.326 42.1187 269.056C41.4188 268.786 40.783 268.39 40.2469 267.891C39.7112 267.391 39.2859 266.798 38.9954 266.146C38.705 265.492 38.5557 264.793 38.5547 264.086V240.354H69.7402V264.086C69.7402 265.511 69.1337 266.878 68.0547 267.887C66.9757 268.895 65.5119 269.462 63.9849 269.463Z" stroke="#2D2D2E" stroke-width="0.78" stroke-miterlimit="10"/>
<path d="M57.5487 201.429C61.4971 204.181 64.3256 211.602 64.3256 220.318C64.3256 229.035 61.4971 236.461 57.5487 239.212C56.5801 239.928 55.3879 240.329 54.1528 240.354C52.9443 240.333 51.7757 239.946 50.8234 239.251C46.8389 236.533 43.9849 229.088 43.9849 220.318C43.9849 211.549 46.8389 204.104 50.8234 201.386C51.7767 200.671 52.9645 200.285 54.1866 200.293C55.4091 200.301 56.5911 200.703 57.5333 201.429H57.5487Z" stroke="#2D2D2E" stroke-width="0.78" stroke-miterlimit="10"/>
<path d="M54.1572 240.349V200.287" stroke="#2D2D2E" stroke-width="0.78" stroke-miterlimit="10"/>
<path d="M57.5371 201.438C57.5371 201.438 62.2548 218.183 57.5371 239.202" stroke="#2D2D2E" stroke-width="0.78" stroke-miterlimit="10"/>
<path d="M50.8637 201.438C50.8637 201.438 46.1408 218.183 50.8637 239.202" stroke="#2D2D2E" stroke-width="0.78" stroke-miterlimit="10"/>
<path d="M154.696 102.184V105.027V107.875" stroke="#2D2D2E" stroke-width="0.78" stroke-miterlimit="10"/>
<path d="M154.696 105.027H152.632H143.671" stroke="#2D2D2E" stroke-width="0.78" stroke-miterlimit="10"/>
<path d="M363.451 193.681L349.814 202.933C345.119 206.164 339.606 208.201 333.814 208.845C330.126 209.262 326.389 209.078 322.769 208.301L322.598 208.262C312.472 206.007 306.819 199.921 303.666 193.705C301.092 188.425 299.738 182.698 299.692 176.898L304.135 170.605C315.718 178.724 327.362 186.785 327.362 186.785L331.491 167.145L344.033 166.552C344.227 166.548 344.418 166.507 344.595 166.434C344.773 166.36 344.933 166.254 345.065 166.123C345.222 165.968 345.338 165.781 345.405 165.578C345.473 165.375 345.489 165.16 345.455 164.95C345.42 164.739 345.334 164.539 345.204 164.364C345.074 164.189 344.903 164.044 344.704 163.94C337.943 160.567 332.317 163.362 332.317 163.362L333.447 157.936L386.414 132.995C398.118 127.424 411.542 125.852 424.355 128.552L425.386 128.783C437.129 131.511 456.358 133.959 470.968 135.583C482.461 136.859 491.136 137.631 491.136 137.631C488.395 141.772 486.04 146.124 484.094 150.641C483.4 152.207 482.706 153.893 482.027 155.686C481.618 156.775 481.208 157.907 480.823 159.059C480.211 160.866 479.643 162.76 479.128 164.726C477.88 169.396 477.066 174.156 476.681 178.955C476.209 184.811 476.507 190.698 477.572 196.485C477.572 196.485 424.254 167.395 407.852 163.618L377.397 184.207L363.451 193.681Z" fill="#F9B5C3"/>
<path d="M365.788 126.928L372.689 121.425C382.637 113.418 395.273 108.912 408.405 108.689C408.762 108.689 409.123 108.689 409.48 108.689C431.088 108.766 475.591 102.686 475.591 102.686C473.982 107.314 472.798 112.064 472.061 116.881C471.261 121.777 470.847 126.721 470.827 131.674C470.827 132.941 470.861 134.238 470.914 135.529C456.285 133.905 437.076 131.457 425.337 128.73L424.301 128.499C411.488 125.798 398.065 127.37 386.361 132.941L333.374 157.912L333.818 155.801C333.818 155.801 332.208 155.883 329.54 155.845L365.788 126.928Z" fill="#F9B5C3"/>
<path d="M363.451 193.681L377.387 184.222C375.56 189.455 371.596 193.844 363.451 193.681Z" fill="#DF6A2E"/>
<path d="M366.862 260.009C368.106 260.009 369.323 260.353 370.357 260.999C371.392 261.644 372.198 262.562 372.675 263.635C373.151 264.708 373.275 265.889 373.033 267.029C372.79 268.168 372.191 269.215 371.311 270.036C370.431 270.858 369.31 271.417 368.089 271.644C366.869 271.87 365.603 271.754 364.454 271.31C363.304 270.865 362.322 270.112 361.631 269.146C360.939 268.18 360.57 267.044 360.57 265.883C360.571 264.325 361.235 262.832 362.414 261.731C363.594 260.629 365.194 260.01 366.862 260.009Z" fill="#3D4543"/>
<path d="M368.632 210.228C369.231 210.791 369.639 211.506 369.803 212.285C369.967 213.064 369.881 213.871 369.555 214.604C369.228 215.336 368.677 215.963 367.97 216.403C367.263 216.844 366.432 217.08 365.582 217.08H293.012C291.765 217.08 290.569 216.618 289.687 215.794C288.805 214.971 288.31 213.854 288.31 212.69C288.31 211.526 288.805 210.409 289.687 209.586C290.569 208.763 291.765 208.3 293.012 208.3H322.788C326.394 209.072 330.115 209.256 333.787 208.845L365.587 209.028C366.732 209.036 367.827 209.467 368.632 210.228Z" fill="#DF6A2E"/>
<path d="M365.788 126.928L329.555 155.84C324.821 155.754 320.101 155.342 315.433 154.606L318.339 150.501L305.301 143.504C301.017 141.191 296.924 139.244 293.161 137.62L291.097 133.737C294.202 127.233 299.097 121.614 305.284 117.452C311.471 113.289 318.73 110.732 326.32 110.04C333.91 109.348 341.561 110.546 348.494 113.513C355.427 116.479 361.394 121.108 365.788 126.928Z" fill="#DF6A2E"/>
<path d="M345.412 165.14C345.414 165.498 345.268 165.843 345.004 166.104C344.871 166.235 344.711 166.341 344.534 166.414C344.357 166.488 344.166 166.528 343.972 166.533L331.43 167.125L332.219 163.342C332.219 163.342 337.855 160.528 344.607 163.921C344.847 164.036 345.049 164.21 345.192 164.426C345.334 164.641 345.41 164.888 345.412 165.14Z" fill="#DCC7B7"/>
<path d="M335.558 217.065L340.219 260.009H331.3H321.984L324.952 217.065H335.558Z" fill="#3D4543"/>
<path d="M331.3 260.009C332.544 260.008 333.761 260.352 334.796 260.996C335.832 261.641 336.639 262.558 337.116 263.632C337.593 264.705 337.718 265.886 337.476 267.026C337.234 268.166 336.635 269.212 335.755 270.035C334.876 270.856 333.755 271.417 332.534 271.644C331.313 271.87 330.048 271.754 328.898 271.31C327.748 270.866 326.765 270.113 326.073 269.146C325.382 268.181 325.013 267.045 325.013 265.883C325.013 264.326 325.675 262.832 326.854 261.731C328.033 260.63 329.632 260.01 331.3 260.009Z" fill="#3D4543"/>
<path d="M304.135 170.58L299.691 176.873L298.391 178.714C295.634 174.569 292.45 170.685 288.883 167.12C284.227 162.345 278.911 158.171 273.074 154.707C272.018 154.1 271.029 153.396 270.121 152.606L270.168 152.375C270.953 147.031 270.446 142.954 269.383 139.89H269.456C269.456 139.89 275.329 132.763 290.69 145.007C297.637 150.549 307.129 153.291 315.439 154.645C320.107 155.38 324.827 155.792 329.56 155.878C332.229 155.917 333.839 155.835 333.839 155.835L333.395 157.945L332.239 163.337L331.449 167.12L327.32 186.761C327.32 186.761 315.723 178.699 304.135 170.58Z" fill="#18988B"/>
<path d="M318.304 150.501L315.398 154.607C307.088 153.267 297.596 150.525 290.648 144.969C275.309 132.744 269.435 139.876 269.435 139.876H269.363C268.697 137.838 267.614 135.939 266.173 134.286C275.438 134.802 274.498 131.106 274.431 130.961C274.994 131.144 275.562 131.318 276.129 131.482C281.949 133.167 287.64 135.218 293.162 137.621C296.925 139.245 301.018 141.192 305.302 143.504L318.304 150.501Z" fill="#18988B"/>
<path d="M303.665 193.68C283.618 194.06 288.862 167.12 288.862 167.12C292.436 170.685 295.627 174.567 298.39 178.713L299.691 176.873C299.737 182.673 301.091 188.4 303.665 193.68Z" fill="#DF6A2E"/>
<path d="M296.042 260.009C297.286 260.009 298.503 260.353 299.537 260.999C300.572 261.644 301.378 262.562 301.854 263.635C302.331 264.708 302.455 265.889 302.213 267.029C301.97 268.168 301.371 269.215 300.491 270.036C299.611 270.858 298.49 271.417 297.269 271.644C296.049 271.87 294.784 271.754 293.634 271.31C292.484 270.865 291.501 270.112 290.81 269.146C290.119 268.18 289.75 267.044 289.75 265.883C289.751 264.325 290.415 262.832 291.594 261.731C292.774 260.629 294.373 260.01 296.042 260.009Z" fill="#3D4543"/>
<path d="M291.066 133.722L293.131 137.606C287.608 135.203 281.918 133.152 276.098 131.467C275.53 131.303 274.963 131.13 274.4 130.947C271.739 130.077 269.174 128.97 266.74 127.641L266.172 127.347C266.172 127.347 272.186 123.859 266.172 118.674C265.024 117.661 263.719 116.815 262.302 116.163C259.778 115.045 257.285 114.954 255.107 116C253.988 116.528 253.028 117.307 252.311 118.268C251.596 119.228 251.146 120.34 251.003 121.502C236.592 113.022 207.239 122.76 207.239 122.76V90.957L258.43 97.5923C262.71 98.1477 266.788 99.6414 270.329 101.952C273.871 104.262 276.777 107.322 278.808 110.882L291.066 133.722Z" fill="#18988B"/>
<path d="M274.431 130.961C274.472 131.106 275.412 134.816 266.173 134.286C265.812 133.883 265.428 133.498 265.022 133.135C263.304 131.622 262.123 129.654 261.641 127.496L261.61 127.338C260.951 127.324 260.3 127.198 259.69 126.967C258.782 126.596 259.463 125.805 259.855 125.386C260.247 124.967 258.73 123.699 258.73 123.699L262.343 116.144C263.747 116.804 265.038 117.657 266.173 118.674C272.191 123.854 266.173 127.347 266.173 127.347L266.777 127.675C269.209 128.995 271.773 130.095 274.431 130.956V130.961Z" fill="#DCC7B7"/>
<path d="M266.173 134.286C267.614 135.939 268.697 137.837 269.363 139.875C270.426 142.94 270.911 147.017 270.147 152.36L270.101 152.592L268.418 160.595H240.18L251.019 121.483C251.162 120.32 251.612 119.209 252.327 118.248C253.044 117.288 254.004 116.508 255.123 115.98C257.301 114.934 259.794 115.016 262.318 116.144L258.704 123.699C258.704 123.699 260.253 124.966 259.83 125.386C259.407 125.805 258.756 126.595 259.664 126.966C260.275 127.198 260.926 127.324 261.585 127.337L261.616 127.496C262.098 129.654 263.278 131.622 264.996 133.134C265.412 133.497 265.804 133.882 266.173 134.286Z" fill="#DF6A2E"/>
<path d="M207.23 100.989V107.813L200.839 106.396C200.557 106.334 200.295 106.206 200.077 106.027C199.859 105.847 199.692 105.619 199.591 105.365C198.6 102.825 195.792 95.2456 196.912 93.3955C198.269 91.145 203.24 100.989 203.24 100.989H207.23Z" fill="#DCC7B7"/>
<path d="M322.768 208.3H293.012C291.793 208.338 290.637 208.817 289.789 209.636C288.94 210.454 288.466 211.549 288.466 212.688C288.466 213.827 288.94 214.921 289.789 215.74C290.637 216.558 291.793 217.037 293.012 217.075H365.582C366.723 217.075 367.818 216.652 368.626 215.898C369.433 215.145 369.886 214.122 369.886 213.056C369.886 211.991 369.433 210.968 368.626 210.215C367.818 209.461 366.723 209.038 365.582 209.038L333.787 208.845" stroke="#2D2D2E" stroke-width="0.78" stroke-miterlimit="10"/>
<path d="M324.952 217.065L321.984 260.009" stroke="#2D2D2E" stroke-width="0.78" stroke-miterlimit="10"/>
<path d="M335.558 217.065L340.219 260.009" stroke="#2D2D2E" stroke-width="0.78" stroke-miterlimit="10"/>
<path d="M296.048 260.009H321.984H331.3H340.219H366.862" stroke="#2D2D2E" stroke-width="0.78" stroke-miterlimit="10"/>
<path d="M302.338 265.883C302.339 267.046 301.971 268.183 301.28 269.15C300.588 270.118 299.605 270.872 298.455 271.317C297.304 271.763 296.038 271.88 294.816 271.654C293.594 271.428 292.472 270.868 291.591 270.046C290.709 269.224 290.109 268.177 289.866 267.036C289.623 265.896 289.747 264.713 290.223 263.639C290.7 262.565 291.507 261.646 292.543 261C293.578 260.354 294.796 260.009 296.042 260.009C296.868 260.008 297.687 260.16 298.451 260.455C299.215 260.75 299.909 261.182 300.494 261.727C301.079 262.273 301.543 262.921 301.859 263.634C302.175 264.347 302.338 265.111 302.338 265.883Z" stroke="#2D2D2E" stroke-width="0.78" stroke-miterlimit="10"/>
<path d="M373.159 265.883C373.16 267.046 372.791 268.183 372.1 269.15C371.409 270.118 370.425 270.872 369.275 271.317C368.124 271.763 366.858 271.88 365.636 271.654C364.414 271.428 363.292 270.868 362.411 270.046C361.53 269.224 360.929 268.177 360.686 267.036C360.442 265.896 360.567 264.713 361.044 263.639C361.52 262.565 362.327 261.646 363.362 261C364.398 260.354 365.616 260.009 366.861 260.009C367.688 260.008 368.507 260.16 369.271 260.455C370.035 260.75 370.729 261.182 371.314 261.727C371.898 262.273 372.362 262.921 372.679 263.634C372.996 264.347 373.159 265.111 373.159 265.883Z" stroke="#2D2D2E" stroke-width="0.78" stroke-miterlimit="10"/>
<path d="M337.592 265.883C337.594 267.046 337.225 268.183 336.533 269.151C335.842 270.118 334.858 270.872 333.707 271.318C332.557 271.763 331.29 271.88 330.068 271.654C328.846 271.427 327.724 270.867 326.843 270.044C325.962 269.222 325.362 268.174 325.119 267.033C324.876 265.893 325.002 264.71 325.479 263.636C325.956 262.561 326.764 261.643 327.8 260.998C328.836 260.352 330.055 260.008 331.301 260.009C332.969 260.009 334.569 260.628 335.75 261.729C336.929 262.831 337.592 264.325 337.592 265.883Z" stroke="#2D2D2E" stroke-width="0.78" stroke-miterlimit="10"/>
<path d="M270.055 152.558L270.101 152.606C271.008 153.396 271.997 154.099 273.054 154.707C278.898 158.169 284.221 162.344 288.883 167.12C292.458 170.685 295.649 174.567 298.412 178.713L299.712 176.873L304.156 170.58" stroke="#2D2D2E" stroke-width="0.78" stroke-miterlimit="10"/>
<path d="M274.432 130.957C271.77 130.087 269.205 128.98 266.772 127.651L266.174 127.348C266.174 127.348 272.187 123.859 266.174 118.674C265.025 117.661 263.72 116.815 262.302 116.164C259.778 115.046 257.286 114.954 255.107 116C253.989 116.528 253.028 117.308 252.313 118.268C251.596 119.229 251.146 120.34 251.004 121.503" stroke="#2D2D2E" stroke-width="0.78" stroke-miterlimit="10"/>
<path d="M315.418 154.607L318.324 150.501L305.286 143.504C301.002 141.192 296.909 139.245 293.146 137.621C287.624 135.218 281.933 133.167 276.113 131.482C275.546 131.318 274.978 131.144 274.416 130.961" stroke="#2D2D2E" stroke-width="0.78" stroke-miterlimit="10"/>
<path d="M207.23 100.989H203.24C203.24 100.989 198.269 91.145 196.912 93.3955C195.792 95.2601 198.6 102.825 199.591 105.365C199.692 105.619 199.859 105.847 200.077 106.027C200.295 106.206 200.557 106.334 200.839 106.396L207.23 107.813" stroke="#2D2D2E" stroke-width="0.78" stroke-miterlimit="10"/>
<path d="M269.436 139.875C269.436 139.875 275.309 132.748 290.669 144.992C297.617 150.534 307.108 153.276 315.418 154.63C320.087 155.365 324.807 155.778 329.54 155.864C332.209 155.902 333.819 155.82 333.819 155.82L333.375 157.93L332.24 163.337L331.45 167.12L327.321 186.76C327.321 186.76 315.687 178.699 304.094 170.58C292.651 162.561 281.255 154.485 281.142 154.071" stroke="#2D2D2E" stroke-width="0.78" stroke-miterlimit="10"/>
<path d="M332.24 163.338C332.24 163.338 337.876 160.524 344.628 163.916C344.912 164.062 345.138 164.291 345.271 164.567C345.404 164.844 345.436 165.154 345.363 165.45C345.29 165.745 345.116 166.01 344.867 166.205C344.617 166.4 344.307 166.513 343.982 166.528L331.44 167.12" stroke="#2D2D2E" stroke-width="0.78" stroke-miterlimit="10"/>
<path d="M299.692 176.874C299.738 182.674 301.092 188.401 303.666 193.681C306.819 199.897 312.472 205.982 322.598 208.238L322.769 208.276C326.379 209.058 330.107 209.251 333.788 208.845C339.58 208.201 345.093 206.164 349.788 202.932L363.425 193.681L377.361 184.222" stroke="#2D2D2E" stroke-width="0.78" stroke-miterlimit="10"/>
<path d="M333.375 157.912L386.341 132.97C398.045 127.399 411.469 125.827 424.282 128.528L425.313 128.759C437.056 131.486 456.285 133.934 470.895 135.558C482.388 136.835 491.063 137.606 491.063 137.606C488.323 141.747 485.967 146.1 484.021 150.616C483.327 152.182 482.634 153.869 481.955 155.662C481.545 156.75 481.136 157.883 480.75 159.034C480.139 160.841 479.57 162.735 479.055 164.701C477.807 169.371 476.993 174.131 476.608 178.93C476.136 184.786 476.435 190.674 477.499 196.461C477.499 196.461 424.181 167.37 407.779 163.593C406.676 163.29 405.53 163.162 404.379 163.217" stroke="#2D2D2E" stroke-width="0.78" stroke-miterlimit="10"/>
<path d="M329.54 155.84L365.773 126.928L372.673 121.425C382.622 113.418 395.257 108.912 408.391 108.689C408.747 108.689 409.109 108.689 409.465 108.689C431.074 108.766 475.577 102.686 475.577 102.686C473.963 107.314 472.783 112.064 472.046 116.881C471.242 121.777 470.832 126.721 470.813 131.674C470.813 132.941 470.842 134.238 470.9 135.529" stroke="#2D2D2E" stroke-width="0.78" stroke-miterlimit="10"/>
<path d="M291.067 133.722C294.17 127.213 299.068 121.589 305.258 117.423C311.45 113.258 318.713 110.699 326.309 110.008C333.904 109.317 341.56 110.52 348.495 113.492C355.431 116.464 361.398 121.1 365.789 126.928C365.802 126.937 365.812 126.948 365.82 126.962" stroke="#2D2D2E" stroke-width="0.78" stroke-miterlimit="10"/>
<path d="M262.292 116.144L258.678 123.7C258.678 123.7 260.227 124.967 259.804 125.386C259.38 125.805 258.73 126.596 259.639 126.967C260.249 127.199 260.9 127.324 261.559 127.338L261.589 127.497C262.072 129.655 263.252 131.622 264.97 133.135C265.394 133.497 265.795 133.881 266.173 134.286C267.613 135.939 268.697 137.838 269.363 139.876C270.426 142.941 270.911 147.017 270.147 152.361L270.101 152.592L268.418 160.596H240.18L251.019 121.483C236.608 113.002 207.255 122.741 207.255 122.741V90.938L258.431 97.5925C262.71 98.1479 266.788 99.6416 270.33 101.952C273.871 104.262 276.777 107.322 278.808 110.882L291.092 133.723L293.157 137.606" stroke="#2D2D2E" stroke-width="0.78" stroke-miterlimit="10"/>
<path d="M288.883 167.12C288.883 167.12 283.639 194.06 303.686 193.68" stroke="#2D2D2E" stroke-width="0.78" stroke-miterlimit="10"/>
<path d="M377.396 184.207C375.559 189.44 371.595 193.815 363.461 193.666H363.435" stroke="#2D2D2E" stroke-width="0.78" stroke-miterlimit="10"/>
<path d="M274.431 130.956C274.473 131.101 275.412 134.811 266.173 134.281" stroke="#2D2D2E" stroke-width="0.78" stroke-miterlimit="10"/>
<path d="M29.3465 226.36V253.32C29.3465 258.21 27.2661 262.899 23.5624 266.357C19.8592 269.814 14.8361 271.757 9.59873 271.757H-8.5643C-11.1577 271.757 -13.7266 271.281 -16.123 270.354C-18.5194 269.428 -20.6971 268.07 -22.5313 266.358C-24.3656 264.646 -25.8203 262.614 -26.8131 260.377C-27.8058 258.14 -28.3169 255.742 -28.3169 253.32V226.36H29.3465ZM23.3076 233.357C23.4502 233.032 23.4482 232.668 23.3033 232.345C23.1583 232.021 22.8813 231.765 22.5335 231.632C22.1857 231.499 21.7956 231.5 21.4492 231.636C21.1024 231.772 20.8279 232.03 20.6858 232.354L15.7099 243.693C15.6391 243.853 15.603 244.025 15.603 244.199C15.6035 244.372 15.6406 244.544 15.7118 244.704C15.7831 244.864 15.8877 245.01 16.0196 245.132C16.1511 245.255 16.3072 245.352 16.4792 245.418C16.6511 245.484 16.8351 245.518 17.0211 245.518C17.2065 245.517 17.3905 245.483 17.562 245.416C17.734 245.349 17.8896 245.252 18.0211 245.129C18.1521 245.006 18.2561 244.861 18.3269 244.7L23.3076 233.357ZM14.7499 263.131C14.9252 263.072 15.0861 262.981 15.2234 262.864C15.3607 262.747 15.472 262.605 15.5505 262.447C15.6295 262.289 15.6738 262.119 15.6815 261.946C15.6897 261.772 15.6608 261.598 15.5962 261.435L11.1112 249.918C11.0115 249.663 10.8309 249.443 10.5925 249.287C10.3545 249.131 10.0703 249.047 9.77937 249.046C9.61415 249.047 9.4499 249.075 9.29431 249.128C8.94172 249.249 8.65414 249.495 8.49567 249.813C8.33719 250.131 8.31985 250.495 8.44798 250.824L12.9383 262.341C12.9999 262.505 13.0963 262.656 13.221 262.786C13.3458 262.915 13.4966 263.02 13.6651 263.094C13.8337 263.169 14.0163 263.211 14.2027 263.219C14.3886 263.227 14.5751 263.2 14.7499 263.141V263.131ZM8.68545 240.585C8.73748 240.418 8.75338 240.244 8.73266 240.071C8.71195 239.898 8.65462 239.731 8.56454 239.579C8.47447 239.428 8.35309 239.294 8.20714 239.186C8.06119 239.078 7.89404 238.998 7.71485 238.951L-4.90491 235.578C-5.26521 235.482 -5.65249 235.523 -5.98052 235.693C-6.30855 235.863 -6.55083 236.147 -6.6544 236.484C-6.75796 236.821 -6.71365 237.182 -6.53157 237.488C-6.34949 237.795 -6.04458 238.021 -5.68428 238.118L6.93548 241.491C7.06313 241.525 7.19511 241.543 7.32806 241.544C7.6349 241.543 7.93354 241.449 8.17824 241.276C8.42342 241.103 8.60116 240.861 8.68545 240.585ZM1.63498 261.873C1.81947 261.85 1.99721 261.792 2.15761 261.704C2.31849 261.617 2.45915 261.5 2.57138 261.361C2.68362 261.222 2.76502 261.064 2.81174 260.895C2.85847 260.727 2.86858 260.552 2.84257 260.38L0.994812 248.246C0.942308 247.9 0.743855 247.586 0.443762 247.375C0.143671 247.165 -0.233488 247.074 -0.605352 247.124C-0.976734 247.173 -1.31247 247.358 -1.5379 247.638C-1.76333 247.918 -1.86063 248.27 -1.80765 248.617L0.0348091 260.751C0.0829792 261.065 0.250122 261.352 0.505899 261.561C0.761194 261.769 1.08875 261.885 1.42834 261.888C1.4977 261.888 1.56658 261.883 1.63498 261.873ZM-10.1332 247.847C-10.0648 247.694 -10.0281 247.53 -10.0248 247.365C-10.0281 247.059 -10.1447 246.765 -10.3542 246.531C-10.5643 246.296 -10.8547 246.138 -11.176 246.081C-11.4973 246.024 -11.8297 246.072 -12.1167 246.219C-12.4038 246.365 -12.6273 246.6 -12.7502 246.883L-17.7048 258.183C-17.7853 258.488 -17.7458 258.811 -17.5935 259.093C-17.4413 259.374 -17.1865 259.595 -16.8749 259.716C-16.5632 259.837 -16.2154 259.85 -15.8941 259.752C-15.5733 259.655 -15.3002 259.454 -15.1244 259.185L-10.1332 247.847ZM-16.7193 245.538C-16.3662 245.418 -16.0791 245.172 -15.9206 244.854C-15.7617 244.536 -15.7448 244.172 -15.873 243.842L-20.3633 232.326C-20.4615 232.07 -20.6421 231.848 -20.8806 231.692C-21.119 231.536 -21.4037 231.453 -21.6946 231.454C-21.8584 231.455 -22.0207 231.483 -22.1749 231.536C-22.5275 231.655 -22.8146 231.9 -22.973 232.218C-23.132 232.535 -23.1493 232.898 -23.0212 233.227L-18.5362 244.748C-18.4057 245.077 -18.1417 245.344 -17.8016 245.492C-17.4616 245.64 -17.0724 245.657 -16.7193 245.538Z" fill="#F9B5C3"/>
<path d="M23.4163 232.876C23.4129 233.041 23.3758 233.205 23.3079 233.357L18.3272 244.701C18.1842 245.024 17.9091 245.282 17.5628 245.417C17.216 245.551 16.8263 245.552 16.4795 245.418C16.1327 245.285 15.8566 245.028 15.7121 244.704C15.5681 244.381 15.5671 244.017 15.7102 243.693L20.6861 232.355C20.8108 232.074 21.0358 231.841 21.3224 231.696C21.609 231.552 21.9404 231.504 22.2607 231.56C22.5815 231.617 22.871 231.774 23.0815 232.007C23.292 232.239 23.41 232.533 23.4163 232.837V232.876Z" fill="#8F4899"/>
<path d="M15.597 261.445C15.6606 261.608 15.689 261.781 15.6813 261.955C15.6736 262.128 15.6288 262.298 15.5508 262.455C15.4723 262.613 15.3615 262.754 15.2247 262.871C15.0879 262.989 14.9275 263.08 14.7531 263.139C14.5783 263.199 14.3928 263.226 14.2074 263.218C14.0219 263.211 13.8394 263.169 13.6712 263.096C13.5027 263.023 13.3514 262.919 13.2257 262.792C13.1 262.664 13.0022 262.514 12.9386 262.351L8.4483 250.835C8.32017 250.505 8.33751 250.141 8.49598 249.823C8.65446 249.505 8.94203 249.259 9.29463 249.139C9.45021 249.086 9.61446 249.058 9.77968 249.057C10.0711 249.057 10.3548 249.141 10.5928 249.297C10.8312 249.453 11.0123 249.674 11.1115 249.929L15.597 261.445Z" fill="#8F4899"/>
<path d="M7.7151 238.951C8.04554 239.037 8.33118 239.231 8.51904 239.499C8.70738 239.766 8.78493 240.089 8.73724 240.406C8.69003 240.723 8.52096 241.013 8.26181 241.222C8.00267 241.431 7.67079 241.545 7.32831 241.543C7.19536 241.542 7.06338 241.525 6.93573 241.49L-5.68403 238.118C-6.04433 238.021 -6.34924 237.795 -6.53132 237.489C-6.7134 237.182 -6.75771 236.821 -6.65414 236.484C-6.55058 236.147 -6.3083 235.862 -5.98027 235.693C-5.65224 235.523 -5.26496 235.481 -4.90466 235.578L7.7151 238.951Z" fill="#8F4899"/>
<path d="M2.84284 260.38C2.86886 260.553 2.85874 260.728 2.81202 260.896C2.7653 261.065 2.68341 261.223 2.57117 261.361C2.45894 261.5 2.31877 261.617 2.15788 261.705C1.99748 261.793 1.81974 261.85 1.63526 261.874C1.56638 261.879 1.49749 261.879 1.42861 261.874C1.08902 261.872 0.761473 261.755 0.505697 261.547C0.250402 261.338 0.0832537 261.051 0.0350848 260.737L-1.80786 248.603C-1.86036 248.257 -1.76306 247.905 -1.53763 247.624C-1.3122 247.344 -0.976458 247.159 -0.605077 247.11C-0.233213 247.061 0.143946 247.151 0.444038 247.362C0.74413 247.573 0.942102 247.886 0.995088 248.233L2.84284 260.38Z" fill="#8F4899"/>
<path d="M14.1873 226.36H29.3465V253.32C29.3465 258.21 27.2661 262.899 23.5624 266.357C19.8592 269.814 14.8361 271.757 9.59873 271.757H-8.5643C-11.1577 271.757 -13.7266 271.281 -16.123 270.354C-18.5194 269.428 -20.6971 268.07 -22.5313 266.358C-24.3656 264.646 -25.8203 262.614 -26.8131 260.377C-27.8058 258.14 -28.3169 255.742 -28.3169 253.32V226.36H14.1873Z" stroke="#2D2D2E" stroke-width="0.78" stroke-miterlimit="10"/>
<path d="M14.7502 263.141C14.5759 263.201 14.3904 263.228 14.205 263.221C14.019 263.213 13.8369 263.172 13.6684 263.098C13.4998 263.025 13.349 262.921 13.2238 262.793C13.0985 262.664 13.0017 262.515 12.9386 262.351L8.4483 250.835C8.32017 250.505 8.33751 250.141 8.49598 249.823C8.65446 249.505 8.94203 249.259 9.29463 249.139C9.45021 249.086 9.61446 249.058 9.77968 249.057C10.0711 249.057 10.3548 249.141 10.5928 249.297C10.8312 249.453 11.0123 249.674 11.1115 249.929L15.597 261.445C15.6611 261.608 15.69 261.782 15.6823 261.956C15.6741 262.129 15.6298 262.3 15.5508 262.458C15.4723 262.615 15.361 262.757 15.2237 262.874C15.0864 262.991 14.9256 263.082 14.7502 263.141Z" stroke="#2D2D2E" stroke-width="0.78" stroke-miterlimit="10"/>
<path d="M23.4163 232.876C23.4129 233.041 23.3758 233.205 23.3079 233.357L18.3272 244.701C18.1842 245.024 17.9091 245.282 17.5628 245.417C17.216 245.551 16.8263 245.552 16.4795 245.418C16.1327 245.285 15.8566 245.028 15.7121 244.704C15.5681 244.381 15.5671 244.017 15.7102 243.693L20.6861 232.355C20.8108 232.074 21.0358 231.841 21.3224 231.696C21.609 231.552 21.9404 231.504 22.2607 231.56C22.5815 231.617 22.871 231.774 23.0815 232.007C23.292 232.239 23.41 232.533 23.4163 232.837V232.876Z" stroke="#2D2D2E" stroke-width="0.78" stroke-miterlimit="10"/>
<path d="M2.84284 260.38C2.86886 260.553 2.85874 260.728 2.81202 260.896C2.76529 261.065 2.68341 261.223 2.57117 261.361C2.45894 261.5 2.31877 261.617 2.15788 261.705C1.99748 261.793 1.81974 261.85 1.63526 261.874C1.56638 261.879 1.49749 261.879 1.42861 261.874C1.08902 261.872 0.761473 261.755 0.505697 261.547C0.250402 261.338 0.0832537 261.051 0.0350849 260.737L-1.80786 248.603C-1.86036 248.257 -1.76306 247.905 -1.53763 247.624C-1.3122 247.344 -0.976458 247.159 -0.605077 247.11C-0.233213 247.061 0.143946 247.151 0.444038 247.362C0.74413 247.573 0.942102 247.886 0.995088 248.233L2.84284 260.38Z" stroke="#2D2D2E" stroke-width="0.78" stroke-miterlimit="10"/>
<path d="M7.7151 238.951C8.04554 239.037 8.33118 239.231 8.51904 239.499C8.70738 239.766 8.78493 240.089 8.73724 240.406C8.69003 240.723 8.52096 241.013 8.26181 241.222C8.00267 241.431 7.67079 241.545 7.32831 241.543C7.19536 241.542 7.06338 241.525 6.93573 241.49L-5.68403 238.118C-6.04433 238.021 -6.34924 237.795 -6.53132 237.489C-6.7134 237.182 -6.75771 236.821 -6.65414 236.484C-6.55058 236.147 -6.3083 235.862 -5.98027 235.693C-5.65224 235.523 -5.26496 235.481 -4.90466 235.578L7.7151 238.951Z" stroke="#2D2D2E" stroke-width="0.78" stroke-miterlimit="10"/>
<path d="M10.1669 96.5364C18.793 76.6918 31.5346 58.6341 47.6596 43.4014C47.8855 43.1873 48.1933 43.0658 48.5151 43.0635C48.8369 43.0612 49.1466 43.1784 49.3759 43.3893C49.6052 43.6002 49.7352 43.8874 49.7376 44.1879C49.74 44.4884 49.6143 44.7775 49.3889 44.9915C33.7388 59.7763 21.3185 77.2616 12.8201 96.4738C12.6187 96.9265 12.4174 97.3846 12.2213 97.8374C3.9146 116.996 -0.344489 137.474 -0.320887 158.142V226.36H-2.73655V159.087C-2.80303 137.738 1.54662 116.577 10.074 96.7676C10.0845 96.6905 10.1207 96.6134 10.1669 96.5364Z" fill="#CDA787"/>
<path d="M47.6442 43.4018C31.5245 58.6359 18.7882 76.6932 10.1669 96.5369C10.1361 96.6139 10.1 96.691 10.0638 96.7681C3.51385 61.3319 28.5983 27.7461 66.5914 21C70.0451 37.8956 66.2952 55.3823 56.1417 69.7348C45.9877 84.0871 30.2321 94.1713 12.2314 97.8379C12.4275 97.3851 12.6288 96.927 12.8302 96.4743C21.3272 77.2626 33.7456 59.7772 49.3937 44.992C49.6196 44.7779 49.7453 44.4888 49.7429 44.1884C49.7405 43.8879 49.61 43.6007 49.3807 43.3898C49.1514 43.1789 48.8417 43.0617 48.5199 43.064C48.1982 43.0662 47.8904 43.1878 47.6644 43.4018H47.6442Z" fill="#18988B"/>
<path d="M18.006 142.054C24.4014 129.554 33.5886 118.341 45.3052 108.709C45.39 108.641 45.4599 108.559 45.5104 108.466C45.561 108.373 45.5909 108.271 45.5991 108.168C45.6072 108.064 45.5933 107.959 45.5576 107.861C45.522 107.762 45.4661 107.671 45.3924 107.592C45.3187 107.514 45.2291 107.45 45.1289 107.404C45.0287 107.359 44.9199 107.332 44.8081 107.326C44.6969 107.321 44.5851 107.335 44.4801 107.37C44.3746 107.404 44.2778 107.458 44.1954 107.528C32.2206 117.33 22.8475 128.73 16.3235 141.485C16.0191 142.083 15.7199 142.68 15.4309 143.278C14.2845 131.986 17.9824 120.73 25.7135 111.98C33.4451 103.231 44.5779 97.7013 56.6707 96.6045C57.8282 107.595 54.3937 118.579 47.0846 127.262C39.7755 135.945 29.1561 141.657 17.4439 143.205C17.6192 142.82 17.81 142.435 18.006 142.054Z" fill="#18988B"/>
<path d="M45.3057 108.708C33.5891 118.346 24.4018 129.554 18.0069 142.053C17.8104 142.434 17.6196 142.82 17.4289 143.205C11.3418 155.378 8.18095 168.647 8.16891 182.082V226.36H6.34717V182.082C6.35391 168.688 9.45214 155.453 15.4313 143.277C15.7203 142.68 16.0195 142.082 16.3239 141.485C22.8484 128.749 32.2211 117.329 44.1958 107.528C44.2787 107.458 44.3755 107.404 44.4805 107.369C44.5855 107.335 44.6973 107.32 44.8085 107.326C44.9203 107.332 45.0292 107.359 45.1294 107.404C45.2295 107.45 45.3191 107.514 45.3928 107.592C45.4665 107.67 45.5229 107.761 45.5581 107.86C45.5937 107.959 45.6077 108.063 45.5995 108.167C45.5913 108.271 45.5614 108.373 45.5109 108.466C45.4603 108.559 45.3904 108.641 45.3057 108.708Z" fill="#CDA787"/>
<path d="M10.0482 96.7681C3.5136 61.3319 28.598 27.7461 66.5912 21C70.0449 37.8956 66.2949 55.3823 56.1414 69.7348C45.9874 84.0871 30.2319 94.1713 12.2312 97.8379" stroke="#2D2D2E" stroke-width="0.78" stroke-miterlimit="10"/>
<path d="M12.2314 97.8374C3.9252 116.996 -0.333894 137.474 -0.310773 158.142V226.36H-2.73655V159.087C-2.80303 137.738 1.54662 116.577 10.074 96.7676C10.1101 96.6905 10.1462 96.6134 10.1775 96.5364C18.8031 76.6918 31.5447 58.6341 47.6697 43.4014C47.782 43.2953 47.9149 43.211 48.0618 43.153C48.2083 43.095 48.3658 43.0646 48.5252 43.0635C48.6846 43.0624 48.8426 43.0906 48.9905 43.1465C49.1379 43.2024 49.2728 43.2849 49.386 43.3893C49.4997 43.4937 49.5902 43.618 49.6519 43.755C49.714 43.892 49.7468 44.0391 49.7477 44.1879C49.7492 44.3367 49.7188 44.4842 49.6591 44.6221C49.5994 44.76 49.5107 44.8855 49.399 44.9915C33.7494 59.7763 21.3291 77.2616 12.8302 96.4738C12.6033 96.9265 12.402 97.3846 12.2314 97.8374Z" stroke="#2D2D2E" stroke-width="0.78" stroke-miterlimit="10"/>
<path d="M15.4309 143.278C14.2845 131.986 17.9824 120.73 25.7135 111.98C33.4451 103.231 44.5779 97.7013 56.6707 96.6045C57.8282 107.595 54.3937 118.579 47.0846 127.262C39.7755 135.945 29.1561 141.657 17.4439 143.205" stroke="#2D2D2E" stroke-width="0.78" stroke-miterlimit="10"/>
<path d="M17.4236 143.205C11.3365 155.378 8.17614 168.647 8.1641 182.082V226.36H6.34717V182.082C6.35391 168.688 9.45214 155.453 15.4313 143.277C15.7203 142.68 16.0195 142.082 16.3239 141.485C22.8484 128.749 32.2211 117.329 44.1958 107.528C44.2787 107.458 44.3755 107.404 44.4805 107.369C44.5855 107.335 44.6973 107.32 44.8085 107.326C44.9203 107.332 45.0292 107.359 45.1294 107.404C45.2296 107.45 45.3191 107.514 45.3928 107.592C45.4665 107.67 45.5229 107.761 45.5581 107.86C45.5937 107.959 45.6077 108.063 45.5995 108.167C45.5913 108.271 45.5614 108.373 45.5109 108.466C45.4603 108.559 45.3904 108.641 45.3057 108.708C33.5891 118.346 24.4018 129.554 18.0069 142.053C17.8104 142.434 17.6196 142.82 17.4289 143.205" stroke="#2D2D2E" stroke-width="0.78" stroke-miterlimit="10"/>
</g>
</svg>
