<svg width="32" height="32" viewBox="0 0 32 32" fill="none" xmlns="http://www.w3.org/2000/svg">
<path d="M30 22.5002V1.50024C30 0.687744 29.3125 0.000244141 28.5 0.000244141H8C4.6875 0.000244141 2 2.68774 2 6.00024V26.0002C2 29.3127 4.6875 32.0002 8 32.0002H28.5C29.3125 32.0002 30 31.3752 30 30.5002V29.5002C30 29.0627 29.75 28.6252 29.4375 28.3752C29.125 27.3752 29.125 24.6252 29.4375 23.6877C29.75 23.4377 30 23.0002 30 22.5002ZM10 8.37524C10 8.18774 10.125 8.00024 10.375 8.00024H23.625C23.8125 8.00024 24 8.18774 24 8.37524V9.62524C24 9.87524 23.8125 10.0002 23.625 10.0002H10.375C10.125 10.0002 10 9.87524 10 9.62524V8.37524ZM10 12.3752C10 12.1877 10.125 12.0002 10.375 12.0002H23.625C23.8125 12.0002 24 12.1877 24 12.3752V13.6252C24 13.8752 23.8125 14.0002 23.625 14.0002H10.375C10.125 14.0002 10 13.8752 10 13.6252V12.3752ZM25.8125 28.0002H8C6.875 28.0002 6 27.1252 6 26.0002C6 24.9377 6.875 24.0002 8 24.0002H25.8125C25.6875 25.1252 25.6875 26.9377 25.8125 28.0002Z" fill="#8B4986"/>
</svg>
