<svg width="115" height="115" viewBox="0 0 86 86" fill="none" xmlns="http://www.w3.org/2000/svg">
<path d="M42.8557 4.85632L48.3633 1L52.6878 6.15518L59.0059 3.84945L61.8503 9.94606L68.551 9.36207L69.719 15.9873L76.3442 17.1502L75.7552 23.856L81.8569 26.6954L79.5511 33.0185L84.7063 37.343L80.8449 42.8506L84.7063 48.3633L79.5511 52.6827L81.8569 59.0059L75.7552 61.8503L76.3442 68.551L69.719 69.719L68.551 76.3442L61.8503 75.7552L59.0059 81.8518L52.6878 79.5511L48.3633 84.7063L42.8557 80.8449L37.3431 84.7063L33.0185 79.5511L26.7004 81.8518L23.856 75.7552L17.1553 76.3442L15.9873 69.719L9.36207 68.551L9.95109 61.8503L3.85447 59.0059L6.15518 52.6827L1 48.3633L4.86135 42.8506L1 37.343L6.15518 33.0185L3.85447 26.6954L9.95109 23.856L9.36207 17.1502L15.9873 15.9873L17.1553 9.36207L23.856 9.94606L26.7004 3.84945L33.0185 6.15518L37.3431 1L42.8557 4.85632Z" fill="#525EA2" stroke="#444545" stroke-width="0.7" stroke-miterlimit="10"/>
<path d="M34.8611 23.0607H31.2665C30.4829 23.06 29.7069 23.2139 28.9828 23.5134C28.2587 23.813 27.6008 24.2524 27.0467 24.8065C26.4926 25.3606 26.0532 26.0185 25.7536 26.7426C25.454 27.4667 25.3002 28.2428 25.3008 29.0264V29.0264C25.3008 29.8098 25.4551 30.5856 25.7549 31.3094C26.0547 32.0332 26.4942 32.6908 27.0481 33.2448C27.6021 33.7988 28.2598 34.2382 28.9836 34.538C29.7074 34.8378 30.4831 34.9921 31.2665 34.9921H41.6474" stroke="#2C3850" stroke-width="0.7" stroke-miterlimit="10"/>
<path d="M35.6162 58.004L40.0968 52.5216V48.1971C40.0968 41.2446 37.8414 34.5741 33.819 29.6556L29.9073 24.8679C28.6695 23.29 28.0102 21.3353 28.0395 19.3301H56.2772C56.309 21.3357 55.6495 23.2912 54.4095 24.8679L50.4978 29.6707C46.4703 34.5892 44.2199 41.2497 44.2199 48.2122V52.5367L48.7005 58.0191L35.6162 58.004Z" fill="#F7BD54" stroke="#2C3850" stroke-width="0.7" stroke-miterlimit="10"/>
<path d="M51.6457 23.0607H55.2402C56.024 23.06 56.8003 23.2138 57.5247 23.5133C58.2491 23.8128 58.9073 24.2522 59.4618 24.8062C60.0163 25.3602 60.4562 26.0181 60.7563 26.7422C61.0565 27.4664 61.2109 28.2425 61.2109 29.0264V29.0264C61.2096 30.6091 60.58 32.1265 59.4604 33.2451C58.3408 34.3637 56.8229 34.9921 55.2402 34.9921H44.8593" stroke="#2C3850" stroke-width="0.7" stroke-miterlimit="10"/>
<path d="M46.1934 58.004H31.6995V66.5373H46.1934V58.004Z" fill="#A46F56" stroke="#2C3850" stroke-width="0.7" stroke-miterlimit="10"/>
<path d="M53.4429 58.004H46.1935V66.5373H53.4429V58.004Z" fill="#A46F56" stroke="#2C3850" stroke-width="0.7" stroke-miterlimit="10"/>
</svg>
