<svg width="36" height="32" viewBox="0 0 36 32" fill="none" xmlns="http://www.w3.org/2000/svg">
<path d="M0 27C0 28.6875 1.3125 30 3 30H33C34.625 30 36 28.6875 36 27V16H0V27ZM12 22.75C12 22.375 12.3125 22 12.75 22H21.25C21.625 22 22 22.375 22 22.75V25.25C22 25.6875 21.625 26 21.25 26H12.75C12.3125 26 12 25.6875 12 25.25V22.75ZM4 22.75C4 22.375 4.3125 22 4.75 22H9.25C9.625 22 10 22.375 10 22.75V25.25C10 25.6875 9.625 26 9.25 26H4.75C4.3125 26 4 25.6875 4 25.25V22.75ZM36 5C36 3.375 34.625 2 33 2H3C1.3125 2 0 3.375 0 5V8H36V5Z" fill="#8B4986"/>
</svg>
