<svg width="115" height="115" viewBox="0 0 105 83" fill="none" xmlns="http://www.w3.org/2000/svg">
<path d="M1.61682 23.5501C4.6672 15.9489 30.1355 19.3773 58.5005 31.2073C86.8655 43.0374 107.386 58.7912 104.336 66.3896" stroke="#238D7E" stroke-width="0.7" stroke-miterlimit="10" stroke-linecap="round" stroke-dasharray="2.8 2.24"/>
<path d="M52.8183 82.4286C75.3042 82.4286 93.5326 64.2002 93.5326 41.7143C93.5326 19.2284 75.3042 1 52.8183 1C30.3324 1 12.104 19.2284 12.104 41.7143C12.104 64.2002 30.3324 82.4286 52.8183 82.4286Z" fill="#E5DBE5" stroke="#2C3850" stroke-width="0.7" stroke-miterlimit="10" stroke-linecap="round"/>
<path d="M54.8553 42.5066C54.8553 42.5066 48.337 47.1239 39.7753 45.3693" stroke="#2C3850" stroke-width="0.7" stroke-miterlimit="10"/>
<path d="M31.6239 52.6958C31.6239 52.6958 33.1631 55.0835 39.3677 55.5488" stroke="#2C3850" stroke-width="0.7" stroke-miterlimit="10"/>
<path d="M75.2338 16.4221H29.9937V67.3683H75.2338V16.4221Z" fill="white"/>
<path d="M75.2338 16.4221H29.9937V67.3683H75.2338V16.4221Z" stroke="#2C3850" stroke-width="0.7" stroke-miterlimit="10"/>
<path d="M35.292 45.3595C36.0866 45.3595 36.0866 45.7671 36.8812 45.7671C37.6758 45.7671 37.6758 45.3595 38.4703 45.3595C39.2649 45.3595 39.2649 45.7671 40.0595 45.7671C40.8541 45.7671 40.8541 45.3595 41.6487 45.3595C42.4433 45.3595 42.4433 45.7671 43.2413 45.7671C44.0393 45.7671 44.0324 45.3595 44.827 45.3595C45.6216 45.3595 45.6251 45.7671 46.4197 45.7671C47.2142 45.7671 47.2142 45.3595 48.0088 45.3595C48.8034 45.3595 48.8034 45.7671 49.598 45.7671C50.3926 45.7671 50.3926 45.3595 51.1872 45.3595" stroke="#2C3850" stroke-width="0.7" stroke-miterlimit="10" stroke-linecap="round"/>
<path d="M35.292 48.2125C36.0866 48.2125 36.0866 48.6201 36.8812 48.6201C37.6758 48.6201 37.6758 48.2125 38.4703 48.2125C39.2649 48.2125 39.2649 48.6201 40.0595 48.6201C40.8541 48.6201 40.8541 48.2125 41.6487 48.2125C42.4433 48.2125 42.4433 48.6201 43.2413 48.6201C44.0393 48.6201 44.0324 48.2125 44.827 48.2125C45.6216 48.2125 45.6251 48.6201 46.4197 48.6201C47.2142 48.6201 47.2142 48.2125 48.0088 48.2125C48.8034 48.2125 48.8034 48.6201 49.598 48.6201C50.3926 48.6201 50.3926 48.2125 51.1872 48.2125" stroke="#2C3850" stroke-width="0.7" stroke-miterlimit="10" stroke-linecap="round"/>
<path d="M35.292 50.658C36.0866 50.658 36.0866 51.0655 36.8812 51.0655C37.6758 51.0655 37.6758 50.658 38.4703 50.658C39.2649 50.658 39.2649 51.0655 40.0595 51.0655C40.8541 51.0655 40.8541 50.658 41.6487 50.658C42.4433 50.658 42.4433 51.0655 43.2413 51.0655C44.0393 51.0655 44.0324 50.658 44.827 50.658C45.6216 50.658 45.6251 51.0655 46.4197 51.0655C47.2142 51.0655 47.2142 50.658 48.0088 50.658C48.8034 50.658 48.8034 51.0655 49.598 51.0655C50.3926 51.0655 50.3926 50.658 51.1872 50.658" stroke="#2C3850" stroke-width="0.7" stroke-miterlimit="10" stroke-linecap="round"/>
<path d="M35.292 53.5109C36.0866 53.5109 36.0866 53.9184 36.8812 53.9184C37.6758 53.9184 37.6758 53.5109 38.4703 53.5109C39.2649 53.5109 39.2649 53.9184 40.0595 53.9184C40.8541 53.9184 40.8541 53.5109 41.6487 53.5109C42.4433 53.5109 42.4433 53.9184 43.2413 53.9184C44.0393 53.9184 44.0324 53.5109 44.827 53.5109C45.6216 53.5109 45.6251 53.9184 46.4197 53.9184C47.2142 53.9184 47.2142 53.5109 48.0088 53.5109C48.8034 53.5109 48.8034 53.9184 49.598 53.9184C50.3926 53.9184 50.3926 53.5109 51.1872 53.5109" stroke="#2C3850" stroke-width="0.7" stroke-miterlimit="10" stroke-linecap="round"/>
<path d="M35.292 55.9564C36.0866 55.9564 36.0866 56.364 36.8812 56.364C37.6758 56.364 37.6758 55.9564 38.4703 55.9564C39.2649 55.9564 39.2649 56.364 40.0595 56.364C40.8541 56.364 40.8541 55.9564 41.6487 55.9564C42.4433 55.9564 42.4433 56.364 43.2413 56.364C44.0393 56.364 44.0324 55.9564 44.827 55.9564C45.6216 55.9564 45.6251 56.364 46.4197 56.364C47.2142 56.364 47.2142 55.9564 48.0088 55.9564C48.8034 55.9564 48.8034 56.364 49.598 56.364C50.3926 56.364 50.3926 55.9564 51.1872 55.9564" stroke="#2C3850" stroke-width="0.7" stroke-miterlimit="10" stroke-linecap="round"/>
<path d="M35.292 58.8094C36.0866 58.8094 36.0866 59.217 36.8812 59.217C37.6758 59.217 37.6758 58.8094 38.4703 58.8094C39.2649 58.8094 39.2649 59.217 40.0595 59.217C40.8541 59.217 40.8541 58.8094 41.6487 58.8094C42.4433 58.8094 42.4433 59.217 43.2413 59.217C44.0393 59.217 44.0324 58.8094 44.827 58.8094C45.6216 58.8094 45.6251 59.217 46.4197 59.217C47.2142 59.217 47.2142 58.8094 48.0088 58.8094C48.8034 58.8094 48.8034 59.217 49.598 59.217C50.3926 59.217 50.3926 58.8094 51.1872 58.8094" stroke="#2C3850" stroke-width="0.7" stroke-miterlimit="10" stroke-linecap="round"/>
<path d="M54.4476 42.9142C55.2422 42.9142 55.2422 43.3218 56.0368 43.3218C56.8314 43.3218 56.8314 42.9142 57.626 42.9142C58.4206 42.9142 58.4206 43.3218 59.2152 43.3218C60.0097 43.3218 60.0097 42.9142 60.8043 42.9142C61.5989 42.9142 61.5989 43.3218 62.3935 43.3218C63.1881 43.3218 63.1881 42.9142 63.9827 42.9142C64.7773 42.9142 64.7773 43.3218 65.5719 43.3218C66.3665 43.3218 66.3665 42.9142 67.161 42.9142C67.9556 42.9142 67.9556 43.3218 68.7502 43.3218C69.5448 43.3218 69.5482 42.9142 70.3428 42.9142" stroke="#2C3850" stroke-width="0.7" stroke-miterlimit="10" stroke-linecap="round"/>
<path d="M54.4476 45.3595C55.2422 45.3595 55.2422 45.7671 56.0368 45.7671C56.8314 45.7671 56.8314 45.3595 57.626 45.3595C58.4206 45.3595 58.4206 45.7671 59.2152 45.7671C60.0097 45.7671 60.0097 45.3595 60.8043 45.3595C61.5989 45.3595 61.5989 45.7671 62.3935 45.7671C63.1881 45.7671 63.1881 45.3595 63.9827 45.3595C64.7773 45.3595 64.7773 45.7671 65.5719 45.7671C66.3665 45.7671 66.3665 45.3595 67.161 45.3595C67.9556 45.3595 67.9556 45.7671 68.7502 45.7671C69.5448 45.7671 69.5482 45.3595 70.3428 45.3595" stroke="#2C3850" stroke-width="0.7" stroke-miterlimit="10" stroke-linecap="round"/>
<path d="M54.4476 48.2125C55.2422 48.2125 55.2422 48.6201 56.0368 48.6201C56.8314 48.6201 56.8314 48.2125 57.626 48.2125C58.4206 48.2125 58.4206 48.6201 59.2152 48.6201C60.0097 48.6201 60.0097 48.2125 60.8043 48.2125C61.5989 48.2125 61.5989 48.6201 62.3935 48.6201C63.1881 48.6201 63.1881 48.2125 63.9827 48.2125C64.7773 48.2125 64.7773 48.6201 65.5719 48.6201C66.3665 48.6201 66.3665 48.2125 67.161 48.2125C67.9556 48.2125 67.9556 48.6201 68.7502 48.6201C69.5448 48.6201 69.5482 48.2125 70.3428 48.2125" stroke="#2C3850" stroke-width="0.7" stroke-miterlimit="10" stroke-linecap="round"/>
<path d="M54.4476 50.658C55.2422 50.658 55.2422 51.0655 56.0368 51.0655C56.8314 51.0655 56.8314 50.658 57.626 50.658C58.4206 50.658 58.4206 51.0655 59.2152 51.0655C60.0097 51.0655 60.0097 50.658 60.8043 50.658C61.5989 50.658 61.5989 51.0655 62.3935 51.0655C63.1881 51.0655 63.1881 50.658 63.9827 50.658C64.7773 50.658 64.7773 51.0655 65.5719 51.0655C66.3665 51.0655 66.3665 50.658 67.161 50.658C67.9556 50.658 67.9556 51.0655 68.7502 51.0655C69.5448 51.0655 69.5482 50.658 70.3428 50.658" stroke="#2C3850" stroke-width="0.7" stroke-miterlimit="10" stroke-linecap="round"/>
<path d="M54.4476 53.5109C55.2422 53.5109 55.2422 53.9184 56.0368 53.9184C56.8314 53.9184 56.8314 53.5109 57.626 53.5109C58.4206 53.5109 58.4206 53.9184 59.2152 53.9184C60.0097 53.9184 60.0097 53.5109 60.8043 53.5109C61.5989 53.5109 61.5989 53.9184 62.3935 53.9184C63.1881 53.9184 63.1881 53.5109 63.9827 53.5109C64.7773 53.5109 64.7773 53.9184 65.5719 53.9184C66.3665 53.9184 66.3665 53.5109 67.161 53.5109C67.9556 53.5109 67.9556 53.9184 68.7502 53.9184C69.5448 53.9184 69.5482 53.5109 70.3428 53.5109" stroke="#2C3850" stroke-width="0.7" stroke-miterlimit="10" stroke-linecap="round"/>
<path d="M54.4476 55.9564C55.2422 55.9564 55.2422 56.364 56.0368 56.364C56.8314 56.364 56.8314 55.9564 57.626 55.9564C58.4206 55.9564 58.4206 56.364 59.2152 56.364C60.0097 56.364 60.0097 55.9564 60.8043 55.9564C61.5989 55.9564 61.5989 56.364 62.3935 56.364C63.1881 56.364 63.1881 55.9564 63.9827 55.9564C64.7773 55.9564 64.7773 56.364 65.5719 56.364C66.3665 56.364 66.3665 55.9564 67.161 55.9564C67.9556 55.9564 67.9556 56.364 68.7502 56.364C69.5448 56.364 69.5482 55.9564 70.3428 55.9564" stroke="#2C3850" stroke-width="0.7" stroke-miterlimit="10" stroke-linecap="round"/>
<path d="M54.4476 58.8094C55.2422 58.8094 55.2422 59.217 56.0368 59.217C56.8314 59.217 56.8314 58.8094 57.626 58.8094C58.4206 58.8094 58.4206 59.217 59.2152 59.217C60.0097 59.217 60.0097 58.8094 60.8043 58.8094C61.5989 58.8094 61.5989 59.217 62.3935 59.217C63.1881 59.217 63.1881 58.8094 63.9827 58.8094C64.7773 58.8094 64.7773 59.217 65.5719 59.217C66.3665 59.217 66.3665 58.8094 67.161 58.8094C67.9556 58.8094 67.9556 59.217 68.7502 59.217C69.5448 59.217 69.5482 58.8094 70.3428 58.8094" stroke="#2C3850" stroke-width="0.7" stroke-miterlimit="10" stroke-linecap="round"/>
<path d="M54.4476 24.166C55.2422 24.166 55.2422 24.5736 56.0368 24.5736C56.8314 24.5736 56.8314 24.166 57.626 24.166C58.4206 24.166 58.4206 24.5736 59.2152 24.5736C60.0097 24.5736 60.0097 24.166 60.8043 24.166C61.5989 24.166 61.5989 24.5736 62.3935 24.5736C63.1881 24.5736 63.1881 24.166 63.9827 24.166C64.7773 24.166 64.7773 24.5736 65.5719 24.5736C66.3665 24.5736 66.3665 24.166 67.161 24.166C67.9556 24.166 67.9556 24.5736 68.7502 24.5736C69.5448 24.5736 69.5482 24.166 70.3428 24.166" stroke="#2C3850" stroke-width="0.7" stroke-miterlimit="10" stroke-linecap="round"/>
<path d="M54.4476 27.0189C55.2422 27.0189 55.2422 27.4265 56.0368 27.4265C56.8314 27.4265 56.8314 27.0189 57.626 27.0189C58.4206 27.0189 58.4206 27.4265 59.2152 27.4265C60.0097 27.4265 60.0097 27.0189 60.8043 27.0189C61.5989 27.0189 61.5989 27.4265 62.3935 27.4265C63.1881 27.4265 63.1881 27.0189 63.9827 27.0189C64.7773 27.0189 64.7773 27.4265 65.5719 27.4265C66.3665 27.4265 66.3665 27.0189 67.161 27.0189C67.9556 27.0189 67.9556 27.4265 68.7502 27.4265C69.5448 27.4265 69.5482 27.0189 70.3428 27.0189" stroke="#2C3850" stroke-width="0.7" stroke-miterlimit="10" stroke-linecap="round"/>
<path d="M54.4476 29.4644C55.2422 29.4644 55.2422 29.8719 56.0368 29.8719C56.8314 29.8719 56.8314 29.4644 57.626 29.4644C58.4206 29.4644 58.4206 29.8719 59.2152 29.8719C60.0097 29.8719 60.0097 29.4644 60.8043 29.4644C61.5989 29.4644 61.5989 29.8719 62.3935 29.8719C63.1881 29.8719 63.1881 29.4644 63.9827 29.4644C64.7773 29.4644 64.7773 29.8719 65.5719 29.8719C66.3665 29.8719 66.3665 29.4644 67.161 29.4644C67.9556 29.4644 67.9556 29.8719 68.7502 29.8719C69.5448 29.8719 69.5482 29.4644 70.3428 29.4644" stroke="#2C3850" stroke-width="0.7" stroke-miterlimit="10" stroke-linecap="round"/>
<path d="M54.4476 32.3175C55.2422 32.3175 55.2422 32.7251 56.0368 32.7251C56.8314 32.7251 56.8314 32.3175 57.626 32.3175C58.4206 32.3175 58.4206 32.7251 59.2152 32.7251C60.0097 32.7251 60.0097 32.3175 60.8043 32.3175C61.5989 32.3175 61.5989 32.7251 62.3935 32.7251C63.1881 32.7251 63.1881 32.3175 63.9827 32.3175C64.7773 32.3175 64.7773 32.7251 65.5719 32.7251C66.3665 32.7251 66.3665 32.3175 67.161 32.3175C67.9556 32.3175 67.9556 32.7251 68.7502 32.7251C69.5448 32.7251 69.5482 32.3175 70.3428 32.3175" stroke="#2C3850" stroke-width="0.7" stroke-miterlimit="10" stroke-linecap="round"/>
<path d="M54.4476 34.7628C55.2422 34.7628 55.2422 35.1704 56.0368 35.1704C56.8314 35.1704 56.8314 34.7628 57.626 34.7628C58.4206 34.7628 58.4206 35.1704 59.2152 35.1704C60.0097 35.1704 60.0097 34.7628 60.8043 34.7628C61.5989 34.7628 61.5989 35.1704 62.3935 35.1704C63.1881 35.1704 63.1881 34.7628 63.9827 34.7628C64.7773 34.7628 64.7773 35.1704 65.5719 35.1704C66.3665 35.1704 66.3665 34.7628 67.161 34.7628C67.9556 34.7628 67.9556 35.1704 68.7502 35.1704C69.5448 35.1704 69.5482 34.7628 70.3428 34.7628" stroke="#2C3850" stroke-width="0.7" stroke-miterlimit="10" stroke-linecap="round"/>
<path d="M54.4476 37.6157C55.2422 37.6157 55.2422 38.0233 56.0368 38.0233C56.8314 38.0233 56.8314 37.6157 57.626 37.6157C58.4206 37.6157 58.4206 38.0233 59.2152 38.0233C60.0097 38.0233 60.0097 37.6157 60.8043 37.6157C61.5989 37.6157 61.5989 38.0233 62.3935 38.0233C63.1881 38.0233 63.1881 37.6157 63.9827 37.6157C64.7773 37.6157 64.7773 38.0233 65.5719 38.0233C66.3665 38.0233 66.3665 37.6157 67.161 37.6157C67.9556 37.6157 67.9556 38.0233 68.7502 38.0233C69.5448 38.0233 69.5482 37.6157 70.3428 37.6157" stroke="#2C3850" stroke-width="0.7" stroke-miterlimit="10" stroke-linecap="round"/>
<path d="M54.4476 40.0612C55.2422 40.0612 55.2422 40.4687 56.0368 40.4687C56.8314 40.4687 56.8314 40.0612 57.626 40.0612C58.4206 40.0612 58.4206 40.4687 59.2152 40.4687C60.0097 40.4687 60.0097 40.0612 60.8043 40.0612C61.5989 40.0612 61.5989 40.4687 62.3935 40.4687C63.1881 40.4687 63.1881 40.0612 63.9827 40.0612C64.7773 40.0612 64.7773 40.4687 65.5719 40.4687C66.3665 40.4687 66.3665 40.0612 67.161 40.0612C67.9556 40.0612 67.9556 40.4687 68.7502 40.4687C69.5448 40.4687 69.5482 40.0612 70.3428 40.0612" stroke="#2C3850" stroke-width="0.7" stroke-miterlimit="10" stroke-linecap="round"/>
<path d="M49.3831 32.2006C49.3831 27.5799 46.7449 23.7198 43.2157 22.7668V22.5358H41.5372C37.1959 22.5358 33.6617 26.8676 33.6617 32.2006C33.6617 37.5335 37.1811 41.8653 41.5372 41.8653H43.2304V41.6391C46.7449 40.6717 49.3831 36.8067 49.3831 32.2006Z" fill="#F6B248" stroke="#2C3850" stroke-width="0.7" stroke-miterlimit="10"/>
<path d="M43.3265 41.8653C47.6679 41.8653 51.1872 37.5383 51.1872 32.2006C51.1872 26.8628 47.6679 22.5358 43.3265 22.5358C38.9852 22.5358 35.4658 26.8628 35.4658 32.2006C35.4658 37.5383 38.9852 41.8653 43.3265 41.8653Z" fill="#F6B248" stroke="#2C3850" stroke-width="0.7" stroke-miterlimit="10"/>
<path d="M42.6823 25.1129V26.6593" stroke="#2C3850" stroke-width="0.7" stroke-miterlimit="10"/>
<path d="M43.7131 25.1129V26.6593" stroke="#2C3850" stroke-width="0.7" stroke-miterlimit="10"/>
<path d="M42.6823 36.9685V38.7726" stroke="#2C3850" stroke-width="0.7" stroke-miterlimit="10"/>
<path d="M43.7131 36.9685V38.7726" stroke="#2C3850" stroke-width="0.7" stroke-miterlimit="10"/>
<path d="M44.9091 26.6592H42.2968C41.0957 26.6592 40.1199 27.7632 40.1199 29.1158C40.1199 30.4731 41.0957 31.5724 42.2968 31.5724H44.1084C45.3145 31.5724 46.2903 32.6764 46.2903 34.0338V34.5117C46.2903 35.869 45.2894 36.9683 44.1084 36.9683H40.1049" stroke="#2C3850" stroke-width="0.7" stroke-miterlimit="10"/>
<path d="M104.636 65.4847C101.581 72.9834 75.9462 69.6028 47.4108 57.9281C18.8753 46.2534 -1.75502 30.7092 1.29989 23.2078" stroke="#238D7E" stroke-width="0.7" stroke-miterlimit="10" stroke-linecap="round" stroke-dasharray="2.8 2.24"/>
</svg>
