<svg width="37" height="32" viewBox="0 0 37 32" fill="none" xmlns="http://www.w3.org/2000/svg">
<path d="M18.5 9.3125L7 18.8125V29C7 29.5625 7.4375 30 8 30H15C15.5 30 15.9375 29.5625 15.9375 29V23C15.9375 22.5 16.4375 22 16.9375 22H20.9375C21.5 22 21.9375 22.5 21.9375 23V29C21.9375 29.5625 22.4375 30 22.9375 30H30C30.5 30 31 29.5625 31 29V18.75L19.4375 9.3125C19.3125 9.1875 19.125 9.125 19 9.125C18.8125 9.125 18.625 9.1875 18.5 9.3125ZM36.6875 15.75L31.5 11.4375V2.8125C31.5 2.375 31.125 2.0625 30.75 2.0625H27.25C26.8125 2.0625 26.5 2.375 26.5 2.8125V7.3125L20.875 2.6875C20.375 2.3125 19.6875 2.0625 19 2.0625C18.25 2.0625 17.5625 2.3125 17.0625 2.6875L1.25 15.75C1.0625 15.875 0.9375 16.125 0.9375 16.3125C0.9375 16.5 1.0625 16.6875 1.125 16.8125L2.75 18.75C2.875 18.9375 3.0625 19 3.3125 19C3.5 19 3.6875 18.9375 3.8125 18.8125L18.5 6.75C18.625 6.625 18.8125 6.5625 19 6.5625C19.125 6.5625 19.3125 6.625 19.4375 6.75L34.125 18.8125C34.25 18.9375 34.4375 19 34.625 19C34.875 19 35.0625 18.9375 35.1875 18.75L36.8125 16.8125C36.9375 16.6875 37 16.5 37 16.3125C37 16.125 36.875 15.875 36.6875 15.75Z" fill="#8B4986"/>
</svg>
