<svg width="115" height="115" viewBox="0 0 102 91" fill="none" xmlns="http://www.w3.org/2000/svg">
<path d="M62.6863 45.3896H35.8265V54.4939H62.6863V45.3896Z" fill="#F5B8B9" stroke="#2C3850" stroke-width="0.7" stroke-miterlimit="10"/>
<path d="M69.7963 45.3896H62.6863V54.4939H69.7963V45.3896Z" fill="#F5B8B9" stroke="#2C3850" stroke-width="0.7" stroke-miterlimit="10"/>
<path d="M80.1509 22.038V6.15589C80.1509 3.30837 77.8425 1 74.995 1L59.1129 1C56.2654 1 53.9571 3.30837 53.9571 6.15589V22.038C53.9571 24.8855 56.2654 27.1938 59.1129 27.1938H74.995C77.8425 27.1938 80.1509 24.8855 80.1509 22.038Z" fill="white" stroke="#2C3850" stroke-width="0.7" stroke-miterlimit="10" stroke-linecap="round"/>
<path d="M58.5126 26.6244V31.7493L63.068 26.6244" fill="white"/>
<path d="M58.5126 26.6244V31.7493L63.068 26.6244" stroke="#2C3850" stroke-width="0.7" stroke-miterlimit="10" stroke-linecap="round"/>
<path d="M59.0819 12.646H62.77L66.0167 17.5743L71.843 6.69446H75.026L67.5959 20.9302H64.7612L59.0819 12.646Z" fill="#ED853C" stroke="#2C3850" stroke-width="0.7" stroke-miterlimit="10" stroke-linecap="round"/>
<path d="M86.7198 48.1953C86.8708 44.161 81.8043 43.7783 81.8043 43.7783V47.0998" fill="white"/>
<path d="M86.7198 48.1953C86.8708 44.161 81.8043 43.7783 81.8043 43.7783V47.0998" stroke="#2C3850" stroke-width="0.7" stroke-miterlimit="10"/>
<path d="M25.3213 60.7859L33.7549 90.3774H34.9101L27.9195 60.7859H25.3213Z" fill="#2C3850" stroke="#2C3850" stroke-width="0.7" stroke-miterlimit="10"/>
<path d="M12.9833 90.3774L20.5708 60.7859H18.0603L11.9124 90.3774H12.9833Z" fill="#2C3850" stroke="#2C3850" stroke-width="0.7" stroke-miterlimit="10"/>
<path d="M14.588 57.675H31.9819C32.2447 57.675 32.505 57.7268 32.7478 57.8274C32.9906 57.928 33.2112 58.0754 33.397 58.2612C33.5829 58.4471 33.7303 58.6677 33.8309 58.9105C33.9314 59.1533 33.9832 59.4136 33.9832 59.6764V75.0585C33.9832 75.3213 33.9314 75.5815 33.8309 75.8243C33.7303 76.0671 33.5829 76.2878 33.397 76.4736C33.2112 76.6595 32.9906 76.8069 32.7478 76.9074C32.505 77.008 32.2447 77.0598 31.9819 77.0598H14.588V57.675Z" fill="#F5B8B9" stroke="#2C3850" stroke-width="0.7" stroke-miterlimit="10"/>
<path d="M70.3299 90.3774L77.9174 60.7859H75.4069L69.259 90.3774H70.3299Z" fill="#2C3850" stroke="#2C3850" stroke-width="0.7" stroke-miterlimit="10"/>
<path d="M82.8646 60.7859L91.2982 90.3774H92.4534L85.4628 60.7859H82.8646Z" fill="#2C3850" stroke="#2C3850" stroke-width="0.7" stroke-miterlimit="10"/>
<path d="M71.278 69.4969H15.7817V77.0704H71.278V69.4969Z" fill="#F5B8B9" stroke="#2C3850" stroke-width="0.7" stroke-miterlimit="10"/>
<path d="M82.991 69.4969H35.8617C35.5064 69.4947 35.1556 69.4167 34.8329 69.2681C34.5101 69.1195 34.2228 68.9037 33.9901 68.6351C33.7575 68.3666 33.5848 68.0514 33.4837 67.7108C33.3826 67.3702 33.3554 67.0119 33.4039 66.6599L36.0302 47.7878C36.1136 47.1939 36.4077 46.6497 36.8589 46.2546C37.31 45.8595 37.8883 45.6398 38.488 45.6355H85.6173C85.973 45.6376 86.3241 45.7157 86.6471 45.8645C86.9701 46.0133 87.2576 46.2294 87.4903 46.4984C87.723 46.7673 87.8956 47.0829 87.9965 47.424C88.0973 47.765 88.1241 48.1237 88.0751 48.476L85.4628 67.334C85.3828 67.9328 85.0881 68.4822 84.6335 68.8801C84.1788 69.2779 83.5952 69.4971 82.991 69.4969Z" fill="#F5B8B9" stroke="#2C3850" stroke-width="0.7" stroke-miterlimit="10"/>
<path d="M80.7439 69.497H32.1434C31.8899 69.4996 31.6389 69.4473 31.4076 69.3437C31.1763 69.2402 30.9701 69.0877 30.8033 68.8969C30.6365 68.7061 30.513 68.4814 30.4413 68.2383C30.3695 67.9952 30.3513 67.7394 30.3878 67.4886L33.2178 47.1594C33.2742 46.735 33.4839 46.3459 33.8072 46.0653C34.1305 45.7847 34.5452 45.6319 34.9733 45.6356H83.5738C83.8276 45.6329 84.079 45.6852 84.3106 45.789C84.5422 45.8928 84.7485 46.0456 84.9154 46.2368C85.0822 46.428 85.2057 46.6532 85.2771 46.8967C85.3486 47.1402 85.3664 47.3964 85.3293 47.6474L82.4994 67.9767C82.4421 68.4004 82.2322 68.7886 81.9089 69.0686C81.5857 69.3485 81.1714 69.5008 80.7439 69.497Z" fill="#F5B8B9" stroke="#2C3850" stroke-width="0.7" stroke-miterlimit="10"/>
<path d="M46.2685 67.3727H54.516C55.1868 67.371 55.8349 67.1294 56.343 66.6915C56.8511 66.2536 57.1857 65.6483 57.2863 64.9851L59.6422 49.1361C59.7879 48.1543 60.2814 47.2576 61.0328 46.6092C61.7843 45.9609 62.7437 45.6041 63.7362 45.6039H68.7219V44.2592H50.2887" fill="#2C3850"/>
<path d="M46.2685 67.3727H54.516C55.1868 67.371 55.8349 67.1294 56.343 66.6915C56.8511 66.2536 57.1857 65.6483 57.2863 64.9851L59.6422 49.1361C59.7879 48.1543 60.2814 47.2576 61.0328 46.6092C61.7843 45.9609 62.7437 45.6041 63.7362 45.6039H68.7219V44.2592H50.2887" stroke="#2C3850" stroke-width="0.7" stroke-miterlimit="10"/>
<path d="M73.058 57.675H90.452C90.9828 57.675 91.4918 57.8859 91.8671 58.2612C92.2425 58.6365 92.4533 59.1456 92.4533 59.6764V75.0585C92.4533 75.5892 92.2425 76.0983 91.8671 76.4736C91.4918 76.8489 90.9828 77.0598 90.452 77.0598H73.058V57.675Z" fill="#F5B8B9" stroke="#2C3850" stroke-width="0.7" stroke-miterlimit="10"/>
<path d="M69.5434 67.3728H17.3757V69.497H69.5434V67.3728Z" fill="#F5B8B9" stroke="#2C3850" stroke-width="0.7" stroke-miterlimit="10"/>
<path d="M71.3482 77.0703H75.0278C76.0245 77.0703 76.8325 76.2623 76.8325 75.2656V59.4798C76.8325 58.483 76.0245 57.675 75.0278 57.675H71.3482C70.3515 57.675 69.5435 58.483 69.5435 59.4798V75.2656C69.5435 76.2623 70.3515 77.0703 71.3482 77.0703Z" fill="#F5B8B9" stroke="#2C3850" stroke-width="0.7" stroke-miterlimit="10"/>
<path d="M11.8914 77.0703H15.571C16.5677 77.0703 17.3757 76.2623 17.3757 75.2656L17.3757 59.4798C17.3757 58.483 16.5677 57.675 15.571 57.675H11.8914C10.8946 57.675 10.0866 58.483 10.0866 59.4798L10.0866 75.2656C10.0866 76.2623 10.8946 77.0703 11.8914 77.0703Z" fill="#F5B8B9" stroke="#2C3850" stroke-width="0.7" stroke-miterlimit="10"/>
<path d="M21.6697 66.1824L11.9124 76.8982L15.4305 79.9423L25.2861 70.2236" fill="white"/>
<path d="M21.6697 66.1824L11.9124 76.8982L15.4305 79.9423L25.2861 70.2236" stroke="#2C3850" stroke-width="0.7" stroke-miterlimit="10"/>
<path d="M51.3771 42.0929C38.0911 42.0929 32.5787 52.7877 32.5787 53.518C32.5787 54.2483 42.2097 59.213 45.4644 59.8766L45.496 56.9378L37.3608 52.7245C37.3608 52.7245 42.0481 48.0898 43.9055 47.6229" fill="#2C3850"/>
<path d="M51.3771 42.0929C38.0911 42.0929 32.5787 52.7877 32.5787 53.518C32.5787 54.2483 42.2097 59.213 45.4644 59.8766L45.496 56.9378L37.3608 52.7245C37.3608 52.7245 42.0481 48.0898 43.9055 47.6229" stroke="#2C3850" stroke-width="0.7" stroke-miterlimit="10"/>
<path d="M43.1857 46.6362L40.907 62.4361H55.32C55.32 62.4361 56.9632 51.5517 57.4267 49.1501C57.8901 46.7485 58.9575 45.639 63.3955 45.639H81.7971V43.7817C81.7971 43.7817 63.9257 41.1238 50.6432 41.1238" fill="#238D7E"/>
<path d="M43.1857 46.6362L40.907 62.4361H55.32C55.32 62.4361 56.9632 51.5517 57.4267 49.1501C57.8901 46.7485 58.9575 45.639 63.3955 45.639H81.7971V43.7817C81.7971 43.7817 63.9257 41.1238 50.6432 41.1238" stroke="#2C3850" stroke-width="0.7" stroke-miterlimit="10"/>
<path d="M50.6538 41.1202C37.3678 41.1202 31.8554 51.815 31.8554 52.5453C31.8554 53.2756 41.4898 58.2403 44.7446 58.9074L44.7727 55.9686L36.6375 51.7553C36.6375 51.7553 41.3248 47.1207 43.1857 46.6537" fill="#238D7E"/>
<path d="M50.6538 41.1202C37.3678 41.1202 31.8554 51.815 31.8554 52.5453C31.8554 53.2756 41.4898 58.2403 44.7446 58.9074L44.7727 55.9686L36.6375 51.7553C36.6375 51.7553 41.3248 47.1207 43.1857 46.6537" stroke="#2C3850" stroke-width="0.7" stroke-miterlimit="10"/>
<path d="M55.1691 41.2046C55.1691 41.2046 53.6698 43.8941 50.717 43.8941C47.7642 43.8941 47.5816 41.317 47.5816 41.317C50.103 41.0637 52.6413 41.0261 55.1691 41.2046Z" fill="white" stroke="#2C3850" stroke-width="0.7" stroke-miterlimit="10"/>
<path d="M26.8416 60.9474C25.5517 60.9463 24.3003 61.3872 23.296 62.1966C22.2917 63.0061 21.5951 64.1352 21.3221 65.3959L17.7689 82.4037H23.1479L27.5333 67.3727H49.0597" fill="white"/>
<path d="M26.8416 60.9474C25.5517 60.9463 24.3003 61.3872 23.296 62.1966C22.2917 63.0061 21.5951 64.1352 21.3221 65.3959L17.7689 82.4037H23.1479L27.5333 67.3727H49.0598" stroke="#2C3850" stroke-width="0.7" stroke-miterlimit="10"/>
<path d="M55.3201 62.4431C55.1286 63.8075 54.4502 65.0566 53.41 65.96C52.3698 66.8634 51.0379 67.3602 49.6602 67.3587H48.5261L26.8416 60.9334C27.4205 59.7641 28.3719 58.8207 29.546 58.2517C30.7202 57.6828 32.0502 57.5207 33.3266 57.7909L55.3201 62.4431Z" fill="white" stroke="#2C3850" stroke-width="0.7" stroke-miterlimit="10"/>
<path d="M50.6257 59.8764H47.1146C47.0574 59.876 47.0021 59.8558 46.9579 59.8194C46.9138 59.7829 46.8836 59.7324 46.8723 59.6763L45.5522 52.9736C45.5448 52.9378 45.5456 52.9008 45.5544 52.8653C45.5632 52.8298 45.5798 52.7967 45.603 52.7685C45.6263 52.7402 45.6555 52.7175 45.6886 52.702C45.7217 52.6864 45.7579 52.6785 45.7944 52.6787H49.3055C49.3627 52.6792 49.418 52.6994 49.4621 52.7358C49.5063 52.7722 49.5365 52.8227 49.5478 52.8788L50.8679 59.5815C50.8753 59.6173 50.8745 59.6544 50.8657 59.6898C50.8569 59.7253 50.8403 59.7584 50.8171 59.7867C50.7938 59.8149 50.7646 59.8377 50.7315 59.8532C50.6984 59.8687 50.6622 59.8767 50.6257 59.8764Z" fill="#2C3850" stroke="#2C3850" stroke-width="0.7" stroke-miterlimit="10"/>
<path d="M44.8044 56.0073L45.9947 55.14L46.2124 56.2214C47.1043 56.4154 48.0275 56.4154 48.9194 56.2214C49.8744 56.0073 50.1448 57.8646 48.4489 58.4615C47.2692 58.8758 44.7798 58.4615 44.7798 58.4615L44.8044 56.0073Z" fill="white" stroke="#2C3850" stroke-width="0.7" stroke-miterlimit="10"/>
<path d="M17.0773 85.7112C16.9572 86.0889 16.7467 86.4315 16.464 86.7094C16.1813 86.9872 15.835 87.1917 15.4552 87.3052L10.315 88.6499C9.23735 88.9005 8.27671 89.5096 7.59039 90.3774H20.4094L21.0203 85.6936L17.0773 85.7112Z" fill="#525EA2" stroke="#2C3850" stroke-width="0.7" stroke-miterlimit="10" stroke-linecap="round"/>
<path d="M21.0202 85.6936L22.0244 82.4037H17.7725L17.0773 85.7076L21.0202 85.6936Z" fill="#F6B248" stroke="#2C3850" stroke-width="0.7" stroke-linejoin="round"/>
<path d="M11.9124 76.8984L10.0866 78.8155L12.9411 80.2796L14.5878 79.2122L11.9124 76.8984Z" fill="#F6B248" stroke="#2C3850" stroke-width="0.7" stroke-linejoin="round"/>
<path d="M10.0868 78.8154L9.40913 79.4018C9.02051 79.7348 8.53323 79.931 8.02224 79.96L4.16004 80.1777C3.55454 80.2201 2.96348 80.3822 2.42106 80.6546C1.87864 80.9271 1.39565 81.3044 1.00006 81.7647L10.8487 83.4852L12.9553 80.2971L10.0868 78.8154Z" fill="#525EA2" stroke="#2C3850" stroke-width="0.7" stroke-miterlimit="10" stroke-linecap="round"/>
<path d="M48.9544 42.128L48.7929 41.1309C48.7929 41.1309 47.7747 41.9911 47.3007 41.6927C46.3211 41.0747 45.324 37.3178 45.008 35.0462C44.692 32.7745 52.2724 33.2906 52.2724 33.2906L51.672 39.2805L52.9922 41.5382" fill="white"/>
<path d="M48.9544 42.128L48.7929 41.1309C48.7929 41.1309 47.7747 41.9911 47.3007 41.6927C46.3211 41.0747 45.324 37.3178 45.008 35.0462C44.692 32.7745 52.2724 33.2906 52.2724 33.2906L51.672 39.2805L52.9922 41.5382" stroke="#2C3850" stroke-width="0.7" stroke-miterlimit="10" stroke-linecap="round"/>
<path d="M44.9903 34.9865C46.6265 34.3404 49.7829 35.2428 49.7829 35.2428L50.2008 36.9C50.2278 36.7654 50.2678 36.6337 50.3202 36.5068C50.347 36.4054 50.4026 36.3139 50.4802 36.2433C50.5578 36.1728 50.6542 36.1262 50.7577 36.1091C50.8612 36.0921 50.9674 36.1053 51.0636 36.1472C51.1597 36.1891 51.2418 36.2579 51.2997 36.3453C51.4721 36.6293 51.5441 36.9631 51.5039 37.2929C51.4638 37.6228 51.314 37.9296 51.0785 38.164L51.6719 39.2876C51.8359 38.4131 51.9531 37.5306 52.023 36.6437C52.023 36.6437 52.8938 35.8326 53.1431 32.9641C52.1845 32.7394 50.8644 30.9031 50.8644 30.9031C50.8644 30.9031 48.1257 30.2395 45.7979 31.8054C43.7509 33.1818 43.0592 32.9009 43.0592 32.9009C43.1958 33.3752 43.4417 33.8109 43.777 34.1731C44.1124 34.5352 44.5279 34.8138 44.9903 34.9865Z" fill="#2C3850" stroke="#2C3850" stroke-width="0.7" stroke-linejoin="round"/>
<path d="M48.7929 41.1307C50.1973 39.951 50.0815 38.7327 50.0815 38.7327L48.7929 41.1307Z" fill="white"/>
<path d="M48.7929 41.1307C50.1973 39.951 50.0815 38.7327 50.0815 38.7327" stroke="#2C3850" stroke-width="0.7" stroke-miterlimit="10" stroke-linecap="round"/>
<path d="M89.4373 88.0496H98.8189C99.3553 88.0496 99.8697 88.2626 100.249 88.6419C100.628 89.0212 100.841 89.5356 100.841 90.072V90.395H87.4324V90.072C87.4324 89.5386 87.6431 89.0268 88.0186 88.6481C88.394 88.2693 88.904 88.0542 89.4373 88.0496Z" fill="#F5B8B9" stroke="#2C3850" stroke-width="0.7" stroke-miterlimit="10"/>
</svg>
