<svg width="40" height="32" viewBox="0 0 40 32" fill="none" xmlns="http://www.w3.org/2000/svg">
<path d="M27.125 4H21.75C21.25 4 20.8125 4.1875 20.4375 4.5625L14.25 10.1875C13.25 11.1875 13.25 12.75 14.125 13.6875C14.9375 14.5625 16.5625 14.8125 17.625 13.875C17.625 13.875 17.625 13.875 17.6875 13.875L22.625 9.3125C23.0625 8.9375 23.6875 8.9375 24.0625 9.375C24.4375 9.75 24.4375 10.375 24 10.75L22.375 12.25L31.5 19.625C31.625 19.8125 31.8125 19.9375 31.9375 20.125V8L28.5625 4.625C28.1875 4.25 27.6875 4 27.125 4ZM34 8.0625V22.0625C34 23.125 34.875 24.0625 36 24.0625H40V8.0625H34ZM37 22.0625C36.4375 22.0625 36 21.5625 36 21.0625C36 20.5 36.4375 20.0625 37 20.0625C37.5 20.0625 38 20.5 38 21.0625C38 21.5625 37.5 22.0625 37 22.0625ZM0 24H4C5.0625 24 6 23.125 6 22V8.0625H0V24ZM3 20.0625C3.5 20.0625 4 20.5 4 21.0625C4 21.5625 3.5 22.0625 3 22.0625C2.4375 22.0625 2 21.5625 2 21.0625C2 20.5 2.4375 20.0625 3 20.0625ZM30.1875 21.1875L20.875 13.625L19 15.3125C17.125 17.0625 14.3125 16.875 12.625 15.0625C11 13.25 11.125 10.375 12.9375 8.6875L18.0625 4H12.8125C12.25 4 11.75 4.25 11.375 4.625L8 8V22H9.125L14.75 27.125C16.5 28.5625 19 28.25 20.375 26.5625H20.4375L21.5 27.5C22.5 28.3125 24 28.1875 24.8125 27.1875L26.75 24.75L27.125 25.0625C27.9375 25.75 29.1875 25.625 29.9375 24.75L30.5 24C31.1875 23.125 31.0625 21.875 30.1875 21.1875Z" fill="#8B4986"/>
</svg>
