<svg width="33" height="33" viewBox="0 0 33 33" fill="none" xmlns="http://www.w3.org/2000/svg">
<path d="M31.5625 27.6877L25.3125 21.4377C25 21.1877 24.625 21.0002 24.25 21.0002H23.25C24.9375 18.8127 26 16.0627 26 13.0002C26 5.87524 20.125 0.000244141 13 0.000244141C5.8125 0.000244141 0 5.87524 0 13.0002C0 20.1877 5.8125 26.0002 13 26.0002C16 26.0002 18.75 25.0002 21 23.2502V24.3127C21 24.6877 21.125 25.0627 21.4375 25.3752L27.625 31.5627C28.25 32.1877 29.1875 32.1877 29.75 31.5627L31.5 29.8127C32.125 29.2502 32.125 28.3127 31.5625 27.6877ZM13 21.0002C8.5625 21.0002 5 17.4377 5 13.0002C5 8.62524 8.5625 5.00024 13 5.00024C17.375 5.00024 21 8.62524 21 13.0002C21 17.4377 17.375 21.0002 13 21.0002Z" fill="#8B4986"/>
</svg>
