<svg width="32" height="32" viewBox="0 0 32 32" fill="none" xmlns="http://www.w3.org/2000/svg">
<path d="M18 8.50024V0.000244141H5.5C4.625 0.000244141 4 0.687744 4 1.50024V30.5002C4 31.3752 4.625 32.0002 5.5 32.0002H26.5C27.3125 32.0002 28 31.3752 28 30.5002V10.0002H19.5C18.625 10.0002 18 9.37524 18 8.50024ZM22 23.2502C22 23.6877 21.625 24.0002 21.25 24.0002H10.75C10.3125 24.0002 10 23.6877 10 23.2502V22.7502C10 22.3752 10.3125 22.0002 10.75 22.0002H21.25C21.625 22.0002 22 22.3752 22 22.7502V23.2502ZM22 19.2502C22 19.6877 21.625 20.0002 21.25 20.0002H10.75C10.3125 20.0002 10 19.6877 10 19.2502V18.7502C10 18.3752 10.3125 18.0002 10.75 18.0002H21.25C21.625 18.0002 22 18.3752 22 18.7502V19.2502ZM22 14.7502V15.2502C22 15.6877 21.625 16.0002 21.25 16.0002H10.75C10.3125 16.0002 10 15.6877 10 15.2502V14.7502C10 14.3752 10.3125 14.0002 10.75 14.0002H21.25C21.625 14.0002 22 14.3752 22 14.7502ZM28 7.62524C28 7.25024 27.8125 6.87524 27.5625 6.56274L21.4375 0.437744C21.125 0.187744 20.75 0.000244141 20.375 0.000244141H20V8.00024H28V7.62524Z" fill="#8B4986"/>
</svg>
