<svg width="115" height="115" viewBox="0 0 89 93" fill="none" xmlns="http://www.w3.org/2000/svg">
<path d="M68.7002 8.43152H9.0033V75.3117H68.7002V8.43152Z" fill="white" stroke="#2C3850" stroke-width="0.7" stroke-miterlimit="10"/>
<path d="M61.7219 68.3635H15.9816V15.3766" fill="white"/>
<path d="M61.7219 68.3635H15.9816V15.3766" stroke="#2C3850" stroke-width="0.7" stroke-miterlimit="10"/>
<path d="M20.7053 16.4587C21.7634 16.4587 21.7634 16.0156 22.8154 16.0156C23.8674 16.0156 23.8704 16.4587 24.9255 16.4587C25.9805 16.4587 25.9835 16.0156 27.0355 16.0156C28.0876 16.0156 28.0936 16.4587 29.1456 16.4587C30.1976 16.4587 30.2036 16.0156 31.2557 16.0156" stroke="#2C3850" stroke-width="0.7" stroke-miterlimit="10" stroke-linecap="round"/>
<path d="M20.7053 19.9343C21.7634 19.9343 21.7634 19.4912 22.8154 19.4912C23.8674 19.4912 23.8704 19.9343 24.9255 19.9343C25.9805 19.9343 25.9835 19.4912 27.0355 19.4912C28.0876 19.4912 28.0936 19.9343 29.1456 19.9343C30.1976 19.9343 30.2036 19.4912 31.2557 19.4912" stroke="#2C3850" stroke-width="0.7" stroke-miterlimit="10" stroke-linecap="round"/>
<path d="M20.7053 23.4099C21.7634 23.4099 21.7634 22.9668 22.8154 22.9668C23.8674 22.9668 23.8704 23.4099 24.9255 23.4099C25.9805 23.4099 25.9835 22.9668 27.0355 22.9668C28.0876 22.9668 28.0936 23.4099 29.1456 23.4099C30.1976 23.4099 30.2036 22.9668 31.2557 22.9668" stroke="#2C3850" stroke-width="0.7" stroke-miterlimit="10" stroke-linecap="round"/>
<path d="M20.7053 26.8856C21.7634 26.8856 21.7634 26.4425 22.8154 26.4425C23.8674 26.4425 23.8704 26.8856 24.9255 26.8856C25.9805 26.8856 25.9835 26.4425 27.0355 26.4425C28.0876 26.4425 28.0936 26.8856 29.1456 26.8856C30.1976 26.8856 30.2036 26.4425 31.2557 26.4425" stroke="#2C3850" stroke-width="0.7" stroke-miterlimit="10" stroke-linecap="round"/>
<path d="M15.9816 68.3635L21.5642 58.8621L24.1506 62.2141L30.8365 51.088L34.3121 55.8809L45.7908 38.1624L52.4737 46.1414L61.7219 30.759V68.3635H15.9816Z" fill="#F6B248" stroke="#2C3850" stroke-width="0.7" stroke-miterlimit="10"/>
<path d="M75.1513 31.8964C77.2252 31.8632 77.9396 30.766 78.7686 29.9943C76.6977 29.1804 74.247 29.2407 71.8988 29.8768C72.4173 30.8866 73.3668 31.9265 75.1513 31.8964Z" fill="#2C3850" stroke="#2C3850" stroke-width="0.7" stroke-linejoin="round"/>
<path d="M81.1258 32.2341C81.0234 31.2785 79.9442 30.4556 78.7716 29.9944C77.9396 30.7661 77.2252 31.8633 75.1544 31.8965C73.3789 31.9266 72.4203 30.8867 71.9048 29.8768C70.2469 30.323 69.002 31.1157 68.8452 32.2341C68.3388 35.8513 67.1934 50.652 67.1934 50.652H81.6624C81.6624 50.652 81.5418 36.0533 81.1258 32.2341Z" fill="#F5B8B9" stroke="#2C3850" stroke-width="0.7" stroke-linejoin="round"/>
<path d="M64.2001 89.1908L58.4396 92.6091H68.7036L67.4948 89.1697L64.2001 89.1908Z" fill="#D9E3E6" stroke="#2C3850" stroke-width="0.7" stroke-miterlimit="10"/>
<path d="M67.54 87.8134H64.2664L64.2001 89.1909H67.4707L67.54 87.8134Z" fill="white" stroke="#2C3850" stroke-width="0.7" stroke-miterlimit="10"/>
<path d="M81.1077 89.1908L87.0551 92.6091H76.7911L77.8099 89.1697L81.1077 89.1908Z" fill="#D9E3E6" stroke="#2C3850" stroke-width="0.7" stroke-miterlimit="10"/>
<path d="M77.8101 87.8134H81.0837L81.1079 89.1909H77.8342L77.8101 87.8134Z" fill="white" stroke="#2C3850" stroke-width="0.7" stroke-miterlimit="10"/>
<path d="M67.1903 50.652H81.6594L81.9608 87.8133H76.2696L74.1837 53.1027C74.1837 53.1027 71.8867 64.8407 71.4376 68.7534C70.895 73.5191 70.2318 87.8133 70.2318 87.8133H64.2664C64.2664 87.8133 64.4533 73.2327 64.8361 68.3736C65.1857 63.9424 67.1903 50.652 67.1903 50.652Z" fill="#238D7E" stroke="#2C3850" stroke-width="0.7" stroke-miterlimit="10"/>
<path d="M70.1445 30.5822C66.0811 32.8851 63.0306 42.0187 63.2717 43.5681C63.5129 45.1175 72.4264 48.6263 76.5561 48.6263V45.847C76.5561 45.847 71.1302 44.5146 66.7594 42.3594L68.9086 36.632" fill="#F5B8B9"/>
<path d="M70.1445 30.5822C66.0811 32.8851 63.0306 42.0187 63.2717 43.5681C63.5129 45.1175 72.4264 48.6263 76.5561 48.6263V45.847C76.5561 45.847 71.1302 44.5146 66.7594 42.3594L68.9086 36.632" stroke="#2C3850" stroke-width="0.7" stroke-linejoin="round"/>
<path d="M76.5559 45.9345C76.5559 45.9345 77.5054 45.8802 77.7858 46.2359C78.0661 46.5916 78.9915 46.5374 79.3623 45.9345C79.7331 45.3316 80.1521 45.615 80.0948 46.0219C80.0375 46.4288 79.9561 47.4869 79.1664 47.8305C78.3766 48.1742 76.5559 48.2525 76.5559 48.2525V45.9345Z" fill="white" stroke="#2C3850" stroke-width="0.7" stroke-linejoin="round"/>
<path d="M80.095 30.7207C84.9572 34.1059 80.095 47.0979 78.0724 46.9984C76.0497 46.8989 69.7376 34.338 69.7376 34.338L72.2998 33.1563C72.2998 33.1563 75.4951 39.2544 77.5961 41.2741C78.7717 39.164 78.6421 34.7449 78.6421 34.7449" fill="#F5B8B9"/>
<path d="M80.095 30.7207C84.9572 34.1059 80.095 47.0979 78.0724 46.9984C76.0497 46.8989 69.7376 34.338 69.7376 34.338L72.2998 33.1563C72.2998 33.1563 75.4951 39.2544 77.5961 41.2741C78.7717 39.164 78.6421 34.7449 78.6421 34.7449" stroke="#2C3850" stroke-width="0.7" stroke-linejoin="round"/>
<path d="M74.4249 32.7375C74.5515 32.7375 77.8371 32.0231 78.7716 31.2303C79.7061 30.4375 80.4416 30.9801 80.4416 30.9801C80.4416 30.9801 80.0196 28.3335 77.9276 27.7215C75.8356 27.1096 72.8996 28.0803 72.351 28.9273C71.8023 29.7743 70.7865 29.708 71.9892 30.8294C72.7481 31.5303 73.5627 32.1684 74.4249 32.7375Z" fill="#F5B8B9" stroke="#2C3850" stroke-width="0.7" stroke-linejoin="round"/>
<path d="M72.0827 33.2348C72.0827 33.2348 71.4497 30.6967 70.8347 30.2535C70.2198 29.8104 68.4232 29.6838 68.1519 29.8074C67.8806 29.931 67.2024 30.8956 67.4496 31.0915C67.6967 31.2875 68.2635 30.5248 68.2635 30.5248C68.2635 30.5248 68.8091 30.35 68.4142 30.8444C68.0193 31.3387 68.1127 32.4269 70.1836 34.0306L72.0827 33.2348Z" fill="white" stroke="#2C3850" stroke-width="0.7" stroke-linejoin="round"/>
<path d="M76.9057 30.3411L76.2274 25.6628L76.7037 20.9151C76.7037 20.9151 70.9553 18.9648 70.9553 22.3017C70.9553 24.0621 71.0005 26.8866 71.6847 27.5015C72.369 28.1165 73.4632 27.5829 73.4632 27.5829L72.9628 30.2386C73.391 30.7265 73.8875 31.1499 74.4369 31.4956C75.3215 31.2594 76.1573 30.8686 76.9057 30.3411Z" fill="white" stroke="#2C3850" stroke-width="0.7" stroke-miterlimit="10" stroke-linecap="round"/>
<path d="M75.0609 23.7697C75.0837 23.6664 75.116 23.5655 75.1573 23.4682C75.1775 23.3872 75.2208 23.3139 75.2821 23.2572C75.3433 23.2005 75.4198 23.1629 75.5022 23.1492C75.5845 23.1354 75.669 23.146 75.7454 23.1796C75.8218 23.2133 75.8867 23.2686 75.932 23.3386C76.0697 23.5638 76.1273 23.8289 76.0955 24.0909C76.0638 24.353 75.9446 24.5966 75.7572 24.7825L76.2275 25.6718C76.5956 24.9306 76.8449 24.1362 76.966 23.3175C77.1132 23.3484 77.2658 23.3411 77.4093 23.2962C77.5528 23.2514 77.6825 23.1705 77.7859 23.0613C78.1084 22.6845 77.7859 22.0605 77.7859 22.0605C77.7859 22.0605 78.5365 21.9008 78.5184 21.3461C78.5405 21.0848 78.4641 20.8246 78.3044 20.6166C78.3044 20.6166 78.8379 19.9203 78.446 19.3687C78.3524 19.215 78.2107 19.0965 78.0428 19.0316C77.8749 18.9667 77.6903 18.9591 77.5176 19.01C77.5176 19.01 77.9276 18.0303 77.4664 17.6897C77.0052 17.349 76.3058 17.6203 76.3058 17.6203C76.3058 17.6203 75.8989 16.6015 75.1212 16.5864C74.8994 16.5818 74.6813 16.6436 74.4949 16.764C74.3085 16.8843 74.1623 17.0576 74.0752 17.2616C74.0752 17.2616 73.2191 16.4598 72.568 16.5834C71.9169 16.707 71.73 17.6565 71.73 17.6565C71.73 17.6565 70.6056 17.1199 70.1957 17.548C69.7857 17.976 70.1957 18.8502 70.1957 18.8502C70.1957 18.8502 69.3456 18.8683 69.2914 19.4923C69.2371 20.1162 70.0118 20.49 70.0118 20.49C70.0118 20.49 69.3155 21.0266 69.5838 21.527C69.6706 21.6684 69.801 21.7779 69.9554 21.8387C70.1098 21.8996 70.2798 21.9087 70.4398 21.8646C70.4398 21.8646 70.2439 22.5247 70.5845 22.6152C70.9251 22.7056 70.9583 22.6152 70.9583 22.6152C70.9585 22.2594 70.9816 21.9039 71.0276 21.5511C72.4444 20.3755 74.7263 21.53 74.7263 21.53C74.6859 21.9369 74.6859 22.3469 74.7263 22.7538C74.7998 23.1038 74.912 23.4445 75.0609 23.7697Z" fill="#2C3850" stroke="#2C3850" stroke-width="0.7" stroke-miterlimit="10"/>
<path d="M67.1904 50.652L81.6835 51.5171L81.6594 50.652H67.1904Z" fill="#2C3850" stroke="#2C3850" stroke-width="0.7" stroke-linejoin="round"/>
<path d="M73.4512 27.5828C74.0191 27.2668 74.4974 26.8114 74.8408 26.2595L73.4512 27.5828Z" fill="white"/>
<path d="M73.4512 27.5828C74.0191 27.2668 74.4974 26.8114 74.8408 26.2595" stroke="#2C3850" stroke-width="0.7" stroke-miterlimit="10" stroke-linecap="round"/>
<path d="M10.7187 1.89542L11.9975 1L13.0017 2.19701L14.4687 1.66163L15.1292 3.07723L16.685 2.94163L16.9562 4.47998L18.4946 4.75001L18.3578 6.30705L19.7746 6.96634L19.2392 8.43455L20.4362 9.43868L19.5396 10.7175L20.4362 11.9975L19.2392 13.0005L19.7746 14.4687L18.3578 15.1292L18.4946 16.685L16.9562 16.9562L16.685 18.4946L15.1292 18.3578L14.4687 19.7734L13.0017 19.2392L11.9975 20.4362L10.7187 19.5396L9.43868 20.4362L8.43455 19.2392L6.96751 19.7734L6.30705 18.3578L4.75117 18.4946L4.47998 16.9562L2.94163 16.685L3.0784 15.1292L1.6628 14.4687L2.19701 13.0005L1 11.9975L1.89659 10.7175L1 9.43868L2.19701 8.43455L1.6628 6.96634L3.0784 6.30705L2.94163 4.75001L4.47998 4.47998L4.75117 2.94163L6.30705 3.07723L6.96751 1.66163L8.43455 2.19701L9.43868 1L10.7187 1.89542Z" fill="#F5B8B9" stroke="#2C3850" stroke-width="0.7" stroke-miterlimit="10"/>
</svg>
