<svg width="463" height="637" viewBox="0 0 463 637" fill="none" xmlns="http://www.w3.org/2000/svg">
<g clip-path="url(#clip0_701:339)">
<path d="M399.69 91.8101H64.8101V579.79H399.69V91.8101Z" fill="#F9B5C3"/>
<path d="M462.69 232.24C462.69 285.69 433.21 332.47 389.14 358.17C385.428 343.779 379.184 330.163 370.7 317.96C369.86 316.72 369 315.49 368.1 314.26L319.91 158.83L308.41 162.24L348.6 291.85C339.513 282.97 329.75 274.809 319.4 267.44C296.054 250.83 270.72 237.208 243.99 226.89L239.81 237.76C265.546 247.783 289.953 260.932 312.48 276.91C333.15 291.79 349.4 307.82 360.76 324.55C369.062 336.476 374.978 349.896 378.18 364.07C357.186 374.1 334.207 379.285 310.94 379.24C227.14 379.24 159.2 313.46 159.2 232.32C159.2 151.18 227.14 85.4001 310.94 85.4001C394.74 85.4001 462.69 151.14 462.69 232.24Z" fill="#18988B"/>
<path d="M378.19 364.02C374.988 349.846 369.072 336.426 360.77 324.5C349.41 307.77 333.16 291.74 312.49 276.86C289.963 260.882 265.556 247.733 239.82 237.71L244 226.84C270.73 237.158 296.064 250.78 319.41 267.39C329.76 274.759 339.523 282.92 348.61 291.8C355.713 298.75 362.229 306.276 368.09 314.3C368.99 315.53 369.85 316.76 370.69 318C379.178 330.212 385.422 343.838 389.13 358.24C391.704 368.491 392.768 379.062 392.29 389.62C387.73 491.53 392.29 604.31 392.29 605.44L380.29 605.9C380.29 604.77 375.71 491.52 380.29 389.11C380.686 380.691 379.98 372.256 378.19 364.02Z" fill="#CDA787"/>
<path d="M319.9 158.86L368.09 314.29C362.229 306.266 355.713 298.74 348.61 291.79L308.41 162.24L319.9 158.86Z" fill="#CDA787"/>
<path d="M378.2 364.01C357.205 374.064 334.218 379.269 310.94 379.24C227.14 379.24 159.2 313.46 159.2 232.32C159.2 151.18 227.14 85.4001 310.94 85.4001C394.74 85.4001 462.69 151.14 462.69 232.24C462.69 285.69 433.21 332.47 389.14 358.17" stroke="#2D2D2E" stroke-width="0.44" stroke-miterlimit="10"/>
<path d="M389.13 358.24C391.703 368.491 392.768 379.062 392.29 389.62C387.73 491.53 392.29 604.31 392.29 605.44L380.29 605.9C380.29 604.77 375.71 491.52 380.29 389.11C380.673 380.7 379.957 372.275 378.16 364.05C374.957 349.876 369.042 336.456 360.74 324.53C349.38 307.8 333.13 291.77 312.46 276.89C289.932 260.912 265.526 247.763 239.79 237.74L243.97 226.87C270.709 237.176 296.053 250.788 319.41 267.39C329.76 274.759 339.523 282.92 348.61 291.8C355.713 298.75 362.228 306.276 368.09 314.3C368.99 315.53 369.85 316.76 370.69 318C379.177 330.212 385.422 343.838 389.13 358.24Z" stroke="#2D2D2E" stroke-width="0.44" stroke-miterlimit="10"/>
<path d="M348.6 291.81L308.42 162.19L319.89 158.86L368.08 314.3" stroke="#2D2D2E" stroke-width="0.44" stroke-miterlimit="10"/>
<path d="M386.66 104.85H77.8501V566.75H386.66V104.85Z" stroke="#2D2D2E" stroke-width="0.44" stroke-miterlimit="10"/>
<path d="M399.7 91.8101V579.81H64.8198V91.8101H399.7ZM386.7 566.75V104.85H77.8598V170.72H77.4098V173.33H77.8798V236.24H77.5998V238.85H77.8798V301.75H77.7798V304.35H77.8798V566.76H386.68L386.7 566.75Z" fill="#3D4543"/>
<path d="M386.47 498.24V500.85H327.72V566.73H325.12V500.85H264.96V566.73H262.35V500.85H202.19V566.73H199.59V500.85H139.41V566.73H136.81V500.85H78.3201V498.24H136.83V435.34H78.1301V432.74H136.83V369.83H77.9501V367.24H136.83V304.34H77.8301V301.74H136.83V238.84H77.8301V236.24H136.83V173.34H77.8301V170.73H136.83V104.86H139.41V170.73H199.57V104.86H202.17V170.73H262.33V104.86H264.94V170.73H325.1V104.86H327.7V170.73H385.53V173.34H327.72V236.24H385.72V238.85H327.72V301.75H385.92V304.35H327.72V367.24H386.11V369.84H327.72V432.75H386.29V435.35H327.72V498.24H386.47ZM325.12 498.24V435.34H264.96V498.24H325.12ZM325.12 432.74V369.83H264.96V432.74H325.12ZM325.12 367.23V304.34H264.96V367.24L325.12 367.23ZM325.12 301.72V238.82H264.96V301.72H325.12ZM325.12 236.21V173.31H264.96V236.24L325.12 236.21ZM262.35 498.21V435.31H202.19V498.24L262.35 498.21ZM262.35 432.71V369.8H202.19V432.71H262.35ZM262.35 367.2V304.34H202.19V367.24L262.35 367.2ZM262.35 301.69V238.79H202.19V301.69H262.35ZM262.35 236.18V173.28H202.19V236.24L262.35 236.18ZM199.59 498.18V435.28H139.41V498.24L199.59 498.18ZM199.59 432.68V369.77H139.41V432.68H199.59ZM199.59 367.17V304.34H139.41V367.24L199.59 367.17ZM199.59 301.66V238.76H139.41V301.66H199.59ZM199.59 236.15V173.25H139.41V236.24L199.59 236.15Z" fill="#3D4543"/>
<path d="M430.69 580.01H34.2598V636.01H430.69V580.01Z" fill="#CDA787"/>
<path d="M399.69 91.8101H64.8101V579.79H399.69V91.8101Z" stroke="#2D2D2E" stroke-width="0.44" stroke-miterlimit="10"/>
<path d="M136.83 104.85H77.8501V170.73V173.34V236.23V238.84V301.74V304.35V369.86V435.36V500.87V566.75H136.83" stroke="#2D2D2E" stroke-width="0.44" stroke-miterlimit="10"/>
<path d="M199.59 104.85H139.43" stroke="#2D2D2E" stroke-width="0.44" stroke-miterlimit="10"/>
<path d="M262.35 104.85H202.19" stroke="#2D2D2E" stroke-width="0.44" stroke-miterlimit="10"/>
<path d="M325.11 104.85H264.95" stroke="#2D2D2E" stroke-width="0.44" stroke-miterlimit="10"/>
<path d="M327.72 566.75H386.66V500.87V498.26V435.36V432.76V369.86V367.25V304.35V301.74V238.84V236.23V173.34V170.73V104.85H327.72" stroke="#2D2D2E" stroke-width="0.44" stroke-miterlimit="10"/>
<path d="M264.95 566.75H325.11" stroke="#2D2D2E" stroke-width="0.44" stroke-miterlimit="10"/>
<path d="M202.19 566.75H262.35" stroke="#2D2D2E" stroke-width="0.44" stroke-miterlimit="10"/>
<path d="M139.43 566.75H199.59" stroke="#2D2D2E" stroke-width="0.44" stroke-miterlimit="10"/>
<path d="M386.47 500.87V498.26H327.72V435.36H386.28V432.76H327.72V369.86H386.1V367.25H327.72V304.35H385.91V301.74H327.72V238.84H385.73V236.23H327.72V173.34H385.54V170.73H327.72V104.85H325.11V170.73H264.95V104.85H262.35V170.73H202.19V104.85H199.59V170.73H139.43V104.85H136.83V170.73H77.8499H77.3799V173.34H77.8499H136.83V236.23H77.8499H77.5699V238.84H77.8499H136.83V301.74H77.8499H77.7599V304.35H77.8499H136.83V367.25H77.9399V369.86H136.83V432.76H78.1299V435.36H136.83V498.26H78.3099V500.87H136.83V566.75H139.43V500.87H199.59V566.75H202.19V500.87H262.35V566.75H264.95V500.87H325.11V566.75H327.72V500.87H386.47Z" stroke="#2D2D2E" stroke-width="0.44" stroke-miterlimit="10"/>
<path d="M325.11 369.86H264.95V432.76H325.11V369.86Z" stroke="#2D2D2E" stroke-width="0.44" stroke-miterlimit="10"/>
<path d="M262.35 304.35H202.19V367.25H262.35V304.35Z" stroke="#2D2D2E" stroke-width="0.44" stroke-miterlimit="10"/>
<path d="M262.35 238.84H202.19V301.74H262.35V238.84Z" stroke="#2D2D2E" stroke-width="0.44" stroke-miterlimit="10"/>
<path d="M262.35 369.86H202.19V432.76H262.35V369.86Z" stroke="#2D2D2E" stroke-width="0.44" stroke-miterlimit="10"/>
<path d="M325.11 304.35H264.95V367.25H325.11V304.35Z" stroke="#2D2D2E" stroke-width="0.44" stroke-miterlimit="10"/>
<path d="M325.11 238.84H264.95V301.74H325.11V238.84Z" stroke="#2D2D2E" stroke-width="0.44" stroke-miterlimit="10"/>
<path d="M325.11 173.33H264.95V236.23H325.11V173.33Z" stroke="#2D2D2E" stroke-width="0.44" stroke-miterlimit="10"/>
<path d="M262.35 173.33H202.19V236.23H262.35V173.33Z" stroke="#2D2D2E" stroke-width="0.44" stroke-miterlimit="10"/>
<path d="M199.59 173.33H139.43V236.23H199.59V173.33Z" stroke="#2D2D2E" stroke-width="0.44" stroke-miterlimit="10"/>
<path d="M199.59 238.84H139.43V301.74H199.59V238.84Z" stroke="#2D2D2E" stroke-width="0.44" stroke-miterlimit="10"/>
<path d="M199.59 304.35H139.43V367.25H199.59V304.35Z" stroke="#2D2D2E" stroke-width="0.44" stroke-miterlimit="10"/>
<path d="M199.59 369.86H139.43V432.76H199.59V369.86Z" stroke="#2D2D2E" stroke-width="0.44" stroke-miterlimit="10"/>
<path d="M199.59 435.36H139.43V498.26H199.59V435.36Z" stroke="#2D2D2E" stroke-width="0.44" stroke-miterlimit="10"/>
<path d="M262.35 435.36H202.19V498.26H262.35V435.36Z" stroke="#2D2D2E" stroke-width="0.44" stroke-miterlimit="10"/>
<path d="M325.11 435.36H264.95V498.26H325.11V435.36Z" stroke="#2D2D2E" stroke-width="0.44" stroke-miterlimit="10"/>
<path d="M430.69 580.01H34.2598V636.01H430.69V580.01Z" stroke="#2D2D2E" stroke-width="0.44" stroke-miterlimit="10"/>
<path d="M356.09 573.15C355.31 573.15 354.562 572.84 354.011 572.289C353.46 571.737 353.15 570.99 353.15 570.21V565.99C353.15 565.213 353.459 564.468 354.008 563.918C354.558 563.369 355.303 563.06 356.08 563.06C356.857 563.06 357.602 563.369 358.152 563.918C358.701 564.468 359.01 565.213 359.01 565.99V570.24C359.005 571.012 358.695 571.751 358.148 572.295C357.602 572.84 356.862 573.147 356.09 573.15Z" fill="#DF6A2E"/>
<path d="M353.01 570.24C352.987 570.638 353.045 571.037 353.181 571.413C353.318 571.788 353.529 572.131 353.803 572.422C354.077 572.712 354.408 572.943 354.774 573.101C355.141 573.259 355.536 573.341 355.935 573.341C356.334 573.341 356.729 573.259 357.095 573.101C357.462 572.943 357.792 572.712 358.066 572.422C358.34 572.131 358.552 571.788 358.688 571.413C358.825 571.037 358.883 570.638 358.86 570.24V566.02C358.883 565.622 358.825 565.223 358.688 564.847C358.552 564.472 358.34 564.129 358.066 563.838C357.792 563.548 357.462 563.317 357.095 563.159C356.729 563.001 356.334 562.919 355.935 562.919C355.536 562.919 355.141 563.001 354.774 563.159C354.408 563.317 354.077 563.548 353.803 563.838C353.529 564.129 353.318 564.472 353.181 564.847C353.045 565.223 352.987 565.622 353.01 566.02V570.24ZM363.8 553.45V579.82H348.07V513.2H363.8V553.45Z" fill="#F0ECE4" stroke="#2D2D2E" stroke-width="0.44" stroke-miterlimit="10"/>
<path d="M363.8 579.79H348.06V546.48V513.17H363.8V553.42V579.79Z" stroke="#2D2D2E" stroke-width="0.44" stroke-miterlimit="10"/>
<path d="M355.94 519.93V530.39" stroke="#2D2D2E" stroke-width="0.44" stroke-miterlimit="10"/>
<path d="M355.94 533.94V554.11" stroke="#2D2D2E" stroke-width="0.44" stroke-miterlimit="10"/>
<path d="M355.94 573.15C355.162 573.147 354.417 572.836 353.867 572.285C353.318 571.734 353.01 570.988 353.01 570.21V565.99C352.987 565.591 353.045 565.193 353.181 564.817C353.318 564.442 353.53 564.099 353.803 563.808C354.077 563.518 354.408 563.287 354.774 563.129C355.141 562.971 355.536 562.889 355.935 562.889C356.334 562.889 356.729 562.971 357.096 563.129C357.462 563.287 357.792 563.518 358.066 563.808C358.34 564.099 358.552 564.442 358.688 564.817C358.825 565.193 358.883 565.591 358.86 565.99V570.24C358.855 571.012 358.545 571.751 357.998 572.295C357.451 572.84 356.712 573.147 355.94 573.15Z" stroke="#2D2D2E" stroke-width="0.44" stroke-miterlimit="10"/>
<path d="M371.5 573.15C370.72 573.15 369.973 572.84 369.421 572.289C368.87 571.737 368.56 570.99 368.56 570.21V565.99C368.56 565.213 368.869 564.468 369.418 563.918C369.968 563.369 370.713 563.06 371.49 563.06C372.267 563.06 373.012 563.369 373.562 563.918C374.111 564.468 374.42 565.213 374.42 565.99V570.24C374.415 571.012 374.105 571.751 373.558 572.295C373.012 572.84 372.272 573.147 371.5 573.15Z" fill="#DF6A2E"/>
<path d="M368.56 570.24C368.56 571.017 368.869 571.762 369.418 572.312C369.968 572.861 370.713 573.17 371.49 573.17C372.267 573.17 373.012 572.861 373.562 572.312C374.111 571.762 374.42 571.017 374.42 570.24V566.02C374.42 565.243 374.111 564.498 373.562 563.948C373.012 563.399 372.267 563.09 371.49 563.09C370.713 563.09 369.968 563.399 369.418 563.948C368.869 564.498 368.56 565.243 368.56 566.02V570.24ZM379.36 553.45V579.82H363.62V513.2H379.41L379.36 553.45Z" fill="#F0ECE4" stroke="#2D2D2E" stroke-width="0.44" stroke-miterlimit="10"/>
<path d="M379.35 579.79H363.62V546.48V513.17H379.35V553.42V579.79Z" stroke="#2D2D2E" stroke-width="0.44" stroke-miterlimit="10"/>
<path d="M371.49 519.93V530.39" stroke="#2D2D2E" stroke-width="0.44" stroke-miterlimit="10"/>
<path d="M371.49 533.94V554.11" stroke="#2D2D2E" stroke-width="0.44" stroke-miterlimit="10"/>
<path d="M371.5 573.15C370.72 573.15 369.973 572.84 369.421 572.289C368.87 571.737 368.56 570.99 368.56 570.21V565.99C368.56 565.213 368.869 564.468 369.418 563.918C369.968 563.369 370.713 563.06 371.49 563.06C372.267 563.06 373.012 563.369 373.562 563.918C374.111 564.468 374.42 565.213 374.42 565.99V570.24C374.415 571.012 374.105 571.751 373.558 572.295C373.012 572.84 372.272 573.147 371.5 573.15V573.15Z" stroke="#2D2D2E" stroke-width="0.44" stroke-miterlimit="10"/>
<path d="M387.05 573.15C386.272 573.147 385.527 572.836 384.978 572.285C384.429 571.734 384.12 570.988 384.12 570.21V565.99C384.097 565.591 384.155 565.193 384.292 564.817C384.428 564.442 384.64 564.099 384.914 563.808C385.188 563.518 385.518 563.287 385.885 563.129C386.251 562.971 386.646 562.889 387.045 562.889C387.444 562.889 387.839 562.971 388.206 563.129C388.572 563.287 388.903 563.518 389.177 563.808C389.451 564.099 389.662 564.442 389.799 564.817C389.935 565.193 389.994 565.591 389.97 565.99V570.24C389.965 571.012 389.655 571.751 389.109 572.295C388.562 572.84 387.822 573.147 387.05 573.15Z" fill="#DF6A2E"/>
<path d="M384.12 570.24C384.097 570.638 384.155 571.037 384.292 571.413C384.428 571.788 384.64 572.131 384.914 572.422C385.188 572.712 385.518 572.943 385.884 573.101C386.251 573.259 386.646 573.341 387.045 573.341C387.444 573.341 387.839 573.259 388.206 573.101C388.572 572.943 388.903 572.712 389.177 572.422C389.451 572.131 389.662 571.788 389.799 571.413C389.935 571.037 389.993 570.638 389.97 570.24V566.02C389.993 565.622 389.935 565.223 389.799 564.847C389.662 564.472 389.451 564.129 389.177 563.838C388.903 563.548 388.572 563.317 388.206 563.159C387.839 563.001 387.444 562.919 387.045 562.919C386.646 562.919 386.251 563.001 385.884 563.159C385.518 563.317 385.188 563.548 384.914 563.838C384.64 564.129 384.428 564.472 384.292 564.847C384.155 565.223 384.097 565.622 384.12 566.02V570.24ZM394.91 553.45V579.82H379.18V513.2H394.91V553.45Z" fill="#F0ECE4" stroke="#2D2D2E" stroke-width="0.44" stroke-miterlimit="10"/>
<path d="M394.91 579.79H379.17V546.48V513.17H394.91V553.42V579.79Z" stroke="#2D2D2E" stroke-width="0.44" stroke-miterlimit="10"/>
<path d="M387.05 519.93V530.39" stroke="#2D2D2E" stroke-width="0.44" stroke-miterlimit="10"/>
<path d="M387.05 533.94V554.11" stroke="#2D2D2E" stroke-width="0.44" stroke-miterlimit="10"/>
<path d="M387.05 573.15C386.272 573.147 385.527 572.836 384.978 572.285C384.429 571.734 384.12 570.988 384.12 570.21V565.99C384.097 565.591 384.155 565.193 384.292 564.817C384.428 564.442 384.64 564.099 384.914 563.808C385.188 563.518 385.518 563.287 385.885 563.129C386.251 562.971 386.646 562.889 387.045 562.889C387.444 562.889 387.839 562.971 388.206 563.129C388.572 563.287 388.903 563.518 389.177 563.808C389.451 564.099 389.662 564.442 389.799 564.817C389.935 565.193 389.994 565.591 389.97 565.99V570.24C389.965 571.012 389.655 571.751 389.109 572.295C388.562 572.84 387.822 573.147 387.05 573.15Z" stroke="#2D2D2E" stroke-width="0.44" stroke-miterlimit="10"/>
<path d="M347.85 513.32V546.63H331.95V481.13H347.85V513.32Z" fill="#F0ECE4" stroke="#2D2D2E" stroke-width="0.44" stroke-miterlimit="10"/>
<path d="M340.05 563.24C340.826 563.243 341.57 563.552 342.119 564.101C342.668 564.65 342.977 565.394 342.98 566.17V570.39C343.003 570.788 342.945 571.188 342.808 571.563C342.672 571.938 342.46 572.281 342.186 572.572C341.913 572.862 341.582 573.093 341.216 573.251C340.849 573.41 340.454 573.491 340.055 573.491C339.656 573.491 339.261 573.41 338.894 573.251C338.528 573.093 338.197 572.862 337.924 572.572C337.65 572.281 337.438 571.938 337.302 571.563C337.165 571.188 337.107 570.788 337.13 570.39V566.17C337.129 565.786 337.203 565.405 337.349 565.05C337.496 564.694 337.71 564.371 337.982 564.099C338.253 563.827 338.575 563.611 338.93 563.463C339.285 563.316 339.666 563.24 340.05 563.24Z" fill="#DF6A2E"/>
<path d="M339.9 573.3C340.68 573.3 341.428 572.99 341.979 572.439C342.53 571.888 342.84 571.14 342.84 570.36V566.14C342.841 565.754 342.765 565.372 342.615 565.017C342.466 564.661 342.246 564.339 341.97 564.07C341.562 563.656 341.04 563.373 340.471 563.258C339.901 563.142 339.31 563.199 338.773 563.421C338.236 563.644 337.778 564.021 337.457 564.505C337.135 564.99 336.966 565.559 336.97 566.14V570.36C336.969 570.746 337.044 571.128 337.19 571.484C337.337 571.841 337.553 572.165 337.825 572.438C338.097 572.711 338.42 572.928 338.777 573.076C339.133 573.224 339.515 573.3 339.9 573.3ZM347.9 546.63V579.93H331.95V546.63H347.9Z" fill="#F0ECE4" stroke="#2D2D2E" stroke-width="0.44" stroke-miterlimit="10"/>
<path d="M347.85 579.94H331.95V546.63V481.13H347.85L347.92 580.23" stroke="#2D2D2E" stroke-width="0.44" stroke-miterlimit="10"/>
<path d="M339.9 488.03V498.48" stroke="#2D2D2E" stroke-width="0.44" stroke-miterlimit="10"/>
<path d="M339.9 502.02V522.2" stroke="#2D2D2E" stroke-width="0.44" stroke-miterlimit="10"/>
<path d="M339.9 573.3C339.515 573.299 339.135 573.222 338.78 573.073C338.425 572.925 338.102 572.708 337.831 572.435C337.56 572.162 337.345 571.838 337.199 571.482C337.053 571.126 336.979 570.745 336.98 570.36V566.14C336.976 565.559 337.145 564.99 337.467 564.505C337.788 564.021 338.246 563.644 338.783 563.421C339.32 563.199 339.911 563.142 340.481 563.258C341.05 563.373 341.572 563.656 341.98 564.07C342.256 564.339 342.476 564.661 342.625 565.017C342.775 565.372 342.851 565.754 342.85 566.14V570.36C342.85 570.747 342.774 571.13 342.625 571.487C342.477 571.845 342.259 572.169 341.985 572.442C341.711 572.715 341.386 572.932 341.028 573.079C340.67 573.226 340.287 573.301 339.9 573.3V573.3Z" stroke="#2D2D2E" stroke-width="0.44" stroke-miterlimit="10"/>
<path d="M331.95 546.63H347.85" stroke="#2D2D2E" stroke-width="0.44" stroke-miterlimit="10"/>
<path d="M429.26 545.33V573.24C429.26 574.916 428.594 576.524 427.409 577.709C426.223 578.894 424.616 579.56 422.94 579.56H401.35C399.674 579.56 398.066 578.894 396.881 577.709C395.696 576.524 395.03 574.916 395.03 573.24V545.33H429.26Z" fill="#F5B335"/>
<path d="M415.87 499.55C420.21 502.79 423.31 511.55 423.31 521.77C423.31 531.99 420.21 540.77 415.87 543.98C419 529.342 419 514.208 415.87 499.57V499.55Z" fill="#18988B"/>
<path d="M415.86 499.56C418.99 514.198 418.99 529.332 415.86 543.97C414.797 544.815 413.487 545.289 412.13 545.32V498.24C413.486 498.267 414.797 498.737 415.86 499.58V499.56Z" fill="#18988B"/>
<path d="M412.14 498.24V545.36C410.815 545.334 409.534 544.877 408.49 544.06V544C405.354 529.363 405.354 514.227 408.49 499.59V499.53C409.535 498.716 410.816 498.263 412.14 498.24Z" fill="#18988B"/>
<path d="M408.49 499.5V499.56C405.354 514.197 405.354 529.333 408.49 543.97V544.03C404.11 540.84 400.98 532.08 400.98 521.77C400.98 511.46 404.11 502.7 408.49 499.5Z" fill="#18988B"/>
<path d="M422.94 579.56H401.35C399.674 579.56 398.066 578.894 396.881 577.709C395.696 576.524 395.03 574.916 395.03 573.24V545.33H429.26V573.24C429.26 574.916 428.594 576.524 427.409 577.709C426.223 578.894 424.616 579.56 422.94 579.56Z" stroke="#2D2D2E" stroke-width="0.44" stroke-miterlimit="10"/>
<path d="M415.87 499.55C420.21 502.79 423.31 511.55 423.31 521.77C423.31 531.99 420.21 540.77 415.87 543.98C414.807 544.825 413.497 545.299 412.14 545.33C410.815 545.303 409.534 544.847 408.49 544.03C404.11 540.84 400.98 532.08 400.98 521.77C400.98 511.46 404.11 502.7 408.49 499.5C409.535 498.686 410.816 498.233 412.14 498.21C413.496 498.236 414.807 498.707 415.87 499.55V499.55Z" stroke="#2D2D2E" stroke-width="0.44" stroke-miterlimit="10"/>
<path d="M412.14 545.33V498.21" stroke="#2D2D2E" stroke-width="0.44" stroke-miterlimit="10"/>
<path d="M415.86 499.56C418.99 514.198 418.99 529.332 415.86 543.97" stroke="#2D2D2E" stroke-width="0.44" stroke-miterlimit="10"/>
<path d="M408.53 499.56C405.394 514.197 405.394 529.333 408.53 543.97" stroke="#2D2D2E" stroke-width="0.44" stroke-miterlimit="10"/>
<path d="M50.9798 442.7C43.3898 428.59 32.4998 415.94 18.6098 405.08C18.3862 404.91 18.1047 404.834 17.8258 404.87C17.547 404.905 17.2934 405.049 17.1198 405.27C16.9494 405.494 16.8738 405.775 16.9094 406.054C16.9449 406.333 17.0888 406.586 17.3098 406.76C30.9598 417.43 41.6598 429.86 49.1098 443.71C50.8533 446.954 52.4157 450.293 53.7898 453.71C37.7495 451.551 23.1976 443.182 13.2651 430.403C3.33263 417.624 -1.18658 401.457 0.679793 385.38C16.5361 387.201 31.0712 395.091 41.2359 407.396C51.4007 419.702 56.4053 435.465 55.1998 451.38C53.9264 448.46 52.5198 445.567 50.9798 442.7Z" fill="#18988B"/>
<path d="M60.5399 537.81V487.95C60.532 476.194 58.2395 464.551 53.7899 453.67C52.4157 450.253 50.8533 446.914 49.1099 443.67C41.6599 429.82 30.9599 417.39 17.3099 406.72C17.0889 406.546 16.945 406.293 16.9095 406.014C16.8739 405.735 16.9495 405.454 17.1199 405.23C17.2935 405.009 17.5471 404.865 17.8259 404.83C18.1047 404.794 18.3863 404.87 18.6099 405.04C32.4999 415.9 43.3899 428.55 50.9799 442.66C52.5199 445.527 53.9099 448.42 55.1499 451.34C60.0917 462.9 62.6461 475.338 62.6599 487.91V537.77L60.5399 537.81Z" fill="#CDA787"/>
<path d="M78.9901 416.3C86.5299 397.731 97.663 380.835 111.75 366.58C111.951 366.38 112.222 366.268 112.505 366.268C112.788 366.268 113.06 366.38 113.26 366.58C113.359 366.679 113.437 366.795 113.49 366.924C113.544 367.053 113.571 367.191 113.571 367.33C113.571 367.469 113.544 367.607 113.49 367.736C113.437 367.865 113.359 367.982 113.26 368.08C99.5889 381.911 88.7375 398.267 81.3101 416.24C81.1301 416.66 80.9601 417.09 80.7901 417.51C73.5158 435.437 69.7805 454.603 69.7901 473.95V537.8H67.7101V474.8C67.6525 454.818 71.452 435.012 78.9001 416.47L78.9901 416.3Z" fill="#CDA787"/>
<path d="M111.75 366.58C97.6627 380.835 86.5297 397.731 78.9899 416.3L78.8999 416.52C76.1648 400.58 79.8142 384.205 89.0587 370.935C98.3033 357.665 112.4 348.568 128.3 345.61C131.321 361.425 128.044 377.793 119.169 391.227C110.293 404.66 96.5218 414.095 80.7899 417.52C80.9599 417.1 81.1299 416.67 81.3099 416.25C88.735 398.27 99.5866 381.906 113.26 368.07C113.358 367.972 113.437 367.855 113.49 367.726C113.543 367.597 113.571 367.459 113.571 367.32C113.571 367.181 113.543 367.043 113.49 366.914C113.437 366.785 113.358 366.669 113.26 366.57C113.058 366.372 112.786 366.261 112.503 366.263C112.22 366.265 111.949 366.379 111.75 366.58Z" fill="#18988B"/>
<path d="M85.8599 458.9C91.6108 446.989 99.7254 436.374 109.71 427.7C109.789 427.631 109.852 427.545 109.895 427.449C109.938 427.354 109.96 427.25 109.96 427.145C109.96 427.04 109.938 426.936 109.895 426.841C109.852 426.745 109.789 426.66 109.71 426.59C109.573 426.465 109.395 426.396 109.21 426.396C109.025 426.396 108.846 426.465 108.71 426.59C98.5292 435.417 90.26 446.231 84.4099 458.37C84.1433 458.93 83.8833 459.49 83.6299 460.05C82.6265 449.487 85.8527 438.957 92.6012 430.769C99.3496 422.581 109.07 417.402 119.63 416.37C120.642 426.658 117.639 436.94 111.249 445.066C104.859 453.193 95.5765 458.536 85.3399 459.98C85.5199 459.62 85.6799 459.24 85.8599 458.9Z" fill="#18988B"/>
<path d="M109.71 427.7C99.7254 436.374 91.6108 446.989 85.8599 458.9C85.6799 459.26 85.5199 459.62 85.3499 459.98C80.0305 471.371 77.2692 483.788 77.2599 496.36V537.81H75.6699V496.36C75.6783 483.827 78.3864 471.443 83.6099 460.05C83.8633 459.49 84.1233 458.93 84.3899 458.37C90.2546 446.227 98.5411 435.412 108.74 426.59C108.876 426.465 109.055 426.396 109.24 426.396C109.425 426.396 109.603 426.465 109.74 426.59C109.819 426.66 109.882 426.745 109.925 426.841C109.968 426.936 109.99 427.04 109.99 427.145C109.99 427.25 109.968 427.354 109.925 427.449C109.882 427.545 109.819 427.631 109.74 427.7H109.71Z" fill="#CDA787"/>
<path d="M78.8999 416.52C76.1648 400.58 79.8142 384.205 89.0587 370.935C98.3033 357.665 112.4 348.568 128.3 345.61C131.321 361.425 128.044 377.793 119.169 391.227C110.293 404.66 96.5218 414.095 80.7899 417.52V417.52" stroke="#2D2D2E" stroke-width="0.44" stroke-miterlimit="10"/>
<path d="M53.7498 453.69C37.7094 451.531 23.1575 443.162 13.2251 430.383C3.2926 417.604 -1.22662 401.437 0.639753 385.36C16.4961 387.181 31.0311 395.071 41.1959 407.376C51.3607 419.682 56.3652 435.445 55.1598 451.36" stroke="#2D2D2E" stroke-width="0.44" stroke-miterlimit="10"/>
<path d="M80.7901 417.52C73.5158 435.447 69.7805 454.613 69.7901 473.96V537.81H67.7101V474.81C67.6525 454.828 71.452 435.022 78.9001 416.48L78.9901 416.26C86.5299 397.691 97.663 380.795 111.75 366.54C111.951 366.34 112.222 366.228 112.505 366.228C112.788 366.228 113.06 366.34 113.26 366.54C113.359 366.638 113.437 366.755 113.49 366.884C113.544 367.013 113.571 367.151 113.571 367.29C113.571 367.429 113.544 367.567 113.49 367.696C113.437 367.825 113.359 367.942 113.26 368.04C99.5846 381.882 88.733 398.253 81.3101 416.24C81.1301 416.67 80.9601 417.1 80.7901 417.52Z" stroke="#2D2D2E" stroke-width="0.44" stroke-miterlimit="10"/>
<path d="M83.6099 460.05C82.6065 449.487 85.8327 438.957 92.5811 430.769C99.3296 422.581 109.05 417.402 119.61 416.37C120.622 426.658 117.619 436.94 111.229 445.066C104.839 453.193 95.5565 458.536 85.3199 459.98" stroke="#2D2D2E" stroke-width="0.44" stroke-miterlimit="10"/>
<path d="M85.3498 459.98H85.3398" stroke="#2D2D2E" stroke-width="0.44" stroke-miterlimit="10"/>
<path d="M85.3499 459.98C80.0305 471.371 77.2692 483.788 77.2599 496.36V537.81H75.6699V496.36C75.6783 483.827 78.3864 471.443 83.6099 460.05C83.8633 459.49 84.1233 458.93 84.3899 458.37C90.2546 446.227 98.5411 435.412 108.74 426.59C108.876 426.465 109.055 426.396 109.24 426.396C109.425 426.396 109.603 426.465 109.74 426.59C109.819 426.66 109.882 426.745 109.925 426.841C109.968 426.936 109.99 427.04 109.99 427.145C109.99 427.25 109.968 427.354 109.925 427.449C109.882 427.545 109.819 427.631 109.74 427.7C99.7554 436.374 91.6407 446.989 85.8899 458.9C85.7099 459.26 85.5499 459.62 85.3799 459.98" stroke="#2D2D2E" stroke-width="0.44" stroke-miterlimit="10"/>
<path d="M55.1499 451.38C60.0917 462.939 62.6461 475.379 62.6599 487.95V537.81H60.5399V487.95C60.532 476.194 58.2395 464.551 53.7899 453.67C52.4157 450.253 50.8533 446.914 49.1099 443.67C41.6599 429.82 30.9599 417.39 17.3099 406.72C17.0889 406.546 16.945 406.293 16.9095 406.014C16.8739 405.735 16.9495 405.454 17.1199 405.23C17.2935 405.009 17.5471 404.865 17.8259 404.83C18.1047 404.794 18.3863 404.87 18.6099 405.04C32.4999 415.9 43.3899 428.55 50.9799 442.66C52.5199 445.56 53.9099 448.467 55.1499 451.38Z" stroke="#2D2D2E" stroke-width="0.44" stroke-miterlimit="10"/>
<path d="M94.7602 537.97V556.38C94.7602 559.455 94.1543 562.5 92.9772 565.341C91.8001 568.182 90.0749 570.763 87.9 572.937C85.7251 575.111 83.1432 576.835 80.3018 578.011C77.4605 579.187 74.4152 579.791 71.3401 579.79H69.5702C63.3623 579.787 57.4094 577.32 53.0197 572.93C48.6301 568.541 46.1628 562.588 46.1602 556.38V537.97H67.3401C69.4116 538.237 71.5087 538.237 73.5802 537.97H94.7602Z" fill="#F5B335"/>
<path d="M71.3401 579.79H69.5702C63.3623 579.787 57.4094 577.32 53.0197 572.93C48.6301 568.541 46.1628 562.588 46.1602 556.38V537.97H94.7602V556.38C94.7602 559.455 94.1543 562.5 92.9772 565.341C91.8001 568.182 90.0749 570.763 87.9 572.937C85.7251 575.111 83.1432 576.835 80.3018 578.011C77.4605 579.187 74.4152 579.791 71.3401 579.79V579.79Z" stroke="#2D2D2E" stroke-width="0.44" stroke-miterlimit="10"/>
<path d="M192.94 27.72V51.78H188.3V42.06H176.44V51.78H171.8V27.72H176.44V37.86H188.3V27.72H192.94Z" fill="#F0ECE4" stroke="#2D2D2E" stroke-width="0.44" stroke-miterlimit="10"/>
<path d="M214.13 27.3699C216.566 27.425 218.931 28.1977 220.93 29.5911C222.929 30.9845 224.472 32.9366 225.366 35.2031C226.26 37.4695 226.466 39.9495 225.957 42.3322C225.448 44.715 224.248 46.8946 222.506 48.5981C220.764 50.3016 218.558 51.4531 216.164 51.9085C213.771 52.3639 211.296 52.1031 209.05 51.1584C206.804 50.2137 204.887 48.6272 203.539 46.5978C202.19 44.5685 201.471 42.1864 201.47 39.7499C201.479 38.1031 201.815 36.4743 202.458 34.9581C203.101 33.4418 204.038 32.0683 205.216 30.9168C206.393 29.7654 207.787 28.859 209.318 28.2502C210.848 27.6414 212.484 27.3421 214.13 27.3699ZM222.03 39.7499C222.012 38.189 221.533 36.6682 220.653 35.3791C219.773 34.09 218.53 33.0902 217.083 32.5056C215.636 31.9209 214.048 31.7777 212.519 32.0938C210.99 32.4099 209.589 33.1713 208.492 34.282C207.396 35.3928 206.652 36.8032 206.355 38.3358C206.058 39.8683 206.221 41.4544 206.824 42.8944C207.427 44.3343 208.442 45.5636 209.742 46.4277C211.043 47.2917 212.569 47.7518 214.13 47.7499C215.184 47.7781 216.232 47.5897 217.21 47.1964C218.188 46.803 219.074 46.213 219.815 45.4631C220.556 44.7131 221.134 43.8191 221.515 42.8364C221.896 41.8536 222.072 40.8031 222.03 39.7499Z" fill="#F0ECE4" stroke="#2D2D2E" stroke-width="0.44" stroke-miterlimit="10"/>
<path d="M264.14 27.72V51.78H259.5V30.19L253.24 51.78H246.19L239.9 30.19V51.78H235.26V27.72H243.79L249.7 48.34L255.64 27.72H264.14Z" fill="#F0ECE4" stroke="#2D2D2E" stroke-width="0.44" stroke-miterlimit="10"/>
<path d="M292.05 47.49V51.78H273.63V27.72H291.71V32.02H278.26V37.24H290.67V41.54H278.26V47.49H292.05Z" fill="#F0ECE4" stroke="#2D2D2E" stroke-width="0.44" stroke-miterlimit="10"/>
<path d="M214.13 31.7401C215.716 31.7222 217.271 32.1763 218.599 33.0444C219.926 33.9125 220.965 35.1556 221.585 36.6157C222.204 38.0758 222.375 39.6871 222.077 41.2449C221.778 42.8026 221.024 44.2365 219.909 45.3644C218.793 46.4922 217.368 47.2632 215.814 47.5792C214.26 47.8952 212.647 47.7421 211.18 47.1394C209.712 46.5366 208.458 45.5113 207.575 44.1938C206.691 42.8764 206.22 41.3262 206.22 39.7401C206.178 38.686 206.354 37.6346 206.735 36.6512C207.117 35.6678 207.697 34.7733 208.438 34.0232C209.18 33.2731 210.068 32.6834 211.047 32.2906C212.026 31.8979 213.075 31.7105 214.13 31.7401Z" fill="#CDA787"/>
<path d="M322.72 17.9399V59.88H141.8V17.9399H322.72ZM292.06 51.78V47.48H278.27V41.54H290.68V37.24H278.27V32.01H291.71V27.72H273.63V51.78H292.06ZM264.14 51.78V27.72H255.65L249.7 48.34L243.79 27.72H235.27V51.78H239.91V30.24L246.2 51.83H253.2L259.46 30.24V51.83L264.14 51.78ZM226.74 39.78C226.793 37.268 226.097 34.7969 224.74 32.6824C223.383 30.5679 221.426 28.9058 219.12 27.9084C216.814 26.9111 214.263 26.6237 211.792 27.0829C209.322 27.5421 207.045 28.7272 205.251 30.4867C203.457 32.2462 202.229 34.5004 201.722 36.9614C201.216 39.4224 201.454 41.9787 202.407 44.3036C203.36 46.6285 204.984 48.6167 207.072 50.0143C209.16 51.4119 211.617 52.1554 214.13 52.15C215.774 52.1712 217.406 51.8664 218.932 51.2533C220.458 50.6402 221.847 49.731 223.019 48.5781C224.192 47.4252 225.124 46.0515 225.763 44.5363C226.401 43.021 226.733 41.3943 226.74 39.75V39.78ZM192.95 51.78V27.72H188.31V37.86H176.41V27.72H171.81V51.78H176.41V42.05H188.31V51.78H192.95Z" fill="#CDA787"/>
<path d="M322.71 17.9399H141.79V59.8799H322.71V17.9399Z" stroke="#2D2D2E" stroke-width="0.44" stroke-miterlimit="10"/>
<path d="M176.44 42.06V51.78H171.8V27.72H176.44V37.86H188.3V27.72H192.94V51.78H188.3V42.06H176.44Z" stroke="#2D2D2E" stroke-width="0.44"/>
<path d="M226.74 39.75C226.792 42.2617 226.094 44.7318 224.736 46.845C223.377 48.9582 221.42 50.6187 219.113 51.6145C216.807 52.6103 214.256 52.8963 211.786 52.4359C209.317 51.9755 207.04 50.7897 205.248 49.0297C203.455 47.2697 202.227 45.0155 201.722 42.5547C201.216 40.094 201.455 37.5383 202.408 35.214C203.361 32.8897 204.985 30.9021 207.073 29.505C209.161 28.1079 211.618 27.3646 214.13 27.37C215.774 27.3435 217.407 27.6439 218.934 28.2538C220.461 28.8637 221.851 29.771 223.024 30.9229C224.198 32.0747 225.13 33.4482 225.768 34.9635C226.406 36.4789 226.736 38.1059 226.74 39.75V39.75Z" stroke="#2D2D2E" stroke-width="0.44"/>
<path d="M222.03 39.75C222.012 38.189 221.533 36.6682 220.653 35.3791C219.772 34.09 218.53 33.0902 217.083 32.5056C215.635 31.921 214.047 31.7777 212.519 32.0938C210.99 32.4099 209.589 33.1713 208.492 34.2821C207.395 35.3928 206.652 36.8032 206.355 38.3358C206.058 39.8683 206.221 41.4544 206.824 42.8944C207.427 44.3343 208.442 45.5636 209.742 46.4277C211.042 47.2917 212.569 47.7518 214.13 47.75C215.184 47.7781 216.232 47.5897 217.21 47.1964C218.187 46.803 219.074 46.2131 219.815 45.4631C220.555 44.7131 221.134 43.8191 221.515 42.8364C221.896 41.8537 222.071 40.8031 222.03 39.75Z" stroke="#2D2D2E" stroke-width="0.44"/>
<path d="M259.5 51.78V30.19L253.24 51.78H246.19L239.9 30.19V51.78H235.26V27.72H243.79L249.7 48.34L255.64 27.72H264.14V51.78H259.5Z" stroke="#2D2D2E" stroke-width="0.44"/>
<path d="M291.71 27.72V32.02H278.26V37.24H290.67V41.54H278.26V47.49H292.05V51.78H273.63V27.72H291.71Z" stroke="#2D2D2E" stroke-width="0.44"/>
<path d="M174.45 17.94L232.27 0.22998L292.05 17.94" stroke="#2D2D2E" stroke-width="0.44" stroke-miterlimit="10"/>
</g>
<defs>
<clipPath id="clip0_701:339">
<rect width="462.91" height="636.23" fill="white"/>
</clipPath>
</defs>
</svg>
