<svg xmlns="http://www.w3.org/2000/svg" viewBox="0 0 467.55 838.78"><defs><style>.cls-1,.cls-3{fill:#cda787;}.cls-1{stroke:#2d2a26;stroke-width:0.6px;}.cls-1,.cls-10,.cls-11,.cls-8{stroke-miterlimit:10;}.cls-2{fill:#df6a2e;}.cls-4{fill:#f9b5c3;}.cls-5{fill:#18988b;}.cls-6{fill:#3d4543;}.cls-7{fill:#8f4899;}.cls-8{fill:#d68c1e;}.cls-10,.cls-11,.cls-8{stroke:#2d2d2e;stroke-width:0.58px;}.cls-9{fill:#f5b335;}.cls-10{fill:#989898;}.cls-11{fill:none;}</style></defs><g id="Layer_2" data-name="Layer 2"><g id="Layer_1-2" data-name="Layer 1"><path class="cls-1" d="M441.51,820.51c33.12,1.8,24.81,18,24.81,18H429.55s8.31-16.17-24.82-18c0,0-18-.35-24.65-17.15a72.41,72.41,0,0,1,24.65,9.41l-1.26-5.2A19.91,19.91,0,0,1,416.86,803v.38C423.53,820.16,441.51,820.51,441.51,820.51Z"/><path class="cls-1" d="M404.73,820.51c33.13,1.8,24.82,18,24.82,18H349c-3.29-7.11-.08-31.86,0-32.39h0a60.12,60.12,0,0,1,31.12-2.73C386.75,820.16,404.73,820.51,404.73,820.51Z"/><path class="cls-2" d="M430.47,807.6A26.52,26.52,0,0,0,416.86,803a19.91,19.91,0,0,0-13.39,4.59c-11.83-49-24-95.85-36.72-146.21-1.89-8.17-6.92-15.07-14.45-18.22-19.66-8.19-39.78-13.53-60.39-19.32l0-.06s9.49.77,21.84,2.39c15.16,2,34.62,5.2,46.07,9.81a35.93,35.93,0,0,1,4.63,2.2C381.64,648,430.47,807.6,430.47,807.6Z"/><path class="cls-2" d="M190.45,668.24a49.51,49.51,0,0,1-2-7.63c-.29-1.55-.5-3.11-.65-4.66-2.47-25.45,12.67-49.35,12.67-49.35h67c1.37,3.38,8.21,12,15.12,14.56q4.69,1.37,9.35,2.66c20.61,5.79,40.73,11.13,60.39,19.32,7.53,3.15,12.56,10.05,14.45,18.22,12.74,50.36,24.89,97.21,36.72,146.21l1.26,5.2a72.41,72.41,0,0,0-24.65-9.41A60.12,60.12,0,0,0,349,806.09h0a50.34,50.34,0,0,0-12.87,6.68s-12.1-61.06-19.69-94c-1-4.19-1.85-7.92-2.64-11H255.51a78.77,78.77,0,0,1-35.39-8.2c-1.35-.67-2.69-1.4-4-2.17a68.59,68.59,0,0,1-12-8.73,54.88,54.88,0,0,1-6.11-6.61,48.67,48.67,0,0,1-4.47-6.79A47.38,47.38,0,0,1,190.45,668.24Z"/><path class="cls-3" d="M378.68,607.34c-.63,9.42.63,19.47-.63,28.9-6.28,0-11.93,0-18.2-.29h0c-11.45-4.61-30.91-7.85-46.07-9.81,0,0-23.3-9.14-27.74-12.88-1-.87-2.35-3.36-3.76-6.67,14.86.35,29.94.12,45.05,0,.28,0,.57,0,.86,0H339a12.11,12.11,0,0,0,1.72-.12C353.41,606.44,366.09,606.59,378.68,607.34Z"/><path class="cls-4" d="M350.77,572.24v22.59a11.78,11.78,0,0,1-10,11.65c-4.47,0-8.93,0-13.4.09a11.77,11.77,0,0,1-10.91-11.74V572.24h34.36Z"/><path class="cls-5" d="M337.32,550.47a11.2,11.2,0,0,1,0,21.13h0A25,25,0,0,0,337.32,550.47Z"/><path class="cls-5" d="M337.32,550.47a25,25,0,0,1,0,21.12h0a11.14,11.14,0,0,1-3.72.64V549.82a11.14,11.14,0,0,1,3.72.64Z"/><path class="cls-1" d="M336.34,489.37c.08,5.05-26.27,53.22-32,63s-19.2,26.28-30,19.88l-9.3-7A39.94,39.94,0,0,1,279,543.59l5.46,4.73,3.23-4.27h0c9.75-13,38.26-51.27,38.54-56,.34-5.73-1.68-19.54,1.68-19.54S336.3,486.19,336.34,489.37Z"/><path class="cls-5" d="M330,550.47v0a11.27,11.27,0,0,1,3.65-.61v22.42a11.25,11.25,0,0,1-3.64-.61v0A25,25,0,0,1,330,550.47Z"/><path class="cls-5" d="M330,571.59v0a11.2,11.2,0,0,1,0-21.2v0A25,25,0,0,0,330,571.59Z"/><path class="cls-6" d="M311.42,812.77a12.86,12.86,0,1,1-12.86,12.85A12.86,12.86,0,0,1,311.42,812.77Z"/><path class="cls-7" d="M316.4,718.78H159.3a9.61,9.61,0,0,1,0-19.21h60.82a78.77,78.77,0,0,0,35.39,8.2h58.25C314.55,710.86,315.44,714.59,316.4,718.78Z"/><path class="cls-1" d="M282.27,606.6c1.41,3.31,2.73,5.8,3.76,6.67,4.44,3.74,27.74,12.88,27.74,12.88-12.35-1.62-21.84-2.39-21.84-2.39l0,.06q-4.67-1.3-9.35-2.66c-6.91-2.52-13.75-11.18-15.12-14.56l-1.88-30.67c2,1.21,3.33,1.86,3.75,1.7a7.3,7.3,0,0,0,2.55-1.89C272,576.27,277.66,595.8,282.27,606.6Z"/><path class="cls-8" d="M287.05,541.54a2.9,2.9,0,0,1,.66,2.39.41.41,0,0,0,0,.11h0l-3.23,4.27L279,543.59a39.4,39.4,0,0,1,3.86-2.72,3.21,3.21,0,0,1,4.06.52Z"/><path class="cls-9" d="M263.78,574.81c.64.42,1.24.79,1.78,1.12l1.88,30.67h-74a457.25,457.25,0,0,1,9.13-70.07,88.53,88.53,0,0,1,6.09-19.23c8.82-18.88,20.36-17.82,20.36-17.82s9.93,1.79,24.18,10.92c9.79,6.27,21.64,16,33.7,31a3.21,3.21,0,0,0-4.06-.52,39.4,39.4,0,0,0-3.86,2.72,39.94,39.94,0,0,0-13.95,21.65A37.46,37.46,0,0,0,263.78,574.81Z"/><path class="cls-8" d="M265.06,565.24l9.3,7a19.09,19.09,0,0,1-2.5,3.49h0a7.3,7.3,0,0,1-2.55,1.89c-.42.16-1.77-.49-3.75-1.7-.54-.33-1.14-.7-1.78-1.12A37.46,37.46,0,0,1,265.06,565.24Z"/><path class="cls-1" d="M267,468.48a25.1,25.1,0,0,1,.46,5.09H249.13v-5.09Z"/><path class="cls-1" d="M249.13,473.57h18.31a36.87,36.87,0,0,1-.49,5.69c-2.69,16.51-15.83,10.44-15.83,10.44l2.13,20.67,0,0c-14.25-9.13-24.18-10.92-24.18-10.92,5.89-1.18,8.13-5.82,8.89-10.15a19.85,19.85,0,0,0,.28-2.77h4.85l5.61-8.3s-3.59-1.81-3.14-4.27,3.59,0,3.59,0Z"/><path class="cls-6" d="M267,468.48H249.13V474s-3.14-2.48-3.59,0,3.14,4.27,3.14,4.27l-5.61,8.3h-4.85a20.52,20.52,0,0,0-1.48-8.3q-.44-1.1-.75-2.13a16.11,16.11,0,0,1,5.62-17.35,15.73,15.73,0,0,1,17.77-1.62C263.44,459.44,266,463.38,267,468.48Z"/><polygon class="cls-6" points="247.45 718.78 256.97 812.77 238.75 812.77 219.71 812.77 225.77 718.78 247.45 718.78"/><path class="cls-6" d="M238.75,812.77a12.86,12.86,0,1,1-12.86,12.85A12.86,12.86,0,0,1,238.75,812.77Z"/><path class="cls-6" d="M236.74,478.26a20.52,20.52,0,0,1,1.48,8.3,19.85,19.85,0,0,1-.28,2.77c-.76,4.33-3,9-8.89,10.15,0,0-11.54-1.06-20.36,17.82-24.71,10.3-31.87-11.2-28.28-23.78a15,15,0,0,1,4.81-7c7.55-6.77,20.07-11.06,15-25.4-.27-.76-.6-1.56-1-2.38a35.63,35.63,0,0,1-1.4-3.65c-5.79-18.53,11.7-28.76,25.21-25.29,14.37,3.69,18.53,28.94,18.53,28.94A16.11,16.11,0,0,0,236,476.13Q236.3,477.17,236.74,478.26Z"/><path class="cls-7" d="M121.82,572.24A164.58,164.58,0,0,1,123,555.5a235.56,235.56,0,0,1,6.42-32.28,64.88,64.88,0,0,1,11.86-23.87c8.7-10.8,27.44-19.75,43.93-12.79a15,15,0,0,0-4.81,7c-3.59,12.58,3.57,34.08,28.28,23.78a88.53,88.53,0,0,0-6.09,19.23,457.25,457.25,0,0,0-9.13,70.07h7S185.29,630.5,187.76,656a67.13,67.13,0,0,1-13.89-2.72,72,72,0,0,1-30-17.32c-7.62-7.47-14.36-17.71-18.33-31.75A109.49,109.49,0,0,1,121.82,572.24Z"/><path class="cls-6" d="M204.16,688.67l-.28.29H162.75a3.47,3.47,0,0,1-2.44-1,3.45,3.45,0,0,1,2.44-5.89h35.3A54.88,54.88,0,0,0,204.16,688.67Z"/><path class="cls-4" d="M200.24,461.16c5,14.34-7.47,18.63-15,25.4-16.49-7-35.23,2-43.93,12.79a64.88,64.88,0,0,0-11.86,23.87A235.56,235.56,0,0,0,123,555.5H49.26V461.23h150Z"/><path class="cls-10" d="M200.24,461.16l-1,.07h-150V555.5H123a164.58,164.58,0,0,0-1.19,16.74H48.63a5.89,5.89,0,0,1-5.89-5.89V461a5.89,5.89,0,0,1,5.89-5.89H197.87a35.63,35.63,0,0,0,1.4,3.65C199.64,459.6,200,460.4,200.24,461.16Z"/><path class="cls-6" d="M193.58,675.27l-.11.05H162.75a3.45,3.45,0,0,1-3.45-3.45v-.17a3.46,3.46,0,0,1,3.45-3.46h27.7A47.38,47.38,0,0,0,193.58,675.27Z"/><path class="cls-6" d="M188.41,660.61H162.75a3.46,3.46,0,0,1-3.45-3.45v-.48a3.46,3.46,0,0,1,3.45-3.45h11.12A67.13,67.13,0,0,0,187.76,656C187.91,657.5,188.12,659.06,188.41,660.61Z"/><path class="cls-6" d="M166.71,812.77a12.86,12.86,0,1,1-12.86,12.85A12.86,12.86,0,0,1,166.71,812.77Z"/><path class="cls-3" d="M125.56,604.16c4,14,10.71,24.28,18.33,31.75-2.83,0-143.6-1.34-143.6,0V604.16H125.56Z"/><path class="cls-10" d="M125.56,604.16H100.68l7.41-31.92h13.73A109.49,109.49,0,0,0,125.56,604.16Z"/><path class="cls-11" d="M253.25,510.37l-2.13-20.67s13.14,6.07,15.83-10.44a36.87,36.87,0,0,0,.49-5.69,25.1,25.1,0,0,0-.46-5.09c-1-5.1-3.54-9-7.6-11.32a15.73,15.73,0,0,0-17.77,1.62A16.11,16.11,0,0,0,236,476.13q.31,1,.75,2.13a20.52,20.52,0,0,1,1.48,8.3,19.85,19.85,0,0,1-.28,2.77c-.76,4.33-3,9-8.89,10.15,0,0-11.54-1.06-20.36,17.82a88.53,88.53,0,0,0-6.09,19.23,457.25,457.25,0,0,0-9.13,70.07h74l-1.88-30.67"/><path class="cls-11" d="M271.86,575.74a7.3,7.3,0,0,1-2.55,1.89c-.42.16-1.77-.49-3.75-1.7-.54-.33-1.14-.7-1.78-1.12-11.8-7.66-37.93-28.17-37.93-28.17"/><path class="cls-11" d="M287.7,544c9.75-13,38.26-51.27,38.54-56,.34-5.73-1.68-19.54,1.68-19.54s8.38,17.71,8.42,20.89c.08,5.05-26.27,53.22-32,63s-19.2,26.28-30,19.88a19.09,19.09,0,0,1-2.5,3.49"/><path class="cls-11" d="M279,543.59h0l5.46,4.73,3.23-4.27"/><path class="cls-11" d="M287.05,541.54a2.9,2.9,0,0,1,.66,2.39.41.41,0,0,0,0,.11h0"/><path class="cls-11" d="M263.78,574.81a37.46,37.46,0,0,1,1.28-9.57A39.94,39.94,0,0,1,279,543.59a39.4,39.4,0,0,1,3.86-2.72,3.21,3.21,0,0,1,4.06.52"/><line class="cls-11" x1="274.36" y1="572.24" x2="265.06" y2="565.24"/><path class="cls-11" d="M229.05,499.48s9.93,1.79,24.18,10.92c9.79,6.27,21.64,16,33.7,31l.12.15"/><path class="cls-11" d="M200.43,606.6S185.29,630.5,187.76,656c.15,1.55.36,3.11.65,4.66a49.51,49.51,0,0,0,2,7.63,47.38,47.38,0,0,0,3.13,7,48.67,48.67,0,0,0,4.47,6.79,54.88,54.88,0,0,0,6.11,6.61,68.59,68.59,0,0,0,12,8.73c1.32.77,2.66,1.5,4,2.17a78.77,78.77,0,0,0,35.39,8.2h58.26"/><path class="cls-11" d="M336.09,812.77s-12.1-61.06-19.69-94c-1-4.19-1.85-7.92-2.64-11-1-3.83-1.77-6.67-2.34-8.2"/><path class="cls-11" d="M282.24,606.6h0c14.86.35,29.94.12,45.05,0,4.47,0,8.93-.08,13.4-.09,12.69,0,25.37.11,38,.86-.63,9.42.63,19.47-.63,28.9-6.28,0-11.93,0-18.2-.29"/><path class="cls-11" d="M404.73,812.77l-1.26-5.2c-11.83-49-24-95.85-36.72-146.21-1.89-8.17-6.92-15.07-14.45-18.22-19.66-8.19-39.78-13.53-60.39-19.32q-4.67-1.3-9.35-2.66c-6.91-2.52-13.75-11.18-15.12-14.56"/><path class="cls-11" d="M349,806.09a60.12,60.12,0,0,1,31.12-2.73,72.41,72.41,0,0,1,24.65,9.41"/><path class="cls-11" d="M336.09,812.77A50.34,50.34,0,0,1,349,806.09"/><path class="cls-11" d="M429.55,838.48s8.31-16.17-24.82-18c0,0-18-.35-24.65-17.15"/><path class="cls-11" d="M349,806.09h0c-.08.53-3.29,25.28,0,32.39h36.78"/><path class="cls-11" d="M385.74,838.48h80.58s8.31-16.17-24.81-18c0,0-18-.35-24.66-17.15"/><path class="cls-11" d="M291.93,623.76s9.49.77,21.84,2.39c15.16,2,34.62,5.2,46.07,9.81a35.93,35.93,0,0,1,4.63,2.2c17.17,9.88,66,169.44,66,169.44A26.52,26.52,0,0,0,416.86,803a19.91,19.91,0,0,0-13.39,4.59s0,0,0,0"/><path class="cls-11" d="M267,468.48H249.13V474s-3.14-2.48-3.59,0,3.14,4.27,3.14,4.27l-5.61,8.3h-4.85"/><path class="cls-11" d="M241.61,458.78s-4.16-25.25-18.53-28.94c-13.51-3.47-31,6.76-25.21,25.29a35.63,35.63,0,0,0,1.4,3.65c.37.82.7,1.62,1,2.38,5,14.34-7.47,18.63-15,25.4a15,15,0,0,0-4.81,7c-3.59,12.58,3.57,34.08,28.28,23.78"/><path class="cls-11" d="M220.14,699.57H159.3a9.61,9.61,0,1,0,0,19.21H316.41"/><path class="cls-11" d="M188,656l-.25,0a67.13,67.13,0,0,1-13.89-2.72,72,72,0,0,1-30-17.32c-7.62-7.47-14.36-17.71-18.33-31.75a109.49,109.49,0,0,1-3.74-31.92A164.58,164.58,0,0,1,123,555.5a235.56,235.56,0,0,1,6.42-32.28,64.88,64.88,0,0,1,11.86-23.87c8.7-10.8,27.44-19.75,43.93-12.79"/><path class="cls-11" d="M173.87,653.23H162.75a3.46,3.46,0,0,0-3.45,3.45v.48a3.46,3.46,0,0,0,3.45,3.45h26.13"/><path class="cls-11" d="M190.84,668.24H162.75a3.46,3.46,0,0,0-3.45,3.46v.17a3.45,3.45,0,0,0,3.45,3.45h30.72"/><path class="cls-11" d="M198.25,682.06h-35.5a3.45,3.45,0,1,0,0,6.9h41.13"/><line class="cls-11" x1="225.77" y1="718.78" x2="219.71" y2="812.77"/><line class="cls-11" x1="247.45" y1="718.78" x2="256.97" y2="812.77"/><polyline class="cls-11" points="166.71 812.77 219.71 812.77 238.75 812.77 256.97 812.77 311.42 812.77"/><path class="cls-11" d="M179.57,825.62a12.86,12.86,0,1,1-12.86-12.85A12.86,12.86,0,0,1,179.57,825.62Z"/><path class="cls-11" d="M298.56,825.62a12.86,12.86,0,1,1,12.86,12.86A12.86,12.86,0,0,1,298.56,825.62Z"/><path class="cls-11" d="M251.61,825.62a12.86,12.86,0,1,1-12.86-12.85A12.86,12.86,0,0,1,251.61,825.62Z"/><path class="cls-11" d="M.29,636v0c0-1.34,140.77,0,143.6,0h0"/><polyline class="cls-11" points="125.56 604.16 100.68 604.16 0.29 604.16 0.29 635.91"/><path class="cls-11" d="M121.83,572.24H48.63a5.89,5.89,0,0,1-5.89-5.89V461a5.89,5.89,0,0,1,5.89-5.89H197.87"/><line class="cls-11" x1="108.09" y1="572.24" x2="100.68" y2="604.16"/><polyline class="cls-11" points="199.27 461.23 49.26 461.23 49.26 555.5 123.02 555.5"/><path class="cls-11" d="M340.72,606.48a12.11,12.11,0,0,1-1.72.12H328.18c-.29,0-.58,0-.86,0a11.77,11.77,0,0,1-10.91-11.74V572.24h34.36v22.59A11.78,11.78,0,0,1,340.72,606.48Z"/><path class="cls-11" d="M337.32,550.47a11.12,11.12,0,1,1-3.73-.65,11.19,11.19,0,0,1,3.73.65"/><line class="cls-11" x1="333.59" y1="572.24" x2="333.59" y2="549.82"/><path class="cls-11" d="M337.31,550.46h0a25,25,0,0,1,0,21.12"/><path class="cls-11" d="M330,550.46h0a25,25,0,0,0,0,21.12"/><path class="cls-11" d="M271.86,575.73h0c.16.53,5.8,20.06,10.41,30.86,1.41,3.31,2.73,5.8,3.76,6.67,4.44,3.74,27.74,12.88,27.74,12.88"/><path class="cls-9" d="M238.92,137v21.89a46.69,46.69,0,0,1-72.87,38.68V177.81a6.33,6.33,0,0,0,0-10v-7.67a6.34,6.34,0,0,0,0-12.64V137h72.87Zm-5.53,13.06a6.34,6.34,0,1,0-6.33,6.34A6.32,6.32,0,0,0,233.39,150.06Zm-6.33,22.75a6.34,6.34,0,1,0-6.34,6.34A6.33,6.33,0,0,0,227.06,172.81ZM213,188.45a6.34,6.34,0,1,0-6.34,6.33A6.34,6.34,0,0,0,213,188.45Zm-1.11-30.38a6.34,6.34,0,1,0-6.34,6.34A6.34,6.34,0,0,0,211.89,158.07Zm-14.66,14.74a6.34,6.34,0,1,0-6.34,6.34A6.33,6.33,0,0,0,197.23,172.81Zm-7.67-22.75a6.34,6.34,0,1,0-6.33,6.34A6.32,6.32,0,0,0,189.56,150.06Zm-5,40.26a6.34,6.34,0,1,0-6.34,6.34A6.34,6.34,0,0,0,184.56,190.32Z"/><path class="cls-5" d="M227.06,143.73a6.34,6.34,0,1,1-6.34,6.33A6.32,6.32,0,0,1,227.06,143.73Z"/><path class="cls-5" d="M220.72,166.48a6.34,6.34,0,1,1-6.33,6.33A6.33,6.33,0,0,1,220.72,166.48Z"/><path class="cls-5" d="M206.66,182.11a6.34,6.34,0,1,1-6.33,6.34A6.34,6.34,0,0,1,206.66,182.11Z"/><path class="cls-5" d="M205.55,151.74a6.34,6.34,0,1,1-6.33,6.33A6.34,6.34,0,0,1,205.55,151.74Z"/><path class="cls-5" d="M190.89,166.48a6.34,6.34,0,1,1-6.33,6.33A6.33,6.33,0,0,1,190.89,166.48Z"/><path class="cls-5" d="M183.23,143.73a6.34,6.34,0,1,1-6.34,6.33A6.32,6.32,0,0,1,183.23,143.73Z"/><path class="cls-5" d="M178.22,184a6.34,6.34,0,1,1-6.33,6.34A6.34,6.34,0,0,1,178.22,184Z"/><path class="cls-5" d="M166.05,147.5a6.34,6.34,0,0,1,0,12.64V147.5Z"/><path class="cls-5" d="M166.05,167.81a6.33,6.33,0,0,1,0,10Z"/><path class="cls-9" d="M166.05,195v2.56c-1.05-.7-2.06-1.45-3.05-2.24V179.09a6.22,6.22,0,0,0,3.05-1.28V195Z"/><path class="cls-5" d="M166.05,167.81v10a6.22,6.22,0,0,1-3.05,1.28V166.53A6.22,6.22,0,0,1,166.05,167.81Z"/><path class="cls-9" d="M166.05,166.21v1.6a6.22,6.22,0,0,0-3.05-1.28v-6.91a6.36,6.36,0,0,0,2.55.53h.5Z"/><path class="cls-5" d="M166.05,159.29v.85h-.5a6.36,6.36,0,0,1-2.55-.53V148a6.36,6.36,0,0,1,2.55-.54l.5,0v11.79Z"/><path class="cls-9" d="M166.05,137v10.5l-.5,0A6.36,6.36,0,0,0,163,148V137Z"/><path class="cls-9" d="M163,179.09v16.24a46.61,46.61,0,0,1-17.48-36.44V137H163v11a6.34,6.34,0,0,0,0,11.6v6.91a7.89,7.89,0,0,0-.84-.05,6.34,6.34,0,0,0,0,12.67A5.93,5.93,0,0,0,163,179.09Z"/><path class="cls-5" d="M163,166.53v12.56a5.93,5.93,0,0,1-.84.06,6.34,6.34,0,0,1,0-12.67A7.89,7.89,0,0,1,163,166.53Z"/><path class="cls-5" d="M163,148v11.6a6.34,6.34,0,0,1,0-11.6Z"/><path class="cls-7" d="M395.84,151.11V173a46.71,46.71,0,0,1-75.93,36.43V193.2a6.33,6.33,0,0,0,0-12.55v-6.92a6.44,6.44,0,0,0,2.55.54,6.34,6.34,0,1,0,0-12.67,6.43,6.43,0,0,0-2.55.53v-11h75.93Zm-5.53,13.07a6.34,6.34,0,1,0-6.33,6.34A6.33,6.33,0,0,0,390.31,164.18ZM384,186.92a6.34,6.34,0,1,0-6.34,6.34A6.34,6.34,0,0,0,384,186.92Zm-14.06,15.64a6.34,6.34,0,1,0-6.34,6.33A6.34,6.34,0,0,0,369.92,202.56Zm-1.12-30.37a6.34,6.34,0,1,0-6.34,6.34A6.33,6.33,0,0,0,368.8,172.19Zm-14.65,14.73a6.34,6.34,0,1,0-6.34,6.34A6.33,6.33,0,0,0,354.15,186.92Zm-7.67-22.74a6.34,6.34,0,1,0-6.33,6.34A6.33,6.33,0,0,0,346.48,164.18Zm-5,40.25a6.34,6.34,0,1,0-6.34,6.34A6.33,6.33,0,0,0,341.48,204.43Z"/><path class="cls-9" d="M384,157.84a6.34,6.34,0,1,1-6.34,6.34A6.33,6.33,0,0,1,384,157.84Z"/><path class="cls-9" d="M377.64,180.59a6.34,6.34,0,1,1-6.33,6.33A6.34,6.34,0,0,1,377.64,180.59Z"/><path class="cls-9" d="M363.58,196.22a6.34,6.34,0,1,1-6.33,6.34A6.34,6.34,0,0,1,363.58,196.22Z"/><path class="cls-9" d="M362.46,165.86a6.34,6.34,0,1,1-6.33,6.33A6.33,6.33,0,0,1,362.46,165.86Z"/><path class="cls-9" d="M347.81,180.59a6.34,6.34,0,1,1-6.33,6.33A6.33,6.33,0,0,1,347.81,180.59Z"/><path class="cls-9" d="M340.15,157.84a6.34,6.34,0,1,1-6.34,6.34A6.33,6.33,0,0,1,340.15,157.84Z"/><path class="cls-9" d="M335.14,198.1a6.34,6.34,0,1,1-6.33,6.33A6.33,6.33,0,0,1,335.14,198.1Z"/><path class="cls-9" d="M322.46,161.6a6.34,6.34,0,1,1,0,12.67,6.44,6.44,0,0,1-2.55-.54v-11.6A6.43,6.43,0,0,1,322.46,161.6Z"/><path class="cls-9" d="M319.91,180.65a6.33,6.33,0,0,1,0,12.55Z"/><path class="cls-7" d="M319.91,193.2v16.24l-.05-.05V193.21Z"/><path class="cls-9" d="M319.91,180.65V193.2h-.05V180.64Z"/><path class="cls-7" d="M319.91,173.73v6.92h-.05V173.7Z"/><path class="cls-9" d="M319.91,162.13v11.6l-.05,0V162.16Z"/><path class="cls-7" d="M319.91,151.11v11l-.05,0v-11Z"/><path class="cls-7" d="M319.86,209.11v.28A46.59,46.59,0,0,1,302.44,173v-21.9h17.42v11a6.33,6.33,0,0,0,0,11.54v6.94a6.84,6.84,0,0,0-.79,0,6.34,6.34,0,0,0,0,12.67,6.84,6.84,0,0,0,.79,0Z"/><path class="cls-9" d="M319.86,192.87v.34a6.84,6.84,0,0,1-.79,0,6.34,6.34,0,0,1,0-12.67,6.84,6.84,0,0,1,.79,0Z"/><path class="cls-9" d="M319.86,173.4v.3a6.33,6.33,0,0,1,0-11.54Z"/><path class="cls-11" d="M395.84,151.11V173a46.71,46.71,0,0,1-75.93,36.43l-.05-.05A46.59,46.59,0,0,1,302.44,173v-21.9h93.4Z"/><path class="cls-11" d="M287.84,299.82l9.2-9.22a29.71,29.71,0,0,0,0-42l-9.1-9.11a29.71,29.71,0,0,1-8.71-21V150.78A29.72,29.72,0,0,1,309,121.06h10.4c.85,0,1.7,0,2.53.12a.12.12,0,0,1,.1,0l.26,0a29.68,29.68,0,0,1,26.84,29.56"/><path class="cls-11" d="M362.41,150.78V131.07a24.62,24.62,0,0,1,8.07-18.26.43.43,0,0,1,.09-.1,24.72,24.72,0,0,1,41.28,18.36v17.61a24.69,24.69,0,0,0,7.24,17.48l2.73,2.73c.57.57,1.1,1.17,1.62,1.78a24.76,24.76,0,0,1,5.62,15.7v6.74a24.75,24.75,0,0,1-7.24,17.48l-2.22,2.22-7.86,7.87a24.64,24.64,0,0,0-7.24,17.48V263"/><path class="cls-11" d="M356.15,150.78V129.51a18.15,18.15,0,0,0-30.78-13l-.2.19c-.23.24-.47.48-.68.72a17.87,17.87,0,0,0-2.61,3.79c-.11.2-.22.42-.31.63-.18.38-.35.77-.5,1.17a18.12,18.12,0,0,0-1.21,6.53V242.82a18.1,18.1,0,0,0,5.31,12.82l9,9a18.19,18.19,0,0,1,5.31,12.84v17.23a18.15,18.15,0,0,1-5.31,12.83l-10.7,10.7"/><path class="cls-11" d="M302.44,151.11,321.07,123l.55-.84.41-.62.21-.3,2.31-3.49.82-1.25L341,93a9.81,9.81,0,0,1,16.35,0l13.17,19.86.15.24,25.21,38.06"/><line class="cls-11" x1="349.14" y1="88.56" x2="349.14" y2="14.11"/><path class="cls-11" d="M384,157.84a6.34,6.34,0,1,1-6.34,6.34A6.33,6.33,0,0,1,384,157.84Z"/><path class="cls-11" d="M377.64,180.59a6.34,6.34,0,1,1-6.33,6.33A6.34,6.34,0,0,1,377.64,180.59Z"/><path class="cls-11" d="M340.15,157.84a6.34,6.34,0,1,1-6.34,6.34A6.33,6.33,0,0,1,340.15,157.84Z"/><path class="cls-11" d="M362.46,165.86a6.34,6.34,0,1,1-6.33,6.33A6.33,6.33,0,0,1,362.46,165.86Z"/><path class="cls-11" d="M347.81,180.59a6.34,6.34,0,1,1-6.33,6.33A6.33,6.33,0,0,1,347.81,180.59Z"/><path class="cls-11" d="M319.91,180.65a6.33,6.33,0,0,1,0,12.55h-.05a6.84,6.84,0,0,1-.79,0,6.34,6.34,0,0,1,0-12.67,6.84,6.84,0,0,1,.79,0Z"/><path class="cls-11" d="M335.14,198.1a6.34,6.34,0,1,1-6.33,6.33A6.33,6.33,0,0,1,335.14,198.1Z"/><path class="cls-11" d="M363.58,196.22a6.34,6.34,0,1,1-6.33,6.34A6.34,6.34,0,0,1,363.58,196.22Z"/><path class="cls-11" d="M319.91,162.13a6.43,6.43,0,0,1,2.55-.53,6.34,6.34,0,1,1,0,12.67,6.44,6.44,0,0,1-2.55-.54l-.05,0a6.33,6.33,0,0,1,0-11.54Z"/><path class="cls-11" d="M238.92,137v21.89a46.69,46.69,0,0,1-72.87,38.68c-1.05-.7-2.06-1.45-3.05-2.24a46.61,46.61,0,0,1-17.48-36.44V137h93.4Z"/><path class="cls-11" d="M134,285.71l9.21-9.21a29.73,29.73,0,0,0,0-42l-9.1-9.12a29.68,29.68,0,0,1-8.71-21V136.68A29.72,29.72,0,0,1,155.14,107h10.4c.85,0,1.7,0,2.53.11a.12.12,0,0,1,.1,0,29.72,29.72,0,0,1,27.1,29.6"/><path class="cls-11" d="M202.34,119.92V100.21a24.61,24.61,0,0,1,6.22-16.39,25.89,25.89,0,0,1,1.95-2,24.72,24.72,0,0,1,41.27,18.36v17.61A24.72,24.72,0,0,0,259,135.29l2.74,2.74A24.73,24.73,0,0,1,269,155.51v6.74a24.75,24.75,0,0,1-7.24,17.48l-10.09,10.08a24.7,24.7,0,0,0-7.24,17.48v24.86"/><path class="cls-11" d="M145.52,137l19.19-29,.41-.63.29-.44,2.22-3.35L184,78.84a9.82,9.82,0,0,1,16.36,0l13.32,20.09,1.09,1.66L238.92,137"/><line class="cls-11" x1="192.22" y1="74.45" x2="192.22"/><path class="cls-11" d="M227.06,143.73a6.34,6.34,0,1,1-6.34,6.33A6.32,6.32,0,0,1,227.06,143.73Z"/><path class="cls-11" d="M220.72,166.48a6.34,6.34,0,1,1-6.33,6.33A6.33,6.33,0,0,1,220.72,166.48Z"/><path class="cls-11" d="M183.23,143.73a6.34,6.34,0,1,1-6.34,6.33A6.32,6.32,0,0,1,183.23,143.73Z"/><path class="cls-11" d="M205.55,151.74a6.34,6.34,0,1,1-6.33,6.33A6.34,6.34,0,0,1,205.55,151.74Z"/><path class="cls-11" d="M190.89,166.48a6.34,6.34,0,1,1-6.33,6.33A6.33,6.33,0,0,1,190.89,166.48Z"/><path class="cls-11" d="M163,166.53a6.22,6.22,0,0,1,3.05,1.28,6.33,6.33,0,0,1,0,10,6.22,6.22,0,0,1-3.05,1.28,5.93,5.93,0,0,1-.84.06,6.34,6.34,0,0,1,0-12.67A7.89,7.89,0,0,1,163,166.53Z"/><path class="cls-11" d="M178.22,184a6.34,6.34,0,1,1-6.33,6.34A6.34,6.34,0,0,1,178.22,184Z"/><path class="cls-11" d="M206.66,182.11a6.34,6.34,0,1,1-6.33,6.34A6.34,6.34,0,0,1,206.66,182.11Z"/><path class="cls-11" d="M163,148a6.36,6.36,0,0,1,2.55-.54l.5,0a6.34,6.34,0,0,1,0,12.64h-.5A6.33,6.33,0,0,1,163,148Z"/><path class="cls-9" d="M145,769.74v51.94a11.77,11.77,0,0,1-11.77,11.78H93a11.78,11.78,0,0,1-11.78-11.78V769.74H145Z"/><path class="cls-5" d="M120.05,684.55c8.08,6,13.86,22.27,13.86,41.35s-5.78,35.33-13.86,41.35v0c9.64-46,0-82.65,0-82.65Z"/><path class="cls-5" d="M120,684.58s9.64,36.65,0,82.65v0a11.48,11.48,0,0,1-6.93,2.49V682.06a11.48,11.48,0,0,1,6.93,2.49Z"/><path class="cls-5" d="M113.12,682.06v87.68a11.43,11.43,0,0,1-6.8-2.4l.08-.11c-9.65-46,0-82.65,0-82.65l-.08-.12A11.43,11.43,0,0,1,113.12,682.06Z"/><path class="cls-5" d="M106.32,684.46l.08.12s-9.65,36.65,0,82.65l-.08.11c-8.14-6-14-22.25-14-41.44S98.18,690.41,106.32,684.46Z"/><path class="cls-11" d="M133.21,833.46H93a11.78,11.78,0,0,1-11.78-11.78V769.74H145v51.94A11.77,11.77,0,0,1,133.21,833.46Z"/><path class="cls-11" d="M120.05,684.55c8.08,6,13.86,22.27,13.86,41.35s-5.78,35.33-13.86,41.35a10.86,10.86,0,0,1-13.73.09c-8.14-6-14-22.25-14-41.44s5.84-35.49,14-41.44a10.86,10.86,0,0,1,13.73.09Z"/><line class="cls-11" x1="113.12" y1="769.74" x2="113.12" y2="682.06"/><path class="cls-11" d="M120,684.58s9.64,36.65,0,82.65"/><path class="cls-11" d="M106.4,684.58s-9.65,36.65,0,82.65"/><polyline class="cls-11" points="271.66 467.35 271.66 473.57 271.66 479.81"/><polyline class="cls-11" points="271.66 473.57 267.44 473.57 249.13 473.57"/></g></g></svg>