<svg width="217" height="169" viewBox="0 0 217 169" fill="none" xmlns="http://www.w3.org/2000/svg">
<path fill-rule="evenodd" clip-rule="evenodd" d="M163.131 -52.8418C161.044 -33.6609 171.624 -15.3415 189.277 -7.55568C224.481 7.96512 224.481 57.9174 189.277 73.4409C171.624 81.224 161.044 99.5461 163.131 118.727C167.289 156.976 124.031 181.953 92.9841 159.224C77.4178 147.829 56.2624 147.829 40.6961 159.224C9.64916 181.953 -33.6089 156.976 -29.4511 118.727C-27.3642 99.5461 -37.9459 81.224 -55.5965 73.4409C-90.8012 57.9174 -90.8012 7.96512 -55.5965 -7.55568C-37.9459 -15.3415 -27.3642 -33.6609 -29.4511 -52.8418C-33.6089 -91.0913 9.64916 -116.067 40.6961 -93.3414C56.2624 -81.9436 77.4178 -81.9436 92.9841 -93.3414C124.031 -116.067 167.289 -91.0913 163.131 -52.8418Z" stroke="#FAF0F0" stroke-width="2"/>
</svg>
