<svg width="86" height="86" viewBox="0 0 86 86" fill="none" xmlns="http://www.w3.org/2000/svg">
<g clip-path="url(#clip0_701:334)">
<path d="M51.8398 31.78C51.5095 31.78 51.1867 31.8779 50.9121 32.0614C50.6375 32.2449 50.4234 32.5058 50.297 32.8109C50.1706 33.1161 50.1376 33.4518 50.202 33.7758C50.2665 34.0997 50.4255 34.3973 50.6591 34.6309C50.8926 34.8644 51.1901 35.0235 51.514 35.0879C51.838 35.1523 52.1739 35.1193 52.479 34.9929C52.7842 34.8665 53.0449 34.6524 53.2284 34.3778C53.4119 34.1032 53.5099 33.7804 53.5099 33.4501C53.5099 33.0072 53.3339 32.5824 53.0208 32.2692C52.7076 31.956 52.2828 31.78 51.8398 31.78Z" fill="#333333"/>
<path d="M83.6597 74.2099L61.3397 51.8899C64.9752 46.4286 66.9069 40.0107 66.8897 33.45C66.8925 25.9942 64.4058 18.7509 59.8239 12.8691C55.2421 6.98726 48.8274 2.80369 41.5976 0.981969C34.3678 -0.839748 26.7368 -0.195212 19.9149 2.81315C13.0929 5.8215 7.47071 11.0214 3.94013 17.5883C0.409551 24.1552 -0.827205 31.7129 0.425847 39.0627C1.6789 46.4124 5.35007 53.1334 10.8571 58.1595C16.3642 63.1855 23.3917 66.2288 30.825 66.8068C38.2584 67.3848 45.6719 65.4643 51.8897 61.3499L58.0598 67.5199L74.2097 83.67C75.4642 84.9242 77.1657 85.6288 78.9398 85.6288C80.7138 85.6288 82.4152 84.9242 83.6697 83.67C84.924 82.4154 85.6286 80.714 85.6286 78.94C85.6286 77.1659 84.924 75.4645 83.6697 74.2099H83.6597ZM51.0897 57.82C45.9655 61.5585 39.7828 63.5657 33.4398 63.55C27.487 63.548 21.6684 61.781 16.7198 58.4723C11.7712 55.1637 7.91479 50.4621 5.63813 44.9618C3.36146 39.4616 2.76672 33.4097 3.92926 27.5716C5.09181 21.7334 7.95942 16.3711 12.1694 12.1625C16.3793 7.95395 21.7426 5.08813 27.5811 3.92753C33.4197 2.76692 39.4713 3.36363 44.9708 5.64212C50.4702 7.92062 55.1706 11.7786 58.4776 16.7283C61.7846 21.678 63.5497 27.4972 63.5497 33.45C63.5475 38.2079 62.417 42.8974 60.251 47.1337C58.0851 51.37 54.9454 55.0323 51.0897 57.82ZM54.5997 59.3399C56.3299 57.9246 57.9145 56.3401 59.3298 54.6099L64.0798 59.3499C62.6358 61.0539 61.0537 62.6359 59.3497 64.0799L54.5997 59.3399ZM81.2998 81.3399C80.9895 81.651 80.6209 81.8979 80.215 82.0663C79.8092 82.2347 79.3742 82.3214 78.9348 82.3214C78.4954 82.3214 78.0602 82.2347 77.6544 82.0663C77.2485 81.8979 76.88 81.651 76.5698 81.3399L61.7197 66.4999C63.4092 65.0403 64.9902 63.4595 66.4498 61.7699L81.2998 76.6199C81.6106 76.9293 81.8572 77.2971 82.0255 77.7021C82.1938 78.1071 82.2803 78.5413 82.2803 78.9799C82.2803 79.4185 82.1938 79.8527 82.0255 80.2577C81.8572 80.6627 81.6106 81.0305 81.2998 81.3399Z" fill="#333333"/>
<path d="M33.4402 6.68994C28.1476 6.68994 22.9738 8.25928 18.5732 11.1997C14.1725 14.1401 10.7426 18.3195 8.71719 23.2092C6.69179 28.099 6.16183 33.4796 7.19437 38.6705C8.22691 43.8615 10.7755 48.6296 14.518 52.3721C18.2604 56.1145 23.0286 58.6631 28.2195 59.6957C33.4104 60.7282 38.7911 60.1983 43.6808 58.1729C48.5706 56.1474 52.7499 52.7176 55.6903 48.3169C58.6308 43.9162 60.2002 38.7426 60.2002 33.45C60.1923 26.3552 57.3703 19.5533 52.3535 14.5365C47.3368 9.51975 40.535 6.69788 33.4402 6.68994ZM33.4402 56.8699C28.8082 56.8699 24.2801 55.4963 20.4287 52.9229C16.5773 50.3494 13.5755 46.6918 11.8029 42.4124C10.0303 38.1329 9.56646 33.4239 10.4701 28.8809C11.3738 24.3378 13.6044 20.1648 16.8798 16.8894C20.1551 13.6141 24.3281 11.3835 28.8711 10.4799C33.4142 9.57619 38.1232 10.04 42.4026 11.8126C46.6821 13.5852 50.3398 16.5871 52.9132 20.4385C55.4867 24.2899 56.8601 28.8179 56.8601 33.45C56.8548 39.6597 54.3857 45.6136 49.9948 50.0045C45.6038 54.3955 39.65 56.8646 33.4402 56.8699Z" fill="#333333"/>
<path d="M52.1902 26.2699C50.7273 22.4824 48.1544 19.2253 44.8086 16.9252C41.4628 14.6251 37.5003 13.3893 33.4402 13.3799C33.0183 13.4125 32.6242 13.6032 32.3368 13.9137C32.0493 14.2242 31.8896 14.6318 31.8896 15.0549C31.8896 15.4781 32.0493 15.8856 32.3368 16.1962C32.6242 16.5067 33.0183 16.6972 33.4402 16.7299C36.821 16.7452 40.1189 17.7778 42.9048 19.6934C45.6907 21.6089 47.8356 24.3186 49.0602 27.4698C49.1817 27.7877 49.3969 28.0612 49.6772 28.254C49.9576 28.4469 50.2898 28.5501 50.6301 28.5499C50.8327 28.5486 51.0331 28.5079 51.2201 28.4299C51.426 28.3523 51.6145 28.2346 51.7748 28.0839C51.9351 27.9331 52.064 27.7522 52.1542 27.5515C52.2443 27.3508 52.2939 27.1343 52.3 26.9143C52.3062 26.6944 52.2689 26.4754 52.1902 26.2699Z" fill="#333333"/>
</g>
<defs>
<clipPath id="clip0_701:334">
<rect width="85.62" height="85.62" fill="white"/>
</clipPath>
</defs>
</svg>
