<svg width="197" height="496" viewBox="0 0 197 496" fill="none" xmlns="http://www.w3.org/2000/svg">
<g clip-path="url(#clip0_701:480)">
<path d="M108.17 247.75C112.676 247.601 117.145 246.882 121.47 245.61C121.612 246.105 121.796 246.587 122.02 247.05C122.144 247.322 122.248 247.603 122.33 247.89H108.25L108.17 247.75Z" fill="#F3EBE3" stroke="#2D2D2E" stroke-width="0.31" stroke-miterlimit="10"/>
<path d="M78.0498 226.14L82.6598 235.38C79.3598 237.16 76.5098 238.75 76.5098 238.75V236.8C77.2542 233.284 77.7687 229.723 78.0498 226.14Z" fill="#F3EBE3" stroke="#2D2D2E" stroke-width="0.31" stroke-miterlimit="10"/>
<path d="M96.4399 225.15C99.5868 224.007 103.021 223.923 106.22 224.91C109.504 226.06 113.067 226.141 116.4 225.14C116.62 225.74 116.83 226.34 117.04 226.94C117.04 226.94 106.35 228.28 98.71 229.53L96.4399 225.15Z" fill="#F3EBE3" stroke="#2D2D2E" stroke-width="0.31" stroke-miterlimit="10"/>
<path d="M81.1699 195.56C84.2667 196.406 87.422 197.022 90.6099 197.4C95.1709 199.688 99.5651 202.294 103.76 205.2L87.7599 208.34L81.1699 195.56Z" fill="#F3EBE3" stroke="#2D2D2E" stroke-width="0.31" stroke-miterlimit="10"/>
<path d="M56.8999 214.24L56.1199 215.65C54.5899 218.4 53.0099 221.1 51.4999 223.38C50.445 225.186 49.6059 227.109 48.9999 229.11C47.9419 232.303 47.4579 235.658 47.5699 239.02L47.8999 247.89H0.169922V0.160156H196.25V247.89H164.66L164.44 248.03C155.71 233.59 145.64 215.72 145.2 214.94C140.91 203.78 136.12 194.2 131.76 192.02C122.68 187.48 105.12 177.7 86.7599 176.02C81.8197 175.526 76.834 175.755 71.96 176.7C71.78 176.739 71.6054 176.799 71.4399 176.88L66.4399 167.26C66.3117 167.018 66.0977 166.833 65.84 166.74L56.3199 163.34L55.23 162.04C55.169 161.965 55.0839 161.913 54.9891 161.894C54.8944 161.874 54.7957 161.887 54.7098 161.932C54.624 161.977 54.5562 162.05 54.5179 162.139C54.4797 162.228 54.4733 162.327 54.4999 162.42L54.9299 164.08L52.2899 174.19C52.2177 174.441 52.2463 174.71 52.3699 174.94L64.5699 199.34C64.3506 199.567 64.1683 199.827 64.0299 200.11C62.7099 202.97 59.9499 208.62 56.8999 214.24ZM165.09 214.24V212.67H163.52V214.24H165.09ZM165.09 207.38V205.67L159.03 202.67L152.63 205.82V214.21H154.06V211.46C154.06 210.55 154.58 209.98 155.26 209.98C155.413 209.965 155.568 209.986 155.712 210.041C155.856 210.096 155.986 210.184 156.09 210.297C156.195 210.41 156.272 210.546 156.315 210.694C156.358 210.842 156.367 210.998 156.34 211.15V214.21H157.76V210.79C157.753 210.403 157.633 210.026 157.416 209.706C157.199 209.385 156.894 209.134 156.537 208.984C156.18 208.834 155.787 208.79 155.406 208.858C155.025 208.927 154.672 209.105 154.39 209.37C154.363 209.399 154.328 209.419 154.29 209.428C154.252 209.436 154.212 209.432 154.175 209.417C154.139 209.402 154.109 209.375 154.088 209.342C154.067 209.308 154.057 209.269 154.06 209.23V206.83L159.06 204.38L165.09 207.38Z" fill="#F3EBE3" stroke="#2D2D2E" stroke-width="0.31" stroke-miterlimit="10"/>
<path d="M168.01 421.24H164V495.52H168.01V421.24Z" fill="#3D4543"/>
<path d="M165.08 212.67H163.52V214.23H165.08V212.67Z" fill="#3D4543"/>
<path d="M164 421.24H158.15V495.52H164V421.24Z" fill="#676767" stroke="#2D2D2E" stroke-width="0.31" stroke-miterlimit="10"/>
<path d="M156.35 211.18C156.377 211.028 156.369 210.872 156.325 210.724C156.282 210.576 156.205 210.44 156.1 210.327C155.996 210.214 155.866 210.126 155.722 210.071C155.578 210.016 155.424 209.995 155.27 210.01C154.59 210.01 154.07 210.58 154.07 211.49V214.24H152.64V205.85L159.04 202.7L165.1 205.7V207.41L159.04 204.41L154.04 206.86V209.26C154.038 209.299 154.047 209.338 154.068 209.372C154.089 209.405 154.119 209.432 154.156 209.447C154.192 209.462 154.232 209.466 154.27 209.458C154.309 209.449 154.344 209.429 154.37 209.4C154.652 209.135 155.005 208.957 155.386 208.888C155.767 208.82 156.16 208.863 156.517 209.014C156.874 209.164 157.179 209.415 157.397 209.736C157.614 210.056 157.733 210.433 157.74 210.82V214.24H156.32L156.35 211.18Z" fill="#3D4543"/>
<path d="M152.68 421.24H158.15V495.52H152.31V421.24H152.68Z" fill="#3D4543"/>
<path d="M152.31 421.24H146.46V495.52H152.31V421.24Z" fill="#676767" stroke="#2D2D2E" stroke-width="0.31" stroke-miterlimit="10"/>
<path d="M146.46 421.24H140.62V495.52H146.46V421.24Z" fill="#3D4543"/>
<path d="M140.62 421.24H134.77V495.52H140.62V421.24Z" fill="#676767" stroke="#2D2D2E" stroke-width="0.31" stroke-miterlimit="10"/>
<path d="M128.92 479.07V495.55H123.07V482.48C125.38 482.122 127.47 480.904 128.92 479.07Z" fill="#676767" stroke="#2D2D2E" stroke-width="0.31" stroke-miterlimit="10"/>
<path d="M128.92 467.43C127.469 465.599 125.379 464.384 123.07 464.03V452.65C125.381 452.294 127.473 451.08 128.93 449.25L128.92 467.43Z" fill="#676767" stroke="#2D2D2E" stroke-width="0.31" stroke-miterlimit="10"/>
<path d="M128.92 421.24V437.62C127.461 435.791 125.371 434.574 123.06 434.21V421.21L128.92 421.24Z" fill="#676767" stroke="#2D2D2E" stroke-width="0.31" stroke-miterlimit="10"/>
<path d="M128.92 437.62V421.24H134.77V495.52H128.92V479.07C130.233 477.42 130.948 475.374 130.948 473.265C130.948 471.156 130.233 469.109 128.92 467.46V449.27C130.234 447.618 130.95 445.57 130.95 443.46C130.95 441.349 130.234 439.301 128.92 437.65V437.62Z" fill="#3D4543"/>
<path d="M124.06 441.74C124.066 441.697 124.066 441.653 124.06 441.61C124.066 441.653 124.066 441.697 124.06 441.74Z" fill="#676767" stroke="#2D2D2E" stroke-width="0.31" stroke-miterlimit="10"/>
<path d="M124.06 444.83C124.066 444.787 124.066 444.743 124.06 444.7C124.066 444.743 124.066 444.787 124.06 444.83Z" fill="#676767" stroke="#2D2D2E" stroke-width="0.31" stroke-miterlimit="10"/>
<path d="M124.06 471.55C124.066 471.507 124.066 471.463 124.06 471.42C124.066 471.463 124.066 471.507 124.06 471.55Z" fill="#676767" stroke="#2D2D2E" stroke-width="0.31" stroke-miterlimit="10"/>
<path d="M124.06 474.64C124.066 474.597 124.066 474.553 124.06 474.51C124.066 474.553 124.066 474.597 124.06 474.64Z" fill="#676767" stroke="#2D2D2E" stroke-width="0.31" stroke-miterlimit="10"/>
<path d="M123.93 441.45V441.39V441.45Z" fill="#676767" stroke="#2D2D2E" stroke-width="0.31" stroke-miterlimit="10"/>
<path d="M123.93 444.54V444.48V444.54Z" fill="#676767" stroke="#2D2D2E" stroke-width="0.31" stroke-miterlimit="10"/>
<path d="M123.93 471.26C123.934 471.24 123.934 471.22 123.93 471.2V471.26Z" fill="#676767" stroke="#2D2D2E" stroke-width="0.31" stroke-miterlimit="10"/>
<path d="M123.93 474.35V474.29V474.35Z" fill="#676767" stroke="#2D2D2E" stroke-width="0.31" stroke-miterlimit="10"/>
<path d="M123.75 441.29L123.64 441.23C123.68 441.244 123.717 441.264 123.75 441.29Z" fill="#676767" stroke="#2D2D2E" stroke-width="0.31" stroke-miterlimit="10"/>
<path d="M123.75 444.38H123.64H123.75Z" fill="#676767" stroke="#2D2D2E" stroke-width="0.31" stroke-miterlimit="10"/>
<path d="M123.75 471.07L123.64 471.02L123.75 471.07Z" fill="#676767" stroke="#2D2D2E" stroke-width="0.31" stroke-miterlimit="10"/>
<path d="M123.75 474.19C123.717 474.164 123.68 474.144 123.64 474.13C123.68 474.144 123.717 474.164 123.75 474.19Z" fill="#676767" stroke="#2D2D2E" stroke-width="0.31" stroke-miterlimit="10"/>
<path d="M123.64 441.23H123.51H123.64Z" fill="#676767" stroke="#2D2D2E" stroke-width="0.31" stroke-miterlimit="10"/>
<path d="M123.64 444.33L123.51 444.28L123.64 444.33Z" fill="#676767" stroke="#2D2D2E" stroke-width="0.31" stroke-miterlimit="10"/>
<path d="M123.64 471.07H123.51C123.552 471.06 123.597 471.06 123.64 471.07Z" fill="#676767" stroke="#2D2D2E" stroke-width="0.31" stroke-miterlimit="10"/>
<path d="M123.64 474.13H123.51H123.64Z" fill="#676767" stroke="#2D2D2E" stroke-width="0.31" stroke-miterlimit="10"/>
<path d="M123.51 471H123.37H123.51Z" fill="#676767" stroke="#2D2D2E" stroke-width="0.31" stroke-miterlimit="10"/>
<path d="M117.23 451.65C118.581 452.381 120.094 452.763 121.63 452.76C122.109 452.755 122.587 452.715 123.06 452.64V464.07C122.584 463.989 122.103 463.949 121.62 463.95C120.084 463.947 118.571 464.329 117.22 465.06L117.23 451.65Z" fill="#3D4543"/>
<path d="M117.23 481.46C118.584 482.183 120.095 482.561 121.63 482.56C122.109 482.559 122.587 482.522 123.06 482.45V495.52H117.22L117.23 481.46Z" fill="#3D4543"/>
<path d="M121.63 434.07C120.094 434.064 118.582 434.442 117.23 435.17V421.17H123.07V434.17C122.593 434.101 122.112 434.067 121.63 434.07Z" fill="#3D4543"/>
<path d="M117.396 449.786C118.649 450.623 120.123 451.07 121.63 451.07C123.65 451.067 125.587 450.264 127.015 448.835C128.443 447.407 129.247 445.47 129.25 443.45C129.25 441.943 128.803 440.47 127.966 439.216C127.128 437.963 125.938 436.987 124.546 436.41C123.153 435.833 121.621 435.682 120.143 435.977C118.665 436.271 117.307 436.996 116.242 438.062C115.176 439.128 114.45 440.485 114.156 441.963C113.862 443.441 114.013 444.974 114.59 446.366C115.167 447.759 116.143 448.949 117.396 449.786Z" fill="#676767"/>
<path d="M120.6 441.91C120.605 441.86 120.605 441.81 120.6 441.76C120.589 441.714 120.572 441.671 120.55 441.63C120.54 441.586 120.519 441.544 120.49 441.51M121.63 451.07C120.123 451.07 118.649 450.623 117.396 449.786C116.143 448.949 115.167 447.759 114.59 446.366C114.013 444.974 113.862 443.441 114.156 441.963C114.45 440.485 115.176 439.128 116.242 438.062C117.307 436.996 118.665 436.271 120.143 435.977C121.621 435.682 123.153 435.833 124.546 436.41C125.938 436.987 127.128 437.963 127.966 439.216C128.803 440.47 129.25 441.943 129.25 443.45C129.247 445.47 128.443 447.407 127.015 448.835C125.587 450.264 123.65 451.067 121.63 451.07V451.07ZM124.08 441.91C124.085 441.86 124.085 441.81 124.08 441.76C124.085 441.717 124.085 441.673 124.08 441.63C124.088 441.601 124.088 441.569 124.08 441.54C124.083 441.517 124.083 441.493 124.08 441.47V441.41L123.95 441.31C123.917 441.284 123.879 441.264 123.84 441.25H123.71H123.57C123.429 441.25 123.292 441.292 123.175 441.37C123.058 441.448 122.967 441.559 122.914 441.688C122.86 441.818 122.846 441.961 122.873 442.099C122.901 442.236 122.968 442.363 123.068 442.462C123.167 442.561 123.293 442.629 123.431 442.656C123.569 442.684 123.712 442.67 123.841 442.616C123.971 442.562 124.082 442.471 124.16 442.354C124.238 442.238 124.28 442.1 124.28 441.96L124.08 441.91ZM124.08 444.99C124.084 444.943 124.084 444.897 124.08 444.85C124.085 444.807 124.085 444.763 124.08 444.72C124.087 444.69 124.087 444.66 124.08 444.63C124.085 444.607 124.085 444.583 124.08 444.56V444.5L123.95 444.4H123.84L123.71 444.35H123.57C123.477 444.349 123.385 444.366 123.299 444.4C123.213 444.435 123.134 444.486 123.068 444.551C123.002 444.617 122.95 444.694 122.914 444.78C122.878 444.865 122.86 444.957 122.86 445.05C122.86 445.238 122.935 445.419 123.068 445.552C123.201 445.685 123.381 445.76 123.57 445.76C123.758 445.76 123.939 445.685 124.072 445.552C124.205 445.419 124.28 445.238 124.28 445.05L124.08 444.99Z" stroke="#2D2D2E" stroke-width="0.31" stroke-miterlimit="10"/>
<path d="M117.395 479.565C118.649 480.403 120.122 480.85 121.63 480.85C123.649 480.85 125.586 480.048 127.014 478.622C128.443 477.195 129.247 475.259 129.25 473.24C129.252 471.732 128.806 470.258 127.97 469.004C127.134 467.749 125.945 466.771 124.553 466.193C123.16 465.614 121.628 465.462 120.149 465.755C118.67 466.048 117.312 466.773 116.245 467.838C115.179 468.903 114.452 470.261 114.157 471.739C113.862 473.218 114.012 474.751 114.589 476.144C115.165 477.537 116.142 478.727 117.395 479.565Z" fill="#676767"/>
<path d="M120.6 474.78C120.605 474.733 120.605 474.686 120.6 474.64C120.589 474.594 120.572 474.551 120.55 474.51C120.54 474.465 120.519 474.424 120.49 474.39M121.63 480.85C120.122 480.85 118.649 480.403 117.395 479.565C116.142 478.727 115.165 477.537 114.589 476.144C114.012 474.751 113.862 473.218 114.157 471.739C114.452 470.261 115.179 468.903 116.245 467.838C117.312 466.773 118.67 466.048 120.149 465.755C121.628 465.462 123.16 465.614 124.553 466.193C125.945 466.771 127.134 467.749 127.97 469.004C128.806 470.258 129.252 471.732 129.25 473.24C129.247 475.259 128.443 477.195 127.014 478.622C125.586 480.048 123.649 480.85 121.63 480.85V480.85ZM124.08 471.69C124.085 471.643 124.085 471.596 124.08 471.55C124.085 471.507 124.085 471.463 124.08 471.42C124.09 471.391 124.09 471.359 124.08 471.33C124.085 471.307 124.085 471.283 124.08 471.26V471.2L123.95 471.09L123.84 471.04C123.797 471.03 123.753 471.03 123.71 471.04H123.57C123.429 471.04 123.292 471.081 123.175 471.159C123.058 471.237 122.968 471.348 122.914 471.478C122.86 471.608 122.846 471.751 122.873 471.888C122.901 472.026 122.968 472.153 123.068 472.252C123.167 472.351 123.293 472.419 123.431 472.446C123.569 472.474 123.712 472.459 123.842 472.406C123.971 472.352 124.082 472.261 124.16 472.144C124.238 472.028 124.28 471.89 124.28 471.75L124.08 471.69ZM124.08 474.78C124.085 474.733 124.085 474.686 124.08 474.64C124.085 474.597 124.085 474.553 124.08 474.51C124.05 474.456 124.02 474.403 123.99 474.35V474.29L123.86 474.19C123.826 474.164 123.789 474.144 123.75 474.13H123.62H123.48C123.387 474.129 123.295 474.146 123.209 474.18C123.123 474.215 123.044 474.266 122.978 474.331C122.912 474.396 122.86 474.474 122.824 474.56C122.788 474.645 122.77 474.737 122.77 474.83C122.77 475.018 122.845 475.199 122.978 475.332C123.111 475.465 123.292 475.54 123.48 475.54C123.668 475.54 123.849 475.465 123.982 475.332C124.115 475.199 124.19 475.018 124.19 474.83L124.08 474.78ZM120.6 471.69C120.605 471.667 120.605 471.643 120.6 471.62V471.55C120.589 471.504 120.572 471.461 120.55 471.42C120.542 471.375 120.521 471.333 120.49 471.3C120.49 471.3 120.49 471.3 120.49 471.3L120.42 471.21C120.381 471.168 120.337 471.131 120.29 471.1L120.19 471.05C120.144 471.041 120.096 471.041 120.05 471.05H119.91C119.721 471.05 119.541 471.125 119.408 471.258C119.275 471.391 119.2 471.571 119.2 471.76C119.2 471.948 119.275 472.129 119.408 472.262C119.541 472.395 119.721 472.47 119.91 472.47C120.007 472.467 120.104 472.445 120.192 472.404C120.281 472.363 120.36 472.304 120.425 472.23C120.49 472.157 120.539 472.071 120.569 471.978C120.599 471.885 120.609 471.787 120.6 471.69V471.69Z" stroke="#2D2D2E" stroke-width="0.31" stroke-miterlimit="10"/>
<path d="M120.6 441.89C120.602 441.793 120.581 441.697 120.54 441.61C120.563 441.651 120.58 441.694 120.59 441.74C120.598 441.789 120.602 441.84 120.6 441.89Z" fill="#676767" stroke="#2D2D2E" stroke-width="0.31" stroke-miterlimit="10"/>
<path d="M120.6 444.97C120.6 444.876 120.58 444.784 120.54 444.7C120.563 444.74 120.58 444.784 120.59 444.83C120.598 444.876 120.601 444.923 120.6 444.97Z" fill="#676767" stroke="#2D2D2E" stroke-width="0.31" stroke-miterlimit="10"/>
<path d="M120.59 471.55V471.62C120.589 471.55 120.572 471.482 120.54 471.42C120.563 471.461 120.58 471.504 120.59 471.55Z" fill="#676767" stroke="#2D2D2E" stroke-width="0.31" stroke-miterlimit="10"/>
<path d="M120.6 474.78C120.6 474.686 120.58 474.594 120.54 474.51C120.563 474.551 120.58 474.594 120.59 474.64C120.598 474.686 120.602 474.733 120.6 474.78Z" fill="#676767" stroke="#2D2D2E" stroke-width="0.31" stroke-miterlimit="10"/>
<path d="M120.54 441.61L120.48 441.49C120.51 441.524 120.53 441.565 120.54 441.61Z" fill="#676767" stroke="#2D2D2E" stroke-width="0.31" stroke-miterlimit="10"/>
<path d="M120.54 444.7L120.48 444.58C120.508 444.616 120.528 444.656 120.54 444.7Z" fill="#676767" stroke="#2D2D2E" stroke-width="0.31" stroke-miterlimit="10"/>
<path d="M120.54 471.42L120.48 471.3C120.511 471.333 120.532 471.375 120.54 471.42Z" fill="#676767" stroke="#2D2D2E" stroke-width="0.31" stroke-miterlimit="10"/>
<path d="M120.54 474.51L120.48 474.39C120.51 474.424 120.53 474.466 120.54 474.51Z" fill="#676767" stroke="#2D2D2E" stroke-width="0.31" stroke-miterlimit="10"/>
<path d="M98.71 229.53C106.35 228.28 117.04 226.94 117.04 226.94C119.55 234.22 121.75 241.22 121.75 241.22C121.116 242.597 121.006 244.158 121.44 245.61C117.115 246.882 112.646 247.601 108.14 247.75L98.71 229.53Z" fill="#DCC7B7"/>
<path d="M120.47 441.48C120.45 441.451 120.426 441.424 120.4 441.4C120.428 441.422 120.452 441.449 120.47 441.48Z" fill="#676767" stroke="#2D2D2E" stroke-width="0.31" stroke-miterlimit="10"/>
<path d="M120.47 444.57L120.4 444.49C120.428 444.512 120.452 444.539 120.47 444.57Z" fill="#676767" stroke="#2D2D2E" stroke-width="0.31" stroke-miterlimit="10"/>
<path d="M120.47 471.29L120.4 471.2L120.47 471.29Z" fill="#676767" stroke="#2D2D2E" stroke-width="0.31" stroke-miterlimit="10"/>
<path d="M120.47 474.38C120.452 474.349 120.428 474.322 120.4 474.3C120.428 474.322 120.452 474.349 120.47 474.38Z" fill="#676767" stroke="#2D2D2E" stroke-width="0.31" stroke-miterlimit="10"/>
<path d="M120.27 441.29L120.17 441.23L120.27 441.29Z" fill="#676767" stroke="#2D2D2E" stroke-width="0.31" stroke-miterlimit="10"/>
<path d="M120.27 444.38H120.17H120.27Z" fill="#676767" stroke="#2D2D2E" stroke-width="0.31" stroke-miterlimit="10"/>
<path d="M120.27 471.07L120.17 471.02L120.27 471.07Z" fill="#676767" stroke="#2D2D2E" stroke-width="0.31" stroke-miterlimit="10"/>
<path d="M120.27 474.19L120.17 474.13L120.27 474.19Z" fill="#676767" stroke="#2D2D2E" stroke-width="0.31" stroke-miterlimit="10"/>
<path d="M120.17 441.23H120.03H120.17Z" fill="#676767" stroke="#2D2D2E" stroke-width="0.31" stroke-miterlimit="10"/>
<path d="M120.17 444.33L120.03 444.28L120.17 444.33Z" fill="#676767" stroke="#2D2D2E" stroke-width="0.31" stroke-miterlimit="10"/>
<path d="M120.17 471.07H120.03C120.076 471.061 120.124 471.061 120.17 471.07Z" fill="#676767" stroke="#2D2D2E" stroke-width="0.31" stroke-miterlimit="10"/>
<path d="M120.17 474.13H120.03H120.17Z" fill="#676767" stroke="#2D2D2E" stroke-width="0.31" stroke-miterlimit="10"/>
<path d="M120.03 471H119.89H120.03Z" fill="#676767" stroke="#2D2D2E" stroke-width="0.31" stroke-miterlimit="10"/>
<path d="M117.23 435.21C115.742 436.005 114.498 437.191 113.631 438.638C112.765 440.086 112.308 441.743 112.31 443.43H111.38V421.24H117.23V435.21Z" fill="#676767" stroke="#2D2D2E" stroke-width="0.31" stroke-miterlimit="10"/>
<path d="M112.31 443.43C112.308 445.117 112.765 446.773 113.631 448.221C114.498 449.669 115.742 450.854 117.23 451.65V465.01C115.741 465.805 114.497 466.989 113.63 468.438C112.763 469.886 112.307 471.542 112.31 473.23H111.38V443.42L112.31 443.43Z" fill="#676767" stroke="#2D2D2E" stroke-width="0.31" stroke-miterlimit="10"/>
<path d="M112.31 473.24C112.309 474.927 112.766 476.583 113.633 478.03C114.499 479.478 115.743 480.663 117.23 481.46V495.52H111.38V473.24H112.31Z" fill="#676767" stroke="#2D2D2E" stroke-width="0.31" stroke-miterlimit="10"/>
<path d="M111.38 473.23V495.52H105.53V421.24H111.38V443.43V473.23Z" fill="#3D4543"/>
<path d="M105.54 421.24H99.6899V495.52H105.54V421.24Z" fill="#676767" stroke="#2D2D2E" stroke-width="0.31" stroke-miterlimit="10"/>
<path d="M103.71 205.2C107.27 207.75 110.5 210.59 111.71 213.2C112.92 215.81 114.71 220.44 116.36 225.2C113.028 226.201 109.464 226.12 106.18 224.97C102.981 223.983 99.547 224.067 96.4001 225.21L87.7002 208.41L103.7 205.27L103.71 205.2Z" fill="#DCC7B7"/>
<path d="M99.6798 421.24H93.8398V495.52H99.6798V421.24Z" fill="#3D4543"/>
<path d="M93.85 421.24H88V495.52H93.85V421.24Z" fill="#676767" stroke="#2D2D2E" stroke-width="0.31" stroke-miterlimit="10"/>
<path d="M90.4302 251.07C86.0821 253.179 81.1522 253.767 76.4302 252.74V238.74C76.4302 238.74 79.2802 237.15 82.5802 235.37L90.4001 251.03L90.4302 251.07Z" fill="#DCC7B7"/>
<path d="M87.9999 421.24H82.1499V495.52H87.9999V421.24Z" fill="#3D4543"/>
<path d="M82.1498 421.24H76.2998V495.52H82.1498V421.24Z" fill="#676767" stroke="#2D2D2E" stroke-width="0.31" stroke-miterlimit="10"/>
<path d="M76.31 408.15C78.5302 408.15 80.33 406.35 80.33 404.13C80.33 401.91 78.5302 400.11 76.31 400.11C74.0899 400.11 72.29 401.91 72.29 404.13C72.29 406.35 74.0899 408.15 76.31 408.15Z" fill="#F5B335"/>
<path d="M80.3302 404.13C80.3302 403.339 80.0955 402.566 79.656 401.908C79.2165 401.25 78.5917 400.737 77.8608 400.435C77.1299 400.132 76.3257 400.053 75.5498 400.207C74.7739 400.361 74.0611 400.742 73.5017 401.302C72.9423 401.861 72.5613 402.574 72.407 403.35C72.2526 404.126 72.3319 404.93 72.6346 405.661C72.9374 406.392 73.4501 407.017 74.1079 407.456C74.7657 407.896 75.5391 408.13 76.3302 408.13C77.3911 408.13 78.4084 407.709 79.1586 406.958C79.9087 406.208 80.3302 405.191 80.3302 404.13ZM152.68 387.01V421.24H61.8701V387.01H152.68Z" fill="#F3EBE3" stroke="#2D2D2E" stroke-width="0.31" stroke-miterlimit="10"/>
<path d="M76.3 421.24H70.46V495.52H76.3V421.24Z" fill="#3D4543"/>
<path d="M86.4602 177.07C86.2117 177.851 85.7145 178.528 85.0446 179C84.3746 179.471 83.5687 179.71 82.7501 179.68C81.5901 179.63 80.0402 179.55 78.0502 179.43C72.6102 179.11 71.4502 176.93 71.4502 176.93C71.6156 176.849 71.7903 176.789 71.9702 176.75C76.8443 175.805 81.83 175.576 86.7701 176.07L86.4602 177.07Z" fill="#F0ECE4" stroke="#2D2D2E" stroke-width="0.31" stroke-miterlimit="10"/>
<path d="M70.4599 421.24H64.6099V495.52H70.4599V421.24Z" fill="#676767" stroke="#2D2D2E" stroke-width="0.31" stroke-miterlimit="10"/>
<path d="M82.75 179.64C83.5685 179.67 84.3744 179.431 85.0444 178.96C85.7143 178.488 86.2116 177.811 86.46 177.03L86.77 176.03C105.09 177.68 122.65 187.46 131.77 192.03C136.13 194.21 140.92 203.79 145.21 214.95C145.65 215.73 155.72 233.6 164.45 248.04C168.04 253.96 171.45 259.3 173.77 262.66C182.05 274.35 169.87 288.48 169.87 288.48C169.87 288.48 150.75 318.2 140.41 348.88C137.68 357.02 143.93 387.02 143.93 387.02H70.12L68.82 338.97C68.7057 335.577 67.7981 332.259 66.17 329.28C64.5293 326.306 62.2224 323.753 59.43 321.82C56.6272 319.896 54.3165 317.339 52.6853 314.356C51.054 311.373 50.1478 308.048 50.04 304.65L47.92 247.9L47.59 239.03C47.478 235.668 47.962 232.313 49.02 229.12C49.626 227.119 50.4651 225.196 51.52 223.39C53.03 221.11 54.61 218.39 56.14 215.66C56.14 215.66 59.14 217.89 60.29 217.4C61.19 217.02 65.29 207.52 67.03 203.55C67.2148 203.128 67.2997 202.668 67.2782 202.208C67.2566 201.747 67.1292 201.297 66.9057 200.894C66.6823 200.491 66.3688 200.144 65.9897 199.882C65.6106 199.619 65.1762 199.448 64.72 199.38H64.62C64.9554 199.041 65.3732 198.794 65.8324 198.665C66.2915 198.535 66.7765 198.526 67.2399 198.64C78.0699 201.29 78.92 215.82 78.07 226.17C77.7798 229.761 77.2553 233.328 76.5 236.85V256.4C76.4774 259.441 77.3797 262.417 79.087 264.933C80.7943 267.449 83.2261 269.387 86.06 270.49C90.7116 272.285 95.7969 272.634 100.65 271.49L115.71 301.66C116.246 302.716 116.984 303.656 117.883 304.426C118.782 305.197 119.824 305.782 120.95 306.15C122.075 306.518 123.262 306.66 124.443 306.569C125.623 306.478 126.774 306.156 127.83 305.62C128.886 305.084 129.826 304.346 130.596 303.447C131.367 302.548 131.952 301.506 132.32 300.38C132.688 299.255 132.83 298.068 132.739 296.887C132.648 295.707 132.326 294.556 131.79 293.5L116.08 263.07L116.55 262.64C117.557 261.715 118.423 260.646 119.12 259.47C120.71 256.81 123.35 251.62 122.3 247.89C122.218 247.603 122.114 247.322 121.99 247.05C121.766 246.587 121.582 246.105 121.44 245.61C121.006 244.158 121.116 242.597 121.75 241.22C121.75 241.22 119.55 234.22 117.04 226.94C116.83 226.34 116.62 225.74 116.4 225.14C114.75 220.43 113.03 215.83 111.75 213.14C110.47 210.45 107.27 207.7 103.75 205.14C99.5552 202.235 95.161 199.628 90.6001 197.34C87.4121 196.961 84.2567 196.346 81.16 195.5C64.16 190.65 68.54 180.81 70.4 177.77C70.6571 177.351 71.038 177.023 71.4899 176.83C71.4899 176.83 72.65 179.01 78.09 179.33C80.04 179.51 81.59 179.59 82.75 179.64Z" fill="#DCC7B7"/>
<path d="M64.61 421.24V495.52H58.77V421.24H61.87H64.61Z" fill="#3D4543"/>
<path d="M64.7002 199.37C65.1564 199.438 65.5908 199.609 65.9698 199.872C66.3489 200.134 66.6624 200.481 66.8859 200.884C67.1093 201.287 67.2367 201.737 67.2583 202.198C67.2799 202.658 67.1949 203.118 67.0101 203.54C65.3101 207.54 61.1701 217.01 60.2701 217.39C59.1401 217.88 56.1201 215.65 56.1201 215.65L56.9001 214.24C59.9001 208.62 62.7102 202.97 64.0602 200.12C64.1986 199.837 64.3809 199.577 64.6002 199.35L64.7002 199.37Z" fill="#F0ECE4" stroke="#2D2D2E" stroke-width="0.31" stroke-miterlimit="10"/>
<path d="M58.7699 421.24H52.9199V495.52H58.7699V421.24Z" fill="#676767" stroke="#2D2D2E" stroke-width="0.31" stroke-miterlimit="10"/>
<path d="M70.3598 177.83C68.4998 180.83 64.0698 190.71 81.1198 195.56L87.7398 208.35L96.4398 225.15L98.7099 229.53L108.14 247.75L108.22 247.89L116.08 263.07L131.79 293.42C132.326 294.476 132.648 295.627 132.739 296.807C132.83 297.988 132.688 299.175 132.32 300.3C131.952 301.426 131.366 302.468 130.596 303.367C129.826 304.266 128.886 305.004 127.83 305.54C126.774 306.076 125.623 306.398 124.443 306.489C123.262 306.58 122.075 306.438 120.95 306.07C119.824 305.703 118.782 305.117 117.883 304.346C116.984 303.576 116.246 302.636 115.71 301.58L100.65 271.41L90.4799 251.07L82.6598 235.41L78.0498 226.17C78.8998 215.82 78.0499 201.29 67.2199 198.64C66.7564 198.526 66.2715 198.535 65.8123 198.664C65.3531 198.794 64.9354 199.041 64.5999 199.38L52.3998 174.98C52.2763 174.75 52.2476 174.481 52.3198 174.23L54.9599 164.12C54.9958 163.976 55.0615 163.841 55.1528 163.724C55.2442 163.607 55.3592 163.511 55.4902 163.441C55.6213 163.371 55.7655 163.33 55.9136 163.319C56.0617 163.309 56.2103 163.329 56.3499 163.38L65.8698 166.78C66.1275 166.873 66.3416 167.058 66.4699 167.3L71.4699 176.92C71.0147 177.101 70.6268 177.419 70.3598 177.83Z" fill="#625D9C"/>
<path d="M56.3499 163.35C56.2103 163.299 56.0617 163.279 55.9136 163.289C55.7655 163.299 55.6213 163.341 55.4903 163.411C55.3592 163.481 55.2442 163.577 55.1529 163.694C55.0615 163.811 54.9958 163.946 54.9599 164.09L54.5298 162.43C54.5032 162.337 54.5096 162.238 54.5479 162.149C54.5861 162.06 54.6539 161.987 54.7398 161.942C54.8256 161.897 54.9243 161.884 55.0191 161.903C55.1138 161.923 55.1988 161.975 55.2598 162.05L56.3499 163.35Z" fill="#3D4543"/>
<path d="M52.92 421.24H48.27V495.52H52.92V421.24Z" fill="#3D4543"/>
<path d="M47.8902 247.89H0.160156V0.159912H196.24V247.89H164.65" stroke="#2D2D2E" stroke-width="0.31" stroke-miterlimit="10"/>
<path d="M26.5801 73.4399H169.82" stroke="#2D2D2E" stroke-width="0.31" stroke-miterlimit="10"/>
<path d="M26.5801 85.1299H169.82" stroke="#2D2D2E" stroke-width="0.31" stroke-miterlimit="10"/>
<path d="M26.5801 96.8201H169.82" stroke="#2D2D2E" stroke-width="0.31" stroke-miterlimit="10"/>
<path d="M26.5801 108.51H169.82" stroke="#2D2D2E" stroke-width="0.31" stroke-miterlimit="10"/>
<path d="M26.5801 120.21H109.23" stroke="#2D2D2E" stroke-width="0.31" stroke-miterlimit="10"/>
<path d="M26.5801 214.23H56.8901" stroke="#2D2D2E" stroke-width="0.31" stroke-miterlimit="10"/>
<path d="M26.5801 44.2H77.5701" stroke="#2D2D2E" stroke-width="0.31" stroke-miterlimit="10"/>
<path d="M26.5801 54.4299H60.9301" stroke="#2D2D2E" stroke-width="0.31" stroke-miterlimit="10"/>
<path d="M145.17 214.94C152.38 233.67 158.17 256.84 158.17 256.84C158.17 256.84 162.4 269.47 152.32 278.72" stroke="#2D2D2E" stroke-width="0.31" stroke-miterlimit="10"/>
<path d="M121.75 241.22C121.75 241.22 119.55 234.22 117.04 226.94C116.83 226.34 116.62 225.74 116.4 225.14C114.75 220.43 113.03 215.83 111.75 213.14C110.47 210.45 107.27 207.7 103.75 205.14C99.5553 202.235 95.1611 199.628 90.6001 197.34C87.4122 196.961 84.2568 196.346 81.1601 195.5C64.1601 190.65 68.5401 180.81 70.4001 177.77C70.6572 177.351 71.038 177.023 71.49 176.83C71.6555 176.749 71.8301 176.689 72.0101 176.65C76.8841 175.706 81.8699 175.476 86.8101 175.97C105.13 177.62 122.69 187.4 131.81 191.97C136.17 194.15 140.96 203.73 145.25 214.89" stroke="#2D2D2E" stroke-width="0.31" stroke-miterlimit="10"/>
<path d="M143.91 387.01C143.91 387.01 137.66 357.01 140.39 348.87C150.73 318.19 169.85 288.47 169.85 288.47C169.85 288.47 182.03 274.34 173.75 262.65C171.38 259.29 168.02 253.95 164.43 248.03C155.7 233.59 145.63 215.72 145.19 214.94" stroke="#2D2D2E" stroke-width="0.31" stroke-miterlimit="10"/>
<path d="M100.63 271.42C95.7769 272.564 90.6916 272.216 86.04 270.42C83.2061 269.318 80.7743 267.379 79.067 264.863C77.3597 262.347 76.4575 259.371 76.4801 256.33V236.78C77.2354 233.258 77.7598 229.691 78.05 226.1C78.9 215.75 78.05 201.22 67.22 198.57C66.7566 198.457 66.2716 198.465 65.8125 198.595C65.3533 198.724 64.9355 198.971 64.6001 199.31C64.3807 199.537 64.1984 199.797 64.06 200.08C62.71 202.93 59.95 208.58 56.9 214.2L56.12 215.61C54.59 218.36 53.01 221.06 51.5 223.34C50.445 225.146 49.6059 227.069 49 229.07C47.942 232.263 47.4579 235.618 47.57 238.98L47.9 247.85L50.02 304.6C50.1278 307.998 51.0341 311.323 52.6654 314.306C54.2966 317.289 56.6071 319.846 59.41 321.77C62.2024 323.703 64.5092 326.257 66.15 329.23C67.7781 332.209 68.6857 335.528 68.8 338.92L70.1001 386.97" stroke="#2D2D2E" stroke-width="0.31" stroke-miterlimit="10"/>
<path d="M123.45 239.01C122.506 239.793 121.813 240.836 121.457 242.009C121.102 243.183 121.099 244.435 121.45 245.61C121.592 246.105 121.776 246.587 122 247.05C122.124 247.322 122.228 247.603 122.31 247.89C123.31 251.62 120.72 256.81 119.13 259.47C118.433 260.646 117.567 261.715 116.56 262.64L116.09 263.07" stroke="#2D2D2E" stroke-width="0.31" stroke-miterlimit="10"/>
<path d="M96.4399 225.15C99.5868 224.007 103.021 223.923 106.22 224.91C109.504 226.06 113.067 226.141 116.4 225.14" stroke="#2D2D2E" stroke-width="0.31" stroke-miterlimit="10"/>
<path d="M87.7402 208.34L103.71 205.2" stroke="#2D2D2E" stroke-width="0.31" stroke-miterlimit="10"/>
<path d="M98.71 229.53C106.35 228.28 117.04 226.94 117.04 226.94" stroke="#2D2D2E" stroke-width="0.31" stroke-miterlimit="10"/>
<path d="M76.48 238.77C76.48 238.77 79.3299 237.18 82.6299 235.4" stroke="#2D2D2E" stroke-width="0.31" stroke-miterlimit="10"/>
<path d="M108.17 247.75C112.676 247.601 117.145 246.882 121.47 245.61" stroke="#2D2D2E" stroke-width="0.31" stroke-miterlimit="10"/>
<path d="M76.48 252.74C81.202 253.767 86.1319 253.179 90.48 251.07" stroke="#2D2D2E" stroke-width="0.31" stroke-miterlimit="10"/>
<path d="M56.1701 215.65C56.1701 215.65 59.1702 217.88 60.3202 217.39C61.2202 217.01 65.3202 207.51 67.0602 203.54C67.245 203.118 67.3299 202.658 67.3083 202.197C67.2868 201.737 67.1592 201.287 66.9358 200.884C66.7123 200.481 66.3989 200.134 66.0199 199.872C65.6408 199.609 65.2063 199.437 64.7501 199.37H64.6501L52.4502 174.97C52.3266 174.74 52.2978 174.471 52.3701 174.22L55.0101 164.11C55.046 163.966 55.1119 163.831 55.2032 163.714C55.2946 163.597 55.4095 163.501 55.5405 163.431C55.6715 163.361 55.8158 163.319 55.9638 163.309C56.1119 163.299 56.2606 163.319 56.4001 163.37L65.9201 166.77C66.1779 166.863 66.3918 167.048 66.5201 167.29L71.5201 176.91C71.5201 176.91 72.6801 179.09 78.1201 179.41C80.1201 179.53 81.6602 179.61 82.8202 179.66C83.6388 179.69 84.4445 179.451 85.1145 178.98C85.7844 178.508 86.2817 177.831 86.5301 177.05L86.8402 176.05" stroke="#2D2D2E" stroke-width="0.31" stroke-miterlimit="10"/>
<path d="M78.0498 226.14L82.6598 235.38L90.4799 251.04L100.65 271.41L115.71 301.58C116.246 302.636 116.984 303.576 117.883 304.346C118.782 305.117 119.824 305.703 120.95 306.07C122.075 306.438 123.262 306.58 124.443 306.49C125.623 306.399 126.774 306.076 127.83 305.54C128.886 305.004 129.826 304.266 130.596 303.367C131.366 302.468 131.952 301.426 132.32 300.3C132.688 299.175 132.83 297.988 132.739 296.807C132.648 295.627 132.326 294.476 131.79 293.42L116.08 263.07L108.22 247.89L108.14 247.75L98.7098 229.53L96.4398 225.15L87.7397 208.35L81.1198 195.56" stroke="#2D2D2E" stroke-width="0.31" stroke-miterlimit="10"/>
<path d="M61.8701 421.24V387.01H70.1001H143.91H152.68V421.24" stroke="#2D2D2E" stroke-width="0.31" stroke-miterlimit="10"/>
<path d="M76.31 408.15C78.5302 408.15 80.33 406.35 80.33 404.13C80.33 401.91 78.5302 400.11 76.31 400.11C74.0899 400.11 72.29 401.91 72.29 404.13C72.29 406.35 74.0899 408.15 76.31 408.15Z" stroke="#2D2D2E" stroke-width="0.31" stroke-miterlimit="10"/>
<path d="M80.3301 404.13H85.4401" stroke="#2D2D2E" stroke-width="0.31" stroke-miterlimit="10"/>
<path d="M164 421.24H168.01V495.52H164H158.15H152.31H146.46H140.62H134.77H128.92H123.07H117.23H111.38H105.53H99.69H93.84H88H82.15H76.3H70.46H64.61H58.77H52.92H48.27V421.24H52.92H58.77H61.87H64.61H70.46H76.3H82.15H88H93.84H99.69H105.53H111.38H117.23H123.07H128.92H134.77H140.62H146.46H152.31H152.68H158.15H164Z" stroke="#2D2D2E" stroke-width="0.31" stroke-miterlimit="10"/>
<path d="M54.9599 164.07L54.5298 162.41C54.5032 162.317 54.5096 162.218 54.5479 162.129C54.5861 162.04 54.6539 161.967 54.7398 161.922C54.8256 161.877 54.9243 161.864 55.0191 161.884C55.1138 161.903 55.1988 161.955 55.2598 162.03L56.3499 163.33" stroke="#2D2D2E" stroke-width="0.31" stroke-miterlimit="10"/>
<path d="M52.9199 421.24V495.52" stroke="#2D2D2E" stroke-width="0.31" stroke-miterlimit="10"/>
<path d="M58.77 421.24V495.52" stroke="#2D2D2E" stroke-width="0.31" stroke-miterlimit="10"/>
<path d="M64.6099 421.24V495.52" stroke="#2D2D2E" stroke-width="0.31" stroke-miterlimit="10"/>
<path d="M70.46 421.24V495.52" stroke="#2D2D2E" stroke-width="0.31" stroke-miterlimit="10"/>
<path d="M76.2998 421.24V495.52" stroke="#2D2D2E" stroke-width="0.31" stroke-miterlimit="10"/>
<path d="M82.1499 421.24V495.52" stroke="#2D2D2E" stroke-width="0.31" stroke-miterlimit="10"/>
<path d="M88 421.24V495.52" stroke="#2D2D2E" stroke-width="0.31" stroke-miterlimit="10"/>
<path d="M93.8398 421.24V495.52" stroke="#2D2D2E" stroke-width="0.31" stroke-miterlimit="10"/>
<path d="M99.6899 421.24V495.52" stroke="#2D2D2E" stroke-width="0.31" stroke-miterlimit="10"/>
<path d="M105.53 421.24V495.52" stroke="#2D2D2E" stroke-width="0.31" stroke-miterlimit="10"/>
<path d="M111.38 421.24V443.43V473.23V495.52" stroke="#2D2D2E" stroke-width="0.31" stroke-miterlimit="10"/>
<path d="M117.23 481.45V495.52" stroke="#2D2D2E" stroke-width="0.31" stroke-miterlimit="10"/>
<path d="M117.23 451.64V465.01" stroke="#2D2D2E" stroke-width="0.31" stroke-miterlimit="10"/>
<path d="M117.23 421.24V435.2" stroke="#2D2D2E" stroke-width="0.31" stroke-miterlimit="10"/>
<path d="M123.07 482.55V495.52" stroke="#2D2D2E" stroke-width="0.31" stroke-miterlimit="10"/>
<path d="M123.07 452.75V464.02" stroke="#2D2D2E" stroke-width="0.31" stroke-miterlimit="10"/>
<path d="M123.07 421.24V434.1" stroke="#2D2D2E" stroke-width="0.31" stroke-miterlimit="10"/>
<path d="M128.92 479.04V495.52" stroke="#2D2D2E" stroke-width="0.31" stroke-miterlimit="10"/>
<path d="M128.92 449.24V467.42" stroke="#2D2D2E" stroke-width="0.31" stroke-miterlimit="10"/>
<path d="M128.92 421.24V437.62" stroke="#2D2D2E" stroke-width="0.31" stroke-miterlimit="10"/>
<path d="M134.77 421.24V495.52" stroke="#2D2D2E" stroke-width="0.31" stroke-miterlimit="10"/>
<path d="M140.62 421.24V495.52" stroke="#2D2D2E" stroke-width="0.31" stroke-miterlimit="10"/>
<path d="M146.46 421.24V495.52" stroke="#2D2D2E" stroke-width="0.31" stroke-miterlimit="10"/>
<path d="M152.31 421.24V495.52" stroke="#2D2D2E" stroke-width="0.31" stroke-miterlimit="10"/>
<path d="M158.15 421.24V495.52" stroke="#2D2D2E" stroke-width="0.31" stroke-miterlimit="10"/>
<path d="M164 421.24V495.52" stroke="#2D2D2E" stroke-width="0.31" stroke-miterlimit="10"/>
<path d="M128.92 437.62C129.932 438.897 130.593 440.416 130.835 442.028C131.077 443.639 130.892 445.286 130.299 446.804C129.706 448.321 128.726 449.657 127.456 450.678C126.185 451.698 124.67 452.368 123.06 452.62C122.587 452.695 122.109 452.735 121.63 452.74C120.093 452.743 118.581 452.361 117.23 451.63C115.744 450.832 114.502 449.646 113.636 448.199C112.771 446.751 112.313 445.097 112.313 443.41C112.313 441.723 112.771 440.068 113.636 438.621C114.502 437.173 115.744 435.988 117.23 435.19C118.582 434.462 120.094 434.084 121.63 434.09C122.108 434.088 122.586 434.122 123.06 434.19C125.374 434.56 127.465 435.783 128.92 437.62Z" stroke="#2D2D2E" stroke-width="0.31" stroke-miterlimit="10"/>
<path d="M121.63 451.05C125.838 451.05 129.25 447.638 129.25 443.43C129.25 439.222 125.838 435.81 121.63 435.81C117.421 435.81 114.01 439.222 114.01 443.43C114.01 447.638 117.421 451.05 121.63 451.05Z" stroke="#2D2D2E" stroke-width="0.31" stroke-miterlimit="10"/>
<path d="M120.54 441.61C120.562 441.651 120.579 441.695 120.59 441.74C120.595 441.79 120.595 441.84 120.59 441.89C120.587 442.077 120.511 442.255 120.378 442.386C120.245 442.517 120.066 442.59 119.88 442.59C119.707 442.57 119.548 442.486 119.433 442.356C119.318 442.227 119.254 442.059 119.254 441.885C119.254 441.711 119.318 441.544 119.433 441.414C119.548 441.284 119.707 441.201 119.88 441.18H120.02H120.16L120.26 441.24C120.312 441.265 120.357 441.303 120.39 441.35C120.418 441.372 120.442 441.399 120.46 441.43C120.508 441.478 120.537 441.542 120.54 441.61V441.61Z" stroke="#2D2D2E" stroke-width="0.31" stroke-miterlimit="10"/>
<path d="M124.06 441.74C124.065 441.79 124.065 441.84 124.06 441.89C124.06 442.031 124.019 442.168 123.941 442.284C123.863 442.401 123.752 442.492 123.622 442.546C123.492 442.6 123.349 442.614 123.212 442.586C123.074 442.559 122.947 442.491 122.848 442.392C122.749 442.293 122.681 442.166 122.654 442.029C122.626 441.891 122.64 441.748 122.694 441.618C122.748 441.489 122.839 441.378 122.956 441.3C123.072 441.222 123.21 441.18 123.35 441.18H123.49H123.62C123.66 441.194 123.697 441.214 123.73 441.24L123.86 441.34V441.4C123.891 441.453 123.921 441.506 123.95 441.56C123.999 441.612 124.037 441.673 124.06 441.74V441.74Z" stroke="#2D2D2E" stroke-width="0.31" stroke-miterlimit="10"/>
<path d="M120.54 444.7C120.562 444.741 120.579 444.785 120.59 444.83C120.594 444.877 120.594 444.923 120.59 444.97C120.59 445.159 120.515 445.341 120.382 445.476C120.25 445.61 120.069 445.688 119.88 445.69C119.786 445.689 119.694 445.669 119.609 445.632C119.523 445.595 119.446 445.542 119.381 445.475C119.316 445.408 119.264 445.329 119.23 445.242C119.195 445.156 119.178 445.063 119.18 444.97C119.18 444.784 119.253 444.606 119.385 444.475C119.516 444.344 119.694 444.27 119.88 444.27H120.02L120.16 444.32H120.26C120.31 444.348 120.354 444.386 120.39 444.43C120.418 444.452 120.442 444.479 120.46 444.51C120.505 444.564 120.533 444.63 120.54 444.7V444.7Z" stroke="#2D2D2E" stroke-width="0.31" stroke-miterlimit="10"/>
<path d="M124.06 444.83C124.064 444.877 124.064 444.923 124.06 444.97C124.06 445.158 123.985 445.339 123.852 445.472C123.719 445.605 123.539 445.68 123.35 445.68C123.162 445.68 122.981 445.605 122.848 445.472C122.715 445.339 122.64 445.158 122.64 444.97C122.64 444.877 122.659 444.786 122.694 444.7C122.73 444.614 122.783 444.537 122.849 444.472C122.915 444.406 122.993 444.355 123.079 444.321C123.165 444.286 123.257 444.269 123.35 444.27H123.49L123.62 444.32H123.73L123.86 444.42V444.48C123.865 444.503 123.865 444.527 123.86 444.55C123.867 444.58 123.867 444.611 123.86 444.64C123.943 444.684 124.013 444.749 124.06 444.83Z" stroke="#2D2D2E" stroke-width="0.31" stroke-miterlimit="10"/>
<path d="M128.92 467.43C129.929 468.708 130.587 470.227 130.827 471.838C131.068 473.448 130.883 475.093 130.29 476.61C129.698 478.127 128.718 479.462 127.45 480.483C126.182 481.504 124.668 482.175 123.06 482.43C122.586 482.502 122.108 482.539 121.63 482.54C119.551 482.542 117.532 481.849 115.893 480.571C114.253 479.293 113.088 477.504 112.582 475.488C112.077 473.472 112.259 471.345 113.101 469.444C113.943 467.544 115.397 465.98 117.23 465C118.581 464.269 120.093 463.887 121.63 463.89C122.112 463.889 122.594 463.929 123.07 464.01C125.382 464.369 127.473 465.591 128.92 467.43V467.43Z" stroke="#2D2D2E" stroke-width="0.31" stroke-miterlimit="10"/>
<path d="M121.63 480.85C120.122 480.85 118.649 480.403 117.395 479.565C116.142 478.727 115.165 477.537 114.589 476.144C114.012 474.751 113.862 473.218 114.157 471.739C114.452 470.261 115.179 468.903 116.245 467.838C117.312 466.773 118.67 466.048 120.149 465.755C121.628 465.462 123.16 465.614 124.553 466.193C125.945 466.771 127.134 467.749 127.97 469.004C128.806 470.258 129.252 471.732 129.25 473.24C129.247 475.259 128.443 477.195 127.014 478.622C125.586 480.048 123.649 480.85 121.63 480.85V480.85Z" stroke="#2D2D2E" stroke-width="0.31" stroke-miterlimit="10"/>
<path d="M120.54 471.42C120.563 471.461 120.579 471.504 120.59 471.55V471.62C120.595 471.643 120.595 471.667 120.59 471.69C120.59 471.878 120.515 472.059 120.382 472.192C120.249 472.325 120.068 472.4 119.88 472.4C119.692 472.4 119.511 472.325 119.378 472.192C119.245 472.059 119.17 471.878 119.17 471.69C119.17 471.502 119.245 471.321 119.378 471.188C119.511 471.055 119.692 470.98 119.88 470.98H120.02C120.066 470.971 120.114 470.971 120.16 470.98L120.26 471.03C120.308 471.061 120.351 471.098 120.39 471.14L120.46 471.23C120.487 471.253 120.509 471.283 120.522 471.316C120.536 471.349 120.542 471.384 120.54 471.42Z" stroke="#2D2D2E" stroke-width="0.31" stroke-miterlimit="10"/>
<path d="M124.06 471.55C124.066 471.596 124.066 471.644 124.06 471.69C124.06 471.83 124.019 471.968 123.941 472.084C123.863 472.201 123.752 472.292 123.622 472.346C123.492 472.4 123.349 472.414 123.212 472.386C123.074 472.359 122.947 472.291 122.848 472.192C122.749 472.093 122.681 471.966 122.654 471.828C122.626 471.691 122.64 471.548 122.694 471.418C122.748 471.289 122.839 471.177 122.956 471.099C123.072 471.021 123.21 470.98 123.35 470.98H123.49C123.533 470.97 123.577 470.97 123.62 470.98L123.73 471.03L123.86 471.14V471.2C123.865 471.223 123.865 471.247 123.86 471.27C123.871 471.299 123.871 471.331 123.86 471.36C123.943 471.403 124.013 471.469 124.06 471.55Z" stroke="#2D2D2E" stroke-width="0.31" stroke-miterlimit="10"/>
<path d="M120.54 474.51C120.562 474.551 120.579 474.595 120.59 474.64C120.595 474.687 120.595 474.733 120.59 474.78C120.59 474.968 120.515 475.149 120.382 475.282C120.249 475.415 120.068 475.49 119.88 475.49C119.787 475.49 119.695 475.472 119.61 475.436C119.524 475.4 119.446 475.348 119.381 475.281C119.316 475.215 119.265 475.137 119.23 475.051C119.196 474.965 119.178 474.873 119.18 474.78C119.18 474.594 119.253 474.416 119.385 474.285C119.516 474.154 119.694 474.08 119.88 474.08H120.02H120.16L120.26 474.14C120.312 474.165 120.357 474.203 120.39 474.25C120.418 474.272 120.442 474.299 120.46 474.33C120.508 474.378 120.537 474.442 120.54 474.51V474.51Z" stroke="#2D2D2E" stroke-width="0.31" stroke-miterlimit="10"/>
<path d="M124.06 474.64C124.065 474.687 124.065 474.734 124.06 474.78C124.06 474.968 123.985 475.149 123.852 475.282C123.719 475.415 123.539 475.49 123.35 475.49C123.162 475.49 122.981 475.415 122.848 475.282C122.715 475.149 122.64 474.968 122.64 474.78C122.64 474.687 122.659 474.595 122.694 474.51C122.73 474.424 122.783 474.347 122.849 474.282C122.915 474.216 122.993 474.165 123.079 474.13C123.165 474.096 123.257 474.079 123.35 474.08H123.49H123.62C123.66 474.094 123.697 474.114 123.73 474.14L123.86 474.24V474.3C123.891 474.353 123.921 474.406 123.95 474.46C123.999 474.512 124.037 474.573 124.06 474.64V474.64Z" stroke="#2D2D2E" stroke-width="0.31" stroke-miterlimit="10"/>
<path d="M122.3 247.89H108.22H108.14" stroke="#2D2D2E" stroke-width="0.31" stroke-miterlimit="10"/>
</g>
<defs>
<clipPath id="clip0_701:480">
<rect width="196.4" height="495.67" fill="white"/>
</clipPath>
</defs>
</svg>
