<svg width="245" height="498" viewBox="0 0 245 498" fill="none" xmlns="http://www.w3.org/2000/svg">
<g clip-path="url(#clip0_701:1148)">
<path d="M244.21 33.0801L239.56 46.79L233.79 63.8501C232.146 63.6339 230.474 63.7983 228.903 64.3306C227.332 64.8628 225.905 65.7486 224.73 66.9199L234.47 38.48L213.56 31.3301C212.2 35.3301 208.13 37.5401 204.48 36.3301L178.26 27.3301C174.61 26.0801 172.76 21.8201 174.13 17.8301L153.22 10.6699L100.79 163.84C98.8993 160.168 98.0356 156.053 98.2902 151.93C98.6802 146.22 104.58 125.93 106.42 120.69L106.57 120.25L147.24 0.25L244.21 33.0801Z" fill="#3D4543"/>
<path d="M233.79 63.8501C236.415 64.3083 238.871 65.4536 240.91 67.1699C241.42 67.5899 241.7 67.8701 241.7 67.8701V68.2099C241.7 68.5399 241.61 68.8699 241.57 69.2099H241.47C239.62 68.0599 238.75 70.31 238.75 70.31C237.516 73.7764 236.726 77.3851 236.4 81.05C236.304 82.3668 236.669 83.6758 237.431 84.7536C238.194 85.8315 239.306 86.6113 240.58 86.9599C240.58 89.5199 240.75 92.0999 240.96 94.6699C241.423 99.926 240.728 105.22 238.924 110.178C237.12 115.137 234.252 119.64 230.52 123.37C230.35 121.23 230.25 119.09 230.2 116.95C230.063 111.056 230.397 105.161 231.2 99.3201C231.2 99.0101 231.28 98.7001 231.33 98.3801L231.43 97.6699C231.43 97.6699 223.35 89.5301 215.16 96.1201C214.684 89.6403 215.71 83.138 218.16 77.1201C219.57 73.4849 221.696 70.1695 224.41 67.3701L224.82 66.99C225.978 65.819 227.388 64.9276 228.942 64.3835C230.496 63.8394 232.154 63.657 233.79 63.8501Z" fill="#DCC7B7"/>
<path d="M241.42 69.1798H241.52C240.722 75.0544 240.388 80.9827 240.52 86.9098C239.247 86.5612 238.134 85.7816 237.372 84.7037C236.609 83.6259 236.245 82.3166 236.34 80.9999C236.662 77.3426 237.445 73.7407 238.67 70.2799C238.67 70.2799 239.57 68.0298 241.42 69.1798Z" fill="#F0ECE4" stroke="#2D2D2E" stroke-width="0.34" stroke-miterlimit="10"/>
<path d="M239.56 46.79C239.56 46.79 245.56 53.0799 240.91 67.1699C238.872 65.4536 236.415 64.3083 233.79 63.8501L239.56 46.79Z" fill="#DCC7B7"/>
<path d="M115.25 369.99C117.78 369.63 186.72 359.74 204.16 380.75C210.077 392.587 213.456 405.531 214.08 418.75C214.14 420.26 214.26 421.75 214.43 423.29C214.43 423.29 199.43 451.53 154.64 452.29C110.57 453.03 105.55 452.29 105.55 452.29C105.55 452.29 151.96 463.41 197.31 450.73L172.58 468.14C170.833 469.531 169.686 471.538 169.372 473.749C169.059 475.96 169.603 478.207 170.894 480.029C172.185 481.851 174.125 483.11 176.314 483.547C178.504 483.984 180.778 483.566 182.67 482.38L213.06 460.98C214.322 460.087 215.325 458.876 215.967 457.47C216.609 456.063 216.867 454.512 216.715 452.974C216.562 451.435 216.005 449.964 215.099 448.711C214.194 447.458 212.973 446.468 211.56 445.84C214.07 444.84 216.56 443.72 219.04 442.52C227.44 466.96 243.31 489.3 240.83 497.4H0.209961C0.209961 497.4 4.20991 475.13 11.7799 462.05C21.1599 464.3 29.85 465.9 37.83 466.99C38.8118 468.436 40.2053 469.554 41.83 470.2L76.2799 484.13C77.3441 484.562 78.483 484.779 79.6313 484.77C80.7797 484.76 81.915 484.525 82.9722 484.076C84.0293 483.627 84.9875 482.974 85.7919 482.155C86.5963 481.335 87.2311 480.365 87.6599 479.3C88.0995 478.283 88.3295 477.187 88.3361 476.079C88.3426 474.971 88.1256 473.873 87.698 472.851C87.2704 471.829 86.6412 470.903 85.8477 470.13C85.0542 469.356 84.1128 468.751 83.08 468.35C87.8644 467.974 92.6101 467.208 97.2699 466.06C88.8999 465.8 81.41 465.33 74.72 464.7L48.3699 454C46.3897 453.204 44.1867 453.158 42.1755 453.873C40.1644 454.588 38.4837 456.013 37.45 457.88C24.05 453.64 20.3599 449.39 20.3599 449.39C24.9099 440.07 25.23 429.19 28.73 412.89C33.18 392.11 45.73 362.83 45.97 362.23C47.5137 364.603 49.6256 366.553 52.1141 367.903C54.6026 369.253 57.3889 369.96 60.22 369.96H115.29L115.25 369.99ZM176.25 397.45C176.254 395.758 175.766 394.102 174.846 392.683C173.925 391.263 172.611 390.142 171.065 389.457C169.519 388.771 167.806 388.55 166.136 388.82C164.466 389.091 162.911 389.841 161.66 390.98L134.11 415.93C132.394 417.485 131.366 419.659 131.253 421.972C131.139 424.285 131.949 426.549 133.505 428.265C135.06 429.981 137.234 431.009 139.547 431.122C141.86 431.236 144.124 430.425 145.84 428.87L173.38 403.92C174.279 403.1 174.996 402.101 175.484 400.986C175.971 399.871 176.219 398.666 176.21 397.45H176.25ZM75.8599 440.6C76.9007 440.118 77.8366 439.437 78.614 438.594C79.3914 437.751 79.9953 436.764 80.3909 435.688C80.7865 434.611 80.9662 433.468 80.9197 432.322C80.8732 431.176 80.6014 430.05 80.1199 429.01L64.47 395.28C63.4546 393.247 61.6876 391.69 59.5436 390.938C57.3996 390.186 55.047 390.299 52.9846 391.252C50.9222 392.205 49.312 393.924 48.4954 396.044C47.6787 398.165 47.7198 400.519 48.6099 402.61L64.22 436.34C65.1937 438.443 66.9627 440.073 69.1379 440.872C71.3132 441.67 73.7167 441.572 75.8199 440.6H75.8599Z" fill="#DF6A2E"/>
<path d="M234.47 38.4797L224.73 66.9197L224.32 67.2998C221.606 70.0992 219.48 73.4146 218.07 77.0498C215.621 83.0677 214.594 89.57 215.07 96.0498C214.682 96.363 214.312 96.6969 213.96 97.0498C211.172 99.929 209.004 103.35 207.59 107.1C205.27 112.921 204.272 119.186 204.67 125.44C201.833 128.409 199.64 131.933 198.23 135.79C196.171 141.087 195.211 146.749 195.41 152.43L177.52 204.7L120.52 185.19C118.765 182.559 116.557 180.26 114 178.4C108.7 174.53 103.64 169.62 100.73 163.76L153.16 10.5898L174.07 17.7498C172.7 21.7498 174.55 25.9998 178.2 27.2498L204.42 36.2498C208.07 37.4998 212.14 35.2498 213.5 31.2498L234.47 38.4797ZM194.36 86.6597C195.569 83.1087 195.766 79.2912 194.929 75.6345C194.092 71.9778 192.254 68.6265 189.62 65.9553C186.986 63.2841 183.661 61.3986 180.016 60.51C176.372 59.6214 172.552 59.7645 168.984 60.9236C165.416 62.0827 162.242 64.212 159.815 67.073C157.389 69.934 155.807 73.4137 155.246 77.1228C154.685 80.8319 155.168 84.624 156.64 88.0745C158.111 91.5249 160.515 94.4975 163.58 96.6597L145.1 151.28L155.93 154.95L156.54 153.16L164.69 155.93L165.45 153.68L157.3 150.92L158.38 147.71L166.54 150.47L167.3 148.23L159.14 145.47L160.23 142.26L168.38 145.02L169.14 142.78L160.99 140.02L162.08 136.82L170.23 139.58L170.99 137.33L162.84 134.57L174.41 100.4C178.774 100.574 183.076 99.3292 186.673 96.8521C190.27 94.3749 192.967 90.7987 194.36 86.6597Z" fill="#8F4899"/>
<path d="M230.47 123.34C230.47 123.66 230.47 124 230.54 124.34C231.031 129.329 230.466 134.365 228.881 139.12C227.296 143.876 224.726 148.244 221.34 151.94C221.17 149.74 221.05 147.55 221.01 145.35C220.868 139.453 221.202 133.554 222.01 127.71C222.01 127.38 222.09 127.06 222.14 126.71L222.24 126C222.24 126 213.42 117.1 204.86 125.43L204.78 125.51C204.382 119.256 205.38 112.992 207.7 107.17C209.114 103.42 211.282 99.9995 214.07 97.1202C214.422 96.7673 214.792 96.4335 215.18 96.1202C223.37 89.5302 231.45 97.67 231.45 97.67L231.35 98.3802C231.35 98.7002 231.25 99.0102 231.22 99.3202H231.13C230.899 99.1658 230.636 99.0664 230.361 99.0299C230.086 98.9934 229.806 99.0208 229.543 99.1097C229.28 99.1987 229.041 99.3468 228.845 99.5428C228.648 99.7389 228.5 99.9774 228.41 100.24C227.013 103.679 226.127 107.305 225.78 111C225.671 112.361 226.054 113.715 226.86 114.816C227.665 115.918 228.84 116.693 230.17 117H230.27C230.2 119.06 230.3 121.2 230.47 123.34Z" fill="#DCC7B7"/>
<path d="M231.01 99.2797H231.1C230.297 105.12 229.963 111.016 230.1 116.91H230C228.67 116.602 227.496 115.827 226.69 114.726C225.884 113.625 225.501 112.27 225.61 110.91C225.957 107.214 226.843 103.589 228.24 100.15C228.333 99.8836 228.487 99.6425 228.689 99.4463C228.892 99.25 229.138 99.1038 229.407 99.0193C229.676 98.9347 229.961 98.9142 230.239 98.9594C230.518 99.0047 230.782 99.1144 231.01 99.2797Z" fill="#F0ECE4" stroke="#2D2D2E" stroke-width="0.34" stroke-miterlimit="10"/>
<path d="M124.83 197.58H124.92L182.12 216.37L196.01 176.01C197.03 173.064 197.372 169.926 197.01 166.83L195.77 156.51C195.61 155.18 195.5 153.85 195.47 152.51C195.272 146.83 196.231 141.168 198.29 135.87C199.7 132.013 201.893 128.49 204.73 125.52L204.81 125.44C213.37 117.11 222.19 126.01 222.19 126.01L222.09 126.72C222.04 127.05 222 127.37 221.96 127.72C221.729 127.564 221.465 127.463 221.189 127.425C220.913 127.388 220.631 127.415 220.367 127.504C220.103 127.593 219.863 127.742 219.666 127.939C219.468 128.136 219.319 128.376 219.23 128.64C217.832 132.079 216.946 135.704 216.6 139.4C216.493 140.76 216.877 142.113 217.682 143.214C218.488 144.315 219.661 145.091 220.99 145.4C220.99 147.6 221.15 149.79 221.32 151.99C221.32 152.25 221.32 152.5 221.38 152.75C222.03 160.67 223.89 177.62 214.03 188.9C209.934 193.514 206.235 198.465 202.97 203.7C196.32 214.54 185.6 230.63 177.97 235.22C166.09 242.35 180.89 318.68 180.89 318.68H56.7501L68.8502 232.09C69.7 222.033 67.4191 211.96 62.3202 203.25C58.5217 196.774 56.2678 189.509 55.7336 182.02C55.1994 174.531 56.3993 167.02 59.2401 160.07C65.1401 145.64 72.7701 126.85 78.6101 112.07C80.1573 112.491 81.8065 112.313 83.2283 111.572C84.65 110.83 85.7398 109.58 86.2801 108.07C88.0901 103.177 89.6225 98.1859 90.8701 93.1202C91.1001 92.0502 91.5101 89.33 87.5301 87.94C89.9601 82.03 110.2 100.21 106.9 118.94C106.818 119.394 106.704 119.842 106.56 120.28L106.41 120.72C104.57 125.93 98.6701 146.25 98.2801 151.96C98.0255 156.083 98.8893 160.198 100.78 163.87C103.69 169.73 108.78 174.64 114.05 178.51C116.608 180.37 118.815 182.669 120.57 185.3C123.011 188.965 124.477 193.191 124.83 197.58Z" fill="#DCC7B7"/>
<path d="M219.2 128.61C219.289 128.346 219.438 128.105 219.635 127.908C219.833 127.711 220.073 127.562 220.337 127.473C220.601 127.384 220.883 127.357 221.159 127.395C221.435 127.433 221.699 127.533 221.93 127.69C221.122 133.533 220.788 139.432 220.93 145.33C219.602 145.02 218.428 144.245 217.622 143.144C216.817 142.043 216.433 140.689 216.54 139.33C216.899 135.646 217.795 132.034 219.2 128.61Z" fill="#F0ECE4" stroke="#2D2D2E" stroke-width="0.34" stroke-miterlimit="10"/>
<path d="M215.14 448.81C216.472 450.704 216.999 453.05 216.603 455.332C216.207 457.613 214.922 459.645 213.03 460.98L182.67 482.38C181.733 483.07 180.668 483.566 179.537 483.839C178.406 484.112 177.231 484.157 176.083 483.97C174.934 483.783 173.835 483.369 172.848 482.752C171.862 482.135 171.009 481.326 170.339 480.375C169.669 479.423 169.196 478.348 168.947 477.211C168.699 476.074 168.68 474.899 168.891 473.755C169.103 472.611 169.541 471.52 170.179 470.547C170.818 469.575 171.644 468.739 172.61 468.09L197.34 450.68C202.169 449.343 206.916 447.73 211.56 445.85C212.999 446.495 214.236 447.518 215.14 448.81Z" fill="#8F4899"/>
<path d="M214.43 423.28C215.253 429.85 216.789 436.312 219.01 442.55C216.54 443.75 214.01 444.86 211.53 445.87C206.886 447.75 202.138 449.363 197.31 450.7C151.96 463.38 105.55 452.26 105.55 452.26C105.55 452.26 110.55 453 154.64 452.26C199.43 451.49 214.43 423.28 214.43 423.28Z" fill="#EBD7BE" stroke="#2D2D2E" stroke-width="0.34" stroke-miterlimit="10"/>
<path d="M178.79 360.98C183.665 361.516 188.509 362.31 193.3 363.36C197.568 368.718 201.212 374.546 204.16 380.73C186.72 359.73 117.78 369.61 115.25 369.97C119.455 367.587 123.908 365.672 128.53 364.26C133.942 362.598 139.496 361.436 145.12 360.789C150.702 360.131 156.32 359.841 161.94 359.92C167.571 359.989 173.195 360.342 178.79 360.98Z" fill="#EBD7BE" stroke="#2D2D2E" stroke-width="0.34" stroke-miterlimit="10"/>
<path d="M196.98 166.82C197.342 169.916 197 173.054 195.98 176L182.09 216.36L124.89 197.57H124.8C124.454 193.167 122.987 188.926 120.54 185.25L177.54 204.76L195.43 152.49C195.43 153.83 195.57 155.16 195.73 156.49L196.98 166.82Z" fill="#3D4543"/>
<path d="M196.84 335.61V352.98C196.844 356.737 195.599 360.389 193.3 363.36C188.509 362.311 183.665 361.516 178.79 360.98V318.61H179.79C182.027 318.603 184.243 319.038 186.311 319.89C188.379 320.741 190.259 321.992 191.843 323.571C193.427 325.151 194.684 327.027 195.541 329.093C196.399 331.159 196.84 333.373 196.84 335.61Z" fill="#F5B335"/>
<path d="M181.67 61.0301C186.276 62.5865 190.167 65.7517 192.629 69.9449C195.091 74.1381 195.958 79.0782 195.072 83.8592C194.186 88.6402 191.606 92.9415 187.806 95.9742C184.005 99.0069 179.238 100.568 174.38 100.37L162.81 134.54L170.96 137.3L170.2 139.55L162.05 136.79L160.96 139.99L169.11 142.75L168.35 144.99L160.2 142.23L159.11 145.44L167.27 148.2L166.51 150.44L158.35 147.68L157.27 150.89L165.42 153.65L164.66 155.9L156.51 153.13L155.9 154.92L145.07 151.25L163.55 96.71C159.581 93.9091 156.753 89.7731 155.584 85.0584C154.414 80.3438 154.981 75.3656 157.181 71.0345C159.38 66.7035 163.065 63.3091 167.562 61.472C172.059 59.6349 177.067 59.478 181.67 61.0301ZM181.8 66.47C181.916 66.1218 181.927 65.7471 181.83 65.3929C181.734 65.0387 181.535 64.7208 181.258 64.4796C180.981 64.2383 180.639 64.0843 180.275 64.0369C179.911 63.9896 179.541 64.0512 179.212 64.2137C178.883 64.3762 178.609 64.6325 178.425 64.9503C178.241 65.2681 178.156 65.633 178.179 65.9993C178.202 66.3657 178.334 66.7172 178.556 67.0091C178.779 67.3011 179.083 67.5207 179.43 67.6402C179.664 67.7221 179.912 67.7566 180.16 67.742C180.408 67.7274 180.65 67.664 180.874 67.5553C181.097 67.4465 181.296 67.2945 181.46 67.1082C181.624 66.922 181.75 66.7051 181.83 66.47H181.8Z" fill="#F8B111" stroke="#2D2D2E" stroke-width="0.34" stroke-miterlimit="10"/>
<path d="M178.79 318.61V360.98C173.195 360.336 167.571 359.975 161.94 359.9V318.61H178.79Z" fill="#F9B5C3"/>
<path d="M173.96 391.59C175.51 393.308 176.315 395.571 176.199 397.883C176.083 400.194 175.055 402.366 173.34 403.92L145.8 428.87C144.084 430.425 141.82 431.236 139.507 431.122C137.194 431.009 135.02 429.981 133.465 428.265C131.909 426.549 131.099 424.285 131.213 421.972C131.326 419.659 132.354 417.485 134.07 415.93L161.67 390.98C163.384 389.438 165.638 388.637 167.941 388.751C170.243 388.866 172.407 389.886 173.96 391.59Z" fill="#8F4899"/>
<path d="M161.94 318.61V359.9C156.321 359.821 150.702 360.112 145.12 360.77V360.46V318.61H161.94Z" fill="#F5B335"/>
<path d="M145.08 360.46V360.77C139.455 361.417 133.902 362.578 128.49 364.24L128.19 363.29V318.61H145.04L145.08 360.46Z" fill="#F9B5C3"/>
<path d="M128.23 363.28L128.53 364.23C123.908 365.643 119.455 367.557 115.25 369.94H111.38V318.56H128.23V363.28Z" fill="#F5B335"/>
<path d="M111.38 318.6H94.5298V369.98H111.38V318.6Z" fill="#F9B5C3"/>
<path d="M94.5199 318.6H77.6699V369.98H94.5199V318.6Z" fill="#F5B335"/>
<path d="M87.5299 87.8799C91.5299 89.2699 91.0999 91.9898 90.8699 93.0598C89.6223 98.1255 88.0899 103.117 86.2799 108.01C85.7396 109.519 84.6498 110.77 83.228 111.511C81.8063 112.253 80.1571 112.431 78.6099 112.01C83.3499 100.01 86.9099 90.6199 87.3799 88.3899C87.4138 88.2156 87.4641 88.0448 87.5299 87.8799Z" fill="#F0ECE4" stroke="#2D2D2E" stroke-width="0.34" stroke-miterlimit="10"/>
<path d="M83.04 468.38C84.0729 468.781 85.0142 469.386 85.8077 470.16C86.6012 470.933 87.2306 471.859 87.6582 472.881C88.0858 473.903 88.3027 475.001 88.2961 476.109C88.2896 477.217 88.0596 478.312 87.62 479.33C87.1912 480.395 86.5565 481.365 85.7521 482.185C84.9477 483.005 83.9894 483.657 82.9323 484.106C81.8751 484.555 80.7399 484.791 79.5916 484.8C78.4432 484.809 77.3042 484.591 76.24 484.16L41.79 470.28C40.1654 469.634 38.7719 468.516 37.79 467.07C52.7725 469.249 67.9566 469.688 83.04 468.38Z" fill="#8F4899"/>
<path d="M83.0398 468.38C67.9665 469.659 52.7961 469.192 37.8298 466.99C29.8298 465.9 21.1598 464.3 11.7798 462.05C12.762 460.309 13.9072 458.665 15.1998 457.14C17.2405 454.804 18.9622 452.208 20.3198 449.42C20.3198 449.42 24.0098 453.67 37.4098 457.91C45.6798 460.52 57.6198 463.13 74.6798 464.73C81.3698 465.36 88.8599 465.83 97.2299 466.09C92.57 467.238 87.8242 468.004 83.0398 468.38Z" fill="#EBD7BE" stroke="#2D2D2E" stroke-width="0.34" stroke-miterlimit="10"/>
<path d="M80.0798 429.01C80.9699 431.1 81.011 433.455 80.1943 435.575C79.3777 437.696 77.7675 439.415 75.7051 440.368C73.6427 441.321 71.2901 441.433 69.1461 440.681C67.0021 439.93 65.2352 438.373 64.2198 436.34L48.6097 402.61C47.7196 400.52 47.6786 398.165 48.4952 396.045C49.3119 393.924 50.9221 392.205 52.9845 391.252C55.0469 390.299 57.3994 390.186 59.5435 390.938C61.6875 391.69 63.4545 393.248 64.4698 395.28L80.0798 429.01Z" fill="#8F4899"/>
<path d="M77.6698 318.6H60.8198V369.98H77.6698V318.6Z" fill="#F9B5C3"/>
<path d="M48.3302 454.03L74.6802 464.73C57.6202 463.13 45.6802 460.52 37.4102 457.91C38.4439 456.042 40.1246 454.618 42.1357 453.903C44.1469 453.188 46.35 453.233 48.3302 454.03Z" fill="#8F4899"/>
<path d="M60.8202 318.61V369.99H60.1802C57.3492 369.99 54.5629 369.283 52.0744 367.933C49.5859 366.583 47.474 364.633 45.9302 362.26C44.1297 359.504 43.1739 356.282 43.1802 352.99V335.62C43.1802 331.111 44.9712 326.787 48.1593 323.599C51.3475 320.411 55.6715 318.62 60.1802 318.62L60.8202 318.61Z" fill="#F5B335"/>
<path d="M106.55 120.23L147.23 0.220215L244.2 33.0702L239.56 46.7802L233.78 63.8402V63.8502" stroke="#2D2D2E" stroke-width="0.34" stroke-miterlimit="10"/>
<path d="M194.36 86.66C195.569 83.109 195.766 79.2915 194.929 75.6349C194.092 71.9782 192.254 68.6269 189.62 65.9557C186.986 63.2845 183.661 61.399 180.016 60.5104C176.372 59.6217 172.552 59.7648 168.984 60.9239C165.417 62.083 162.242 64.2124 159.816 67.0733C157.389 69.9343 155.807 73.414 155.246 77.1231C154.685 80.8322 155.168 84.6243 156.64 88.0748C158.112 91.5253 160.515 94.4978 163.58 96.66L145.1 151.28L155.93 154.95L156.54 153.16L164.69 155.93L165.45 153.68L157.3 150.92L158.38 147.71L166.54 150.47L167.3 148.23L159.14 145.47L160.23 142.26L168.38 145.02L169.14 142.78L160.99 140.02L162.08 136.82L170.23 139.58L170.99 137.33L162.84 134.57L174.41 100.4C178.774 100.574 183.076 99.3295 186.673 96.8524C190.27 94.3753 192.967 90.799 194.36 86.66V86.66Z" stroke="#2D2D2E" stroke-width="0.34" stroke-miterlimit="10"/>
<path d="M181.83 66.4697C181.712 66.8179 181.493 67.1235 181.202 67.3476C180.91 67.5717 180.559 67.7044 180.192 67.729C179.825 67.7535 179.46 67.6688 179.141 67.4856C178.822 67.3023 178.565 67.0286 178.402 66.6992C178.238 66.3698 178.176 65.9996 178.223 65.635C178.27 65.2703 178.425 64.9277 178.666 64.6506C178.908 64.3735 179.226 64.1744 179.581 64.0781C179.936 63.9818 180.311 63.9929 180.66 64.1098C181.127 64.2693 181.512 64.6067 181.731 65.0488C181.95 65.4908 181.986 66.0015 181.83 66.4697V66.4697Z" stroke="#2D2D2E" stroke-width="0.34" stroke-miterlimit="10"/>
<path d="M179.83 318.61C184.339 318.61 188.663 320.401 191.851 323.589C195.039 326.777 196.83 331.101 196.83 335.61V352.98C196.834 356.737 195.589 360.388 193.29 363.36" stroke="#2D2D2E" stroke-width="0.34" stroke-miterlimit="10"/>
<path d="M45.9302 362.28C44.1297 359.524 43.1739 356.302 43.1802 353.01V335.64C43.1802 331.131 44.9712 326.807 48.1593 323.619C51.3475 320.431 55.6715 318.64 60.1802 318.64" stroke="#2D2D2E" stroke-width="0.34" stroke-miterlimit="10"/>
<path d="M115.67 369.99H60.21C57.3789 369.99 54.5926 369.283 52.1041 367.933C49.6156 366.583 47.5037 364.633 45.96 362.26" stroke="#2D2D2E" stroke-width="0.34" stroke-miterlimit="10"/>
<path d="M45.9299 362.28C45.6699 362.88 33.1399 392.16 28.6899 412.94C25.1899 429.24 24.8699 440.12 20.3199 449.44C18.9624 452.228 17.2407 454.824 15.2 457.16C13.9073 458.684 12.7621 460.329 11.7799 462.07C4.22991 475.15 0.209961 497.42 0.209961 497.42H240.8C243.28 489.32 227.41 466.979 219.01 442.539C216.789 436.301 215.253 429.84 214.43 423.27C214.26 421.75 214.14 420.27 214.08 418.73C213.456 405.511 210.077 392.567 204.16 380.73C201.212 374.546 197.568 368.718 193.3 363.36C188.509 362.31 183.665 361.516 178.79 360.98C173.195 360.336 167.571 359.975 161.94 359.9C156.32 359.821 150.701 360.112 145.12 360.77C139.495 361.417 133.942 362.578 128.53 364.24C123.908 365.652 119.455 367.567 115.25 369.95C115.25 369.95 115.25 369.95 115.25 369.95C117.78 369.59 186.72 359.7 204.16 380.71" stroke="#2D2D2E" stroke-width="0.34" stroke-miterlimit="10"/>
<path d="M215.07 96.17C215.075 96.1436 215.075 96.1166 215.07 96.0902C214.594 89.6104 215.621 83.1081 218.07 77.0902C219.48 73.455 221.606 70.1396 224.32 67.3402L224.73 66.9601C225.904 65.7888 227.332 64.903 228.903 64.3707C230.473 63.8384 232.146 63.6741 233.79 63.8903C236.415 64.3484 238.872 65.4938 240.91 67.2101C241.42 67.6301 241.7 67.91 241.7 67.91V68.2501C241.7 68.5801 241.61 68.9101 241.57 69.2501C240.772 75.1247 240.438 81.053 240.57 86.9801C240.57 89.5401 240.74 92.1201 240.95 94.6901C241.413 99.9462 240.718 105.24 238.914 110.199C237.111 115.157 234.242 119.66 230.51 123.39V123.39" stroke="#2D2D2E" stroke-width="0.34" stroke-miterlimit="10"/>
<path d="M204.67 125.46C204.273 119.206 205.27 112.941 207.59 107.12C209.004 103.37 211.172 99.9491 213.96 97.0699C214.312 96.7169 214.683 96.3831 215.07 96.0699C223.26 89.4799 231.34 97.6199 231.34 97.6199L231.24 98.3299C231.24 98.6499 231.14 98.9598 231.11 99.2698C230.307 105.11 229.973 111.006 230.11 116.9C230.11 119.04 230.26 121.18 230.43 123.32C230.43 123.64 230.43 123.98 230.5 124.32C230.991 129.308 230.426 134.345 228.841 139.1C227.256 143.856 224.686 148.224 221.3 151.92" stroke="#2D2D2E" stroke-width="0.34" stroke-miterlimit="10"/>
<path d="M124.92 197.57L182.12 216.36L196.01 176C197.03 173.054 197.372 169.916 197.01 166.82L195.77 156.5C195.61 155.17 195.5 153.84 195.47 152.5C195.272 146.82 196.231 141.158 198.29 135.86C199.7 132.003 201.893 128.479 204.73 125.51L204.81 125.43C213.37 117.1 222.19 126 222.19 126L222.09 126.71C222.04 127.04 222 127.36 221.96 127.71C221.152 133.554 220.818 139.452 220.96 145.35C220.96 147.55 221.12 149.74 221.29 151.94C221.29 152.2 221.29 152.45 221.35 152.7C222 160.62 223.86 177.57 214 188.85C209.904 193.464 206.205 198.415 202.94 203.65C196.29 214.49 185.57 230.58 177.94 235.17C166.06 242.3 180.86 318.63 180.86 318.63H56.7501L68.8502 232.04C69.7 221.983 67.4191 211.91 62.3202 203.2C58.5217 196.724 56.2678 189.459 55.7336 181.97C55.1994 174.481 56.3993 166.97 59.2401 160.02C65.1401 145.59 72.7701 126.8 78.6101 112.02C83.3501 100.02 86.9101 90.63 87.3801 88.4C87.4152 88.2325 87.4655 88.0682 87.5301 87.9097C89.9601 81.9997 110.2 100.18 106.9 118.91C106.818 119.364 106.704 119.812 106.56 120.25L106.41 120.69C104.57 125.9 98.6701 146.22 98.2801 151.93C98.0255 156.052 98.8893 160.168 100.78 163.84C103.69 169.7 108.78 174.61 114.05 178.48C116.608 180.34 118.815 182.639 120.57 185.27C123.017 188.946 124.484 193.187 124.83 197.59C125.047 200.626 124.709 203.676 123.83 206.59C123.695 207.055 123.535 207.513 123.35 207.96" stroke="#2D2D2E" stroke-width="0.34" stroke-miterlimit="10"/>
<path d="M78.6099 111.99C80.1571 112.411 81.8063 112.233 83.228 111.491C84.6498 110.75 85.7396 109.499 86.2799 107.99C88.0899 103.097 89.6223 98.1055 90.8699 93.0398C91.0999 91.9698 91.5099 89.2499 87.5299 87.8599" stroke="#2D2D2E" stroke-width="0.34" stroke-miterlimit="10"/>
<path d="M220.96 145.33C219.631 145.02 218.458 144.245 217.652 143.144C216.847 142.043 216.463 140.689 216.57 139.33C216.915 135.634 217.802 132.008 219.2 128.57C219.289 128.306 219.438 128.065 219.635 127.868C219.832 127.671 220.073 127.522 220.337 127.433C220.601 127.344 220.882 127.317 221.159 127.355C221.435 127.392 221.699 127.493 221.93 127.65" stroke="#2D2D2E" stroke-width="0.34" stroke-miterlimit="10"/>
<path d="M230.05 116.92C228.72 116.613 227.545 115.837 226.74 114.736C225.934 113.635 225.551 112.28 225.66 110.92C226.007 107.224 226.893 103.599 228.29 100.16C228.38 99.8971 228.528 99.6585 228.725 99.4625C228.921 99.2665 229.16 99.1183 229.423 99.0294C229.686 98.9405 229.966 98.9133 230.241 98.9498C230.516 98.9863 230.779 99.0855 231.01 99.2399" stroke="#2D2D2E" stroke-width="0.34" stroke-miterlimit="10"/>
<path d="M240.74 86.9899L240.53 86.9298C239.256 86.5812 238.144 85.8014 237.381 84.7235C236.619 83.6456 236.254 82.3367 236.35 81.0199C236.667 77.3563 237.446 73.7476 238.67 70.2799C238.67 70.2799 239.54 68.0298 241.39 69.1798" stroke="#2D2D2E" stroke-width="0.34" stroke-miterlimit="10"/>
<path d="M239.56 46.79C239.56 46.79 245.56 53.0799 240.91 67.1699" stroke="#2D2D2E" stroke-width="0.34" stroke-miterlimit="10"/>
<path d="M120.56 185.26L177.54 204.77L195.43 152.49" stroke="#2D2D2E" stroke-width="0.34" stroke-miterlimit="10"/>
<path d="M174.12 17.8202L153.22 10.6602L100.78 163.83" stroke="#2D2D2E" stroke-width="0.34" stroke-miterlimit="10"/>
<path d="M224.73 66.9198L234.46 38.4698L213.56 31.3198" stroke="#2D2D2E" stroke-width="0.34" stroke-miterlimit="10"/>
<path d="M174.13 17.8198C172.76 21.8198 174.61 26.0698 178.26 27.3198L204.48 36.3198C208.13 37.5698 212.2 35.3198 213.56 31.3198" stroke="#2D2D2E" stroke-width="0.34" stroke-miterlimit="10"/>
<path d="M214.43 423.28C214.43 423.28 199.43 451.52 154.64 452.28C110.57 453.02 105.55 452.28 105.55 452.28C105.55 452.28 151.96 463.4 197.31 450.72C202.138 449.383 206.886 447.771 211.53 445.89C214.04 444.89 216.53 443.77 219.01 442.57" stroke="#2D2D2E" stroke-width="0.34" stroke-miterlimit="10"/>
<path d="M20.3198 449.42C20.3198 449.42 24.0098 453.67 37.4098 457.91C45.6798 460.52 57.6198 463.13 74.6798 464.73C81.3698 465.36 88.8599 465.83 97.2299 466.09C92.57 467.238 87.8242 468.004 83.0398 468.38C67.9665 469.659 52.7961 469.192 37.8298 466.99C29.8298 465.9 21.1598 464.3 11.7798 462.05" stroke="#2D2D2E" stroke-width="0.34" stroke-miterlimit="10"/>
<path d="M60.8198 318.6V369.98" stroke="#2D2D2E" stroke-width="0.34" stroke-miterlimit="10"/>
<path d="M77.6699 318.6V369.98" stroke="#2D2D2E" stroke-width="0.34" stroke-miterlimit="10"/>
<path d="M94.5298 318.6V369.98" stroke="#2D2D2E" stroke-width="0.34" stroke-miterlimit="10"/>
<path d="M111.37 318.6V369.98" stroke="#2D2D2E" stroke-width="0.34" stroke-miterlimit="10"/>
<path d="M128.23 318.6V363.29" stroke="#2D2D2E" stroke-width="0.34" stroke-miterlimit="10"/>
<path d="M145.08 318.6V360.46" stroke="#2D2D2E" stroke-width="0.34" stroke-miterlimit="10"/>
<path d="M161.93 318.61V359.9V359.91" stroke="#2D2D2E" stroke-width="0.34" stroke-miterlimit="10"/>
<path d="M178.78 318.61V360.98V361.42" stroke="#2D2D2E" stroke-width="0.34" stroke-miterlimit="10"/>
</g>
<defs>
<clipPath id="clip0_701:1148">
<rect width="244.42" height="497.57" fill="white"/>
</clipPath>
</defs>
</svg>
