<svg width="350" height="486" viewBox="0 0 350 486" fill="none" xmlns="http://www.w3.org/2000/svg">
<mask id="mask0_897_3576" style="mask-type:alpha" maskUnits="userSpaceOnUse" x="66" y="18" width="396" height="409">
<path fill-rule="evenodd" clip-rule="evenodd" d="M344.664 62.3557C351.688 87.7 374.643 105.14 401.399 105.471C454.756 106.124 480.071 169.203 442.448 207.751C423.581 227.08 419.197 255.91 431.614 279.008C456.371 325.071 413.132 379.89 361.496 367.897C335.607 361.885 308.27 373.27 293.931 396.037C265.332 441.447 196.777 433.187 182.765 382.649C175.741 357.305 152.782 339.863 126.03 339.534C72.6726 338.877 47.3571 275.799 84.9817 237.254C103.843 217.923 108.233 189.095 95.8152 165.997C71.058 119.934 114.297 65.1152 165.932 77.1046C191.823 83.1201 219.159 71.735 233.497 48.9649C262.098 3.55869 330.652 11.8178 344.664 62.3557Z" stroke="#F6E3E3" stroke-width="2"/>
</mask>
<g mask="url(#mask0_897_3576)">
<rect x="14" y="90" width="336" height="379" fill="#B4B4B4"/>
</g>
</svg>
