<svg width="92" height="92" viewBox="0 0 92 92" fill="none" xmlns="http://www.w3.org/2000/svg">
<path d="M46.0027 5.14627L51.9244 1L56.5741 6.54279L63.3672 4.06369L66.4255 10.6187L73.6301 9.9908L74.8859 17.1142L82.0092 18.3645L81.3759 25.5745L87.9363 28.6273L85.4572 35.4259L91 40.0756L86.8483 45.9973L91 51.9244L85.4572 56.5687L87.9363 63.3672L81.3759 66.4255L82.0092 73.6301L74.8859 74.8858L73.6301 82.0092L66.4255 81.3759L63.3672 87.9309L56.5741 85.4572L51.9244 91L46.0027 86.8483L40.0756 91L35.4259 85.4572L28.6328 87.9309L25.5745 81.3759L18.3699 82.0092L17.1141 74.8858L9.99079 73.6301L10.6241 66.4255L4.0691 63.3672L6.54279 56.5687L1 51.9244L5.15167 45.9973L1 40.0756L6.54279 35.4259L4.0691 28.6273L10.6241 25.5745L9.99079 18.3645L17.1141 17.1142L18.3699 9.9908L25.5745 10.6187L28.6328 4.06369L35.4259 6.54279L40.0756 1L46.0027 5.14627Z" fill="#F3D5D5" stroke="#2C3850" stroke-width="0.9" stroke-miterlimit="10"/>
<path d="M66.7068 65.9762L60.4 71.3626H25.5454V20.0898H66.7068V65.9762Z" fill="#238D7E" stroke="#2C3850" stroke-width="0.76" stroke-miterlimit="10"/>
<path d="M29.875 28.3672C31.5045 28.3672 31.5045 29.049 33.1341 29.049C34.7636 29.049 34.7636 28.3672 36.3932 28.3672C38.0227 28.3672 38.0227 29.049 39.6523 29.049C41.2818 29.049 41.2818 28.3672 42.9114 28.3672C44.5409 28.3672 44.5409 29.049 46.1705 29.049C47.8 29.049 47.8 28.3672 49.4295 28.3672C51.0591 28.3672 51.0591 29.049 52.6886 29.049C54.3182 29.049 54.3182 28.3672 55.9477 28.3672C57.5773 28.3672 57.5773 29.049 59.2068 29.049C60.8364 29.049 60.8364 28.3672 62.4659 28.3672" fill="#238D7E"/>
<path d="M29.875 28.3672C31.5045 28.3672 31.5045 29.049 33.1341 29.049C34.7636 29.049 34.7636 28.3672 36.3932 28.3672C38.0227 28.3672 38.0227 29.049 39.6523 29.049C41.2818 29.049 41.2818 28.3672 42.9114 28.3672C44.5409 28.3672 44.5409 29.049 46.1705 29.049C47.8 29.049 47.8 28.3672 49.4295 28.3672C51.0591 28.3672 51.0591 29.049 52.6886 29.049C54.3182 29.049 54.3182 28.3672 55.9477 28.3672C57.5773 28.3672 57.5773 29.049 59.2068 29.049C60.8364 29.049 60.8364 28.3672 62.4659 28.3672" stroke="white" stroke-width="0.76" stroke-miterlimit="10" stroke-linecap="round"/>
<path d="M29.875 33.7266C31.5045 33.7266 31.5045 34.4084 33.1341 34.4084C34.7636 34.4084 34.7636 33.7266 36.3932 33.7266C38.0227 33.7266 38.0227 34.4084 39.6523 34.4084C41.2818 34.4084 41.2818 33.7266 42.9114 33.7266C44.5409 33.7266 44.5409 34.4084 46.1705 34.4084C47.8 34.4084 47.8 33.7266 49.4295 33.7266C51.0591 33.7266 51.0591 34.4084 52.6886 34.4084C54.3182 34.4084 54.3182 33.7266 55.9477 33.7266C57.5773 33.7266 57.5773 34.4084 59.2068 34.4084C60.8364 34.4084 60.8364 33.7266 62.4659 33.7266" fill="#238D7E"/>
<path d="M29.875 33.7266C31.5045 33.7266 31.5045 34.4084 33.1341 34.4084C34.7636 34.4084 34.7636 33.7266 36.3932 33.7266C38.0227 33.7266 38.0227 34.4084 39.6523 34.4084C41.2818 34.4084 41.2818 33.7266 42.9114 33.7266C44.5409 33.7266 44.5409 34.4084 46.1705 34.4084C47.8 34.4084 47.8 33.7266 49.4295 33.7266C51.0591 33.7266 51.0591 34.4084 52.6886 34.4084C54.3182 34.4084 54.3182 33.7266 55.9477 33.7266C57.5773 33.7266 57.5773 34.4084 59.2068 34.4084C60.8364 34.4084 60.8364 33.7266 62.4659 33.7266" stroke="white" stroke-width="0.76" stroke-miterlimit="10" stroke-linecap="round"/>
<path d="M29.875 39.0781C31.5045 39.0781 31.5045 39.7599 33.1341 39.7599C34.7636 39.7599 34.7636 39.0781 36.3932 39.0781C38.0227 39.0781 38.0227 39.7599 39.6523 39.7599C41.2818 39.7599 41.2818 39.0781 42.9114 39.0781C44.5409 39.0781 44.5409 39.7599 46.1705 39.7599C47.8 39.7599 47.8 39.0781 49.4295 39.0781C51.0591 39.0781 51.0591 39.7599 52.6886 39.7599C54.3182 39.7599 54.3182 39.0781 55.9477 39.0781C57.5773 39.0781 57.5773 39.7599 59.2068 39.7599C60.8364 39.7599 60.8364 39.0781 62.4659 39.0781" fill="#238D7E"/>
<path d="M29.875 39.0781C31.5045 39.0781 31.5045 39.7599 33.1341 39.7599C34.7636 39.7599 34.7636 39.0781 36.3932 39.0781C38.0227 39.0781 38.0227 39.7599 39.6523 39.7599C41.2818 39.7599 41.2818 39.0781 42.9114 39.0781C44.5409 39.0781 44.5409 39.7599 46.1705 39.7599C47.8 39.7599 47.8 39.0781 49.4295 39.0781C51.0591 39.0781 51.0591 39.7599 52.6886 39.7599C54.3182 39.7599 54.3182 39.0781 55.9477 39.0781C57.5773 39.0781 57.5773 39.7599 59.2068 39.7599C60.8364 39.7599 60.8364 39.0781 62.4659 39.0781" stroke="white" stroke-width="0.76" stroke-miterlimit="10" stroke-linecap="round"/>
<path d="M29.875 44.4375C31.5045 44.4375 31.5045 45.1193 33.1341 45.1193C34.7636 45.1193 34.7636 44.4375 36.3932 44.4375C38.0227 44.4375 38.0227 45.1193 39.6523 45.1193C41.2818 45.1193 41.2818 44.4375 42.9114 44.4375C44.5409 44.4375 44.5409 45.1193 46.1705 45.1193C47.8 45.1193 47.8 44.4375 49.4295 44.4375C51.0591 44.4375 51.0591 45.1193 52.6886 45.1193C54.3182 45.1193 54.3182 44.4375 55.9477 44.4375C57.5773 44.4375 57.5773 45.1193 59.2068 45.1193C60.8364 45.1193 60.8364 44.4375 62.4659 44.4375" fill="#238D7E"/>
<path d="M29.875 44.4375C31.5045 44.4375 31.5045 45.1193 33.1341 45.1193C34.7636 45.1193 34.7636 44.4375 36.3932 44.4375C38.0227 44.4375 38.0227 45.1193 39.6523 45.1193C41.2818 45.1193 41.2818 44.4375 42.9114 44.4375C44.5409 44.4375 44.5409 45.1193 46.1705 45.1193C47.8 45.1193 47.8 44.4375 49.4295 44.4375C51.0591 44.4375 51.0591 45.1193 52.6886 45.1193C54.3182 45.1193 54.3182 44.4375 55.9477 44.4375C57.5773 44.4375 57.5773 45.1193 59.2068 45.1193C60.8364 45.1193 60.8364 44.4375 62.4659 44.4375" stroke="white" stroke-width="0.76" stroke-miterlimit="10" stroke-linecap="round"/>
<path d="M29.875 49.7969C31.5045 49.7969 31.5045 50.4787 33.1341 50.4787C34.7636 50.4787 34.7636 49.7969 36.3932 49.7969C38.0227 49.7969 38.0227 50.4787 39.6523 50.4787C41.2818 50.4787 41.2818 49.7969 42.9114 49.7969C44.5409 49.7969 44.5409 50.4787 46.1705 50.4787C47.8 50.4787 47.8 49.7969 49.4295 49.7969C51.0591 49.7969 51.0591 50.4787 52.6886 50.4787C54.3182 50.4787 54.3182 49.7969 55.9477 49.7969C57.5773 49.7969 57.5773 50.4787 59.2068 50.4787C60.8364 50.4787 60.8364 49.7969 62.4659 49.7969" fill="#238D7E"/>
<path d="M29.875 49.7969C31.5045 49.7969 31.5045 50.4787 33.1341 50.4787C34.7636 50.4787 34.7636 49.7969 36.3932 49.7969C38.0227 49.7969 38.0227 50.4787 39.6523 50.4787C41.2818 50.4787 41.2818 49.7969 42.9114 49.7969C44.5409 49.7969 44.5409 50.4787 46.1705 50.4787C47.8 50.4787 47.8 49.7969 49.4295 49.7969C51.0591 49.7969 51.0591 50.4787 52.6886 50.4787C54.3182 50.4787 54.3182 49.7969 55.9477 49.7969C57.5773 49.7969 57.5773 50.4787 59.2068 50.4787C60.8364 50.4787 60.8364 49.7969 62.4659 49.7969" stroke="white" stroke-width="0.76" stroke-miterlimit="10" stroke-linecap="round"/>
<path d="M29.875 55.1484C31.5045 55.1484 31.5045 55.8303 33.1341 55.8303C34.7636 55.8303 34.7636 55.1484 36.3932 55.1484C38.0227 55.1484 38.0227 55.8303 39.6523 55.8303C41.2818 55.8303 41.2818 55.1484 42.9114 55.1484C44.5409 55.1484 44.5409 55.8303 46.1705 55.8303C47.8 55.8303 47.8 55.1484 49.4295 55.1484C51.0591 55.1484 51.0591 55.8303 52.6886 55.8303C54.3182 55.8303 54.3182 55.1484 55.9477 55.1484C57.5773 55.1484 57.5773 55.8303 59.2068 55.8303C60.8364 55.8303 60.8364 55.1484 62.4659 55.1484" fill="#238D7E"/>
<path d="M29.875 55.1484C31.5045 55.1484 31.5045 55.8303 33.1341 55.8303C34.7636 55.8303 34.7636 55.1484 36.3932 55.1484C38.0227 55.1484 38.0227 55.8303 39.6523 55.8303C41.2818 55.8303 41.2818 55.1484 42.9114 55.1484C44.5409 55.1484 44.5409 55.8303 46.1705 55.8303C47.8 55.8303 47.8 55.1484 49.4295 55.1484C51.0591 55.1484 51.0591 55.8303 52.6886 55.8303C54.3182 55.8303 54.3182 55.1484 55.9477 55.1484C57.5773 55.1484 57.5773 55.8303 59.2068 55.8303C60.8364 55.8303 60.8364 55.1484 62.4659 55.1484" stroke="white" stroke-width="0.76" stroke-miterlimit="10" stroke-linecap="round"/>
<path d="M29.875 60.5078C31.5045 60.5078 31.5045 61.1896 33.1341 61.1896C34.7636 61.1896 34.7636 60.5078 36.3932 60.5078C38.0227 60.5078 38.0227 61.1896 39.6523 61.1896C41.2818 61.1896 41.2818 60.5078 42.9114 60.5078C44.5409 60.5078 44.5409 61.1896 46.1705 61.1896C47.8 61.1896 47.8 60.5078 49.4295 60.5078C51.0591 60.5078 51.0591 61.1896 52.6886 61.1896C54.3182 61.1896 54.3182 60.5078 55.9477 60.5078C57.5773 60.5078 57.5773 61.1896 59.2068 61.1896C60.8364 61.1896 60.8364 60.5078 62.4659 60.5078" fill="#238D7E"/>
<path d="M29.875 60.5078C31.5045 60.5078 31.5045 61.1896 33.1341 61.1896C34.7636 61.1896 34.7636 60.5078 36.3932 60.5078C38.0227 60.5078 38.0227 61.1896 39.6523 61.1896C41.2818 61.1896 41.2818 60.5078 42.9114 60.5078C44.5409 60.5078 44.5409 61.1896 46.1705 61.1896C47.8 61.1896 47.8 60.5078 49.4295 60.5078C51.0591 60.5078 51.0591 61.1896 52.6886 61.1896C54.3182 61.1896 54.3182 60.5078 55.9477 60.5078C57.5773 60.5078 57.5773 61.1896 59.2068 61.1896C60.8364 61.1896 60.8364 60.5078 62.4659 60.5078" stroke="white" stroke-width="0.76" stroke-miterlimit="10" stroke-linecap="round"/>
<path d="M60.3999 71.3629V65.9766H66.7067" fill="#238D7E"/>
<path d="M60.3999 71.3629V65.9766H66.7067" stroke="#2C3850" stroke-width="0.76" stroke-miterlimit="10"/>
</svg>
