<svg width="89" height="99" viewBox="0 0 89 99" fill="none" xmlns="http://www.w3.org/2000/svg">
<g clip-path="url(#clip0_701:310)">
<path d="M49.11 93.54C51.2639 93.54 53.01 91.7939 53.01 89.64C53.01 87.4861 51.2639 85.74 49.11 85.74C46.9561 85.74 45.21 87.4861 45.21 89.64C45.21 91.7939 46.9561 93.54 49.11 93.54Z" fill="#333333"/>
<path d="M33.5202 23.39C34.8125 23.39 35.8602 22.3423 35.8602 21.05C35.8602 19.7576 34.8125 18.71 33.5202 18.71C32.2278 18.71 31.1802 19.7576 31.1802 21.05C31.1802 22.3423 32.2278 23.39 33.5202 23.39Z" fill="#333333"/>
<path d="M39.7502 23.39C41.0425 23.39 42.0902 22.3423 42.0902 21.05C42.0902 19.7576 41.0425 18.71 39.7502 18.71C38.4578 18.71 37.4102 19.7576 37.4102 21.05C37.4102 22.3423 38.4578 23.39 39.7502 23.39Z" fill="#333333"/>
<path d="M45.9899 23.39C47.2822 23.39 48.3299 22.3423 48.3299 21.05C48.3299 19.7576 47.2822 18.71 45.9899 18.71C44.6976 18.71 43.6499 19.7576 43.6499 21.05C43.6499 22.3423 44.6976 23.39 45.9899 23.39Z" fill="#333333"/>
<path d="M20.2801 56.1201H10.9301C10.7253 56.1201 10.5224 56.1605 10.3331 56.2389C10.1439 56.3173 9.97189 56.4322 9.82703 56.577C9.68217 56.7219 9.56723 56.8939 9.48883 57.0831C9.41043 57.2724 9.37012 57.4753 9.37012 57.6802C9.37012 57.885 9.41043 58.0878 9.48883 58.2771C9.56723 58.4664 9.68217 58.6383 9.82703 58.7832C9.97189 58.9281 10.1439 59.0429 10.3331 59.1213C10.5224 59.1997 10.7253 59.2401 10.9301 59.2401H20.2801C20.485 59.2401 20.6878 59.1997 20.8771 59.1213C21.0663 59.0429 21.2383 58.9281 21.3832 58.7832C21.528 58.6383 21.6429 58.4664 21.7213 58.2771C21.7997 58.0878 21.8401 57.885 21.8401 57.6802C21.8401 57.4753 21.7997 57.2724 21.7213 57.0831C21.6429 56.8939 21.528 56.7219 21.3832 56.577C21.2383 56.4322 21.0663 56.3173 20.8771 56.2389C20.6878 56.1605 20.485 56.1201 20.2801 56.1201Z" fill="#333333"/>
<path d="M29.6199 56.1201H24.9399C24.735 56.1201 24.5322 56.1605 24.3429 56.2389C24.1536 56.3173 23.9817 56.4322 23.8368 56.577C23.6919 56.7219 23.5771 56.8939 23.4987 57.0831C23.4203 57.2724 23.3799 57.4753 23.3799 57.6802C23.3799 57.885 23.4203 58.0878 23.4987 58.2771C23.5771 58.4664 23.6919 58.6383 23.8368 58.7832C23.9817 58.9281 24.1536 59.0429 24.3429 59.1213C24.5322 59.1997 24.735 59.2401 24.9399 59.2401H29.6199C29.8248 59.2401 30.0277 59.1997 30.2169 59.1213C30.4062 59.0429 30.5782 58.9281 30.723 58.7832C30.8679 58.6383 30.9828 58.4664 31.0612 58.2771C31.1396 58.0878 31.1799 57.885 31.1799 57.6802C31.1799 57.4753 31.1396 57.2724 31.0612 57.0831C30.9828 56.8939 30.8679 56.7219 30.723 56.577C30.5782 56.4322 30.4062 56.3173 30.2169 56.2389C30.0277 56.1605 29.8248 56.1201 29.6199 56.1201Z" fill="#333333"/>
<path d="M88.8599 14.03C88.9215 10.5462 87.6818 7.16442 85.383 4.54589C83.0842 1.92737 79.8915 0.260234 76.429 -0.129768C72.9665 -0.51977 69.483 0.395453 66.6593 2.437C63.8356 4.47856 61.8747 7.49973 61.1599 10.91H29.8099C28.1045 10.91 26.469 11.5875 25.2631 12.7933C24.0573 13.9992 23.3798 15.6346 23.3798 17.34V35.86H6.51984C5.61718 35.86 4.75133 36.2179 4.11212 36.8552C3.47291 37.4926 3.11251 38.3573 3.10986 39.26V62.0699C3.10986 62.9743 3.46914 63.8417 4.10864 64.4812C4.74814 65.1207 5.61545 65.48 6.51984 65.48H48.0298C48.9342 65.48 49.8016 65.1207 50.4411 64.4812C51.0806 63.8417 51.4398 62.9743 51.4398 62.0699V39.25C51.4372 38.3473 51.0768 37.4825 50.4376 36.8452C49.7983 36.2079 48.9325 35.85 48.0298 35.85H26.4998V17.3299C26.4998 16.4521 26.8486 15.6102 27.4693 14.9895C28.09 14.3687 28.932 14.02 29.8099 14.02H60.8099C60.8015 17.474 62.0702 20.8091 64.3721 23.3841C66.674 25.9592 69.8466 27.5925 73.2798 27.97V81.0601H26.4998V70.25C26.4998 69.8363 26.3355 69.4395 26.0429 69.147C25.7504 68.8544 25.3536 68.6899 24.9398 68.6899C24.5261 68.6899 24.1293 68.8544 23.8367 69.147C23.5442 69.4395 23.3798 69.8363 23.3798 70.25V91.79C23.3825 93.4946 24.0608 95.1284 25.2661 96.3337C26.4713 97.539 28.1053 98.2173 29.8099 98.22H69.9598C71.6644 98.2173 73.2983 97.539 74.5036 96.3337C75.7089 95.1284 76.3872 93.4946 76.3898 91.79V27.97C79.8171 27.5821 82.9819 25.9471 85.2815 23.3765C87.5811 20.8058 88.8547 17.4791 88.8599 14.03ZM6.27985 46.77H48.2798V49.89H6.27985V46.77ZM48.0798 62.36H6.51984C6.44292 62.36 6.36914 62.3294 6.31476 62.275C6.26037 62.2206 6.22986 62.1469 6.22986 62.0699V53H48.2798V62.0699C48.2805 62.1404 48.2555 62.2087 48.2095 62.2621C48.1635 62.3154 48.0996 62.3503 48.0298 62.36H48.0798ZM48.2798 39.25V43.64H6.27985V39.25C6.27985 39.1731 6.31042 39.0993 6.36481 39.0449C6.41919 38.9905 6.49291 38.96 6.56982 38.96H48.0798C48.1404 38.9796 48.1928 39.0187 48.2289 39.0712C48.2651 39.1236 48.283 39.1864 48.2798 39.25ZM73.2798 91.78C73.2772 92.6571 72.9276 93.4974 72.3074 94.1175C71.6873 94.7377 70.8469 95.0873 69.9698 95.09H29.8099C28.932 95.09 28.09 94.7412 27.4693 94.1205C26.8486 93.4997 26.4998 92.6579 26.4998 91.78V84.17H73.2798V91.78ZM74.8398 24.93C72.6821 24.93 70.5727 24.2901 68.7786 23.0913C66.9844 21.8925 65.5861 20.1886 64.7603 18.1951C63.9346 16.2015 63.7185 14.0079 64.1395 11.8916C64.5604 9.77526 65.5995 7.8312 67.1253 6.30541C68.6511 4.77962 70.5951 3.74054 72.7114 3.31957C74.8278 2.89861 77.0213 3.11467 79.0149 3.94042C81.0084 4.76617 82.7124 6.16459 83.9112 7.95873C85.11 9.75287 85.7498 11.8622 85.7498 14.02C85.7472 16.9154 84.5958 19.6913 82.5485 21.7386C80.5012 23.786 77.7252 24.9373 74.8298 24.9399L74.8398 24.93Z" fill="#333333"/>
<path d="M78.2099 8.48996L73.0299 16.26L71.2499 14.49C70.9516 14.2333 70.5673 14.0988 70.174 14.1135C69.7807 14.1282 69.4075 14.291 69.1293 14.5693C68.851 14.8476 68.6882 15.2208 68.6735 15.6141C68.6587 16.0074 68.7932 16.3916 69.0499 16.6899L72.1699 19.81C72.4618 20.102 72.857 20.2673 73.2699 20.27H73.4199C73.6505 20.2464 73.873 20.1723 74.0718 20.0531C74.2705 19.9338 74.4405 19.7722 74.5699 19.5799L80.7999 10.23C80.9281 10.0604 81.0204 9.86646 81.0709 9.66001C81.1215 9.45355 81.1293 9.23898 81.0939 9.02939C81.0586 8.8198 80.9807 8.61956 80.8652 8.44113C80.7497 8.26271 80.5989 8.10986 80.4222 7.99179C80.2454 7.87373 80.0464 7.79299 79.8373 7.75461C79.6283 7.71623 79.4135 7.72106 79.2064 7.76865C78.9992 7.81624 78.804 7.90557 78.6326 8.03134C78.4613 8.15711 78.3174 8.31661 78.2099 8.49997V8.48996Z" fill="#333333"/>
<path d="M17.1399 21.8199C17.3443 21.8213 17.547 21.7823 17.7362 21.705C17.9254 21.6277 18.0974 21.5136 18.2424 21.3695C18.3874 21.2254 18.5025 21.0542 18.5811 20.8655C18.6596 20.6768 18.7 20.4744 18.6999 20.27V12.47C18.7172 12.2553 18.6898 12.0394 18.6194 11.8358C18.5491 11.6322 18.4374 11.4454 18.2913 11.2871C18.1452 11.1288 17.968 11.0025 17.7707 10.9161C17.5734 10.8297 17.3603 10.7852 17.145 10.7852C16.9296 10.7852 16.7165 10.8297 16.5192 10.9161C16.3219 11.0025 16.1447 11.1288 15.9986 11.2871C15.8525 11.4454 15.7408 11.6322 15.6705 11.8358C15.6001 12.0394 15.5727 12.2553 15.59 12.47V20.27C15.5886 20.4739 15.6278 20.6761 15.7053 20.8647C15.7827 21.0534 15.8968 21.2248 16.041 21.369C16.1852 21.5132 16.3566 21.6273 16.5452 21.7047C16.7339 21.7821 16.936 21.8213 17.1399 21.8199Z" fill="#333333"/>
<path d="M10.9102 28.0601C10.9102 27.6463 10.7459 27.2495 10.4533 26.9569C10.1608 26.6644 9.76396 26.5 9.35022 26.5H1.55023C1.13649 26.5 0.7397 26.6644 0.447144 26.9569C0.154587 27.2495 -0.00976562 27.6463 -0.00976562 28.0601C-0.00976562 28.4738 0.154587 28.8705 0.447144 29.1631C0.7397 29.4556 1.13649 29.62 1.55023 29.62H9.35022C9.76396 29.62 10.1608 29.4556 10.4533 29.1631C10.7459 28.8705 10.9102 28.4738 10.9102 28.0601Z" fill="#333333"/>
<path d="M9.90982 22.8101C10.0532 22.9624 10.2256 23.0842 10.417 23.1685C10.6084 23.2528 10.8148 23.2978 11.024 23.3007C11.2331 23.3036 11.4406 23.2645 11.6343 23.1856C11.828 23.1067 12.0038 22.9897 12.1513 22.8415C12.2989 22.6932 12.4151 22.5168 12.4931 22.3228C12.5712 22.1287 12.6094 21.921 12.6055 21.7119C12.6016 21.5028 12.5558 21.2966 12.4706 21.1056C12.3855 20.9146 12.2628 20.7426 12.1098 20.6L6.56979 15.0601C6.27366 14.7839 5.88172 14.6336 5.47684 14.6411C5.07196 14.6486 4.68587 14.8133 4.40018 15.1002C4.11448 15.3872 3.95162 15.7741 3.94595 16.179C3.94028 16.5839 4.0923 16.9752 4.36984 17.27L9.90982 22.8101Z" fill="#333333"/>
</g>
<defs>
<clipPath id="clip0_701:310">
<rect width="88.86" height="98.22" fill="white"/>
</clipPath>
</defs>
</svg>
